<?xml version="1.0" encoding="utf-8" standalone="no"?>
<!DOCTYPE svg PUBLIC "-//W3C//DTD SVG 1.1//EN"
  "http://www.w3.org/Graphics/SVG/1.1/DTD/svg11.dtd">
<!-- Created with matplotlib (https://matplotlib.org/) -->
<svg height="345.6pt" version="1.1" viewBox="0 0 460.8 345.6" width="460.8pt" xmlns="http://www.w3.org/2000/svg" xmlns:xlink="http://www.w3.org/1999/xlink">
 <defs>
  <style type="text/css">
*{stroke-linecap:butt;stroke-linejoin:round;}
  </style>
 </defs>
 <g id="figure_1">
  <g id="patch_1">
   <path d="M 0 345.6 
L 460.8 345.6 
L 460.8 0 
L 0 0 
z
" style="fill:#ffffff;"/>
  </g>
  <g id="axes_1">
   <g id="patch_2">
    <path d="M 57.6 307.584 
L 414.72 307.584 
L 414.72 41.472 
L 57.6 41.472 
z
" style="fill:#ffffff;"/>
   </g>
   <g id="PolyCollection_1">
    <path clip-path="url(#pf1aaedbd23)" d="M 73.832727 95.55727 
L 73.832727 106.838072 
L 75.48072 100.137673 
L 77.128713 115.12527 
L 78.776705 110.977775 
L 80.424698 130.8905 
L 82.07269 146.851213 
L 83.720683 157.34649 
L 85.368676 164.459038 
L 87.016668 151.339043 
L 88.664661 153.454409 
L 90.312653 160.165448 
L 91.960646 167.727922 
L 93.608639 181.199139 
L 95.256631 186.244259 
L 96.904624 209.286282 
L 98.552617 222.487613 
L 100.200609 231.531453 
L 101.848602 238.523662 
L 103.496594 248.111165 
L 105.144587 260.88058 
L 106.79258 265.195404 
L 108.440572 266.902708 
L 110.088565 268.06491 
L 111.736557 266.227635 
L 113.38455 266.635326 
L 115.032543 267.65934 
L 116.680535 272.157528 
L 118.328528 276.544396 
L 119.976521 277.30086 
L 121.624513 280.065635 
L 123.272506 280.812195 
L 124.920498 281.667283 
L 126.568491 281.621504 
L 128.216484 279.206996 
L 129.864476 279.714711 
L 131.512469 279.938361 
L 133.160461 280.993596 
L 134.808454 281.217068 
L 136.456447 281.826525 
L 138.104439 282.400947 
L 139.752432 280.195883 
L 141.400425 278.751464 
L 143.048417 274.341577 
L 144.69641 267.741326 
L 146.344402 251.831478 
L 147.992395 236.767047 
L 149.640388 222.827045 
L 151.28838 207.830175 
L 152.936373 183.601506 
L 154.584365 161.223083 
L 156.232358 145.165835 
L 157.880351 127.384664 
L 159.528343 115.021395 
L 161.176336 100.126356 
L 162.824329 103.108654 
L 164.472321 95.154231 
L 166.120314 90.747723 
L 167.768306 79.078035 
L 169.416299 76.913104 
L 171.064292 71.272148 
L 172.712284 71.892252 
L 174.360277 73.356311 
L 176.008269 64.214705 
L 177.656262 89.218587 
L 179.304255 89.035627 
L 180.952247 103.333338 
L 182.60024 105.719324 
L 184.248233 109.567322 
L 185.896225 131.915362 
L 187.544218 135.692356 
L 189.19221 133.798195 
L 190.840203 136.822322 
L 192.488196 144.674387 
L 194.136188 161.33952 
L 195.784181 171.584486 
L 197.432174 178.490192 
L 199.080166 188.399059 
L 200.728159 195.588852 
L 202.376151 201.059527 
L 204.024144 209.259724 
L 205.672137 218.077704 
L 207.320129 223.861839 
L 208.968122 229.316285 
L 210.616114 235.926721 
L 212.264107 235.425009 
L 213.9121 235.783143 
L 215.560092 235.336118 
L 217.208085 236.676168 
L 218.856078 233.485491 
L 220.50407 233.220018 
L 222.152063 242.130715 
L 223.800055 245.744749 
L 225.448048 247.528228 
L 227.096041 256.636497 
L 228.744033 264.929509 
L 230.392026 268.422545 
L 232.040018 270.163463 
L 233.688011 270.10269 
L 235.336004 271.62672 
L 236.983996 271.512649 
L 238.631989 272.219725 
L 240.279982 274.669736 
L 241.927974 277.392125 
L 243.575967 280.559715 
L 245.223959 282.450659 
L 246.871952 283.990722 
L 248.519945 285.602023 
L 250.167937 285.58489 
L 251.81593 285.304996 
L 253.463922 285.263163 
L 255.111915 285.873235 
L 256.759908 285.543785 
L 258.4079 283.523969 
L 260.055893 282.547634 
L 261.703886 280.048234 
L 263.351878 275.20829 
L 264.999871 269.514053 
L 266.647863 261.371013 
L 268.295856 252.402827 
L 269.943849 238.833997 
L 271.591841 231.187741 
L 273.239834 223.85947 
L 274.887826 213.538147 
L 276.535819 202.073554 
L 278.183812 195.32216 
L 279.831804 193.147962 
L 281.479797 173.942701 
L 283.12779 166.759845 
L 284.775782 164.209246 
L 286.423775 157.183194 
L 288.071767 142.754893 
L 289.71976 133.191614 
L 291.367753 150.285682 
L 293.015745 140.688053 
L 294.663738 130.63021 
L 296.311731 131.833168 
L 297.959723 165.666866 
L 299.607716 164.295886 
L 301.255708 135.695181 
L 302.903701 138.508997 
L 304.551694 157.191018 
L 306.199686 157.378815 
L 307.847679 135.586832 
L 309.495671 145.853006 
L 311.143664 174.226627 
L 312.791657 175.070117 
L 314.439649 169.534958 
L 316.087642 162.623381 
L 317.735635 171.574561 
L 319.383627 175.955256 
L 321.03162 164.61462 
L 322.679612 164.387709 
L 324.327605 174.37368 
L 325.975598 198.40477 
L 327.62359 198.909555 
L 329.271583 191.488418 
L 330.919575 204.743305 
L 332.567568 217.700735 
L 334.215561 222.508429 
L 335.863553 228.233861 
L 337.511546 237.905201 
L 339.159539 254.658701 
L 340.807531 262.305506 
L 342.455524 263.783738 
L 344.103516 268.289918 
L 345.751509 272.563977 
L 347.399502 279.837632 
L 349.047494 281.078873 
L 350.695487 282.961435 
L 352.343479 284.852077 
L 353.991472 285.168477 
L 355.639465 285.489584 
L 357.287457 285.144093 
L 358.93545 284.659947 
L 360.583443 284.553808 
L 362.231435 285.205285 
L 363.879428 286.016924 
L 365.52742 286.631188 
L 367.175413 287.253025 
L 368.823406 287.608449 
L 370.471398 287.562185 
L 372.119391 285.577955 
L 373.767383 283.727702 
L 375.415376 281.678874 
L 377.063369 278.970805 
L 378.711361 273.486386 
L 380.359354 261.831996 
L 382.007347 249.36708 
L 383.655339 231.699427 
L 385.303332 205.297251 
L 386.951324 185.44903 
L 388.599317 175.254197 
L 390.24731 166.849286 
L 391.895302 152.05551 
L 393.543295 148.226766 
L 395.191287 161.306916 
L 396.83928 159.481669 
L 398.487273 146.939987 
L 398.487273 137.264832 
L 398.487273 137.264832 
L 396.83928 150.17284 
L 395.191287 157.710028 
L 393.543295 139.937823 
L 391.895302 137.992548 
L 390.24731 156.11863 
L 388.599317 164.962196 
L 386.951324 169.771734 
L 385.303332 186.202076 
L 383.655339 214.043476 
L 382.007347 244.827266 
L 380.359354 255.884034 
L 378.711361 263.375947 
L 377.063369 266.532251 
L 375.415376 268.257938 
L 373.767383 269.607111 
L 372.119391 271.172966 
L 370.471398 272.189107 
L 368.823406 272.162643 
L 367.175413 271.808344 
L 365.52742 271.315569 
L 363.879428 270.838125 
L 362.231435 270.197858 
L 360.583443 269.829294 
L 358.93545 270.120231 
L 357.287457 270.361662 
L 355.639465 270.57939 
L 353.991472 270.461402 
L 352.343479 269.697013 
L 350.695487 268.463555 
L 349.047494 267.604513 
L 347.399502 265.357378 
L 345.751509 261.167955 
L 344.103516 258.582365 
L 342.455524 256.759919 
L 340.807531 254.329544 
L 339.159539 246.231291 
L 337.511546 231.462225 
L 335.863553 220.988715 
L 334.215561 214.63696 
L 332.567568 208.77628 
L 330.919575 197.416675 
L 329.271583 183.022543 
L 327.62359 180.812033 
L 325.975598 188.920547 
L 324.327605 168.565296 
L 322.679612 158.683468 
L 321.03162 152.124835 
L 319.383627 165.259983 
L 317.735635 166.049716 
L 316.087642 151.835331 
L 314.439649 162.980787 
L 312.791657 162.704476 
L 311.143664 162.923563 
L 309.495671 133.002099 
L 307.847679 123.121998 
L 306.199686 144.161421 
L 304.551694 147.657016 
L 302.903701 130.195571 
L 301.255708 121.151069 
L 299.607716 146.66546 
L 297.959723 148.260387 
L 296.311731 124.054988 
L 294.663738 124.457844 
L 293.015745 133.744391 
L 291.367753 143.837165 
L 289.71976 120.562114 
L 288.071767 125.784485 
L 286.423775 149.977756 
L 284.775782 154.857828 
L 283.12779 160.420731 
L 281.479797 155.852487 
L 279.831804 180.425094 
L 278.183812 185.243262 
L 276.535819 187.980239 
L 274.887826 200.194548 
L 273.239834 212.541317 
L 271.591841 224.042218 
L 269.943849 229.758164 
L 268.295856 247.964962 
L 266.647863 255.068139 
L 264.999871 260.626665 
L 263.351878 264.535603 
L 261.703886 267.300435 
L 260.055893 268.524832 
L 258.4079 269.624403 
L 256.759908 270.818682 
L 255.111915 270.751853 
L 253.463922 270.298037 
L 251.81593 270.518815 
L 250.167937 270.80765 
L 248.519945 270.377158 
L 246.871952 269.264685 
L 245.223959 268.152539 
L 243.575967 266.584752 
L 241.927974 264.685592 
L 240.279982 262.808098 
L 238.631989 261.687069 
L 236.983996 261.560014 
L 235.336004 260.979143 
L 233.688011 260.772871 
L 232.040018 260.477949 
L 230.392026 259.248877 
L 228.744033 255.474577 
L 227.096041 249.275322 
L 225.448048 244.608681 
L 223.800055 242.315796 
L 222.152063 237.260736 
L 220.50407 228.593917 
L 218.856078 223.582511 
L 217.208085 231.219582 
L 215.560092 229.776437 
L 213.9121 230.985534 
L 212.264107 228.022351 
L 210.616114 229.610906 
L 208.968122 223.131819 
L 207.320129 214.916753 
L 205.672137 210.782678 
L 204.024144 199.442032 
L 202.376151 193.517427 
L 200.728159 185.698242 
L 199.080166 181.62123 
L 197.432174 172.751093 
L 195.784181 163.047803 
L 194.136188 153.202195 
L 192.488196 140.772834 
L 190.840203 131.692355 
L 189.19221 128.826561 
L 187.544218 127.045194 
L 185.896225 115.873174 
L 184.248233 95.689916 
L 182.60024 95.565674 
L 180.952247 88.034761 
L 179.304255 77.042101 
L 177.656262 67.533093 
L 176.008269 53.568 
L 174.360277 62.02816 
L 172.712284 57.69684 
L 171.064292 59.911719 
L 169.416299 64.244301 
L 167.768306 69.546661 
L 166.120314 81.256327 
L 164.472321 86.494792 
L 162.824329 93.11345 
L 161.176336 91.634957 
L 159.528343 108.271769 
L 157.880351 114.743365 
L 156.232358 135.205261 
L 154.584365 144.416015 
L 152.936373 164.175604 
L 151.28838 190.794466 
L 149.640388 208.574983 
L 147.992395 228.670975 
L 146.344402 244.035338 
L 144.69641 259.842921 
L 143.048417 263.87808 
L 141.400425 266.122125 
L 139.752432 267.482694 
L 138.104439 268.349535 
L 136.456447 267.885785 
L 134.808454 267.622171 
L 133.160461 267.180126 
L 131.512469 266.826025 
L 129.864476 266.240579 
L 128.216484 266.769895 
L 126.568491 267.982521 
L 124.920498 267.739867 
L 123.272506 267.397156 
L 121.624513 266.165568 
L 119.976521 265.171629 
L 118.328528 263.91313 
L 116.680535 260.807888 
L 115.032543 258.612422 
L 113.38455 258.101056 
L 111.736557 258.418461 
L 110.088565 259.32757 
L 108.440572 258.422004 
L 106.79258 257.033998 
L 105.144587 252.036986 
L 103.496594 241.719479 
L 101.848602 232.759241 
L 100.200609 225.091638 
L 98.552617 213.463177 
L 96.904624 201.209368 
L 95.256631 179.632352 
L 93.608639 174.657776 
L 91.960646 163.629119 
L 90.312653 155.070569 
L 88.664661 147.457255 
L 87.016668 140.579987 
L 85.368676 156.865605 
L 83.720683 151.484926 
L 82.07269 136.385607 
L 80.424698 112.32262 
L 78.776705 103.49074 
L 77.128713 97.576666 
L 75.48072 87.958651 
L 73.832727 95.55727 
z
" style="fill:#008000;fill-opacity:0.4;"/>
   </g>
   <g id="matplotlib.axis_1">
    <g id="xtick_1">
     <g id="line2d_1">
      <defs>
       <path d="M 0 0 
L 0 3.5 
" id="m760a88431a" style="stroke:#000000;stroke-width:0.8;"/>
      </defs>
      <g>
       <use style="stroke:#000000;stroke-width:0.8;" x="73.832727" xlink:href="#m760a88431a" y="307.584"/>
      </g>
     </g>
     <g id="text_1">
      <!-- 0.0 -->
      <defs>
       <path d="M 31.78125 66.40625 
Q 24.171875 66.40625 20.328125 58.90625 
Q 16.5 51.421875 16.5 36.375 
Q 16.5 21.390625 20.328125 13.890625 
Q 24.171875 6.390625 31.78125 6.390625 
Q 39.453125 6.390625 43.28125 13.890625 
Q 47.125 21.390625 47.125 36.375 
Q 47.125 51.421875 43.28125 58.90625 
Q 39.453125 66.40625 31.78125 66.40625 
z
M 31.78125 74.21875 
Q 44.046875 74.21875 50.515625 64.515625 
Q 56.984375 54.828125 56.984375 36.375 
Q 56.984375 17.96875 50.515625 8.265625 
Q 44.046875 -1.421875 31.78125 -1.421875 
Q 19.53125 -1.421875 13.0625 8.265625 
Q 6.59375 17.96875 6.59375 36.375 
Q 6.59375 54.828125 13.0625 64.515625 
Q 19.53125 74.21875 31.78125 74.21875 
z
" id="DejaVuSans-48"/>
       <path d="M 10.6875 12.40625 
L 21 12.40625 
L 21 0 
L 10.6875 0 
z
" id="DejaVuSans-46"/>
      </defs>
      <g transform="translate(65.881165 322.182437)scale(0.1 -0.1)">
       <use xlink:href="#DejaVuSans-48"/>
       <use x="63.623047" xlink:href="#DejaVuSans-46"/>
       <use x="95.410156" xlink:href="#DejaVuSans-48"/>
      </g>
     </g>
    </g>
    <g id="xtick_2">
     <g id="line2d_2">
      <g>
       <use style="stroke:#000000;stroke-width:0.8;" x="138.763636" xlink:href="#m760a88431a" y="307.584"/>
      </g>
     </g>
     <g id="text_2">
      <!-- 0.2 -->
      <defs>
       <path d="M 19.1875 8.296875 
L 53.609375 8.296875 
L 53.609375 0 
L 7.328125 0 
L 7.328125 8.296875 
Q 12.9375 14.109375 22.625 23.890625 
Q 32.328125 33.6875 34.8125 36.53125 
Q 39.546875 41.84375 41.421875 45.53125 
Q 43.3125 49.21875 43.3125 52.78125 
Q 43.3125 58.59375 39.234375 62.25 
Q 35.15625 65.921875 28.609375 65.921875 
Q 23.96875 65.921875 18.8125 64.3125 
Q 13.671875 62.703125 7.8125 59.421875 
L 7.8125 69.390625 
Q 13.765625 71.78125 18.9375 73 
Q 24.125 74.21875 28.421875 74.21875 
Q 39.75 74.21875 46.484375 68.546875 
Q 53.21875 62.890625 53.21875 53.421875 
Q 53.21875 48.921875 51.53125 44.890625 
Q 49.859375 40.875 45.40625 35.40625 
Q 44.1875 33.984375 37.640625 27.21875 
Q 31.109375 20.453125 19.1875 8.296875 
z
" id="DejaVuSans-50"/>
      </defs>
      <g transform="translate(130.812074 322.182437)scale(0.1 -0.1)">
       <use xlink:href="#DejaVuSans-48"/>
       <use x="63.623047" xlink:href="#DejaVuSans-46"/>
       <use x="95.410156" xlink:href="#DejaVuSans-50"/>
      </g>
     </g>
    </g>
    <g id="xtick_3">
     <g id="line2d_3">
      <g>
       <use style="stroke:#000000;stroke-width:0.8;" x="203.694545" xlink:href="#m760a88431a" y="307.584"/>
      </g>
     </g>
     <g id="text_3">
      <!-- 0.4 -->
      <defs>
       <path d="M 37.796875 64.3125 
L 12.890625 25.390625 
L 37.796875 25.390625 
z
M 35.203125 72.90625 
L 47.609375 72.90625 
L 47.609375 25.390625 
L 58.015625 25.390625 
L 58.015625 17.1875 
L 47.609375 17.1875 
L 47.609375 0 
L 37.796875 0 
L 37.796875 17.1875 
L 4.890625 17.1875 
L 4.890625 26.703125 
z
" id="DejaVuSans-52"/>
      </defs>
      <g transform="translate(195.742983 322.182437)scale(0.1 -0.1)">
       <use xlink:href="#DejaVuSans-48"/>
       <use x="63.623047" xlink:href="#DejaVuSans-46"/>
       <use x="95.410156" xlink:href="#DejaVuSans-52"/>
      </g>
     </g>
    </g>
    <g id="xtick_4">
     <g id="line2d_4">
      <g>
       <use style="stroke:#000000;stroke-width:0.8;" x="268.625455" xlink:href="#m760a88431a" y="307.584"/>
      </g>
     </g>
     <g id="text_4">
      <!-- 0.6 -->
      <defs>
       <path d="M 33.015625 40.375 
Q 26.375 40.375 22.484375 35.828125 
Q 18.609375 31.296875 18.609375 23.390625 
Q 18.609375 15.53125 22.484375 10.953125 
Q 26.375 6.390625 33.015625 6.390625 
Q 39.65625 6.390625 43.53125 10.953125 
Q 47.40625 15.53125 47.40625 23.390625 
Q 47.40625 31.296875 43.53125 35.828125 
Q 39.65625 40.375 33.015625 40.375 
z
M 52.59375 71.296875 
L 52.59375 62.3125 
Q 48.875 64.0625 45.09375 64.984375 
Q 41.3125 65.921875 37.59375 65.921875 
Q 27.828125 65.921875 22.671875 59.328125 
Q 17.53125 52.734375 16.796875 39.40625 
Q 19.671875 43.65625 24.015625 45.921875 
Q 28.375 48.1875 33.59375 48.1875 
Q 44.578125 48.1875 50.953125 41.515625 
Q 57.328125 34.859375 57.328125 23.390625 
Q 57.328125 12.15625 50.6875 5.359375 
Q 44.046875 -1.421875 33.015625 -1.421875 
Q 20.359375 -1.421875 13.671875 8.265625 
Q 6.984375 17.96875 6.984375 36.375 
Q 6.984375 53.65625 15.1875 63.9375 
Q 23.390625 74.21875 37.203125 74.21875 
Q 40.921875 74.21875 44.703125 73.484375 
Q 48.484375 72.75 52.59375 71.296875 
z
" id="DejaVuSans-54"/>
      </defs>
      <g transform="translate(260.673892 322.182437)scale(0.1 -0.1)">
       <use xlink:href="#DejaVuSans-48"/>
       <use x="63.623047" xlink:href="#DejaVuSans-46"/>
       <use x="95.410156" xlink:href="#DejaVuSans-54"/>
      </g>
     </g>
    </g>
    <g id="xtick_5">
     <g id="line2d_5">
      <g>
       <use style="stroke:#000000;stroke-width:0.8;" x="333.556364" xlink:href="#m760a88431a" y="307.584"/>
      </g>
     </g>
     <g id="text_5">
      <!-- 0.8 -->
      <defs>
       <path d="M 31.78125 34.625 
Q 24.75 34.625 20.71875 30.859375 
Q 16.703125 27.09375 16.703125 20.515625 
Q 16.703125 13.921875 20.71875 10.15625 
Q 24.75 6.390625 31.78125 6.390625 
Q 38.8125 6.390625 42.859375 10.171875 
Q 46.921875 13.96875 46.921875 20.515625 
Q 46.921875 27.09375 42.890625 30.859375 
Q 38.875 34.625 31.78125 34.625 
z
M 21.921875 38.8125 
Q 15.578125 40.375 12.03125 44.71875 
Q 8.5 49.078125 8.5 55.328125 
Q 8.5 64.0625 14.71875 69.140625 
Q 20.953125 74.21875 31.78125 74.21875 
Q 42.671875 74.21875 48.875 69.140625 
Q 55.078125 64.0625 55.078125 55.328125 
Q 55.078125 49.078125 51.53125 44.71875 
Q 48 40.375 41.703125 38.8125 
Q 48.828125 37.15625 52.796875 32.3125 
Q 56.78125 27.484375 56.78125 20.515625 
Q 56.78125 9.90625 50.3125 4.234375 
Q 43.84375 -1.421875 31.78125 -1.421875 
Q 19.734375 -1.421875 13.25 4.234375 
Q 6.78125 9.90625 6.78125 20.515625 
Q 6.78125 27.484375 10.78125 32.3125 
Q 14.796875 37.15625 21.921875 38.8125 
z
M 18.3125 54.390625 
Q 18.3125 48.734375 21.84375 45.5625 
Q 25.390625 42.390625 31.78125 42.390625 
Q 38.140625 42.390625 41.71875 45.5625 
Q 45.3125 48.734375 45.3125 54.390625 
Q 45.3125 60.0625 41.71875 63.234375 
Q 38.140625 66.40625 31.78125 66.40625 
Q 25.390625 66.40625 21.84375 63.234375 
Q 18.3125 60.0625 18.3125 54.390625 
z
" id="DejaVuSans-56"/>
      </defs>
      <g transform="translate(325.604801 322.182437)scale(0.1 -0.1)">
       <use xlink:href="#DejaVuSans-48"/>
       <use x="63.623047" xlink:href="#DejaVuSans-46"/>
       <use x="95.410156" xlink:href="#DejaVuSans-56"/>
      </g>
     </g>
    </g>
    <g id="xtick_6">
     <g id="line2d_6">
      <g>
       <use style="stroke:#000000;stroke-width:0.8;" x="398.487273" xlink:href="#m760a88431a" y="307.584"/>
      </g>
     </g>
     <g id="text_6">
      <!-- 1.0 -->
      <defs>
       <path d="M 12.40625 8.296875 
L 28.515625 8.296875 
L 28.515625 63.921875 
L 10.984375 60.40625 
L 10.984375 69.390625 
L 28.421875 72.90625 
L 38.28125 72.90625 
L 38.28125 8.296875 
L 54.390625 8.296875 
L 54.390625 0 
L 12.40625 0 
z
" id="DejaVuSans-49"/>
      </defs>
      <g transform="translate(390.53571 322.182437)scale(0.1 -0.1)">
       <use xlink:href="#DejaVuSans-49"/>
       <use x="63.623047" xlink:href="#DejaVuSans-46"/>
       <use x="95.410156" xlink:href="#DejaVuSans-48"/>
      </g>
     </g>
    </g>
   </g>
   <g id="matplotlib.axis_2">
    <g id="ytick_1">
     <g id="line2d_7">
      <defs>
       <path d="M 0 0 
L -3.5 0 
" id="mfe23e10314" style="stroke:#000000;stroke-width:0.8;"/>
      </defs>
      <g>
       <use style="stroke:#000000;stroke-width:0.8;" x="57.6" xlink:href="#mfe23e10314" y="299.484996"/>
      </g>
     </g>
     <g id="text_7">
      <!-- 0.0 -->
      <g transform="translate(34.696875 303.284215)scale(0.1 -0.1)">
       <use xlink:href="#DejaVuSans-48"/>
       <use x="63.623047" xlink:href="#DejaVuSans-46"/>
       <use x="95.410156" xlink:href="#DejaVuSans-48"/>
      </g>
     </g>
    </g>
    <g id="ytick_2">
     <g id="line2d_8">
      <g>
       <use style="stroke:#000000;stroke-width:0.8;" x="57.6" xlink:href="#mfe23e10314" y="260.074661"/>
      </g>
     </g>
     <g id="text_8">
      <!-- 0.1 -->
      <g transform="translate(34.696875 263.873879)scale(0.1 -0.1)">
       <use xlink:href="#DejaVuSans-48"/>
       <use x="63.623047" xlink:href="#DejaVuSans-46"/>
       <use x="95.410156" xlink:href="#DejaVuSans-49"/>
      </g>
     </g>
    </g>
    <g id="ytick_3">
     <g id="line2d_9">
      <g>
       <use style="stroke:#000000;stroke-width:0.8;" x="57.6" xlink:href="#mfe23e10314" y="220.664325"/>
      </g>
     </g>
     <g id="text_9">
      <!-- 0.2 -->
      <g transform="translate(34.696875 224.463544)scale(0.1 -0.1)">
       <use xlink:href="#DejaVuSans-48"/>
       <use x="63.623047" xlink:href="#DejaVuSans-46"/>
       <use x="95.410156" xlink:href="#DejaVuSans-50"/>
      </g>
     </g>
    </g>
    <g id="ytick_4">
     <g id="line2d_10">
      <g>
       <use style="stroke:#000000;stroke-width:0.8;" x="57.6" xlink:href="#mfe23e10314" y="181.253989"/>
      </g>
     </g>
     <g id="text_10">
      <!-- 0.3 -->
      <defs>
       <path d="M 40.578125 39.3125 
Q 47.65625 37.796875 51.625 33 
Q 55.609375 28.21875 55.609375 21.1875 
Q 55.609375 10.40625 48.1875 4.484375 
Q 40.765625 -1.421875 27.09375 -1.421875 
Q 22.515625 -1.421875 17.65625 -0.515625 
Q 12.796875 0.390625 7.625 2.203125 
L 7.625 11.71875 
Q 11.71875 9.328125 16.59375 8.109375 
Q 21.484375 6.890625 26.8125 6.890625 
Q 36.078125 6.890625 40.9375 10.546875 
Q 45.796875 14.203125 45.796875 21.1875 
Q 45.796875 27.640625 41.28125 31.265625 
Q 36.765625 34.90625 28.71875 34.90625 
L 20.21875 34.90625 
L 20.21875 43.015625 
L 29.109375 43.015625 
Q 36.375 43.015625 40.234375 45.921875 
Q 44.09375 48.828125 44.09375 54.296875 
Q 44.09375 59.90625 40.109375 62.90625 
Q 36.140625 65.921875 28.71875 65.921875 
Q 24.65625 65.921875 20.015625 65.03125 
Q 15.375 64.15625 9.8125 62.3125 
L 9.8125 71.09375 
Q 15.4375 72.65625 20.34375 73.4375 
Q 25.25 74.21875 29.59375 74.21875 
Q 40.828125 74.21875 47.359375 69.109375 
Q 53.90625 64.015625 53.90625 55.328125 
Q 53.90625 49.265625 50.4375 45.09375 
Q 46.96875 40.921875 40.578125 39.3125 
z
" id="DejaVuSans-51"/>
      </defs>
      <g transform="translate(34.696875 185.053208)scale(0.1 -0.1)">
       <use xlink:href="#DejaVuSans-48"/>
       <use x="63.623047" xlink:href="#DejaVuSans-46"/>
       <use x="95.410156" xlink:href="#DejaVuSans-51"/>
      </g>
     </g>
    </g>
    <g id="ytick_5">
     <g id="line2d_11">
      <g>
       <use style="stroke:#000000;stroke-width:0.8;" x="57.6" xlink:href="#mfe23e10314" y="141.843653"/>
      </g>
     </g>
     <g id="text_11">
      <!-- 0.4 -->
      <g transform="translate(34.696875 145.642872)scale(0.1 -0.1)">
       <use xlink:href="#DejaVuSans-48"/>
       <use x="63.623047" xlink:href="#DejaVuSans-46"/>
       <use x="95.410156" xlink:href="#DejaVuSans-52"/>
      </g>
     </g>
    </g>
    <g id="ytick_6">
     <g id="line2d_12">
      <g>
       <use style="stroke:#000000;stroke-width:0.8;" x="57.6" xlink:href="#mfe23e10314" y="102.433318"/>
      </g>
     </g>
     <g id="text_12">
      <!-- 0.5 -->
      <defs>
       <path d="M 10.796875 72.90625 
L 49.515625 72.90625 
L 49.515625 64.59375 
L 19.828125 64.59375 
L 19.828125 46.734375 
Q 21.96875 47.46875 24.109375 47.828125 
Q 26.265625 48.1875 28.421875 48.1875 
Q 40.625 48.1875 47.75 41.5 
Q 54.890625 34.8125 54.890625 23.390625 
Q 54.890625 11.625 47.5625 5.09375 
Q 40.234375 -1.421875 26.90625 -1.421875 
Q 22.3125 -1.421875 17.546875 -0.640625 
Q 12.796875 0.140625 7.71875 1.703125 
L 7.71875 11.625 
Q 12.109375 9.234375 16.796875 8.0625 
Q 21.484375 6.890625 26.703125 6.890625 
Q 35.15625 6.890625 40.078125 11.328125 
Q 45.015625 15.765625 45.015625 23.390625 
Q 45.015625 31 40.078125 35.4375 
Q 35.15625 39.890625 26.703125 39.890625 
Q 22.75 39.890625 18.8125 39.015625 
Q 14.890625 38.140625 10.796875 36.28125 
z
" id="DejaVuSans-53"/>
      </defs>
      <g transform="translate(34.696875 106.232536)scale(0.1 -0.1)">
       <use xlink:href="#DejaVuSans-48"/>
       <use x="63.623047" xlink:href="#DejaVuSans-46"/>
       <use x="95.410156" xlink:href="#DejaVuSans-53"/>
      </g>
     </g>
    </g>
    <g id="ytick_7">
     <g id="line2d_13">
      <g>
       <use style="stroke:#000000;stroke-width:0.8;" x="57.6" xlink:href="#mfe23e10314" y="63.022982"/>
      </g>
     </g>
     <g id="text_13">
      <!-- 0.6 -->
      <g transform="translate(34.696875 66.822201)scale(0.1 -0.1)">
       <use xlink:href="#DejaVuSans-48"/>
       <use x="63.623047" xlink:href="#DejaVuSans-46"/>
       <use x="95.410156" xlink:href="#DejaVuSans-54"/>
      </g>
     </g>
    </g>
   </g>
   <g id="line2d_14">
    <path clip-path="url(#pf1aaedbd23)" d="M 73.832727 104.964644 
L 75.48072 100.701233 
L 77.128713 108.428812 
L 78.776705 109.228054 
L 80.424698 127.08133 
L 82.07269 142.802901 
L 83.720683 155.060304 
L 85.368676 152.395771 
L 87.016668 146.533483 
L 88.664661 153.195012 
L 90.312653 158.258058 
L 91.960646 168.916584 
L 93.608639 173.712821 
L 95.256631 190.500442 
L 96.904624 208.620132 
L 100.200609 230.736818 
L 101.848602 237.398347 
L 103.496594 254.718796 
L 105.144587 262.446217 
L 106.79258 264.844415 
L 108.440572 267.775519 
L 110.088565 265.643814 
L 111.736557 264.844415 
L 113.38455 264.844415 
L 115.032543 269.107864 
L 116.680535 276.568911 
L 118.328528 278.700655 
L 119.976521 280.032961 
L 121.624513 284.029957 
L 123.272506 284.029957 
L 124.920498 285.362302 
L 126.568491 282.164705 
L 128.216484 280.565907 
L 129.864476 282.964105 
L 131.512469 282.697651 
L 133.160461 284.296411 
L 134.808454 284.562903 
L 136.456447 286.161702 
L 138.104439 284.029957 
L 139.752432 280.83236 
L 141.400425 276.568911 
L 143.048417 270.706663 
L 144.69641 255.518038 
L 146.344402 237.131934 
L 147.992395 221.676776 
L 149.640388 207.287669 
L 152.936373 166.252051 
L 154.584365 148.931602 
L 156.232358 134.276081 
L 157.880351 122.81792 
L 159.528343 110.294103 
L 161.176336 104.165402 
L 162.824329 98.835942 
L 164.472321 94.039704 
L 167.768306 79.384183 
L 171.064292 69.524899 
L 172.712284 72.189432 
L 174.360277 68.192436 
L 176.008269 69.791313 
L 177.656262 79.384183 
L 179.304255 87.911003 
L 180.952247 98.036701 
L 182.60024 98.569528 
L 184.248233 109.494862 
L 185.896225 125.749261 
L 187.544218 128.413793 
L 189.19221 130.279085 
L 190.840203 137.740249 
L 192.488196 144.401778 
L 194.136188 159.590128 
L 197.432174 175.311699 
L 199.080166 184.904569 
L 200.728159 188.635151 
L 202.376151 198.228021 
L 204.024144 205.422377 
L 205.672137 214.216006 
L 207.320129 219.278657 
L 208.968122 228.605113 
L 210.616114 231.003232 
L 213.9121 229.404355 
L 215.560092 231.269646 
L 217.208085 231.003232 
L 218.856078 225.940186 
L 222.152063 241.12893 
L 223.800055 245.39234 
L 225.448048 247.790459 
L 227.096041 259.24862 
L 228.744033 266.97612 
L 230.392026 269.107864 
L 232.040018 270.440209 
L 233.688011 269.374317 
L 235.336004 271.506062 
L 236.983996 271.239609 
L 238.631989 273.10486 
L 240.279982 277.634763 
L 243.575967 285.09581 
L 245.223959 287.7605 
L 246.871952 290.958097 
L 248.519945 292.02395 
L 250.167937 291.22455 
L 251.81593 289.892205 
L 253.463922 292.02395 
L 255.111915 292.290403 
L 256.759908 289.092806 
L 258.4079 286.161702 
L 260.055893 283.497011 
L 261.703886 278.434162 
L 263.351878 271.239609 
L 264.999871 260.847418 
L 266.647863 254.452382 
L 268.295856 239.530053 
L 269.943849 228.605113 
L 271.591841 220.611121 
L 273.239834 210.219009 
L 274.887826 199.027262 
L 276.535819 189.967614 
L 278.183812 188.635151 
L 279.831804 175.844921 
L 281.479797 165.186001 
L 283.12779 162.787882 
L 284.775782 156.925595 
L 286.423775 148.665188 
L 288.071767 130.545498 
L 289.71976 138.539491 
L 291.367753 140.93761 
L 293.015745 135.60815 
L 294.663738 128.413793 
L 296.311731 136.141372 
L 297.959723 156.925595 
L 299.607716 140.671196 
L 301.255708 133.210031 
L 302.903701 139.338732 
L 304.551694 152.928599 
L 306.199686 140.671196 
L 307.847679 132.144376 
L 309.495671 150.796893 
L 311.143664 165.452415 
L 312.791657 164.653173 
L 314.439649 161.988641 
L 316.087642 161.189005 
L 317.735635 169.182997 
L 319.383627 164.919587 
L 321.03162 157.991644 
L 322.679612 164.653173 
L 324.327605 175.844921 
L 325.975598 191.03327 
L 327.62359 184.105327 
L 329.271583 191.03327 
L 330.919575 205.155964 
L 335.863553 225.673773 
L 337.511546 244.593098 
L 339.159539 257.649743 
L 340.807531 262.179724 
L 342.455524 265.377321 
L 344.103516 269.64081 
L 345.751509 279.500054 
L 347.399502 284.029957 
L 349.047494 285.895209 
L 350.695487 288.826353 
L 352.343479 291.22455 
L 353.991472 291.491004 
L 355.639465 290.425151 
L 357.287457 290.425151 
L 358.93545 289.092806 
L 360.583443 290.158698 
L 362.231435 292.02395 
L 363.879428 292.823349 
L 365.52742 294.688601 
L 367.175413 295.488 
L 368.823406 295.488 
L 370.471398 293.089802 
L 372.119391 289.092806 
L 373.767383 286.161702 
L 375.415376 282.164705 
L 377.063369 276.035965 
L 378.711361 265.110868 
L 382.007347 234.733815 
L 383.655339 206.754841 
L 385.303332 186.76986 
L 386.951324 174.512457 
L 388.599317 166.784878 
L 390.24731 155.859939 
L 391.895302 143.335729 
L 393.543295 151.329721 
L 395.191287 156.392767 
L 396.83928 149.46443 
L 398.487273 139.072319 
L 398.487273 139.072319 
" style="fill:none;stroke:#1f77b4;stroke-linecap:square;stroke-width:1.5;"/>
   </g>
   <g id="line2d_15">
    <path clip-path="url(#pf1aaedbd23)" d="M 73.832727 100.216932 
L 75.48072 97.583195 
L 77.128713 110.482205 
L 78.776705 106.99423 
L 82.07269 144.547699 
L 83.720683 154.754892 
L 85.368676 159.425211 
L 87.016668 143.803245 
L 88.664661 151.005679 
L 90.312653 156.793201 
L 91.960646 165.475236 
L 93.608639 176.277713 
L 95.256631 182.202294 
L 96.904624 204.684633 
L 98.552617 215.42875 
L 100.200609 227.212878 
L 101.848602 233.886276 
L 103.496594 244.488236 
L 105.144587 256.869963 
L 106.79258 261.948345 
L 108.440572 263.732882 
L 110.088565 264.918211 
L 111.736557 263.222551 
L 113.38455 263.494206 
L 115.032543 264.345619 
L 116.680535 268.175193 
L 118.328528 272.373775 
L 119.976521 273.42771 
L 121.624513 275.668339 
L 123.272506 276.650292 
L 124.920498 277.393981 
L 126.568491 277.460335 
L 128.216484 275.330288 
L 129.864476 275.51876 
L 131.512469 275.876665 
L 133.160461 276.727626 
L 134.808454 277.040268 
L 138.104439 278.128854 
L 139.752432 276.279053 
L 141.400425 274.815547 
L 143.048417 270.859218 
L 144.69641 264.498772 
L 146.344402 247.374218 
L 147.992395 231.594799 
L 149.640388 212.63415 
L 151.28838 195.311449 
L 152.936373 168.743534 
L 154.584365 148.038351 
L 156.232358 138.204548 
L 157.880351 117.514325 
L 159.528343 113.365673 
L 161.176336 98.233658 
L 162.824329 101.143364 
L 164.472321 93.749639 
L 166.120314 89.16691 
L 167.768306 77.63147 
L 169.416299 74.740129 
L 171.064292 69.539403 
L 172.712284 69.254079 
L 174.360277 70.961288 
L 176.008269 62.626566 
L 177.656262 84.35163 
L 179.304255 86.204422 
L 180.952247 100.480535 
L 182.60024 102.203299 
L 184.248233 106.539529 
L 185.896225 128.388363 
L 187.544218 131.076912 
L 189.19221 132.523949 
L 190.840203 135.362371 
L 192.488196 142.962978 
L 194.136188 158.577787 
L 195.784181 165.62581 
L 199.080166 183.773902 
L 200.728159 187.936927 
L 202.376151 196.137931 
L 204.024144 201.521831 
L 205.672137 213.047641 
L 207.320129 216.751642 
L 208.968122 224.84624 
L 210.616114 230.847188 
L 212.264107 229.570121 
L 213.9121 231.854176 
L 215.560092 230.72592 
L 217.208085 232.184847 
L 218.856078 226.133345 
L 220.50407 230.39688 
L 222.152063 238.994856 
L 223.800055 242.985488 
L 225.448048 245.073925 
L 228.744033 260.995922 
L 230.392026 265.031562 
L 232.040018 266.77133 
L 233.688011 266.860376 
L 235.336004 267.978353 
L 236.983996 268.113089 
L 238.631989 268.651778 
L 240.279982 270.715317 
L 241.927974 273.271197 
L 243.575967 276.137081 
L 245.223959 278.024294 
L 248.519945 281.030574 
L 250.167937 281.191973 
L 251.81593 280.926096 
L 253.463922 280.796374 
L 255.111915 281.37064 
L 256.759908 281.188138 
L 258.4079 279.378982 
L 260.055893 278.32478 
L 261.703886 276.118372 
L 263.351878 271.678623 
L 264.999871 266.185402 
L 266.647863 258.404352 
L 268.295856 249.311635 
L 269.943849 233.049706 
L 271.591841 225.749277 
L 273.239834 215.314188 
L 276.535819 191.142773 
L 278.183812 187.736076 
L 279.831804 183.477844 
L 281.479797 160.250464 
L 283.12779 163.234829 
L 286.423775 151.974851 
L 288.071767 130.449703 
L 289.71976 129.008698 
L 291.367753 148.598992 
L 293.015745 136.598836 
L 294.663738 126.765646 
L 296.311731 129.444853 
L 297.959723 160.294222 
L 299.607716 153.160941 
L 301.255708 124.050559 
L 302.903701 135.748935 
L 304.551694 154.148267 
L 306.199686 149.211742 
L 307.847679 125.85859 
L 309.495671 141.225437 
L 311.143664 171.338309 
L 312.791657 166.479466 
L 314.439649 164.860695 
L 316.087642 154.869135 
L 317.735635 169.310548 
L 319.383627 168.327228 
L 321.03162 155.57695 
L 322.679612 162.079749 
L 324.327605 170.160072 
L 325.975598 194.176376 
L 327.62359 185.972287 
L 329.271583 185.975558 
L 330.919575 200.053839 
L 332.567568 210.648727 
L 334.215561 216.269454 
L 335.863553 222.415587 
L 337.511546 234.219614 
L 339.159539 250.298243 
L 340.807531 258.775023 
L 342.455524 260.938144 
L 345.751509 268.58288 
L 347.399502 275.082668 
L 350.695487 278.519776 
L 352.343479 280.253984 
L 353.991472 280.763929 
L 355.639465 281.061442 
L 360.583443 280.158716 
L 362.231435 280.707578 
L 363.879428 281.49584 
L 367.175413 282.701442 
L 368.823406 283.074839 
L 370.471398 283.0558 
L 373.767383 279.536786 
L 375.415376 277.623342 
L 377.063369 275.110313 
L 378.711361 270.028099 
L 382.007347 246.428767 
L 383.655339 220.537681 
L 385.303332 191.283158 
L 386.951324 173.343518 
L 388.599317 167.575579 
L 390.24731 158.758237 
L 391.895302 141.422495 
L 393.543295 145.026786 
L 395.191287 159.393216 
L 396.83928 153.341109 
L 398.487273 139.876894 
L 398.487273 139.876894 
" style="fill:none;stroke:#ff7f0e;stroke-linecap:square;stroke-width:1.5;"/>
   </g>
   <g id="line2d_16">
    <path clip-path="url(#pf1aaedbd23)" d="M 73.832727 106.838072 
L 75.48072 100.137673 
L 77.128713 115.12527 
L 78.776705 110.977775 
L 80.424698 130.8905 
L 82.07269 146.851213 
L 83.720683 157.34649 
L 85.368676 164.459038 
L 87.016668 151.339043 
L 88.664661 153.454409 
L 90.312653 160.165448 
L 91.960646 167.727922 
L 93.608639 181.199139 
L 95.256631 186.244259 
L 96.904624 209.286282 
L 98.552617 222.487613 
L 100.200609 231.531453 
L 101.848602 238.523662 
L 103.496594 248.111165 
L 105.144587 260.88058 
L 106.79258 265.195404 
L 108.440572 266.902708 
L 110.088565 268.06491 
L 111.736557 266.227635 
L 113.38455 266.635326 
L 115.032543 267.65934 
L 118.328528 276.544396 
L 119.976521 277.30086 
L 121.624513 280.065635 
L 124.920498 281.667283 
L 126.568491 281.621504 
L 128.216484 279.206996 
L 129.864476 279.714711 
L 131.512469 279.938361 
L 133.160461 280.993596 
L 134.808454 281.217068 
L 138.104439 282.400947 
L 139.752432 280.195883 
L 141.400425 278.751464 
L 143.048417 274.341577 
L 144.69641 267.741326 
L 147.992395 236.767047 
L 149.640388 222.827045 
L 151.28838 207.830175 
L 152.936373 183.601506 
L 154.584365 161.223083 
L 156.232358 145.165835 
L 157.880351 127.384664 
L 159.528343 115.021395 
L 161.176336 100.126356 
L 162.824329 103.108654 
L 164.472321 95.154231 
L 166.120314 90.747723 
L 167.768306 79.078035 
L 169.416299 76.913104 
L 171.064292 71.272148 
L 172.712284 71.892252 
L 174.360277 73.356311 
L 176.008269 64.214705 
L 177.656262 89.218587 
L 179.304255 89.035627 
L 180.952247 103.333338 
L 182.60024 105.719324 
L 184.248233 109.567322 
L 185.896225 131.915362 
L 187.544218 135.692356 
L 189.19221 133.798195 
L 190.840203 136.822322 
L 192.488196 144.674387 
L 194.136188 161.33952 
L 195.784181 171.584486 
L 197.432174 178.490192 
L 199.080166 188.399059 
L 200.728159 195.588852 
L 202.376151 201.059527 
L 204.024144 209.259724 
L 205.672137 218.077704 
L 208.968122 229.316285 
L 210.616114 235.926721 
L 212.264107 235.425009 
L 213.9121 235.783143 
L 215.560092 235.336118 
L 217.208085 236.676168 
L 218.856078 233.485491 
L 220.50407 233.220018 
L 222.152063 242.130715 
L 223.800055 245.744749 
L 225.448048 247.528228 
L 227.096041 256.636497 
L 228.744033 264.929509 
L 230.392026 268.422545 
L 232.040018 270.163463 
L 233.688011 270.10269 
L 235.336004 271.62672 
L 236.983996 271.512649 
L 238.631989 272.219725 
L 240.279982 274.669736 
L 241.927974 277.392125 
L 243.575967 280.559715 
L 245.223959 282.450659 
L 248.519945 285.602023 
L 250.167937 285.58489 
L 251.81593 285.304996 
L 253.463922 285.263163 
L 255.111915 285.873235 
L 256.759908 285.543785 
L 258.4079 283.523969 
L 260.055893 282.547634 
L 261.703886 280.048234 
L 263.351878 275.20829 
L 264.999871 269.514053 
L 266.647863 261.371013 
L 268.295856 252.402827 
L 269.943849 238.833997 
L 273.239834 223.85947 
L 274.887826 213.538147 
L 276.535819 202.073554 
L 278.183812 195.32216 
L 279.831804 193.147962 
L 281.479797 173.942701 
L 283.12779 166.759845 
L 284.775782 164.209246 
L 286.423775 157.183194 
L 288.071767 142.754893 
L 289.71976 133.191614 
L 291.367753 150.285682 
L 294.663738 130.63021 
L 296.311731 131.833168 
L 297.959723 165.666866 
L 299.607716 164.295886 
L 301.255708 135.695181 
L 302.903701 138.508997 
L 304.551694 157.191018 
L 306.199686 157.378815 
L 307.847679 135.586832 
L 309.495671 145.853006 
L 311.143664 174.226627 
L 312.791657 175.070117 
L 314.439649 169.534958 
L 316.087642 162.623381 
L 317.735635 171.574561 
L 319.383627 175.955256 
L 321.03162 164.61462 
L 322.679612 164.387709 
L 324.327605 174.37368 
L 325.975598 198.40477 
L 327.62359 198.909555 
L 329.271583 191.488418 
L 332.567568 217.700735 
L 334.215561 222.508429 
L 335.863553 228.233861 
L 337.511546 237.905201 
L 339.159539 254.658701 
L 340.807531 262.305506 
L 342.455524 263.783738 
L 345.751509 272.563977 
L 347.399502 279.837632 
L 349.047494 281.078873 
L 352.343479 284.852077 
L 355.639465 285.489584 
L 357.287457 285.144093 
L 358.93545 284.659947 
L 360.583443 284.553808 
L 362.231435 285.205285 
L 363.879428 286.016924 
L 367.175413 287.253025 
L 368.823406 287.608449 
L 370.471398 287.562185 
L 375.415376 281.678874 
L 377.063369 278.970805 
L 378.711361 273.486386 
L 380.359354 261.831996 
L 382.007347 249.36708 
L 383.655339 231.699427 
L 385.303332 205.297251 
L 386.951324 185.44903 
L 388.599317 175.254197 
L 390.24731 166.849286 
L 391.895302 152.05551 
L 393.543295 148.226766 
L 395.191287 161.306916 
L 396.83928 159.481669 
L 398.487273 146.939987 
L 398.487273 146.939987 
" style="fill:none;stroke:#2ca02c;stroke-linecap:square;stroke-width:1.5;"/>
   </g>
   <g id="line2d_17">
    <path clip-path="url(#pf1aaedbd23)" d="M 73.832727 95.55727 
L 75.48072 87.958651 
L 77.128713 97.576666 
L 78.776705 103.49074 
L 80.424698 112.32262 
L 82.07269 136.385607 
L 83.720683 151.484926 
L 85.368676 156.865605 
L 87.016668 140.579987 
L 88.664661 147.457255 
L 90.312653 155.070569 
L 91.960646 163.629119 
L 93.608639 174.657776 
L 95.256631 179.632352 
L 96.904624 201.209368 
L 100.200609 225.091638 
L 101.848602 232.759241 
L 103.496594 241.719479 
L 105.144587 252.036986 
L 106.79258 257.033998 
L 108.440572 258.422004 
L 110.088565 259.32757 
L 111.736557 258.418461 
L 113.38455 258.101056 
L 115.032543 258.612422 
L 116.680535 260.807888 
L 118.328528 263.91313 
L 119.976521 265.171629 
L 121.624513 266.165568 
L 123.272506 267.397156 
L 126.568491 267.982521 
L 128.216484 266.769895 
L 129.864476 266.240579 
L 131.512469 266.826025 
L 138.104439 268.349535 
L 139.752432 267.482694 
L 141.400425 266.122125 
L 143.048417 263.87808 
L 144.69641 259.842921 
L 147.992395 228.670975 
L 149.640388 208.574983 
L 151.28838 190.794466 
L 152.936373 164.175604 
L 154.584365 144.416015 
L 156.232358 135.205261 
L 157.880351 114.743365 
L 159.528343 108.271769 
L 161.176336 91.634957 
L 162.824329 93.11345 
L 164.472321 86.494792 
L 166.120314 81.256327 
L 167.768306 69.546661 
L 169.416299 64.244301 
L 171.064292 59.911719 
L 172.712284 57.69684 
L 174.360277 62.02816 
L 176.008269 53.568 
L 177.656262 67.533093 
L 179.304255 77.042101 
L 180.952247 88.034761 
L 182.60024 95.565674 
L 184.248233 95.689916 
L 185.896225 115.873174 
L 187.544218 127.045194 
L 189.19221 128.826561 
L 190.840203 131.692355 
L 192.488196 140.772834 
L 194.136188 153.202195 
L 197.432174 172.751093 
L 199.080166 181.62123 
L 200.728159 185.698242 
L 202.376151 193.517427 
L 204.024144 199.442032 
L 205.672137 210.782678 
L 207.320129 214.916753 
L 208.968122 223.131819 
L 210.616114 229.610906 
L 212.264107 228.022351 
L 213.9121 230.985534 
L 215.560092 229.776437 
L 217.208085 231.219582 
L 218.856078 223.582511 
L 220.50407 228.593917 
L 222.152063 237.260736 
L 223.800055 242.315796 
L 225.448048 244.608681 
L 227.096041 249.275322 
L 228.744033 255.474577 
L 230.392026 259.248877 
L 232.040018 260.477949 
L 235.336004 260.979143 
L 236.983996 261.560014 
L 238.631989 261.687069 
L 240.279982 262.808098 
L 243.575967 266.584752 
L 245.223959 268.152539 
L 248.519945 270.377158 
L 250.167937 270.80765 
L 253.463922 270.298037 
L 255.111915 270.751853 
L 256.759908 270.818682 
L 261.703886 267.300435 
L 263.351878 264.535603 
L 264.999871 260.626665 
L 266.647863 255.068139 
L 268.295856 247.964962 
L 269.943849 229.758164 
L 271.591841 224.042218 
L 273.239834 212.541317 
L 276.535819 187.980239 
L 278.183812 185.243262 
L 279.831804 180.425094 
L 281.479797 155.852487 
L 283.12779 160.420731 
L 284.775782 154.857828 
L 286.423775 149.977756 
L 288.071767 125.784485 
L 289.71976 120.562114 
L 291.367753 143.837165 
L 293.015745 133.744391 
L 294.663738 124.457844 
L 296.311731 124.054988 
L 297.959723 148.260387 
L 299.607716 146.66546 
L 301.255708 121.151069 
L 302.903701 130.195571 
L 304.551694 147.657016 
L 306.199686 144.161421 
L 307.847679 123.121998 
L 309.495671 133.002099 
L 311.143664 162.923563 
L 312.791657 162.704476 
L 314.439649 162.980787 
L 316.087642 151.835331 
L 317.735635 166.049716 
L 319.383627 165.259983 
L 321.03162 152.124835 
L 322.679612 158.683468 
L 324.327605 168.565296 
L 325.975598 188.920547 
L 327.62359 180.812033 
L 329.271583 183.022543 
L 330.919575 197.416675 
L 332.567568 208.77628 
L 334.215561 214.63696 
L 335.863553 220.988715 
L 337.511546 231.462225 
L 339.159539 246.231291 
L 340.807531 254.329544 
L 342.455524 256.759919 
L 344.103516 258.582365 
L 345.751509 261.167955 
L 347.399502 265.357378 
L 349.047494 267.604513 
L 350.695487 268.463555 
L 352.343479 269.697013 
L 353.991472 270.461402 
L 355.639465 270.57939 
L 360.583443 269.829294 
L 362.231435 270.197858 
L 363.879428 270.838125 
L 368.823406 272.162643 
L 370.471398 272.189107 
L 372.119391 271.172966 
L 373.767383 269.607111 
L 375.415376 268.257938 
L 377.063369 266.532251 
L 378.711361 263.375947 
L 380.359354 255.884034 
L 382.007347 244.827266 
L 383.655339 214.043476 
L 385.303332 186.202076 
L 386.951324 169.771734 
L 388.599317 164.962196 
L 390.24731 156.11863 
L 391.895302 137.992548 
L 393.543295 139.937823 
L 395.191287 157.710028 
L 396.83928 150.17284 
L 398.487273 137.264832 
L 398.487273 137.264832 
" style="fill:none;stroke:#d62728;stroke-linecap:square;stroke-width:1.5;"/>
   </g>
   <g id="patch_3">
    <path d="M 57.6 307.584 
L 57.6 41.472 
" style="fill:none;stroke:#000000;stroke-linecap:square;stroke-linejoin:miter;stroke-width:0.8;"/>
   </g>
   <g id="patch_4">
    <path d="M 414.72 307.584 
L 414.72 41.472 
" style="fill:none;stroke:#000000;stroke-linecap:square;stroke-linejoin:miter;stroke-width:0.8;"/>
   </g>
   <g id="patch_5">
    <path d="M 57.6 307.584 
L 414.72 307.584 
" style="fill:none;stroke:#000000;stroke-linecap:square;stroke-linejoin:miter;stroke-width:0.8;"/>
   </g>
   <g id="patch_6">
    <path d="M 57.6 41.472 
L 414.72 41.472 
" style="fill:none;stroke:#000000;stroke-linecap:square;stroke-linejoin:miter;stroke-width:0.8;"/>
   </g>
   <g id="text_14">
    <!-- Plot of Test Data vs MCMC Uncertainty  -->
    <defs>
     <path d="M 19.671875 64.796875 
L 19.671875 37.40625 
L 32.078125 37.40625 
Q 38.96875 37.40625 42.71875 40.96875 
Q 46.484375 44.53125 46.484375 51.125 
Q 46.484375 57.671875 42.71875 61.234375 
Q 38.96875 64.796875 32.078125 64.796875 
z
M 9.8125 72.90625 
L 32.078125 72.90625 
Q 44.34375 72.90625 50.609375 67.359375 
Q 56.890625 61.8125 56.890625 51.125 
Q 56.890625 40.328125 50.609375 34.8125 
Q 44.34375 29.296875 32.078125 29.296875 
L 19.671875 29.296875 
L 19.671875 0 
L 9.8125 0 
z
" id="DejaVuSans-80"/>
     <path d="M 9.421875 75.984375 
L 18.40625 75.984375 
L 18.40625 0 
L 9.421875 0 
z
" id="DejaVuSans-108"/>
     <path d="M 30.609375 48.390625 
Q 23.390625 48.390625 19.1875 42.75 
Q 14.984375 37.109375 14.984375 27.296875 
Q 14.984375 17.484375 19.15625 11.84375 
Q 23.34375 6.203125 30.609375 6.203125 
Q 37.796875 6.203125 41.984375 11.859375 
Q 46.1875 17.53125 46.1875 27.296875 
Q 46.1875 37.015625 41.984375 42.703125 
Q 37.796875 48.390625 30.609375 48.390625 
z
M 30.609375 56 
Q 42.328125 56 49.015625 48.375 
Q 55.71875 40.765625 55.71875 27.296875 
Q 55.71875 13.875 49.015625 6.21875 
Q 42.328125 -1.421875 30.609375 -1.421875 
Q 18.84375 -1.421875 12.171875 6.21875 
Q 5.515625 13.875 5.515625 27.296875 
Q 5.515625 40.765625 12.171875 48.375 
Q 18.84375 56 30.609375 56 
z
" id="DejaVuSans-111"/>
     <path d="M 18.3125 70.21875 
L 18.3125 54.6875 
L 36.8125 54.6875 
L 36.8125 47.703125 
L 18.3125 47.703125 
L 18.3125 18.015625 
Q 18.3125 11.328125 20.140625 9.421875 
Q 21.96875 7.515625 27.59375 7.515625 
L 36.8125 7.515625 
L 36.8125 0 
L 27.59375 0 
Q 17.1875 0 13.234375 3.875 
Q 9.28125 7.765625 9.28125 18.015625 
L 9.28125 47.703125 
L 2.6875 47.703125 
L 2.6875 54.6875 
L 9.28125 54.6875 
L 9.28125 70.21875 
z
" id="DejaVuSans-116"/>
     <path id="DejaVuSans-32"/>
     <path d="M 37.109375 75.984375 
L 37.109375 68.5 
L 28.515625 68.5 
Q 23.6875 68.5 21.796875 66.546875 
Q 19.921875 64.59375 19.921875 59.515625 
L 19.921875 54.6875 
L 34.71875 54.6875 
L 34.71875 47.703125 
L 19.921875 47.703125 
L 19.921875 0 
L 10.890625 0 
L 10.890625 47.703125 
L 2.296875 47.703125 
L 2.296875 54.6875 
L 10.890625 54.6875 
L 10.890625 58.5 
Q 10.890625 67.625 15.140625 71.796875 
Q 19.390625 75.984375 28.609375 75.984375 
z
" id="DejaVuSans-102"/>
     <path d="M -0.296875 72.90625 
L 61.375 72.90625 
L 61.375 64.59375 
L 35.5 64.59375 
L 35.5 0 
L 25.59375 0 
L 25.59375 64.59375 
L -0.296875 64.59375 
z
" id="DejaVuSans-84"/>
     <path d="M 56.203125 29.59375 
L 56.203125 25.203125 
L 14.890625 25.203125 
Q 15.484375 15.921875 20.484375 11.0625 
Q 25.484375 6.203125 34.421875 6.203125 
Q 39.59375 6.203125 44.453125 7.46875 
Q 49.3125 8.734375 54.109375 11.28125 
L 54.109375 2.78125 
Q 49.265625 0.734375 44.1875 -0.34375 
Q 39.109375 -1.421875 33.890625 -1.421875 
Q 20.796875 -1.421875 13.15625 6.1875 
Q 5.515625 13.8125 5.515625 26.8125 
Q 5.515625 40.234375 12.765625 48.109375 
Q 20.015625 56 32.328125 56 
Q 43.359375 56 49.78125 48.890625 
Q 56.203125 41.796875 56.203125 29.59375 
z
M 47.21875 32.234375 
Q 47.125 39.59375 43.09375 43.984375 
Q 39.0625 48.390625 32.421875 48.390625 
Q 24.90625 48.390625 20.390625 44.140625 
Q 15.875 39.890625 15.1875 32.171875 
z
" id="DejaVuSans-101"/>
     <path d="M 44.28125 53.078125 
L 44.28125 44.578125 
Q 40.484375 46.53125 36.375 47.5 
Q 32.28125 48.484375 27.875 48.484375 
Q 21.1875 48.484375 17.84375 46.4375 
Q 14.5 44.390625 14.5 40.28125 
Q 14.5 37.15625 16.890625 35.375 
Q 19.28125 33.59375 26.515625 31.984375 
L 29.59375 31.296875 
Q 39.15625 29.25 43.1875 25.515625 
Q 47.21875 21.78125 47.21875 15.09375 
Q 47.21875 7.46875 41.1875 3.015625 
Q 35.15625 -1.421875 24.609375 -1.421875 
Q 20.21875 -1.421875 15.453125 -0.5625 
Q 10.6875 0.296875 5.421875 2 
L 5.421875 11.28125 
Q 10.40625 8.6875 15.234375 7.390625 
Q 20.0625 6.109375 24.8125 6.109375 
Q 31.15625 6.109375 34.5625 8.28125 
Q 37.984375 10.453125 37.984375 14.40625 
Q 37.984375 18.0625 35.515625 20.015625 
Q 33.0625 21.96875 24.703125 23.78125 
L 21.578125 24.515625 
Q 13.234375 26.265625 9.515625 29.90625 
Q 5.8125 33.546875 5.8125 39.890625 
Q 5.8125 47.609375 11.28125 51.796875 
Q 16.75 56 26.8125 56 
Q 31.78125 56 36.171875 55.265625 
Q 40.578125 54.546875 44.28125 53.078125 
z
" id="DejaVuSans-115"/>
     <path d="M 19.671875 64.796875 
L 19.671875 8.109375 
L 31.59375 8.109375 
Q 46.6875 8.109375 53.6875 14.9375 
Q 60.6875 21.78125 60.6875 36.53125 
Q 60.6875 51.171875 53.6875 57.984375 
Q 46.6875 64.796875 31.59375 64.796875 
z
M 9.8125 72.90625 
L 30.078125 72.90625 
Q 51.265625 72.90625 61.171875 64.09375 
Q 71.09375 55.28125 71.09375 36.53125 
Q 71.09375 17.671875 61.125 8.828125 
Q 51.171875 0 30.078125 0 
L 9.8125 0 
z
" id="DejaVuSans-68"/>
     <path d="M 34.28125 27.484375 
Q 23.390625 27.484375 19.1875 25 
Q 14.984375 22.515625 14.984375 16.5 
Q 14.984375 11.71875 18.140625 8.90625 
Q 21.296875 6.109375 26.703125 6.109375 
Q 34.1875 6.109375 38.703125 11.40625 
Q 43.21875 16.703125 43.21875 25.484375 
L 43.21875 27.484375 
z
M 52.203125 31.203125 
L 52.203125 0 
L 43.21875 0 
L 43.21875 8.296875 
Q 40.140625 3.328125 35.546875 0.953125 
Q 30.953125 -1.421875 24.3125 -1.421875 
Q 15.921875 -1.421875 10.953125 3.296875 
Q 6 8.015625 6 15.921875 
Q 6 25.140625 12.171875 29.828125 
Q 18.359375 34.515625 30.609375 34.515625 
L 43.21875 34.515625 
L 43.21875 35.40625 
Q 43.21875 41.609375 39.140625 45 
Q 35.0625 48.390625 27.6875 48.390625 
Q 23 48.390625 18.546875 47.265625 
Q 14.109375 46.140625 10.015625 43.890625 
L 10.015625 52.203125 
Q 14.9375 54.109375 19.578125 55.046875 
Q 24.21875 56 28.609375 56 
Q 40.484375 56 46.34375 49.84375 
Q 52.203125 43.703125 52.203125 31.203125 
z
" id="DejaVuSans-97"/>
     <path d="M 2.984375 54.6875 
L 12.5 54.6875 
L 29.59375 8.796875 
L 46.6875 54.6875 
L 56.203125 54.6875 
L 35.6875 0 
L 23.484375 0 
z
" id="DejaVuSans-118"/>
     <path d="M 9.8125 72.90625 
L 24.515625 72.90625 
L 43.109375 23.296875 
L 61.8125 72.90625 
L 76.515625 72.90625 
L 76.515625 0 
L 66.890625 0 
L 66.890625 64.015625 
L 48.09375 14.015625 
L 38.1875 14.015625 
L 19.390625 64.015625 
L 19.390625 0 
L 9.8125 0 
z
" id="DejaVuSans-77"/>
     <path d="M 64.40625 67.28125 
L 64.40625 56.890625 
Q 59.421875 61.53125 53.78125 63.8125 
Q 48.140625 66.109375 41.796875 66.109375 
Q 29.296875 66.109375 22.65625 58.46875 
Q 16.015625 50.828125 16.015625 36.375 
Q 16.015625 21.96875 22.65625 14.328125 
Q 29.296875 6.6875 41.796875 6.6875 
Q 48.140625 6.6875 53.78125 8.984375 
Q 59.421875 11.28125 64.40625 15.921875 
L 64.40625 5.609375 
Q 59.234375 2.09375 53.4375 0.328125 
Q 47.65625 -1.421875 41.21875 -1.421875 
Q 24.65625 -1.421875 15.125 8.703125 
Q 5.609375 18.84375 5.609375 36.375 
Q 5.609375 53.953125 15.125 64.078125 
Q 24.65625 74.21875 41.21875 74.21875 
Q 47.75 74.21875 53.53125 72.484375 
Q 59.328125 70.75 64.40625 67.28125 
z
" id="DejaVuSans-67"/>
     <path d="M 8.6875 72.90625 
L 18.609375 72.90625 
L 18.609375 28.609375 
Q 18.609375 16.890625 22.84375 11.734375 
Q 27.09375 6.59375 36.625 6.59375 
Q 46.09375 6.59375 50.34375 11.734375 
Q 54.59375 16.890625 54.59375 28.609375 
L 54.59375 72.90625 
L 64.5 72.90625 
L 64.5 27.390625 
Q 64.5 13.140625 57.4375 5.859375 
Q 50.390625 -1.421875 36.625 -1.421875 
Q 22.796875 -1.421875 15.734375 5.859375 
Q 8.6875 13.140625 8.6875 27.390625 
z
" id="DejaVuSans-85"/>
     <path d="M 54.890625 33.015625 
L 54.890625 0 
L 45.90625 0 
L 45.90625 32.71875 
Q 45.90625 40.484375 42.875 44.328125 
Q 39.84375 48.1875 33.796875 48.1875 
Q 26.515625 48.1875 22.3125 43.546875 
Q 18.109375 38.921875 18.109375 30.90625 
L 18.109375 0 
L 9.078125 0 
L 9.078125 54.6875 
L 18.109375 54.6875 
L 18.109375 46.1875 
Q 21.34375 51.125 25.703125 53.5625 
Q 30.078125 56 35.796875 56 
Q 45.21875 56 50.046875 50.171875 
Q 54.890625 44.34375 54.890625 33.015625 
z
" id="DejaVuSans-110"/>
     <path d="M 48.78125 52.59375 
L 48.78125 44.1875 
Q 44.96875 46.296875 41.140625 47.34375 
Q 37.3125 48.390625 33.40625 48.390625 
Q 24.65625 48.390625 19.8125 42.84375 
Q 14.984375 37.3125 14.984375 27.296875 
Q 14.984375 17.28125 19.8125 11.734375 
Q 24.65625 6.203125 33.40625 6.203125 
Q 37.3125 6.203125 41.140625 7.25 
Q 44.96875 8.296875 48.78125 10.40625 
L 48.78125 2.09375 
Q 45.015625 0.34375 40.984375 -0.53125 
Q 36.96875 -1.421875 32.421875 -1.421875 
Q 20.0625 -1.421875 12.78125 6.34375 
Q 5.515625 14.109375 5.515625 27.296875 
Q 5.515625 40.671875 12.859375 48.328125 
Q 20.21875 56 33.015625 56 
Q 37.15625 56 41.109375 55.140625 
Q 45.0625 54.296875 48.78125 52.59375 
z
" id="DejaVuSans-99"/>
     <path d="M 41.109375 46.296875 
Q 39.59375 47.171875 37.8125 47.578125 
Q 36.03125 48 33.890625 48 
Q 26.265625 48 22.1875 43.046875 
Q 18.109375 38.09375 18.109375 28.8125 
L 18.109375 0 
L 9.078125 0 
L 9.078125 54.6875 
L 18.109375 54.6875 
L 18.109375 46.1875 
Q 20.953125 51.171875 25.484375 53.578125 
Q 30.03125 56 36.53125 56 
Q 37.453125 56 38.578125 55.875 
Q 39.703125 55.765625 41.0625 55.515625 
z
" id="DejaVuSans-114"/>
     <path d="M 9.421875 54.6875 
L 18.40625 54.6875 
L 18.40625 0 
L 9.421875 0 
z
M 9.421875 75.984375 
L 18.40625 75.984375 
L 18.40625 64.59375 
L 9.421875 64.59375 
z
" id="DejaVuSans-105"/>
     <path d="M 32.171875 -5.078125 
Q 28.375 -14.84375 24.75 -17.8125 
Q 21.140625 -20.796875 15.09375 -20.796875 
L 7.90625 -20.796875 
L 7.90625 -13.28125 
L 13.1875 -13.28125 
Q 16.890625 -13.28125 18.9375 -11.515625 
Q 21 -9.765625 23.484375 -3.21875 
L 25.09375 0.875 
L 2.984375 54.6875 
L 12.5 54.6875 
L 29.59375 11.921875 
L 46.6875 54.6875 
L 56.203125 54.6875 
z
" id="DejaVuSans-121"/>
    </defs>
    <g transform="translate(118.112813 35.472)scale(0.12 -0.12)">
     <use xlink:href="#DejaVuSans-80"/>
     <use x="60.302734" xlink:href="#DejaVuSans-108"/>
     <use x="88.085938" xlink:href="#DejaVuSans-111"/>
     <use x="149.267578" xlink:href="#DejaVuSans-116"/>
     <use x="188.476562" xlink:href="#DejaVuSans-32"/>
     <use x="220.263672" xlink:href="#DejaVuSans-111"/>
     <use x="281.445312" xlink:href="#DejaVuSans-102"/>
     <use x="316.650391" xlink:href="#DejaVuSans-32"/>
     <use x="348.4375" xlink:href="#DejaVuSans-84"/>
     <use x="409.255859" xlink:href="#DejaVuSans-101"/>
     <use x="470.779297" xlink:href="#DejaVuSans-115"/>
     <use x="522.878906" xlink:href="#DejaVuSans-116"/>
     <use x="562.087891" xlink:href="#DejaVuSans-32"/>
     <use x="593.875" xlink:href="#DejaVuSans-68"/>
     <use x="670.876953" xlink:href="#DejaVuSans-97"/>
     <use x="732.15625" xlink:href="#DejaVuSans-116"/>
     <use x="771.365234" xlink:href="#DejaVuSans-97"/>
     <use x="832.644531" xlink:href="#DejaVuSans-32"/>
     <use x="864.431641" xlink:href="#DejaVuSans-118"/>
     <use x="923.611328" xlink:href="#DejaVuSans-115"/>
     <use x="975.710938" xlink:href="#DejaVuSans-32"/>
     <use x="1007.498047" xlink:href="#DejaVuSans-77"/>
     <use x="1093.777344" xlink:href="#DejaVuSans-67"/>
     <use x="1163.601562" xlink:href="#DejaVuSans-77"/>
     <use x="1249.880859" xlink:href="#DejaVuSans-67"/>
     <use x="1319.705078" xlink:href="#DejaVuSans-32"/>
     <use x="1351.492188" xlink:href="#DejaVuSans-85"/>
     <use x="1424.685547" xlink:href="#DejaVuSans-110"/>
     <use x="1488.064453" xlink:href="#DejaVuSans-99"/>
     <use x="1543.044922" xlink:href="#DejaVuSans-101"/>
     <use x="1604.568359" xlink:href="#DejaVuSans-114"/>
     <use x="1645.681641" xlink:href="#DejaVuSans-116"/>
     <use x="1684.890625" xlink:href="#DejaVuSans-97"/>
     <use x="1746.169922" xlink:href="#DejaVuSans-105"/>
     <use x="1773.953125" xlink:href="#DejaVuSans-110"/>
     <use x="1837.332031" xlink:href="#DejaVuSans-116"/>
     <use x="1876.541016" xlink:href="#DejaVuSans-121"/>
     <use x="1935.720703" xlink:href="#DejaVuSans-32"/>
    </g>
   </g>
   <g id="legend_1">
    <g id="patch_7">
     <path d="M 277.843437 108.1845 
L 407.72 108.1845 
Q 409.72 108.1845 409.72 106.1845 
L 409.72 48.472 
Q 409.72 46.472 407.72 46.472 
L 277.843437 46.472 
Q 275.843437 46.472 275.843437 48.472 
L 275.843437 106.1845 
Q 275.843437 108.1845 277.843437 108.1845 
z
" style="fill:#ffffff;opacity:0.8;stroke:#cccccc;stroke-linejoin:miter;"/>
    </g>
    <g id="line2d_18">
     <path d="M 279.843437 54.570438 
L 299.843437 54.570438 
" style="fill:none;stroke:#1f77b4;stroke-linecap:square;stroke-width:1.5;"/>
    </g>
    <g id="line2d_19"/>
    <g id="text_15">
     <!-- actual -->
     <defs>
      <path d="M 8.5 21.578125 
L 8.5 54.6875 
L 17.484375 54.6875 
L 17.484375 21.921875 
Q 17.484375 14.15625 20.5 10.265625 
Q 23.53125 6.390625 29.59375 6.390625 
Q 36.859375 6.390625 41.078125 11.03125 
Q 45.3125 15.671875 45.3125 23.6875 
L 45.3125 54.6875 
L 54.296875 54.6875 
L 54.296875 0 
L 45.3125 0 
L 45.3125 8.40625 
Q 42.046875 3.421875 37.71875 1 
Q 33.40625 -1.421875 27.6875 -1.421875 
Q 18.265625 -1.421875 13.375 4.4375 
Q 8.5 10.296875 8.5 21.578125 
z
M 31.109375 56 
z
" id="DejaVuSans-117"/>
     </defs>
     <g transform="translate(307.843437 58.070438)scale(0.1 -0.1)">
      <use xlink:href="#DejaVuSans-97"/>
      <use x="61.279297" xlink:href="#DejaVuSans-99"/>
      <use x="116.259766" xlink:href="#DejaVuSans-116"/>
      <use x="155.46875" xlink:href="#DejaVuSans-117"/>
      <use x="218.847656" xlink:href="#DejaVuSans-97"/>
      <use x="280.126953" xlink:href="#DejaVuSans-108"/>
     </g>
    </g>
    <g id="line2d_20">
     <path d="M 279.843437 69.248563 
L 299.843437 69.248563 
" style="fill:none;stroke:#ff7f0e;stroke-linecap:square;stroke-width:1.5;"/>
    </g>
    <g id="line2d_21"/>
    <g id="text_16">
     <!-- pred. (mean) -->
     <defs>
      <path d="M 18.109375 8.203125 
L 18.109375 -20.796875 
L 9.078125 -20.796875 
L 9.078125 54.6875 
L 18.109375 54.6875 
L 18.109375 46.390625 
Q 20.953125 51.265625 25.265625 53.625 
Q 29.59375 56 35.59375 56 
Q 45.5625 56 51.78125 48.09375 
Q 58.015625 40.1875 58.015625 27.296875 
Q 58.015625 14.40625 51.78125 6.484375 
Q 45.5625 -1.421875 35.59375 -1.421875 
Q 29.59375 -1.421875 25.265625 0.953125 
Q 20.953125 3.328125 18.109375 8.203125 
z
M 48.6875 27.296875 
Q 48.6875 37.203125 44.609375 42.84375 
Q 40.53125 48.484375 33.40625 48.484375 
Q 26.265625 48.484375 22.1875 42.84375 
Q 18.109375 37.203125 18.109375 27.296875 
Q 18.109375 17.390625 22.1875 11.75 
Q 26.265625 6.109375 33.40625 6.109375 
Q 40.53125 6.109375 44.609375 11.75 
Q 48.6875 17.390625 48.6875 27.296875 
z
" id="DejaVuSans-112"/>
      <path d="M 45.40625 46.390625 
L 45.40625 75.984375 
L 54.390625 75.984375 
L 54.390625 0 
L 45.40625 0 
L 45.40625 8.203125 
Q 42.578125 3.328125 38.25 0.953125 
Q 33.9375 -1.421875 27.875 -1.421875 
Q 17.96875 -1.421875 11.734375 6.484375 
Q 5.515625 14.40625 5.515625 27.296875 
Q 5.515625 40.1875 11.734375 48.09375 
Q 17.96875 56 27.875 56 
Q 33.9375 56 38.25 53.625 
Q 42.578125 51.265625 45.40625 46.390625 
z
M 14.796875 27.296875 
Q 14.796875 17.390625 18.875 11.75 
Q 22.953125 6.109375 30.078125 6.109375 
Q 37.203125 6.109375 41.296875 11.75 
Q 45.40625 17.390625 45.40625 27.296875 
Q 45.40625 37.203125 41.296875 42.84375 
Q 37.203125 48.484375 30.078125 48.484375 
Q 22.953125 48.484375 18.875 42.84375 
Q 14.796875 37.203125 14.796875 27.296875 
z
" id="DejaVuSans-100"/>
      <path d="M 31 75.875 
Q 24.46875 64.65625 21.28125 53.65625 
Q 18.109375 42.671875 18.109375 31.390625 
Q 18.109375 20.125 21.3125 9.0625 
Q 24.515625 -2 31 -13.1875 
L 23.1875 -13.1875 
Q 15.875 -1.703125 12.234375 9.375 
Q 8.59375 20.453125 8.59375 31.390625 
Q 8.59375 42.28125 12.203125 53.3125 
Q 15.828125 64.359375 23.1875 75.875 
z
" id="DejaVuSans-40"/>
      <path d="M 52 44.1875 
Q 55.375 50.25 60.0625 53.125 
Q 64.75 56 71.09375 56 
Q 79.640625 56 84.28125 50.015625 
Q 88.921875 44.046875 88.921875 33.015625 
L 88.921875 0 
L 79.890625 0 
L 79.890625 32.71875 
Q 79.890625 40.578125 77.09375 44.375 
Q 74.3125 48.1875 68.609375 48.1875 
Q 61.625 48.1875 57.5625 43.546875 
Q 53.515625 38.921875 53.515625 30.90625 
L 53.515625 0 
L 44.484375 0 
L 44.484375 32.71875 
Q 44.484375 40.625 41.703125 44.40625 
Q 38.921875 48.1875 33.109375 48.1875 
Q 26.21875 48.1875 22.15625 43.53125 
Q 18.109375 38.875 18.109375 30.90625 
L 18.109375 0 
L 9.078125 0 
L 9.078125 54.6875 
L 18.109375 54.6875 
L 18.109375 46.1875 
Q 21.1875 51.21875 25.484375 53.609375 
Q 29.78125 56 35.6875 56 
Q 41.65625 56 45.828125 52.96875 
Q 50 49.953125 52 44.1875 
z
" id="DejaVuSans-109"/>
      <path d="M 8.015625 75.875 
L 15.828125 75.875 
Q 23.140625 64.359375 26.78125 53.3125 
Q 30.421875 42.28125 30.421875 31.390625 
Q 30.421875 20.453125 26.78125 9.375 
Q 23.140625 -1.703125 15.828125 -13.1875 
L 8.015625 -13.1875 
Q 14.5 -2 17.703125 9.0625 
Q 20.90625 20.125 20.90625 31.390625 
Q 20.90625 42.671875 17.703125 53.65625 
Q 14.5 64.65625 8.015625 75.875 
z
" id="DejaVuSans-41"/>
     </defs>
     <g transform="translate(307.843437 72.748563)scale(0.1 -0.1)">
      <use xlink:href="#DejaVuSans-112"/>
      <use x="63.476562" xlink:href="#DejaVuSans-114"/>
      <use x="104.558594" xlink:href="#DejaVuSans-101"/>
      <use x="166.082031" xlink:href="#DejaVuSans-100"/>
      <use x="229.558594" xlink:href="#DejaVuSans-46"/>
      <use x="261.345703" xlink:href="#DejaVuSans-32"/>
      <use x="293.132812" xlink:href="#DejaVuSans-40"/>
      <use x="332.146484" xlink:href="#DejaVuSans-109"/>
      <use x="429.558594" xlink:href="#DejaVuSans-101"/>
      <use x="491.082031" xlink:href="#DejaVuSans-97"/>
      <use x="552.361328" xlink:href="#DejaVuSans-110"/>
      <use x="615.740234" xlink:href="#DejaVuSans-41"/>
     </g>
    </g>
    <g id="line2d_22">
     <path d="M 279.843437 83.926688 
L 299.843437 83.926688 
" style="fill:none;stroke:#2ca02c;stroke-linecap:square;stroke-width:1.5;"/>
    </g>
    <g id="line2d_23"/>
    <g id="text_17">
     <!-- pred.(5th percen.) -->
     <defs>
      <path d="M 54.890625 33.015625 
L 54.890625 0 
L 45.90625 0 
L 45.90625 32.71875 
Q 45.90625 40.484375 42.875 44.328125 
Q 39.84375 48.1875 33.796875 48.1875 
Q 26.515625 48.1875 22.3125 43.546875 
Q 18.109375 38.921875 18.109375 30.90625 
L 18.109375 0 
L 9.078125 0 
L 9.078125 75.984375 
L 18.109375 75.984375 
L 18.109375 46.1875 
Q 21.34375 51.125 25.703125 53.5625 
Q 30.078125 56 35.796875 56 
Q 45.21875 56 50.046875 50.171875 
Q 54.890625 44.34375 54.890625 33.015625 
z
" id="DejaVuSans-104"/>
     </defs>
     <g transform="translate(307.843437 87.426688)scale(0.1 -0.1)">
      <use xlink:href="#DejaVuSans-112"/>
      <use x="63.476562" xlink:href="#DejaVuSans-114"/>
      <use x="104.558594" xlink:href="#DejaVuSans-101"/>
      <use x="166.082031" xlink:href="#DejaVuSans-100"/>
      <use x="229.558594" xlink:href="#DejaVuSans-46"/>
      <use x="261.345703" xlink:href="#DejaVuSans-40"/>
      <use x="300.359375" xlink:href="#DejaVuSans-53"/>
      <use x="363.982422" xlink:href="#DejaVuSans-116"/>
      <use x="403.191406" xlink:href="#DejaVuSans-104"/>
      <use x="466.570312" xlink:href="#DejaVuSans-32"/>
      <use x="498.357422" xlink:href="#DejaVuSans-112"/>
      <use x="561.833984" xlink:href="#DejaVuSans-101"/>
      <use x="623.357422" xlink:href="#DejaVuSans-114"/>
      <use x="664.439453" xlink:href="#DejaVuSans-99"/>
      <use x="719.419922" xlink:href="#DejaVuSans-101"/>
      <use x="780.943359" xlink:href="#DejaVuSans-110"/>
      <use x="844.322266" xlink:href="#DejaVuSans-46"/>
      <use x="876.109375" xlink:href="#DejaVuSans-41"/>
     </g>
    </g>
    <g id="line2d_24">
     <path d="M 279.843437 98.604813 
L 299.843437 98.604813 
" style="fill:none;stroke:#d62728;stroke-linecap:square;stroke-width:1.5;"/>
    </g>
    <g id="line2d_25"/>
    <g id="text_18">
     <!-- pred.(95th percen.) -->
     <defs>
      <path d="M 10.984375 1.515625 
L 10.984375 10.5 
Q 14.703125 8.734375 18.5 7.8125 
Q 22.3125 6.890625 25.984375 6.890625 
Q 35.75 6.890625 40.890625 13.453125 
Q 46.046875 20.015625 46.78125 33.40625 
Q 43.953125 29.203125 39.59375 26.953125 
Q 35.25 24.703125 29.984375 24.703125 
Q 19.046875 24.703125 12.671875 31.3125 
Q 6.296875 37.9375 6.296875 49.421875 
Q 6.296875 60.640625 12.9375 67.421875 
Q 19.578125 74.21875 30.609375 74.21875 
Q 43.265625 74.21875 49.921875 64.515625 
Q 56.59375 54.828125 56.59375 36.375 
Q 56.59375 19.140625 48.40625 8.859375 
Q 40.234375 -1.421875 26.421875 -1.421875 
Q 22.703125 -1.421875 18.890625 -0.6875 
Q 15.09375 0.046875 10.984375 1.515625 
z
M 30.609375 32.421875 
Q 37.25 32.421875 41.125 36.953125 
Q 45.015625 41.5 45.015625 49.421875 
Q 45.015625 57.28125 41.125 61.84375 
Q 37.25 66.40625 30.609375 66.40625 
Q 23.96875 66.40625 20.09375 61.84375 
Q 16.21875 57.28125 16.21875 49.421875 
Q 16.21875 41.5 20.09375 36.953125 
Q 23.96875 32.421875 30.609375 32.421875 
z
" id="DejaVuSans-57"/>
     </defs>
     <g transform="translate(307.843437 102.104813)scale(0.1 -0.1)">
      <use xlink:href="#DejaVuSans-112"/>
      <use x="63.476562" xlink:href="#DejaVuSans-114"/>
      <use x="104.558594" xlink:href="#DejaVuSans-101"/>
      <use x="166.082031" xlink:href="#DejaVuSans-100"/>
      <use x="229.558594" xlink:href="#DejaVuSans-46"/>
      <use x="261.345703" xlink:href="#DejaVuSans-40"/>
      <use x="300.359375" xlink:href="#DejaVuSans-57"/>
      <use x="363.982422" xlink:href="#DejaVuSans-53"/>
      <use x="427.605469" xlink:href="#DejaVuSans-116"/>
      <use x="466.814453" xlink:href="#DejaVuSans-104"/>
      <use x="530.193359" xlink:href="#DejaVuSans-32"/>
      <use x="561.980469" xlink:href="#DejaVuSans-112"/>
      <use x="625.457031" xlink:href="#DejaVuSans-101"/>
      <use x="686.980469" xlink:href="#DejaVuSans-114"/>
      <use x="728.0625" xlink:href="#DejaVuSans-99"/>
      <use x="783.042969" xlink:href="#DejaVuSans-101"/>
      <use x="844.566406" xlink:href="#DejaVuSans-110"/>
      <use x="907.945312" xlink:href="#DejaVuSans-46"/>
      <use x="939.732422" xlink:href="#DejaVuSans-41"/>
     </g>
    </g>
   </g>
  </g>
 </g>
 <defs>
  <clipPath id="pf1aaedbd23">
   <rect height="266.112" width="357.12" x="57.6" y="41.472"/>
  </clipPath>
 </defs>
</svg>
