<?xml version="1.0" encoding="utf-8" standalone="no"?>
<!DOCTYPE svg PUBLIC "-//W3C//DTD SVG 1.1//EN"
  "http://www.w3.org/Graphics/SVG/1.1/DTD/svg11.dtd">
<!-- Created with matplotlib (https://matplotlib.org/) -->
<svg height="345.6pt" version="1.1" viewBox="0 0 460.8 345.6" width="460.8pt" xmlns="http://www.w3.org/2000/svg" xmlns:xlink="http://www.w3.org/1999/xlink">
 <defs>
  <style type="text/css">
*{stroke-linecap:butt;stroke-linejoin:round;}
  </style>
 </defs>
 <g id="figure_1">
  <g id="patch_1">
   <path d="M 0 345.6 
L 460.8 345.6 
L 460.8 0 
L 0 0 
z
" style="fill:#ffffff;"/>
  </g>
  <g id="axes_1">
   <g id="patch_2">
    <path d="M 57.6 307.584 
L 414.72 307.584 
L 414.72 41.472 
L 57.6 41.472 
z
" style="fill:#ffffff;"/>
   </g>
   <g id="PolyCollection_1">
    <path clip-path="url(#pefd6f310ee)" d="M 73.832727 277.38234 
L 73.832727 285.005312 
L 74.92584 285.842663 
L 76.018953 285.389652 
L 77.112066 285.548302 
L 78.205179 282.724815 
L 79.298292 278.989078 
L 80.391405 276.23274 
L 81.484518 267.078619 
L 82.577631 257.768322 
L 83.670744 243.317092 
L 84.763857 219.14922 
L 85.85697 201.053943 
L 86.950083 175.337654 
L 88.043196 148.076657 
L 89.136309 126.367622 
L 90.229421 120.05215 
L 91.322534 112.970421 
L 92.415647 97.629635 
L 93.50876 85.722996 
L 94.601873 86.353667 
L 95.694986 85.201501 
L 96.788099 81.506112 
L 97.881212 83.408 
L 98.974325 91.128964 
L 100.067438 102.673343 
L 101.160551 97.529225 
L 102.253664 102.080809 
L 103.346777 118.220274 
L 104.43989 121.099301 
L 105.533003 134.517215 
L 106.626116 137.148747 
L 107.719229 165.964819 
L 108.812342 177.407409 
L 109.905455 155.626793 
L 110.998567 154.388212 
L 112.09168 161.461808 
L 113.184793 166.054807 
L 114.277906 162.100132 
L 115.371019 165.843407 
L 116.464132 190.453148 
L 117.557245 197.093156 
L 118.650358 200.397387 
L 119.743471 216.688648 
L 120.836584 222.459203 
L 121.929697 220.574202 
L 123.02281 228.84673 
L 124.115923 238.58143 
L 125.209036 243.499688 
L 126.302149 244.592894 
L 127.395262 248.925297 
L 128.488375 257.54278 
L 129.581488 261.193541 
L 130.674601 260.89622 
L 131.767713 261.13548 
L 132.860826 264.722524 
L 133.953939 268.008953 
L 135.047052 269.826164 
L 136.140165 273.0515 
L 137.233278 279.360052 
L 138.326391 281.072586 
L 139.419504 280.415893 
L 140.512617 279.633841 
L 141.60573 279.791763 
L 142.698843 277.904963 
L 143.791956 276.247663 
L 144.885069 274.386032 
L 145.978182 268.61048 
L 147.071295 260.546673 
L 148.164408 253.37754 
L 149.257521 250.274079 
L 150.350634 244.851618 
L 151.443747 236.293444 
L 152.53686 231.962977 
L 153.629972 227.833623 
L 154.723085 220.905095 
L 155.816198 210.9086 
L 156.909311 198.611002 
L 158.002424 193.991377 
L 159.095537 191.645887 
L 160.18865 194.35339 
L 161.281763 188.241252 
L 162.374876 172.015813 
L 163.467989 141.370942 
L 164.561102 120.790246 
L 165.654215 107.33368 
L 166.747328 100.872291 
L 167.840441 93.971998 
L 168.933554 91.368225 
L 170.026667 106.211339 
L 171.11978 99.762528 
L 172.212893 96.411623 
L 173.306006 99.127434 
L 174.399118 109.853003 
L 175.492231 125.9251 
L 176.585344 132.479819 
L 177.678457 154.268051 
L 178.77157 165.854234 
L 179.864683 174.154887 
L 180.957796 177.491825 
L 182.050909 180.138483 
L 183.144022 183.8338 
L 184.237135 193.433316 
L 185.330248 188.361957 
L 186.423361 187.263903 
L 187.516474 189.069132 
L 188.609587 192.20866 
L 189.7027 194.732226 
L 190.795813 192.401824 
L 191.888926 201.756569 
L 192.982039 199.008818 
L 194.075152 201.214289 
L 195.168264 207.413332 
L 196.261377 208.543883 
L 197.35449 213.957983 
L 198.447603 222.224422 
L 199.540716 227.783913 
L 200.633829 229.949125 
L 201.726942 227.598585 
L 202.820055 232.760533 
L 203.913168 240.69458 
L 205.006281 246.565171 
L 206.099394 250.92548 
L 207.192507 255.252141 
L 208.28562 261.618779 
L 209.378733 265.697615 
L 210.471846 266.288366 
L 211.564959 267.832197 
L 212.658072 272.156745 
L 213.751185 276.083456 
L 214.844298 280.159252 
L 215.93741 283.124498 
L 217.030523 286.687716 
L 218.123636 288.639184 
L 219.216749 289.744175 
L 220.309862 290.113967 
L 221.402975 289.713337 
L 222.496088 289.752608 
L 223.589201 288.752137 
L 224.682314 287.950412 
L 225.775427 285.940543 
L 226.86854 282.889834 
L 227.961653 278.296568 
L 229.054766 270.299226 
L 230.147879 262.862993 
L 231.240992 255.397456 
L 232.334105 246.608688 
L 233.427218 240.212953 
L 234.520331 228.911759 
L 235.613444 215.996504 
L 236.706556 206.249313 
L 237.799669 192.69349 
L 238.892782 177.489873 
L 239.985895 162.190048 
L 241.079008 150.441525 
L 242.172121 143.012761 
L 243.265234 141.655812 
L 244.358347 141.682489 
L 245.45146 142.225102 
L 246.544573 133.902905 
L 247.637686 138.319012 
L 248.730799 143.446834 
L 249.823912 140.795859 
L 250.917025 144.640839 
L 252.010138 144.396123 
L 253.103251 157.230601 
L 254.196364 162.948453 
L 255.289477 171.219662 
L 256.38259 175.379123 
L 257.475702 182.170237 
L 258.568815 192.651093 
L 259.661928 187.75269 
L 260.755041 193.258072 
L 261.848154 197.828683 
L 262.941267 205.605008 
L 264.03438 204.999758 
L 265.127493 204.554578 
L 266.220606 217.987962 
L 267.313719 226.227069 
L 268.406832 230.312845 
L 269.499945 229.535745 
L 270.593058 229.349222 
L 271.686171 231.383916 
L 272.779284 229.433104 
L 273.872397 224.374015 
L 274.96551 223.821233 
L 276.058623 224.137722 
L 277.151736 228.96627 
L 278.244848 233.181446 
L 279.337961 237.876856 
L 280.431074 243.894425 
L 281.524187 247.662181 
L 282.6173 253.441442 
L 283.710413 255.479342 
L 284.803526 258.545484 
L 285.896639 262.830882 
L 286.989752 268.022736 
L 288.082865 270.197117 
L 289.175978 275.109827 
L 290.269091 281.959041 
L 291.362204 284.735371 
L 292.455317 287.18435 
L 293.54843 288.08684 
L 294.641543 288.189811 
L 295.734656 285.680749 
L 296.827769 282.745664 
L 297.920882 276.795761 
L 299.013994 269.822682 
L 300.107107 262.298508 
L 301.20022 251.835935 
L 302.293333 238.700749 
L 303.386446 225.952404 
L 304.479559 217.511256 
L 305.572672 198.976515 
L 306.665785 183.741889 
L 307.758898 181.405732 
L 308.852011 171.580881 
L 309.945124 154.823788 
L 311.038237 123.945829 
L 312.13135 110.673777 
L 313.224463 99.725104 
L 314.317576 89.41728 
L 315.410689 84.773704 
L 316.503802 86.060043 
L 317.596915 87.996026 
L 318.690028 93.891405 
L 319.78314 101.762651 
L 320.876253 114.270945 
L 321.969366 119.497811 
L 323.062479 121.028535 
L 324.155592 140.33642 
L 325.248705 135.665886 
L 326.341818 132.671941 
L 327.434931 127.059013 
L 328.528044 128.317186 
L 329.621157 129.176858 
L 330.71427 142.172407 
L 331.807383 162.016727 
L 332.900496 171.898478 
L 333.993609 190.562275 
L 335.086722 198.004083 
L 336.179835 208.953811 
L 337.272948 218.447745 
L 338.366061 216.390038 
L 339.459174 217.5301 
L 340.552287 223.918077 
L 341.645399 232.367895 
L 342.738512 243.428811 
L 343.831625 246.064637 
L 344.924738 252.845317 
L 346.017851 263.827088 
L 347.110964 268.222078 
L 348.204077 271.624113 
L 349.29719 272.929841 
L 350.390303 277.048258 
L 351.483416 279.706388 
L 352.576529 280.124908 
L 353.669642 280.265868 
L 354.762755 280.064418 
L 355.855868 281.511822 
L 356.948981 279.947863 
L 358.042094 278.600176 
L 359.135207 278.365055 
L 360.22832 278.762883 
L 361.321433 280.408642 
L 362.414545 281.7228 
L 363.507658 284.619843 
L 364.600771 286.352369 
L 365.693884 287.863396 
L 366.786997 289.25435 
L 367.88011 289.994279 
L 368.973223 290.859673 
L 370.066336 290.83483 
L 371.159449 290.923133 
L 372.252562 290.015325 
L 373.345675 288.701929 
L 374.438788 286.784886 
L 375.531901 282.47271 
L 376.625014 278.328791 
L 377.718127 272.157843 
L 378.81124 263.81024 
L 379.904353 253.996288 
L 380.997466 249.058015 
L 382.090579 243.196032 
L 383.183691 234.32018 
L 384.276804 225.065249 
L 385.369917 217.331565 
L 386.46303 215.943541 
L 387.556143 209.022959 
L 388.649256 204.960487 
L 389.742369 196.281584 
L 390.835482 201.736295 
L 391.928595 206.163185 
L 393.021708 202.206096 
L 394.114821 198.028242 
L 395.207934 205.735705 
L 396.301047 211.683655 
L 397.39416 206.865336 
L 398.487273 200.887049 
L 398.487273 196.869807 
L 398.487273 196.869807 
L 397.39416 197.606084 
L 396.301047 209.352613 
L 395.207934 201.207792 
L 394.114821 196.018487 
L 393.021708 198.206897 
L 391.928595 202.590344 
L 390.835482 194.665891 
L 389.742369 189.180789 
L 388.649256 200.527941 
L 387.556143 204.071329 
L 386.46303 208.157451 
L 385.369917 212.112379 
L 384.276804 213.912736 
L 383.183691 225.401279 
L 382.090579 233.761039 
L 380.997466 242.231092 
L 379.904353 248.136377 
L 378.81124 257.283489 
L 377.718127 269.401802 
L 376.625014 273.269904 
L 375.531901 276.232498 
L 374.438788 278.86827 
L 373.345675 280.073042 
L 372.252562 280.92264 
L 371.159449 281.425334 
L 370.066336 281.430957 
L 368.973223 281.147275 
L 367.88011 280.643934 
L 366.786997 279.926523 
L 365.693884 278.984857 
L 364.600771 278.000597 
L 363.507658 276.513709 
L 362.414545 275.191138 
L 361.321433 273.964058 
L 360.22832 273.318345 
L 359.135207 273.206666 
L 358.042094 273.22269 
L 356.948981 274.757542 
L 355.855868 274.692198 
L 354.762755 274.426713 
L 353.669642 274.292989 
L 352.576529 274.426465 
L 351.483416 273.634379 
L 350.390303 271.471226 
L 349.29719 269.650754 
L 348.204077 268.462037 
L 347.110964 265.442368 
L 346.017851 259.384728 
L 344.924738 248.526631 
L 343.831625 240.579431 
L 342.738512 237.909253 
L 341.645399 228.074082 
L 340.552287 220.138744 
L 339.459174 214.384148 
L 338.366061 211.765711 
L 337.272948 213.131542 
L 336.179835 201.464017 
L 335.086722 190.869696 
L 333.993609 178.372598 
L 332.900496 161.092872 
L 331.807383 150.768684 
L 330.71427 130.561177 
L 329.621157 124.223303 
L 328.528044 122.712952 
L 327.434931 121.109641 
L 326.341818 127.431682 
L 325.248705 130.539159 
L 324.155592 132.788845 
L 323.062479 117.14783 
L 321.969366 112.684334 
L 320.876253 104.540528 
L 319.78314 89.440081 
L 318.690028 78.603542 
L 317.596915 70.934319 
L 316.503802 69.339009 
L 315.410689 69.979218 
L 314.317576 74.168821 
L 313.224463 88.575809 
L 312.13135 101.916308 
L 311.038237 108.618436 
L 309.945124 145.008073 
L 308.852011 167.005126 
L 307.758898 174.643803 
L 306.665785 175.361846 
L 305.572672 185.363375 
L 304.479559 207.42666 
L 303.386446 216.122313 
L 302.293333 227.244671 
L 301.20022 241.222498 
L 300.107107 257.208433 
L 299.013994 267.070793 
L 297.920882 272.59037 
L 296.827769 276.190462 
L 295.734656 278.403073 
L 294.641543 279.475951 
L 293.54843 279.333523 
L 292.455317 278.42127 
L 291.362204 276.872305 
L 290.269091 274.065871 
L 289.175978 270.030991 
L 288.082865 267.636689 
L 286.989752 264.973976 
L 285.896639 260.174181 
L 284.803526 255.242836 
L 283.710413 250.843548 
L 282.6173 248.549339 
L 281.524187 242.926425 
L 280.431074 237.753795 
L 279.337961 233.228823 
L 278.244848 227.048185 
L 277.151736 224.519361 
L 276.058623 219.855798 
L 274.96551 217.918524 
L 273.872397 218.436381 
L 272.779284 220.381211 
L 271.686171 226.189516 
L 270.593058 224.120851 
L 269.499945 222.820277 
L 268.406832 223.915557 
L 267.313719 221.794769 
L 266.220606 212.97497 
L 265.127493 201.676533 
L 264.03438 199.679048 
L 262.941267 201.319001 
L 261.848154 194.275033 
L 260.755041 188.034195 
L 259.661928 184.126904 
L 258.568815 185.393478 
L 257.475702 171.047736 
L 256.38259 168.052036 
L 255.289477 160.125306 
L 254.196364 154.472221 
L 253.103251 147.146451 
L 252.010138 135.393507 
L 250.917025 137.378465 
L 249.823912 134.056144 
L 248.730799 136.263798 
L 247.637686 128.536038 
L 246.544573 128.850025 
L 245.45146 135.193007 
L 244.358347 134.670561 
L 243.265234 130.988675 
L 242.172121 135.448005 
L 241.079008 141.917228 
L 239.985895 153.867534 
L 238.892782 168.953496 
L 237.799669 183.331378 
L 236.706556 197.761691 
L 235.613444 206.414082 
L 234.520331 218.216387 
L 233.427218 230.210996 
L 232.334105 239.373479 
L 231.240992 247.268936 
L 230.147879 258.719564 
L 229.054766 267.206517 
L 227.961653 273.584473 
L 226.86854 276.299198 
L 225.775427 278.423363 
L 224.682314 279.368329 
L 223.589201 280.122514 
L 222.496088 280.471142 
L 221.402975 280.617547 
L 220.309862 280.822037 
L 219.216749 280.416056 
L 218.123636 279.464335 
L 217.030523 277.821681 
L 215.93741 275.656308 
L 214.844298 273.531107 
L 213.751185 270.980198 
L 212.658072 268.217928 
L 211.564959 265.818962 
L 210.471846 264.53629 
L 209.378733 263.276237 
L 208.28562 258.389346 
L 207.192507 251.278049 
L 206.099394 245.948523 
L 205.006281 241.286192 
L 203.913168 235.44506 
L 202.820055 228.529056 
L 201.726942 221.532325 
L 200.633829 223.416592 
L 199.540716 223.218824 
L 198.447603 218.562964 
L 197.35449 210.500624 
L 196.261377 203.473928 
L 195.168264 203.892838 
L 194.075152 199.566724 
L 192.982039 196.521114 
L 191.888926 197.034781 
L 190.795813 190.236374 
L 189.7027 191.780229 
L 188.609587 187.760854 
L 187.516474 184.68839 
L 186.423361 184.224808 
L 185.330248 185.362554 
L 184.237135 187.083062 
L 183.144022 175.654308 
L 182.050909 173.80516 
L 180.957796 169.387964 
L 179.864683 163.205789 
L 178.77157 156.311292 
L 177.678457 141.013953 
L 176.585344 127.428594 
L 175.492231 118.591303 
L 174.399118 103.862634 
L 173.306006 89.952398 
L 172.212893 86.53849 
L 171.11978 87.057913 
L 170.026667 94.538051 
L 168.933554 81.208522 
L 167.840441 80.207864 
L 166.747328 91.867674 
L 165.654215 97.557531 
L 164.561102 109.84299 
L 163.467989 125.782425 
L 162.374876 160.814196 
L 161.281763 185.7984 
L 160.18865 190.993185 
L 159.095537 189.306108 
L 158.002424 191.270666 
L 156.909311 191.465246 
L 155.816198 199.015224 
L 154.723085 212.439341 
L 153.629972 220.835784 
L 152.53686 224.992939 
L 151.443747 227.16525 
L 150.350634 236.231779 
L 149.257521 243.796142 
L 148.164408 247.807028 
L 147.071295 254.610929 
L 145.978182 265.449146 
L 144.885069 271.000125 
L 143.791956 271.878655 
L 142.698843 273.180185 
L 141.60573 274.100169 
L 140.512617 273.933933 
L 139.419504 274.808301 
L 138.326391 274.855157 
L 137.233278 272.39862 
L 136.140165 269.120068 
L 135.047052 267.432533 
L 133.953939 265.655806 
L 132.860826 262.320262 
L 131.767713 258.711944 
L 130.674601 255.834773 
L 129.581488 257.941652 
L 128.488375 253.400492 
L 127.395262 244.449522 
L 126.302149 238.929032 
L 125.209036 236.849749 
L 124.115923 233.595769 
L 123.02281 224.902554 
L 121.929697 216.519997 
L 120.836584 216.178992 
L 119.743471 209.968533 
L 118.650358 194.08253 
L 117.557245 189.936837 
L 116.464132 175.127738 
L 115.371019 155.11973 
L 114.277906 155.750368 
L 113.184793 157.907935 
L 112.09168 151.544273 
L 110.998567 139.906497 
L 109.905455 147.216151 
L 108.812342 167.118819 
L 107.719229 150.241579 
L 106.626116 131.710464 
L 105.533003 128.492814 
L 104.43989 117.531197 
L 103.346777 108.967387 
L 102.253664 94.920578 
L 101.160551 83.228213 
L 100.067438 85.136795 
L 98.974325 73.826175 
L 97.881212 64.73201 
L 96.788099 63.607202 
L 95.694986 66.053993 
L 94.601873 71.501746 
L 93.50876 71.240622 
L 92.415647 81.636025 
L 91.322534 108.970105 
L 90.229421 108.786696 
L 89.136309 114.478533 
L 88.043196 133.822944 
L 86.950083 159.525224 
L 85.85697 187.494048 
L 84.763857 203.289243 
L 83.670744 227.079086 
L 82.577631 251.201997 
L 81.484518 261.395349 
L 80.391405 271.989256 
L 79.298292 273.633706 
L 78.205179 276.58085 
L 77.112066 277.632151 
L 76.018953 277.790642 
L 74.92584 277.804319 
L 73.832727 277.38234 
z
" style="fill:#008000;fill-opacity:0.4;"/>
   </g>
   <g id="matplotlib.axis_1">
    <g id="xtick_1">
     <g id="line2d_1">
      <defs>
       <path d="M 0 0 
L 0 3.5 
" id="m159c8c9236" style="stroke:#000000;stroke-width:0.8;"/>
      </defs>
      <g>
       <use style="stroke:#000000;stroke-width:0.8;" x="73.832727" xlink:href="#m159c8c9236" y="307.584"/>
      </g>
     </g>
     <g id="text_1">
      <!-- 0.0 -->
      <defs>
       <path d="M 31.78125 66.40625 
Q 24.171875 66.40625 20.328125 58.90625 
Q 16.5 51.421875 16.5 36.375 
Q 16.5 21.390625 20.328125 13.890625 
Q 24.171875 6.390625 31.78125 6.390625 
Q 39.453125 6.390625 43.28125 13.890625 
Q 47.125 21.390625 47.125 36.375 
Q 47.125 51.421875 43.28125 58.90625 
Q 39.453125 66.40625 31.78125 66.40625 
z
M 31.78125 74.21875 
Q 44.046875 74.21875 50.515625 64.515625 
Q 56.984375 54.828125 56.984375 36.375 
Q 56.984375 17.96875 50.515625 8.265625 
Q 44.046875 -1.421875 31.78125 -1.421875 
Q 19.53125 -1.421875 13.0625 8.265625 
Q 6.59375 17.96875 6.59375 36.375 
Q 6.59375 54.828125 13.0625 64.515625 
Q 19.53125 74.21875 31.78125 74.21875 
z
" id="DejaVuSans-48"/>
       <path d="M 10.6875 12.40625 
L 21 12.40625 
L 21 0 
L 10.6875 0 
z
" id="DejaVuSans-46"/>
      </defs>
      <g transform="translate(65.881165 322.182437)scale(0.1 -0.1)">
       <use xlink:href="#DejaVuSans-48"/>
       <use x="63.623047" xlink:href="#DejaVuSans-46"/>
       <use x="95.410156" xlink:href="#DejaVuSans-48"/>
      </g>
     </g>
    </g>
    <g id="xtick_2">
     <g id="line2d_2">
      <g>
       <use style="stroke:#000000;stroke-width:0.8;" x="138.763636" xlink:href="#m159c8c9236" y="307.584"/>
      </g>
     </g>
     <g id="text_2">
      <!-- 0.2 -->
      <defs>
       <path d="M 19.1875 8.296875 
L 53.609375 8.296875 
L 53.609375 0 
L 7.328125 0 
L 7.328125 8.296875 
Q 12.9375 14.109375 22.625 23.890625 
Q 32.328125 33.6875 34.8125 36.53125 
Q 39.546875 41.84375 41.421875 45.53125 
Q 43.3125 49.21875 43.3125 52.78125 
Q 43.3125 58.59375 39.234375 62.25 
Q 35.15625 65.921875 28.609375 65.921875 
Q 23.96875 65.921875 18.8125 64.3125 
Q 13.671875 62.703125 7.8125 59.421875 
L 7.8125 69.390625 
Q 13.765625 71.78125 18.9375 73 
Q 24.125 74.21875 28.421875 74.21875 
Q 39.75 74.21875 46.484375 68.546875 
Q 53.21875 62.890625 53.21875 53.421875 
Q 53.21875 48.921875 51.53125 44.890625 
Q 49.859375 40.875 45.40625 35.40625 
Q 44.1875 33.984375 37.640625 27.21875 
Q 31.109375 20.453125 19.1875 8.296875 
z
" id="DejaVuSans-50"/>
      </defs>
      <g transform="translate(130.812074 322.182437)scale(0.1 -0.1)">
       <use xlink:href="#DejaVuSans-48"/>
       <use x="63.623047" xlink:href="#DejaVuSans-46"/>
       <use x="95.410156" xlink:href="#DejaVuSans-50"/>
      </g>
     </g>
    </g>
    <g id="xtick_3">
     <g id="line2d_3">
      <g>
       <use style="stroke:#000000;stroke-width:0.8;" x="203.694545" xlink:href="#m159c8c9236" y="307.584"/>
      </g>
     </g>
     <g id="text_3">
      <!-- 0.4 -->
      <defs>
       <path d="M 37.796875 64.3125 
L 12.890625 25.390625 
L 37.796875 25.390625 
z
M 35.203125 72.90625 
L 47.609375 72.90625 
L 47.609375 25.390625 
L 58.015625 25.390625 
L 58.015625 17.1875 
L 47.609375 17.1875 
L 47.609375 0 
L 37.796875 0 
L 37.796875 17.1875 
L 4.890625 17.1875 
L 4.890625 26.703125 
z
" id="DejaVuSans-52"/>
      </defs>
      <g transform="translate(195.742983 322.182437)scale(0.1 -0.1)">
       <use xlink:href="#DejaVuSans-48"/>
       <use x="63.623047" xlink:href="#DejaVuSans-46"/>
       <use x="95.410156" xlink:href="#DejaVuSans-52"/>
      </g>
     </g>
    </g>
    <g id="xtick_4">
     <g id="line2d_4">
      <g>
       <use style="stroke:#000000;stroke-width:0.8;" x="268.625455" xlink:href="#m159c8c9236" y="307.584"/>
      </g>
     </g>
     <g id="text_4">
      <!-- 0.6 -->
      <defs>
       <path d="M 33.015625 40.375 
Q 26.375 40.375 22.484375 35.828125 
Q 18.609375 31.296875 18.609375 23.390625 
Q 18.609375 15.53125 22.484375 10.953125 
Q 26.375 6.390625 33.015625 6.390625 
Q 39.65625 6.390625 43.53125 10.953125 
Q 47.40625 15.53125 47.40625 23.390625 
Q 47.40625 31.296875 43.53125 35.828125 
Q 39.65625 40.375 33.015625 40.375 
z
M 52.59375 71.296875 
L 52.59375 62.3125 
Q 48.875 64.0625 45.09375 64.984375 
Q 41.3125 65.921875 37.59375 65.921875 
Q 27.828125 65.921875 22.671875 59.328125 
Q 17.53125 52.734375 16.796875 39.40625 
Q 19.671875 43.65625 24.015625 45.921875 
Q 28.375 48.1875 33.59375 48.1875 
Q 44.578125 48.1875 50.953125 41.515625 
Q 57.328125 34.859375 57.328125 23.390625 
Q 57.328125 12.15625 50.6875 5.359375 
Q 44.046875 -1.421875 33.015625 -1.421875 
Q 20.359375 -1.421875 13.671875 8.265625 
Q 6.984375 17.96875 6.984375 36.375 
Q 6.984375 53.65625 15.1875 63.9375 
Q 23.390625 74.21875 37.203125 74.21875 
Q 40.921875 74.21875 44.703125 73.484375 
Q 48.484375 72.75 52.59375 71.296875 
z
" id="DejaVuSans-54"/>
      </defs>
      <g transform="translate(260.673892 322.182437)scale(0.1 -0.1)">
       <use xlink:href="#DejaVuSans-48"/>
       <use x="63.623047" xlink:href="#DejaVuSans-46"/>
       <use x="95.410156" xlink:href="#DejaVuSans-54"/>
      </g>
     </g>
    </g>
    <g id="xtick_5">
     <g id="line2d_5">
      <g>
       <use style="stroke:#000000;stroke-width:0.8;" x="333.556364" xlink:href="#m159c8c9236" y="307.584"/>
      </g>
     </g>
     <g id="text_5">
      <!-- 0.8 -->
      <defs>
       <path d="M 31.78125 34.625 
Q 24.75 34.625 20.71875 30.859375 
Q 16.703125 27.09375 16.703125 20.515625 
Q 16.703125 13.921875 20.71875 10.15625 
Q 24.75 6.390625 31.78125 6.390625 
Q 38.8125 6.390625 42.859375 10.171875 
Q 46.921875 13.96875 46.921875 20.515625 
Q 46.921875 27.09375 42.890625 30.859375 
Q 38.875 34.625 31.78125 34.625 
z
M 21.921875 38.8125 
Q 15.578125 40.375 12.03125 44.71875 
Q 8.5 49.078125 8.5 55.328125 
Q 8.5 64.0625 14.71875 69.140625 
Q 20.953125 74.21875 31.78125 74.21875 
Q 42.671875 74.21875 48.875 69.140625 
Q 55.078125 64.0625 55.078125 55.328125 
Q 55.078125 49.078125 51.53125 44.71875 
Q 48 40.375 41.703125 38.8125 
Q 48.828125 37.15625 52.796875 32.3125 
Q 56.78125 27.484375 56.78125 20.515625 
Q 56.78125 9.90625 50.3125 4.234375 
Q 43.84375 -1.421875 31.78125 -1.421875 
Q 19.734375 -1.421875 13.25 4.234375 
Q 6.78125 9.90625 6.78125 20.515625 
Q 6.78125 27.484375 10.78125 32.3125 
Q 14.796875 37.15625 21.921875 38.8125 
z
M 18.3125 54.390625 
Q 18.3125 48.734375 21.84375 45.5625 
Q 25.390625 42.390625 31.78125 42.390625 
Q 38.140625 42.390625 41.71875 45.5625 
Q 45.3125 48.734375 45.3125 54.390625 
Q 45.3125 60.0625 41.71875 63.234375 
Q 38.140625 66.40625 31.78125 66.40625 
Q 25.390625 66.40625 21.84375 63.234375 
Q 18.3125 60.0625 18.3125 54.390625 
z
" id="DejaVuSans-56"/>
      </defs>
      <g transform="translate(325.604801 322.182437)scale(0.1 -0.1)">
       <use xlink:href="#DejaVuSans-48"/>
       <use x="63.623047" xlink:href="#DejaVuSans-46"/>
       <use x="95.410156" xlink:href="#DejaVuSans-56"/>
      </g>
     </g>
    </g>
    <g id="xtick_6">
     <g id="line2d_6">
      <g>
       <use style="stroke:#000000;stroke-width:0.8;" x="398.487273" xlink:href="#m159c8c9236" y="307.584"/>
      </g>
     </g>
     <g id="text_6">
      <!-- 1.0 -->
      <defs>
       <path d="M 12.40625 8.296875 
L 28.515625 8.296875 
L 28.515625 63.921875 
L 10.984375 60.40625 
L 10.984375 69.390625 
L 28.421875 72.90625 
L 38.28125 72.90625 
L 38.28125 8.296875 
L 54.390625 8.296875 
L 54.390625 0 
L 12.40625 0 
z
" id="DejaVuSans-49"/>
      </defs>
      <g transform="translate(390.53571 322.182437)scale(0.1 -0.1)">
       <use xlink:href="#DejaVuSans-49"/>
       <use x="63.623047" xlink:href="#DejaVuSans-46"/>
       <use x="95.410156" xlink:href="#DejaVuSans-48"/>
      </g>
     </g>
    </g>
   </g>
   <g id="matplotlib.axis_2">
    <g id="ytick_1">
     <g id="line2d_7">
      <defs>
       <path d="M 0 0 
L -3.5 0 
" id="mbf8eb411cd" style="stroke:#000000;stroke-width:0.8;"/>
      </defs>
      <g>
       <use style="stroke:#000000;stroke-width:0.8;" x="57.6" xlink:href="#mbf8eb411cd" y="299.17887"/>
      </g>
     </g>
     <g id="text_7">
      <!-- 0.0 -->
      <g transform="translate(34.696875 302.978089)scale(0.1 -0.1)">
       <use xlink:href="#DejaVuSans-48"/>
       <use x="63.623047" xlink:href="#DejaVuSans-46"/>
       <use x="95.410156" xlink:href="#DejaVuSans-48"/>
      </g>
     </g>
    </g>
    <g id="ytick_2">
     <g id="line2d_8">
      <g>
       <use style="stroke:#000000;stroke-width:0.8;" x="57.6" xlink:href="#mbf8eb411cd" y="249.553394"/>
      </g>
     </g>
     <g id="text_8">
      <!-- 0.2 -->
      <g transform="translate(34.696875 253.352613)scale(0.1 -0.1)">
       <use xlink:href="#DejaVuSans-48"/>
       <use x="63.623047" xlink:href="#DejaVuSans-46"/>
       <use x="95.410156" xlink:href="#DejaVuSans-50"/>
      </g>
     </g>
    </g>
    <g id="ytick_3">
     <g id="line2d_9">
      <g>
       <use style="stroke:#000000;stroke-width:0.8;" x="57.6" xlink:href="#mbf8eb411cd" y="199.927919"/>
      </g>
     </g>
     <g id="text_9">
      <!-- 0.4 -->
      <g transform="translate(34.696875 203.727138)scale(0.1 -0.1)">
       <use xlink:href="#DejaVuSans-48"/>
       <use x="63.623047" xlink:href="#DejaVuSans-46"/>
       <use x="95.410156" xlink:href="#DejaVuSans-52"/>
      </g>
     </g>
    </g>
    <g id="ytick_4">
     <g id="line2d_10">
      <g>
       <use style="stroke:#000000;stroke-width:0.8;" x="57.6" xlink:href="#mbf8eb411cd" y="150.302443"/>
      </g>
     </g>
     <g id="text_10">
      <!-- 0.6 -->
      <g transform="translate(34.696875 154.101662)scale(0.1 -0.1)">
       <use xlink:href="#DejaVuSans-48"/>
       <use x="63.623047" xlink:href="#DejaVuSans-46"/>
       <use x="95.410156" xlink:href="#DejaVuSans-54"/>
      </g>
     </g>
    </g>
    <g id="ytick_5">
     <g id="line2d_11">
      <g>
       <use style="stroke:#000000;stroke-width:0.8;" x="57.6" xlink:href="#mbf8eb411cd" y="100.676968"/>
      </g>
     </g>
     <g id="text_11">
      <!-- 0.8 -->
      <g transform="translate(34.696875 104.476186)scale(0.1 -0.1)">
       <use xlink:href="#DejaVuSans-48"/>
       <use x="63.623047" xlink:href="#DejaVuSans-46"/>
       <use x="95.410156" xlink:href="#DejaVuSans-56"/>
      </g>
     </g>
    </g>
    <g id="ytick_6">
     <g id="line2d_12">
      <g>
       <use style="stroke:#000000;stroke-width:0.8;" x="57.6" xlink:href="#mbf8eb411cd" y="51.051492"/>
      </g>
     </g>
     <g id="text_12">
      <!-- 1.0 -->
      <g transform="translate(34.696875 54.850711)scale(0.1 -0.1)">
       <use xlink:href="#DejaVuSans-49"/>
       <use x="63.623047" xlink:href="#DejaVuSans-46"/>
       <use x="95.410156" xlink:href="#DejaVuSans-48"/>
      </g>
     </g>
    </g>
   </g>
   <g id="line2d_13">
    <path clip-path="url(#pefd6f310ee)" d="M 73.832727 286.596355 
L 74.92584 286.764114 
L 76.018953 286.093054 
L 77.112066 285.086451 
L 78.205179 278.711289 
L 79.298292 276.194781 
L 80.391405 269.316244 
L 81.484518 258.411542 
L 82.577631 245.661268 
L 83.670744 224.522553 
L 84.763857 206.739263 
L 85.85697 186.607201 
L 88.043196 142.65218 
L 89.136309 124.868891 
L 90.229421 119.332673 
L 91.322534 104.40136 
L 92.415647 76.719773 
L 93.50876 67.324926 
L 94.601873 65.143887 
L 95.694986 54.574653 
L 96.788099 53.568 
L 97.881212 61.78846 
L 98.974325 79.571997 
L 100.067438 85.779152 
L 101.160551 87.456989 
L 102.253664 103.394707 
L 105.533003 130.405357 
L 106.626116 142.484446 
L 107.719229 161.609856 
L 108.812342 163.95863 
L 109.905455 152.047275 
L 110.998567 154.396049 
L 112.09168 159.932267 
L 113.184793 161.945572 
L 114.277906 159.932267 
L 115.371019 168.991645 
L 116.464132 184.761877 
L 117.557245 189.962627 
L 118.650358 202.712901 
L 119.743471 213.953319 
L 120.836584 215.463174 
L 121.929697 220.328456 
L 124.115923 236.433907 
L 125.209036 238.614947 
L 126.302149 241.131455 
L 127.395262 250.52655 
L 128.488375 256.398236 
L 129.581488 259.250212 
L 130.674601 257.069421 
L 131.767713 260.92805 
L 132.860826 265.289881 
L 135.047052 269.819694 
L 137.233278 280.892279 
L 138.326391 280.892279 
L 139.419504 278.54353 
L 140.512617 279.550133 
L 141.60573 277.704686 
L 142.698843 275.188178 
L 143.791956 274.684901 
L 144.885069 269.819694 
L 147.071295 251.532955 
L 148.164408 247.674326 
L 149.257521 242.64131 
L 150.350634 234.588584 
L 151.443747 229.555568 
L 152.53686 225.361471 
L 153.629972 220.49619 
L 154.723085 214.288787 
L 155.816198 200.867329 
L 156.909311 196.337764 
L 158.002424 193.150071 
L 159.095537 192.143419 
L 160.18865 190.298095 
L 161.281763 182.077387 
L 164.561102 115.809512 
L 167.840441 77.89416 
L 168.933554 90.141231 
L 170.026667 93.496658 
L 171.11978 88.79911 
L 172.212893 89.470047 
L 173.306006 96.1809 
L 174.399118 112.622068 
L 175.492231 122.352383 
L 176.585344 133.257333 
L 177.678457 151.543825 
L 178.77157 160.435469 
L 179.864683 167.984993 
L 180.957796 174.695846 
L 182.050909 176.205701 
L 183.144022 184.929611 
L 184.237135 186.607201 
L 185.330248 187.110403 
L 186.423361 186.607201 
L 187.516474 187.781587 
L 188.609587 191.304748 
L 189.7027 191.640216 
L 190.795813 194.659926 
L 191.888926 197.176434 
L 194.075152 200.364127 
L 195.168264 205.564877 
L 196.261377 206.571529 
L 197.35449 213.785585 
L 198.447603 219.992739 
L 199.540716 224.522553 
L 200.633829 223.683634 
L 201.726942 225.361471 
L 203.913168 238.950415 
L 205.006281 244.319147 
L 206.099394 248.680979 
L 207.192507 256.230502 
L 208.28562 262.270171 
L 209.378733 264.45121 
L 210.471846 265.625349 
L 211.564959 268.309839 
L 213.751185 277.536927 
L 214.844298 281.731099 
L 215.93741 286.596355 
L 217.030523 290.119442 
L 218.123636 292.803733 
L 219.216749 293.810336 
L 220.309862 293.139251 
L 221.402975 292.635949 
L 222.496088 292.300432 
L 223.589201 289.951683 
L 224.682314 288.777321 
L 225.775427 283.744305 
L 226.86854 279.717892 
L 229.054766 263.109089 
L 230.147879 255.559566 
L 231.240992 244.486881 
L 232.334105 238.782681 
L 233.427218 229.2201 
L 234.520331 217.811948 
L 235.613444 209.255771 
L 239.985895 160.603451 
L 242.172121 142.819914 
L 243.265234 141.813509 
L 244.358347 141.645775 
L 245.45146 138.961285 
L 246.544573 134.767188 
L 247.637686 138.961285 
L 248.730799 139.464736 
L 249.823912 141.981244 
L 250.917025 140.639123 
L 252.010138 147.181993 
L 253.103251 155.234719 
L 254.196364 159.764533 
L 255.289477 168.656177 
L 256.38259 170.501501 
L 257.475702 182.580838 
L 259.661928 187.278385 
L 262.941267 202.712901 
L 264.03438 200.867329 
L 265.127493 206.403795 
L 266.220606 216.13411 
L 267.313719 223.5159 
L 268.406832 225.361471 
L 269.499945 224.690287 
L 271.686171 226.703592 
L 272.779284 222.006045 
L 273.872397 220.999392 
L 274.96551 219.489537 
L 276.058623 222.173779 
L 277.151736 227.03906 
L 278.244848 229.891037 
L 279.337961 236.769624 
L 280.431074 240.124802 
L 281.524187 247.003389 
L 282.6173 250.52655 
L 283.710413 253.54626 
L 285.896639 263.94776 
L 286.989752 267.806389 
L 288.082865 270.994081 
L 289.175978 278.879073 
L 290.269091 284.583149 
L 291.362204 287.938476 
L 292.455317 290.119442 
L 293.54843 290.287225 
L 294.641543 288.609562 
L 295.734656 283.744305 
L 296.827769 278.040229 
L 299.013994 262.941107 
L 300.107107 252.371873 
L 302.293333 226.703592 
L 303.386446 219.657271 
L 304.479559 203.048369 
L 305.572672 190.298095 
L 306.665785 182.748572 
L 307.758898 177.547822 
L 308.852011 168.991645 
L 309.945124 142.148978 
L 311.038237 121.849181 
L 314.317576 67.828129 
L 315.410689 63.801766 
L 316.503802 64.976152 
L 317.596915 72.022474 
L 318.690028 82.256239 
L 319.78314 97.187304 
L 320.876253 109.769844 
L 321.969366 114.131923 
L 323.062479 126.378994 
L 324.155592 134.599454 
L 325.248705 134.263986 
L 326.341818 129.734172 
L 327.434931 128.224317 
L 328.528044 128.72752 
L 329.621157 130.069641 
L 330.71427 144.665485 
L 331.807383 156.409106 
L 333.993609 185.600548 
L 335.086722 194.659926 
L 336.179835 208.081384 
L 337.272948 211.940013 
L 338.366061 212.778932 
L 339.459174 216.973029 
L 340.552287 222.844963 
L 341.645399 233.749665 
L 342.738512 238.614947 
L 343.831625 244.486881 
L 344.924738 256.56597 
L 346.017851 264.786678 
L 347.110964 269.316244 
L 348.204077 271.161815 
L 349.29719 273.846057 
L 350.390303 278.207988 
L 351.483416 279.885676 
L 352.576529 279.046832 
L 353.669642 280.221194 
L 354.762755 279.382374 
L 355.855868 281.395581 
L 356.948981 277.201384 
L 358.042094 277.87247 
L 359.135207 277.536927 
L 360.22832 277.87247 
L 361.321433 281.395581 
L 362.414545 283.241003 
L 363.507658 287.099657 
L 364.600771 288.94508 
L 365.693884 291.293828 
L 366.786997 293.307035 
L 367.88011 294.145854 
L 368.973223 295.320241 
L 370.066336 295.488 
L 372.252562 292.132648 
L 373.345675 289.61614 
L 376.625014 272.67167 
L 377.718127 265.961065 
L 378.81124 252.875076 
L 379.904353 246.667921 
L 380.997466 241.466923 
L 382.090579 232.910995 
L 383.183691 226.032408 
L 384.276804 215.798642 
L 385.369917 215.463174 
L 386.46303 209.255771 
L 387.556143 205.732611 
L 388.649256 199.357474 
L 389.742369 194.492192 
L 390.835482 201.203045 
L 391.928595 202.20945 
L 393.021708 198.854272 
L 394.114821 198.518555 
L 395.207934 204.39049 
L 396.301047 207.745916 
L 397.39416 200.364127 
L 398.487273 198.854272 
L 398.487273 198.854272 
" style="fill:none;stroke:#1f77b4;stroke-linecap:square;stroke-width:1.5;"/>
   </g>
   <g id="line2d_14">
    <path clip-path="url(#pefd6f310ee)" d="M 73.832727 282.544517 
L 74.92584 283.29687 
L 76.018953 282.989386 
L 77.112066 283.049205 
L 78.205179 280.616774 
L 79.298292 276.918381 
L 80.391405 274.415033 
L 82.577631 253.523146 
L 83.670744 232.185222 
L 84.763857 206.849616 
L 85.85697 189.941534 
L 86.950083 163.452227 
L 89.136309 122.223969 
L 90.229421 117.22773 
L 91.322534 111.70661 
L 92.415647 86.295274 
L 93.50876 75.864469 
L 94.601873 76.271806 
L 95.694986 72.150462 
L 96.788099 69.148565 
L 97.881212 70.777175 
L 98.974325 79.592553 
L 100.067438 91.040698 
L 101.160551 88.37734 
L 102.253664 99.254998 
L 103.346777 112.612004 
L 104.43989 120.054752 
L 105.533003 133.539001 
L 106.626116 136.346357 
L 107.719229 162.568248 
L 108.812342 173.363738 
L 109.905455 151.21225 
L 110.998567 150.678394 
L 112.09168 159.701118 
L 113.184793 164.296117 
L 114.277906 160.378794 
L 115.371019 163.540659 
L 116.464132 186.978746 
L 117.557245 193.933749 
L 118.650358 198.785506 
L 119.743471 215.111945 
L 120.836584 217.979044 
L 121.929697 217.725858 
L 124.115923 234.926152 
L 125.209036 238.324651 
L 126.302149 240.100431 
L 127.395262 246.037612 
L 128.488375 254.47778 
L 129.581488 258.595665 
L 130.674601 257.055406 
L 131.767713 259.59921 
L 133.953939 266.455519 
L 135.047052 268.37126 
L 136.140165 271.180342 
L 137.233278 276.640945 
L 138.326391 278.870547 
L 139.419504 278.422786 
L 140.512617 277.580434 
L 141.60573 277.771112 
L 144.885069 272.723507 
L 145.978182 266.522065 
L 147.071295 256.73659 
L 148.164408 249.181603 
L 149.257521 245.248568 
L 150.350634 238.280615 
L 151.443747 229.196241 
L 152.53686 226.538984 
L 153.629972 222.413202 
L 154.723085 214.500397 
L 155.816198 202.350128 
L 156.909311 194.626022 
L 158.002424 192.496146 
L 159.095537 190.966688 
L 160.18865 193.438368 
L 161.281763 187.068947 
L 162.374876 163.968926 
L 163.467989 132.030076 
L 165.654215 104.384085 
L 166.747328 95.336417 
L 167.840441 84.49837 
L 168.933554 86.446262 
L 170.026667 98.860896 
L 171.11978 91.78579 
L 172.212893 90.317672 
L 173.306006 93.70178 
L 175.492231 121.86581 
L 176.585344 131.748435 
L 177.678457 151.331377 
L 179.864683 172.121053 
L 180.957796 175.825618 
L 182.050909 177.983115 
L 183.144022 182.038772 
L 184.237135 191.637553 
L 185.330248 187.431345 
L 186.423361 186.221435 
L 187.516474 188.071837 
L 188.609587 191.145301 
L 189.7027 193.697604 
L 190.795813 191.696263 
L 191.888926 200.491189 
L 192.982039 197.704577 
L 194.075152 200.518569 
L 195.168264 206.067613 
L 196.261377 205.375522 
L 198.447603 219.566712 
L 199.540716 224.330611 
L 200.633829 224.994353 
L 201.726942 222.939826 
L 202.820055 230.279404 
L 205.006281 242.40503 
L 206.099394 246.963486 
L 207.192507 252.330298 
L 208.28562 259.361816 
L 209.378733 263.969102 
L 210.471846 264.794622 
L 211.564959 266.456953 
L 214.844298 277.688654 
L 215.93741 280.545454 
L 217.030523 283.808488 
L 218.123636 285.773588 
L 219.216749 286.917328 
L 220.309862 287.337248 
L 221.402975 287.007803 
L 222.496088 286.975121 
L 224.682314 285.344241 
L 225.775427 283.600397 
L 226.86854 280.659261 
L 227.961653 276.294402 
L 230.147879 260.165307 
L 231.240992 249.864706 
L 233.427218 232.707252 
L 235.613444 208.513146 
L 236.706556 199.767867 
L 238.892782 172.129753 
L 241.079008 148.965853 
L 242.172121 141.983704 
L 243.265234 139.331811 
L 244.358347 140.689656 
L 245.45146 141.22736 
L 246.544573 133.313094 
L 247.637686 136.160016 
L 248.730799 142.355573 
L 249.823912 139.819051 
L 250.917025 143.52249 
L 252.010138 142.600714 
L 253.103251 155.466686 
L 254.196364 160.868586 
L 255.289477 169.039955 
L 256.38259 172.687291 
L 257.475702 179.531893 
L 258.568815 190.015341 
L 259.661928 186.780169 
L 261.848154 196.856524 
L 262.941267 204.400242 
L 264.03438 201.834275 
L 265.127493 203.405938 
L 266.220606 216.191943 
L 267.313719 222.907729 
L 268.406832 225.460004 
L 269.499945 224.419337 
L 270.593058 225.461531 
L 271.686171 227.497483 
L 272.779284 222.743376 
L 273.872397 219.954555 
L 274.96551 219.337641 
L 276.058623 221.425674 
L 277.151736 225.842406 
L 278.244848 228.428844 
L 279.337961 234.874379 
L 280.431074 239.05492 
L 282.6173 249.546651 
L 283.710413 251.736551 
L 284.803526 256.018444 
L 286.989752 266.17465 
L 288.082865 268.669377 
L 289.175978 272.870489 
L 290.269091 279.047631 
L 291.362204 282.102697 
L 292.455317 284.402232 
L 293.54843 285.385889 
L 294.641543 285.533492 
L 295.734656 283.39203 
L 296.827769 280.526515 
L 297.920882 274.790601 
L 299.013994 267.955668 
L 300.107107 259.034566 
L 302.293333 230.215247 
L 303.386446 218.328574 
L 304.479559 210.135368 
L 305.572672 187.845062 
L 306.665785 178.884129 
L 307.758898 179.804287 
L 308.852011 170.46638 
L 309.945124 148.474514 
L 311.038237 116.486995 
L 312.13135 108.723215 
L 313.224463 92.526474 
L 314.317576 78.51127 
L 315.410689 74.539494 
L 316.503802 74.742358 
L 317.596915 76.57477 
L 318.690028 83.869864 
L 319.78314 93.987498 
L 320.876253 108.24945 
L 321.969366 115.861249 
L 323.062479 120.408139 
L 324.155592 139.084795 
L 325.248705 133.500561 
L 326.341818 132.077694 
L 327.434931 126.152509 
L 328.528044 127.564793 
L 329.621157 128.656021 
L 330.71427 139.369589 
L 331.807383 159.860698 
L 332.900496 169.869378 
L 333.993609 188.153844 
L 335.086722 195.566575 
L 336.179835 207.088181 
L 337.272948 214.866474 
L 338.366061 213.107587 
L 339.459174 215.615871 
L 340.552287 221.291374 
L 341.645399 229.738023 
L 342.738512 239.110764 
L 343.831625 241.766226 
L 344.924738 250.170432 
L 346.017851 261.185874 
L 347.110964 266.402716 
L 348.204077 269.957613 
L 349.29719 271.335935 
L 350.390303 274.807906 
L 351.483416 277.464792 
L 352.576529 278.097176 
L 353.669642 278.150579 
L 354.762755 278.073592 
L 355.855868 279.143524 
L 356.948981 278.044846 
L 358.042094 276.580003 
L 359.135207 276.452834 
L 360.22832 276.763036 
L 362.414545 279.470463 
L 363.507658 281.921898 
L 364.600771 283.675718 
L 366.786997 286.391998 
L 368.973223 287.958106 
L 371.159449 288.128696 
L 372.252562 287.331516 
L 373.345675 286.120507 
L 374.438788 284.361071 
L 376.625014 276.304935 
L 377.718127 270.364961 
L 379.904353 249.820592 
L 380.997466 243.770031 
L 382.090579 236.106275 
L 383.183691 227.375589 
L 384.276804 216.842877 
L 385.369917 214.759112 
L 386.46303 210.474769 
L 387.556143 205.479289 
L 388.649256 201.815366 
L 389.742369 190.901891 
L 390.835482 199.211724 
L 391.928595 204.112883 
L 393.021708 199.820017 
L 394.114821 197.119986 
L 396.301047 210.538671 
L 397.39416 201.032102 
L 398.487273 199.346903 
L 398.487273 199.346903 
" style="fill:none;stroke:#ff7f0e;stroke-linecap:square;stroke-width:1.5;"/>
   </g>
   <g id="line2d_15">
    <path clip-path="url(#pefd6f310ee)" d="M 73.832727 285.005312 
L 74.92584 285.842663 
L 76.018953 285.389652 
L 77.112066 285.548302 
L 78.205179 282.724815 
L 79.298292 278.989078 
L 80.391405 276.23274 
L 82.577631 257.768322 
L 83.670744 243.317092 
L 84.763857 219.14922 
L 85.85697 201.053943 
L 89.136309 126.367622 
L 90.229421 120.05215 
L 91.322534 112.970421 
L 92.415647 97.629635 
L 93.50876 85.722996 
L 94.601873 86.353667 
L 95.694986 85.201501 
L 96.788099 81.506112 
L 97.881212 83.408 
L 98.974325 91.128964 
L 100.067438 102.673343 
L 101.160551 97.529225 
L 102.253664 102.080809 
L 103.346777 118.220274 
L 104.43989 121.099301 
L 105.533003 134.517215 
L 106.626116 137.148747 
L 107.719229 165.964819 
L 108.812342 177.407409 
L 109.905455 155.626793 
L 110.998567 154.388212 
L 112.09168 161.461808 
L 113.184793 166.054807 
L 114.277906 162.100132 
L 115.371019 165.843407 
L 116.464132 190.453148 
L 117.557245 197.093156 
L 118.650358 200.397387 
L 119.743471 216.688648 
L 120.836584 222.459203 
L 121.929697 220.574202 
L 123.02281 228.84673 
L 124.115923 238.58143 
L 125.209036 243.499688 
L 126.302149 244.592894 
L 127.395262 248.925297 
L 128.488375 257.54278 
L 129.581488 261.193541 
L 130.674601 260.89622 
L 131.767713 261.13548 
L 133.953939 268.008953 
L 135.047052 269.826164 
L 136.140165 273.0515 
L 137.233278 279.360052 
L 138.326391 281.072586 
L 140.512617 279.633841 
L 141.60573 279.791763 
L 142.698843 277.904963 
L 143.791956 276.247663 
L 144.885069 274.386032 
L 145.978182 268.61048 
L 147.071295 260.546673 
L 148.164408 253.37754 
L 149.257521 250.274079 
L 150.350634 244.851618 
L 151.443747 236.293444 
L 153.629972 227.833623 
L 154.723085 220.905095 
L 155.816198 210.9086 
L 156.909311 198.611002 
L 158.002424 193.991377 
L 159.095537 191.645887 
L 160.18865 194.35339 
L 161.281763 188.241252 
L 162.374876 172.015813 
L 163.467989 141.370942 
L 164.561102 120.790246 
L 165.654215 107.33368 
L 167.840441 93.971998 
L 168.933554 91.368225 
L 170.026667 106.211339 
L 171.11978 99.762528 
L 172.212893 96.411623 
L 173.306006 99.127434 
L 174.399118 109.853003 
L 175.492231 125.9251 
L 176.585344 132.479819 
L 177.678457 154.268051 
L 178.77157 165.854234 
L 179.864683 174.154887 
L 180.957796 177.491825 
L 182.050909 180.138483 
L 183.144022 183.8338 
L 184.237135 193.433316 
L 185.330248 188.361957 
L 186.423361 187.263903 
L 187.516474 189.069132 
L 188.609587 192.20866 
L 189.7027 194.732226 
L 190.795813 192.401824 
L 191.888926 201.756569 
L 192.982039 199.008818 
L 194.075152 201.214289 
L 195.168264 207.413332 
L 196.261377 208.543883 
L 197.35449 213.957983 
L 198.447603 222.224422 
L 199.540716 227.783913 
L 200.633829 229.949125 
L 201.726942 227.598585 
L 202.820055 232.760533 
L 203.913168 240.69458 
L 205.006281 246.565171 
L 207.192507 255.252141 
L 208.28562 261.618779 
L 209.378733 265.697615 
L 210.471846 266.288366 
L 211.564959 267.832197 
L 213.751185 276.083456 
L 214.844298 280.159252 
L 215.93741 283.124498 
L 217.030523 286.687716 
L 218.123636 288.639184 
L 219.216749 289.744175 
L 220.309862 290.113967 
L 221.402975 289.713337 
L 222.496088 289.752608 
L 223.589201 288.752137 
L 224.682314 287.950412 
L 225.775427 285.940543 
L 226.86854 282.889834 
L 227.961653 278.296568 
L 230.147879 262.862993 
L 231.240992 255.397456 
L 232.334105 246.608688 
L 233.427218 240.212953 
L 234.520331 228.911759 
L 235.613444 215.996504 
L 236.706556 206.249313 
L 237.799669 192.69349 
L 239.985895 162.190048 
L 241.079008 150.441525 
L 242.172121 143.012761 
L 243.265234 141.655812 
L 244.358347 141.682489 
L 245.45146 142.225102 
L 246.544573 133.902905 
L 247.637686 138.319012 
L 248.730799 143.446834 
L 249.823912 140.795859 
L 250.917025 144.640839 
L 252.010138 144.396123 
L 253.103251 157.230601 
L 254.196364 162.948453 
L 255.289477 171.219662 
L 256.38259 175.379123 
L 257.475702 182.170237 
L 258.568815 192.651093 
L 259.661928 187.75269 
L 260.755041 193.258072 
L 261.848154 197.828683 
L 262.941267 205.605008 
L 264.03438 204.999758 
L 265.127493 204.554578 
L 266.220606 217.987962 
L 267.313719 226.227069 
L 268.406832 230.312845 
L 269.499945 229.535745 
L 270.593058 229.349222 
L 271.686171 231.383916 
L 272.779284 229.433104 
L 273.872397 224.374015 
L 274.96551 223.821233 
L 276.058623 224.137722 
L 277.151736 228.96627 
L 278.244848 233.181446 
L 279.337961 237.876856 
L 280.431074 243.894425 
L 281.524187 247.662181 
L 282.6173 253.441442 
L 283.710413 255.479342 
L 284.803526 258.545484 
L 285.896639 262.830882 
L 286.989752 268.022736 
L 288.082865 270.197117 
L 289.175978 275.109827 
L 290.269091 281.959041 
L 291.362204 284.735371 
L 292.455317 287.18435 
L 293.54843 288.08684 
L 294.641543 288.189811 
L 295.734656 285.680749 
L 296.827769 282.745664 
L 297.920882 276.795761 
L 300.107107 262.298508 
L 301.20022 251.835935 
L 303.386446 225.952404 
L 304.479559 217.511256 
L 305.572672 198.976515 
L 306.665785 183.741889 
L 307.758898 181.405732 
L 308.852011 171.580881 
L 309.945124 154.823788 
L 311.038237 123.945829 
L 312.13135 110.673777 
L 314.317576 89.41728 
L 315.410689 84.773704 
L 316.503802 86.060043 
L 317.596915 87.996026 
L 318.690028 93.891405 
L 319.78314 101.762651 
L 320.876253 114.270945 
L 321.969366 119.497811 
L 323.062479 121.028535 
L 324.155592 140.33642 
L 325.248705 135.665886 
L 326.341818 132.671941 
L 327.434931 127.059013 
L 328.528044 128.317186 
L 329.621157 129.176858 
L 330.71427 142.172407 
L 331.807383 162.016727 
L 332.900496 171.898478 
L 333.993609 190.562275 
L 335.086722 198.004083 
L 336.179835 208.953811 
L 337.272948 218.447745 
L 338.366061 216.390038 
L 339.459174 217.5301 
L 340.552287 223.918077 
L 341.645399 232.367895 
L 342.738512 243.428811 
L 343.831625 246.064637 
L 344.924738 252.845317 
L 346.017851 263.827088 
L 347.110964 268.222078 
L 348.204077 271.624113 
L 349.29719 272.929841 
L 350.390303 277.048258 
L 351.483416 279.706388 
L 352.576529 280.124908 
L 353.669642 280.265868 
L 354.762755 280.064418 
L 355.855868 281.511822 
L 356.948981 279.947863 
L 358.042094 278.600176 
L 359.135207 278.365055 
L 360.22832 278.762883 
L 361.321433 280.408642 
L 362.414545 281.7228 
L 363.507658 284.619843 
L 364.600771 286.352369 
L 366.786997 289.25435 
L 368.973223 290.859673 
L 370.066336 290.83483 
L 371.159449 290.923133 
L 372.252562 290.015325 
L 373.345675 288.701929 
L 374.438788 286.784886 
L 376.625014 278.328791 
L 377.718127 272.157843 
L 378.81124 263.81024 
L 379.904353 253.996288 
L 380.997466 249.058015 
L 382.090579 243.196032 
L 385.369917 217.331565 
L 386.46303 215.943541 
L 387.556143 209.022959 
L 388.649256 204.960487 
L 389.742369 196.281584 
L 390.835482 201.736295 
L 391.928595 206.163185 
L 394.114821 198.028242 
L 395.207934 205.735705 
L 396.301047 211.683655 
L 397.39416 206.865336 
L 398.487273 200.887049 
L 398.487273 200.887049 
" style="fill:none;stroke:#2ca02c;stroke-linecap:square;stroke-width:1.5;"/>
   </g>
   <g id="line2d_16">
    <path clip-path="url(#pefd6f310ee)" d="M 73.832727 277.38234 
L 74.92584 277.804319 
L 76.018953 277.790642 
L 77.112066 277.632151 
L 78.205179 276.58085 
L 79.298292 273.633706 
L 80.391405 271.989256 
L 82.577631 251.201997 
L 84.763857 203.289243 
L 85.85697 187.494048 
L 88.043196 133.822944 
L 89.136309 114.478533 
L 90.229421 108.786696 
L 91.322534 108.970105 
L 92.415647 81.636025 
L 93.50876 71.240622 
L 94.601873 71.501746 
L 95.694986 66.053993 
L 96.788099 63.607202 
L 97.881212 64.73201 
L 98.974325 73.826175 
L 100.067438 85.136795 
L 101.160551 83.228213 
L 102.253664 94.920578 
L 103.346777 108.967387 
L 104.43989 117.531197 
L 105.533003 128.492814 
L 106.626116 131.710464 
L 108.812342 167.118819 
L 109.905455 147.216151 
L 110.998567 139.906497 
L 112.09168 151.544273 
L 113.184793 157.907935 
L 114.277906 155.750368 
L 115.371019 155.11973 
L 116.464132 175.127738 
L 117.557245 189.936837 
L 118.650358 194.08253 
L 119.743471 209.968533 
L 120.836584 216.178992 
L 121.929697 216.519997 
L 124.115923 233.595769 
L 125.209036 236.849749 
L 126.302149 238.929032 
L 127.395262 244.449522 
L 128.488375 253.400492 
L 129.581488 257.941652 
L 130.674601 255.834773 
L 131.767713 258.711944 
L 133.953939 265.655806 
L 136.140165 269.120068 
L 137.233278 272.39862 
L 138.326391 274.855157 
L 139.419504 274.808301 
L 140.512617 273.933933 
L 141.60573 274.100169 
L 142.698843 273.180185 
L 143.791956 271.878655 
L 144.885069 271.000125 
L 145.978182 265.449146 
L 147.071295 254.610929 
L 148.164408 247.807028 
L 149.257521 243.796142 
L 150.350634 236.231779 
L 151.443747 227.16525 
L 152.53686 224.992939 
L 153.629972 220.835784 
L 154.723085 212.439341 
L 155.816198 199.015224 
L 156.909311 191.465246 
L 158.002424 191.270666 
L 159.095537 189.306108 
L 160.18865 190.993185 
L 161.281763 185.7984 
L 162.374876 160.814196 
L 163.467989 125.782425 
L 164.561102 109.84299 
L 165.654215 97.557531 
L 166.747328 91.867674 
L 167.840441 80.207864 
L 168.933554 81.208522 
L 170.026667 94.538051 
L 171.11978 87.057913 
L 172.212893 86.53849 
L 173.306006 89.952398 
L 175.492231 118.591303 
L 176.585344 127.428594 
L 177.678457 141.013953 
L 178.77157 156.311292 
L 179.864683 163.205789 
L 180.957796 169.387964 
L 182.050909 173.80516 
L 183.144022 175.654308 
L 184.237135 187.083062 
L 185.330248 185.362554 
L 186.423361 184.224808 
L 187.516474 184.68839 
L 188.609587 187.760854 
L 189.7027 191.780229 
L 190.795813 190.236374 
L 191.888926 197.034781 
L 192.982039 196.521114 
L 194.075152 199.566724 
L 195.168264 203.892838 
L 196.261377 203.473928 
L 197.35449 210.500624 
L 198.447603 218.562964 
L 199.540716 223.218824 
L 200.633829 223.416592 
L 201.726942 221.532325 
L 203.913168 235.44506 
L 205.006281 241.286192 
L 206.099394 245.948523 
L 207.192507 251.278049 
L 208.28562 258.389346 
L 209.378733 263.276237 
L 211.564959 265.818962 
L 212.658072 268.217928 
L 214.844298 273.531107 
L 217.030523 277.821681 
L 218.123636 279.464335 
L 219.216749 280.416056 
L 220.309862 280.822037 
L 223.589201 280.122514 
L 224.682314 279.368329 
L 225.775427 278.423363 
L 226.86854 276.299198 
L 227.961653 273.584473 
L 229.054766 267.206517 
L 230.147879 258.719564 
L 231.240992 247.268936 
L 232.334105 239.373479 
L 233.427218 230.210996 
L 235.613444 206.414082 
L 236.706556 197.761691 
L 239.985895 153.867534 
L 241.079008 141.917228 
L 242.172121 135.448005 
L 243.265234 130.988675 
L 244.358347 134.670561 
L 245.45146 135.193007 
L 246.544573 128.850025 
L 247.637686 128.536038 
L 248.730799 136.263798 
L 249.823912 134.056144 
L 250.917025 137.378465 
L 252.010138 135.393507 
L 253.103251 147.146451 
L 254.196364 154.472221 
L 255.289477 160.125306 
L 256.38259 168.052036 
L 257.475702 171.047736 
L 258.568815 185.393478 
L 259.661928 184.126904 
L 260.755041 188.034195 
L 261.848154 194.275033 
L 262.941267 201.319001 
L 264.03438 199.679048 
L 265.127493 201.676533 
L 266.220606 212.97497 
L 267.313719 221.794769 
L 268.406832 223.915557 
L 269.499945 222.820277 
L 270.593058 224.120851 
L 271.686171 226.189516 
L 272.779284 220.381211 
L 273.872397 218.436381 
L 274.96551 217.918524 
L 276.058623 219.855798 
L 277.151736 224.519361 
L 278.244848 227.048185 
L 279.337961 233.228823 
L 280.431074 237.753795 
L 282.6173 248.549339 
L 283.710413 250.843548 
L 284.803526 255.242836 
L 286.989752 264.973976 
L 289.175978 270.030991 
L 290.269091 274.065871 
L 291.362204 276.872305 
L 292.455317 278.42127 
L 293.54843 279.333523 
L 294.641543 279.475951 
L 295.734656 278.403073 
L 296.827769 276.190462 
L 297.920882 272.59037 
L 299.013994 267.070793 
L 300.107107 257.208433 
L 301.20022 241.222498 
L 302.293333 227.244671 
L 303.386446 216.122313 
L 304.479559 207.42666 
L 305.572672 185.363375 
L 306.665785 175.361846 
L 307.758898 174.643803 
L 308.852011 167.005126 
L 309.945124 145.008073 
L 311.038237 108.618436 
L 312.13135 101.916308 
L 314.317576 74.168821 
L 315.410689 69.979218 
L 316.503802 69.339009 
L 317.596915 70.934319 
L 318.690028 78.603542 
L 319.78314 89.440081 
L 320.876253 104.540528 
L 321.969366 112.684334 
L 323.062479 117.14783 
L 324.155592 132.788845 
L 325.248705 130.539159 
L 326.341818 127.431682 
L 327.434931 121.109641 
L 329.621157 124.223303 
L 330.71427 130.561177 
L 331.807383 150.768684 
L 332.900496 161.092872 
L 333.993609 178.372598 
L 335.086722 190.869696 
L 337.272948 213.131542 
L 338.366061 211.765711 
L 339.459174 214.384148 
L 340.552287 220.138744 
L 341.645399 228.074082 
L 342.738512 237.909253 
L 343.831625 240.579431 
L 344.924738 248.526631 
L 346.017851 259.384728 
L 347.110964 265.442368 
L 348.204077 268.462037 
L 349.29719 269.650754 
L 350.390303 271.471226 
L 351.483416 273.634379 
L 352.576529 274.426465 
L 353.669642 274.292989 
L 354.762755 274.426713 
L 355.855868 274.692198 
L 356.948981 274.757542 
L 358.042094 273.22269 
L 359.135207 273.206666 
L 360.22832 273.318345 
L 361.321433 273.964058 
L 363.507658 276.513709 
L 364.600771 278.000597 
L 366.786997 279.926523 
L 367.88011 280.643934 
L 368.973223 281.147275 
L 370.066336 281.430957 
L 371.159449 281.425334 
L 372.252562 280.92264 
L 373.345675 280.073042 
L 374.438788 278.86827 
L 375.531901 276.232498 
L 376.625014 273.269904 
L 377.718127 269.401802 
L 378.81124 257.283489 
L 379.904353 248.136377 
L 380.997466 242.231092 
L 383.183691 225.401279 
L 384.276804 213.912736 
L 385.369917 212.112379 
L 388.649256 200.527941 
L 389.742369 189.180789 
L 390.835482 194.665891 
L 391.928595 202.590344 
L 393.021708 198.206897 
L 394.114821 196.018487 
L 395.207934 201.207792 
L 396.301047 209.352613 
L 397.39416 197.606084 
L 398.487273 196.869807 
L 398.487273 196.869807 
" style="fill:none;stroke:#d62728;stroke-linecap:square;stroke-width:1.5;"/>
   </g>
   <g id="patch_3">
    <path d="M 57.6 307.584 
L 57.6 41.472 
" style="fill:none;stroke:#000000;stroke-linecap:square;stroke-linejoin:miter;stroke-width:0.8;"/>
   </g>
   <g id="patch_4">
    <path d="M 414.72 307.584 
L 414.72 41.472 
" style="fill:none;stroke:#000000;stroke-linecap:square;stroke-linejoin:miter;stroke-width:0.8;"/>
   </g>
   <g id="patch_5">
    <path d="M 57.6 307.584 
L 414.72 307.584 
" style="fill:none;stroke:#000000;stroke-linecap:square;stroke-linejoin:miter;stroke-width:0.8;"/>
   </g>
   <g id="patch_6">
    <path d="M 57.6 41.472 
L 414.72 41.472 
" style="fill:none;stroke:#000000;stroke-linecap:square;stroke-linejoin:miter;stroke-width:0.8;"/>
   </g>
   <g id="text_13">
    <!-- Plot of Train Data vs MCMC Uncertainty  -->
    <defs>
     <path d="M 19.671875 64.796875 
L 19.671875 37.40625 
L 32.078125 37.40625 
Q 38.96875 37.40625 42.71875 40.96875 
Q 46.484375 44.53125 46.484375 51.125 
Q 46.484375 57.671875 42.71875 61.234375 
Q 38.96875 64.796875 32.078125 64.796875 
z
M 9.8125 72.90625 
L 32.078125 72.90625 
Q 44.34375 72.90625 50.609375 67.359375 
Q 56.890625 61.8125 56.890625 51.125 
Q 56.890625 40.328125 50.609375 34.8125 
Q 44.34375 29.296875 32.078125 29.296875 
L 19.671875 29.296875 
L 19.671875 0 
L 9.8125 0 
z
" id="DejaVuSans-80"/>
     <path d="M 9.421875 75.984375 
L 18.40625 75.984375 
L 18.40625 0 
L 9.421875 0 
z
" id="DejaVuSans-108"/>
     <path d="M 30.609375 48.390625 
Q 23.390625 48.390625 19.1875 42.75 
Q 14.984375 37.109375 14.984375 27.296875 
Q 14.984375 17.484375 19.15625 11.84375 
Q 23.34375 6.203125 30.609375 6.203125 
Q 37.796875 6.203125 41.984375 11.859375 
Q 46.1875 17.53125 46.1875 27.296875 
Q 46.1875 37.015625 41.984375 42.703125 
Q 37.796875 48.390625 30.609375 48.390625 
z
M 30.609375 56 
Q 42.328125 56 49.015625 48.375 
Q 55.71875 40.765625 55.71875 27.296875 
Q 55.71875 13.875 49.015625 6.21875 
Q 42.328125 -1.421875 30.609375 -1.421875 
Q 18.84375 -1.421875 12.171875 6.21875 
Q 5.515625 13.875 5.515625 27.296875 
Q 5.515625 40.765625 12.171875 48.375 
Q 18.84375 56 30.609375 56 
z
" id="DejaVuSans-111"/>
     <path d="M 18.3125 70.21875 
L 18.3125 54.6875 
L 36.8125 54.6875 
L 36.8125 47.703125 
L 18.3125 47.703125 
L 18.3125 18.015625 
Q 18.3125 11.328125 20.140625 9.421875 
Q 21.96875 7.515625 27.59375 7.515625 
L 36.8125 7.515625 
L 36.8125 0 
L 27.59375 0 
Q 17.1875 0 13.234375 3.875 
Q 9.28125 7.765625 9.28125 18.015625 
L 9.28125 47.703125 
L 2.6875 47.703125 
L 2.6875 54.6875 
L 9.28125 54.6875 
L 9.28125 70.21875 
z
" id="DejaVuSans-116"/>
     <path id="DejaVuSans-32"/>
     <path d="M 37.109375 75.984375 
L 37.109375 68.5 
L 28.515625 68.5 
Q 23.6875 68.5 21.796875 66.546875 
Q 19.921875 64.59375 19.921875 59.515625 
L 19.921875 54.6875 
L 34.71875 54.6875 
L 34.71875 47.703125 
L 19.921875 47.703125 
L 19.921875 0 
L 10.890625 0 
L 10.890625 47.703125 
L 2.296875 47.703125 
L 2.296875 54.6875 
L 10.890625 54.6875 
L 10.890625 58.5 
Q 10.890625 67.625 15.140625 71.796875 
Q 19.390625 75.984375 28.609375 75.984375 
z
" id="DejaVuSans-102"/>
     <path d="M -0.296875 72.90625 
L 61.375 72.90625 
L 61.375 64.59375 
L 35.5 64.59375 
L 35.5 0 
L 25.59375 0 
L 25.59375 64.59375 
L -0.296875 64.59375 
z
" id="DejaVuSans-84"/>
     <path d="M 41.109375 46.296875 
Q 39.59375 47.171875 37.8125 47.578125 
Q 36.03125 48 33.890625 48 
Q 26.265625 48 22.1875 43.046875 
Q 18.109375 38.09375 18.109375 28.8125 
L 18.109375 0 
L 9.078125 0 
L 9.078125 54.6875 
L 18.109375 54.6875 
L 18.109375 46.1875 
Q 20.953125 51.171875 25.484375 53.578125 
Q 30.03125 56 36.53125 56 
Q 37.453125 56 38.578125 55.875 
Q 39.703125 55.765625 41.0625 55.515625 
z
" id="DejaVuSans-114"/>
     <path d="M 34.28125 27.484375 
Q 23.390625 27.484375 19.1875 25 
Q 14.984375 22.515625 14.984375 16.5 
Q 14.984375 11.71875 18.140625 8.90625 
Q 21.296875 6.109375 26.703125 6.109375 
Q 34.1875 6.109375 38.703125 11.40625 
Q 43.21875 16.703125 43.21875 25.484375 
L 43.21875 27.484375 
z
M 52.203125 31.203125 
L 52.203125 0 
L 43.21875 0 
L 43.21875 8.296875 
Q 40.140625 3.328125 35.546875 0.953125 
Q 30.953125 -1.421875 24.3125 -1.421875 
Q 15.921875 -1.421875 10.953125 3.296875 
Q 6 8.015625 6 15.921875 
Q 6 25.140625 12.171875 29.828125 
Q 18.359375 34.515625 30.609375 34.515625 
L 43.21875 34.515625 
L 43.21875 35.40625 
Q 43.21875 41.609375 39.140625 45 
Q 35.0625 48.390625 27.6875 48.390625 
Q 23 48.390625 18.546875 47.265625 
Q 14.109375 46.140625 10.015625 43.890625 
L 10.015625 52.203125 
Q 14.9375 54.109375 19.578125 55.046875 
Q 24.21875 56 28.609375 56 
Q 40.484375 56 46.34375 49.84375 
Q 52.203125 43.703125 52.203125 31.203125 
z
" id="DejaVuSans-97"/>
     <path d="M 9.421875 54.6875 
L 18.40625 54.6875 
L 18.40625 0 
L 9.421875 0 
z
M 9.421875 75.984375 
L 18.40625 75.984375 
L 18.40625 64.59375 
L 9.421875 64.59375 
z
" id="DejaVuSans-105"/>
     <path d="M 54.890625 33.015625 
L 54.890625 0 
L 45.90625 0 
L 45.90625 32.71875 
Q 45.90625 40.484375 42.875 44.328125 
Q 39.84375 48.1875 33.796875 48.1875 
Q 26.515625 48.1875 22.3125 43.546875 
Q 18.109375 38.921875 18.109375 30.90625 
L 18.109375 0 
L 9.078125 0 
L 9.078125 54.6875 
L 18.109375 54.6875 
L 18.109375 46.1875 
Q 21.34375 51.125 25.703125 53.5625 
Q 30.078125 56 35.796875 56 
Q 45.21875 56 50.046875 50.171875 
Q 54.890625 44.34375 54.890625 33.015625 
z
" id="DejaVuSans-110"/>
     <path d="M 19.671875 64.796875 
L 19.671875 8.109375 
L 31.59375 8.109375 
Q 46.6875 8.109375 53.6875 14.9375 
Q 60.6875 21.78125 60.6875 36.53125 
Q 60.6875 51.171875 53.6875 57.984375 
Q 46.6875 64.796875 31.59375 64.796875 
z
M 9.8125 72.90625 
L 30.078125 72.90625 
Q 51.265625 72.90625 61.171875 64.09375 
Q 71.09375 55.28125 71.09375 36.53125 
Q 71.09375 17.671875 61.125 8.828125 
Q 51.171875 0 30.078125 0 
L 9.8125 0 
z
" id="DejaVuSans-68"/>
     <path d="M 2.984375 54.6875 
L 12.5 54.6875 
L 29.59375 8.796875 
L 46.6875 54.6875 
L 56.203125 54.6875 
L 35.6875 0 
L 23.484375 0 
z
" id="DejaVuSans-118"/>
     <path d="M 44.28125 53.078125 
L 44.28125 44.578125 
Q 40.484375 46.53125 36.375 47.5 
Q 32.28125 48.484375 27.875 48.484375 
Q 21.1875 48.484375 17.84375 46.4375 
Q 14.5 44.390625 14.5 40.28125 
Q 14.5 37.15625 16.890625 35.375 
Q 19.28125 33.59375 26.515625 31.984375 
L 29.59375 31.296875 
Q 39.15625 29.25 43.1875 25.515625 
Q 47.21875 21.78125 47.21875 15.09375 
Q 47.21875 7.46875 41.1875 3.015625 
Q 35.15625 -1.421875 24.609375 -1.421875 
Q 20.21875 -1.421875 15.453125 -0.5625 
Q 10.6875 0.296875 5.421875 2 
L 5.421875 11.28125 
Q 10.40625 8.6875 15.234375 7.390625 
Q 20.0625 6.109375 24.8125 6.109375 
Q 31.15625 6.109375 34.5625 8.28125 
Q 37.984375 10.453125 37.984375 14.40625 
Q 37.984375 18.0625 35.515625 20.015625 
Q 33.0625 21.96875 24.703125 23.78125 
L 21.578125 24.515625 
Q 13.234375 26.265625 9.515625 29.90625 
Q 5.8125 33.546875 5.8125 39.890625 
Q 5.8125 47.609375 11.28125 51.796875 
Q 16.75 56 26.8125 56 
Q 31.78125 56 36.171875 55.265625 
Q 40.578125 54.546875 44.28125 53.078125 
z
" id="DejaVuSans-115"/>
     <path d="M 9.8125 72.90625 
L 24.515625 72.90625 
L 43.109375 23.296875 
L 61.8125 72.90625 
L 76.515625 72.90625 
L 76.515625 0 
L 66.890625 0 
L 66.890625 64.015625 
L 48.09375 14.015625 
L 38.1875 14.015625 
L 19.390625 64.015625 
L 19.390625 0 
L 9.8125 0 
z
" id="DejaVuSans-77"/>
     <path d="M 64.40625 67.28125 
L 64.40625 56.890625 
Q 59.421875 61.53125 53.78125 63.8125 
Q 48.140625 66.109375 41.796875 66.109375 
Q 29.296875 66.109375 22.65625 58.46875 
Q 16.015625 50.828125 16.015625 36.375 
Q 16.015625 21.96875 22.65625 14.328125 
Q 29.296875 6.6875 41.796875 6.6875 
Q 48.140625 6.6875 53.78125 8.984375 
Q 59.421875 11.28125 64.40625 15.921875 
L 64.40625 5.609375 
Q 59.234375 2.09375 53.4375 0.328125 
Q 47.65625 -1.421875 41.21875 -1.421875 
Q 24.65625 -1.421875 15.125 8.703125 
Q 5.609375 18.84375 5.609375 36.375 
Q 5.609375 53.953125 15.125 64.078125 
Q 24.65625 74.21875 41.21875 74.21875 
Q 47.75 74.21875 53.53125 72.484375 
Q 59.328125 70.75 64.40625 67.28125 
z
" id="DejaVuSans-67"/>
     <path d="M 8.6875 72.90625 
L 18.609375 72.90625 
L 18.609375 28.609375 
Q 18.609375 16.890625 22.84375 11.734375 
Q 27.09375 6.59375 36.625 6.59375 
Q 46.09375 6.59375 50.34375 11.734375 
Q 54.59375 16.890625 54.59375 28.609375 
L 54.59375 72.90625 
L 64.5 72.90625 
L 64.5 27.390625 
Q 64.5 13.140625 57.4375 5.859375 
Q 50.390625 -1.421875 36.625 -1.421875 
Q 22.796875 -1.421875 15.734375 5.859375 
Q 8.6875 13.140625 8.6875 27.390625 
z
" id="DejaVuSans-85"/>
     <path d="M 48.78125 52.59375 
L 48.78125 44.1875 
Q 44.96875 46.296875 41.140625 47.34375 
Q 37.3125 48.390625 33.40625 48.390625 
Q 24.65625 48.390625 19.8125 42.84375 
Q 14.984375 37.3125 14.984375 27.296875 
Q 14.984375 17.28125 19.8125 11.734375 
Q 24.65625 6.203125 33.40625 6.203125 
Q 37.3125 6.203125 41.140625 7.25 
Q 44.96875 8.296875 48.78125 10.40625 
L 48.78125 2.09375 
Q 45.015625 0.34375 40.984375 -0.53125 
Q 36.96875 -1.421875 32.421875 -1.421875 
Q 20.0625 -1.421875 12.78125 6.34375 
Q 5.515625 14.109375 5.515625 27.296875 
Q 5.515625 40.671875 12.859375 48.328125 
Q 20.21875 56 33.015625 56 
Q 37.15625 56 41.109375 55.140625 
Q 45.0625 54.296875 48.78125 52.59375 
z
" id="DejaVuSans-99"/>
     <path d="M 56.203125 29.59375 
L 56.203125 25.203125 
L 14.890625 25.203125 
Q 15.484375 15.921875 20.484375 11.0625 
Q 25.484375 6.203125 34.421875 6.203125 
Q 39.59375 6.203125 44.453125 7.46875 
Q 49.3125 8.734375 54.109375 11.28125 
L 54.109375 2.78125 
Q 49.265625 0.734375 44.1875 -0.34375 
Q 39.109375 -1.421875 33.890625 -1.421875 
Q 20.796875 -1.421875 13.15625 6.1875 
Q 5.515625 13.8125 5.515625 26.8125 
Q 5.515625 40.234375 12.765625 48.109375 
Q 20.015625 56 32.328125 56 
Q 43.359375 56 49.78125 48.890625 
Q 56.203125 41.796875 56.203125 29.59375 
z
M 47.21875 32.234375 
Q 47.125 39.59375 43.09375 43.984375 
Q 39.0625 48.390625 32.421875 48.390625 
Q 24.90625 48.390625 20.390625 44.140625 
Q 15.875 39.890625 15.1875 32.171875 
z
" id="DejaVuSans-101"/>
     <path d="M 32.171875 -5.078125 
Q 28.375 -14.84375 24.75 -17.8125 
Q 21.140625 -20.796875 15.09375 -20.796875 
L 7.90625 -20.796875 
L 7.90625 -13.28125 
L 13.1875 -13.28125 
Q 16.890625 -13.28125 18.9375 -11.515625 
Q 21 -9.765625 23.484375 -3.21875 
L 25.09375 0.875 
L 2.984375 54.6875 
L 12.5 54.6875 
L 29.59375 11.921875 
L 46.6875 54.6875 
L 56.203125 54.6875 
z
" id="DejaVuSans-121"/>
    </defs>
    <g transform="translate(115.666875 35.472)scale(0.12 -0.12)">
     <use xlink:href="#DejaVuSans-80"/>
     <use x="60.302734" xlink:href="#DejaVuSans-108"/>
     <use x="88.085938" xlink:href="#DejaVuSans-111"/>
     <use x="149.267578" xlink:href="#DejaVuSans-116"/>
     <use x="188.476562" xlink:href="#DejaVuSans-32"/>
     <use x="220.263672" xlink:href="#DejaVuSans-111"/>
     <use x="281.445312" xlink:href="#DejaVuSans-102"/>
     <use x="316.650391" xlink:href="#DejaVuSans-32"/>
     <use x="348.4375" xlink:href="#DejaVuSans-84"/>
     <use x="409.302734" xlink:href="#DejaVuSans-114"/>
     <use x="450.416016" xlink:href="#DejaVuSans-97"/>
     <use x="511.695312" xlink:href="#DejaVuSans-105"/>
     <use x="539.478516" xlink:href="#DejaVuSans-110"/>
     <use x="602.857422" xlink:href="#DejaVuSans-32"/>
     <use x="634.644531" xlink:href="#DejaVuSans-68"/>
     <use x="711.646484" xlink:href="#DejaVuSans-97"/>
     <use x="772.925781" xlink:href="#DejaVuSans-116"/>
     <use x="812.134766" xlink:href="#DejaVuSans-97"/>
     <use x="873.414062" xlink:href="#DejaVuSans-32"/>
     <use x="905.201172" xlink:href="#DejaVuSans-118"/>
     <use x="964.380859" xlink:href="#DejaVuSans-115"/>
     <use x="1016.480469" xlink:href="#DejaVuSans-32"/>
     <use x="1048.267578" xlink:href="#DejaVuSans-77"/>
     <use x="1134.546875" xlink:href="#DejaVuSans-67"/>
     <use x="1204.371094" xlink:href="#DejaVuSans-77"/>
     <use x="1290.650391" xlink:href="#DejaVuSans-67"/>
     <use x="1360.474609" xlink:href="#DejaVuSans-32"/>
     <use x="1392.261719" xlink:href="#DejaVuSans-85"/>
     <use x="1465.455078" xlink:href="#DejaVuSans-110"/>
     <use x="1528.833984" xlink:href="#DejaVuSans-99"/>
     <use x="1583.814453" xlink:href="#DejaVuSans-101"/>
     <use x="1645.337891" xlink:href="#DejaVuSans-114"/>
     <use x="1686.451172" xlink:href="#DejaVuSans-116"/>
     <use x="1725.660156" xlink:href="#DejaVuSans-97"/>
     <use x="1786.939453" xlink:href="#DejaVuSans-105"/>
     <use x="1814.722656" xlink:href="#DejaVuSans-110"/>
     <use x="1878.101562" xlink:href="#DejaVuSans-116"/>
     <use x="1917.310547" xlink:href="#DejaVuSans-121"/>
     <use x="1976.490234" xlink:href="#DejaVuSans-32"/>
    </g>
   </g>
   <g id="legend_1">
    <g id="patch_7">
     <path d="M 277.843437 108.1845 
L 407.72 108.1845 
Q 409.72 108.1845 409.72 106.1845 
L 409.72 48.472 
Q 409.72 46.472 407.72 46.472 
L 277.843437 46.472 
Q 275.843437 46.472 275.843437 48.472 
L 275.843437 106.1845 
Q 275.843437 108.1845 277.843437 108.1845 
z
" style="fill:#ffffff;opacity:0.8;stroke:#cccccc;stroke-linejoin:miter;"/>
    </g>
    <g id="line2d_17">
     <path d="M 279.843437 54.570438 
L 299.843437 54.570438 
" style="fill:none;stroke:#1f77b4;stroke-linecap:square;stroke-width:1.5;"/>
    </g>
    <g id="line2d_18"/>
    <g id="text_14">
     <!-- actual -->
     <defs>
      <path d="M 8.5 21.578125 
L 8.5 54.6875 
L 17.484375 54.6875 
L 17.484375 21.921875 
Q 17.484375 14.15625 20.5 10.265625 
Q 23.53125 6.390625 29.59375 6.390625 
Q 36.859375 6.390625 41.078125 11.03125 
Q 45.3125 15.671875 45.3125 23.6875 
L 45.3125 54.6875 
L 54.296875 54.6875 
L 54.296875 0 
L 45.3125 0 
L 45.3125 8.40625 
Q 42.046875 3.421875 37.71875 1 
Q 33.40625 -1.421875 27.6875 -1.421875 
Q 18.265625 -1.421875 13.375 4.4375 
Q 8.5 10.296875 8.5 21.578125 
z
M 31.109375 56 
z
" id="DejaVuSans-117"/>
     </defs>
     <g transform="translate(307.843437 58.070438)scale(0.1 -0.1)">
      <use xlink:href="#DejaVuSans-97"/>
      <use x="61.279297" xlink:href="#DejaVuSans-99"/>
      <use x="116.259766" xlink:href="#DejaVuSans-116"/>
      <use x="155.46875" xlink:href="#DejaVuSans-117"/>
      <use x="218.847656" xlink:href="#DejaVuSans-97"/>
      <use x="280.126953" xlink:href="#DejaVuSans-108"/>
     </g>
    </g>
    <g id="line2d_19">
     <path d="M 279.843437 69.248563 
L 299.843437 69.248563 
" style="fill:none;stroke:#ff7f0e;stroke-linecap:square;stroke-width:1.5;"/>
    </g>
    <g id="line2d_20"/>
    <g id="text_15">
     <!-- pred. (mean) -->
     <defs>
      <path d="M 18.109375 8.203125 
L 18.109375 -20.796875 
L 9.078125 -20.796875 
L 9.078125 54.6875 
L 18.109375 54.6875 
L 18.109375 46.390625 
Q 20.953125 51.265625 25.265625 53.625 
Q 29.59375 56 35.59375 56 
Q 45.5625 56 51.78125 48.09375 
Q 58.015625 40.1875 58.015625 27.296875 
Q 58.015625 14.40625 51.78125 6.484375 
Q 45.5625 -1.421875 35.59375 -1.421875 
Q 29.59375 -1.421875 25.265625 0.953125 
Q 20.953125 3.328125 18.109375 8.203125 
z
M 48.6875 27.296875 
Q 48.6875 37.203125 44.609375 42.84375 
Q 40.53125 48.484375 33.40625 48.484375 
Q 26.265625 48.484375 22.1875 42.84375 
Q 18.109375 37.203125 18.109375 27.296875 
Q 18.109375 17.390625 22.1875 11.75 
Q 26.265625 6.109375 33.40625 6.109375 
Q 40.53125 6.109375 44.609375 11.75 
Q 48.6875 17.390625 48.6875 27.296875 
z
" id="DejaVuSans-112"/>
      <path d="M 45.40625 46.390625 
L 45.40625 75.984375 
L 54.390625 75.984375 
L 54.390625 0 
L 45.40625 0 
L 45.40625 8.203125 
Q 42.578125 3.328125 38.25 0.953125 
Q 33.9375 -1.421875 27.875 -1.421875 
Q 17.96875 -1.421875 11.734375 6.484375 
Q 5.515625 14.40625 5.515625 27.296875 
Q 5.515625 40.1875 11.734375 48.09375 
Q 17.96875 56 27.875 56 
Q 33.9375 56 38.25 53.625 
Q 42.578125 51.265625 45.40625 46.390625 
z
M 14.796875 27.296875 
Q 14.796875 17.390625 18.875 11.75 
Q 22.953125 6.109375 30.078125 6.109375 
Q 37.203125 6.109375 41.296875 11.75 
Q 45.40625 17.390625 45.40625 27.296875 
Q 45.40625 37.203125 41.296875 42.84375 
Q 37.203125 48.484375 30.078125 48.484375 
Q 22.953125 48.484375 18.875 42.84375 
Q 14.796875 37.203125 14.796875 27.296875 
z
" id="DejaVuSans-100"/>
      <path d="M 31 75.875 
Q 24.46875 64.65625 21.28125 53.65625 
Q 18.109375 42.671875 18.109375 31.390625 
Q 18.109375 20.125 21.3125 9.0625 
Q 24.515625 -2 31 -13.1875 
L 23.1875 -13.1875 
Q 15.875 -1.703125 12.234375 9.375 
Q 8.59375 20.453125 8.59375 31.390625 
Q 8.59375 42.28125 12.203125 53.3125 
Q 15.828125 64.359375 23.1875 75.875 
z
" id="DejaVuSans-40"/>
      <path d="M 52 44.1875 
Q 55.375 50.25 60.0625 53.125 
Q 64.75 56 71.09375 56 
Q 79.640625 56 84.28125 50.015625 
Q 88.921875 44.046875 88.921875 33.015625 
L 88.921875 0 
L 79.890625 0 
L 79.890625 32.71875 
Q 79.890625 40.578125 77.09375 44.375 
Q 74.3125 48.1875 68.609375 48.1875 
Q 61.625 48.1875 57.5625 43.546875 
Q 53.515625 38.921875 53.515625 30.90625 
L 53.515625 0 
L 44.484375 0 
L 44.484375 32.71875 
Q 44.484375 40.625 41.703125 44.40625 
Q 38.921875 48.1875 33.109375 48.1875 
Q 26.21875 48.1875 22.15625 43.53125 
Q 18.109375 38.875 18.109375 30.90625 
L 18.109375 0 
L 9.078125 0 
L 9.078125 54.6875 
L 18.109375 54.6875 
L 18.109375 46.1875 
Q 21.1875 51.21875 25.484375 53.609375 
Q 29.78125 56 35.6875 56 
Q 41.65625 56 45.828125 52.96875 
Q 50 49.953125 52 44.1875 
z
" id="DejaVuSans-109"/>
      <path d="M 8.015625 75.875 
L 15.828125 75.875 
Q 23.140625 64.359375 26.78125 53.3125 
Q 30.421875 42.28125 30.421875 31.390625 
Q 30.421875 20.453125 26.78125 9.375 
Q 23.140625 -1.703125 15.828125 -13.1875 
L 8.015625 -13.1875 
Q 14.5 -2 17.703125 9.0625 
Q 20.90625 20.125 20.90625 31.390625 
Q 20.90625 42.671875 17.703125 53.65625 
Q 14.5 64.65625 8.015625 75.875 
z
" id="DejaVuSans-41"/>
     </defs>
     <g transform="translate(307.843437 72.748563)scale(0.1 -0.1)">
      <use xlink:href="#DejaVuSans-112"/>
      <use x="63.476562" xlink:href="#DejaVuSans-114"/>
      <use x="104.558594" xlink:href="#DejaVuSans-101"/>
      <use x="166.082031" xlink:href="#DejaVuSans-100"/>
      <use x="229.558594" xlink:href="#DejaVuSans-46"/>
      <use x="261.345703" xlink:href="#DejaVuSans-32"/>
      <use x="293.132812" xlink:href="#DejaVuSans-40"/>
      <use x="332.146484" xlink:href="#DejaVuSans-109"/>
      <use x="429.558594" xlink:href="#DejaVuSans-101"/>
      <use x="491.082031" xlink:href="#DejaVuSans-97"/>
      <use x="552.361328" xlink:href="#DejaVuSans-110"/>
      <use x="615.740234" xlink:href="#DejaVuSans-41"/>
     </g>
    </g>
    <g id="line2d_21">
     <path d="M 279.843437 83.926688 
L 299.843437 83.926688 
" style="fill:none;stroke:#2ca02c;stroke-linecap:square;stroke-width:1.5;"/>
    </g>
    <g id="line2d_22"/>
    <g id="text_16">
     <!-- pred.(5th percen.) -->
     <defs>
      <path d="M 10.796875 72.90625 
L 49.515625 72.90625 
L 49.515625 64.59375 
L 19.828125 64.59375 
L 19.828125 46.734375 
Q 21.96875 47.46875 24.109375 47.828125 
Q 26.265625 48.1875 28.421875 48.1875 
Q 40.625 48.1875 47.75 41.5 
Q 54.890625 34.8125 54.890625 23.390625 
Q 54.890625 11.625 47.5625 5.09375 
Q 40.234375 -1.421875 26.90625 -1.421875 
Q 22.3125 -1.421875 17.546875 -0.640625 
Q 12.796875 0.140625 7.71875 1.703125 
L 7.71875 11.625 
Q 12.109375 9.234375 16.796875 8.0625 
Q 21.484375 6.890625 26.703125 6.890625 
Q 35.15625 6.890625 40.078125 11.328125 
Q 45.015625 15.765625 45.015625 23.390625 
Q 45.015625 31 40.078125 35.4375 
Q 35.15625 39.890625 26.703125 39.890625 
Q 22.75 39.890625 18.8125 39.015625 
Q 14.890625 38.140625 10.796875 36.28125 
z
" id="DejaVuSans-53"/>
      <path d="M 54.890625 33.015625 
L 54.890625 0 
L 45.90625 0 
L 45.90625 32.71875 
Q 45.90625 40.484375 42.875 44.328125 
Q 39.84375 48.1875 33.796875 48.1875 
Q 26.515625 48.1875 22.3125 43.546875 
Q 18.109375 38.921875 18.109375 30.90625 
L 18.109375 0 
L 9.078125 0 
L 9.078125 75.984375 
L 18.109375 75.984375 
L 18.109375 46.1875 
Q 21.34375 51.125 25.703125 53.5625 
Q 30.078125 56 35.796875 56 
Q 45.21875 56 50.046875 50.171875 
Q 54.890625 44.34375 54.890625 33.015625 
z
" id="DejaVuSans-104"/>
     </defs>
     <g transform="translate(307.843437 87.426688)scale(0.1 -0.1)">
      <use xlink:href="#DejaVuSans-112"/>
      <use x="63.476562" xlink:href="#DejaVuSans-114"/>
      <use x="104.558594" xlink:href="#DejaVuSans-101"/>
      <use x="166.082031" xlink:href="#DejaVuSans-100"/>
      <use x="229.558594" xlink:href="#DejaVuSans-46"/>
      <use x="261.345703" xlink:href="#DejaVuSans-40"/>
      <use x="300.359375" xlink:href="#DejaVuSans-53"/>
      <use x="363.982422" xlink:href="#DejaVuSans-116"/>
      <use x="403.191406" xlink:href="#DejaVuSans-104"/>
      <use x="466.570312" xlink:href="#DejaVuSans-32"/>
      <use x="498.357422" xlink:href="#DejaVuSans-112"/>
      <use x="561.833984" xlink:href="#DejaVuSans-101"/>
      <use x="623.357422" xlink:href="#DejaVuSans-114"/>
      <use x="664.439453" xlink:href="#DejaVuSans-99"/>
      <use x="719.419922" xlink:href="#DejaVuSans-101"/>
      <use x="780.943359" xlink:href="#DejaVuSans-110"/>
      <use x="844.322266" xlink:href="#DejaVuSans-46"/>
      <use x="876.109375" xlink:href="#DejaVuSans-41"/>
     </g>
    </g>
    <g id="line2d_23">
     <path d="M 279.843437 98.604813 
L 299.843437 98.604813 
" style="fill:none;stroke:#d62728;stroke-linecap:square;stroke-width:1.5;"/>
    </g>
    <g id="line2d_24"/>
    <g id="text_17">
     <!-- pred.(95th percen.) -->
     <defs>
      <path d="M 10.984375 1.515625 
L 10.984375 10.5 
Q 14.703125 8.734375 18.5 7.8125 
Q 22.3125 6.890625 25.984375 6.890625 
Q 35.75 6.890625 40.890625 13.453125 
Q 46.046875 20.015625 46.78125 33.40625 
Q 43.953125 29.203125 39.59375 26.953125 
Q 35.25 24.703125 29.984375 24.703125 
Q 19.046875 24.703125 12.671875 31.3125 
Q 6.296875 37.9375 6.296875 49.421875 
Q 6.296875 60.640625 12.9375 67.421875 
Q 19.578125 74.21875 30.609375 74.21875 
Q 43.265625 74.21875 49.921875 64.515625 
Q 56.59375 54.828125 56.59375 36.375 
Q 56.59375 19.140625 48.40625 8.859375 
Q 40.234375 -1.421875 26.421875 -1.421875 
Q 22.703125 -1.421875 18.890625 -0.6875 
Q 15.09375 0.046875 10.984375 1.515625 
z
M 30.609375 32.421875 
Q 37.25 32.421875 41.125 36.953125 
Q 45.015625 41.5 45.015625 49.421875 
Q 45.015625 57.28125 41.125 61.84375 
Q 37.25 66.40625 30.609375 66.40625 
Q 23.96875 66.40625 20.09375 61.84375 
Q 16.21875 57.28125 16.21875 49.421875 
Q 16.21875 41.5 20.09375 36.953125 
Q 23.96875 32.421875 30.609375 32.421875 
z
" id="DejaVuSans-57"/>
     </defs>
     <g transform="translate(307.843437 102.104813)scale(0.1 -0.1)">
      <use xlink:href="#DejaVuSans-112"/>
      <use x="63.476562" xlink:href="#DejaVuSans-114"/>
      <use x="104.558594" xlink:href="#DejaVuSans-101"/>
      <use x="166.082031" xlink:href="#DejaVuSans-100"/>
      <use x="229.558594" xlink:href="#DejaVuSans-46"/>
      <use x="261.345703" xlink:href="#DejaVuSans-40"/>
      <use x="300.359375" xlink:href="#DejaVuSans-57"/>
      <use x="363.982422" xlink:href="#DejaVuSans-53"/>
      <use x="427.605469" xlink:href="#DejaVuSans-116"/>
      <use x="466.814453" xlink:href="#DejaVuSans-104"/>
      <use x="530.193359" xlink:href="#DejaVuSans-32"/>
      <use x="561.980469" xlink:href="#DejaVuSans-112"/>
      <use x="625.457031" xlink:href="#DejaVuSans-101"/>
      <use x="686.980469" xlink:href="#DejaVuSans-114"/>
      <use x="728.0625" xlink:href="#DejaVuSans-99"/>
      <use x="783.042969" xlink:href="#DejaVuSans-101"/>
      <use x="844.566406" xlink:href="#DejaVuSans-110"/>
      <use x="907.945312" xlink:href="#DejaVuSans-46"/>
      <use x="939.732422" xlink:href="#DejaVuSans-41"/>
     </g>
    </g>
   </g>
  </g>
 </g>
 <defs>
  <clipPath id="pefd6f310ee">
   <rect height="266.112" width="357.12" x="57.6" y="41.472"/>
  </clipPath>
 </defs>
</svg>
