<?xml version="1.0" encoding="utf-8" standalone="no"?>
<!DOCTYPE svg PUBLIC "-//W3C//DTD SVG 1.1//EN"
  "http://www.w3.org/Graphics/SVG/1.1/DTD/svg11.dtd">
<!-- Created with matplotlib (https://matplotlib.org/) -->
<svg height="345.6pt" version="1.1" viewBox="0 0 460.8 345.6" width="460.8pt" xmlns="http://www.w3.org/2000/svg" xmlns:xlink="http://www.w3.org/1999/xlink">
 <defs>
  <style type="text/css">
*{stroke-linecap:butt;stroke-linejoin:round;}
  </style>
 </defs>
 <g id="figure_1">
  <g id="patch_1">
   <path d="M 0 345.6 
L 460.8 345.6 
L 460.8 0 
L 0 0 
z
" style="fill:#ffffff;"/>
  </g>
  <g id="axes_1">
   <g id="patch_2">
    <path d="M 57.6 307.584 
L 414.72 307.584 
L 414.72 41.472 
L 57.6 41.472 
z
" style="fill:#ffffff;"/>
   </g>
   <g id="PolyCollection_1">
    <path clip-path="url(#p84daf29d77)" d="M 73.832727 277.535852 
L 73.832727 285.275938 
L 74.92584 285.844694 
L 76.018953 285.096958 
L 77.112066 285.277238 
L 78.205179 281.90292 
L 79.298292 277.524603 
L 80.391405 275.528083 
L 81.484518 263.071372 
L 82.577631 252.333563 
L 83.670744 235.255915 
L 84.763857 209.250623 
L 85.85697 191.857126 
L 86.950083 166.625234 
L 88.043196 146.130111 
L 89.136309 124.56959 
L 90.229421 119.457959 
L 91.322534 112.159289 
L 92.415647 95.544076 
L 93.50876 84.574714 
L 94.601873 84.923486 
L 95.694986 83.485088 
L 96.788099 80.077795 
L 97.881212 81.410054 
L 98.974325 87.181405 
L 100.067438 96.110651 
L 101.160551 95.095716 
L 102.253664 100.029302 
L 103.346777 111.885923 
L 104.43989 119.729239 
L 105.533003 134.334096 
L 106.626116 136.917915 
L 107.719229 165.287729 
L 108.812342 175.478726 
L 109.905455 155.171785 
L 110.998567 155.134187 
L 112.09168 161.467502 
L 113.184793 165.462806 
L 114.277906 161.735107 
L 115.371019 166.174544 
L 116.464132 189.545532 
L 117.557245 196.468749 
L 118.650358 200.127329 
L 119.743471 217.09772 
L 120.836584 223.868968 
L 121.929697 221.514252 
L 123.02281 230.351156 
L 124.115923 240.881641 
L 125.209036 245.436122 
L 126.302149 245.57142 
L 127.395262 250.218337 
L 128.488375 260.107066 
L 129.581488 262.766727 
L 130.674601 260.790989 
L 131.767713 261.529663 
L 132.860826 266.269308 
L 133.953939 269.616436 
L 135.047052 271.057596 
L 136.140165 274.353204 
L 137.233278 281.200813 
L 138.326391 282.301064 
L 139.419504 280.282711 
L 140.512617 279.382799 
L 141.60573 280.006272 
L 142.698843 277.539048 
L 143.791956 275.95249 
L 144.885069 274.102591 
L 145.978182 266.558273 
L 147.071295 256.018026 
L 148.164408 249.482997 
L 149.257521 248.69903 
L 150.350634 242.459561 
L 151.443747 232.769088 
L 152.53686 230.59321 
L 153.629972 226.794469 
L 154.723085 219.011383 
L 155.816198 207.817368 
L 156.909311 196.341092 
L 158.002424 193.013937 
L 159.095537 191.416184 
L 160.18865 194.01331 
L 161.281763 188.075792 
L 162.374876 168.036523 
L 163.467989 136.076915 
L 164.561102 119.910209 
L 165.654215 105.607967 
L 166.747328 99.388505 
L 167.840441 92.48399 
L 168.933554 90.190279 
L 170.026667 101.003123 
L 171.11978 97.861814 
L 172.212893 94.946043 
L 173.306006 97.190311 
L 174.399118 107.94512 
L 175.492231 120.958161 
L 176.585344 132.221181 
L 177.678457 154.127923 
L 178.77157 163.556317 
L 179.864683 173.694433 
L 180.957796 177.448904 
L 182.050909 179.319749 
L 183.144022 183.746695 
L 184.237135 192.495405 
L 185.330248 188.465259 
L 186.423361 186.829315 
L 187.516474 188.827009 
L 188.609587 191.998559 
L 189.7027 194.342205 
L 190.795813 192.289006 
L 191.888926 201.014959 
L 192.982039 199.229306 
L 194.075152 201.09399 
L 195.168264 207.045055 
L 196.261377 209.0919 
L 197.35449 213.579582 
L 198.447603 223.561776 
L 199.540716 229.297808 
L 200.633829 231.244463 
L 201.726942 228.06696 
L 202.820055 233.991755 
L 203.913168 242.720694 
L 205.006281 248.490574 
L 206.099394 252.477226 
L 207.192507 256.683709 
L 208.28562 263.816407 
L 209.378733 267.605348 
L 210.471846 267.155508 
L 211.564959 268.735756 
L 212.658072 273.617957 
L 213.751185 277.772295 
L 214.844298 281.59986 
L 215.93741 284.191069 
L 217.030523 287.508928 
L 218.123636 289.011693 
L 219.216749 289.724933 
L 220.309862 289.74215 
L 221.402975 289.106645 
L 222.496088 289.25378 
L 223.589201 288.094707 
L 224.682314 287.178001 
L 225.775427 285.064509 
L 226.86854 281.556833 
L 227.961653 276.823266 
L 229.054766 267.682806 
L 230.147879 259.449658 
L 231.240992 251.082504 
L 232.334105 241.907264 
L 233.427218 237.252879 
L 234.520331 224.418446 
L 235.613444 211.277782 
L 236.706556 202.796734 
L 237.799669 186.643252 
L 238.892782 173.678066 
L 239.985895 163.029433 
L 241.079008 151.489141 
L 242.172121 143.61642 
L 243.265234 142.123029 
L 244.358347 141.719085 
L 245.45146 142.194887 
L 246.544573 133.978697 
L 247.637686 138.430756 
L 248.730799 143.035134 
L 249.823912 140.931981 
L 250.917025 144.246741 
L 252.010138 144.655053 
L 253.103251 156.736705 
L 254.196364 161.94196 
L 255.289477 171.122996 
L 256.38259 174.259011 
L 257.475702 182.025691 
L 258.568815 191.361544 
L 259.661928 187.800064 
L 260.755041 192.8491 
L 261.848154 197.573369 
L 262.941267 205.21827 
L 264.03438 205.421246 
L 265.127493 204.224135 
L 266.220606 217.764755 
L 267.313719 228.126537 
L 268.406832 231.898709 
L 269.499945 230.519264 
L 270.593058 230.052878 
L 271.686171 232.37132 
L 272.779284 229.821017 
L 273.872397 223.515181 
L 274.96551 224.19946 
L 276.058623 224.838534 
L 277.151736 230.225179 
L 278.244848 234.577133 
L 279.337961 239.333462 
L 280.431074 245.740525 
L 281.524187 249.082966 
L 282.6173 255.214558 
L 283.710413 256.360166 
L 284.803526 259.523685 
L 285.896639 264.441172 
L 286.989752 269.982668 
L 288.082865 271.813793 
L 289.175978 276.706043 
L 290.269091 283.925127 
L 291.362204 285.817287 
L 292.455317 287.601549 
L 293.54843 288.113357 
L 294.641543 287.856283 
L 295.734656 284.741215 
L 296.827769 281.369104 
L 297.920882 274.966187 
L 299.013994 267.510451 
L 300.107107 258.400569 
L 301.20022 245.675162 
L 302.293333 232.044649 
L 303.386446 220.599319 
L 304.479559 214.447255 
L 305.572672 189.863851 
L 306.665785 180.406116 
L 307.758898 181.614827 
L 308.852011 171.911939 
L 309.945124 152.512191 
L 311.038237 119.821769 
L 312.13135 109.4615 
L 313.224463 97.856571 
L 314.317576 87.886032 
L 315.410689 83.5835 
L 316.503802 84.323929 
L 317.596915 85.790825 
L 318.690028 90.487133 
L 319.78314 97.151179 
L 320.876253 107.811683 
L 321.969366 114.97863 
L 323.062479 120.847399 
L 324.155592 139.848992 
L 325.248705 134.352721 
L 326.341818 132.306588 
L 327.434931 126.860918 
L 328.528044 128.08423 
L 329.621157 128.911712 
L 330.71427 142.226628 
L 331.807383 160.972963 
L 332.900496 171.59884 
L 333.993609 189.689303 
L 335.086722 197.575186 
L 336.179835 208.490713 
L 337.272948 219.454395 
L 338.366061 217.332907 
L 339.459174 218.337106 
L 340.552287 225.128369 
L 341.645399 234.240745 
L 342.738512 246.091665 
L 343.831625 247.677624 
L 344.924738 254.902942 
L 346.017851 266.928681 
L 347.110964 270.719874 
L 348.204077 273.240457 
L 349.29719 273.926852 
L 350.390303 278.298337 
L 351.483416 280.923166 
L 352.576529 280.576114 
L 353.669642 280.415173 
L 354.762755 280.250471 
L 355.855868 281.836912 
L 356.948981 279.999474 
L 358.042094 277.989516 
L 359.135207 278.600597 
L 360.22832 279.015789 
L 361.321433 281.093359 
L 362.414545 282.498102 
L 363.507658 285.20181 
L 364.600771 286.889306 
L 365.693884 288.016762 
L 366.786997 289.347164 
L 367.88011 289.856275 
L 368.973223 290.620678 
L 370.066336 290.432707 
L 371.159449 290.344071 
L 372.252562 289.231418 
L 373.345675 287.813611 
L 374.438788 285.698317 
L 375.531901 280.837425 
L 376.625014 276.843792 
L 377.718127 270.501649 
L 378.81124 259.29893 
L 379.904353 248.518972 
L 380.997466 246.456156 
L 382.090579 240.543953 
L 383.183691 230.703215 
L 384.276804 221.676018 
L 385.369917 215.695476 
L 386.46303 215.906391 
L 387.556143 207.389385 
L 388.649256 204.242072 
L 389.742369 193.267809 
L 390.835482 201.183782 
L 391.928595 206.402777 
L 393.021708 202.567086 
L 394.114821 197.696506 
L 395.207934 205.222646 
L 396.301047 212.413982 
L 397.39416 207.205077 
L 398.487273 200.53451 
L 398.487273 197.00775 
L 398.487273 197.00775 
L 397.39416 197.575129 
L 396.301047 209.735515 
L 395.207934 202.162014 
L 394.114821 195.932481 
L 393.021708 198.04839 
L 391.928595 202.191146 
L 390.835482 195.374039 
L 389.742369 189.592802 
L 388.649256 200.240305 
L 387.556143 203.575552 
L 386.46303 207.834588 
L 385.369917 211.591054 
L 384.276804 213.206725 
L 383.183691 224.287419 
L 382.090579 232.925379 
L 380.997466 241.324353 
L 379.904353 246.078111 
L 378.81124 255.377349 
L 377.718127 266.873861 
L 376.625014 271.043979 
L 375.531901 273.687242 
L 374.438788 277.398327 
L 373.345675 278.893247 
L 372.252562 279.868479 
L 371.159449 280.889817 
L 370.066336 281.090016 
L 368.973223 281.06508 
L 367.88011 280.701044 
L 366.786997 280.242818 
L 365.693884 279.213261 
L 364.600771 278.688492 
L 363.507658 277.107611 
L 362.414545 275.880115 
L 361.321433 274.226577 
L 360.22832 273.076993 
L 359.135207 273.125948 
L 358.042094 271.806844 
L 356.948981 274.494122 
L 355.855868 274.550662 
L 354.762755 274.321976 
L 353.669642 273.866084 
L 352.576529 274.518362 
L 351.483416 274.83037 
L 350.390303 272.655666 
L 349.29719 270.245889 
L 348.204077 270.071007 
L 347.110964 268.614283 
L 346.017851 263.98326 
L 344.924738 251.404453 
L 343.831625 242.16235 
L 342.738512 239.483762 
L 341.645399 229.469387 
L 340.552287 220.44491 
L 339.459174 214.541688 
L 338.366061 211.641771 
L 337.272948 212.867132 
L 336.179835 205.93024 
L 335.086722 193.408715 
L 333.993609 182.440459 
L 332.900496 161.772524 
L 331.807383 150.193825 
L 330.71427 129.269592 
L 329.621157 123.798076 
L 328.528044 122.722534 
L 327.434931 122.661848 
L 326.341818 127.32765 
L 325.248705 130.123986 
L 324.155592 130.24665 
L 323.062479 115.672959 
L 321.969366 112.39217 
L 320.876253 104.544207 
L 319.78314 90.286892 
L 318.690028 79.577771 
L 317.596915 71.411801 
L 316.503802 69.438133 
L 315.410689 69.341013 
L 314.317576 72.014327 
L 313.224463 87.913475 
L 312.13135 106.384118 
L 311.038237 115.768549 
L 309.945124 146.875955 
L 308.852011 169.029289 
L 307.758898 176.003051 
L 306.665785 176.871017 
L 305.572672 185.922432 
L 304.479559 206.724293 
L 303.386446 214.603483 
L 302.293333 225.474487 
L 301.20022 239.419148 
L 300.107107 255.663821 
L 299.013994 264.491582 
L 297.920882 269.838561 
L 296.827769 274.115187 
L 295.734656 276.948062 
L 294.641543 279.04182 
L 293.54843 279.479805 
L 292.455317 279.063816 
L 291.362204 278.092335 
L 290.269091 276.634312 
L 289.175978 271.518861 
L 288.082865 269.071658 
L 286.989752 267.58938 
L 285.896639 262.455452 
L 284.803526 256.97757 
L 283.710413 252.260917 
L 282.6173 250.430574 
L 281.524187 244.636697 
L 280.431074 238.937152 
L 279.337961 234.4665 
L 278.244848 227.260166 
L 277.151736 225.082248 
L 276.058623 219.985336 
L 274.96551 217.434191 
L 273.872397 217.830425 
L 272.779284 220.119796 
L 271.686171 226.470264 
L 270.593058 224.04036 
L 269.499945 222.616455 
L 268.406832 224.081173 
L 267.313719 222.371835 
L 266.220606 215.257236 
L 265.127493 202.000931 
L 264.03438 199.436472 
L 262.941267 203.432452 
L 261.848154 195.652995 
L 260.755041 189.390771 
L 259.661928 185.057649 
L 258.568815 187.421824 
L 257.475702 172.025455 
L 256.38259 168.958999 
L 255.289477 160.454246 
L 254.196364 154.332862 
L 253.103251 146.448548 
L 252.010138 135.147633 
L 250.917025 136.656023 
L 249.823912 133.670097 
L 248.730799 135.134293 
L 247.637686 128.782963 
L 246.544573 130.09236 
L 245.45146 134.982298 
L 244.358347 134.632046 
L 243.265234 133.336257 
L 242.172121 138.747983 
L 241.079008 146.255095 
L 239.985895 157.768085 
L 238.892782 171.021551 
L 237.799669 183.782922 
L 236.706556 197.381827 
L 235.613444 205.555917 
L 234.520331 217.241294 
L 233.427218 229.305228 
L 232.334105 237.71218 
L 231.240992 245.782789 
L 230.147879 257.196813 
L 229.054766 264.324289 
L 227.961653 271.432272 
L 226.86854 274.182922 
L 225.775427 277.211664 
L 224.682314 278.257732 
L 223.589201 279.295148 
L 222.496088 279.918502 
L 221.402975 279.840481 
L 220.309862 280.532285 
L 219.216749 280.634875 
L 218.123636 280.047229 
L 217.030523 279.00129 
L 215.93741 276.757873 
L 214.844298 274.99552 
L 213.751185 272.602501 
L 212.658072 269.624469 
L 211.564959 266.722271 
L 210.471846 265.709894 
L 209.378733 265.738792 
L 208.28562 261.277835 
L 207.192507 253.43119 
L 206.099394 247.51027 
L 205.006281 242.747179 
L 203.913168 236.696631 
L 202.820055 229.358295 
L 201.726942 221.420984 
L 200.633829 223.449722 
L 199.540716 223.61208 
L 198.447603 218.738849 
L 197.35449 211.095755 
L 196.261377 203.178632 
L 195.168264 204.873244 
L 194.075152 199.329609 
L 192.982039 196.559924 
L 191.888926 198.727818 
L 190.795813 190.773863 
L 189.7027 192.435883 
L 188.609587 188.762427 
L 187.516474 185.427972 
L 186.423361 184.837359 
L 185.330248 186.179797 
L 184.237135 189.585816 
L 183.144022 176.714101 
L 182.050909 174.873716 
L 180.957796 170.547606 
L 179.864683 164.046561 
L 178.77157 156.378018 
L 177.678457 139.352788 
L 176.585344 124.713843 
L 175.492231 117.888758 
L 174.399118 103.409243 
L 173.306006 89.935129 
L 172.212893 86.241608 
L 171.11978 86.136389 
L 170.026667 94.913959 
L 168.933554 82.828445 
L 167.840441 78.330667 
L 166.747328 91.154843 
L 165.654215 102.109934 
L 164.561102 116.364281 
L 163.467989 131.7999 
L 162.374876 162.681572 
L 161.281763 186.30489 
L 160.18865 191.682576 
L 159.095537 189.701863 
L 158.002424 191.275537 
L 156.909311 191.67359 
L 155.816198 198.907679 
L 154.723085 212.034139 
L 153.629972 220.294776 
L 152.53686 224.06951 
L 151.443747 226.200964 
L 150.350634 235.510927 
L 149.257521 243.202656 
L 148.164408 246.402708 
L 147.071295 252.903555 
L 145.978182 264.140389 
L 144.885069 270.343158 
L 143.791956 270.884357 
L 142.698843 272.131818 
L 141.60573 274.081356 
L 140.512617 273.023835 
L 139.419504 274.222255 
L 138.326391 276.051904 
L 137.233278 274.477671 
L 136.140165 270.21371 
L 135.047052 268.447072 
L 133.953939 267.629433 
L 132.860826 264.459058 
L 131.767713 259.573008 
L 130.674601 256.657945 
L 129.581488 260.266748 
L 128.488375 256.256271 
L 127.395262 246.44495 
L 126.302149 239.686332 
L 125.209036 238.075237 
L 124.115923 235.068506 
L 123.02281 225.817063 
L 121.929697 216.790428 
L 120.836584 216.156203 
L 119.743471 214.253999 
L 118.650358 196.890102 
L 117.557245 191.267025 
L 116.464132 178.042927 
L 115.371019 155.302062 
L 114.277906 155.92942 
L 113.184793 158.025666 
L 112.09168 151.362708 
L 110.998567 142.557681 
L 109.905455 148.29423 
L 108.812342 169.095508 
L 107.719229 149.691331 
L 106.626116 129.793675 
L 105.533003 125.706491 
L 104.43989 115.898192 
L 103.346777 108.915778 
L 102.253664 95.340069 
L 101.160551 82.813448 
L 100.067438 86.331202 
L 98.974325 75.547494 
L 97.881212 65.385369 
L 96.788099 63.447969 
L 95.694986 65.562282 
L 94.601873 71.413613 
L 93.50876 70.284831 
L 92.415647 79.225074 
L 91.322534 108.94804 
L 90.229421 113.651701 
L 89.136309 121.329427 
L 88.043196 141.127633 
L 86.950083 162.880703 
L 85.85697 186.93034 
L 84.763857 201.709856 
L 83.670744 225.360374 
L 82.577631 248.945904 
L 81.484518 259.604284 
L 80.391405 270.788547 
L 79.298292 271.251754 
L 78.205179 275.251128 
L 77.112066 277.099897 
L 76.018953 277.243275 
L 74.92584 277.74693 
L 73.832727 277.535852 
z
" style="fill:#008000;fill-opacity:0.4;"/>
   </g>
   <g id="matplotlib.axis_1">
    <g id="xtick_1">
     <g id="line2d_1">
      <defs>
       <path d="M 0 0 
L 0 3.5 
" id="mc6b5ddf4df" style="stroke:#000000;stroke-width:0.8;"/>
      </defs>
      <g>
       <use style="stroke:#000000;stroke-width:0.8;" x="73.832727" xlink:href="#mc6b5ddf4df" y="307.584"/>
      </g>
     </g>
     <g id="text_1">
      <!-- 0.0 -->
      <defs>
       <path d="M 31.78125 66.40625 
Q 24.171875 66.40625 20.328125 58.90625 
Q 16.5 51.421875 16.5 36.375 
Q 16.5 21.390625 20.328125 13.890625 
Q 24.171875 6.390625 31.78125 6.390625 
Q 39.453125 6.390625 43.28125 13.890625 
Q 47.125 21.390625 47.125 36.375 
Q 47.125 51.421875 43.28125 58.90625 
Q 39.453125 66.40625 31.78125 66.40625 
z
M 31.78125 74.21875 
Q 44.046875 74.21875 50.515625 64.515625 
Q 56.984375 54.828125 56.984375 36.375 
Q 56.984375 17.96875 50.515625 8.265625 
Q 44.046875 -1.421875 31.78125 -1.421875 
Q 19.53125 -1.421875 13.0625 8.265625 
Q 6.59375 17.96875 6.59375 36.375 
Q 6.59375 54.828125 13.0625 64.515625 
Q 19.53125 74.21875 31.78125 74.21875 
z
" id="DejaVuSans-48"/>
       <path d="M 10.6875 12.40625 
L 21 12.40625 
L 21 0 
L 10.6875 0 
z
" id="DejaVuSans-46"/>
      </defs>
      <g transform="translate(65.881165 322.182437)scale(0.1 -0.1)">
       <use xlink:href="#DejaVuSans-48"/>
       <use x="63.623047" xlink:href="#DejaVuSans-46"/>
       <use x="95.410156" xlink:href="#DejaVuSans-48"/>
      </g>
     </g>
    </g>
    <g id="xtick_2">
     <g id="line2d_2">
      <g>
       <use style="stroke:#000000;stroke-width:0.8;" x="138.763636" xlink:href="#mc6b5ddf4df" y="307.584"/>
      </g>
     </g>
     <g id="text_2">
      <!-- 0.2 -->
      <defs>
       <path d="M 19.1875 8.296875 
L 53.609375 8.296875 
L 53.609375 0 
L 7.328125 0 
L 7.328125 8.296875 
Q 12.9375 14.109375 22.625 23.890625 
Q 32.328125 33.6875 34.8125 36.53125 
Q 39.546875 41.84375 41.421875 45.53125 
Q 43.3125 49.21875 43.3125 52.78125 
Q 43.3125 58.59375 39.234375 62.25 
Q 35.15625 65.921875 28.609375 65.921875 
Q 23.96875 65.921875 18.8125 64.3125 
Q 13.671875 62.703125 7.8125 59.421875 
L 7.8125 69.390625 
Q 13.765625 71.78125 18.9375 73 
Q 24.125 74.21875 28.421875 74.21875 
Q 39.75 74.21875 46.484375 68.546875 
Q 53.21875 62.890625 53.21875 53.421875 
Q 53.21875 48.921875 51.53125 44.890625 
Q 49.859375 40.875 45.40625 35.40625 
Q 44.1875 33.984375 37.640625 27.21875 
Q 31.109375 20.453125 19.1875 8.296875 
z
" id="DejaVuSans-50"/>
      </defs>
      <g transform="translate(130.812074 322.182437)scale(0.1 -0.1)">
       <use xlink:href="#DejaVuSans-48"/>
       <use x="63.623047" xlink:href="#DejaVuSans-46"/>
       <use x="95.410156" xlink:href="#DejaVuSans-50"/>
      </g>
     </g>
    </g>
    <g id="xtick_3">
     <g id="line2d_3">
      <g>
       <use style="stroke:#000000;stroke-width:0.8;" x="203.694545" xlink:href="#mc6b5ddf4df" y="307.584"/>
      </g>
     </g>
     <g id="text_3">
      <!-- 0.4 -->
      <defs>
       <path d="M 37.796875 64.3125 
L 12.890625 25.390625 
L 37.796875 25.390625 
z
M 35.203125 72.90625 
L 47.609375 72.90625 
L 47.609375 25.390625 
L 58.015625 25.390625 
L 58.015625 17.1875 
L 47.609375 17.1875 
L 47.609375 0 
L 37.796875 0 
L 37.796875 17.1875 
L 4.890625 17.1875 
L 4.890625 26.703125 
z
" id="DejaVuSans-52"/>
      </defs>
      <g transform="translate(195.742983 322.182437)scale(0.1 -0.1)">
       <use xlink:href="#DejaVuSans-48"/>
       <use x="63.623047" xlink:href="#DejaVuSans-46"/>
       <use x="95.410156" xlink:href="#DejaVuSans-52"/>
      </g>
     </g>
    </g>
    <g id="xtick_4">
     <g id="line2d_4">
      <g>
       <use style="stroke:#000000;stroke-width:0.8;" x="268.625455" xlink:href="#mc6b5ddf4df" y="307.584"/>
      </g>
     </g>
     <g id="text_4">
      <!-- 0.6 -->
      <defs>
       <path d="M 33.015625 40.375 
Q 26.375 40.375 22.484375 35.828125 
Q 18.609375 31.296875 18.609375 23.390625 
Q 18.609375 15.53125 22.484375 10.953125 
Q 26.375 6.390625 33.015625 6.390625 
Q 39.65625 6.390625 43.53125 10.953125 
Q 47.40625 15.53125 47.40625 23.390625 
Q 47.40625 31.296875 43.53125 35.828125 
Q 39.65625 40.375 33.015625 40.375 
z
M 52.59375 71.296875 
L 52.59375 62.3125 
Q 48.875 64.0625 45.09375 64.984375 
Q 41.3125 65.921875 37.59375 65.921875 
Q 27.828125 65.921875 22.671875 59.328125 
Q 17.53125 52.734375 16.796875 39.40625 
Q 19.671875 43.65625 24.015625 45.921875 
Q 28.375 48.1875 33.59375 48.1875 
Q 44.578125 48.1875 50.953125 41.515625 
Q 57.328125 34.859375 57.328125 23.390625 
Q 57.328125 12.15625 50.6875 5.359375 
Q 44.046875 -1.421875 33.015625 -1.421875 
Q 20.359375 -1.421875 13.671875 8.265625 
Q 6.984375 17.96875 6.984375 36.375 
Q 6.984375 53.65625 15.1875 63.9375 
Q 23.390625 74.21875 37.203125 74.21875 
Q 40.921875 74.21875 44.703125 73.484375 
Q 48.484375 72.75 52.59375 71.296875 
z
" id="DejaVuSans-54"/>
      </defs>
      <g transform="translate(260.673892 322.182437)scale(0.1 -0.1)">
       <use xlink:href="#DejaVuSans-48"/>
       <use x="63.623047" xlink:href="#DejaVuSans-46"/>
       <use x="95.410156" xlink:href="#DejaVuSans-54"/>
      </g>
     </g>
    </g>
    <g id="xtick_5">
     <g id="line2d_5">
      <g>
       <use style="stroke:#000000;stroke-width:0.8;" x="333.556364" xlink:href="#mc6b5ddf4df" y="307.584"/>
      </g>
     </g>
     <g id="text_5">
      <!-- 0.8 -->
      <defs>
       <path d="M 31.78125 34.625 
Q 24.75 34.625 20.71875 30.859375 
Q 16.703125 27.09375 16.703125 20.515625 
Q 16.703125 13.921875 20.71875 10.15625 
Q 24.75 6.390625 31.78125 6.390625 
Q 38.8125 6.390625 42.859375 10.171875 
Q 46.921875 13.96875 46.921875 20.515625 
Q 46.921875 27.09375 42.890625 30.859375 
Q 38.875 34.625 31.78125 34.625 
z
M 21.921875 38.8125 
Q 15.578125 40.375 12.03125 44.71875 
Q 8.5 49.078125 8.5 55.328125 
Q 8.5 64.0625 14.71875 69.140625 
Q 20.953125 74.21875 31.78125 74.21875 
Q 42.671875 74.21875 48.875 69.140625 
Q 55.078125 64.0625 55.078125 55.328125 
Q 55.078125 49.078125 51.53125 44.71875 
Q 48 40.375 41.703125 38.8125 
Q 48.828125 37.15625 52.796875 32.3125 
Q 56.78125 27.484375 56.78125 20.515625 
Q 56.78125 9.90625 50.3125 4.234375 
Q 43.84375 -1.421875 31.78125 -1.421875 
Q 19.734375 -1.421875 13.25 4.234375 
Q 6.78125 9.90625 6.78125 20.515625 
Q 6.78125 27.484375 10.78125 32.3125 
Q 14.796875 37.15625 21.921875 38.8125 
z
M 18.3125 54.390625 
Q 18.3125 48.734375 21.84375 45.5625 
Q 25.390625 42.390625 31.78125 42.390625 
Q 38.140625 42.390625 41.71875 45.5625 
Q 45.3125 48.734375 45.3125 54.390625 
Q 45.3125 60.0625 41.71875 63.234375 
Q 38.140625 66.40625 31.78125 66.40625 
Q 25.390625 66.40625 21.84375 63.234375 
Q 18.3125 60.0625 18.3125 54.390625 
z
" id="DejaVuSans-56"/>
      </defs>
      <g transform="translate(325.604801 322.182437)scale(0.1 -0.1)">
       <use xlink:href="#DejaVuSans-48"/>
       <use x="63.623047" xlink:href="#DejaVuSans-46"/>
       <use x="95.410156" xlink:href="#DejaVuSans-56"/>
      </g>
     </g>
    </g>
    <g id="xtick_6">
     <g id="line2d_6">
      <g>
       <use style="stroke:#000000;stroke-width:0.8;" x="398.487273" xlink:href="#mc6b5ddf4df" y="307.584"/>
      </g>
     </g>
     <g id="text_6">
      <!-- 1.0 -->
      <defs>
       <path d="M 12.40625 8.296875 
L 28.515625 8.296875 
L 28.515625 63.921875 
L 10.984375 60.40625 
L 10.984375 69.390625 
L 28.421875 72.90625 
L 38.28125 72.90625 
L 38.28125 8.296875 
L 54.390625 8.296875 
L 54.390625 0 
L 12.40625 0 
z
" id="DejaVuSans-49"/>
      </defs>
      <g transform="translate(390.53571 322.182437)scale(0.1 -0.1)">
       <use xlink:href="#DejaVuSans-49"/>
       <use x="63.623047" xlink:href="#DejaVuSans-46"/>
       <use x="95.410156" xlink:href="#DejaVuSans-48"/>
      </g>
     </g>
    </g>
   </g>
   <g id="matplotlib.axis_2">
    <g id="ytick_1">
     <g id="line2d_7">
      <defs>
       <path d="M 0 0 
L -3.5 0 
" id="mda92d9b0c8" style="stroke:#000000;stroke-width:0.8;"/>
      </defs>
      <g>
       <use style="stroke:#000000;stroke-width:0.8;" x="57.6" xlink:href="#mda92d9b0c8" y="299.17887"/>
      </g>
     </g>
     <g id="text_7">
      <!-- 0.0 -->
      <g transform="translate(34.696875 302.978089)scale(0.1 -0.1)">
       <use xlink:href="#DejaVuSans-48"/>
       <use x="63.623047" xlink:href="#DejaVuSans-46"/>
       <use x="95.410156" xlink:href="#DejaVuSans-48"/>
      </g>
     </g>
    </g>
    <g id="ytick_2">
     <g id="line2d_8">
      <g>
       <use style="stroke:#000000;stroke-width:0.8;" x="57.6" xlink:href="#mda92d9b0c8" y="249.553394"/>
      </g>
     </g>
     <g id="text_8">
      <!-- 0.2 -->
      <g transform="translate(34.696875 253.352613)scale(0.1 -0.1)">
       <use xlink:href="#DejaVuSans-48"/>
       <use x="63.623047" xlink:href="#DejaVuSans-46"/>
       <use x="95.410156" xlink:href="#DejaVuSans-50"/>
      </g>
     </g>
    </g>
    <g id="ytick_3">
     <g id="line2d_9">
      <g>
       <use style="stroke:#000000;stroke-width:0.8;" x="57.6" xlink:href="#mda92d9b0c8" y="199.927919"/>
      </g>
     </g>
     <g id="text_9">
      <!-- 0.4 -->
      <g transform="translate(34.696875 203.727138)scale(0.1 -0.1)">
       <use xlink:href="#DejaVuSans-48"/>
       <use x="63.623047" xlink:href="#DejaVuSans-46"/>
       <use x="95.410156" xlink:href="#DejaVuSans-52"/>
      </g>
     </g>
    </g>
    <g id="ytick_4">
     <g id="line2d_10">
      <g>
       <use style="stroke:#000000;stroke-width:0.8;" x="57.6" xlink:href="#mda92d9b0c8" y="150.302443"/>
      </g>
     </g>
     <g id="text_10">
      <!-- 0.6 -->
      <g transform="translate(34.696875 154.101662)scale(0.1 -0.1)">
       <use xlink:href="#DejaVuSans-48"/>
       <use x="63.623047" xlink:href="#DejaVuSans-46"/>
       <use x="95.410156" xlink:href="#DejaVuSans-54"/>
      </g>
     </g>
    </g>
    <g id="ytick_5">
     <g id="line2d_11">
      <g>
       <use style="stroke:#000000;stroke-width:0.8;" x="57.6" xlink:href="#mda92d9b0c8" y="100.676968"/>
      </g>
     </g>
     <g id="text_11">
      <!-- 0.8 -->
      <g transform="translate(34.696875 104.476186)scale(0.1 -0.1)">
       <use xlink:href="#DejaVuSans-48"/>
       <use x="63.623047" xlink:href="#DejaVuSans-46"/>
       <use x="95.410156" xlink:href="#DejaVuSans-56"/>
      </g>
     </g>
    </g>
    <g id="ytick_6">
     <g id="line2d_12">
      <g>
       <use style="stroke:#000000;stroke-width:0.8;" x="57.6" xlink:href="#mda92d9b0c8" y="51.051492"/>
      </g>
     </g>
     <g id="text_12">
      <!-- 1.0 -->
      <g transform="translate(34.696875 54.850711)scale(0.1 -0.1)">
       <use xlink:href="#DejaVuSans-49"/>
       <use x="63.623047" xlink:href="#DejaVuSans-46"/>
       <use x="95.410156" xlink:href="#DejaVuSans-48"/>
      </g>
     </g>
    </g>
   </g>
   <g id="line2d_13">
    <path clip-path="url(#p84daf29d77)" d="M 73.832727 286.596355 
L 74.92584 286.764114 
L 76.018953 286.093054 
L 77.112066 285.086451 
L 78.205179 278.711289 
L 79.298292 276.194781 
L 80.391405 269.316244 
L 81.484518 258.411542 
L 82.577631 245.661268 
L 83.670744 224.522553 
L 84.763857 206.739263 
L 85.85697 186.607201 
L 88.043196 142.65218 
L 89.136309 124.868891 
L 90.229421 119.332673 
L 91.322534 104.40136 
L 92.415647 76.719773 
L 93.50876 67.324926 
L 94.601873 65.143887 
L 95.694986 54.574653 
L 96.788099 53.568 
L 97.881212 61.78846 
L 98.974325 79.571997 
L 100.067438 85.779152 
L 101.160551 87.456989 
L 102.253664 103.394707 
L 105.533003 130.405357 
L 106.626116 142.484446 
L 107.719229 161.609856 
L 108.812342 163.95863 
L 109.905455 152.047275 
L 110.998567 154.396049 
L 112.09168 159.932267 
L 113.184793 161.945572 
L 114.277906 159.932267 
L 115.371019 168.991645 
L 116.464132 184.761877 
L 117.557245 189.962627 
L 118.650358 202.712901 
L 119.743471 213.953319 
L 120.836584 215.463174 
L 121.929697 220.328456 
L 124.115923 236.433907 
L 125.209036 238.614947 
L 126.302149 241.131455 
L 127.395262 250.52655 
L 128.488375 256.398236 
L 129.581488 259.250212 
L 130.674601 257.069421 
L 131.767713 260.92805 
L 132.860826 265.289881 
L 135.047052 269.819694 
L 137.233278 280.892279 
L 138.326391 280.892279 
L 139.419504 278.54353 
L 140.512617 279.550133 
L 141.60573 277.704686 
L 142.698843 275.188178 
L 143.791956 274.684901 
L 144.885069 269.819694 
L 147.071295 251.532955 
L 148.164408 247.674326 
L 149.257521 242.64131 
L 150.350634 234.588584 
L 151.443747 229.555568 
L 152.53686 225.361471 
L 153.629972 220.49619 
L 154.723085 214.288787 
L 155.816198 200.867329 
L 156.909311 196.337764 
L 158.002424 193.150071 
L 159.095537 192.143419 
L 160.18865 190.298095 
L 161.281763 182.077387 
L 164.561102 115.809512 
L 167.840441 77.89416 
L 168.933554 90.141231 
L 170.026667 93.496658 
L 171.11978 88.79911 
L 172.212893 89.470047 
L 173.306006 96.1809 
L 174.399118 112.622068 
L 175.492231 122.352383 
L 176.585344 133.257333 
L 177.678457 151.543825 
L 178.77157 160.435469 
L 179.864683 167.984993 
L 180.957796 174.695846 
L 182.050909 176.205701 
L 183.144022 184.929611 
L 184.237135 186.607201 
L 185.330248 187.110403 
L 186.423361 186.607201 
L 187.516474 187.781587 
L 188.609587 191.304748 
L 189.7027 191.640216 
L 190.795813 194.659926 
L 191.888926 197.176434 
L 194.075152 200.364127 
L 195.168264 205.564877 
L 196.261377 206.571529 
L 197.35449 213.785585 
L 198.447603 219.992739 
L 199.540716 224.522553 
L 200.633829 223.683634 
L 201.726942 225.361471 
L 203.913168 238.950415 
L 205.006281 244.319147 
L 206.099394 248.680979 
L 207.192507 256.230502 
L 208.28562 262.270171 
L 209.378733 264.45121 
L 210.471846 265.625349 
L 211.564959 268.309839 
L 213.751185 277.536927 
L 214.844298 281.731099 
L 215.93741 286.596355 
L 217.030523 290.119442 
L 218.123636 292.803733 
L 219.216749 293.810336 
L 220.309862 293.139251 
L 221.402975 292.635949 
L 222.496088 292.300432 
L 223.589201 289.951683 
L 224.682314 288.777321 
L 225.775427 283.744305 
L 226.86854 279.717892 
L 229.054766 263.109089 
L 230.147879 255.559566 
L 231.240992 244.486881 
L 232.334105 238.782681 
L 233.427218 229.2201 
L 234.520331 217.811948 
L 235.613444 209.255771 
L 239.985895 160.603451 
L 242.172121 142.819914 
L 243.265234 141.813509 
L 244.358347 141.645775 
L 245.45146 138.961285 
L 246.544573 134.767188 
L 247.637686 138.961285 
L 248.730799 139.464736 
L 249.823912 141.981244 
L 250.917025 140.639123 
L 252.010138 147.181993 
L 253.103251 155.234719 
L 254.196364 159.764533 
L 255.289477 168.656177 
L 256.38259 170.501501 
L 257.475702 182.580838 
L 259.661928 187.278385 
L 262.941267 202.712901 
L 264.03438 200.867329 
L 265.127493 206.403795 
L 266.220606 216.13411 
L 267.313719 223.5159 
L 268.406832 225.361471 
L 269.499945 224.690287 
L 271.686171 226.703592 
L 272.779284 222.006045 
L 273.872397 220.999392 
L 274.96551 219.489537 
L 276.058623 222.173779 
L 277.151736 227.03906 
L 278.244848 229.891037 
L 279.337961 236.769624 
L 280.431074 240.124802 
L 281.524187 247.003389 
L 282.6173 250.52655 
L 283.710413 253.54626 
L 285.896639 263.94776 
L 286.989752 267.806389 
L 288.082865 270.994081 
L 289.175978 278.879073 
L 290.269091 284.583149 
L 291.362204 287.938476 
L 292.455317 290.119442 
L 293.54843 290.287225 
L 294.641543 288.609562 
L 295.734656 283.744305 
L 296.827769 278.040229 
L 299.013994 262.941107 
L 300.107107 252.371873 
L 302.293333 226.703592 
L 303.386446 219.657271 
L 304.479559 203.048369 
L 305.572672 190.298095 
L 306.665785 182.748572 
L 307.758898 177.547822 
L 308.852011 168.991645 
L 309.945124 142.148978 
L 311.038237 121.849181 
L 314.317576 67.828129 
L 315.410689 63.801766 
L 316.503802 64.976152 
L 317.596915 72.022474 
L 318.690028 82.256239 
L 319.78314 97.187304 
L 320.876253 109.769844 
L 321.969366 114.131923 
L 323.062479 126.378994 
L 324.155592 134.599454 
L 325.248705 134.263986 
L 326.341818 129.734172 
L 327.434931 128.224317 
L 328.528044 128.72752 
L 329.621157 130.069641 
L 330.71427 144.665485 
L 331.807383 156.409106 
L 333.993609 185.600548 
L 335.086722 194.659926 
L 336.179835 208.081384 
L 337.272948 211.940013 
L 338.366061 212.778932 
L 339.459174 216.973029 
L 340.552287 222.844963 
L 341.645399 233.749665 
L 342.738512 238.614947 
L 343.831625 244.486881 
L 344.924738 256.56597 
L 346.017851 264.786678 
L 347.110964 269.316244 
L 348.204077 271.161815 
L 349.29719 273.846057 
L 350.390303 278.207988 
L 351.483416 279.885676 
L 352.576529 279.046832 
L 353.669642 280.221194 
L 354.762755 279.382374 
L 355.855868 281.395581 
L 356.948981 277.201384 
L 358.042094 277.87247 
L 359.135207 277.536927 
L 360.22832 277.87247 
L 361.321433 281.395581 
L 362.414545 283.241003 
L 363.507658 287.099657 
L 364.600771 288.94508 
L 365.693884 291.293828 
L 366.786997 293.307035 
L 367.88011 294.145854 
L 368.973223 295.320241 
L 370.066336 295.488 
L 372.252562 292.132648 
L 373.345675 289.61614 
L 376.625014 272.67167 
L 377.718127 265.961065 
L 378.81124 252.875076 
L 379.904353 246.667921 
L 380.997466 241.466923 
L 382.090579 232.910995 
L 383.183691 226.032408 
L 384.276804 215.798642 
L 385.369917 215.463174 
L 386.46303 209.255771 
L 387.556143 205.732611 
L 388.649256 199.357474 
L 389.742369 194.492192 
L 390.835482 201.203045 
L 391.928595 202.20945 
L 393.021708 198.854272 
L 394.114821 198.518555 
L 395.207934 204.39049 
L 396.301047 207.745916 
L 397.39416 200.364127 
L 398.487273 198.854272 
L 398.487273 198.854272 
" style="fill:none;stroke:#1f77b4;stroke-linecap:square;stroke-width:1.5;"/>
   </g>
   <g id="line2d_14">
    <path clip-path="url(#p84daf29d77)" d="M 73.832727 283.330684 
L 74.92584 283.8636 
L 76.018953 283.199274 
L 77.112066 283.313864 
L 78.205179 280.041335 
L 79.298292 275.677951 
L 80.391405 273.916964 
L 81.484518 260.751753 
L 82.577631 250.007092 
L 84.763857 204.28438 
L 85.85697 189.254625 
L 86.950083 165.187263 
L 89.136309 123.746465 
L 90.229421 118.02247 
L 91.322534 110.774145 
L 92.415647 84.0265 
L 93.50876 74.282906 
L 94.601873 74.888837 
L 95.694986 70.02203 
L 96.788099 67.59119 
L 97.881212 69.311871 
L 98.974325 78.735261 
L 100.067438 89.358933 
L 101.160551 86.274223 
L 103.346777 110.946104 
L 104.43989 119.006845 
L 105.533003 132.813257 
L 106.626116 135.845742 
L 107.719229 162.213886 
L 108.812342 171.956065 
L 109.905455 150.993517 
L 110.998567 152.278026 
L 112.09168 159.871156 
L 113.184793 164.050431 
L 114.277906 160.388773 
L 115.371019 164.267116 
L 116.464132 186.877229 
L 118.650358 198.921033 
L 119.743471 215.01228 
L 120.836584 217.802258 
L 121.929697 217.58058 
L 124.115923 236.018979 
L 125.209036 239.113741 
L 126.302149 240.463422 
L 127.395262 247.408915 
L 128.488375 257.081248 
L 129.581488 260.700646 
L 130.674601 257.316249 
L 131.767713 260.191784 
L 132.860826 264.89491 
L 133.953939 268.255873 
L 135.047052 269.705956 
L 136.140165 272.745071 
L 137.233278 279.090781 
L 138.326391 280.485675 
L 139.419504 278.577313 
L 140.512617 277.643371 
L 141.60573 278.304548 
L 142.698843 275.886651 
L 143.791956 274.356526 
L 144.885069 272.58249 
L 145.978182 264.768512 
L 147.071295 253.88188 
L 148.164408 247.106516 
L 149.257521 244.041546 
L 150.350634 236.667158 
L 151.443747 227.434688 
L 152.53686 225.179526 
L 153.629972 221.378004 
L 154.723085 213.280119 
L 155.816198 200.710009 
L 156.909311 194.665075 
L 158.002424 192.213001 
L 159.095537 190.751074 
L 160.18865 193.226601 
L 161.281763 187.128559 
L 162.374876 164.661836 
L 163.467989 134.289136 
L 165.654215 104.489369 
L 166.747328 93.955006 
L 167.840441 82.324634 
L 168.933554 86.058472 
L 170.026667 97.318221 
L 171.11978 89.596428 
L 172.212893 88.860968 
L 173.306006 92.328926 
L 175.492231 120.119065 
L 176.585344 130.966614 
L 177.678457 151.335848 
L 178.77157 160.481409 
L 179.864683 171.840292 
L 180.957796 175.830262 
L 182.050909 177.4908 
L 183.144022 182.310992 
L 184.237135 190.836172 
L 185.330248 187.504851 
L 186.423361 185.955245 
L 187.516474 187.974439 
L 188.609587 191.09642 
L 189.7027 193.264765 
L 190.795813 191.532469 
L 191.888926 200.066637 
L 192.982039 197.475865 
L 194.075152 199.948422 
L 195.168264 206.019392 
L 196.261377 204.645435 
L 198.447603 219.584063 
L 199.540716 224.45681 
L 200.633829 224.659782 
L 201.726942 222.356678 
L 202.820055 230.481923 
L 203.913168 237.581057 
L 205.006281 243.606469 
L 206.099394 248.249316 
L 207.192507 254.083594 
L 208.28562 261.88674 
L 209.378733 266.175042 
L 210.471846 265.917951 
L 211.564959 267.465241 
L 212.658072 271.973556 
L 214.844298 279.644374 
L 215.93741 282.185783 
L 217.030523 285.339643 
L 218.123636 286.853907 
L 219.216749 287.600598 
L 220.309862 287.642837 
L 221.402975 287.033303 
L 222.496088 287.155429 
L 224.682314 285.146506 
L 225.775427 283.147133 
L 226.86854 279.634448 
L 227.961653 274.94911 
L 229.054766 265.807669 
L 230.147879 257.82141 
L 231.240992 247.061286 
L 233.427218 230.719251 
L 235.613444 207.170341 
L 236.706556 198.663521 
L 238.892782 172.730805 
L 241.079008 150.384842 
L 242.172121 142.736006 
L 243.265234 140.374351 
L 245.45146 141.219461 
L 246.544573 133.346817 
L 247.637686 136.633945 
L 248.730799 141.956705 
L 249.823912 139.956482 
L 250.917025 143.226263 
L 252.010138 143.163035 
L 253.103251 155.061526 
L 254.196364 160.354677 
L 255.289477 169.263624 
L 256.38259 172.006816 
L 257.475702 180.045006 
L 258.568815 188.941502 
L 259.661928 186.817021 
L 261.848154 196.431972 
L 262.941267 204.199978 
L 264.03438 201.081235 
L 265.127493 203.242936 
L 266.220606 216.34674 
L 267.313719 223.338966 
L 268.406832 225.357413 
L 269.499945 223.768081 
L 270.593058 224.975786 
L 271.686171 227.33769 
L 272.779284 221.734516 
L 273.872397 218.99558 
L 274.96551 218.412215 
L 276.058623 221.073262 
L 277.151736 225.924096 
L 278.244848 228.31659 
L 279.337961 235.477547 
L 280.431074 239.866895 
L 282.6173 251.169586 
L 283.710413 252.80525 
L 284.803526 257.429818 
L 286.989752 268.456885 
L 288.082865 270.410951 
L 289.175978 274.867747 
L 290.269091 281.711094 
L 291.362204 283.773647 
L 292.455317 285.498292 
L 293.54843 286.048916 
L 294.641543 285.828843 
L 296.827769 279.461242 
L 297.920882 273.033484 
L 299.013994 265.787214 
L 300.107107 256.506267 
L 302.293333 227.027236 
L 303.386446 216.313518 
L 304.479559 208.225066 
L 305.572672 188.148948 
L 306.665785 179.272902 
L 307.758898 180.168691 
L 308.852011 171.11796 
L 309.945124 149.123586 
L 311.038237 118.410327 
L 312.13135 108.78504 
L 313.224463 91.186519 
L 314.317576 76.424093 
L 315.410689 73.091354 
L 316.503802 73.202994 
L 317.596915 75.042212 
L 318.690028 82.601896 
L 319.78314 92.932895 
L 320.876253 106.900765 
L 321.969366 114.21484 
L 323.062479 119.850797 
L 324.155592 138.146158 
L 325.248705 132.420685 
L 326.341818 131.641502 
L 327.434931 126.214997 
L 329.621157 128.21697 
L 330.71427 139.762849 
L 331.807383 158.920044 
L 332.900496 169.63643 
L 333.993609 187.482383 
L 335.086722 194.871508 
L 336.179835 207.121333 
L 337.272948 214.50636 
L 338.366061 212.732548 
L 339.459174 215.350438 
L 340.552287 221.205841 
L 342.738512 240.515409 
L 343.831625 242.960551 
L 344.924738 252.341504 
L 346.017851 264.904193 
L 347.110964 269.191388 
L 348.204077 271.762549 
L 349.29719 272.475862 
L 350.390303 276.458992 
L 351.483416 279.093653 
L 353.669642 278.631464 
L 354.762755 278.557317 
L 355.855868 279.899601 
L 356.948981 278.332156 
L 358.042094 276.272339 
L 359.135207 276.949804 
L 360.22832 277.290489 
L 361.321433 279.184259 
L 362.414545 280.658167 
L 363.507658 283.123101 
L 364.600771 284.828124 
L 365.693884 285.903984 
L 366.786997 287.194175 
L 367.88011 287.729235 
L 368.973223 288.445633 
L 371.159449 288.22725 
L 372.252562 287.148719 
L 373.345675 285.786181 
L 374.438788 283.723749 
L 375.531901 278.814843 
L 376.625014 275.024154 
L 377.718127 268.779995 
L 378.81124 256.701267 
L 379.904353 246.870195 
L 380.997466 242.190513 
L 383.183691 225.561433 
L 384.276804 214.846379 
L 385.369917 214.111327 
L 387.556143 204.802231 
L 388.649256 201.116523 
L 389.742369 190.616905 
L 390.835482 199.265296 
L 391.928595 203.412699 
L 393.021708 199.151687 
L 394.114821 196.82647 
L 395.207934 204.003966 
L 396.301047 210.407883 
L 397.39416 199.957735 
L 398.487273 199.193463 
L 398.487273 199.193463 
" style="fill:none;stroke:#ff7f0e;stroke-linecap:square;stroke-width:1.5;"/>
   </g>
   <g id="line2d_15">
    <path clip-path="url(#p84daf29d77)" d="M 73.832727 285.275938 
L 74.92584 285.844694 
L 76.018953 285.096958 
L 77.112066 285.277238 
L 78.205179 281.90292 
L 79.298292 277.524603 
L 80.391405 275.528083 
L 81.484518 263.071372 
L 82.577631 252.333563 
L 83.670744 235.255915 
L 84.763857 209.250623 
L 85.85697 191.857126 
L 86.950083 166.625234 
L 89.136309 124.56959 
L 90.229421 119.457959 
L 91.322534 112.159289 
L 92.415647 95.544076 
L 93.50876 84.574714 
L 94.601873 84.923486 
L 95.694986 83.485088 
L 96.788099 80.077795 
L 97.881212 81.410054 
L 98.974325 87.181405 
L 100.067438 96.110651 
L 101.160551 95.095716 
L 102.253664 100.029302 
L 103.346777 111.885923 
L 104.43989 119.729239 
L 105.533003 134.334096 
L 106.626116 136.917915 
L 107.719229 165.287729 
L 108.812342 175.478726 
L 109.905455 155.171785 
L 110.998567 155.134187 
L 112.09168 161.467502 
L 113.184793 165.462806 
L 114.277906 161.735107 
L 115.371019 166.174544 
L 116.464132 189.545532 
L 117.557245 196.468749 
L 118.650358 200.127329 
L 119.743471 217.09772 
L 120.836584 223.868968 
L 121.929697 221.514252 
L 123.02281 230.351156 
L 124.115923 240.881641 
L 125.209036 245.436122 
L 126.302149 245.57142 
L 127.395262 250.218337 
L 128.488375 260.107066 
L 129.581488 262.766727 
L 130.674601 260.790989 
L 131.767713 261.529663 
L 132.860826 266.269308 
L 133.953939 269.616436 
L 135.047052 271.057596 
L 136.140165 274.353204 
L 137.233278 281.200813 
L 138.326391 282.301064 
L 139.419504 280.282711 
L 140.512617 279.382799 
L 141.60573 280.006272 
L 142.698843 277.539048 
L 143.791956 275.95249 
L 144.885069 274.102591 
L 145.978182 266.558273 
L 147.071295 256.018026 
L 148.164408 249.482997 
L 149.257521 248.69903 
L 150.350634 242.459561 
L 151.443747 232.769088 
L 152.53686 230.59321 
L 153.629972 226.794469 
L 154.723085 219.011383 
L 156.909311 196.341092 
L 158.002424 193.013937 
L 159.095537 191.416184 
L 160.18865 194.01331 
L 161.281763 188.075792 
L 162.374876 168.036523 
L 163.467989 136.076915 
L 164.561102 119.910209 
L 165.654215 105.607967 
L 166.747328 99.388505 
L 167.840441 92.48399 
L 168.933554 90.190279 
L 170.026667 101.003123 
L 172.212893 94.946043 
L 173.306006 97.190311 
L 174.399118 107.94512 
L 175.492231 120.958161 
L 176.585344 132.221181 
L 177.678457 154.127923 
L 179.864683 173.694433 
L 180.957796 177.448904 
L 182.050909 179.319749 
L 183.144022 183.746695 
L 184.237135 192.495405 
L 185.330248 188.465259 
L 186.423361 186.829315 
L 187.516474 188.827009 
L 188.609587 191.998559 
L 189.7027 194.342205 
L 190.795813 192.289006 
L 191.888926 201.014959 
L 192.982039 199.229306 
L 194.075152 201.09399 
L 195.168264 207.045055 
L 196.261377 209.0919 
L 197.35449 213.579582 
L 198.447603 223.561776 
L 199.540716 229.297808 
L 200.633829 231.244463 
L 201.726942 228.06696 
L 202.820055 233.991755 
L 203.913168 242.720694 
L 205.006281 248.490574 
L 207.192507 256.683709 
L 208.28562 263.816407 
L 209.378733 267.605348 
L 210.471846 267.155508 
L 211.564959 268.735756 
L 212.658072 273.617957 
L 214.844298 281.59986 
L 215.93741 284.191069 
L 217.030523 287.508928 
L 218.123636 289.011693 
L 219.216749 289.724933 
L 220.309862 289.74215 
L 221.402975 289.106645 
L 222.496088 289.25378 
L 223.589201 288.094707 
L 224.682314 287.178001 
L 225.775427 285.064509 
L 226.86854 281.556833 
L 227.961653 276.823266 
L 230.147879 259.449658 
L 232.334105 241.907264 
L 233.427218 237.252879 
L 235.613444 211.277782 
L 236.706556 202.796734 
L 237.799669 186.643252 
L 238.892782 173.678066 
L 241.079008 151.489141 
L 242.172121 143.61642 
L 243.265234 142.123029 
L 244.358347 141.719085 
L 245.45146 142.194887 
L 246.544573 133.978697 
L 248.730799 143.035134 
L 249.823912 140.931981 
L 250.917025 144.246741 
L 252.010138 144.655053 
L 253.103251 156.736705 
L 254.196364 161.94196 
L 255.289477 171.122996 
L 256.38259 174.259011 
L 257.475702 182.025691 
L 258.568815 191.361544 
L 259.661928 187.800064 
L 261.848154 197.573369 
L 262.941267 205.21827 
L 264.03438 205.421246 
L 265.127493 204.224135 
L 266.220606 217.764755 
L 267.313719 228.126537 
L 268.406832 231.898709 
L 269.499945 230.519264 
L 270.593058 230.052878 
L 271.686171 232.37132 
L 272.779284 229.821017 
L 273.872397 223.515181 
L 276.058623 224.838534 
L 277.151736 230.225179 
L 279.337961 239.333462 
L 280.431074 245.740525 
L 281.524187 249.082966 
L 282.6173 255.214558 
L 283.710413 256.360166 
L 284.803526 259.523685 
L 285.896639 264.441172 
L 286.989752 269.982668 
L 288.082865 271.813793 
L 289.175978 276.706043 
L 290.269091 283.925127 
L 292.455317 287.601549 
L 293.54843 288.113357 
L 294.641543 287.856283 
L 296.827769 281.369104 
L 297.920882 274.966187 
L 299.013994 267.510451 
L 300.107107 258.400569 
L 303.386446 220.599319 
L 304.479559 214.447255 
L 305.572672 189.863851 
L 306.665785 180.406116 
L 307.758898 181.614827 
L 308.852011 171.911939 
L 309.945124 152.512191 
L 311.038237 119.821769 
L 312.13135 109.4615 
L 313.224463 97.856571 
L 314.317576 87.886032 
L 315.410689 83.5835 
L 316.503802 84.323929 
L 317.596915 85.790825 
L 318.690028 90.487133 
L 319.78314 97.151179 
L 320.876253 107.811683 
L 321.969366 114.97863 
L 323.062479 120.847399 
L 324.155592 139.848992 
L 325.248705 134.352721 
L 326.341818 132.306588 
L 327.434931 126.860918 
L 328.528044 128.08423 
L 329.621157 128.911712 
L 330.71427 142.226628 
L 331.807383 160.972963 
L 332.900496 171.59884 
L 333.993609 189.689303 
L 335.086722 197.575186 
L 337.272948 219.454395 
L 338.366061 217.332907 
L 339.459174 218.337106 
L 340.552287 225.128369 
L 341.645399 234.240745 
L 342.738512 246.091665 
L 343.831625 247.677624 
L 344.924738 254.902942 
L 346.017851 266.928681 
L 347.110964 270.719874 
L 348.204077 273.240457 
L 349.29719 273.926852 
L 350.390303 278.298337 
L 351.483416 280.923166 
L 352.576529 280.576114 
L 354.762755 280.250471 
L 355.855868 281.836912 
L 358.042094 277.989516 
L 359.135207 278.600597 
L 360.22832 279.015789 
L 361.321433 281.093359 
L 362.414545 282.498102 
L 363.507658 285.20181 
L 364.600771 286.889306 
L 365.693884 288.016762 
L 366.786997 289.347164 
L 367.88011 289.856275 
L 368.973223 290.620678 
L 371.159449 290.344071 
L 372.252562 289.231418 
L 373.345675 287.813611 
L 374.438788 285.698317 
L 375.531901 280.837425 
L 376.625014 276.843792 
L 377.718127 270.501649 
L 379.904353 248.518972 
L 380.997466 246.456156 
L 382.090579 240.543953 
L 384.276804 221.676018 
L 385.369917 215.695476 
L 386.46303 215.906391 
L 387.556143 207.389385 
L 388.649256 204.242072 
L 389.742369 193.267809 
L 390.835482 201.183782 
L 391.928595 206.402777 
L 393.021708 202.567086 
L 394.114821 197.696506 
L 396.301047 212.413982 
L 397.39416 207.205077 
L 398.487273 200.53451 
L 398.487273 200.53451 
" style="fill:none;stroke:#2ca02c;stroke-linecap:square;stroke-width:1.5;"/>
   </g>
   <g id="line2d_16">
    <path clip-path="url(#p84daf29d77)" d="M 73.832727 277.535852 
L 74.92584 277.74693 
L 76.018953 277.243275 
L 77.112066 277.099897 
L 78.205179 275.251128 
L 79.298292 271.251754 
L 80.391405 270.788547 
L 82.577631 248.945904 
L 84.763857 201.709856 
L 85.85697 186.93034 
L 88.043196 141.127633 
L 89.136309 121.329427 
L 90.229421 113.651701 
L 91.322534 108.94804 
L 92.415647 79.225074 
L 93.50876 70.284831 
L 94.601873 71.413613 
L 95.694986 65.562282 
L 96.788099 63.447969 
L 97.881212 65.385369 
L 100.067438 86.331202 
L 101.160551 82.813448 
L 103.346777 108.915778 
L 104.43989 115.898192 
L 105.533003 125.706491 
L 106.626116 129.793675 
L 108.812342 169.095508 
L 109.905455 148.29423 
L 110.998567 142.557681 
L 112.09168 151.362708 
L 113.184793 158.025666 
L 114.277906 155.92942 
L 115.371019 155.302062 
L 116.464132 178.042927 
L 117.557245 191.267025 
L 118.650358 196.890102 
L 119.743471 214.253999 
L 120.836584 216.156203 
L 121.929697 216.790428 
L 124.115923 235.068506 
L 125.209036 238.075237 
L 126.302149 239.686332 
L 127.395262 246.44495 
L 128.488375 256.256271 
L 129.581488 260.266748 
L 130.674601 256.657945 
L 131.767713 259.573008 
L 132.860826 264.459058 
L 133.953939 267.629433 
L 135.047052 268.447072 
L 136.140165 270.21371 
L 137.233278 274.477671 
L 138.326391 276.051904 
L 139.419504 274.222255 
L 140.512617 273.023835 
L 141.60573 274.081356 
L 142.698843 272.131818 
L 143.791956 270.884357 
L 144.885069 270.343158 
L 145.978182 264.140389 
L 147.071295 252.903555 
L 148.164408 246.402708 
L 149.257521 243.202656 
L 150.350634 235.510927 
L 151.443747 226.200964 
L 152.53686 224.06951 
L 153.629972 220.294776 
L 154.723085 212.034139 
L 155.816198 198.907679 
L 156.909311 191.67359 
L 158.002424 191.275537 
L 159.095537 189.701863 
L 160.18865 191.682576 
L 161.281763 186.30489 
L 162.374876 162.681572 
L 163.467989 131.7999 
L 165.654215 102.109934 
L 166.747328 91.154843 
L 167.840441 78.330667 
L 168.933554 82.828445 
L 170.026667 94.913959 
L 171.11978 86.136389 
L 172.212893 86.241608 
L 173.306006 89.935129 
L 175.492231 117.888758 
L 176.585344 124.713843 
L 177.678457 139.352788 
L 178.77157 156.378018 
L 179.864683 164.046561 
L 180.957796 170.547606 
L 182.050909 174.873716 
L 183.144022 176.714101 
L 184.237135 189.585816 
L 185.330248 186.179797 
L 186.423361 184.837359 
L 187.516474 185.427972 
L 189.7027 192.435883 
L 190.795813 190.773863 
L 191.888926 198.727818 
L 192.982039 196.559924 
L 194.075152 199.329609 
L 195.168264 204.873244 
L 196.261377 203.178632 
L 198.447603 218.738849 
L 199.540716 223.61208 
L 200.633829 223.449722 
L 201.726942 221.420984 
L 203.913168 236.696631 
L 205.006281 242.747179 
L 206.099394 247.51027 
L 207.192507 253.43119 
L 208.28562 261.277835 
L 209.378733 265.738792 
L 210.471846 265.709894 
L 211.564959 266.722271 
L 213.751185 272.602501 
L 214.844298 274.99552 
L 215.93741 276.757873 
L 217.030523 279.00129 
L 218.123636 280.047229 
L 219.216749 280.634875 
L 220.309862 280.532285 
L 221.402975 279.840481 
L 222.496088 279.918502 
L 223.589201 279.295148 
L 225.775427 277.211664 
L 227.961653 271.432272 
L 230.147879 257.196813 
L 231.240992 245.782789 
L 233.427218 229.305228 
L 235.613444 205.555917 
L 236.706556 197.381827 
L 239.985895 157.768085 
L 241.079008 146.255095 
L 242.172121 138.747983 
L 243.265234 133.336257 
L 244.358347 134.632046 
L 245.45146 134.982298 
L 246.544573 130.09236 
L 247.637686 128.782963 
L 248.730799 135.134293 
L 249.823912 133.670097 
L 250.917025 136.656023 
L 252.010138 135.147633 
L 253.103251 146.448548 
L 254.196364 154.332862 
L 255.289477 160.454246 
L 256.38259 168.958999 
L 257.475702 172.025455 
L 258.568815 187.421824 
L 259.661928 185.057649 
L 260.755041 189.390771 
L 261.848154 195.652995 
L 262.941267 203.432452 
L 264.03438 199.436472 
L 265.127493 202.000931 
L 266.220606 215.257236 
L 267.313719 222.371835 
L 268.406832 224.081173 
L 269.499945 222.616455 
L 270.593058 224.04036 
L 271.686171 226.470264 
L 272.779284 220.119796 
L 273.872397 217.830425 
L 274.96551 217.434191 
L 276.058623 219.985336 
L 277.151736 225.082248 
L 278.244848 227.260166 
L 279.337961 234.4665 
L 280.431074 238.937152 
L 282.6173 250.430574 
L 283.710413 252.260917 
L 284.803526 256.97757 
L 286.989752 267.58938 
L 288.082865 269.071658 
L 289.175978 271.518861 
L 290.269091 276.634312 
L 291.362204 278.092335 
L 292.455317 279.063816 
L 293.54843 279.479805 
L 294.641543 279.04182 
L 295.734656 276.948062 
L 296.827769 274.115187 
L 297.920882 269.838561 
L 299.013994 264.491582 
L 300.107107 255.663821 
L 301.20022 239.419148 
L 302.293333 225.474487 
L 303.386446 214.603483 
L 304.479559 206.724293 
L 305.572672 185.922432 
L 306.665785 176.871017 
L 307.758898 176.003051 
L 308.852011 169.029289 
L 309.945124 146.875955 
L 311.038237 115.768549 
L 312.13135 106.384118 
L 313.224463 87.913475 
L 314.317576 72.014327 
L 315.410689 69.341013 
L 316.503802 69.438133 
L 317.596915 71.411801 
L 318.690028 79.577771 
L 319.78314 90.286892 
L 320.876253 104.544207 
L 321.969366 112.39217 
L 323.062479 115.672959 
L 324.155592 130.24665 
L 325.248705 130.123986 
L 326.341818 127.32765 
L 327.434931 122.661848 
L 328.528044 122.722534 
L 329.621157 123.798076 
L 330.71427 129.269592 
L 331.807383 150.193825 
L 332.900496 161.772524 
L 333.993609 182.440459 
L 335.086722 193.408715 
L 336.179835 205.93024 
L 337.272948 212.867132 
L 338.366061 211.641771 
L 339.459174 214.541688 
L 340.552287 220.44491 
L 341.645399 229.469387 
L 342.738512 239.483762 
L 343.831625 242.16235 
L 344.924738 251.404453 
L 346.017851 263.98326 
L 347.110964 268.614283 
L 348.204077 270.071007 
L 349.29719 270.245889 
L 351.483416 274.83037 
L 352.576529 274.518362 
L 353.669642 273.866084 
L 354.762755 274.321976 
L 355.855868 274.550662 
L 356.948981 274.494122 
L 358.042094 271.806844 
L 359.135207 273.125948 
L 360.22832 273.076993 
L 361.321433 274.226577 
L 362.414545 275.880115 
L 363.507658 277.107611 
L 364.600771 278.688492 
L 365.693884 279.213261 
L 366.786997 280.242818 
L 368.973223 281.06508 
L 370.066336 281.090016 
L 371.159449 280.889817 
L 373.345675 278.893247 
L 374.438788 277.398327 
L 375.531901 273.687242 
L 376.625014 271.043979 
L 377.718127 266.873861 
L 378.81124 255.377349 
L 379.904353 246.078111 
L 380.997466 241.324353 
L 383.183691 224.287419 
L 384.276804 213.206725 
L 385.369917 211.591054 
L 386.46303 207.834588 
L 387.556143 203.575552 
L 388.649256 200.240305 
L 389.742369 189.592802 
L 390.835482 195.374039 
L 391.928595 202.191146 
L 393.021708 198.04839 
L 394.114821 195.932481 
L 395.207934 202.162014 
L 396.301047 209.735515 
L 397.39416 197.575129 
L 398.487273 197.00775 
L 398.487273 197.00775 
" style="fill:none;stroke:#d62728;stroke-linecap:square;stroke-width:1.5;"/>
   </g>
   <g id="patch_3">
    <path d="M 57.6 307.584 
L 57.6 41.472 
" style="fill:none;stroke:#000000;stroke-linecap:square;stroke-linejoin:miter;stroke-width:0.8;"/>
   </g>
   <g id="patch_4">
    <path d="M 414.72 307.584 
L 414.72 41.472 
" style="fill:none;stroke:#000000;stroke-linecap:square;stroke-linejoin:miter;stroke-width:0.8;"/>
   </g>
   <g id="patch_5">
    <path d="M 57.6 307.584 
L 414.72 307.584 
" style="fill:none;stroke:#000000;stroke-linecap:square;stroke-linejoin:miter;stroke-width:0.8;"/>
   </g>
   <g id="patch_6">
    <path d="M 57.6 41.472 
L 414.72 41.472 
" style="fill:none;stroke:#000000;stroke-linecap:square;stroke-linejoin:miter;stroke-width:0.8;"/>
   </g>
   <g id="text_13">
    <!-- Plot of Train Data vs MCMC Uncertainty  -->
    <defs>
     <path d="M 19.671875 64.796875 
L 19.671875 37.40625 
L 32.078125 37.40625 
Q 38.96875 37.40625 42.71875 40.96875 
Q 46.484375 44.53125 46.484375 51.125 
Q 46.484375 57.671875 42.71875 61.234375 
Q 38.96875 64.796875 32.078125 64.796875 
z
M 9.8125 72.90625 
L 32.078125 72.90625 
Q 44.34375 72.90625 50.609375 67.359375 
Q 56.890625 61.8125 56.890625 51.125 
Q 56.890625 40.328125 50.609375 34.8125 
Q 44.34375 29.296875 32.078125 29.296875 
L 19.671875 29.296875 
L 19.671875 0 
L 9.8125 0 
z
" id="DejaVuSans-80"/>
     <path d="M 9.421875 75.984375 
L 18.40625 75.984375 
L 18.40625 0 
L 9.421875 0 
z
" id="DejaVuSans-108"/>
     <path d="M 30.609375 48.390625 
Q 23.390625 48.390625 19.1875 42.75 
Q 14.984375 37.109375 14.984375 27.296875 
Q 14.984375 17.484375 19.15625 11.84375 
Q 23.34375 6.203125 30.609375 6.203125 
Q 37.796875 6.203125 41.984375 11.859375 
Q 46.1875 17.53125 46.1875 27.296875 
Q 46.1875 37.015625 41.984375 42.703125 
Q 37.796875 48.390625 30.609375 48.390625 
z
M 30.609375 56 
Q 42.328125 56 49.015625 48.375 
Q 55.71875 40.765625 55.71875 27.296875 
Q 55.71875 13.875 49.015625 6.21875 
Q 42.328125 -1.421875 30.609375 -1.421875 
Q 18.84375 -1.421875 12.171875 6.21875 
Q 5.515625 13.875 5.515625 27.296875 
Q 5.515625 40.765625 12.171875 48.375 
Q 18.84375 56 30.609375 56 
z
" id="DejaVuSans-111"/>
     <path d="M 18.3125 70.21875 
L 18.3125 54.6875 
L 36.8125 54.6875 
L 36.8125 47.703125 
L 18.3125 47.703125 
L 18.3125 18.015625 
Q 18.3125 11.328125 20.140625 9.421875 
Q 21.96875 7.515625 27.59375 7.515625 
L 36.8125 7.515625 
L 36.8125 0 
L 27.59375 0 
Q 17.1875 0 13.234375 3.875 
Q 9.28125 7.765625 9.28125 18.015625 
L 9.28125 47.703125 
L 2.6875 47.703125 
L 2.6875 54.6875 
L 9.28125 54.6875 
L 9.28125 70.21875 
z
" id="DejaVuSans-116"/>
     <path id="DejaVuSans-32"/>
     <path d="M 37.109375 75.984375 
L 37.109375 68.5 
L 28.515625 68.5 
Q 23.6875 68.5 21.796875 66.546875 
Q 19.921875 64.59375 19.921875 59.515625 
L 19.921875 54.6875 
L 34.71875 54.6875 
L 34.71875 47.703125 
L 19.921875 47.703125 
L 19.921875 0 
L 10.890625 0 
L 10.890625 47.703125 
L 2.296875 47.703125 
L 2.296875 54.6875 
L 10.890625 54.6875 
L 10.890625 58.5 
Q 10.890625 67.625 15.140625 71.796875 
Q 19.390625 75.984375 28.609375 75.984375 
z
" id="DejaVuSans-102"/>
     <path d="M -0.296875 72.90625 
L 61.375 72.90625 
L 61.375 64.59375 
L 35.5 64.59375 
L 35.5 0 
L 25.59375 0 
L 25.59375 64.59375 
L -0.296875 64.59375 
z
" id="DejaVuSans-84"/>
     <path d="M 41.109375 46.296875 
Q 39.59375 47.171875 37.8125 47.578125 
Q 36.03125 48 33.890625 48 
Q 26.265625 48 22.1875 43.046875 
Q 18.109375 38.09375 18.109375 28.8125 
L 18.109375 0 
L 9.078125 0 
L 9.078125 54.6875 
L 18.109375 54.6875 
L 18.109375 46.1875 
Q 20.953125 51.171875 25.484375 53.578125 
Q 30.03125 56 36.53125 56 
Q 37.453125 56 38.578125 55.875 
Q 39.703125 55.765625 41.0625 55.515625 
z
" id="DejaVuSans-114"/>
     <path d="M 34.28125 27.484375 
Q 23.390625 27.484375 19.1875 25 
Q 14.984375 22.515625 14.984375 16.5 
Q 14.984375 11.71875 18.140625 8.90625 
Q 21.296875 6.109375 26.703125 6.109375 
Q 34.1875 6.109375 38.703125 11.40625 
Q 43.21875 16.703125 43.21875 25.484375 
L 43.21875 27.484375 
z
M 52.203125 31.203125 
L 52.203125 0 
L 43.21875 0 
L 43.21875 8.296875 
Q 40.140625 3.328125 35.546875 0.953125 
Q 30.953125 -1.421875 24.3125 -1.421875 
Q 15.921875 -1.421875 10.953125 3.296875 
Q 6 8.015625 6 15.921875 
Q 6 25.140625 12.171875 29.828125 
Q 18.359375 34.515625 30.609375 34.515625 
L 43.21875 34.515625 
L 43.21875 35.40625 
Q 43.21875 41.609375 39.140625 45 
Q 35.0625 48.390625 27.6875 48.390625 
Q 23 48.390625 18.546875 47.265625 
Q 14.109375 46.140625 10.015625 43.890625 
L 10.015625 52.203125 
Q 14.9375 54.109375 19.578125 55.046875 
Q 24.21875 56 28.609375 56 
Q 40.484375 56 46.34375 49.84375 
Q 52.203125 43.703125 52.203125 31.203125 
z
" id="DejaVuSans-97"/>
     <path d="M 9.421875 54.6875 
L 18.40625 54.6875 
L 18.40625 0 
L 9.421875 0 
z
M 9.421875 75.984375 
L 18.40625 75.984375 
L 18.40625 64.59375 
L 9.421875 64.59375 
z
" id="DejaVuSans-105"/>
     <path d="M 54.890625 33.015625 
L 54.890625 0 
L 45.90625 0 
L 45.90625 32.71875 
Q 45.90625 40.484375 42.875 44.328125 
Q 39.84375 48.1875 33.796875 48.1875 
Q 26.515625 48.1875 22.3125 43.546875 
Q 18.109375 38.921875 18.109375 30.90625 
L 18.109375 0 
L 9.078125 0 
L 9.078125 54.6875 
L 18.109375 54.6875 
L 18.109375 46.1875 
Q 21.34375 51.125 25.703125 53.5625 
Q 30.078125 56 35.796875 56 
Q 45.21875 56 50.046875 50.171875 
Q 54.890625 44.34375 54.890625 33.015625 
z
" id="DejaVuSans-110"/>
     <path d="M 19.671875 64.796875 
L 19.671875 8.109375 
L 31.59375 8.109375 
Q 46.6875 8.109375 53.6875 14.9375 
Q 60.6875 21.78125 60.6875 36.53125 
Q 60.6875 51.171875 53.6875 57.984375 
Q 46.6875 64.796875 31.59375 64.796875 
z
M 9.8125 72.90625 
L 30.078125 72.90625 
Q 51.265625 72.90625 61.171875 64.09375 
Q 71.09375 55.28125 71.09375 36.53125 
Q 71.09375 17.671875 61.125 8.828125 
Q 51.171875 0 30.078125 0 
L 9.8125 0 
z
" id="DejaVuSans-68"/>
     <path d="M 2.984375 54.6875 
L 12.5 54.6875 
L 29.59375 8.796875 
L 46.6875 54.6875 
L 56.203125 54.6875 
L 35.6875 0 
L 23.484375 0 
z
" id="DejaVuSans-118"/>
     <path d="M 44.28125 53.078125 
L 44.28125 44.578125 
Q 40.484375 46.53125 36.375 47.5 
Q 32.28125 48.484375 27.875 48.484375 
Q 21.1875 48.484375 17.84375 46.4375 
Q 14.5 44.390625 14.5 40.28125 
Q 14.5 37.15625 16.890625 35.375 
Q 19.28125 33.59375 26.515625 31.984375 
L 29.59375 31.296875 
Q 39.15625 29.25 43.1875 25.515625 
Q 47.21875 21.78125 47.21875 15.09375 
Q 47.21875 7.46875 41.1875 3.015625 
Q 35.15625 -1.421875 24.609375 -1.421875 
Q 20.21875 -1.421875 15.453125 -0.5625 
Q 10.6875 0.296875 5.421875 2 
L 5.421875 11.28125 
Q 10.40625 8.6875 15.234375 7.390625 
Q 20.0625 6.109375 24.8125 6.109375 
Q 31.15625 6.109375 34.5625 8.28125 
Q 37.984375 10.453125 37.984375 14.40625 
Q 37.984375 18.0625 35.515625 20.015625 
Q 33.0625 21.96875 24.703125 23.78125 
L 21.578125 24.515625 
Q 13.234375 26.265625 9.515625 29.90625 
Q 5.8125 33.546875 5.8125 39.890625 
Q 5.8125 47.609375 11.28125 51.796875 
Q 16.75 56 26.8125 56 
Q 31.78125 56 36.171875 55.265625 
Q 40.578125 54.546875 44.28125 53.078125 
z
" id="DejaVuSans-115"/>
     <path d="M 9.8125 72.90625 
L 24.515625 72.90625 
L 43.109375 23.296875 
L 61.8125 72.90625 
L 76.515625 72.90625 
L 76.515625 0 
L 66.890625 0 
L 66.890625 64.015625 
L 48.09375 14.015625 
L 38.1875 14.015625 
L 19.390625 64.015625 
L 19.390625 0 
L 9.8125 0 
z
" id="DejaVuSans-77"/>
     <path d="M 64.40625 67.28125 
L 64.40625 56.890625 
Q 59.421875 61.53125 53.78125 63.8125 
Q 48.140625 66.109375 41.796875 66.109375 
Q 29.296875 66.109375 22.65625 58.46875 
Q 16.015625 50.828125 16.015625 36.375 
Q 16.015625 21.96875 22.65625 14.328125 
Q 29.296875 6.6875 41.796875 6.6875 
Q 48.140625 6.6875 53.78125 8.984375 
Q 59.421875 11.28125 64.40625 15.921875 
L 64.40625 5.609375 
Q 59.234375 2.09375 53.4375 0.328125 
Q 47.65625 -1.421875 41.21875 -1.421875 
Q 24.65625 -1.421875 15.125 8.703125 
Q 5.609375 18.84375 5.609375 36.375 
Q 5.609375 53.953125 15.125 64.078125 
Q 24.65625 74.21875 41.21875 74.21875 
Q 47.75 74.21875 53.53125 72.484375 
Q 59.328125 70.75 64.40625 67.28125 
z
" id="DejaVuSans-67"/>
     <path d="M 8.6875 72.90625 
L 18.609375 72.90625 
L 18.609375 28.609375 
Q 18.609375 16.890625 22.84375 11.734375 
Q 27.09375 6.59375 36.625 6.59375 
Q 46.09375 6.59375 50.34375 11.734375 
Q 54.59375 16.890625 54.59375 28.609375 
L 54.59375 72.90625 
L 64.5 72.90625 
L 64.5 27.390625 
Q 64.5 13.140625 57.4375 5.859375 
Q 50.390625 -1.421875 36.625 -1.421875 
Q 22.796875 -1.421875 15.734375 5.859375 
Q 8.6875 13.140625 8.6875 27.390625 
z
" id="DejaVuSans-85"/>
     <path d="M 48.78125 52.59375 
L 48.78125 44.1875 
Q 44.96875 46.296875 41.140625 47.34375 
Q 37.3125 48.390625 33.40625 48.390625 
Q 24.65625 48.390625 19.8125 42.84375 
Q 14.984375 37.3125 14.984375 27.296875 
Q 14.984375 17.28125 19.8125 11.734375 
Q 24.65625 6.203125 33.40625 6.203125 
Q 37.3125 6.203125 41.140625 7.25 
Q 44.96875 8.296875 48.78125 10.40625 
L 48.78125 2.09375 
Q 45.015625 0.34375 40.984375 -0.53125 
Q 36.96875 -1.421875 32.421875 -1.421875 
Q 20.0625 -1.421875 12.78125 6.34375 
Q 5.515625 14.109375 5.515625 27.296875 
Q 5.515625 40.671875 12.859375 48.328125 
Q 20.21875 56 33.015625 56 
Q 37.15625 56 41.109375 55.140625 
Q 45.0625 54.296875 48.78125 52.59375 
z
" id="DejaVuSans-99"/>
     <path d="M 56.203125 29.59375 
L 56.203125 25.203125 
L 14.890625 25.203125 
Q 15.484375 15.921875 20.484375 11.0625 
Q 25.484375 6.203125 34.421875 6.203125 
Q 39.59375 6.203125 44.453125 7.46875 
Q 49.3125 8.734375 54.109375 11.28125 
L 54.109375 2.78125 
Q 49.265625 0.734375 44.1875 -0.34375 
Q 39.109375 -1.421875 33.890625 -1.421875 
Q 20.796875 -1.421875 13.15625 6.1875 
Q 5.515625 13.8125 5.515625 26.8125 
Q 5.515625 40.234375 12.765625 48.109375 
Q 20.015625 56 32.328125 56 
Q 43.359375 56 49.78125 48.890625 
Q 56.203125 41.796875 56.203125 29.59375 
z
M 47.21875 32.234375 
Q 47.125 39.59375 43.09375 43.984375 
Q 39.0625 48.390625 32.421875 48.390625 
Q 24.90625 48.390625 20.390625 44.140625 
Q 15.875 39.890625 15.1875 32.171875 
z
" id="DejaVuSans-101"/>
     <path d="M 32.171875 -5.078125 
Q 28.375 -14.84375 24.75 -17.8125 
Q 21.140625 -20.796875 15.09375 -20.796875 
L 7.90625 -20.796875 
L 7.90625 -13.28125 
L 13.1875 -13.28125 
Q 16.890625 -13.28125 18.9375 -11.515625 
Q 21 -9.765625 23.484375 -3.21875 
L 25.09375 0.875 
L 2.984375 54.6875 
L 12.5 54.6875 
L 29.59375 11.921875 
L 46.6875 54.6875 
L 56.203125 54.6875 
z
" id="DejaVuSans-121"/>
    </defs>
    <g transform="translate(115.666875 35.472)scale(0.12 -0.12)">
     <use xlink:href="#DejaVuSans-80"/>
     <use x="60.302734" xlink:href="#DejaVuSans-108"/>
     <use x="88.085938" xlink:href="#DejaVuSans-111"/>
     <use x="149.267578" xlink:href="#DejaVuSans-116"/>
     <use x="188.476562" xlink:href="#DejaVuSans-32"/>
     <use x="220.263672" xlink:href="#DejaVuSans-111"/>
     <use x="281.445312" xlink:href="#DejaVuSans-102"/>
     <use x="316.650391" xlink:href="#DejaVuSans-32"/>
     <use x="348.4375" xlink:href="#DejaVuSans-84"/>
     <use x="409.302734" xlink:href="#DejaVuSans-114"/>
     <use x="450.416016" xlink:href="#DejaVuSans-97"/>
     <use x="511.695312" xlink:href="#DejaVuSans-105"/>
     <use x="539.478516" xlink:href="#DejaVuSans-110"/>
     <use x="602.857422" xlink:href="#DejaVuSans-32"/>
     <use x="634.644531" xlink:href="#DejaVuSans-68"/>
     <use x="711.646484" xlink:href="#DejaVuSans-97"/>
     <use x="772.925781" xlink:href="#DejaVuSans-116"/>
     <use x="812.134766" xlink:href="#DejaVuSans-97"/>
     <use x="873.414062" xlink:href="#DejaVuSans-32"/>
     <use x="905.201172" xlink:href="#DejaVuSans-118"/>
     <use x="964.380859" xlink:href="#DejaVuSans-115"/>
     <use x="1016.480469" xlink:href="#DejaVuSans-32"/>
     <use x="1048.267578" xlink:href="#DejaVuSans-77"/>
     <use x="1134.546875" xlink:href="#DejaVuSans-67"/>
     <use x="1204.371094" xlink:href="#DejaVuSans-77"/>
     <use x="1290.650391" xlink:href="#DejaVuSans-67"/>
     <use x="1360.474609" xlink:href="#DejaVuSans-32"/>
     <use x="1392.261719" xlink:href="#DejaVuSans-85"/>
     <use x="1465.455078" xlink:href="#DejaVuSans-110"/>
     <use x="1528.833984" xlink:href="#DejaVuSans-99"/>
     <use x="1583.814453" xlink:href="#DejaVuSans-101"/>
     <use x="1645.337891" xlink:href="#DejaVuSans-114"/>
     <use x="1686.451172" xlink:href="#DejaVuSans-116"/>
     <use x="1725.660156" xlink:href="#DejaVuSans-97"/>
     <use x="1786.939453" xlink:href="#DejaVuSans-105"/>
     <use x="1814.722656" xlink:href="#DejaVuSans-110"/>
     <use x="1878.101562" xlink:href="#DejaVuSans-116"/>
     <use x="1917.310547" xlink:href="#DejaVuSans-121"/>
     <use x="1976.490234" xlink:href="#DejaVuSans-32"/>
    </g>
   </g>
   <g id="legend_1">
    <g id="patch_7">
     <path d="M 277.843437 108.1845 
L 407.72 108.1845 
Q 409.72 108.1845 409.72 106.1845 
L 409.72 48.472 
Q 409.72 46.472 407.72 46.472 
L 277.843437 46.472 
Q 275.843437 46.472 275.843437 48.472 
L 275.843437 106.1845 
Q 275.843437 108.1845 277.843437 108.1845 
z
" style="fill:#ffffff;opacity:0.8;stroke:#cccccc;stroke-linejoin:miter;"/>
    </g>
    <g id="line2d_17">
     <path d="M 279.843437 54.570438 
L 299.843437 54.570438 
" style="fill:none;stroke:#1f77b4;stroke-linecap:square;stroke-width:1.5;"/>
    </g>
    <g id="line2d_18"/>
    <g id="text_14">
     <!-- actual -->
     <defs>
      <path d="M 8.5 21.578125 
L 8.5 54.6875 
L 17.484375 54.6875 
L 17.484375 21.921875 
Q 17.484375 14.15625 20.5 10.265625 
Q 23.53125 6.390625 29.59375 6.390625 
Q 36.859375 6.390625 41.078125 11.03125 
Q 45.3125 15.671875 45.3125 23.6875 
L 45.3125 54.6875 
L 54.296875 54.6875 
L 54.296875 0 
L 45.3125 0 
L 45.3125 8.40625 
Q 42.046875 3.421875 37.71875 1 
Q 33.40625 -1.421875 27.6875 -1.421875 
Q 18.265625 -1.421875 13.375 4.4375 
Q 8.5 10.296875 8.5 21.578125 
z
M 31.109375 56 
z
" id="DejaVuSans-117"/>
     </defs>
     <g transform="translate(307.843437 58.070438)scale(0.1 -0.1)">
      <use xlink:href="#DejaVuSans-97"/>
      <use x="61.279297" xlink:href="#DejaVuSans-99"/>
      <use x="116.259766" xlink:href="#DejaVuSans-116"/>
      <use x="155.46875" xlink:href="#DejaVuSans-117"/>
      <use x="218.847656" xlink:href="#DejaVuSans-97"/>
      <use x="280.126953" xlink:href="#DejaVuSans-108"/>
     </g>
    </g>
    <g id="line2d_19">
     <path d="M 279.843437 69.248563 
L 299.843437 69.248563 
" style="fill:none;stroke:#ff7f0e;stroke-linecap:square;stroke-width:1.5;"/>
    </g>
    <g id="line2d_20"/>
    <g id="text_15">
     <!-- pred. (mean) -->
     <defs>
      <path d="M 18.109375 8.203125 
L 18.109375 -20.796875 
L 9.078125 -20.796875 
L 9.078125 54.6875 
L 18.109375 54.6875 
L 18.109375 46.390625 
Q 20.953125 51.265625 25.265625 53.625 
Q 29.59375 56 35.59375 56 
Q 45.5625 56 51.78125 48.09375 
Q 58.015625 40.1875 58.015625 27.296875 
Q 58.015625 14.40625 51.78125 6.484375 
Q 45.5625 -1.421875 35.59375 -1.421875 
Q 29.59375 -1.421875 25.265625 0.953125 
Q 20.953125 3.328125 18.109375 8.203125 
z
M 48.6875 27.296875 
Q 48.6875 37.203125 44.609375 42.84375 
Q 40.53125 48.484375 33.40625 48.484375 
Q 26.265625 48.484375 22.1875 42.84375 
Q 18.109375 37.203125 18.109375 27.296875 
Q 18.109375 17.390625 22.1875 11.75 
Q 26.265625 6.109375 33.40625 6.109375 
Q 40.53125 6.109375 44.609375 11.75 
Q 48.6875 17.390625 48.6875 27.296875 
z
" id="DejaVuSans-112"/>
      <path d="M 45.40625 46.390625 
L 45.40625 75.984375 
L 54.390625 75.984375 
L 54.390625 0 
L 45.40625 0 
L 45.40625 8.203125 
Q 42.578125 3.328125 38.25 0.953125 
Q 33.9375 -1.421875 27.875 -1.421875 
Q 17.96875 -1.421875 11.734375 6.484375 
Q 5.515625 14.40625 5.515625 27.296875 
Q 5.515625 40.1875 11.734375 48.09375 
Q 17.96875 56 27.875 56 
Q 33.9375 56 38.25 53.625 
Q 42.578125 51.265625 45.40625 46.390625 
z
M 14.796875 27.296875 
Q 14.796875 17.390625 18.875 11.75 
Q 22.953125 6.109375 30.078125 6.109375 
Q 37.203125 6.109375 41.296875 11.75 
Q 45.40625 17.390625 45.40625 27.296875 
Q 45.40625 37.203125 41.296875 42.84375 
Q 37.203125 48.484375 30.078125 48.484375 
Q 22.953125 48.484375 18.875 42.84375 
Q 14.796875 37.203125 14.796875 27.296875 
z
" id="DejaVuSans-100"/>
      <path d="M 31 75.875 
Q 24.46875 64.65625 21.28125 53.65625 
Q 18.109375 42.671875 18.109375 31.390625 
Q 18.109375 20.125 21.3125 9.0625 
Q 24.515625 -2 31 -13.1875 
L 23.1875 -13.1875 
Q 15.875 -1.703125 12.234375 9.375 
Q 8.59375 20.453125 8.59375 31.390625 
Q 8.59375 42.28125 12.203125 53.3125 
Q 15.828125 64.359375 23.1875 75.875 
z
" id="DejaVuSans-40"/>
      <path d="M 52 44.1875 
Q 55.375 50.25 60.0625 53.125 
Q 64.75 56 71.09375 56 
Q 79.640625 56 84.28125 50.015625 
Q 88.921875 44.046875 88.921875 33.015625 
L 88.921875 0 
L 79.890625 0 
L 79.890625 32.71875 
Q 79.890625 40.578125 77.09375 44.375 
Q 74.3125 48.1875 68.609375 48.1875 
Q 61.625 48.1875 57.5625 43.546875 
Q 53.515625 38.921875 53.515625 30.90625 
L 53.515625 0 
L 44.484375 0 
L 44.484375 32.71875 
Q 44.484375 40.625 41.703125 44.40625 
Q 38.921875 48.1875 33.109375 48.1875 
Q 26.21875 48.1875 22.15625 43.53125 
Q 18.109375 38.875 18.109375 30.90625 
L 18.109375 0 
L 9.078125 0 
L 9.078125 54.6875 
L 18.109375 54.6875 
L 18.109375 46.1875 
Q 21.1875 51.21875 25.484375 53.609375 
Q 29.78125 56 35.6875 56 
Q 41.65625 56 45.828125 52.96875 
Q 50 49.953125 52 44.1875 
z
" id="DejaVuSans-109"/>
      <path d="M 8.015625 75.875 
L 15.828125 75.875 
Q 23.140625 64.359375 26.78125 53.3125 
Q 30.421875 42.28125 30.421875 31.390625 
Q 30.421875 20.453125 26.78125 9.375 
Q 23.140625 -1.703125 15.828125 -13.1875 
L 8.015625 -13.1875 
Q 14.5 -2 17.703125 9.0625 
Q 20.90625 20.125 20.90625 31.390625 
Q 20.90625 42.671875 17.703125 53.65625 
Q 14.5 64.65625 8.015625 75.875 
z
" id="DejaVuSans-41"/>
     </defs>
     <g transform="translate(307.843437 72.748563)scale(0.1 -0.1)">
      <use xlink:href="#DejaVuSans-112"/>
      <use x="63.476562" xlink:href="#DejaVuSans-114"/>
      <use x="104.558594" xlink:href="#DejaVuSans-101"/>
      <use x="166.082031" xlink:href="#DejaVuSans-100"/>
      <use x="229.558594" xlink:href="#DejaVuSans-46"/>
      <use x="261.345703" xlink:href="#DejaVuSans-32"/>
      <use x="293.132812" xlink:href="#DejaVuSans-40"/>
      <use x="332.146484" xlink:href="#DejaVuSans-109"/>
      <use x="429.558594" xlink:href="#DejaVuSans-101"/>
      <use x="491.082031" xlink:href="#DejaVuSans-97"/>
      <use x="552.361328" xlink:href="#DejaVuSans-110"/>
      <use x="615.740234" xlink:href="#DejaVuSans-41"/>
     </g>
    </g>
    <g id="line2d_21">
     <path d="M 279.843437 83.926688 
L 299.843437 83.926688 
" style="fill:none;stroke:#2ca02c;stroke-linecap:square;stroke-width:1.5;"/>
    </g>
    <g id="line2d_22"/>
    <g id="text_16">
     <!-- pred.(5th percen.) -->
     <defs>
      <path d="M 10.796875 72.90625 
L 49.515625 72.90625 
L 49.515625 64.59375 
L 19.828125 64.59375 
L 19.828125 46.734375 
Q 21.96875 47.46875 24.109375 47.828125 
Q 26.265625 48.1875 28.421875 48.1875 
Q 40.625 48.1875 47.75 41.5 
Q 54.890625 34.8125 54.890625 23.390625 
Q 54.890625 11.625 47.5625 5.09375 
Q 40.234375 -1.421875 26.90625 -1.421875 
Q 22.3125 -1.421875 17.546875 -0.640625 
Q 12.796875 0.140625 7.71875 1.703125 
L 7.71875 11.625 
Q 12.109375 9.234375 16.796875 8.0625 
Q 21.484375 6.890625 26.703125 6.890625 
Q 35.15625 6.890625 40.078125 11.328125 
Q 45.015625 15.765625 45.015625 23.390625 
Q 45.015625 31 40.078125 35.4375 
Q 35.15625 39.890625 26.703125 39.890625 
Q 22.75 39.890625 18.8125 39.015625 
Q 14.890625 38.140625 10.796875 36.28125 
z
" id="DejaVuSans-53"/>
      <path d="M 54.890625 33.015625 
L 54.890625 0 
L 45.90625 0 
L 45.90625 32.71875 
Q 45.90625 40.484375 42.875 44.328125 
Q 39.84375 48.1875 33.796875 48.1875 
Q 26.515625 48.1875 22.3125 43.546875 
Q 18.109375 38.921875 18.109375 30.90625 
L 18.109375 0 
L 9.078125 0 
L 9.078125 75.984375 
L 18.109375 75.984375 
L 18.109375 46.1875 
Q 21.34375 51.125 25.703125 53.5625 
Q 30.078125 56 35.796875 56 
Q 45.21875 56 50.046875 50.171875 
Q 54.890625 44.34375 54.890625 33.015625 
z
" id="DejaVuSans-104"/>
     </defs>
     <g transform="translate(307.843437 87.426688)scale(0.1 -0.1)">
      <use xlink:href="#DejaVuSans-112"/>
      <use x="63.476562" xlink:href="#DejaVuSans-114"/>
      <use x="104.558594" xlink:href="#DejaVuSans-101"/>
      <use x="166.082031" xlink:href="#DejaVuSans-100"/>
      <use x="229.558594" xlink:href="#DejaVuSans-46"/>
      <use x="261.345703" xlink:href="#DejaVuSans-40"/>
      <use x="300.359375" xlink:href="#DejaVuSans-53"/>
      <use x="363.982422" xlink:href="#DejaVuSans-116"/>
      <use x="403.191406" xlink:href="#DejaVuSans-104"/>
      <use x="466.570312" xlink:href="#DejaVuSans-32"/>
      <use x="498.357422" xlink:href="#DejaVuSans-112"/>
      <use x="561.833984" xlink:href="#DejaVuSans-101"/>
      <use x="623.357422" xlink:href="#DejaVuSans-114"/>
      <use x="664.439453" xlink:href="#DejaVuSans-99"/>
      <use x="719.419922" xlink:href="#DejaVuSans-101"/>
      <use x="780.943359" xlink:href="#DejaVuSans-110"/>
      <use x="844.322266" xlink:href="#DejaVuSans-46"/>
      <use x="876.109375" xlink:href="#DejaVuSans-41"/>
     </g>
    </g>
    <g id="line2d_23">
     <path d="M 279.843437 98.604813 
L 299.843437 98.604813 
" style="fill:none;stroke:#d62728;stroke-linecap:square;stroke-width:1.5;"/>
    </g>
    <g id="line2d_24"/>
    <g id="text_17">
     <!-- pred.(95th percen.) -->
     <defs>
      <path d="M 10.984375 1.515625 
L 10.984375 10.5 
Q 14.703125 8.734375 18.5 7.8125 
Q 22.3125 6.890625 25.984375 6.890625 
Q 35.75 6.890625 40.890625 13.453125 
Q 46.046875 20.015625 46.78125 33.40625 
Q 43.953125 29.203125 39.59375 26.953125 
Q 35.25 24.703125 29.984375 24.703125 
Q 19.046875 24.703125 12.671875 31.3125 
Q 6.296875 37.9375 6.296875 49.421875 
Q 6.296875 60.640625 12.9375 67.421875 
Q 19.578125 74.21875 30.609375 74.21875 
Q 43.265625 74.21875 49.921875 64.515625 
Q 56.59375 54.828125 56.59375 36.375 
Q 56.59375 19.140625 48.40625 8.859375 
Q 40.234375 -1.421875 26.421875 -1.421875 
Q 22.703125 -1.421875 18.890625 -0.6875 
Q 15.09375 0.046875 10.984375 1.515625 
z
M 30.609375 32.421875 
Q 37.25 32.421875 41.125 36.953125 
Q 45.015625 41.5 45.015625 49.421875 
Q 45.015625 57.28125 41.125 61.84375 
Q 37.25 66.40625 30.609375 66.40625 
Q 23.96875 66.40625 20.09375 61.84375 
Q 16.21875 57.28125 16.21875 49.421875 
Q 16.21875 41.5 20.09375 36.953125 
Q 23.96875 32.421875 30.609375 32.421875 
z
" id="DejaVuSans-57"/>
     </defs>
     <g transform="translate(307.843437 102.104813)scale(0.1 -0.1)">
      <use xlink:href="#DejaVuSans-112"/>
      <use x="63.476562" xlink:href="#DejaVuSans-114"/>
      <use x="104.558594" xlink:href="#DejaVuSans-101"/>
      <use x="166.082031" xlink:href="#DejaVuSans-100"/>
      <use x="229.558594" xlink:href="#DejaVuSans-46"/>
      <use x="261.345703" xlink:href="#DejaVuSans-40"/>
      <use x="300.359375" xlink:href="#DejaVuSans-57"/>
      <use x="363.982422" xlink:href="#DejaVuSans-53"/>
      <use x="427.605469" xlink:href="#DejaVuSans-116"/>
      <use x="466.814453" xlink:href="#DejaVuSans-104"/>
      <use x="530.193359" xlink:href="#DejaVuSans-32"/>
      <use x="561.980469" xlink:href="#DejaVuSans-112"/>
      <use x="625.457031" xlink:href="#DejaVuSans-101"/>
      <use x="686.980469" xlink:href="#DejaVuSans-114"/>
      <use x="728.0625" xlink:href="#DejaVuSans-99"/>
      <use x="783.042969" xlink:href="#DejaVuSans-101"/>
      <use x="844.566406" xlink:href="#DejaVuSans-110"/>
      <use x="907.945312" xlink:href="#DejaVuSans-46"/>
      <use x="939.732422" xlink:href="#DejaVuSans-41"/>
     </g>
    </g>
   </g>
  </g>
 </g>
 <defs>
  <clipPath id="p84daf29d77">
   <rect height="266.112" width="357.12" x="57.6" y="41.472"/>
  </clipPath>
 </defs>
</svg>
