<?xml version="1.0" encoding="utf-8" standalone="no"?>
<!DOCTYPE svg PUBLIC "-//W3C//DTD SVG 1.1//EN"
  "http://www.w3.org/Graphics/SVG/1.1/DTD/svg11.dtd">
<!-- Created with matplotlib (https://matplotlib.org/) -->
<svg height="345.6pt" version="1.1" viewBox="0 0 460.8 345.6" width="460.8pt" xmlns="http://www.w3.org/2000/svg" xmlns:xlink="http://www.w3.org/1999/xlink">
 <defs>
  <style type="text/css">
*{stroke-linecap:butt;stroke-linejoin:round;}
  </style>
 </defs>
 <g id="figure_1">
  <g id="patch_1">
   <path d="M 0 345.6 
L 460.8 345.6 
L 460.8 0 
L 0 0 
z
" style="fill:#ffffff;"/>
  </g>
  <g id="axes_1">
   <g id="patch_2">
    <path d="M 57.6 307.584 
L 414.72 307.584 
L 414.72 41.472 
L 57.6 41.472 
z
" style="fill:#ffffff;"/>
   </g>
   <g id="PolyCollection_1">
    <path clip-path="url(#p9c542289d8)" d="M 73.832727 97.737071 
L 73.832727 101.663983 
L 75.48072 100.118337 
L 77.128713 114.196445 
L 78.776705 108.81612 
L 80.424698 129.187797 
L 82.07269 146.091981 
L 83.720683 157.709695 
L 85.368676 164.908165 
L 87.016668 149.574078 
L 88.664661 151.8973 
L 90.312653 160.575114 
L 91.960646 168.461677 
L 93.608639 182.795347 
L 95.256631 187.92859 
L 96.904624 213.472749 
L 98.552617 226.629714 
L 100.200609 234.717951 
L 101.848602 241.01468 
L 103.496594 251.266311 
L 105.144587 265.247305 
L 106.79258 267.472149 
L 108.440572 267.93151 
L 110.088565 268.579894 
L 111.736557 265.745772 
L 113.38455 266.740634 
L 115.032543 268.31541 
L 116.680535 273.457486 
L 118.328528 277.699555 
L 119.976521 277.343966 
L 121.624513 280.254402 
L 123.272506 280.858544 
L 124.920498 281.201087 
L 126.568491 281.075621 
L 128.216484 277.937282 
L 129.864476 279.145496 
L 131.512469 279.642805 
L 133.160461 280.573537 
L 134.808454 280.856313 
L 136.456447 281.327405 
L 138.104439 281.942409 
L 139.752432 279.003582 
L 141.400425 277.56688 
L 143.048417 272.813507 
L 144.69641 265.196891 
L 146.344402 244.914361 
L 147.992395 228.70656 
L 149.640388 214.359114 
L 151.28838 199.888334 
L 152.936373 172.984691 
L 154.584365 152.07301 
L 156.232358 138.632071 
L 157.880351 119.106567 
L 159.528343 113.914695 
L 161.176336 99.998645 
L 162.824329 102.296295 
L 164.472321 95.091931 
L 166.120314 90.358595 
L 167.768306 79.015176 
L 169.416299 76.822406 
L 171.064292 71.08616 
L 172.712284 71.63308 
L 174.360277 71.470304 
L 176.008269 63.748376 
L 177.656262 87.956373 
L 179.304255 87.743622 
L 180.952247 101.780083 
L 182.60024 103.588819 
L 184.248233 108.818721 
L 185.896225 130.21738 
L 187.544218 133.967976 
L 189.19221 132.57189 
L 190.840203 135.801452 
L 192.488196 143.709242 
L 194.136188 159.95811 
L 195.784181 172.711694 
L 197.432174 179.790394 
L 199.080166 190.36102 
L 200.728159 197.55076 
L 202.376151 202.812069 
L 204.024144 211.522812 
L 205.672137 220.402067 
L 207.320129 225.843578 
L 208.968122 230.87877 
L 210.616114 237.77052 
L 212.264107 235.049701 
L 213.9121 235.279186 
L 215.560092 234.706087 
L 217.208085 236.62996 
L 218.856078 231.546707 
L 220.50407 232.939822 
L 222.152063 244.83644 
L 223.800055 247.891427 
L 225.448048 248.445055 
L 227.096041 258.822263 
L 228.744033 268.293476 
L 230.392026 270.29762 
L 232.040018 270.777316 
L 233.688011 270.132974 
L 235.336004 271.821824 
L 236.983996 271.858777 
L 238.631989 272.258308 
L 240.279982 275.250932 
L 241.927974 278.044237 
L 243.575967 281.002433 
L 245.223959 282.623519 
L 246.871952 283.850471 
L 248.519945 285.341061 
L 250.167937 284.837496 
L 251.81593 284.30378 
L 253.463922 284.446244 
L 255.111915 285.328682 
L 256.759908 284.581535 
L 258.4079 282.042405 
L 260.055893 281.34443 
L 261.703886 278.822208 
L 263.351878 273.251363 
L 264.999871 267.066849 
L 266.647863 258.8237 
L 268.295856 249.314899 
L 269.943849 231.220562 
L 271.591841 226.478717 
L 273.239834 219.646143 
L 274.887826 208.358796 
L 276.535819 196.772303 
L 278.183812 192.736698 
L 279.831804 192.664234 
L 281.479797 167.09335 
L 283.12779 164.592379 
L 284.775782 163.45165 
L 286.423775 155.491403 
L 288.071767 137.351724 
L 289.71976 132.56375 
L 291.367753 148.66344 
L 293.015745 140.343999 
L 294.663738 128.071773 
L 296.311731 130.670526 
L 297.959723 163.931944 
L 299.607716 164.944906 
L 301.255708 126.223684 
L 302.903701 136.751557 
L 304.551694 155.624097 
L 306.199686 157.548385 
L 307.847679 128.696225 
L 309.495671 144.282462 
L 311.143664 173.879361 
L 312.791657 176.515702 
L 314.439649 170.001986 
L 316.087642 161.370045 
L 317.735635 170.522643 
L 319.383627 177.103195 
L 321.03162 162.386219 
L 322.679612 163.047188 
L 324.327605 175.509576 
L 325.975598 199.257269 
L 327.62359 201.060917 
L 329.271583 190.680225 
L 330.919575 207.019547 
L 332.567568 220.944226 
L 334.215561 224.340638 
L 335.863553 229.880904 
L 337.511546 240.673035 
L 339.159539 259.672031 
L 340.807531 265.97591 
L 342.455524 265.290491 
L 344.103516 269.399831 
L 345.751509 273.877624 
L 347.399502 281.376596 
L 349.047494 281.333804 
L 350.695487 282.749667 
L 352.343479 284.756417 
L 353.991472 284.655529 
L 355.639465 284.653919 
L 357.287457 284.229596 
L 358.93545 283.746346 
L 360.583443 283.652691 
L 362.231435 284.67035 
L 363.879428 285.485801 
L 365.52742 286.015535 
L 367.175413 286.623226 
L 368.823406 286.806328 
L 370.471398 286.634424 
L 372.119391 284.13414 
L 373.767383 282.144754 
L 375.415376 280.232606 
L 377.063369 277.400071 
L 378.711361 271.389271 
L 380.359354 257.509337 
L 382.007347 244.775964 
L 383.655339 221.198406 
L 385.303332 190.794561 
L 386.951324 176.218448 
L 388.599317 171.05886 
L 390.24731 163.90363 
L 391.895302 146.566625 
L 393.543295 146.924819 
L 395.191287 161.513034 
L 396.83928 159.983642 
L 398.487273 143.702663 
L 398.487273 136.560809 
L 398.487273 136.560809 
L 396.83928 149.096196 
L 395.191287 156.906375 
L 393.543295 139.74971 
L 391.895302 137.29667 
L 390.24731 154.640966 
L 388.599317 162.532409 
L 386.951324 166.493946 
L 385.303332 182.035336 
L 383.655339 210.44648 
L 382.007347 240.334191 
L 380.359354 250.204063 
L 378.711361 260.051375 
L 377.063369 264.247968 
L 375.415376 266.263115 
L 373.767383 267.404064 
L 372.119391 269.183378 
L 370.471398 271.174034 
L 368.823406 271.42407 
L 367.175413 271.41486 
L 365.52742 270.73867 
L 363.879428 270.539773 
L 362.231435 269.751637 
L 360.583443 268.692316 
L 358.93545 269.04777 
L 357.287457 269.178544 
L 355.639465 269.695712 
L 353.991472 270.025037 
L 352.343479 269.892153 
L 350.695487 268.422463 
L 349.047494 267.852486 
L 347.399502 267.698698 
L 345.751509 262.313404 
L 344.103516 259.534728 
L 342.455524 257.561569 
L 340.807531 258.334576 
L 339.159539 254.197954 
L 337.511546 236.30733 
L 335.863553 223.088102 
L 334.215561 216.738145 
L 332.567568 211.050942 
L 330.919575 199.323118 
L 329.271583 182.420576 
L 327.62359 181.276473 
L 325.975598 193.280198 
L 324.327605 167.878295 
L 322.679612 157.855951 
L 321.03162 151.057216 
L 319.383627 164.263612 
L 317.735635 165.740062 
L 316.087642 150.839564 
L 314.439649 162.012327 
L 312.791657 162.201616 
L 311.143664 169.728139 
L 309.495671 133.439386 
L 307.847679 123.145168 
L 306.199686 142.923512 
L 304.551694 150.877874 
L 302.903701 130.086402 
L 301.255708 121.444077 
L 299.607716 145.598263 
L 297.959723 154.663715 
L 296.311731 124.322059 
L 294.663738 123.934595 
L 293.015745 133.2166 
L 291.367753 145.847701 
L 289.71976 121.551989 
L 288.071767 125.72726 
L 286.423775 148.618859 
L 284.775782 153.699049 
L 283.12779 158.150905 
L 281.479797 154.801908 
L 279.831804 179.105859 
L 278.183812 183.646596 
L 276.535819 185.96138 
L 274.887826 198.300661 
L 273.239834 211.086051 
L 271.591841 221.80292 
L 269.943849 226.703066 
L 268.295856 245.61483 
L 266.647863 250.864282 
L 264.999871 257.093545 
L 263.351878 261.512594 
L 261.703886 265.320238 
L 260.055893 266.920754 
L 258.4079 267.497001 
L 256.759908 269.730735 
L 255.111915 270.471639 
L 253.463922 269.212454 
L 251.81593 269.315377 
L 250.167937 269.982559 
L 248.519945 270.453736 
L 246.871952 269.253551 
L 245.223959 268.458066 
L 243.575967 267.192295 
L 241.927974 265.41156 
L 240.279982 263.130262 
L 238.631989 261.03693 
L 236.983996 261.337585 
L 235.336004 260.39336 
L 233.688011 260.259746 
L 232.040018 260.515681 
L 230.392026 260.890438 
L 228.744033 259.216488 
L 227.096041 251.381909 
L 225.448048 246.061385 
L 223.800055 245.205951 
L 222.152063 241.429638 
L 220.50407 229.443899 
L 218.856078 223.336774 
L 217.208085 232.432681 
L 215.560092 230.834777 
L 213.9121 231.729281 
L 212.264107 228.962168 
L 210.616114 232.426774 
L 208.968122 225.931808 
L 207.320129 217.235994 
L 205.672137 213.401107 
L 204.024144 200.63339 
L 202.376151 194.989667 
L 200.728159 185.843993 
L 199.080166 182.47 
L 197.432174 172.33959 
L 195.784181 161.994082 
L 194.136188 155.947112 
L 192.488196 139.937342 
L 190.840203 132.526035 
L 189.19221 129.590411 
L 187.544218 126.16194 
L 185.896225 119.684035 
L 184.248233 95.926371 
L 182.60024 95.939567 
L 180.952247 88.476397 
L 179.304255 76.212021 
L 177.656262 66.36734 
L 176.008269 53.568 
L 174.360277 60.840333 
L 172.712284 57.177848 
L 171.064292 60.123503 
L 169.416299 64.940645 
L 167.768306 71.295726 
L 166.120314 81.712397 
L 164.472321 87.228944 
L 162.824329 93.394134 
L 161.176336 94.361172 
L 159.528343 109.047748 
L 157.880351 115.059813 
L 156.232358 133.471518 
L 154.584365 142.326184 
L 152.936373 161.832496 
L 151.28838 188.054014 
L 149.640388 205.837083 
L 147.992395 224.837291 
L 146.344402 239.541637 
L 144.69641 256.263776 
L 143.048417 261.256101 
L 141.400425 264.312953 
L 139.752432 265.554991 
L 138.104439 267.929155 
L 136.456447 267.230694 
L 134.808454 267.171403 
L 133.160461 266.537448 
L 131.512469 266.541993 
L 129.864476 265.304871 
L 128.216484 264.66717 
L 126.568491 267.353185 
L 124.920498 267.061737 
L 123.272506 267.529361 
L 121.624513 266.307147 
L 119.976521 264.881013 
L 118.328528 265.426573 
L 116.680535 262.010731 
L 115.032543 258.379722 
L 113.38455 257.478223 
L 111.736557 256.918986 
L 110.088565 259.47846 
L 108.440572 258.690711 
L 106.79258 258.950958 
L 105.144587 258.11824 
L 103.496594 246.386552 
L 101.848602 236.36251 
L 100.200609 229.561057 
L 98.552617 217.133469 
L 96.904624 205.133952 
L 95.256631 180.932824 
L 93.608639 174.091696 
L 91.960646 163.296002 
L 90.312653 153.784029 
L 88.664661 146.988984 
L 87.016668 140.000713 
L 85.368676 155.470629 
L 83.720683 151.938955 
L 82.07269 141.95024 
L 80.424698 113.964338 
L 78.776705 103.156745 
L 77.128713 97.75036 
L 75.48072 90.120512 
L 73.832727 97.737071 
z
" style="fill:#008000;fill-opacity:0.4;"/>
   </g>
   <g id="matplotlib.axis_1">
    <g id="xtick_1">
     <g id="line2d_1">
      <defs>
       <path d="M 0 0 
L 0 3.5 
" id="m250c66a8b1" style="stroke:#000000;stroke-width:0.8;"/>
      </defs>
      <g>
       <use style="stroke:#000000;stroke-width:0.8;" x="73.832727" xlink:href="#m250c66a8b1" y="307.584"/>
      </g>
     </g>
     <g id="text_1">
      <!-- 0.0 -->
      <defs>
       <path d="M 31.78125 66.40625 
Q 24.171875 66.40625 20.328125 58.90625 
Q 16.5 51.421875 16.5 36.375 
Q 16.5 21.390625 20.328125 13.890625 
Q 24.171875 6.390625 31.78125 6.390625 
Q 39.453125 6.390625 43.28125 13.890625 
Q 47.125 21.390625 47.125 36.375 
Q 47.125 51.421875 43.28125 58.90625 
Q 39.453125 66.40625 31.78125 66.40625 
z
M 31.78125 74.21875 
Q 44.046875 74.21875 50.515625 64.515625 
Q 56.984375 54.828125 56.984375 36.375 
Q 56.984375 17.96875 50.515625 8.265625 
Q 44.046875 -1.421875 31.78125 -1.421875 
Q 19.53125 -1.421875 13.0625 8.265625 
Q 6.59375 17.96875 6.59375 36.375 
Q 6.59375 54.828125 13.0625 64.515625 
Q 19.53125 74.21875 31.78125 74.21875 
z
" id="DejaVuSans-48"/>
       <path d="M 10.6875 12.40625 
L 21 12.40625 
L 21 0 
L 10.6875 0 
z
" id="DejaVuSans-46"/>
      </defs>
      <g transform="translate(65.881165 322.182437)scale(0.1 -0.1)">
       <use xlink:href="#DejaVuSans-48"/>
       <use x="63.623047" xlink:href="#DejaVuSans-46"/>
       <use x="95.410156" xlink:href="#DejaVuSans-48"/>
      </g>
     </g>
    </g>
    <g id="xtick_2">
     <g id="line2d_2">
      <g>
       <use style="stroke:#000000;stroke-width:0.8;" x="138.763636" xlink:href="#m250c66a8b1" y="307.584"/>
      </g>
     </g>
     <g id="text_2">
      <!-- 0.2 -->
      <defs>
       <path d="M 19.1875 8.296875 
L 53.609375 8.296875 
L 53.609375 0 
L 7.328125 0 
L 7.328125 8.296875 
Q 12.9375 14.109375 22.625 23.890625 
Q 32.328125 33.6875 34.8125 36.53125 
Q 39.546875 41.84375 41.421875 45.53125 
Q 43.3125 49.21875 43.3125 52.78125 
Q 43.3125 58.59375 39.234375 62.25 
Q 35.15625 65.921875 28.609375 65.921875 
Q 23.96875 65.921875 18.8125 64.3125 
Q 13.671875 62.703125 7.8125 59.421875 
L 7.8125 69.390625 
Q 13.765625 71.78125 18.9375 73 
Q 24.125 74.21875 28.421875 74.21875 
Q 39.75 74.21875 46.484375 68.546875 
Q 53.21875 62.890625 53.21875 53.421875 
Q 53.21875 48.921875 51.53125 44.890625 
Q 49.859375 40.875 45.40625 35.40625 
Q 44.1875 33.984375 37.640625 27.21875 
Q 31.109375 20.453125 19.1875 8.296875 
z
" id="DejaVuSans-50"/>
      </defs>
      <g transform="translate(130.812074 322.182437)scale(0.1 -0.1)">
       <use xlink:href="#DejaVuSans-48"/>
       <use x="63.623047" xlink:href="#DejaVuSans-46"/>
       <use x="95.410156" xlink:href="#DejaVuSans-50"/>
      </g>
     </g>
    </g>
    <g id="xtick_3">
     <g id="line2d_3">
      <g>
       <use style="stroke:#000000;stroke-width:0.8;" x="203.694545" xlink:href="#m250c66a8b1" y="307.584"/>
      </g>
     </g>
     <g id="text_3">
      <!-- 0.4 -->
      <defs>
       <path d="M 37.796875 64.3125 
L 12.890625 25.390625 
L 37.796875 25.390625 
z
M 35.203125 72.90625 
L 47.609375 72.90625 
L 47.609375 25.390625 
L 58.015625 25.390625 
L 58.015625 17.1875 
L 47.609375 17.1875 
L 47.609375 0 
L 37.796875 0 
L 37.796875 17.1875 
L 4.890625 17.1875 
L 4.890625 26.703125 
z
" id="DejaVuSans-52"/>
      </defs>
      <g transform="translate(195.742983 322.182437)scale(0.1 -0.1)">
       <use xlink:href="#DejaVuSans-48"/>
       <use x="63.623047" xlink:href="#DejaVuSans-46"/>
       <use x="95.410156" xlink:href="#DejaVuSans-52"/>
      </g>
     </g>
    </g>
    <g id="xtick_4">
     <g id="line2d_4">
      <g>
       <use style="stroke:#000000;stroke-width:0.8;" x="268.625455" xlink:href="#m250c66a8b1" y="307.584"/>
      </g>
     </g>
     <g id="text_4">
      <!-- 0.6 -->
      <defs>
       <path d="M 33.015625 40.375 
Q 26.375 40.375 22.484375 35.828125 
Q 18.609375 31.296875 18.609375 23.390625 
Q 18.609375 15.53125 22.484375 10.953125 
Q 26.375 6.390625 33.015625 6.390625 
Q 39.65625 6.390625 43.53125 10.953125 
Q 47.40625 15.53125 47.40625 23.390625 
Q 47.40625 31.296875 43.53125 35.828125 
Q 39.65625 40.375 33.015625 40.375 
z
M 52.59375 71.296875 
L 52.59375 62.3125 
Q 48.875 64.0625 45.09375 64.984375 
Q 41.3125 65.921875 37.59375 65.921875 
Q 27.828125 65.921875 22.671875 59.328125 
Q 17.53125 52.734375 16.796875 39.40625 
Q 19.671875 43.65625 24.015625 45.921875 
Q 28.375 48.1875 33.59375 48.1875 
Q 44.578125 48.1875 50.953125 41.515625 
Q 57.328125 34.859375 57.328125 23.390625 
Q 57.328125 12.15625 50.6875 5.359375 
Q 44.046875 -1.421875 33.015625 -1.421875 
Q 20.359375 -1.421875 13.671875 8.265625 
Q 6.984375 17.96875 6.984375 36.375 
Q 6.984375 53.65625 15.1875 63.9375 
Q 23.390625 74.21875 37.203125 74.21875 
Q 40.921875 74.21875 44.703125 73.484375 
Q 48.484375 72.75 52.59375 71.296875 
z
" id="DejaVuSans-54"/>
      </defs>
      <g transform="translate(260.673892 322.182437)scale(0.1 -0.1)">
       <use xlink:href="#DejaVuSans-48"/>
       <use x="63.623047" xlink:href="#DejaVuSans-46"/>
       <use x="95.410156" xlink:href="#DejaVuSans-54"/>
      </g>
     </g>
    </g>
    <g id="xtick_5">
     <g id="line2d_5">
      <g>
       <use style="stroke:#000000;stroke-width:0.8;" x="333.556364" xlink:href="#m250c66a8b1" y="307.584"/>
      </g>
     </g>
     <g id="text_5">
      <!-- 0.8 -->
      <defs>
       <path d="M 31.78125 34.625 
Q 24.75 34.625 20.71875 30.859375 
Q 16.703125 27.09375 16.703125 20.515625 
Q 16.703125 13.921875 20.71875 10.15625 
Q 24.75 6.390625 31.78125 6.390625 
Q 38.8125 6.390625 42.859375 10.171875 
Q 46.921875 13.96875 46.921875 20.515625 
Q 46.921875 27.09375 42.890625 30.859375 
Q 38.875 34.625 31.78125 34.625 
z
M 21.921875 38.8125 
Q 15.578125 40.375 12.03125 44.71875 
Q 8.5 49.078125 8.5 55.328125 
Q 8.5 64.0625 14.71875 69.140625 
Q 20.953125 74.21875 31.78125 74.21875 
Q 42.671875 74.21875 48.875 69.140625 
Q 55.078125 64.0625 55.078125 55.328125 
Q 55.078125 49.078125 51.53125 44.71875 
Q 48 40.375 41.703125 38.8125 
Q 48.828125 37.15625 52.796875 32.3125 
Q 56.78125 27.484375 56.78125 20.515625 
Q 56.78125 9.90625 50.3125 4.234375 
Q 43.84375 -1.421875 31.78125 -1.421875 
Q 19.734375 -1.421875 13.25 4.234375 
Q 6.78125 9.90625 6.78125 20.515625 
Q 6.78125 27.484375 10.78125 32.3125 
Q 14.796875 37.15625 21.921875 38.8125 
z
M 18.3125 54.390625 
Q 18.3125 48.734375 21.84375 45.5625 
Q 25.390625 42.390625 31.78125 42.390625 
Q 38.140625 42.390625 41.71875 45.5625 
Q 45.3125 48.734375 45.3125 54.390625 
Q 45.3125 60.0625 41.71875 63.234375 
Q 38.140625 66.40625 31.78125 66.40625 
Q 25.390625 66.40625 21.84375 63.234375 
Q 18.3125 60.0625 18.3125 54.390625 
z
" id="DejaVuSans-56"/>
      </defs>
      <g transform="translate(325.604801 322.182437)scale(0.1 -0.1)">
       <use xlink:href="#DejaVuSans-48"/>
       <use x="63.623047" xlink:href="#DejaVuSans-46"/>
       <use x="95.410156" xlink:href="#DejaVuSans-56"/>
      </g>
     </g>
    </g>
    <g id="xtick_6">
     <g id="line2d_6">
      <g>
       <use style="stroke:#000000;stroke-width:0.8;" x="398.487273" xlink:href="#m250c66a8b1" y="307.584"/>
      </g>
     </g>
     <g id="text_6">
      <!-- 1.0 -->
      <defs>
       <path d="M 12.40625 8.296875 
L 28.515625 8.296875 
L 28.515625 63.921875 
L 10.984375 60.40625 
L 10.984375 69.390625 
L 28.421875 72.90625 
L 38.28125 72.90625 
L 38.28125 8.296875 
L 54.390625 8.296875 
L 54.390625 0 
L 12.40625 0 
z
" id="DejaVuSans-49"/>
      </defs>
      <g transform="translate(390.53571 322.182437)scale(0.1 -0.1)">
       <use xlink:href="#DejaVuSans-49"/>
       <use x="63.623047" xlink:href="#DejaVuSans-46"/>
       <use x="95.410156" xlink:href="#DejaVuSans-48"/>
      </g>
     </g>
    </g>
   </g>
   <g id="matplotlib.axis_2">
    <g id="ytick_1">
     <g id="line2d_7">
      <defs>
       <path d="M 0 0 
L -3.5 0 
" id="m9f46d3355c" style="stroke:#000000;stroke-width:0.8;"/>
      </defs>
      <g>
       <use style="stroke:#000000;stroke-width:0.8;" x="57.6" xlink:href="#m9f46d3355c" y="299.50389"/>
      </g>
     </g>
     <g id="text_7">
      <!-- 0.0 -->
      <g transform="translate(34.696875 303.303109)scale(0.1 -0.1)">
       <use xlink:href="#DejaVuSans-48"/>
       <use x="63.623047" xlink:href="#DejaVuSans-46"/>
       <use x="95.410156" xlink:href="#DejaVuSans-48"/>
      </g>
     </g>
    </g>
    <g id="ytick_2">
     <g id="line2d_8">
      <g>
       <use style="stroke:#000000;stroke-width:0.8;" x="57.6" xlink:href="#m9f46d3355c" y="259.907258"/>
      </g>
     </g>
     <g id="text_8">
      <!-- 0.1 -->
      <g transform="translate(34.696875 263.706477)scale(0.1 -0.1)">
       <use xlink:href="#DejaVuSans-48"/>
       <use x="63.623047" xlink:href="#DejaVuSans-46"/>
       <use x="95.410156" xlink:href="#DejaVuSans-49"/>
      </g>
     </g>
    </g>
    <g id="ytick_3">
     <g id="line2d_9">
      <g>
       <use style="stroke:#000000;stroke-width:0.8;" x="57.6" xlink:href="#m9f46d3355c" y="220.310627"/>
      </g>
     </g>
     <g id="text_9">
      <!-- 0.2 -->
      <g transform="translate(34.696875 224.109845)scale(0.1 -0.1)">
       <use xlink:href="#DejaVuSans-48"/>
       <use x="63.623047" xlink:href="#DejaVuSans-46"/>
       <use x="95.410156" xlink:href="#DejaVuSans-50"/>
      </g>
     </g>
    </g>
    <g id="ytick_4">
     <g id="line2d_10">
      <g>
       <use style="stroke:#000000;stroke-width:0.8;" x="57.6" xlink:href="#m9f46d3355c" y="180.713995"/>
      </g>
     </g>
     <g id="text_10">
      <!-- 0.3 -->
      <defs>
       <path d="M 40.578125 39.3125 
Q 47.65625 37.796875 51.625 33 
Q 55.609375 28.21875 55.609375 21.1875 
Q 55.609375 10.40625 48.1875 4.484375 
Q 40.765625 -1.421875 27.09375 -1.421875 
Q 22.515625 -1.421875 17.65625 -0.515625 
Q 12.796875 0.390625 7.625 2.203125 
L 7.625 11.71875 
Q 11.71875 9.328125 16.59375 8.109375 
Q 21.484375 6.890625 26.8125 6.890625 
Q 36.078125 6.890625 40.9375 10.546875 
Q 45.796875 14.203125 45.796875 21.1875 
Q 45.796875 27.640625 41.28125 31.265625 
Q 36.765625 34.90625 28.71875 34.90625 
L 20.21875 34.90625 
L 20.21875 43.015625 
L 29.109375 43.015625 
Q 36.375 43.015625 40.234375 45.921875 
Q 44.09375 48.828125 44.09375 54.296875 
Q 44.09375 59.90625 40.109375 62.90625 
Q 36.140625 65.921875 28.71875 65.921875 
Q 24.65625 65.921875 20.015625 65.03125 
Q 15.375 64.15625 9.8125 62.3125 
L 9.8125 71.09375 
Q 15.4375 72.65625 20.34375 73.4375 
Q 25.25 74.21875 29.59375 74.21875 
Q 40.828125 74.21875 47.359375 69.109375 
Q 53.90625 64.015625 53.90625 55.328125 
Q 53.90625 49.265625 50.4375 45.09375 
Q 46.96875 40.921875 40.578125 39.3125 
z
" id="DejaVuSans-51"/>
      </defs>
      <g transform="translate(34.696875 184.513213)scale(0.1 -0.1)">
       <use xlink:href="#DejaVuSans-48"/>
       <use x="63.623047" xlink:href="#DejaVuSans-46"/>
       <use x="95.410156" xlink:href="#DejaVuSans-51"/>
      </g>
     </g>
    </g>
    <g id="ytick_5">
     <g id="line2d_11">
      <g>
       <use style="stroke:#000000;stroke-width:0.8;" x="57.6" xlink:href="#m9f46d3355c" y="141.117363"/>
      </g>
     </g>
     <g id="text_11">
      <!-- 0.4 -->
      <g transform="translate(34.696875 144.916581)scale(0.1 -0.1)">
       <use xlink:href="#DejaVuSans-48"/>
       <use x="63.623047" xlink:href="#DejaVuSans-46"/>
       <use x="95.410156" xlink:href="#DejaVuSans-52"/>
      </g>
     </g>
    </g>
    <g id="ytick_6">
     <g id="line2d_12">
      <g>
       <use style="stroke:#000000;stroke-width:0.8;" x="57.6" xlink:href="#m9f46d3355c" y="101.520731"/>
      </g>
     </g>
     <g id="text_12">
      <!-- 0.5 -->
      <defs>
       <path d="M 10.796875 72.90625 
L 49.515625 72.90625 
L 49.515625 64.59375 
L 19.828125 64.59375 
L 19.828125 46.734375 
Q 21.96875 47.46875 24.109375 47.828125 
Q 26.265625 48.1875 28.421875 48.1875 
Q 40.625 48.1875 47.75 41.5 
Q 54.890625 34.8125 54.890625 23.390625 
Q 54.890625 11.625 47.5625 5.09375 
Q 40.234375 -1.421875 26.90625 -1.421875 
Q 22.3125 -1.421875 17.546875 -0.640625 
Q 12.796875 0.140625 7.71875 1.703125 
L 7.71875 11.625 
Q 12.109375 9.234375 16.796875 8.0625 
Q 21.484375 6.890625 26.703125 6.890625 
Q 35.15625 6.890625 40.078125 11.328125 
Q 45.015625 15.765625 45.015625 23.390625 
Q 45.015625 31 40.078125 35.4375 
Q 35.15625 39.890625 26.703125 39.890625 
Q 22.75 39.890625 18.8125 39.015625 
Q 14.890625 38.140625 10.796875 36.28125 
z
" id="DejaVuSans-53"/>
      </defs>
      <g transform="translate(34.696875 105.31995)scale(0.1 -0.1)">
       <use xlink:href="#DejaVuSans-48"/>
       <use x="63.623047" xlink:href="#DejaVuSans-46"/>
       <use x="95.410156" xlink:href="#DejaVuSans-53"/>
      </g>
     </g>
    </g>
    <g id="ytick_7">
     <g id="line2d_13">
      <g>
       <use style="stroke:#000000;stroke-width:0.8;" x="57.6" xlink:href="#m9f46d3355c" y="61.924099"/>
      </g>
     </g>
     <g id="text_13">
      <!-- 0.6 -->
      <g transform="translate(34.696875 65.723318)scale(0.1 -0.1)">
       <use xlink:href="#DejaVuSans-48"/>
       <use x="63.623047" xlink:href="#DejaVuSans-46"/>
       <use x="95.410156" xlink:href="#DejaVuSans-54"/>
      </g>
     </g>
    </g>
   </g>
   <g id="line2d_14">
    <path clip-path="url(#p9c542289d8)" d="M 73.832727 104.064022 
L 75.48072 99.780459 
L 77.128713 107.544566 
L 78.776705 108.347586 
L 80.424698 126.285256 
L 82.07269 142.081145 
L 83.720683 154.396489 
L 85.368676 151.719361 
L 87.016668 145.829362 
L 88.664661 152.522381 
L 90.312653 157.60936 
L 91.960646 168.318269 
L 93.608639 173.137179 
L 95.256631 190.004156 
L 96.904624 208.2095 
L 100.200609 230.430734 
L 101.848602 237.123752 
L 103.496594 254.526076 
L 105.144587 262.290025 
L 106.79258 264.69956 
L 108.440572 267.64452 
L 110.088565 265.502738 
L 111.736557 264.69956 
L 113.38455 264.69956 
L 115.032543 268.983163 
L 116.680535 276.479478 
L 118.328528 278.6213 
L 119.976521 279.959904 
L 121.624513 283.975794 
L 123.272506 283.975794 
L 124.920498 285.314437 
L 126.568491 282.101725 
L 128.216484 280.495369 
L 129.864476 282.904903 
L 131.512469 282.63719 
L 133.160461 284.243507 
L 134.808454 284.511259 
L 136.456447 286.117615 
L 138.104439 283.975794 
L 139.752432 280.763082 
L 141.400425 276.479478 
L 143.048417 270.589519 
L 144.69641 255.329096 
L 146.344402 236.856079 
L 147.992395 221.327864 
L 149.640388 206.870738 
L 152.936373 165.641141 
L 154.584365 148.238817 
L 156.232358 133.514017 
L 157.880351 122.001693 
L 159.528343 109.418675 
L 161.176336 103.261003 
L 162.824329 97.90635 
L 164.472321 93.08744 
L 167.768306 78.362641 
L 171.064292 68.456751 
L 172.712284 71.133879 
L 174.360277 67.117989 
L 176.008269 68.724424 
L 177.656262 78.362641 
L 179.304255 86.929768 
L 180.952247 97.103331 
L 182.60024 97.638677 
L 184.248233 108.615655 
L 185.896225 124.94689 
L 187.544218 127.624018 
L 189.19221 129.498127 
L 190.840203 136.994561 
L 192.488196 143.68758 
L 194.136188 158.947726 
L 197.432174 174.743614 
L 199.080166 184.381831 
L 200.728159 188.130048 
L 202.376151 197.768264 
L 204.024144 204.996629 
L 205.672137 213.831826 
L 207.320129 218.918409 
L 208.968122 228.288952 
L 210.616114 230.698407 
L 213.9121 229.091972 
L 215.560092 230.96608 
L 217.208085 230.698407 
L 218.856078 225.611428 
L 222.152063 240.87197 
L 223.800055 245.155533 
L 225.448048 247.564988 
L 227.096041 259.077313 
L 228.744033 266.841341 
L 230.392026 268.983163 
L 232.040018 270.321806 
L 233.688011 269.250876 
L 235.336004 271.392697 
L 236.983996 271.124984 
L 238.631989 272.999053 
L 240.279982 277.550369 
L 243.575967 285.046685 
L 245.223959 287.723972 
L 246.871952 290.936684 
L 248.519945 292.007575 
L 250.167937 291.204397 
L 251.81593 289.865753 
L 253.463922 292.007575 
L 255.111915 292.275288 
L 256.759908 289.062575 
L 258.4079 286.117615 
L 260.055893 283.440329 
L 261.703886 278.353547 
L 263.351878 271.124984 
L 264.999871 260.683669 
L 266.647863 254.258403 
L 268.295856 239.265534 
L 269.943849 228.288952 
L 271.591841 220.257171 
L 273.239834 209.815935 
L 274.887826 198.571284 
L 276.535819 189.46881 
L 278.183812 188.130048 
L 279.831804 175.279357 
L 281.479797 164.570052 
L 283.12779 162.160597 
L 284.775782 156.270598 
L 286.423775 147.971144 
L 288.071767 129.7658 
L 289.71976 137.797581 
L 291.367753 140.207036 
L 293.015745 134.852384 
L 294.663738 127.624018 
L 296.311731 135.388126 
L 297.959723 156.270598 
L 299.607716 139.939363 
L 301.255708 132.442929 
L 302.903701 138.600601 
L 304.551694 152.254707 
L 306.199686 139.939363 
L 307.847679 131.372236 
L 309.495671 150.112926 
L 311.143664 164.837725 
L 312.791657 164.034705 
L 314.439649 161.357577 
L 316.087642 160.554161 
L 317.735635 168.585942 
L 319.383627 164.302379 
L 321.03162 157.341687 
L 322.679612 164.034705 
L 324.327605 175.279357 
L 325.975598 190.539503 
L 327.62359 183.578811 
L 329.271583 190.539503 
L 330.919575 204.728956 
L 335.863553 225.343754 
L 337.511546 244.352514 
L 339.159539 257.470878 
L 340.807531 262.022273 
L 342.455524 265.234985 
L 344.103516 269.518628 
L 345.751509 279.424478 
L 347.399502 283.975794 
L 349.047494 285.849863 
L 350.695487 288.794863 
L 352.343479 291.204397 
L 353.991472 291.47211 
L 355.639465 290.401219 
L 357.287457 290.401219 
L 358.93545 289.062575 
L 360.583443 290.133506 
L 362.231435 292.007575 
L 363.879428 292.810753 
L 365.52742 294.684822 
L 367.175413 295.488 
L 368.823406 295.488 
L 370.471398 293.078466 
L 372.119391 289.062575 
L 373.767383 286.117615 
L 375.415376 282.101725 
L 377.063369 275.944013 
L 378.711361 264.967272 
L 382.007347 234.446624 
L 383.655339 206.335391 
L 385.303332 186.255939 
L 386.951324 173.940595 
L 388.599317 166.176487 
L 390.24731 155.199905 
L 391.895302 142.616491 
L 393.543295 150.648272 
L 395.191287 155.735251 
L 396.83928 148.774163 
L 398.487273 138.332928 
L 398.487273 138.332928 
" style="fill:none;stroke:#1f77b4;stroke-linecap:square;stroke-width:1.5;"/>
   </g>
   <g id="line2d_15">
    <path clip-path="url(#p9c542289d8)" d="M 73.832727 100.148182 
L 75.48072 97.721266 
L 77.128713 110.739012 
L 78.776705 105.517109 
L 80.424698 125.568271 
L 82.07269 143.356868 
L 83.720683 153.602579 
L 85.368676 157.712034 
L 87.016668 142.130901 
L 88.664661 149.910546 
L 90.312653 155.251882 
L 91.960646 164.420722 
L 93.608639 175.483699 
L 95.256631 182.415612 
L 96.904624 207.141956 
L 100.200609 230.848286 
L 101.848602 237.131328 
L 103.496594 248.475323 
L 105.144587 262.067335 
L 106.79258 264.705174 
L 108.440572 265.175947 
L 110.088565 265.896522 
L 111.736557 263.119455 
L 113.38455 264.025266 
L 115.032543 265.465659 
L 116.680535 270.307717 
L 118.328528 274.48427 
L 119.976521 274.251338 
L 121.624513 276.869469 
L 123.272506 277.629736 
L 124.920498 277.925492 
L 126.568491 277.8835 
L 128.216484 274.808063 
L 129.864476 275.894432 
L 131.512469 276.497612 
L 133.160461 277.290459 
L 136.456447 278.060954 
L 138.104439 278.678157 
L 139.752432 275.851178 
L 141.400425 274.442696 
L 143.048417 269.809613 
L 144.69641 262.130445 
L 146.344402 241.332705 
L 147.992395 226.095487 
L 151.28838 190.443816 
L 152.936373 164.586432 
L 154.584365 145.092138 
L 156.232358 136.692437 
L 157.880351 116.992314 
L 159.528343 112.464605 
L 161.176336 98.578569 
L 162.824329 100.520025 
L 164.472321 93.689147 
L 166.120314 88.880872 
L 167.768306 77.699176 
L 169.416299 74.777251 
L 171.064292 69.421693 
L 172.712284 69.282443 
L 174.360277 69.705437 
L 176.008269 62.257405 
L 177.656262 83.938129 
L 179.304255 85.241213 
L 180.952247 99.300651 
L 182.60024 100.626631 
L 184.248233 106.387747 
L 185.896225 127.475565 
L 187.544218 129.006946 
L 189.19221 131.333586 
L 190.840203 134.521876 
L 192.488196 141.258063 
L 194.136188 157.98206 
L 195.784181 164.355893 
L 197.432174 173.555507 
L 199.080166 183.792504 
L 200.728159 187.575133 
L 202.376151 196.615876 
L 204.024144 202.113344 
L 205.672137 214.820587 
L 207.320129 218.379022 
L 208.968122 226.927159 
L 210.616114 233.203622 
L 212.264107 229.786566 
L 213.9121 232.208038 
L 215.560092 231.278335 
L 217.208085 232.93966 
L 218.856078 224.763404 
L 220.50407 230.647892 
L 222.152063 242.342741 
L 223.800055 245.700452 
L 225.448048 246.384138 
L 228.744033 265.148845 
L 230.392026 267.456271 
L 232.040018 267.908903 
L 233.688011 267.383662 
L 235.336004 268.790719 
L 238.631989 269.311375 
L 243.575967 277.61658 
L 245.223959 279.249158 
L 246.871952 280.445994 
L 248.519945 281.899908 
L 251.81593 280.964014 
L 253.463922 281.046944 
L 255.111915 281.934122 
L 256.759908 281.258564 
L 258.4079 278.76667 
L 260.055893 278.086276 
L 261.703886 275.665636 
L 263.351878 270.170273 
L 264.999871 264.074304 
L 266.647863 256.03169 
L 268.295856 246.559942 
L 269.943849 228.181779 
L 271.591841 222.717196 
L 273.239834 212.551599 
L 276.535819 187.845218 
L 278.183812 185.582772 
L 279.831804 181.159421 
L 281.479797 157.319388 
L 283.12779 160.981017 
L 286.423775 150.082179 
L 288.071767 128.371101 
L 289.71976 129.09446 
L 291.367753 146.962757 
L 293.015745 135.348015 
L 294.663738 125.241019 
L 296.311731 128.737413 
L 297.959723 160.394704 
L 299.607716 150.829079 
L 301.255708 123.598221 
L 302.903701 134.469505 
L 304.551694 153.558021 
L 306.199686 146.788339 
L 307.847679 124.879994 
L 309.495671 140.776706 
L 311.143664 171.000801 
L 312.791657 165.426079 
L 314.439649 163.332603 
L 316.087642 152.844883 
L 317.735635 168.103606 
L 319.383627 166.718941 
L 321.03162 153.210904 
L 322.679612 160.846027 
L 324.327605 169.133417 
L 325.975598 195.853999 
L 327.62359 185.271303 
L 329.271583 184.687285 
L 330.919575 200.928901 
L 332.567568 212.56013 
L 334.215561 217.862391 
L 335.863553 224.089397 
L 337.511546 237.862494 
L 339.159539 256.425525 
L 340.807531 263.046367 
L 342.455524 262.713148 
L 344.103516 266.489998 
L 345.751509 270.723985 
L 347.399502 277.813676 
L 349.047494 278.074891 
L 350.695487 279.379351 
L 352.343479 281.289734 
L 355.639465 281.285031 
L 358.93545 280.436412 
L 360.583443 280.307132 
L 362.231435 281.264626 
L 363.879428 282.076017 
L 365.52742 282.570665 
L 367.175413 283.187053 
L 368.823406 283.372268 
L 370.471398 283.211042 
L 372.119391 280.818526 
L 375.415376 277.020513 
L 377.063369 274.280281 
L 378.711361 268.31221 
L 380.359354 254.129565 
L 382.007347 242.104697 
L 385.303332 184.692599 
L 386.951324 169.175818 
L 388.599317 164.79761 
L 390.24731 156.410568 
L 391.895302 139.27181 
L 393.543295 144.2651 
L 395.191287 157.985014 
L 396.83928 151.484797 
L 398.487273 138.149528 
L 398.487273 138.149528 
" style="fill:none;stroke:#ff7f0e;stroke-linecap:square;stroke-width:1.5;"/>
   </g>
   <g id="line2d_16">
    <path clip-path="url(#p9c542289d8)" d="M 73.832727 101.663983 
L 75.48072 100.118337 
L 77.128713 114.196445 
L 78.776705 108.81612 
L 80.424698 129.187797 
L 82.07269 146.091981 
L 83.720683 157.709695 
L 85.368676 164.908165 
L 87.016668 149.574078 
L 88.664661 151.8973 
L 90.312653 160.575114 
L 91.960646 168.461677 
L 93.608639 182.795347 
L 95.256631 187.92859 
L 96.904624 213.472749 
L 98.552617 226.629714 
L 100.200609 234.717951 
L 101.848602 241.01468 
L 103.496594 251.266311 
L 105.144587 265.247305 
L 106.79258 267.472149 
L 108.440572 267.93151 
L 110.088565 268.579894 
L 111.736557 265.745772 
L 113.38455 266.740634 
L 115.032543 268.31541 
L 116.680535 273.457486 
L 118.328528 277.699555 
L 119.976521 277.343966 
L 121.624513 280.254402 
L 123.272506 280.858544 
L 124.920498 281.201087 
L 126.568491 281.075621 
L 128.216484 277.937282 
L 129.864476 279.145496 
L 131.512469 279.642805 
L 133.160461 280.573537 
L 134.808454 280.856313 
L 136.456447 281.327405 
L 138.104439 281.942409 
L 139.752432 279.003582 
L 141.400425 277.56688 
L 143.048417 272.813507 
L 144.69641 265.196891 
L 146.344402 244.914361 
L 147.992395 228.70656 
L 151.28838 199.888334 
L 152.936373 172.984691 
L 154.584365 152.07301 
L 156.232358 138.632071 
L 157.880351 119.106567 
L 159.528343 113.914695 
L 161.176336 99.998645 
L 162.824329 102.296295 
L 164.472321 95.091931 
L 166.120314 90.358595 
L 167.768306 79.015176 
L 169.416299 76.822406 
L 171.064292 71.08616 
L 172.712284 71.63308 
L 174.360277 71.470304 
L 176.008269 63.748376 
L 177.656262 87.956373 
L 179.304255 87.743622 
L 180.952247 101.780083 
L 182.60024 103.588819 
L 184.248233 108.818721 
L 185.896225 130.21738 
L 187.544218 133.967976 
L 189.19221 132.57189 
L 190.840203 135.801452 
L 192.488196 143.709242 
L 194.136188 159.95811 
L 195.784181 172.711694 
L 197.432174 179.790394 
L 199.080166 190.36102 
L 200.728159 197.55076 
L 202.376151 202.812069 
L 205.672137 220.402067 
L 207.320129 225.843578 
L 208.968122 230.87877 
L 210.616114 237.77052 
L 212.264107 235.049701 
L 213.9121 235.279186 
L 215.560092 234.706087 
L 217.208085 236.62996 
L 218.856078 231.546707 
L 220.50407 232.939822 
L 222.152063 244.83644 
L 223.800055 247.891427 
L 225.448048 248.445055 
L 227.096041 258.822263 
L 228.744033 268.293476 
L 230.392026 270.29762 
L 232.040018 270.777316 
L 233.688011 270.132974 
L 235.336004 271.821824 
L 236.983996 271.858777 
L 238.631989 272.258308 
L 241.927974 278.044237 
L 243.575967 281.002433 
L 245.223959 282.623519 
L 246.871952 283.850471 
L 248.519945 285.341061 
L 251.81593 284.30378 
L 253.463922 284.446244 
L 255.111915 285.328682 
L 256.759908 284.581535 
L 258.4079 282.042405 
L 260.055893 281.34443 
L 261.703886 278.822208 
L 263.351878 273.251363 
L 264.999871 267.066849 
L 266.647863 258.8237 
L 268.295856 249.314899 
L 269.943849 231.220562 
L 271.591841 226.478717 
L 273.239834 219.646143 
L 276.535819 196.772303 
L 278.183812 192.736698 
L 279.831804 192.664234 
L 281.479797 167.09335 
L 283.12779 164.592379 
L 284.775782 163.45165 
L 286.423775 155.491403 
L 288.071767 137.351724 
L 289.71976 132.56375 
L 291.367753 148.66344 
L 293.015745 140.343999 
L 294.663738 128.071773 
L 296.311731 130.670526 
L 297.959723 163.931944 
L 299.607716 164.944906 
L 301.255708 126.223684 
L 302.903701 136.751557 
L 304.551694 155.624097 
L 306.199686 157.548385 
L 307.847679 128.696225 
L 309.495671 144.282462 
L 311.143664 173.879361 
L 312.791657 176.515702 
L 314.439649 170.001986 
L 316.087642 161.370045 
L 317.735635 170.522643 
L 319.383627 177.103195 
L 321.03162 162.386219 
L 322.679612 163.047188 
L 324.327605 175.509576 
L 325.975598 199.257269 
L 327.62359 201.060917 
L 329.271583 190.680225 
L 330.919575 207.019547 
L 332.567568 220.944226 
L 334.215561 224.340638 
L 335.863553 229.880904 
L 337.511546 240.673035 
L 339.159539 259.672031 
L 340.807531 265.97591 
L 342.455524 265.290491 
L 344.103516 269.399831 
L 345.751509 273.877624 
L 347.399502 281.376596 
L 349.047494 281.333804 
L 350.695487 282.749667 
L 352.343479 284.756417 
L 355.639465 284.653919 
L 358.93545 283.746346 
L 360.583443 283.652691 
L 362.231435 284.67035 
L 363.879428 285.485801 
L 367.175413 286.623226 
L 368.823406 286.806328 
L 370.471398 286.634424 
L 372.119391 284.13414 
L 375.415376 280.232606 
L 377.063369 277.400071 
L 378.711361 271.389271 
L 380.359354 257.509337 
L 382.007347 244.775964 
L 383.655339 221.198406 
L 385.303332 190.794561 
L 386.951324 176.218448 
L 388.599317 171.05886 
L 390.24731 163.90363 
L 391.895302 146.566625 
L 393.543295 146.924819 
L 395.191287 161.513034 
L 396.83928 159.983642 
L 398.487273 143.702663 
L 398.487273 143.702663 
" style="fill:none;stroke:#2ca02c;stroke-linecap:square;stroke-width:1.5;"/>
   </g>
   <g id="line2d_17">
    <path clip-path="url(#p9c542289d8)" d="M 73.832727 97.737071 
L 75.48072 90.120512 
L 77.128713 97.75036 
L 78.776705 103.156745 
L 80.424698 113.964338 
L 82.07269 141.95024 
L 83.720683 151.938955 
L 85.368676 155.470629 
L 87.016668 140.000713 
L 90.312653 153.784029 
L 91.960646 163.296002 
L 93.608639 174.091696 
L 95.256631 180.932824 
L 96.904624 205.133952 
L 100.200609 229.561057 
L 101.848602 236.36251 
L 103.496594 246.386552 
L 105.144587 258.11824 
L 106.79258 258.950958 
L 108.440572 258.690711 
L 110.088565 259.47846 
L 111.736557 256.918986 
L 113.38455 257.478223 
L 115.032543 258.379722 
L 118.328528 265.426573 
L 119.976521 264.881013 
L 121.624513 266.307147 
L 123.272506 267.529361 
L 124.920498 267.061737 
L 126.568491 267.353185 
L 128.216484 264.66717 
L 129.864476 265.304871 
L 131.512469 266.541993 
L 133.160461 266.537448 
L 134.808454 267.171403 
L 136.456447 267.230694 
L 138.104439 267.929155 
L 139.752432 265.554991 
L 141.400425 264.312953 
L 143.048417 261.256101 
L 144.69641 256.263776 
L 146.344402 239.541637 
L 147.992395 224.837291 
L 151.28838 188.054014 
L 152.936373 161.832496 
L 154.584365 142.326184 
L 156.232358 133.471518 
L 157.880351 115.059813 
L 159.528343 109.047748 
L 161.176336 94.361172 
L 162.824329 93.394134 
L 164.472321 87.228944 
L 166.120314 81.712397 
L 167.768306 71.295726 
L 169.416299 64.940645 
L 171.064292 60.123503 
L 172.712284 57.177848 
L 174.360277 60.840333 
L 176.008269 53.568 
L 177.656262 66.36734 
L 179.304255 76.212021 
L 180.952247 88.476397 
L 182.60024 95.939567 
L 184.248233 95.926371 
L 185.896225 119.684035 
L 187.544218 126.16194 
L 189.19221 129.590411 
L 190.840203 132.526035 
L 192.488196 139.937342 
L 194.136188 155.947112 
L 195.784181 161.994082 
L 199.080166 182.47 
L 200.728159 185.843993 
L 202.376151 194.989667 
L 204.024144 200.63339 
L 205.672137 213.401107 
L 207.320129 217.235994 
L 208.968122 225.931808 
L 210.616114 232.426774 
L 212.264107 228.962168 
L 213.9121 231.729281 
L 215.560092 230.834777 
L 217.208085 232.432681 
L 218.856078 223.336774 
L 220.50407 229.443899 
L 222.152063 241.429638 
L 223.800055 245.205951 
L 225.448048 246.061385 
L 227.096041 251.381909 
L 228.744033 259.216488 
L 230.392026 260.890438 
L 232.040018 260.515681 
L 233.688011 260.259746 
L 235.336004 260.39336 
L 236.983996 261.337585 
L 238.631989 261.03693 
L 240.279982 263.130262 
L 241.927974 265.41156 
L 243.575967 267.192295 
L 245.223959 268.458066 
L 246.871952 269.253551 
L 248.519945 270.453736 
L 250.167937 269.982559 
L 251.81593 269.315377 
L 253.463922 269.212454 
L 255.111915 270.471639 
L 256.759908 269.730735 
L 258.4079 267.497001 
L 260.055893 266.920754 
L 261.703886 265.320238 
L 263.351878 261.512594 
L 264.999871 257.093545 
L 266.647863 250.864282 
L 268.295856 245.61483 
L 269.943849 226.703066 
L 271.591841 221.80292 
L 273.239834 211.086051 
L 276.535819 185.96138 
L 278.183812 183.646596 
L 279.831804 179.105859 
L 281.479797 154.801908 
L 283.12779 158.150905 
L 284.775782 153.699049 
L 286.423775 148.618859 
L 288.071767 125.72726 
L 289.71976 121.551989 
L 291.367753 145.847701 
L 293.015745 133.2166 
L 294.663738 123.934595 
L 296.311731 124.322059 
L 297.959723 154.663715 
L 299.607716 145.598263 
L 301.255708 121.444077 
L 302.903701 130.086402 
L 304.551694 150.877874 
L 306.199686 142.923512 
L 307.847679 123.145168 
L 309.495671 133.439386 
L 311.143664 169.728139 
L 312.791657 162.201616 
L 314.439649 162.012327 
L 316.087642 150.839564 
L 317.735635 165.740062 
L 319.383627 164.263612 
L 321.03162 151.057216 
L 322.679612 157.855951 
L 324.327605 167.878295 
L 325.975598 193.280198 
L 327.62359 181.276473 
L 329.271583 182.420576 
L 330.919575 199.323118 
L 332.567568 211.050942 
L 334.215561 216.738145 
L 335.863553 223.088102 
L 337.511546 236.30733 
L 339.159539 254.197954 
L 340.807531 258.334576 
L 342.455524 257.561569 
L 344.103516 259.534728 
L 345.751509 262.313404 
L 347.399502 267.698698 
L 349.047494 267.852486 
L 350.695487 268.422463 
L 352.343479 269.892153 
L 353.991472 270.025037 
L 355.639465 269.695712 
L 357.287457 269.178544 
L 358.93545 269.04777 
L 360.583443 268.692316 
L 362.231435 269.751637 
L 363.879428 270.539773 
L 365.52742 270.73867 
L 367.175413 271.41486 
L 368.823406 271.42407 
L 370.471398 271.174034 
L 372.119391 269.183378 
L 373.767383 267.404064 
L 375.415376 266.263115 
L 377.063369 264.247968 
L 378.711361 260.051375 
L 382.007347 240.334191 
L 385.303332 182.035336 
L 386.951324 166.493946 
L 388.599317 162.532409 
L 390.24731 154.640966 
L 391.895302 137.29667 
L 393.543295 139.74971 
L 395.191287 156.906375 
L 396.83928 149.096196 
L 398.487273 136.560809 
L 398.487273 136.560809 
" style="fill:none;stroke:#d62728;stroke-linecap:square;stroke-width:1.5;"/>
   </g>
   <g id="patch_3">
    <path d="M 57.6 307.584 
L 57.6 41.472 
" style="fill:none;stroke:#000000;stroke-linecap:square;stroke-linejoin:miter;stroke-width:0.8;"/>
   </g>
   <g id="patch_4">
    <path d="M 414.72 307.584 
L 414.72 41.472 
" style="fill:none;stroke:#000000;stroke-linecap:square;stroke-linejoin:miter;stroke-width:0.8;"/>
   </g>
   <g id="patch_5">
    <path d="M 57.6 307.584 
L 414.72 307.584 
" style="fill:none;stroke:#000000;stroke-linecap:square;stroke-linejoin:miter;stroke-width:0.8;"/>
   </g>
   <g id="patch_6">
    <path d="M 57.6 41.472 
L 414.72 41.472 
" style="fill:none;stroke:#000000;stroke-linecap:square;stroke-linejoin:miter;stroke-width:0.8;"/>
   </g>
   <g id="text_14">
    <!-- Plot of Test Data vs MCMC Uncertainty  -->
    <defs>
     <path d="M 19.671875 64.796875 
L 19.671875 37.40625 
L 32.078125 37.40625 
Q 38.96875 37.40625 42.71875 40.96875 
Q 46.484375 44.53125 46.484375 51.125 
Q 46.484375 57.671875 42.71875 61.234375 
Q 38.96875 64.796875 32.078125 64.796875 
z
M 9.8125 72.90625 
L 32.078125 72.90625 
Q 44.34375 72.90625 50.609375 67.359375 
Q 56.890625 61.8125 56.890625 51.125 
Q 56.890625 40.328125 50.609375 34.8125 
Q 44.34375 29.296875 32.078125 29.296875 
L 19.671875 29.296875 
L 19.671875 0 
L 9.8125 0 
z
" id="DejaVuSans-80"/>
     <path d="M 9.421875 75.984375 
L 18.40625 75.984375 
L 18.40625 0 
L 9.421875 0 
z
" id="DejaVuSans-108"/>
     <path d="M 30.609375 48.390625 
Q 23.390625 48.390625 19.1875 42.75 
Q 14.984375 37.109375 14.984375 27.296875 
Q 14.984375 17.484375 19.15625 11.84375 
Q 23.34375 6.203125 30.609375 6.203125 
Q 37.796875 6.203125 41.984375 11.859375 
Q 46.1875 17.53125 46.1875 27.296875 
Q 46.1875 37.015625 41.984375 42.703125 
Q 37.796875 48.390625 30.609375 48.390625 
z
M 30.609375 56 
Q 42.328125 56 49.015625 48.375 
Q 55.71875 40.765625 55.71875 27.296875 
Q 55.71875 13.875 49.015625 6.21875 
Q 42.328125 -1.421875 30.609375 -1.421875 
Q 18.84375 -1.421875 12.171875 6.21875 
Q 5.515625 13.875 5.515625 27.296875 
Q 5.515625 40.765625 12.171875 48.375 
Q 18.84375 56 30.609375 56 
z
" id="DejaVuSans-111"/>
     <path d="M 18.3125 70.21875 
L 18.3125 54.6875 
L 36.8125 54.6875 
L 36.8125 47.703125 
L 18.3125 47.703125 
L 18.3125 18.015625 
Q 18.3125 11.328125 20.140625 9.421875 
Q 21.96875 7.515625 27.59375 7.515625 
L 36.8125 7.515625 
L 36.8125 0 
L 27.59375 0 
Q 17.1875 0 13.234375 3.875 
Q 9.28125 7.765625 9.28125 18.015625 
L 9.28125 47.703125 
L 2.6875 47.703125 
L 2.6875 54.6875 
L 9.28125 54.6875 
L 9.28125 70.21875 
z
" id="DejaVuSans-116"/>
     <path id="DejaVuSans-32"/>
     <path d="M 37.109375 75.984375 
L 37.109375 68.5 
L 28.515625 68.5 
Q 23.6875 68.5 21.796875 66.546875 
Q 19.921875 64.59375 19.921875 59.515625 
L 19.921875 54.6875 
L 34.71875 54.6875 
L 34.71875 47.703125 
L 19.921875 47.703125 
L 19.921875 0 
L 10.890625 0 
L 10.890625 47.703125 
L 2.296875 47.703125 
L 2.296875 54.6875 
L 10.890625 54.6875 
L 10.890625 58.5 
Q 10.890625 67.625 15.140625 71.796875 
Q 19.390625 75.984375 28.609375 75.984375 
z
" id="DejaVuSans-102"/>
     <path d="M -0.296875 72.90625 
L 61.375 72.90625 
L 61.375 64.59375 
L 35.5 64.59375 
L 35.5 0 
L 25.59375 0 
L 25.59375 64.59375 
L -0.296875 64.59375 
z
" id="DejaVuSans-84"/>
     <path d="M 56.203125 29.59375 
L 56.203125 25.203125 
L 14.890625 25.203125 
Q 15.484375 15.921875 20.484375 11.0625 
Q 25.484375 6.203125 34.421875 6.203125 
Q 39.59375 6.203125 44.453125 7.46875 
Q 49.3125 8.734375 54.109375 11.28125 
L 54.109375 2.78125 
Q 49.265625 0.734375 44.1875 -0.34375 
Q 39.109375 -1.421875 33.890625 -1.421875 
Q 20.796875 -1.421875 13.15625 6.1875 
Q 5.515625 13.8125 5.515625 26.8125 
Q 5.515625 40.234375 12.765625 48.109375 
Q 20.015625 56 32.328125 56 
Q 43.359375 56 49.78125 48.890625 
Q 56.203125 41.796875 56.203125 29.59375 
z
M 47.21875 32.234375 
Q 47.125 39.59375 43.09375 43.984375 
Q 39.0625 48.390625 32.421875 48.390625 
Q 24.90625 48.390625 20.390625 44.140625 
Q 15.875 39.890625 15.1875 32.171875 
z
" id="DejaVuSans-101"/>
     <path d="M 44.28125 53.078125 
L 44.28125 44.578125 
Q 40.484375 46.53125 36.375 47.5 
Q 32.28125 48.484375 27.875 48.484375 
Q 21.1875 48.484375 17.84375 46.4375 
Q 14.5 44.390625 14.5 40.28125 
Q 14.5 37.15625 16.890625 35.375 
Q 19.28125 33.59375 26.515625 31.984375 
L 29.59375 31.296875 
Q 39.15625 29.25 43.1875 25.515625 
Q 47.21875 21.78125 47.21875 15.09375 
Q 47.21875 7.46875 41.1875 3.015625 
Q 35.15625 -1.421875 24.609375 -1.421875 
Q 20.21875 -1.421875 15.453125 -0.5625 
Q 10.6875 0.296875 5.421875 2 
L 5.421875 11.28125 
Q 10.40625 8.6875 15.234375 7.390625 
Q 20.0625 6.109375 24.8125 6.109375 
Q 31.15625 6.109375 34.5625 8.28125 
Q 37.984375 10.453125 37.984375 14.40625 
Q 37.984375 18.0625 35.515625 20.015625 
Q 33.0625 21.96875 24.703125 23.78125 
L 21.578125 24.515625 
Q 13.234375 26.265625 9.515625 29.90625 
Q 5.8125 33.546875 5.8125 39.890625 
Q 5.8125 47.609375 11.28125 51.796875 
Q 16.75 56 26.8125 56 
Q 31.78125 56 36.171875 55.265625 
Q 40.578125 54.546875 44.28125 53.078125 
z
" id="DejaVuSans-115"/>
     <path d="M 19.671875 64.796875 
L 19.671875 8.109375 
L 31.59375 8.109375 
Q 46.6875 8.109375 53.6875 14.9375 
Q 60.6875 21.78125 60.6875 36.53125 
Q 60.6875 51.171875 53.6875 57.984375 
Q 46.6875 64.796875 31.59375 64.796875 
z
M 9.8125 72.90625 
L 30.078125 72.90625 
Q 51.265625 72.90625 61.171875 64.09375 
Q 71.09375 55.28125 71.09375 36.53125 
Q 71.09375 17.671875 61.125 8.828125 
Q 51.171875 0 30.078125 0 
L 9.8125 0 
z
" id="DejaVuSans-68"/>
     <path d="M 34.28125 27.484375 
Q 23.390625 27.484375 19.1875 25 
Q 14.984375 22.515625 14.984375 16.5 
Q 14.984375 11.71875 18.140625 8.90625 
Q 21.296875 6.109375 26.703125 6.109375 
Q 34.1875 6.109375 38.703125 11.40625 
Q 43.21875 16.703125 43.21875 25.484375 
L 43.21875 27.484375 
z
M 52.203125 31.203125 
L 52.203125 0 
L 43.21875 0 
L 43.21875 8.296875 
Q 40.140625 3.328125 35.546875 0.953125 
Q 30.953125 -1.421875 24.3125 -1.421875 
Q 15.921875 -1.421875 10.953125 3.296875 
Q 6 8.015625 6 15.921875 
Q 6 25.140625 12.171875 29.828125 
Q 18.359375 34.515625 30.609375 34.515625 
L 43.21875 34.515625 
L 43.21875 35.40625 
Q 43.21875 41.609375 39.140625 45 
Q 35.0625 48.390625 27.6875 48.390625 
Q 23 48.390625 18.546875 47.265625 
Q 14.109375 46.140625 10.015625 43.890625 
L 10.015625 52.203125 
Q 14.9375 54.109375 19.578125 55.046875 
Q 24.21875 56 28.609375 56 
Q 40.484375 56 46.34375 49.84375 
Q 52.203125 43.703125 52.203125 31.203125 
z
" id="DejaVuSans-97"/>
     <path d="M 2.984375 54.6875 
L 12.5 54.6875 
L 29.59375 8.796875 
L 46.6875 54.6875 
L 56.203125 54.6875 
L 35.6875 0 
L 23.484375 0 
z
" id="DejaVuSans-118"/>
     <path d="M 9.8125 72.90625 
L 24.515625 72.90625 
L 43.109375 23.296875 
L 61.8125 72.90625 
L 76.515625 72.90625 
L 76.515625 0 
L 66.890625 0 
L 66.890625 64.015625 
L 48.09375 14.015625 
L 38.1875 14.015625 
L 19.390625 64.015625 
L 19.390625 0 
L 9.8125 0 
z
" id="DejaVuSans-77"/>
     <path d="M 64.40625 67.28125 
L 64.40625 56.890625 
Q 59.421875 61.53125 53.78125 63.8125 
Q 48.140625 66.109375 41.796875 66.109375 
Q 29.296875 66.109375 22.65625 58.46875 
Q 16.015625 50.828125 16.015625 36.375 
Q 16.015625 21.96875 22.65625 14.328125 
Q 29.296875 6.6875 41.796875 6.6875 
Q 48.140625 6.6875 53.78125 8.984375 
Q 59.421875 11.28125 64.40625 15.921875 
L 64.40625 5.609375 
Q 59.234375 2.09375 53.4375 0.328125 
Q 47.65625 -1.421875 41.21875 -1.421875 
Q 24.65625 -1.421875 15.125 8.703125 
Q 5.609375 18.84375 5.609375 36.375 
Q 5.609375 53.953125 15.125 64.078125 
Q 24.65625 74.21875 41.21875 74.21875 
Q 47.75 74.21875 53.53125 72.484375 
Q 59.328125 70.75 64.40625 67.28125 
z
" id="DejaVuSans-67"/>
     <path d="M 8.6875 72.90625 
L 18.609375 72.90625 
L 18.609375 28.609375 
Q 18.609375 16.890625 22.84375 11.734375 
Q 27.09375 6.59375 36.625 6.59375 
Q 46.09375 6.59375 50.34375 11.734375 
Q 54.59375 16.890625 54.59375 28.609375 
L 54.59375 72.90625 
L 64.5 72.90625 
L 64.5 27.390625 
Q 64.5 13.140625 57.4375 5.859375 
Q 50.390625 -1.421875 36.625 -1.421875 
Q 22.796875 -1.421875 15.734375 5.859375 
Q 8.6875 13.140625 8.6875 27.390625 
z
" id="DejaVuSans-85"/>
     <path d="M 54.890625 33.015625 
L 54.890625 0 
L 45.90625 0 
L 45.90625 32.71875 
Q 45.90625 40.484375 42.875 44.328125 
Q 39.84375 48.1875 33.796875 48.1875 
Q 26.515625 48.1875 22.3125 43.546875 
Q 18.109375 38.921875 18.109375 30.90625 
L 18.109375 0 
L 9.078125 0 
L 9.078125 54.6875 
L 18.109375 54.6875 
L 18.109375 46.1875 
Q 21.34375 51.125 25.703125 53.5625 
Q 30.078125 56 35.796875 56 
Q 45.21875 56 50.046875 50.171875 
Q 54.890625 44.34375 54.890625 33.015625 
z
" id="DejaVuSans-110"/>
     <path d="M 48.78125 52.59375 
L 48.78125 44.1875 
Q 44.96875 46.296875 41.140625 47.34375 
Q 37.3125 48.390625 33.40625 48.390625 
Q 24.65625 48.390625 19.8125 42.84375 
Q 14.984375 37.3125 14.984375 27.296875 
Q 14.984375 17.28125 19.8125 11.734375 
Q 24.65625 6.203125 33.40625 6.203125 
Q 37.3125 6.203125 41.140625 7.25 
Q 44.96875 8.296875 48.78125 10.40625 
L 48.78125 2.09375 
Q 45.015625 0.34375 40.984375 -0.53125 
Q 36.96875 -1.421875 32.421875 -1.421875 
Q 20.0625 -1.421875 12.78125 6.34375 
Q 5.515625 14.109375 5.515625 27.296875 
Q 5.515625 40.671875 12.859375 48.328125 
Q 20.21875 56 33.015625 56 
Q 37.15625 56 41.109375 55.140625 
Q 45.0625 54.296875 48.78125 52.59375 
z
" id="DejaVuSans-99"/>
     <path d="M 41.109375 46.296875 
Q 39.59375 47.171875 37.8125 47.578125 
Q 36.03125 48 33.890625 48 
Q 26.265625 48 22.1875 43.046875 
Q 18.109375 38.09375 18.109375 28.8125 
L 18.109375 0 
L 9.078125 0 
L 9.078125 54.6875 
L 18.109375 54.6875 
L 18.109375 46.1875 
Q 20.953125 51.171875 25.484375 53.578125 
Q 30.03125 56 36.53125 56 
Q 37.453125 56 38.578125 55.875 
Q 39.703125 55.765625 41.0625 55.515625 
z
" id="DejaVuSans-114"/>
     <path d="M 9.421875 54.6875 
L 18.40625 54.6875 
L 18.40625 0 
L 9.421875 0 
z
M 9.421875 75.984375 
L 18.40625 75.984375 
L 18.40625 64.59375 
L 9.421875 64.59375 
z
" id="DejaVuSans-105"/>
     <path d="M 32.171875 -5.078125 
Q 28.375 -14.84375 24.75 -17.8125 
Q 21.140625 -20.796875 15.09375 -20.796875 
L 7.90625 -20.796875 
L 7.90625 -13.28125 
L 13.1875 -13.28125 
Q 16.890625 -13.28125 18.9375 -11.515625 
Q 21 -9.765625 23.484375 -3.21875 
L 25.09375 0.875 
L 2.984375 54.6875 
L 12.5 54.6875 
L 29.59375 11.921875 
L 46.6875 54.6875 
L 56.203125 54.6875 
z
" id="DejaVuSans-121"/>
    </defs>
    <g transform="translate(118.112813 35.472)scale(0.12 -0.12)">
     <use xlink:href="#DejaVuSans-80"/>
     <use x="60.302734" xlink:href="#DejaVuSans-108"/>
     <use x="88.085938" xlink:href="#DejaVuSans-111"/>
     <use x="149.267578" xlink:href="#DejaVuSans-116"/>
     <use x="188.476562" xlink:href="#DejaVuSans-32"/>
     <use x="220.263672" xlink:href="#DejaVuSans-111"/>
     <use x="281.445312" xlink:href="#DejaVuSans-102"/>
     <use x="316.650391" xlink:href="#DejaVuSans-32"/>
     <use x="348.4375" xlink:href="#DejaVuSans-84"/>
     <use x="409.255859" xlink:href="#DejaVuSans-101"/>
     <use x="470.779297" xlink:href="#DejaVuSans-115"/>
     <use x="522.878906" xlink:href="#DejaVuSans-116"/>
     <use x="562.087891" xlink:href="#DejaVuSans-32"/>
     <use x="593.875" xlink:href="#DejaVuSans-68"/>
     <use x="670.876953" xlink:href="#DejaVuSans-97"/>
     <use x="732.15625" xlink:href="#DejaVuSans-116"/>
     <use x="771.365234" xlink:href="#DejaVuSans-97"/>
     <use x="832.644531" xlink:href="#DejaVuSans-32"/>
     <use x="864.431641" xlink:href="#DejaVuSans-118"/>
     <use x="923.611328" xlink:href="#DejaVuSans-115"/>
     <use x="975.710938" xlink:href="#DejaVuSans-32"/>
     <use x="1007.498047" xlink:href="#DejaVuSans-77"/>
     <use x="1093.777344" xlink:href="#DejaVuSans-67"/>
     <use x="1163.601562" xlink:href="#DejaVuSans-77"/>
     <use x="1249.880859" xlink:href="#DejaVuSans-67"/>
     <use x="1319.705078" xlink:href="#DejaVuSans-32"/>
     <use x="1351.492188" xlink:href="#DejaVuSans-85"/>
     <use x="1424.685547" xlink:href="#DejaVuSans-110"/>
     <use x="1488.064453" xlink:href="#DejaVuSans-99"/>
     <use x="1543.044922" xlink:href="#DejaVuSans-101"/>
     <use x="1604.568359" xlink:href="#DejaVuSans-114"/>
     <use x="1645.681641" xlink:href="#DejaVuSans-116"/>
     <use x="1684.890625" xlink:href="#DejaVuSans-97"/>
     <use x="1746.169922" xlink:href="#DejaVuSans-105"/>
     <use x="1773.953125" xlink:href="#DejaVuSans-110"/>
     <use x="1837.332031" xlink:href="#DejaVuSans-116"/>
     <use x="1876.541016" xlink:href="#DejaVuSans-121"/>
     <use x="1935.720703" xlink:href="#DejaVuSans-32"/>
    </g>
   </g>
   <g id="legend_1">
    <g id="patch_7">
     <path d="M 277.843437 108.1845 
L 407.72 108.1845 
Q 409.72 108.1845 409.72 106.1845 
L 409.72 48.472 
Q 409.72 46.472 407.72 46.472 
L 277.843437 46.472 
Q 275.843437 46.472 275.843437 48.472 
L 275.843437 106.1845 
Q 275.843437 108.1845 277.843437 108.1845 
z
" style="fill:#ffffff;opacity:0.8;stroke:#cccccc;stroke-linejoin:miter;"/>
    </g>
    <g id="line2d_18">
     <path d="M 279.843437 54.570438 
L 299.843437 54.570438 
" style="fill:none;stroke:#1f77b4;stroke-linecap:square;stroke-width:1.5;"/>
    </g>
    <g id="line2d_19"/>
    <g id="text_15">
     <!-- actual -->
     <defs>
      <path d="M 8.5 21.578125 
L 8.5 54.6875 
L 17.484375 54.6875 
L 17.484375 21.921875 
Q 17.484375 14.15625 20.5 10.265625 
Q 23.53125 6.390625 29.59375 6.390625 
Q 36.859375 6.390625 41.078125 11.03125 
Q 45.3125 15.671875 45.3125 23.6875 
L 45.3125 54.6875 
L 54.296875 54.6875 
L 54.296875 0 
L 45.3125 0 
L 45.3125 8.40625 
Q 42.046875 3.421875 37.71875 1 
Q 33.40625 -1.421875 27.6875 -1.421875 
Q 18.265625 -1.421875 13.375 4.4375 
Q 8.5 10.296875 8.5 21.578125 
z
M 31.109375 56 
z
" id="DejaVuSans-117"/>
     </defs>
     <g transform="translate(307.843437 58.070438)scale(0.1 -0.1)">
      <use xlink:href="#DejaVuSans-97"/>
      <use x="61.279297" xlink:href="#DejaVuSans-99"/>
      <use x="116.259766" xlink:href="#DejaVuSans-116"/>
      <use x="155.46875" xlink:href="#DejaVuSans-117"/>
      <use x="218.847656" xlink:href="#DejaVuSans-97"/>
      <use x="280.126953" xlink:href="#DejaVuSans-108"/>
     </g>
    </g>
    <g id="line2d_20">
     <path d="M 279.843437 69.248563 
L 299.843437 69.248563 
" style="fill:none;stroke:#ff7f0e;stroke-linecap:square;stroke-width:1.5;"/>
    </g>
    <g id="line2d_21"/>
    <g id="text_16">
     <!-- pred. (mean) -->
     <defs>
      <path d="M 18.109375 8.203125 
L 18.109375 -20.796875 
L 9.078125 -20.796875 
L 9.078125 54.6875 
L 18.109375 54.6875 
L 18.109375 46.390625 
Q 20.953125 51.265625 25.265625 53.625 
Q 29.59375 56 35.59375 56 
Q 45.5625 56 51.78125 48.09375 
Q 58.015625 40.1875 58.015625 27.296875 
Q 58.015625 14.40625 51.78125 6.484375 
Q 45.5625 -1.421875 35.59375 -1.421875 
Q 29.59375 -1.421875 25.265625 0.953125 
Q 20.953125 3.328125 18.109375 8.203125 
z
M 48.6875 27.296875 
Q 48.6875 37.203125 44.609375 42.84375 
Q 40.53125 48.484375 33.40625 48.484375 
Q 26.265625 48.484375 22.1875 42.84375 
Q 18.109375 37.203125 18.109375 27.296875 
Q 18.109375 17.390625 22.1875 11.75 
Q 26.265625 6.109375 33.40625 6.109375 
Q 40.53125 6.109375 44.609375 11.75 
Q 48.6875 17.390625 48.6875 27.296875 
z
" id="DejaVuSans-112"/>
      <path d="M 45.40625 46.390625 
L 45.40625 75.984375 
L 54.390625 75.984375 
L 54.390625 0 
L 45.40625 0 
L 45.40625 8.203125 
Q 42.578125 3.328125 38.25 0.953125 
Q 33.9375 -1.421875 27.875 -1.421875 
Q 17.96875 -1.421875 11.734375 6.484375 
Q 5.515625 14.40625 5.515625 27.296875 
Q 5.515625 40.1875 11.734375 48.09375 
Q 17.96875 56 27.875 56 
Q 33.9375 56 38.25 53.625 
Q 42.578125 51.265625 45.40625 46.390625 
z
M 14.796875 27.296875 
Q 14.796875 17.390625 18.875 11.75 
Q 22.953125 6.109375 30.078125 6.109375 
Q 37.203125 6.109375 41.296875 11.75 
Q 45.40625 17.390625 45.40625 27.296875 
Q 45.40625 37.203125 41.296875 42.84375 
Q 37.203125 48.484375 30.078125 48.484375 
Q 22.953125 48.484375 18.875 42.84375 
Q 14.796875 37.203125 14.796875 27.296875 
z
" id="DejaVuSans-100"/>
      <path d="M 31 75.875 
Q 24.46875 64.65625 21.28125 53.65625 
Q 18.109375 42.671875 18.109375 31.390625 
Q 18.109375 20.125 21.3125 9.0625 
Q 24.515625 -2 31 -13.1875 
L 23.1875 -13.1875 
Q 15.875 -1.703125 12.234375 9.375 
Q 8.59375 20.453125 8.59375 31.390625 
Q 8.59375 42.28125 12.203125 53.3125 
Q 15.828125 64.359375 23.1875 75.875 
z
" id="DejaVuSans-40"/>
      <path d="M 52 44.1875 
Q 55.375 50.25 60.0625 53.125 
Q 64.75 56 71.09375 56 
Q 79.640625 56 84.28125 50.015625 
Q 88.921875 44.046875 88.921875 33.015625 
L 88.921875 0 
L 79.890625 0 
L 79.890625 32.71875 
Q 79.890625 40.578125 77.09375 44.375 
Q 74.3125 48.1875 68.609375 48.1875 
Q 61.625 48.1875 57.5625 43.546875 
Q 53.515625 38.921875 53.515625 30.90625 
L 53.515625 0 
L 44.484375 0 
L 44.484375 32.71875 
Q 44.484375 40.625 41.703125 44.40625 
Q 38.921875 48.1875 33.109375 48.1875 
Q 26.21875 48.1875 22.15625 43.53125 
Q 18.109375 38.875 18.109375 30.90625 
L 18.109375 0 
L 9.078125 0 
L 9.078125 54.6875 
L 18.109375 54.6875 
L 18.109375 46.1875 
Q 21.1875 51.21875 25.484375 53.609375 
Q 29.78125 56 35.6875 56 
Q 41.65625 56 45.828125 52.96875 
Q 50 49.953125 52 44.1875 
z
" id="DejaVuSans-109"/>
      <path d="M 8.015625 75.875 
L 15.828125 75.875 
Q 23.140625 64.359375 26.78125 53.3125 
Q 30.421875 42.28125 30.421875 31.390625 
Q 30.421875 20.453125 26.78125 9.375 
Q 23.140625 -1.703125 15.828125 -13.1875 
L 8.015625 -13.1875 
Q 14.5 -2 17.703125 9.0625 
Q 20.90625 20.125 20.90625 31.390625 
Q 20.90625 42.671875 17.703125 53.65625 
Q 14.5 64.65625 8.015625 75.875 
z
" id="DejaVuSans-41"/>
     </defs>
     <g transform="translate(307.843437 72.748563)scale(0.1 -0.1)">
      <use xlink:href="#DejaVuSans-112"/>
      <use x="63.476562" xlink:href="#DejaVuSans-114"/>
      <use x="104.558594" xlink:href="#DejaVuSans-101"/>
      <use x="166.082031" xlink:href="#DejaVuSans-100"/>
      <use x="229.558594" xlink:href="#DejaVuSans-46"/>
      <use x="261.345703" xlink:href="#DejaVuSans-32"/>
      <use x="293.132812" xlink:href="#DejaVuSans-40"/>
      <use x="332.146484" xlink:href="#DejaVuSans-109"/>
      <use x="429.558594" xlink:href="#DejaVuSans-101"/>
      <use x="491.082031" xlink:href="#DejaVuSans-97"/>
      <use x="552.361328" xlink:href="#DejaVuSans-110"/>
      <use x="615.740234" xlink:href="#DejaVuSans-41"/>
     </g>
    </g>
    <g id="line2d_22">
     <path d="M 279.843437 83.926688 
L 299.843437 83.926688 
" style="fill:none;stroke:#2ca02c;stroke-linecap:square;stroke-width:1.5;"/>
    </g>
    <g id="line2d_23"/>
    <g id="text_17">
     <!-- pred.(5th percen.) -->
     <defs>
      <path d="M 54.890625 33.015625 
L 54.890625 0 
L 45.90625 0 
L 45.90625 32.71875 
Q 45.90625 40.484375 42.875 44.328125 
Q 39.84375 48.1875 33.796875 48.1875 
Q 26.515625 48.1875 22.3125 43.546875 
Q 18.109375 38.921875 18.109375 30.90625 
L 18.109375 0 
L 9.078125 0 
L 9.078125 75.984375 
L 18.109375 75.984375 
L 18.109375 46.1875 
Q 21.34375 51.125 25.703125 53.5625 
Q 30.078125 56 35.796875 56 
Q 45.21875 56 50.046875 50.171875 
Q 54.890625 44.34375 54.890625 33.015625 
z
" id="DejaVuSans-104"/>
     </defs>
     <g transform="translate(307.843437 87.426688)scale(0.1 -0.1)">
      <use xlink:href="#DejaVuSans-112"/>
      <use x="63.476562" xlink:href="#DejaVuSans-114"/>
      <use x="104.558594" xlink:href="#DejaVuSans-101"/>
      <use x="166.082031" xlink:href="#DejaVuSans-100"/>
      <use x="229.558594" xlink:href="#DejaVuSans-46"/>
      <use x="261.345703" xlink:href="#DejaVuSans-40"/>
      <use x="300.359375" xlink:href="#DejaVuSans-53"/>
      <use x="363.982422" xlink:href="#DejaVuSans-116"/>
      <use x="403.191406" xlink:href="#DejaVuSans-104"/>
      <use x="466.570312" xlink:href="#DejaVuSans-32"/>
      <use x="498.357422" xlink:href="#DejaVuSans-112"/>
      <use x="561.833984" xlink:href="#DejaVuSans-101"/>
      <use x="623.357422" xlink:href="#DejaVuSans-114"/>
      <use x="664.439453" xlink:href="#DejaVuSans-99"/>
      <use x="719.419922" xlink:href="#DejaVuSans-101"/>
      <use x="780.943359" xlink:href="#DejaVuSans-110"/>
      <use x="844.322266" xlink:href="#DejaVuSans-46"/>
      <use x="876.109375" xlink:href="#DejaVuSans-41"/>
     </g>
    </g>
    <g id="line2d_24">
     <path d="M 279.843437 98.604813 
L 299.843437 98.604813 
" style="fill:none;stroke:#d62728;stroke-linecap:square;stroke-width:1.5;"/>
    </g>
    <g id="line2d_25"/>
    <g id="text_18">
     <!-- pred.(95th percen.) -->
     <defs>
      <path d="M 10.984375 1.515625 
L 10.984375 10.5 
Q 14.703125 8.734375 18.5 7.8125 
Q 22.3125 6.890625 25.984375 6.890625 
Q 35.75 6.890625 40.890625 13.453125 
Q 46.046875 20.015625 46.78125 33.40625 
Q 43.953125 29.203125 39.59375 26.953125 
Q 35.25 24.703125 29.984375 24.703125 
Q 19.046875 24.703125 12.671875 31.3125 
Q 6.296875 37.9375 6.296875 49.421875 
Q 6.296875 60.640625 12.9375 67.421875 
Q 19.578125 74.21875 30.609375 74.21875 
Q 43.265625 74.21875 49.921875 64.515625 
Q 56.59375 54.828125 56.59375 36.375 
Q 56.59375 19.140625 48.40625 8.859375 
Q 40.234375 -1.421875 26.421875 -1.421875 
Q 22.703125 -1.421875 18.890625 -0.6875 
Q 15.09375 0.046875 10.984375 1.515625 
z
M 30.609375 32.421875 
Q 37.25 32.421875 41.125 36.953125 
Q 45.015625 41.5 45.015625 49.421875 
Q 45.015625 57.28125 41.125 61.84375 
Q 37.25 66.40625 30.609375 66.40625 
Q 23.96875 66.40625 20.09375 61.84375 
Q 16.21875 57.28125 16.21875 49.421875 
Q 16.21875 41.5 20.09375 36.953125 
Q 23.96875 32.421875 30.609375 32.421875 
z
" id="DejaVuSans-57"/>
     </defs>
     <g transform="translate(307.843437 102.104813)scale(0.1 -0.1)">
      <use xlink:href="#DejaVuSans-112"/>
      <use x="63.476562" xlink:href="#DejaVuSans-114"/>
      <use x="104.558594" xlink:href="#DejaVuSans-101"/>
      <use x="166.082031" xlink:href="#DejaVuSans-100"/>
      <use x="229.558594" xlink:href="#DejaVuSans-46"/>
      <use x="261.345703" xlink:href="#DejaVuSans-40"/>
      <use x="300.359375" xlink:href="#DejaVuSans-57"/>
      <use x="363.982422" xlink:href="#DejaVuSans-53"/>
      <use x="427.605469" xlink:href="#DejaVuSans-116"/>
      <use x="466.814453" xlink:href="#DejaVuSans-104"/>
      <use x="530.193359" xlink:href="#DejaVuSans-32"/>
      <use x="561.980469" xlink:href="#DejaVuSans-112"/>
      <use x="625.457031" xlink:href="#DejaVuSans-101"/>
      <use x="686.980469" xlink:href="#DejaVuSans-114"/>
      <use x="728.0625" xlink:href="#DejaVuSans-99"/>
      <use x="783.042969" xlink:href="#DejaVuSans-101"/>
      <use x="844.566406" xlink:href="#DejaVuSans-110"/>
      <use x="907.945312" xlink:href="#DejaVuSans-46"/>
      <use x="939.732422" xlink:href="#DejaVuSans-41"/>
     </g>
    </g>
   </g>
  </g>
 </g>
 <defs>
  <clipPath id="p9c542289d8">
   <rect height="266.112" width="357.12" x="57.6" y="41.472"/>
  </clipPath>
 </defs>
</svg>
