<?xml version="1.0" encoding="utf-8" standalone="no"?>
<!DOCTYPE svg PUBLIC "-//W3C//DTD SVG 1.1//EN"
  "http://www.w3.org/Graphics/SVG/1.1/DTD/svg11.dtd">
<!-- Created with matplotlib (https://matplotlib.org/) -->
<svg height="345.6pt" version="1.1" viewBox="0 0 460.8 345.6" width="460.8pt" xmlns="http://www.w3.org/2000/svg" xmlns:xlink="http://www.w3.org/1999/xlink">
 <defs>
  <style type="text/css">
*{stroke-linecap:butt;stroke-linejoin:round;}
  </style>
 </defs>
 <g id="figure_1">
  <g id="patch_1">
   <path d="M 0 345.6 
L 460.8 345.6 
L 460.8 0 
L 0 0 
z
" style="fill:#ffffff;"/>
  </g>
  <g id="axes_1">
   <g id="patch_2">
    <path d="M 57.6 307.584 
L 414.72 307.584 
L 414.72 41.472 
L 57.6 41.472 
z
" style="fill:#ffffff;"/>
   </g>
   <g id="PolyCollection_1">
    <path clip-path="url(#pfb00d20f95)" d="M 73.832727 275.609023 
L 73.832727 285.17603 
L 74.92584 285.749281 
L 76.018953 285.313171 
L 77.112066 285.215118 
L 78.205179 282.977166 
L 79.298292 278.122253 
L 80.391405 276.146931 
L 81.484518 266.777645 
L 82.577631 257.942977 
L 83.670744 244.400383 
L 84.763857 221.271375 
L 85.85697 202.278179 
L 86.950083 180.058787 
L 88.043196 153.784139 
L 89.136309 131.842294 
L 90.229421 119.380308 
L 91.322534 114.510069 
L 92.415647 101.490142 
L 93.50876 91.027427 
L 94.601873 88.419296 
L 95.694986 86.50963 
L 96.788099 83.91583 
L 97.881212 84.139124 
L 98.974325 88.338475 
L 100.067438 96.82133 
L 101.160551 96.260821 
L 102.253664 100.224826 
L 103.346777 114.284714 
L 104.43989 120.083952 
L 105.533003 133.96479 
L 106.626116 136.906174 
L 107.719229 163.420302 
L 108.812342 175.922091 
L 109.905455 156.629012 
L 110.998567 152.884873 
L 112.09168 160.965217 
L 113.184793 165.729769 
L 114.277906 162.323227 
L 115.371019 165.114651 
L 116.464132 187.665804 
L 117.557245 196.092108 
L 118.650358 199.135871 
L 119.743471 215.798282 
L 120.836584 219.6236 
L 121.929697 219.660026 
L 123.02281 226.892921 
L 124.115923 236.189993 
L 125.209036 241.98439 
L 126.302149 243.900799 
L 127.395262 247.662049 
L 128.488375 258.193241 
L 129.581488 261.766668 
L 130.674601 260.565118 
L 131.767713 260.737271 
L 132.860826 266.019348 
L 133.953939 269.727898 
L 135.047052 271.055004 
L 136.140165 274.051534 
L 137.233278 280.61763 
L 138.326391 282.413504 
L 139.419504 280.774354 
L 140.512617 279.335916 
L 141.60573 280.259264 
L 142.698843 277.961656 
L 143.791956 276.067251 
L 144.885069 274.846511 
L 145.978182 268.358913 
L 147.071295 260.624581 
L 148.164408 253.578357 
L 149.257521 250.327573 
L 150.350634 245.225113 
L 151.443747 236.869148 
L 152.53686 232.164183 
L 153.629972 228.121757 
L 154.723085 221.615741 
L 155.816198 211.884524 
L 156.909311 199.602575 
L 158.002424 194.936759 
L 159.095537 192.316124 
L 160.18865 194.20993 
L 161.281763 189.403225 
L 162.374876 174.275284 
L 163.467989 147.560584 
L 164.561102 126.583095 
L 165.654215 112.027885 
L 166.747328 103.688916 
L 167.840441 96.813653 
L 168.933554 93.901547 
L 170.026667 101.844659 
L 171.11978 99.357819 
L 172.212893 97.327458 
L 173.306006 98.699753 
L 174.399118 107.476783 
L 175.492231 123.075069 
L 176.585344 132.087014 
L 177.678457 152.189108 
L 178.77157 164.434151 
L 179.864683 173.090195 
L 180.957796 177.179036 
L 182.050909 180.022532 
L 183.144022 183.009096 
L 184.237135 193.076748 
L 185.330248 189.13973 
L 186.423361 187.892133 
L 187.516474 189.075441 
L 188.609587 191.999124 
L 189.7027 194.958456 
L 190.795813 193.083363 
L 191.888926 201.03665 
L 192.982039 199.418522 
L 194.075152 201.388153 
L 195.168264 206.113556 
L 196.261377 207.622857 
L 197.35449 212.387616 
L 198.447603 220.11087 
L 199.540716 225.585251 
L 200.633829 228.807118 
L 201.726942 227.327857 
L 202.820055 231.211052 
L 203.913168 238.702988 
L 205.006281 244.960488 
L 206.099394 249.741569 
L 207.192507 254.614914 
L 208.28562 263.159151 
L 209.378733 267.629926 
L 210.471846 267.183048 
L 211.564959 268.72081 
L 212.658072 273.26558 
L 213.751185 277.541457 
L 214.844298 281.210458 
L 215.93741 283.799848 
L 217.030523 287.049886 
L 218.123636 288.552157 
L 219.216749 289.48313 
L 220.309862 289.64547 
L 221.402975 289.104242 
L 222.496088 289.087265 
L 223.589201 288.343209 
L 224.682314 287.239045 
L 225.775427 285.783147 
L 226.86854 282.24899 
L 227.961653 278.107608 
L 229.054766 269.547513 
L 230.147879 262.63468 
L 231.240992 255.803869 
L 232.334105 246.927543 
L 233.427218 240.647443 
L 234.520331 230.001816 
L 235.613444 217.072163 
L 236.706556 207.110096 
L 237.799669 194.081406 
L 238.892782 179.941544 
L 239.985895 164.92851 
L 241.079008 151.732199 
L 242.172121 143.85831 
L 243.265234 140.798238 
L 244.358347 141.722698 
L 245.45146 142.22923 
L 246.544573 134.091109 
L 247.637686 137.14311 
L 248.730799 143.092864 
L 249.823912 140.723132 
L 250.917025 144.423893 
L 252.010138 143.807438 
L 253.103251 156.411447 
L 254.196364 162.336284 
L 255.289477 170.125634 
L 256.38259 174.971386 
L 257.475702 180.5231 
L 258.568815 191.907689 
L 259.661928 188.346762 
L 260.755041 192.85218 
L 261.848154 197.890113 
L 262.941267 204.761236 
L 264.03438 204.380967 
L 265.127493 203.616666 
L 266.220606 216.157605 
L 267.313719 223.608593 
L 268.406832 228.367914 
L 269.499945 228.992889 
L 270.593058 228.868763 
L 271.686171 230.558691 
L 272.779284 229.376066 
L 273.872397 224.676423 
L 274.96551 223.63247 
L 276.058623 223.599455 
L 277.151736 227.549267 
L 278.244848 231.862786 
L 279.337961 236.308498 
L 280.431074 242.410689 
L 281.524187 246.403999 
L 282.6173 252.334615 
L 283.710413 254.731083 
L 284.803526 258.279942 
L 285.896639 264.093336 
L 286.989752 269.859826 
L 288.082865 271.814206 
L 289.175978 276.19525 
L 290.269091 283.499109 
L 291.362204 285.518231 
L 292.455317 287.260435 
L 293.54843 287.958583 
L 294.641543 287.774284 
L 295.734656 285.546119 
L 296.827769 282.134423 
L 297.920882 276.377766 
L 299.013994 269.091187 
L 300.107107 262.215637 
L 301.20022 252.45852 
L 302.293333 239.541884 
L 303.386446 227.143108 
L 304.479559 218.550398 
L 305.572672 200.095479 
L 306.665785 185.967996 
L 307.758898 181.431131 
L 308.852011 173.077253 
L 309.945124 157.52983 
L 311.038237 131.08989 
L 312.13135 115.367917 
L 313.224463 103.663543 
L 314.317576 93.491755 
L 315.410689 88.22539 
L 316.503802 87.268231 
L 317.596915 88.026748 
L 318.690028 91.602548 
L 319.78314 97.820918 
L 320.876253 109.774043 
L 321.969366 116.90288 
L 323.062479 120.284383 
L 324.155592 139.653272 
L 325.248705 135.447872 
L 326.341818 132.514843 
L 327.434931 126.410998 
L 328.528044 127.731204 
L 329.621157 128.826987 
L 330.71427 140.395609 
L 331.807383 160.740143 
L 332.900496 170.825153 
L 333.993609 189.124103 
L 335.086722 197.234771 
L 336.179835 207.352092 
L 337.272948 216.173155 
L 338.366061 215.225829 
L 339.459174 216.50867 
L 340.552287 222.076987 
L 341.645399 230.254716 
L 342.738512 241.217218 
L 343.831625 244.895997 
L 344.924738 252.535005 
L 346.017851 266.452342 
L 347.110964 270.808404 
L 348.204077 273.375393 
L 349.29719 273.93997 
L 350.390303 277.944686 
L 351.483416 280.830791 
L 352.576529 280.717283 
L 353.669642 280.232384 
L 354.762755 280.592216 
L 355.855868 281.258265 
L 356.948981 280.833678 
L 358.042094 277.962307 
L 359.135207 278.859599 
L 360.22832 278.93035 
L 361.321433 280.503344 
L 362.414545 282.510423 
L 363.507658 284.641204 
L 364.600771 286.63691 
L 365.693884 287.663258 
L 366.786997 288.958802 
L 367.88011 289.623462 
L 368.973223 290.215439 
L 370.066336 290.316289 
L 371.159449 290.277126 
L 372.252562 289.270377 
L 373.345675 288.111337 
L 374.438788 286.317553 
L 375.531901 281.894749 
L 376.625014 277.65709 
L 377.718127 271.618183 
L 378.81124 263.689712 
L 379.904353 254.282593 
L 380.997466 249.320383 
L 382.090579 243.608263 
L 383.183691 234.949991 
L 384.276804 226.134424 
L 385.369917 217.992016 
L 386.46303 216.159655 
L 387.556143 209.446103 
L 388.649256 205.30665 
L 389.742369 197.141943 
L 390.835482 199.397293 
L 391.928595 205.426409 
L 393.021708 202.345809 
L 394.114821 198.659271 
L 395.207934 204.087068 
L 396.301047 210.892829 
L 397.39416 206.924757 
L 398.487273 200.385928 
L 398.487273 197.650431 
L 398.487273 197.650431 
L 397.39416 200.22137 
L 396.301047 207.958952 
L 395.207934 200.634798 
L 394.114821 196.38585 
L 393.021708 199.048174 
L 391.928595 202.552203 
L 390.835482 195.117406 
L 389.742369 190.53324 
L 388.649256 200.789143 
L 387.556143 203.975619 
L 386.46303 209.122619 
L 385.369917 211.561992 
L 384.276804 214.350342 
L 383.183691 224.07102 
L 382.090579 233.551587 
L 380.997466 241.128184 
L 379.904353 245.040023 
L 378.81124 257.349817 
L 377.718127 268.767879 
L 376.625014 272.285961 
L 375.531901 274.718055 
L 374.438788 276.843148 
L 373.345675 277.917192 
L 372.252562 278.627374 
L 371.159449 279.113012 
L 370.066336 279.135152 
L 368.973223 278.868934 
L 367.88011 278.505512 
L 366.786997 277.860106 
L 365.693884 277.017234 
L 364.600771 276.208882 
L 363.507658 274.785974 
L 362.414545 273.735484 
L 361.321433 272.556115 
L 360.22832 272.071419 
L 359.135207 271.999875 
L 358.042094 272.076723 
L 356.948981 273.371057 
L 355.855868 273.177406 
L 354.762755 273.041258 
L 353.669642 272.869815 
L 352.576529 273.032168 
L 351.483416 272.34319 
L 350.390303 270.43821 
L 349.29719 268.903484 
L 348.204077 267.8543 
L 347.110964 265.386715 
L 346.017851 259.82268 
L 344.924738 247.839758 
L 343.831625 240.263119 
L 342.738512 237.482069 
L 341.645399 227.311431 
L 340.552287 219.582327 
L 339.459174 213.900114 
L 338.366061 211.81909 
L 337.272948 211.741159 
L 336.179835 198.393598 
L 335.086722 186.900587 
L 333.993609 173.027719 
L 332.900496 156.340667 
L 331.807383 144.950533 
L 330.71427 129.376162 
L 329.621157 124.620315 
L 328.528044 123.533421 
L 327.434931 123.008733 
L 326.341818 128.342049 
L 325.248705 130.19763 
L 324.155592 127.745361 
L 323.062479 115.983534 
L 321.969366 113.125483 
L 320.876253 105.743247 
L 319.78314 91.359581 
L 318.690028 80.513973 
L 317.596915 72.225268 
L 316.503802 69.950786 
L 315.410689 69.009224 
L 314.317576 72.220632 
L 313.224463 87.22616 
L 312.13135 103.207767 
L 311.038237 112.577401 
L 309.945124 149.457746 
L 308.852011 170.508283 
L 307.758898 177.583874 
L 306.665785 178.817262 
L 305.572672 186.644423 
L 304.479559 208.116273 
L 303.386446 214.74625 
L 302.293333 225.556338 
L 301.20022 240.29286 
L 300.107107 256.433426 
L 299.013994 265.907568 
L 297.920882 271.851942 
L 296.827769 274.589691 
L 295.734656 276.462645 
L 294.641543 277.433877 
L 293.54843 277.327574 
L 292.455317 276.550004 
L 291.362204 275.281987 
L 290.269091 272.85374 
L 289.175978 269.139285 
L 288.082865 267.142587 
L 286.989752 264.811192 
L 285.896639 260.121185 
L 284.803526 254.808754 
L 283.710413 250.968378 
L 282.6173 248.495404 
L 281.524187 242.016973 
L 280.431074 237.97963 
L 279.337961 232.229468 
L 278.244848 227.267656 
L 277.151736 223.882095 
L 276.058623 219.19488 
L 274.96551 217.63648 
L 273.872397 217.666137 
L 272.779284 221.285052 
L 271.686171 225.60115 
L 270.593058 223.480781 
L 269.499945 223.010735 
L 268.406832 224.590407 
L 267.313719 221.396739 
L 266.220606 211.469436 
L 265.127493 201.646807 
L 264.03438 200.939837 
L 262.941267 199.776259 
L 261.848154 193.186097 
L 260.755041 187.410765 
L 259.661928 184.063081 
L 258.568815 182.015336 
L 257.475702 169.742008 
L 256.38259 165.415877 
L 255.289477 157.953165 
L 254.196364 151.81135 
L 253.103251 144.543592 
L 252.010138 136.227537 
L 250.917025 137.063546 
L 249.823912 134.597853 
L 248.730799 135.102438 
L 247.637686 130.102815 
L 246.544573 131.048194 
L 245.45146 135.99297 
L 244.358347 135.79065 
L 243.265234 134.670193 
L 242.172121 139.939323 
L 241.079008 147.674771 
L 239.985895 159.680856 
L 238.892782 172.673773 
L 237.799669 185.022369 
L 236.706556 198.541158 
L 235.613444 206.01267 
L 234.520331 217.511021 
L 233.427218 230.002417 
L 232.334105 236.786584 
L 231.240992 246.857233 
L 230.147879 257.516407 
L 229.054766 265.805758 
L 227.961653 272.59129 
L 226.86854 274.675019 
L 225.775427 276.48861 
L 224.682314 277.308513 
L 223.589201 277.968938 
L 222.496088 278.252536 
L 221.402975 278.376449 
L 220.309862 278.598718 
L 219.216749 278.326647 
L 218.123636 277.471499 
L 217.030523 276.084738 
L 215.93741 274.165139 
L 214.844298 272.26967 
L 213.751185 270.006543 
L 212.658072 267.555799 
L 211.564959 265.548704 
L 210.471846 264.540076 
L 209.378733 263.427053 
L 208.28562 258.39633 
L 207.192507 250.731444 
L 206.099394 245.60269 
L 205.006281 240.850186 
L 203.913168 234.900454 
L 202.820055 227.439523 
L 201.726942 221.155593 
L 200.633829 223.862627 
L 199.540716 222.90656 
L 198.447603 218.007683 
L 197.35449 209.705717 
L 196.261377 204.352028 
L 195.168264 202.997818 
L 194.075152 199.175538 
L 192.982039 196.86985 
L 191.888926 196.035104 
L 190.795813 190.678543 
L 189.7027 191.194809 
L 188.609587 187.62144 
L 187.516474 185.195658 
L 186.423361 184.840019 
L 185.330248 185.656382 
L 184.237135 184.633212 
L 183.144022 175.077127 
L 182.050909 171.97309 
L 180.957796 166.619406 
L 179.864683 159.380995 
L 178.77157 150.218608 
L 177.678457 135.681438 
L 176.585344 123.478971 
L 175.492231 116.336885 
L 174.399118 104.159579 
L 173.306006 90.154162 
L 172.212893 86.127159 
L 171.11978 87.763267 
L 170.026667 96.278663 
L 168.933554 81.417315 
L 167.840441 78.954651 
L 166.747328 90.659095 
L 165.654215 98.841672 
L 164.561102 113.323595 
L 163.467989 130.96955 
L 162.374876 165.052179 
L 161.281763 186.939615 
L 160.18865 191.416581 
L 159.095537 190.371961 
L 158.002424 192.067687 
L 156.909311 193.02027 
L 155.816198 200.97516 
L 154.723085 212.481892 
L 153.629972 220.149641 
L 152.53686 224.10268 
L 151.443747 225.914483 
L 150.350634 235.802429 
L 149.257521 243.308822 
L 148.164408 245.64042 
L 147.071295 253.564398 
L 145.978182 265.216437 
L 144.885069 270.218903 
L 143.791956 270.913934 
L 142.698843 272.061706 
L 141.60573 272.736876 
L 140.512617 272.592018 
L 139.419504 273.378072 
L 138.326391 273.524531 
L 137.233278 271.246445 
L 136.140165 268.389966 
L 135.047052 266.894841 
L 133.953939 265.43731 
L 132.860826 262.310516 
L 131.767713 257.868264 
L 130.674601 257.504726 
L 129.581488 258.071765 
L 128.488375 253.231504 
L 127.395262 243.44144 
L 126.302149 238.501195 
L 125.209036 237.539605 
L 124.115923 232.895517 
L 123.02281 224.095372 
L 121.929697 216.133785 
L 120.836584 216.94676 
L 119.743471 206.87733 
L 118.650358 192.34541 
L 117.557245 185.757825 
L 116.464132 170.804465 
L 115.371019 155.957065 
L 114.277906 156.290761 
L 113.184793 156.153602 
L 112.09168 150.703126 
L 110.998567 144.457188 
L 109.905455 151.701222 
L 108.812342 161.080109 
L 107.719229 144.398589 
L 106.626116 129.07376 
L 105.533003 124.212311 
L 104.43989 115.527582 
L 103.346777 109.935368 
L 102.253664 95.699494 
L 101.160551 84.485764 
L 100.067438 88.443194 
L 98.974325 76.425528 
L 97.881212 66.107514 
L 96.788099 63.912336 
L 95.694986 66.737009 
L 94.601873 71.33903 
L 93.50876 69.490197 
L 92.415647 80.223982 
L 91.322534 108.728143 
L 90.229421 111.30053 
L 89.136309 118.83308 
L 88.043196 140.481946 
L 86.950083 163.826384 
L 85.85697 188.661591 
L 84.763857 202.333885 
L 83.670744 227.042525 
L 82.577631 249.53161 
L 81.484518 261.17819 
L 80.391405 271.078937 
L 79.298292 272.605142 
L 78.205179 274.937747 
L 77.112066 275.75923 
L 76.018953 275.943914 
L 74.92584 275.933615 
L 73.832727 275.609023 
z
" style="fill:#008000;fill-opacity:0.4;"/>
   </g>
   <g id="matplotlib.axis_1">
    <g id="xtick_1">
     <g id="line2d_1">
      <defs>
       <path d="M 0 0 
L 0 3.5 
" id="m2e9d432768" style="stroke:#000000;stroke-width:0.8;"/>
      </defs>
      <g>
       <use style="stroke:#000000;stroke-width:0.8;" x="73.832727" xlink:href="#m2e9d432768" y="307.584"/>
      </g>
     </g>
     <g id="text_1">
      <!-- 0.0 -->
      <defs>
       <path d="M 31.78125 66.40625 
Q 24.171875 66.40625 20.328125 58.90625 
Q 16.5 51.421875 16.5 36.375 
Q 16.5 21.390625 20.328125 13.890625 
Q 24.171875 6.390625 31.78125 6.390625 
Q 39.453125 6.390625 43.28125 13.890625 
Q 47.125 21.390625 47.125 36.375 
Q 47.125 51.421875 43.28125 58.90625 
Q 39.453125 66.40625 31.78125 66.40625 
z
M 31.78125 74.21875 
Q 44.046875 74.21875 50.515625 64.515625 
Q 56.984375 54.828125 56.984375 36.375 
Q 56.984375 17.96875 50.515625 8.265625 
Q 44.046875 -1.421875 31.78125 -1.421875 
Q 19.53125 -1.421875 13.0625 8.265625 
Q 6.59375 17.96875 6.59375 36.375 
Q 6.59375 54.828125 13.0625 64.515625 
Q 19.53125 74.21875 31.78125 74.21875 
z
" id="DejaVuSans-48"/>
       <path d="M 10.6875 12.40625 
L 21 12.40625 
L 21 0 
L 10.6875 0 
z
" id="DejaVuSans-46"/>
      </defs>
      <g transform="translate(65.881165 322.182437)scale(0.1 -0.1)">
       <use xlink:href="#DejaVuSans-48"/>
       <use x="63.623047" xlink:href="#DejaVuSans-46"/>
       <use x="95.410156" xlink:href="#DejaVuSans-48"/>
      </g>
     </g>
    </g>
    <g id="xtick_2">
     <g id="line2d_2">
      <g>
       <use style="stroke:#000000;stroke-width:0.8;" x="138.763636" xlink:href="#m2e9d432768" y="307.584"/>
      </g>
     </g>
     <g id="text_2">
      <!-- 0.2 -->
      <defs>
       <path d="M 19.1875 8.296875 
L 53.609375 8.296875 
L 53.609375 0 
L 7.328125 0 
L 7.328125 8.296875 
Q 12.9375 14.109375 22.625 23.890625 
Q 32.328125 33.6875 34.8125 36.53125 
Q 39.546875 41.84375 41.421875 45.53125 
Q 43.3125 49.21875 43.3125 52.78125 
Q 43.3125 58.59375 39.234375 62.25 
Q 35.15625 65.921875 28.609375 65.921875 
Q 23.96875 65.921875 18.8125 64.3125 
Q 13.671875 62.703125 7.8125 59.421875 
L 7.8125 69.390625 
Q 13.765625 71.78125 18.9375 73 
Q 24.125 74.21875 28.421875 74.21875 
Q 39.75 74.21875 46.484375 68.546875 
Q 53.21875 62.890625 53.21875 53.421875 
Q 53.21875 48.921875 51.53125 44.890625 
Q 49.859375 40.875 45.40625 35.40625 
Q 44.1875 33.984375 37.640625 27.21875 
Q 31.109375 20.453125 19.1875 8.296875 
z
" id="DejaVuSans-50"/>
      </defs>
      <g transform="translate(130.812074 322.182437)scale(0.1 -0.1)">
       <use xlink:href="#DejaVuSans-48"/>
       <use x="63.623047" xlink:href="#DejaVuSans-46"/>
       <use x="95.410156" xlink:href="#DejaVuSans-50"/>
      </g>
     </g>
    </g>
    <g id="xtick_3">
     <g id="line2d_3">
      <g>
       <use style="stroke:#000000;stroke-width:0.8;" x="203.694545" xlink:href="#m2e9d432768" y="307.584"/>
      </g>
     </g>
     <g id="text_3">
      <!-- 0.4 -->
      <defs>
       <path d="M 37.796875 64.3125 
L 12.890625 25.390625 
L 37.796875 25.390625 
z
M 35.203125 72.90625 
L 47.609375 72.90625 
L 47.609375 25.390625 
L 58.015625 25.390625 
L 58.015625 17.1875 
L 47.609375 17.1875 
L 47.609375 0 
L 37.796875 0 
L 37.796875 17.1875 
L 4.890625 17.1875 
L 4.890625 26.703125 
z
" id="DejaVuSans-52"/>
      </defs>
      <g transform="translate(195.742983 322.182437)scale(0.1 -0.1)">
       <use xlink:href="#DejaVuSans-48"/>
       <use x="63.623047" xlink:href="#DejaVuSans-46"/>
       <use x="95.410156" xlink:href="#DejaVuSans-52"/>
      </g>
     </g>
    </g>
    <g id="xtick_4">
     <g id="line2d_4">
      <g>
       <use style="stroke:#000000;stroke-width:0.8;" x="268.625455" xlink:href="#m2e9d432768" y="307.584"/>
      </g>
     </g>
     <g id="text_4">
      <!-- 0.6 -->
      <defs>
       <path d="M 33.015625 40.375 
Q 26.375 40.375 22.484375 35.828125 
Q 18.609375 31.296875 18.609375 23.390625 
Q 18.609375 15.53125 22.484375 10.953125 
Q 26.375 6.390625 33.015625 6.390625 
Q 39.65625 6.390625 43.53125 10.953125 
Q 47.40625 15.53125 47.40625 23.390625 
Q 47.40625 31.296875 43.53125 35.828125 
Q 39.65625 40.375 33.015625 40.375 
z
M 52.59375 71.296875 
L 52.59375 62.3125 
Q 48.875 64.0625 45.09375 64.984375 
Q 41.3125 65.921875 37.59375 65.921875 
Q 27.828125 65.921875 22.671875 59.328125 
Q 17.53125 52.734375 16.796875 39.40625 
Q 19.671875 43.65625 24.015625 45.921875 
Q 28.375 48.1875 33.59375 48.1875 
Q 44.578125 48.1875 50.953125 41.515625 
Q 57.328125 34.859375 57.328125 23.390625 
Q 57.328125 12.15625 50.6875 5.359375 
Q 44.046875 -1.421875 33.015625 -1.421875 
Q 20.359375 -1.421875 13.671875 8.265625 
Q 6.984375 17.96875 6.984375 36.375 
Q 6.984375 53.65625 15.1875 63.9375 
Q 23.390625 74.21875 37.203125 74.21875 
Q 40.921875 74.21875 44.703125 73.484375 
Q 48.484375 72.75 52.59375 71.296875 
z
" id="DejaVuSans-54"/>
      </defs>
      <g transform="translate(260.673892 322.182437)scale(0.1 -0.1)">
       <use xlink:href="#DejaVuSans-48"/>
       <use x="63.623047" xlink:href="#DejaVuSans-46"/>
       <use x="95.410156" xlink:href="#DejaVuSans-54"/>
      </g>
     </g>
    </g>
    <g id="xtick_5">
     <g id="line2d_5">
      <g>
       <use style="stroke:#000000;stroke-width:0.8;" x="333.556364" xlink:href="#m2e9d432768" y="307.584"/>
      </g>
     </g>
     <g id="text_5">
      <!-- 0.8 -->
      <defs>
       <path d="M 31.78125 34.625 
Q 24.75 34.625 20.71875 30.859375 
Q 16.703125 27.09375 16.703125 20.515625 
Q 16.703125 13.921875 20.71875 10.15625 
Q 24.75 6.390625 31.78125 6.390625 
Q 38.8125 6.390625 42.859375 10.171875 
Q 46.921875 13.96875 46.921875 20.515625 
Q 46.921875 27.09375 42.890625 30.859375 
Q 38.875 34.625 31.78125 34.625 
z
M 21.921875 38.8125 
Q 15.578125 40.375 12.03125 44.71875 
Q 8.5 49.078125 8.5 55.328125 
Q 8.5 64.0625 14.71875 69.140625 
Q 20.953125 74.21875 31.78125 74.21875 
Q 42.671875 74.21875 48.875 69.140625 
Q 55.078125 64.0625 55.078125 55.328125 
Q 55.078125 49.078125 51.53125 44.71875 
Q 48 40.375 41.703125 38.8125 
Q 48.828125 37.15625 52.796875 32.3125 
Q 56.78125 27.484375 56.78125 20.515625 
Q 56.78125 9.90625 50.3125 4.234375 
Q 43.84375 -1.421875 31.78125 -1.421875 
Q 19.734375 -1.421875 13.25 4.234375 
Q 6.78125 9.90625 6.78125 20.515625 
Q 6.78125 27.484375 10.78125 32.3125 
Q 14.796875 37.15625 21.921875 38.8125 
z
M 18.3125 54.390625 
Q 18.3125 48.734375 21.84375 45.5625 
Q 25.390625 42.390625 31.78125 42.390625 
Q 38.140625 42.390625 41.71875 45.5625 
Q 45.3125 48.734375 45.3125 54.390625 
Q 45.3125 60.0625 41.71875 63.234375 
Q 38.140625 66.40625 31.78125 66.40625 
Q 25.390625 66.40625 21.84375 63.234375 
Q 18.3125 60.0625 18.3125 54.390625 
z
" id="DejaVuSans-56"/>
      </defs>
      <g transform="translate(325.604801 322.182437)scale(0.1 -0.1)">
       <use xlink:href="#DejaVuSans-48"/>
       <use x="63.623047" xlink:href="#DejaVuSans-46"/>
       <use x="95.410156" xlink:href="#DejaVuSans-56"/>
      </g>
     </g>
    </g>
    <g id="xtick_6">
     <g id="line2d_6">
      <g>
       <use style="stroke:#000000;stroke-width:0.8;" x="398.487273" xlink:href="#m2e9d432768" y="307.584"/>
      </g>
     </g>
     <g id="text_6">
      <!-- 1.0 -->
      <defs>
       <path d="M 12.40625 8.296875 
L 28.515625 8.296875 
L 28.515625 63.921875 
L 10.984375 60.40625 
L 10.984375 69.390625 
L 28.421875 72.90625 
L 38.28125 72.90625 
L 38.28125 8.296875 
L 54.390625 8.296875 
L 54.390625 0 
L 12.40625 0 
z
" id="DejaVuSans-49"/>
      </defs>
      <g transform="translate(390.53571 322.182437)scale(0.1 -0.1)">
       <use xlink:href="#DejaVuSans-49"/>
       <use x="63.623047" xlink:href="#DejaVuSans-46"/>
       <use x="95.410156" xlink:href="#DejaVuSans-48"/>
      </g>
     </g>
    </g>
   </g>
   <g id="matplotlib.axis_2">
    <g id="ytick_1">
     <g id="line2d_7">
      <defs>
       <path d="M 0 0 
L -3.5 0 
" id="m3bd8d1f848" style="stroke:#000000;stroke-width:0.8;"/>
      </defs>
      <g>
       <use style="stroke:#000000;stroke-width:0.8;" x="57.6" xlink:href="#m3bd8d1f848" y="299.17887"/>
      </g>
     </g>
     <g id="text_7">
      <!-- 0.0 -->
      <g transform="translate(34.696875 302.978089)scale(0.1 -0.1)">
       <use xlink:href="#DejaVuSans-48"/>
       <use x="63.623047" xlink:href="#DejaVuSans-46"/>
       <use x="95.410156" xlink:href="#DejaVuSans-48"/>
      </g>
     </g>
    </g>
    <g id="ytick_2">
     <g id="line2d_8">
      <g>
       <use style="stroke:#000000;stroke-width:0.8;" x="57.6" xlink:href="#m3bd8d1f848" y="249.553394"/>
      </g>
     </g>
     <g id="text_8">
      <!-- 0.2 -->
      <g transform="translate(34.696875 253.352613)scale(0.1 -0.1)">
       <use xlink:href="#DejaVuSans-48"/>
       <use x="63.623047" xlink:href="#DejaVuSans-46"/>
       <use x="95.410156" xlink:href="#DejaVuSans-50"/>
      </g>
     </g>
    </g>
    <g id="ytick_3">
     <g id="line2d_9">
      <g>
       <use style="stroke:#000000;stroke-width:0.8;" x="57.6" xlink:href="#m3bd8d1f848" y="199.927919"/>
      </g>
     </g>
     <g id="text_9">
      <!-- 0.4 -->
      <g transform="translate(34.696875 203.727138)scale(0.1 -0.1)">
       <use xlink:href="#DejaVuSans-48"/>
       <use x="63.623047" xlink:href="#DejaVuSans-46"/>
       <use x="95.410156" xlink:href="#DejaVuSans-52"/>
      </g>
     </g>
    </g>
    <g id="ytick_4">
     <g id="line2d_10">
      <g>
       <use style="stroke:#000000;stroke-width:0.8;" x="57.6" xlink:href="#m3bd8d1f848" y="150.302443"/>
      </g>
     </g>
     <g id="text_10">
      <!-- 0.6 -->
      <g transform="translate(34.696875 154.101662)scale(0.1 -0.1)">
       <use xlink:href="#DejaVuSans-48"/>
       <use x="63.623047" xlink:href="#DejaVuSans-46"/>
       <use x="95.410156" xlink:href="#DejaVuSans-54"/>
      </g>
     </g>
    </g>
    <g id="ytick_5">
     <g id="line2d_11">
      <g>
       <use style="stroke:#000000;stroke-width:0.8;" x="57.6" xlink:href="#m3bd8d1f848" y="100.676968"/>
      </g>
     </g>
     <g id="text_11">
      <!-- 0.8 -->
      <g transform="translate(34.696875 104.476186)scale(0.1 -0.1)">
       <use xlink:href="#DejaVuSans-48"/>
       <use x="63.623047" xlink:href="#DejaVuSans-46"/>
       <use x="95.410156" xlink:href="#DejaVuSans-56"/>
      </g>
     </g>
    </g>
    <g id="ytick_6">
     <g id="line2d_12">
      <g>
       <use style="stroke:#000000;stroke-width:0.8;" x="57.6" xlink:href="#m3bd8d1f848" y="51.051492"/>
      </g>
     </g>
     <g id="text_12">
      <!-- 1.0 -->
      <g transform="translate(34.696875 54.850711)scale(0.1 -0.1)">
       <use xlink:href="#DejaVuSans-49"/>
       <use x="63.623047" xlink:href="#DejaVuSans-46"/>
       <use x="95.410156" xlink:href="#DejaVuSans-48"/>
      </g>
     </g>
    </g>
   </g>
   <g id="line2d_13">
    <path clip-path="url(#pfb00d20f95)" d="M 73.832727 286.596355 
L 74.92584 286.764114 
L 76.018953 286.093054 
L 77.112066 285.086451 
L 78.205179 278.711289 
L 79.298292 276.194781 
L 80.391405 269.316244 
L 81.484518 258.411542 
L 82.577631 245.661268 
L 83.670744 224.522553 
L 84.763857 206.739263 
L 85.85697 186.607201 
L 88.043196 142.65218 
L 89.136309 124.868891 
L 90.229421 119.332673 
L 91.322534 104.40136 
L 92.415647 76.719773 
L 93.50876 67.324926 
L 94.601873 65.143887 
L 95.694986 54.574653 
L 96.788099 53.568 
L 97.881212 61.78846 
L 98.974325 79.571997 
L 100.067438 85.779152 
L 101.160551 87.456989 
L 102.253664 103.394707 
L 105.533003 130.405357 
L 106.626116 142.484446 
L 107.719229 161.609856 
L 108.812342 163.95863 
L 109.905455 152.047275 
L 110.998567 154.396049 
L 112.09168 159.932267 
L 113.184793 161.945572 
L 114.277906 159.932267 
L 115.371019 168.991645 
L 116.464132 184.761877 
L 117.557245 189.962627 
L 118.650358 202.712901 
L 119.743471 213.953319 
L 120.836584 215.463174 
L 121.929697 220.328456 
L 124.115923 236.433907 
L 125.209036 238.614947 
L 126.302149 241.131455 
L 127.395262 250.52655 
L 128.488375 256.398236 
L 129.581488 259.250212 
L 130.674601 257.069421 
L 131.767713 260.92805 
L 132.860826 265.289881 
L 135.047052 269.819694 
L 137.233278 280.892279 
L 138.326391 280.892279 
L 139.419504 278.54353 
L 140.512617 279.550133 
L 141.60573 277.704686 
L 142.698843 275.188178 
L 143.791956 274.684901 
L 144.885069 269.819694 
L 147.071295 251.532955 
L 148.164408 247.674326 
L 149.257521 242.64131 
L 150.350634 234.588584 
L 151.443747 229.555568 
L 152.53686 225.361471 
L 153.629972 220.49619 
L 154.723085 214.288787 
L 155.816198 200.867329 
L 156.909311 196.337764 
L 158.002424 193.150071 
L 159.095537 192.143419 
L 160.18865 190.298095 
L 161.281763 182.077387 
L 164.561102 115.809512 
L 167.840441 77.89416 
L 168.933554 90.141231 
L 170.026667 93.496658 
L 171.11978 88.79911 
L 172.212893 89.470047 
L 173.306006 96.1809 
L 174.399118 112.622068 
L 175.492231 122.352383 
L 176.585344 133.257333 
L 177.678457 151.543825 
L 178.77157 160.435469 
L 179.864683 167.984993 
L 180.957796 174.695846 
L 182.050909 176.205701 
L 183.144022 184.929611 
L 184.237135 186.607201 
L 185.330248 187.110403 
L 186.423361 186.607201 
L 187.516474 187.781587 
L 188.609587 191.304748 
L 189.7027 191.640216 
L 190.795813 194.659926 
L 191.888926 197.176434 
L 194.075152 200.364127 
L 195.168264 205.564877 
L 196.261377 206.571529 
L 197.35449 213.785585 
L 198.447603 219.992739 
L 199.540716 224.522553 
L 200.633829 223.683634 
L 201.726942 225.361471 
L 203.913168 238.950415 
L 205.006281 244.319147 
L 206.099394 248.680979 
L 207.192507 256.230502 
L 208.28562 262.270171 
L 209.378733 264.45121 
L 210.471846 265.625349 
L 211.564959 268.309839 
L 213.751185 277.536927 
L 214.844298 281.731099 
L 215.93741 286.596355 
L 217.030523 290.119442 
L 218.123636 292.803733 
L 219.216749 293.810336 
L 220.309862 293.139251 
L 221.402975 292.635949 
L 222.496088 292.300432 
L 223.589201 289.951683 
L 224.682314 288.777321 
L 225.775427 283.744305 
L 226.86854 279.717892 
L 229.054766 263.109089 
L 230.147879 255.559566 
L 231.240992 244.486881 
L 232.334105 238.782681 
L 233.427218 229.2201 
L 234.520331 217.811948 
L 235.613444 209.255771 
L 239.985895 160.603451 
L 242.172121 142.819914 
L 243.265234 141.813509 
L 244.358347 141.645775 
L 245.45146 138.961285 
L 246.544573 134.767188 
L 247.637686 138.961285 
L 248.730799 139.464736 
L 249.823912 141.981244 
L 250.917025 140.639123 
L 252.010138 147.181993 
L 253.103251 155.234719 
L 254.196364 159.764533 
L 255.289477 168.656177 
L 256.38259 170.501501 
L 257.475702 182.580838 
L 259.661928 187.278385 
L 262.941267 202.712901 
L 264.03438 200.867329 
L 265.127493 206.403795 
L 266.220606 216.13411 
L 267.313719 223.5159 
L 268.406832 225.361471 
L 269.499945 224.690287 
L 271.686171 226.703592 
L 272.779284 222.006045 
L 273.872397 220.999392 
L 274.96551 219.489537 
L 276.058623 222.173779 
L 277.151736 227.03906 
L 278.244848 229.891037 
L 279.337961 236.769624 
L 280.431074 240.124802 
L 281.524187 247.003389 
L 282.6173 250.52655 
L 283.710413 253.54626 
L 285.896639 263.94776 
L 286.989752 267.806389 
L 288.082865 270.994081 
L 289.175978 278.879073 
L 290.269091 284.583149 
L 291.362204 287.938476 
L 292.455317 290.119442 
L 293.54843 290.287225 
L 294.641543 288.609562 
L 295.734656 283.744305 
L 296.827769 278.040229 
L 299.013994 262.941107 
L 300.107107 252.371873 
L 302.293333 226.703592 
L 303.386446 219.657271 
L 304.479559 203.048369 
L 305.572672 190.298095 
L 306.665785 182.748572 
L 307.758898 177.547822 
L 308.852011 168.991645 
L 309.945124 142.148978 
L 311.038237 121.849181 
L 314.317576 67.828129 
L 315.410689 63.801766 
L 316.503802 64.976152 
L 317.596915 72.022474 
L 318.690028 82.256239 
L 319.78314 97.187304 
L 320.876253 109.769844 
L 321.969366 114.131923 
L 323.062479 126.378994 
L 324.155592 134.599454 
L 325.248705 134.263986 
L 326.341818 129.734172 
L 327.434931 128.224317 
L 328.528044 128.72752 
L 329.621157 130.069641 
L 330.71427 144.665485 
L 331.807383 156.409106 
L 333.993609 185.600548 
L 335.086722 194.659926 
L 336.179835 208.081384 
L 337.272948 211.940013 
L 338.366061 212.778932 
L 339.459174 216.973029 
L 340.552287 222.844963 
L 341.645399 233.749665 
L 342.738512 238.614947 
L 343.831625 244.486881 
L 344.924738 256.56597 
L 346.017851 264.786678 
L 347.110964 269.316244 
L 348.204077 271.161815 
L 349.29719 273.846057 
L 350.390303 278.207988 
L 351.483416 279.885676 
L 352.576529 279.046832 
L 353.669642 280.221194 
L 354.762755 279.382374 
L 355.855868 281.395581 
L 356.948981 277.201384 
L 358.042094 277.87247 
L 359.135207 277.536927 
L 360.22832 277.87247 
L 361.321433 281.395581 
L 362.414545 283.241003 
L 363.507658 287.099657 
L 364.600771 288.94508 
L 365.693884 291.293828 
L 366.786997 293.307035 
L 367.88011 294.145854 
L 368.973223 295.320241 
L 370.066336 295.488 
L 372.252562 292.132648 
L 373.345675 289.61614 
L 376.625014 272.67167 
L 377.718127 265.961065 
L 378.81124 252.875076 
L 379.904353 246.667921 
L 380.997466 241.466923 
L 382.090579 232.910995 
L 383.183691 226.032408 
L 384.276804 215.798642 
L 385.369917 215.463174 
L 386.46303 209.255771 
L 387.556143 205.732611 
L 388.649256 199.357474 
L 389.742369 194.492192 
L 390.835482 201.203045 
L 391.928595 202.20945 
L 393.021708 198.854272 
L 394.114821 198.518555 
L 395.207934 204.39049 
L 396.301047 207.745916 
L 397.39416 200.364127 
L 398.487273 198.854272 
L 398.487273 198.854272 
" style="fill:none;stroke:#1f77b4;stroke-linecap:square;stroke-width:1.5;"/>
   </g>
   <g id="line2d_14">
    <path clip-path="url(#pfb00d20f95)" d="M 73.832727 282.732721 
L 74.92584 283.264742 
L 76.018953 282.835212 
L 77.112066 282.746049 
L 78.205179 280.390636 
L 79.298292 275.649403 
L 80.391405 274.024463 
L 82.577631 251.288768 
L 83.670744 231.115212 
L 84.763857 206.462306 
L 85.85697 191.385687 
L 88.043196 144.595374 
L 89.136309 122.961388 
L 90.229421 115.867116 
L 91.322534 111.286873 
L 92.415647 85.615292 
L 93.50876 74.379295 
L 94.601873 76.207025 
L 96.788099 69.436824 
L 97.881212 71.62737 
L 98.974325 81.026425 
L 100.067438 92.685777 
L 101.160551 88.991906 
L 102.253664 98.755817 
L 103.346777 112.88548 
L 104.43989 119.533163 
L 105.533003 132.431253 
L 106.626116 135.802457 
L 107.719229 159.948896 
L 108.812342 172.695051 
L 109.905455 154.174606 
L 110.998567 150.154524 
L 112.09168 159.164178 
L 113.184793 164.228051 
L 114.277906 161.228133 
L 115.371019 163.147003 
L 116.464132 184.472195 
L 117.557245 193.50825 
L 118.650358 197.673741 
L 119.743471 213.53334 
L 120.836584 217.954956 
L 121.929697 216.971103 
L 124.115923 234.32432 
L 125.209036 238.595876 
L 126.302149 239.57059 
L 127.395262 245.178327 
L 128.488375 255.492585 
L 129.581488 259.47024 
L 130.674601 257.870619 
L 131.767713 258.711966 
L 132.860826 263.662799 
L 133.953939 267.373339 
L 135.047052 268.930432 
L 136.140165 271.652746 
L 137.233278 277.634013 
L 138.326391 279.95569 
L 140.512617 277.135475 
L 141.60573 278.014047 
L 142.698843 275.757657 
L 143.791956 274.006988 
L 144.885069 272.819734 
L 145.978182 265.764907 
L 147.071295 255.051106 
L 148.164408 246.967881 
L 149.257521 244.285297 
L 150.350634 237.349478 
L 151.443747 227.977011 
L 152.53686 225.492673 
L 153.629972 221.641914 
L 154.723085 214.46489 
L 155.816198 203.736513 
L 156.909311 194.607383 
L 159.095537 191.412229 
L 160.18865 193.336545 
L 161.281763 188.01713 
L 162.374876 167.626402 
L 163.467989 135.029689 
L 164.561102 117.807219 
L 165.654215 102.882111 
L 166.747328 94.308153 
L 167.840441 83.788586 
L 168.933554 85.256196 
L 170.026667 99.490596 
L 171.11978 92.074542 
L 172.212893 89.815683 
L 173.306006 93.513162 
L 175.492231 121.766487 
L 176.585344 130.831646 
L 177.678457 149.136598 
L 178.77157 161.494009 
L 179.864683 170.890412 
L 180.957796 175.363771 
L 183.144022 181.515833 
L 184.237135 191.216722 
L 185.330248 187.872385 
L 186.423361 186.851986 
L 187.516474 188.120425 
L 189.7027 193.757935 
L 190.795813 192.034519 
L 191.888926 199.637627 
L 192.982039 197.997064 
L 194.075152 200.349084 
L 195.168264 204.997926 
L 196.261377 205.782781 
L 197.35449 211.12906 
L 198.447603 218.748933 
L 199.540716 223.652701 
L 200.633829 224.83457 
L 201.726942 222.282769 
L 202.820055 228.862723 
L 203.913168 236.226132 
L 205.006281 242.364554 
L 206.099394 247.058681 
L 207.192507 252.341789 
L 208.28562 260.432744 
L 209.378733 265.127371 
L 210.471846 265.324323 
L 211.564959 266.718742 
L 214.844298 278.546114 
L 215.93741 281.220948 
L 217.030523 284.354455 
L 218.123636 285.942762 
L 219.216749 286.853379 
L 220.309862 287.002378 
L 221.402975 286.462832 
L 222.496088 286.465349 
L 223.589201 285.721047 
L 224.682314 284.645679 
L 225.775427 283.177368 
L 226.86854 279.631712 
L 227.961653 275.596798 
L 229.054766 266.585735 
L 230.147879 258.524907 
L 232.334105 238.593404 
L 233.427218 231.957427 
L 235.613444 208.390475 
L 236.706556 200.561005 
L 238.892782 174.474893 
L 241.079008 150.503171 
L 242.172121 142.930668 
L 243.265234 139.043125 
L 244.358347 140.591668 
L 245.45146 141.088675 
L 246.544573 133.671278 
L 247.637686 135.249561 
L 248.730799 141.900013 
L 249.823912 139.651503 
L 250.917025 143.273528 
L 252.010138 142.111816 
L 253.103251 154.515469 
L 254.196364 160.654107 
L 255.289477 168.02964 
L 256.38259 172.967692 
L 257.475702 178.438817 
L 258.568815 189.680021 
L 259.661928 187.069678 
L 261.848154 196.542111 
L 262.941267 203.376373 
L 264.03438 202.511637 
L 265.127493 202.675222 
L 266.220606 214.478465 
L 267.313719 222.188655 
L 268.406832 225.390676 
L 269.499945 224.14412 
L 270.593058 224.489682 
L 271.686171 226.581308 
L 273.872397 219.01892 
L 274.96551 218.872807 
L 276.058623 220.216005 
L 277.151736 224.832965 
L 278.244848 228.137155 
L 280.431074 239.135799 
L 281.524187 243.625112 
L 282.6173 250.068362 
L 283.710413 251.961692 
L 284.803526 256.115758 
L 286.989752 267.175973 
L 288.082865 269.547393 
L 289.175978 273.503823 
L 290.269091 280.41305 
L 291.362204 282.935493 
L 292.455317 284.666426 
L 293.54843 285.386741 
L 294.641543 285.218228 
L 295.734656 282.892552 
L 296.827769 279.535797 
L 297.920882 273.747458 
L 299.013994 266.468595 
L 300.107107 257.616257 
L 302.293333 228.413177 
L 303.386446 217.252711 
L 304.479559 210.53594 
L 305.572672 189.467812 
L 306.665785 180.523157 
L 307.758898 180.259101 
L 308.852011 172.128374 
L 309.945124 152.038673 
L 311.038237 117.323834 
L 312.13135 107.421323 
L 313.224463 91.328875 
L 314.317576 77.464952 
L 315.410689 73.957256 
L 316.503802 75.177151 
L 317.596915 77.33988 
L 318.690028 84.854805 
L 319.78314 94.746574 
L 320.876253 108.585602 
L 321.969366 115.86341 
L 323.062479 119.553432 
L 324.155592 137.795461 
L 325.248705 133.997356 
L 326.341818 131.877427 
L 327.434931 125.772837 
L 329.621157 128.170857 
L 330.71427 137.754238 
L 331.807383 158.254081 
L 332.900496 168.53372 
L 333.993609 186.191428 
L 335.086722 194.861479 
L 336.179835 205.367889 
L 337.272948 214.477666 
L 338.366061 212.937238 
L 339.459174 214.703636 
L 340.552287 220.37955 
L 341.645399 228.556866 
L 342.738512 239.181496 
L 343.831625 241.493459 
L 344.924738 249.990558 
L 346.017851 262.974645 
L 347.110964 268.08366 
L 348.204077 270.982093 
L 349.29719 271.830871 
L 350.390303 275.360884 
L 351.483416 278.336832 
L 352.576529 278.464522 
L 353.669642 277.995011 
L 354.762755 278.350399 
L 355.855868 278.938677 
L 356.948981 278.528483 
L 358.042094 275.755918 
L 359.135207 276.666963 
L 360.22832 276.742557 
L 361.321433 278.125631 
L 364.600771 284.079734 
L 365.693884 285.071956 
L 366.786997 286.337015 
L 368.973223 287.565826 
L 370.066336 287.666548 
L 371.159449 287.615271 
L 372.252562 286.619471 
L 373.345675 285.473142 
L 374.438788 283.669578 
L 375.531901 279.152757 
L 376.625014 275.236662 
L 377.718127 269.283213 
L 378.81124 258.91481 
L 379.904353 246.828004 
L 380.997466 242.361354 
L 382.090579 235.305149 
L 384.276804 216.913281 
L 385.369917 213.089738 
L 386.46303 211.009803 
L 387.556143 205.295038 
L 388.649256 202.133264 
L 389.742369 192.263868 
L 391.928595 204.064358 
L 393.021708 200.413022 
L 394.114821 197.263099 
L 395.207934 202.885446 
L 396.301047 209.676459 
L 397.39416 202.676253 
L 398.487273 198.837334 
L 398.487273 198.837334 
" style="fill:none;stroke:#ff7f0e;stroke-linecap:square;stroke-width:1.5;"/>
   </g>
   <g id="line2d_15">
    <path clip-path="url(#pfb00d20f95)" d="M 73.832727 285.17603 
L 74.92584 285.749281 
L 76.018953 285.313171 
L 77.112066 285.215118 
L 78.205179 282.977166 
L 79.298292 278.122253 
L 80.391405 276.146931 
L 82.577631 257.942977 
L 83.670744 244.400383 
L 84.763857 221.271375 
L 85.85697 202.278179 
L 86.950083 180.058787 
L 88.043196 153.784139 
L 89.136309 131.842294 
L 90.229421 119.380308 
L 91.322534 114.510069 
L 92.415647 101.490142 
L 93.50876 91.027427 
L 94.601873 88.419296 
L 95.694986 86.50963 
L 96.788099 83.91583 
L 97.881212 84.139124 
L 98.974325 88.338475 
L 100.067438 96.82133 
L 101.160551 96.260821 
L 102.253664 100.224826 
L 103.346777 114.284714 
L 104.43989 120.083952 
L 105.533003 133.96479 
L 106.626116 136.906174 
L 107.719229 163.420302 
L 108.812342 175.922091 
L 109.905455 156.629012 
L 110.998567 152.884873 
L 112.09168 160.965217 
L 113.184793 165.729769 
L 114.277906 162.323227 
L 115.371019 165.114651 
L 116.464132 187.665804 
L 117.557245 196.092108 
L 118.650358 199.135871 
L 119.743471 215.798282 
L 120.836584 219.6236 
L 121.929697 219.660026 
L 123.02281 226.892921 
L 124.115923 236.189993 
L 125.209036 241.98439 
L 126.302149 243.900799 
L 127.395262 247.662049 
L 128.488375 258.193241 
L 129.581488 261.766668 
L 130.674601 260.565118 
L 131.767713 260.737271 
L 132.860826 266.019348 
L 133.953939 269.727898 
L 135.047052 271.055004 
L 136.140165 274.051534 
L 137.233278 280.61763 
L 138.326391 282.413504 
L 139.419504 280.774354 
L 140.512617 279.335916 
L 141.60573 280.259264 
L 142.698843 277.961656 
L 143.791956 276.067251 
L 144.885069 274.846511 
L 145.978182 268.358913 
L 148.164408 253.578357 
L 149.257521 250.327573 
L 150.350634 245.225113 
L 151.443747 236.869148 
L 152.53686 232.164183 
L 153.629972 228.121757 
L 154.723085 221.615741 
L 155.816198 211.884524 
L 156.909311 199.602575 
L 158.002424 194.936759 
L 159.095537 192.316124 
L 160.18865 194.20993 
L 161.281763 189.403225 
L 162.374876 174.275284 
L 163.467989 147.560584 
L 164.561102 126.583095 
L 165.654215 112.027885 
L 166.747328 103.688916 
L 167.840441 96.813653 
L 168.933554 93.901547 
L 170.026667 101.844659 
L 171.11978 99.357819 
L 172.212893 97.327458 
L 173.306006 98.699753 
L 174.399118 107.476783 
L 175.492231 123.075069 
L 176.585344 132.087014 
L 177.678457 152.189108 
L 178.77157 164.434151 
L 179.864683 173.090195 
L 180.957796 177.179036 
L 183.144022 183.009096 
L 184.237135 193.076748 
L 185.330248 189.13973 
L 186.423361 187.892133 
L 187.516474 189.075441 
L 189.7027 194.958456 
L 190.795813 193.083363 
L 191.888926 201.03665 
L 192.982039 199.418522 
L 194.075152 201.388153 
L 195.168264 206.113556 
L 196.261377 207.622857 
L 197.35449 212.387616 
L 198.447603 220.11087 
L 199.540716 225.585251 
L 200.633829 228.807118 
L 201.726942 227.327857 
L 202.820055 231.211052 
L 203.913168 238.702988 
L 205.006281 244.960488 
L 207.192507 254.614914 
L 208.28562 263.159151 
L 209.378733 267.629926 
L 210.471846 267.183048 
L 211.564959 268.72081 
L 213.751185 277.541457 
L 214.844298 281.210458 
L 215.93741 283.799848 
L 217.030523 287.049886 
L 218.123636 288.552157 
L 219.216749 289.48313 
L 220.309862 289.64547 
L 221.402975 289.104242 
L 222.496088 289.087265 
L 223.589201 288.343209 
L 224.682314 287.239045 
L 225.775427 285.783147 
L 226.86854 282.24899 
L 227.961653 278.107608 
L 229.054766 269.547513 
L 231.240992 255.803869 
L 232.334105 246.927543 
L 233.427218 240.647443 
L 234.520331 230.001816 
L 235.613444 217.072163 
L 236.706556 207.110096 
L 238.892782 179.941544 
L 239.985895 164.92851 
L 241.079008 151.732199 
L 242.172121 143.85831 
L 243.265234 140.798238 
L 244.358347 141.722698 
L 245.45146 142.22923 
L 246.544573 134.091109 
L 247.637686 137.14311 
L 248.730799 143.092864 
L 249.823912 140.723132 
L 250.917025 144.423893 
L 252.010138 143.807438 
L 253.103251 156.411447 
L 254.196364 162.336284 
L 255.289477 170.125634 
L 256.38259 174.971386 
L 257.475702 180.5231 
L 258.568815 191.907689 
L 259.661928 188.346762 
L 260.755041 192.85218 
L 261.848154 197.890113 
L 262.941267 204.761236 
L 264.03438 204.380967 
L 265.127493 203.616666 
L 266.220606 216.157605 
L 267.313719 223.608593 
L 268.406832 228.367914 
L 269.499945 228.992889 
L 270.593058 228.868763 
L 271.686171 230.558691 
L 272.779284 229.376066 
L 273.872397 224.676423 
L 274.96551 223.63247 
L 276.058623 223.599455 
L 278.244848 231.862786 
L 279.337961 236.308498 
L 280.431074 242.410689 
L 281.524187 246.403999 
L 282.6173 252.334615 
L 283.710413 254.731083 
L 284.803526 258.279942 
L 286.989752 269.859826 
L 288.082865 271.814206 
L 289.175978 276.19525 
L 290.269091 283.499109 
L 291.362204 285.518231 
L 292.455317 287.260435 
L 293.54843 287.958583 
L 294.641543 287.774284 
L 295.734656 285.546119 
L 296.827769 282.134423 
L 297.920882 276.377766 
L 300.107107 262.215637 
L 301.20022 252.45852 
L 303.386446 227.143108 
L 304.479559 218.550398 
L 305.572672 200.095479 
L 306.665785 185.967996 
L 307.758898 181.431131 
L 308.852011 173.077253 
L 309.945124 157.52983 
L 311.038237 131.08989 
L 312.13135 115.367917 
L 313.224463 103.663543 
L 314.317576 93.491755 
L 315.410689 88.22539 
L 316.503802 87.268231 
L 317.596915 88.026748 
L 318.690028 91.602548 
L 319.78314 97.820918 
L 320.876253 109.774043 
L 321.969366 116.90288 
L 323.062479 120.284383 
L 324.155592 139.653272 
L 325.248705 135.447872 
L 326.341818 132.514843 
L 327.434931 126.410998 
L 328.528044 127.731204 
L 329.621157 128.826987 
L 330.71427 140.395609 
L 331.807383 160.740143 
L 332.900496 170.825153 
L 333.993609 189.124103 
L 335.086722 197.234771 
L 336.179835 207.352092 
L 337.272948 216.173155 
L 338.366061 215.225829 
L 339.459174 216.50867 
L 340.552287 222.076987 
L 341.645399 230.254716 
L 342.738512 241.217218 
L 343.831625 244.895997 
L 344.924738 252.535005 
L 346.017851 266.452342 
L 347.110964 270.808404 
L 348.204077 273.375393 
L 349.29719 273.93997 
L 350.390303 277.944686 
L 351.483416 280.830791 
L 352.576529 280.717283 
L 353.669642 280.232384 
L 354.762755 280.592216 
L 355.855868 281.258265 
L 356.948981 280.833678 
L 358.042094 277.962307 
L 359.135207 278.859599 
L 360.22832 278.93035 
L 361.321433 280.503344 
L 364.600771 286.63691 
L 365.693884 287.663258 
L 366.786997 288.958802 
L 368.973223 290.215439 
L 370.066336 290.316289 
L 371.159449 290.277126 
L 372.252562 289.270377 
L 373.345675 288.111337 
L 374.438788 286.317553 
L 376.625014 277.65709 
L 377.718127 271.618183 
L 378.81124 263.689712 
L 379.904353 254.282593 
L 380.997466 249.320383 
L 382.090579 243.608263 
L 385.369917 217.992016 
L 386.46303 216.159655 
L 387.556143 209.446103 
L 388.649256 205.30665 
L 389.742369 197.141943 
L 390.835482 199.397293 
L 391.928595 205.426409 
L 393.021708 202.345809 
L 394.114821 198.659271 
L 395.207934 204.087068 
L 396.301047 210.892829 
L 397.39416 206.924757 
L 398.487273 200.385928 
L 398.487273 200.385928 
" style="fill:none;stroke:#2ca02c;stroke-linecap:square;stroke-width:1.5;"/>
   </g>
   <g id="line2d_16">
    <path clip-path="url(#pfb00d20f95)" d="M 73.832727 275.609023 
L 74.92584 275.933615 
L 76.018953 275.943914 
L 77.112066 275.75923 
L 78.205179 274.937747 
L 79.298292 272.605142 
L 80.391405 271.078937 
L 81.484518 261.17819 
L 82.577631 249.53161 
L 84.763857 202.333885 
L 85.85697 188.661591 
L 88.043196 140.481946 
L 89.136309 118.83308 
L 90.229421 111.30053 
L 91.322534 108.728143 
L 92.415647 80.223982 
L 93.50876 69.490197 
L 94.601873 71.33903 
L 95.694986 66.737009 
L 96.788099 63.912336 
L 97.881212 66.107514 
L 98.974325 76.425528 
L 100.067438 88.443194 
L 101.160551 84.485764 
L 102.253664 95.699494 
L 103.346777 109.935368 
L 104.43989 115.527582 
L 105.533003 124.212311 
L 106.626116 129.07376 
L 108.812342 161.080109 
L 109.905455 151.701222 
L 110.998567 144.457188 
L 112.09168 150.703126 
L 113.184793 156.153602 
L 114.277906 156.290761 
L 115.371019 155.957065 
L 117.557245 185.757825 
L 118.650358 192.34541 
L 119.743471 206.87733 
L 120.836584 216.94676 
L 121.929697 216.133785 
L 123.02281 224.095372 
L 124.115923 232.895517 
L 125.209036 237.539605 
L 126.302149 238.501195 
L 127.395262 243.44144 
L 128.488375 253.231504 
L 129.581488 258.071765 
L 130.674601 257.504726 
L 131.767713 257.868264 
L 132.860826 262.310516 
L 133.953939 265.43731 
L 136.140165 268.389966 
L 137.233278 271.246445 
L 138.326391 273.524531 
L 139.419504 273.378072 
L 140.512617 272.592018 
L 141.60573 272.736876 
L 142.698843 272.061706 
L 143.791956 270.913934 
L 144.885069 270.218903 
L 145.978182 265.216437 
L 147.071295 253.564398 
L 148.164408 245.64042 
L 149.257521 243.308822 
L 150.350634 235.802429 
L 151.443747 225.914483 
L 152.53686 224.10268 
L 153.629972 220.149641 
L 154.723085 212.481892 
L 155.816198 200.97516 
L 156.909311 193.02027 
L 158.002424 192.067687 
L 159.095537 190.371961 
L 160.18865 191.416581 
L 161.281763 186.939615 
L 162.374876 165.052179 
L 163.467989 130.96955 
L 164.561102 113.323595 
L 165.654215 98.841672 
L 166.747328 90.659095 
L 167.840441 78.954651 
L 168.933554 81.417315 
L 170.026667 96.278663 
L 171.11978 87.763267 
L 172.212893 86.127159 
L 173.306006 90.154162 
L 174.399118 104.159579 
L 175.492231 116.336885 
L 176.585344 123.478971 
L 177.678457 135.681438 
L 178.77157 150.218608 
L 179.864683 159.380995 
L 180.957796 166.619406 
L 182.050909 171.97309 
L 183.144022 175.077127 
L 184.237135 184.633212 
L 185.330248 185.656382 
L 186.423361 184.840019 
L 187.516474 185.195658 
L 188.609587 187.62144 
L 189.7027 191.194809 
L 190.795813 190.678543 
L 191.888926 196.035104 
L 192.982039 196.86985 
L 194.075152 199.175538 
L 195.168264 202.997818 
L 196.261377 204.352028 
L 197.35449 209.705717 
L 198.447603 218.007683 
L 199.540716 222.90656 
L 200.633829 223.862627 
L 201.726942 221.155593 
L 202.820055 227.439523 
L 203.913168 234.900454 
L 205.006281 240.850186 
L 207.192507 250.731444 
L 208.28562 258.39633 
L 209.378733 263.427053 
L 211.564959 265.548704 
L 212.658072 267.555799 
L 214.844298 272.26967 
L 217.030523 276.084738 
L 218.123636 277.471499 
L 219.216749 278.326647 
L 220.309862 278.598718 
L 223.589201 277.968938 
L 224.682314 277.308513 
L 225.775427 276.48861 
L 226.86854 274.675019 
L 227.961653 272.59129 
L 229.054766 265.805758 
L 230.147879 257.516407 
L 232.334105 236.786584 
L 233.427218 230.002417 
L 235.613444 206.01267 
L 236.706556 198.541158 
L 238.892782 172.673773 
L 241.079008 147.674771 
L 242.172121 139.939323 
L 243.265234 134.670193 
L 244.358347 135.79065 
L 245.45146 135.99297 
L 246.544573 131.048194 
L 247.637686 130.102815 
L 248.730799 135.102438 
L 249.823912 134.597853 
L 250.917025 137.063546 
L 252.010138 136.227537 
L 253.103251 144.543592 
L 254.196364 151.81135 
L 255.289477 157.953165 
L 256.38259 165.415877 
L 257.475702 169.742008 
L 258.568815 182.015336 
L 259.661928 184.063081 
L 260.755041 187.410765 
L 261.848154 193.186097 
L 262.941267 199.776259 
L 264.03438 200.939837 
L 265.127493 201.646807 
L 267.313719 221.396739 
L 268.406832 224.590407 
L 269.499945 223.010735 
L 270.593058 223.480781 
L 271.686171 225.60115 
L 272.779284 221.285052 
L 273.872397 217.666137 
L 274.96551 217.63648 
L 276.058623 219.19488 
L 277.151736 223.882095 
L 278.244848 227.267656 
L 279.337961 232.229468 
L 280.431074 237.97963 
L 281.524187 242.016973 
L 282.6173 248.495404 
L 283.710413 250.968378 
L 284.803526 254.808754 
L 285.896639 260.121185 
L 286.989752 264.811192 
L 288.082865 267.142587 
L 289.175978 269.139285 
L 290.269091 272.85374 
L 291.362204 275.281987 
L 292.455317 276.550004 
L 293.54843 277.327574 
L 294.641543 277.433877 
L 295.734656 276.462645 
L 296.827769 274.589691 
L 297.920882 271.851942 
L 299.013994 265.907568 
L 300.107107 256.433426 
L 302.293333 225.556338 
L 303.386446 214.74625 
L 304.479559 208.116273 
L 305.572672 186.644423 
L 306.665785 178.817262 
L 307.758898 177.583874 
L 308.852011 170.508283 
L 309.945124 149.457746 
L 311.038237 112.577401 
L 312.13135 103.207767 
L 314.317576 72.220632 
L 315.410689 69.009224 
L 316.503802 69.950786 
L 317.596915 72.225268 
L 318.690028 80.513973 
L 319.78314 91.359581 
L 320.876253 105.743247 
L 321.969366 113.125483 
L 323.062479 115.983534 
L 324.155592 127.745361 
L 325.248705 130.19763 
L 326.341818 128.342049 
L 327.434931 123.008733 
L 328.528044 123.533421 
L 329.621157 124.620315 
L 330.71427 129.376162 
L 331.807383 144.950533 
L 332.900496 156.340667 
L 333.993609 173.027719 
L 335.086722 186.900587 
L 336.179835 198.393598 
L 337.272948 211.741159 
L 338.366061 211.81909 
L 339.459174 213.900114 
L 340.552287 219.582327 
L 341.645399 227.311431 
L 342.738512 237.482069 
L 343.831625 240.263119 
L 344.924738 247.839758 
L 346.017851 259.82268 
L 347.110964 265.386715 
L 348.204077 267.8543 
L 349.29719 268.903484 
L 350.390303 270.43821 
L 351.483416 272.34319 
L 352.576529 273.032168 
L 353.669642 272.869815 
L 356.948981 273.371057 
L 358.042094 272.076723 
L 359.135207 271.999875 
L 360.22832 272.071419 
L 361.321433 272.556115 
L 364.600771 276.208882 
L 367.88011 278.505512 
L 370.066336 279.135152 
L 371.159449 279.113012 
L 372.252562 278.627374 
L 373.345675 277.917192 
L 374.438788 276.843148 
L 375.531901 274.718055 
L 376.625014 272.285961 
L 377.718127 268.767879 
L 379.904353 245.040023 
L 380.997466 241.128184 
L 382.090579 233.551587 
L 384.276804 214.350342 
L 385.369917 211.561992 
L 386.46303 209.122619 
L 387.556143 203.975619 
L 388.649256 200.789143 
L 389.742369 190.53324 
L 390.835482 195.117406 
L 391.928595 202.552203 
L 393.021708 199.048174 
L 394.114821 196.38585 
L 395.207934 200.634798 
L 396.301047 207.958952 
L 397.39416 200.22137 
L 398.487273 197.650431 
L 398.487273 197.650431 
" style="fill:none;stroke:#d62728;stroke-linecap:square;stroke-width:1.5;"/>
   </g>
   <g id="patch_3">
    <path d="M 57.6 307.584 
L 57.6 41.472 
" style="fill:none;stroke:#000000;stroke-linecap:square;stroke-linejoin:miter;stroke-width:0.8;"/>
   </g>
   <g id="patch_4">
    <path d="M 414.72 307.584 
L 414.72 41.472 
" style="fill:none;stroke:#000000;stroke-linecap:square;stroke-linejoin:miter;stroke-width:0.8;"/>
   </g>
   <g id="patch_5">
    <path d="M 57.6 307.584 
L 414.72 307.584 
" style="fill:none;stroke:#000000;stroke-linecap:square;stroke-linejoin:miter;stroke-width:0.8;"/>
   </g>
   <g id="patch_6">
    <path d="M 57.6 41.472 
L 414.72 41.472 
" style="fill:none;stroke:#000000;stroke-linecap:square;stroke-linejoin:miter;stroke-width:0.8;"/>
   </g>
   <g id="text_13">
    <!-- Plot of Train Data vs MCMC Uncertainty  -->
    <defs>
     <path d="M 19.671875 64.796875 
L 19.671875 37.40625 
L 32.078125 37.40625 
Q 38.96875 37.40625 42.71875 40.96875 
Q 46.484375 44.53125 46.484375 51.125 
Q 46.484375 57.671875 42.71875 61.234375 
Q 38.96875 64.796875 32.078125 64.796875 
z
M 9.8125 72.90625 
L 32.078125 72.90625 
Q 44.34375 72.90625 50.609375 67.359375 
Q 56.890625 61.8125 56.890625 51.125 
Q 56.890625 40.328125 50.609375 34.8125 
Q 44.34375 29.296875 32.078125 29.296875 
L 19.671875 29.296875 
L 19.671875 0 
L 9.8125 0 
z
" id="DejaVuSans-80"/>
     <path d="M 9.421875 75.984375 
L 18.40625 75.984375 
L 18.40625 0 
L 9.421875 0 
z
" id="DejaVuSans-108"/>
     <path d="M 30.609375 48.390625 
Q 23.390625 48.390625 19.1875 42.75 
Q 14.984375 37.109375 14.984375 27.296875 
Q 14.984375 17.484375 19.15625 11.84375 
Q 23.34375 6.203125 30.609375 6.203125 
Q 37.796875 6.203125 41.984375 11.859375 
Q 46.1875 17.53125 46.1875 27.296875 
Q 46.1875 37.015625 41.984375 42.703125 
Q 37.796875 48.390625 30.609375 48.390625 
z
M 30.609375 56 
Q 42.328125 56 49.015625 48.375 
Q 55.71875 40.765625 55.71875 27.296875 
Q 55.71875 13.875 49.015625 6.21875 
Q 42.328125 -1.421875 30.609375 -1.421875 
Q 18.84375 -1.421875 12.171875 6.21875 
Q 5.515625 13.875 5.515625 27.296875 
Q 5.515625 40.765625 12.171875 48.375 
Q 18.84375 56 30.609375 56 
z
" id="DejaVuSans-111"/>
     <path d="M 18.3125 70.21875 
L 18.3125 54.6875 
L 36.8125 54.6875 
L 36.8125 47.703125 
L 18.3125 47.703125 
L 18.3125 18.015625 
Q 18.3125 11.328125 20.140625 9.421875 
Q 21.96875 7.515625 27.59375 7.515625 
L 36.8125 7.515625 
L 36.8125 0 
L 27.59375 0 
Q 17.1875 0 13.234375 3.875 
Q 9.28125 7.765625 9.28125 18.015625 
L 9.28125 47.703125 
L 2.6875 47.703125 
L 2.6875 54.6875 
L 9.28125 54.6875 
L 9.28125 70.21875 
z
" id="DejaVuSans-116"/>
     <path id="DejaVuSans-32"/>
     <path d="M 37.109375 75.984375 
L 37.109375 68.5 
L 28.515625 68.5 
Q 23.6875 68.5 21.796875 66.546875 
Q 19.921875 64.59375 19.921875 59.515625 
L 19.921875 54.6875 
L 34.71875 54.6875 
L 34.71875 47.703125 
L 19.921875 47.703125 
L 19.921875 0 
L 10.890625 0 
L 10.890625 47.703125 
L 2.296875 47.703125 
L 2.296875 54.6875 
L 10.890625 54.6875 
L 10.890625 58.5 
Q 10.890625 67.625 15.140625 71.796875 
Q 19.390625 75.984375 28.609375 75.984375 
z
" id="DejaVuSans-102"/>
     <path d="M -0.296875 72.90625 
L 61.375 72.90625 
L 61.375 64.59375 
L 35.5 64.59375 
L 35.5 0 
L 25.59375 0 
L 25.59375 64.59375 
L -0.296875 64.59375 
z
" id="DejaVuSans-84"/>
     <path d="M 41.109375 46.296875 
Q 39.59375 47.171875 37.8125 47.578125 
Q 36.03125 48 33.890625 48 
Q 26.265625 48 22.1875 43.046875 
Q 18.109375 38.09375 18.109375 28.8125 
L 18.109375 0 
L 9.078125 0 
L 9.078125 54.6875 
L 18.109375 54.6875 
L 18.109375 46.1875 
Q 20.953125 51.171875 25.484375 53.578125 
Q 30.03125 56 36.53125 56 
Q 37.453125 56 38.578125 55.875 
Q 39.703125 55.765625 41.0625 55.515625 
z
" id="DejaVuSans-114"/>
     <path d="M 34.28125 27.484375 
Q 23.390625 27.484375 19.1875 25 
Q 14.984375 22.515625 14.984375 16.5 
Q 14.984375 11.71875 18.140625 8.90625 
Q 21.296875 6.109375 26.703125 6.109375 
Q 34.1875 6.109375 38.703125 11.40625 
Q 43.21875 16.703125 43.21875 25.484375 
L 43.21875 27.484375 
z
M 52.203125 31.203125 
L 52.203125 0 
L 43.21875 0 
L 43.21875 8.296875 
Q 40.140625 3.328125 35.546875 0.953125 
Q 30.953125 -1.421875 24.3125 -1.421875 
Q 15.921875 -1.421875 10.953125 3.296875 
Q 6 8.015625 6 15.921875 
Q 6 25.140625 12.171875 29.828125 
Q 18.359375 34.515625 30.609375 34.515625 
L 43.21875 34.515625 
L 43.21875 35.40625 
Q 43.21875 41.609375 39.140625 45 
Q 35.0625 48.390625 27.6875 48.390625 
Q 23 48.390625 18.546875 47.265625 
Q 14.109375 46.140625 10.015625 43.890625 
L 10.015625 52.203125 
Q 14.9375 54.109375 19.578125 55.046875 
Q 24.21875 56 28.609375 56 
Q 40.484375 56 46.34375 49.84375 
Q 52.203125 43.703125 52.203125 31.203125 
z
" id="DejaVuSans-97"/>
     <path d="M 9.421875 54.6875 
L 18.40625 54.6875 
L 18.40625 0 
L 9.421875 0 
z
M 9.421875 75.984375 
L 18.40625 75.984375 
L 18.40625 64.59375 
L 9.421875 64.59375 
z
" id="DejaVuSans-105"/>
     <path d="M 54.890625 33.015625 
L 54.890625 0 
L 45.90625 0 
L 45.90625 32.71875 
Q 45.90625 40.484375 42.875 44.328125 
Q 39.84375 48.1875 33.796875 48.1875 
Q 26.515625 48.1875 22.3125 43.546875 
Q 18.109375 38.921875 18.109375 30.90625 
L 18.109375 0 
L 9.078125 0 
L 9.078125 54.6875 
L 18.109375 54.6875 
L 18.109375 46.1875 
Q 21.34375 51.125 25.703125 53.5625 
Q 30.078125 56 35.796875 56 
Q 45.21875 56 50.046875 50.171875 
Q 54.890625 44.34375 54.890625 33.015625 
z
" id="DejaVuSans-110"/>
     <path d="M 19.671875 64.796875 
L 19.671875 8.109375 
L 31.59375 8.109375 
Q 46.6875 8.109375 53.6875 14.9375 
Q 60.6875 21.78125 60.6875 36.53125 
Q 60.6875 51.171875 53.6875 57.984375 
Q 46.6875 64.796875 31.59375 64.796875 
z
M 9.8125 72.90625 
L 30.078125 72.90625 
Q 51.265625 72.90625 61.171875 64.09375 
Q 71.09375 55.28125 71.09375 36.53125 
Q 71.09375 17.671875 61.125 8.828125 
Q 51.171875 0 30.078125 0 
L 9.8125 0 
z
" id="DejaVuSans-68"/>
     <path d="M 2.984375 54.6875 
L 12.5 54.6875 
L 29.59375 8.796875 
L 46.6875 54.6875 
L 56.203125 54.6875 
L 35.6875 0 
L 23.484375 0 
z
" id="DejaVuSans-118"/>
     <path d="M 44.28125 53.078125 
L 44.28125 44.578125 
Q 40.484375 46.53125 36.375 47.5 
Q 32.28125 48.484375 27.875 48.484375 
Q 21.1875 48.484375 17.84375 46.4375 
Q 14.5 44.390625 14.5 40.28125 
Q 14.5 37.15625 16.890625 35.375 
Q 19.28125 33.59375 26.515625 31.984375 
L 29.59375 31.296875 
Q 39.15625 29.25 43.1875 25.515625 
Q 47.21875 21.78125 47.21875 15.09375 
Q 47.21875 7.46875 41.1875 3.015625 
Q 35.15625 -1.421875 24.609375 -1.421875 
Q 20.21875 -1.421875 15.453125 -0.5625 
Q 10.6875 0.296875 5.421875 2 
L 5.421875 11.28125 
Q 10.40625 8.6875 15.234375 7.390625 
Q 20.0625 6.109375 24.8125 6.109375 
Q 31.15625 6.109375 34.5625 8.28125 
Q 37.984375 10.453125 37.984375 14.40625 
Q 37.984375 18.0625 35.515625 20.015625 
Q 33.0625 21.96875 24.703125 23.78125 
L 21.578125 24.515625 
Q 13.234375 26.265625 9.515625 29.90625 
Q 5.8125 33.546875 5.8125 39.890625 
Q 5.8125 47.609375 11.28125 51.796875 
Q 16.75 56 26.8125 56 
Q 31.78125 56 36.171875 55.265625 
Q 40.578125 54.546875 44.28125 53.078125 
z
" id="DejaVuSans-115"/>
     <path d="M 9.8125 72.90625 
L 24.515625 72.90625 
L 43.109375 23.296875 
L 61.8125 72.90625 
L 76.515625 72.90625 
L 76.515625 0 
L 66.890625 0 
L 66.890625 64.015625 
L 48.09375 14.015625 
L 38.1875 14.015625 
L 19.390625 64.015625 
L 19.390625 0 
L 9.8125 0 
z
" id="DejaVuSans-77"/>
     <path d="M 64.40625 67.28125 
L 64.40625 56.890625 
Q 59.421875 61.53125 53.78125 63.8125 
Q 48.140625 66.109375 41.796875 66.109375 
Q 29.296875 66.109375 22.65625 58.46875 
Q 16.015625 50.828125 16.015625 36.375 
Q 16.015625 21.96875 22.65625 14.328125 
Q 29.296875 6.6875 41.796875 6.6875 
Q 48.140625 6.6875 53.78125 8.984375 
Q 59.421875 11.28125 64.40625 15.921875 
L 64.40625 5.609375 
Q 59.234375 2.09375 53.4375 0.328125 
Q 47.65625 -1.421875 41.21875 -1.421875 
Q 24.65625 -1.421875 15.125 8.703125 
Q 5.609375 18.84375 5.609375 36.375 
Q 5.609375 53.953125 15.125 64.078125 
Q 24.65625 74.21875 41.21875 74.21875 
Q 47.75 74.21875 53.53125 72.484375 
Q 59.328125 70.75 64.40625 67.28125 
z
" id="DejaVuSans-67"/>
     <path d="M 8.6875 72.90625 
L 18.609375 72.90625 
L 18.609375 28.609375 
Q 18.609375 16.890625 22.84375 11.734375 
Q 27.09375 6.59375 36.625 6.59375 
Q 46.09375 6.59375 50.34375 11.734375 
Q 54.59375 16.890625 54.59375 28.609375 
L 54.59375 72.90625 
L 64.5 72.90625 
L 64.5 27.390625 
Q 64.5 13.140625 57.4375 5.859375 
Q 50.390625 -1.421875 36.625 -1.421875 
Q 22.796875 -1.421875 15.734375 5.859375 
Q 8.6875 13.140625 8.6875 27.390625 
z
" id="DejaVuSans-85"/>
     <path d="M 48.78125 52.59375 
L 48.78125 44.1875 
Q 44.96875 46.296875 41.140625 47.34375 
Q 37.3125 48.390625 33.40625 48.390625 
Q 24.65625 48.390625 19.8125 42.84375 
Q 14.984375 37.3125 14.984375 27.296875 
Q 14.984375 17.28125 19.8125 11.734375 
Q 24.65625 6.203125 33.40625 6.203125 
Q 37.3125 6.203125 41.140625 7.25 
Q 44.96875 8.296875 48.78125 10.40625 
L 48.78125 2.09375 
Q 45.015625 0.34375 40.984375 -0.53125 
Q 36.96875 -1.421875 32.421875 -1.421875 
Q 20.0625 -1.421875 12.78125 6.34375 
Q 5.515625 14.109375 5.515625 27.296875 
Q 5.515625 40.671875 12.859375 48.328125 
Q 20.21875 56 33.015625 56 
Q 37.15625 56 41.109375 55.140625 
Q 45.0625 54.296875 48.78125 52.59375 
z
" id="DejaVuSans-99"/>
     <path d="M 56.203125 29.59375 
L 56.203125 25.203125 
L 14.890625 25.203125 
Q 15.484375 15.921875 20.484375 11.0625 
Q 25.484375 6.203125 34.421875 6.203125 
Q 39.59375 6.203125 44.453125 7.46875 
Q 49.3125 8.734375 54.109375 11.28125 
L 54.109375 2.78125 
Q 49.265625 0.734375 44.1875 -0.34375 
Q 39.109375 -1.421875 33.890625 -1.421875 
Q 20.796875 -1.421875 13.15625 6.1875 
Q 5.515625 13.8125 5.515625 26.8125 
Q 5.515625 40.234375 12.765625 48.109375 
Q 20.015625 56 32.328125 56 
Q 43.359375 56 49.78125 48.890625 
Q 56.203125 41.796875 56.203125 29.59375 
z
M 47.21875 32.234375 
Q 47.125 39.59375 43.09375 43.984375 
Q 39.0625 48.390625 32.421875 48.390625 
Q 24.90625 48.390625 20.390625 44.140625 
Q 15.875 39.890625 15.1875 32.171875 
z
" id="DejaVuSans-101"/>
     <path d="M 32.171875 -5.078125 
Q 28.375 -14.84375 24.75 -17.8125 
Q 21.140625 -20.796875 15.09375 -20.796875 
L 7.90625 -20.796875 
L 7.90625 -13.28125 
L 13.1875 -13.28125 
Q 16.890625 -13.28125 18.9375 -11.515625 
Q 21 -9.765625 23.484375 -3.21875 
L 25.09375 0.875 
L 2.984375 54.6875 
L 12.5 54.6875 
L 29.59375 11.921875 
L 46.6875 54.6875 
L 56.203125 54.6875 
z
" id="DejaVuSans-121"/>
    </defs>
    <g transform="translate(115.666875 35.472)scale(0.12 -0.12)">
     <use xlink:href="#DejaVuSans-80"/>
     <use x="60.302734" xlink:href="#DejaVuSans-108"/>
     <use x="88.085938" xlink:href="#DejaVuSans-111"/>
     <use x="149.267578" xlink:href="#DejaVuSans-116"/>
     <use x="188.476562" xlink:href="#DejaVuSans-32"/>
     <use x="220.263672" xlink:href="#DejaVuSans-111"/>
     <use x="281.445312" xlink:href="#DejaVuSans-102"/>
     <use x="316.650391" xlink:href="#DejaVuSans-32"/>
     <use x="348.4375" xlink:href="#DejaVuSans-84"/>
     <use x="409.302734" xlink:href="#DejaVuSans-114"/>
     <use x="450.416016" xlink:href="#DejaVuSans-97"/>
     <use x="511.695312" xlink:href="#DejaVuSans-105"/>
     <use x="539.478516" xlink:href="#DejaVuSans-110"/>
     <use x="602.857422" xlink:href="#DejaVuSans-32"/>
     <use x="634.644531" xlink:href="#DejaVuSans-68"/>
     <use x="711.646484" xlink:href="#DejaVuSans-97"/>
     <use x="772.925781" xlink:href="#DejaVuSans-116"/>
     <use x="812.134766" xlink:href="#DejaVuSans-97"/>
     <use x="873.414062" xlink:href="#DejaVuSans-32"/>
     <use x="905.201172" xlink:href="#DejaVuSans-118"/>
     <use x="964.380859" xlink:href="#DejaVuSans-115"/>
     <use x="1016.480469" xlink:href="#DejaVuSans-32"/>
     <use x="1048.267578" xlink:href="#DejaVuSans-77"/>
     <use x="1134.546875" xlink:href="#DejaVuSans-67"/>
     <use x="1204.371094" xlink:href="#DejaVuSans-77"/>
     <use x="1290.650391" xlink:href="#DejaVuSans-67"/>
     <use x="1360.474609" xlink:href="#DejaVuSans-32"/>
     <use x="1392.261719" xlink:href="#DejaVuSans-85"/>
     <use x="1465.455078" xlink:href="#DejaVuSans-110"/>
     <use x="1528.833984" xlink:href="#DejaVuSans-99"/>
     <use x="1583.814453" xlink:href="#DejaVuSans-101"/>
     <use x="1645.337891" xlink:href="#DejaVuSans-114"/>
     <use x="1686.451172" xlink:href="#DejaVuSans-116"/>
     <use x="1725.660156" xlink:href="#DejaVuSans-97"/>
     <use x="1786.939453" xlink:href="#DejaVuSans-105"/>
     <use x="1814.722656" xlink:href="#DejaVuSans-110"/>
     <use x="1878.101562" xlink:href="#DejaVuSans-116"/>
     <use x="1917.310547" xlink:href="#DejaVuSans-121"/>
     <use x="1976.490234" xlink:href="#DejaVuSans-32"/>
    </g>
   </g>
   <g id="legend_1">
    <g id="patch_7">
     <path d="M 277.843437 108.1845 
L 407.72 108.1845 
Q 409.72 108.1845 409.72 106.1845 
L 409.72 48.472 
Q 409.72 46.472 407.72 46.472 
L 277.843437 46.472 
Q 275.843437 46.472 275.843437 48.472 
L 275.843437 106.1845 
Q 275.843437 108.1845 277.843437 108.1845 
z
" style="fill:#ffffff;opacity:0.8;stroke:#cccccc;stroke-linejoin:miter;"/>
    </g>
    <g id="line2d_17">
     <path d="M 279.843437 54.570438 
L 299.843437 54.570438 
" style="fill:none;stroke:#1f77b4;stroke-linecap:square;stroke-width:1.5;"/>
    </g>
    <g id="line2d_18"/>
    <g id="text_14">
     <!-- actual -->
     <defs>
      <path d="M 8.5 21.578125 
L 8.5 54.6875 
L 17.484375 54.6875 
L 17.484375 21.921875 
Q 17.484375 14.15625 20.5 10.265625 
Q 23.53125 6.390625 29.59375 6.390625 
Q 36.859375 6.390625 41.078125 11.03125 
Q 45.3125 15.671875 45.3125 23.6875 
L 45.3125 54.6875 
L 54.296875 54.6875 
L 54.296875 0 
L 45.3125 0 
L 45.3125 8.40625 
Q 42.046875 3.421875 37.71875 1 
Q 33.40625 -1.421875 27.6875 -1.421875 
Q 18.265625 -1.421875 13.375 4.4375 
Q 8.5 10.296875 8.5 21.578125 
z
M 31.109375 56 
z
" id="DejaVuSans-117"/>
     </defs>
     <g transform="translate(307.843437 58.070438)scale(0.1 -0.1)">
      <use xlink:href="#DejaVuSans-97"/>
      <use x="61.279297" xlink:href="#DejaVuSans-99"/>
      <use x="116.259766" xlink:href="#DejaVuSans-116"/>
      <use x="155.46875" xlink:href="#DejaVuSans-117"/>
      <use x="218.847656" xlink:href="#DejaVuSans-97"/>
      <use x="280.126953" xlink:href="#DejaVuSans-108"/>
     </g>
    </g>
    <g id="line2d_19">
     <path d="M 279.843437 69.248563 
L 299.843437 69.248563 
" style="fill:none;stroke:#ff7f0e;stroke-linecap:square;stroke-width:1.5;"/>
    </g>
    <g id="line2d_20"/>
    <g id="text_15">
     <!-- pred. (mean) -->
     <defs>
      <path d="M 18.109375 8.203125 
L 18.109375 -20.796875 
L 9.078125 -20.796875 
L 9.078125 54.6875 
L 18.109375 54.6875 
L 18.109375 46.390625 
Q 20.953125 51.265625 25.265625 53.625 
Q 29.59375 56 35.59375 56 
Q 45.5625 56 51.78125 48.09375 
Q 58.015625 40.1875 58.015625 27.296875 
Q 58.015625 14.40625 51.78125 6.484375 
Q 45.5625 -1.421875 35.59375 -1.421875 
Q 29.59375 -1.421875 25.265625 0.953125 
Q 20.953125 3.328125 18.109375 8.203125 
z
M 48.6875 27.296875 
Q 48.6875 37.203125 44.609375 42.84375 
Q 40.53125 48.484375 33.40625 48.484375 
Q 26.265625 48.484375 22.1875 42.84375 
Q 18.109375 37.203125 18.109375 27.296875 
Q 18.109375 17.390625 22.1875 11.75 
Q 26.265625 6.109375 33.40625 6.109375 
Q 40.53125 6.109375 44.609375 11.75 
Q 48.6875 17.390625 48.6875 27.296875 
z
" id="DejaVuSans-112"/>
      <path d="M 45.40625 46.390625 
L 45.40625 75.984375 
L 54.390625 75.984375 
L 54.390625 0 
L 45.40625 0 
L 45.40625 8.203125 
Q 42.578125 3.328125 38.25 0.953125 
Q 33.9375 -1.421875 27.875 -1.421875 
Q 17.96875 -1.421875 11.734375 6.484375 
Q 5.515625 14.40625 5.515625 27.296875 
Q 5.515625 40.1875 11.734375 48.09375 
Q 17.96875 56 27.875 56 
Q 33.9375 56 38.25 53.625 
Q 42.578125 51.265625 45.40625 46.390625 
z
M 14.796875 27.296875 
Q 14.796875 17.390625 18.875 11.75 
Q 22.953125 6.109375 30.078125 6.109375 
Q 37.203125 6.109375 41.296875 11.75 
Q 45.40625 17.390625 45.40625 27.296875 
Q 45.40625 37.203125 41.296875 42.84375 
Q 37.203125 48.484375 30.078125 48.484375 
Q 22.953125 48.484375 18.875 42.84375 
Q 14.796875 37.203125 14.796875 27.296875 
z
" id="DejaVuSans-100"/>
      <path d="M 31 75.875 
Q 24.46875 64.65625 21.28125 53.65625 
Q 18.109375 42.671875 18.109375 31.390625 
Q 18.109375 20.125 21.3125 9.0625 
Q 24.515625 -2 31 -13.1875 
L 23.1875 -13.1875 
Q 15.875 -1.703125 12.234375 9.375 
Q 8.59375 20.453125 8.59375 31.390625 
Q 8.59375 42.28125 12.203125 53.3125 
Q 15.828125 64.359375 23.1875 75.875 
z
" id="DejaVuSans-40"/>
      <path d="M 52 44.1875 
Q 55.375 50.25 60.0625 53.125 
Q 64.75 56 71.09375 56 
Q 79.640625 56 84.28125 50.015625 
Q 88.921875 44.046875 88.921875 33.015625 
L 88.921875 0 
L 79.890625 0 
L 79.890625 32.71875 
Q 79.890625 40.578125 77.09375 44.375 
Q 74.3125 48.1875 68.609375 48.1875 
Q 61.625 48.1875 57.5625 43.546875 
Q 53.515625 38.921875 53.515625 30.90625 
L 53.515625 0 
L 44.484375 0 
L 44.484375 32.71875 
Q 44.484375 40.625 41.703125 44.40625 
Q 38.921875 48.1875 33.109375 48.1875 
Q 26.21875 48.1875 22.15625 43.53125 
Q 18.109375 38.875 18.109375 30.90625 
L 18.109375 0 
L 9.078125 0 
L 9.078125 54.6875 
L 18.109375 54.6875 
L 18.109375 46.1875 
Q 21.1875 51.21875 25.484375 53.609375 
Q 29.78125 56 35.6875 56 
Q 41.65625 56 45.828125 52.96875 
Q 50 49.953125 52 44.1875 
z
" id="DejaVuSans-109"/>
      <path d="M 8.015625 75.875 
L 15.828125 75.875 
Q 23.140625 64.359375 26.78125 53.3125 
Q 30.421875 42.28125 30.421875 31.390625 
Q 30.421875 20.453125 26.78125 9.375 
Q 23.140625 -1.703125 15.828125 -13.1875 
L 8.015625 -13.1875 
Q 14.5 -2 17.703125 9.0625 
Q 20.90625 20.125 20.90625 31.390625 
Q 20.90625 42.671875 17.703125 53.65625 
Q 14.5 64.65625 8.015625 75.875 
z
" id="DejaVuSans-41"/>
     </defs>
     <g transform="translate(307.843437 72.748563)scale(0.1 -0.1)">
      <use xlink:href="#DejaVuSans-112"/>
      <use x="63.476562" xlink:href="#DejaVuSans-114"/>
      <use x="104.558594" xlink:href="#DejaVuSans-101"/>
      <use x="166.082031" xlink:href="#DejaVuSans-100"/>
      <use x="229.558594" xlink:href="#DejaVuSans-46"/>
      <use x="261.345703" xlink:href="#DejaVuSans-32"/>
      <use x="293.132812" xlink:href="#DejaVuSans-40"/>
      <use x="332.146484" xlink:href="#DejaVuSans-109"/>
      <use x="429.558594" xlink:href="#DejaVuSans-101"/>
      <use x="491.082031" xlink:href="#DejaVuSans-97"/>
      <use x="552.361328" xlink:href="#DejaVuSans-110"/>
      <use x="615.740234" xlink:href="#DejaVuSans-41"/>
     </g>
    </g>
    <g id="line2d_21">
     <path d="M 279.843437 83.926688 
L 299.843437 83.926688 
" style="fill:none;stroke:#2ca02c;stroke-linecap:square;stroke-width:1.5;"/>
    </g>
    <g id="line2d_22"/>
    <g id="text_16">
     <!-- pred.(5th percen.) -->
     <defs>
      <path d="M 10.796875 72.90625 
L 49.515625 72.90625 
L 49.515625 64.59375 
L 19.828125 64.59375 
L 19.828125 46.734375 
Q 21.96875 47.46875 24.109375 47.828125 
Q 26.265625 48.1875 28.421875 48.1875 
Q 40.625 48.1875 47.75 41.5 
Q 54.890625 34.8125 54.890625 23.390625 
Q 54.890625 11.625 47.5625 5.09375 
Q 40.234375 -1.421875 26.90625 -1.421875 
Q 22.3125 -1.421875 17.546875 -0.640625 
Q 12.796875 0.140625 7.71875 1.703125 
L 7.71875 11.625 
Q 12.109375 9.234375 16.796875 8.0625 
Q 21.484375 6.890625 26.703125 6.890625 
Q 35.15625 6.890625 40.078125 11.328125 
Q 45.015625 15.765625 45.015625 23.390625 
Q 45.015625 31 40.078125 35.4375 
Q 35.15625 39.890625 26.703125 39.890625 
Q 22.75 39.890625 18.8125 39.015625 
Q 14.890625 38.140625 10.796875 36.28125 
z
" id="DejaVuSans-53"/>
      <path d="M 54.890625 33.015625 
L 54.890625 0 
L 45.90625 0 
L 45.90625 32.71875 
Q 45.90625 40.484375 42.875 44.328125 
Q 39.84375 48.1875 33.796875 48.1875 
Q 26.515625 48.1875 22.3125 43.546875 
Q 18.109375 38.921875 18.109375 30.90625 
L 18.109375 0 
L 9.078125 0 
L 9.078125 75.984375 
L 18.109375 75.984375 
L 18.109375 46.1875 
Q 21.34375 51.125 25.703125 53.5625 
Q 30.078125 56 35.796875 56 
Q 45.21875 56 50.046875 50.171875 
Q 54.890625 44.34375 54.890625 33.015625 
z
" id="DejaVuSans-104"/>
     </defs>
     <g transform="translate(307.843437 87.426688)scale(0.1 -0.1)">
      <use xlink:href="#DejaVuSans-112"/>
      <use x="63.476562" xlink:href="#DejaVuSans-114"/>
      <use x="104.558594" xlink:href="#DejaVuSans-101"/>
      <use x="166.082031" xlink:href="#DejaVuSans-100"/>
      <use x="229.558594" xlink:href="#DejaVuSans-46"/>
      <use x="261.345703" xlink:href="#DejaVuSans-40"/>
      <use x="300.359375" xlink:href="#DejaVuSans-53"/>
      <use x="363.982422" xlink:href="#DejaVuSans-116"/>
      <use x="403.191406" xlink:href="#DejaVuSans-104"/>
      <use x="466.570312" xlink:href="#DejaVuSans-32"/>
      <use x="498.357422" xlink:href="#DejaVuSans-112"/>
      <use x="561.833984" xlink:href="#DejaVuSans-101"/>
      <use x="623.357422" xlink:href="#DejaVuSans-114"/>
      <use x="664.439453" xlink:href="#DejaVuSans-99"/>
      <use x="719.419922" xlink:href="#DejaVuSans-101"/>
      <use x="780.943359" xlink:href="#DejaVuSans-110"/>
      <use x="844.322266" xlink:href="#DejaVuSans-46"/>
      <use x="876.109375" xlink:href="#DejaVuSans-41"/>
     </g>
    </g>
    <g id="line2d_23">
     <path d="M 279.843437 98.604813 
L 299.843437 98.604813 
" style="fill:none;stroke:#d62728;stroke-linecap:square;stroke-width:1.5;"/>
    </g>
    <g id="line2d_24"/>
    <g id="text_17">
     <!-- pred.(95th percen.) -->
     <defs>
      <path d="M 10.984375 1.515625 
L 10.984375 10.5 
Q 14.703125 8.734375 18.5 7.8125 
Q 22.3125 6.890625 25.984375 6.890625 
Q 35.75 6.890625 40.890625 13.453125 
Q 46.046875 20.015625 46.78125 33.40625 
Q 43.953125 29.203125 39.59375 26.953125 
Q 35.25 24.703125 29.984375 24.703125 
Q 19.046875 24.703125 12.671875 31.3125 
Q 6.296875 37.9375 6.296875 49.421875 
Q 6.296875 60.640625 12.9375 67.421875 
Q 19.578125 74.21875 30.609375 74.21875 
Q 43.265625 74.21875 49.921875 64.515625 
Q 56.59375 54.828125 56.59375 36.375 
Q 56.59375 19.140625 48.40625 8.859375 
Q 40.234375 -1.421875 26.421875 -1.421875 
Q 22.703125 -1.421875 18.890625 -0.6875 
Q 15.09375 0.046875 10.984375 1.515625 
z
M 30.609375 32.421875 
Q 37.25 32.421875 41.125 36.953125 
Q 45.015625 41.5 45.015625 49.421875 
Q 45.015625 57.28125 41.125 61.84375 
Q 37.25 66.40625 30.609375 66.40625 
Q 23.96875 66.40625 20.09375 61.84375 
Q 16.21875 57.28125 16.21875 49.421875 
Q 16.21875 41.5 20.09375 36.953125 
Q 23.96875 32.421875 30.609375 32.421875 
z
" id="DejaVuSans-57"/>
     </defs>
     <g transform="translate(307.843437 102.104813)scale(0.1 -0.1)">
      <use xlink:href="#DejaVuSans-112"/>
      <use x="63.476562" xlink:href="#DejaVuSans-114"/>
      <use x="104.558594" xlink:href="#DejaVuSans-101"/>
      <use x="166.082031" xlink:href="#DejaVuSans-100"/>
      <use x="229.558594" xlink:href="#DejaVuSans-46"/>
      <use x="261.345703" xlink:href="#DejaVuSans-40"/>
      <use x="300.359375" xlink:href="#DejaVuSans-57"/>
      <use x="363.982422" xlink:href="#DejaVuSans-53"/>
      <use x="427.605469" xlink:href="#DejaVuSans-116"/>
      <use x="466.814453" xlink:href="#DejaVuSans-104"/>
      <use x="530.193359" xlink:href="#DejaVuSans-32"/>
      <use x="561.980469" xlink:href="#DejaVuSans-112"/>
      <use x="625.457031" xlink:href="#DejaVuSans-101"/>
      <use x="686.980469" xlink:href="#DejaVuSans-114"/>
      <use x="728.0625" xlink:href="#DejaVuSans-99"/>
      <use x="783.042969" xlink:href="#DejaVuSans-101"/>
      <use x="844.566406" xlink:href="#DejaVuSans-110"/>
      <use x="907.945312" xlink:href="#DejaVuSans-46"/>
      <use x="939.732422" xlink:href="#DejaVuSans-41"/>
     </g>
    </g>
   </g>
  </g>
 </g>
 <defs>
  <clipPath id="pfb00d20f95">
   <rect height="266.112" width="357.12" x="57.6" y="41.472"/>
  </clipPath>
 </defs>
</svg>
