<?xml version="1.0" encoding="utf-8" standalone="no"?>
<!DOCTYPE svg PUBLIC "-//W3C//DTD SVG 1.1//EN"
  "http://www.w3.org/Graphics/SVG/1.1/DTD/svg11.dtd">
<!-- Created with matplotlib (https://matplotlib.org/) -->
<svg height="345.6pt" version="1.1" viewBox="0 0 460.8 345.6" width="460.8pt" xmlns="http://www.w3.org/2000/svg" xmlns:xlink="http://www.w3.org/1999/xlink">
 <defs>
  <style type="text/css">
*{stroke-linecap:butt;stroke-linejoin:round;}
  </style>
 </defs>
 <g id="figure_1">
  <g id="patch_1">
   <path d="M 0 345.6 
L 460.8 345.6 
L 460.8 0 
L 0 0 
z
" style="fill:#ffffff;"/>
  </g>
  <g id="axes_1">
   <g id="patch_2">
    <path d="M 57.6 307.584 
L 414.72 307.584 
L 414.72 41.472 
L 57.6 41.472 
z
" style="fill:#ffffff;"/>
   </g>
   <g id="PolyCollection_1">
    <path clip-path="url(#p470fe6370f)" d="M 73.832727 98.255165 
L 73.832727 107.438278 
L 75.48072 97.962363 
L 77.128713 109.818879 
L 78.776705 108.955787 
L 80.424698 124.530878 
L 82.07269 143.669585 
L 83.720683 154.140229 
L 85.368676 159.722052 
L 87.016668 149.775002 
L 88.664661 148.905066 
L 90.312653 156.461779 
L 91.960646 164.104201 
L 93.608639 176.05381 
L 95.256631 182.01925 
L 96.904624 206.297083 
L 98.552617 219.317643 
L 100.200609 231.075447 
L 101.848602 238.502395 
L 103.496594 249.229352 
L 105.144587 265.073044 
L 106.79258 267.118907 
L 108.440572 267.457746 
L 110.088565 268.789057 
L 111.736557 265.971921 
L 113.38455 266.460593 
L 115.032543 267.547054 
L 116.680535 272.580052 
L 118.328528 277.270824 
L 119.976521 277.138267 
L 121.624513 279.319218 
L 123.272506 280.639119 
L 124.920498 280.735913 
L 126.568491 280.990547 
L 128.216484 278.265628 
L 129.864476 278.608119 
L 131.512469 279.627409 
L 133.160461 280.040472 
L 134.808454 280.632843 
L 136.456447 280.946208 
L 138.104439 281.72216 
L 139.752432 279.362328 
L 141.400425 277.696179 
L 143.048417 273.719642 
L 144.69641 267.150309 
L 146.344402 250.075328 
L 147.992395 235.945355 
L 149.640388 222.512894 
L 151.28838 207.575456 
L 152.936373 184.327253 
L 154.584365 161.147494 
L 156.232358 144.429118 
L 157.880351 127.185089 
L 159.528343 114.213685 
L 161.176336 99.743382 
L 162.824329 101.054007 
L 164.472321 93.745732 
L 166.120314 89.091488 
L 167.768306 77.666076 
L 169.416299 74.564994 
L 171.064292 69.055071 
L 172.712284 68.665662 
L 174.360277 70.221878 
L 176.008269 61.814147 
L 177.656262 83.555814 
L 179.304255 85.980084 
L 180.952247 99.484311 
L 182.60024 102.919644 
L 184.248233 105.677801 
L 185.896225 127.023204 
L 187.544218 132.709051 
L 189.19221 131.627267 
L 190.840203 134.14756 
L 192.488196 142.436555 
L 194.136188 156.599531 
L 195.784181 165.992004 
L 197.432174 173.885118 
L 199.080166 183.462141 
L 200.728159 191.734557 
L 202.376151 197.486068 
L 204.024144 205.962063 
L 205.672137 214.640279 
L 207.320129 221.360884 
L 208.968122 227.142532 
L 210.616114 234.71147 
L 212.264107 233.920902 
L 213.9121 233.940652 
L 215.560092 233.753055 
L 217.208085 234.844017 
L 218.856078 232.482445 
L 220.50407 231.204658 
L 222.152063 243.385064 
L 223.800055 247.308423 
L 225.448048 248.45353 
L 227.096041 257.063699 
L 228.744033 267.540434 
L 230.392026 270.112174 
L 232.040018 270.476534 
L 233.688011 270.405522 
L 235.336004 271.04873 
L 236.983996 271.827094 
L 238.631989 271.885894 
L 240.279982 274.462956 
L 241.927974 277.505905 
L 243.575967 280.184114 
L 245.223959 281.98262 
L 246.871952 283.22356 
L 248.519945 284.762841 
L 250.167937 284.575787 
L 251.81593 284.088698 
L 253.463922 283.887439 
L 255.111915 284.905206 
L 256.759908 284.484887 
L 258.4079 282.263811 
L 260.055893 281.247632 
L 261.703886 279.107686 
L 263.351878 274.490711 
L 264.999871 268.452648 
L 266.647863 259.577865 
L 268.295856 251.466218 
L 269.943849 238.123239 
L 271.591841 230.280816 
L 273.239834 223.250015 
L 274.887826 212.988732 
L 276.535819 201.360071 
L 278.183812 194.038407 
L 279.831804 191.720843 
L 281.479797 173.966645 
L 283.12779 165.620702 
L 284.775782 162.538856 
L 286.423775 155.605029 
L 288.071767 141.725582 
L 289.71976 128.281119 
L 291.367753 147.508593 
L 293.015745 139.395469 
L 294.663738 129.87441 
L 296.311731 128.265198 
L 297.959723 158.192749 
L 299.607716 158.821991 
L 301.255708 134.941224 
L 302.903701 134.397716 
L 304.551694 152.152125 
L 306.199686 153.204468 
L 307.847679 134.748578 
L 309.495671 139.289965 
L 311.143664 170.409189 
L 312.791657 170.192489 
L 314.439649 167.07295 
L 316.087642 161.163048 
L 317.735635 167.250436 
L 319.383627 172.296349 
L 321.03162 163.514346 
L 322.679612 160.269461 
L 324.327605 169.877032 
L 325.975598 193.613098 
L 327.62359 196.135449 
L 329.271583 189.695856 
L 330.919575 200.343421 
L 332.567568 213.571624 
L 334.215561 219.834922 
L 335.863553 225.673555 
L 337.511546 237.852798 
L 339.159539 258.939459 
L 340.807531 265.582786 
L 342.455524 265.088849 
L 344.103516 268.846096 
L 345.751509 272.958662 
L 347.399502 280.497096 
L 349.047494 280.924655 
L 350.695487 282.162241 
L 352.343479 283.998791 
L 353.991472 284.363538 
L 355.639465 284.366882 
L 357.287457 283.875418 
L 358.93545 283.621704 
L 360.583443 283.271423 
L 362.231435 284.133383 
L 363.879428 284.991215 
L 365.52742 285.432795 
L 367.175413 286.144217 
L 368.823406 286.376109 
L 370.471398 286.235237 
L 372.119391 284.31372 
L 373.767383 282.301839 
L 375.415376 280.561588 
L 377.063369 277.939532 
L 378.711361 272.645594 
L 380.359354 260.507492 
L 382.007347 247.303235 
L 383.655339 231.798432 
L 385.303332 205.63622 
L 386.951324 185.768889 
L 388.599317 174.715233 
L 390.24731 166.008876 
L 391.895302 151.126181 
L 393.543295 143.171575 
L 395.191287 158.227957 
L 396.83928 156.557502 
L 398.487273 145.62031 
L 398.487273 136.246715 
L 398.487273 136.246715 
L 396.83928 149.597565 
L 395.191287 153.784887 
L 393.543295 138.82132 
L 391.895302 137.412909 
L 390.24731 153.997385 
L 388.599317 161.767829 
L 386.951324 165.650701 
L 385.303332 179.878649 
L 383.655339 212.713589 
L 382.007347 241.186796 
L 380.359354 254.147473 
L 378.711361 260.315756 
L 377.063369 262.896702 
L 375.415376 264.53447 
L 373.767383 265.665823 
L 372.119391 267.037869 
L 370.471398 267.96041 
L 368.823406 267.963873 
L 367.175413 267.70799 
L 365.52742 267.213376 
L 363.879428 266.85632 
L 362.231435 266.240922 
L 360.583443 265.870751 
L 358.93545 266.175832 
L 357.287457 266.36371 
L 355.639465 266.570298 
L 353.991472 266.568765 
L 352.343479 265.910564 
L 350.695487 264.744123 
L 349.047494 264.063264 
L 347.399502 262.184168 
L 345.751509 258.264858 
L 344.103516 255.952318 
L 342.455524 254.501483 
L 340.807531 252.349185 
L 339.159539 245.024418 
L 337.511546 230.008272 
L 335.863553 219.638409 
L 334.215561 212.895319 
L 332.567568 207.397761 
L 330.919575 194.315382 
L 329.271583 179.741758 
L 327.62359 183.876464 
L 325.975598 186.012508 
L 324.327605 166.055573 
L 322.679612 155.916565 
L 321.03162 151.19288 
L 319.383627 164.625403 
L 317.735635 162.760999 
L 316.087642 150.571566 
L 314.439649 160.430659 
L 312.791657 162.933132 
L 311.143664 156.836689 
L 309.495671 131.3606 
L 307.847679 122.82645 
L 306.199686 145.536134 
L 304.551694 142.945601 
L 302.903701 128.769551 
L 301.255708 120.685504 
L 299.607716 149.455992 
L 297.959723 142.10909 
L 296.311731 123.538954 
L 294.663738 123.965714 
L 293.015745 133.31155 
L 291.367753 139.249663 
L 289.71976 122.31109 
L 288.071767 127.249028 
L 286.423775 147.736702 
L 284.775782 153.155669 
L 283.12779 157.371426 
L 281.479797 154.370163 
L 279.831804 179.192459 
L 278.183812 181.790775 
L 276.535819 184.758235 
L 274.887826 197.362197 
L 273.239834 210.501565 
L 271.591841 220.811192 
L 269.943849 226.605942 
L 268.295856 247.079803 
L 266.647863 253.538946 
L 264.999871 258.078528 
L 263.351878 261.286208 
L 261.703886 263.678825 
L 260.055893 264.726707 
L 258.4079 265.701099 
L 256.759908 266.795845 
L 255.111915 266.802318 
L 253.463922 266.295925 
L 251.81593 266.495157 
L 250.167937 266.813457 
L 248.519945 266.489743 
L 246.871952 265.474951 
L 245.223959 264.512701 
L 243.575967 263.121905 
L 241.927974 261.493275 
L 240.279982 259.648836 
L 238.631989 258.654655 
L 236.983996 258.573176 
L 235.336004 258.021024 
L 233.688011 257.939118 
L 232.040018 257.632563 
L 230.392026 256.679418 
L 228.744033 253.350645 
L 227.096041 247.53424 
L 225.448048 243.9911 
L 223.800055 241.898199 
L 222.152063 236.365622 
L 220.50407 225.714211 
L 218.856078 224.282309 
L 217.208085 230.22321 
L 215.560092 228.274086 
L 213.9121 229.053814 
L 212.264107 228.255129 
L 210.616114 229.149648 
L 208.968122 221.073782 
L 207.320129 214.409249 
L 205.672137 208.002116 
L 204.024144 198.372722 
L 202.376151 190.612419 
L 200.728159 184.709869 
L 199.080166 179.088175 
L 197.432174 170.059417 
L 195.784181 161.900456 
L 194.136188 148.585661 
L 192.488196 137.095871 
L 190.840203 129.001981 
L 189.19221 126.053962 
L 187.544218 122.869251 
L 185.896225 108.66688 
L 184.248233 92.707306 
L 182.60024 90.061315 
L 180.952247 81.388259 
L 179.304255 70.974015 
L 177.656262 62.3967 
L 176.008269 53.568 
L 174.360277 59.39387 
L 172.712284 56.991694 
L 171.064292 60.279273 
L 169.416299 65.298114 
L 167.768306 71.813224 
L 166.120314 81.814743 
L 164.472321 87.506494 
L 162.824329 93.551281 
L 161.176336 95.176426 
L 159.528343 109.975998 
L 157.880351 114.885161 
L 156.232358 133.882079 
L 154.584365 142.542265 
L 152.936373 160.855891 
L 151.28838 188.064182 
L 149.640388 205.128358 
L 147.992395 224.101645 
L 146.344402 241.221703 
L 144.69641 257.538785 
L 143.048417 260.699323 
L 141.400425 262.537237 
L 139.752432 263.862805 
L 138.104439 264.637177 
L 136.456447 264.217748 
L 134.808454 264.016483 
L 133.160461 263.598704 
L 131.512469 263.339926 
L 129.864476 262.664887 
L 128.216484 263.177425 
L 126.568491 264.332584 
L 124.920498 264.097394 
L 123.272506 263.855226 
L 121.624513 262.710792 
L 119.976521 261.813957 
L 118.328528 260.86799 
L 116.680535 257.918973 
L 115.032543 255.97646 
L 113.38455 255.606408 
L 111.736557 255.954676 
L 110.088565 256.677429 
L 108.440572 255.829104 
L 106.79258 254.634353 
L 105.144587 250.458908 
L 103.496594 241.053241 
L 101.848602 232.415769 
L 100.200609 223.516867 
L 98.552617 212.595372 
L 96.904624 198.523221 
L 95.256631 177.084956 
L 93.608639 172.225717 
L 91.960646 160.792107 
L 90.312653 152.843976 
L 88.664661 145.124664 
L 87.016668 140.045333 
L 85.368676 155.584031 
L 83.720683 145.513436 
L 82.07269 128.797156 
L 80.424698 107.872148 
L 78.776705 100.555221 
L 77.128713 95.703573 
L 75.48072 91.105612 
L 73.832727 98.255165 
z
" style="fill:#008000;fill-opacity:0.4;"/>
   </g>
   <g id="matplotlib.axis_1">
    <g id="xtick_1">
     <g id="line2d_1">
      <defs>
       <path d="M 0 0 
L 0 3.5 
" id="me7e8a80d98" style="stroke:#000000;stroke-width:0.8;"/>
      </defs>
      <g>
       <use style="stroke:#000000;stroke-width:0.8;" x="73.832727" xlink:href="#me7e8a80d98" y="307.584"/>
      </g>
     </g>
     <g id="text_1">
      <!-- 0.0 -->
      <defs>
       <path d="M 31.78125 66.40625 
Q 24.171875 66.40625 20.328125 58.90625 
Q 16.5 51.421875 16.5 36.375 
Q 16.5 21.390625 20.328125 13.890625 
Q 24.171875 6.390625 31.78125 6.390625 
Q 39.453125 6.390625 43.28125 13.890625 
Q 47.125 21.390625 47.125 36.375 
Q 47.125 51.421875 43.28125 58.90625 
Q 39.453125 66.40625 31.78125 66.40625 
z
M 31.78125 74.21875 
Q 44.046875 74.21875 50.515625 64.515625 
Q 56.984375 54.828125 56.984375 36.375 
Q 56.984375 17.96875 50.515625 8.265625 
Q 44.046875 -1.421875 31.78125 -1.421875 
Q 19.53125 -1.421875 13.0625 8.265625 
Q 6.59375 17.96875 6.59375 36.375 
Q 6.59375 54.828125 13.0625 64.515625 
Q 19.53125 74.21875 31.78125 74.21875 
z
" id="DejaVuSans-48"/>
       <path d="M 10.6875 12.40625 
L 21 12.40625 
L 21 0 
L 10.6875 0 
z
" id="DejaVuSans-46"/>
      </defs>
      <g transform="translate(65.881165 322.182437)scale(0.1 -0.1)">
       <use xlink:href="#DejaVuSans-48"/>
       <use x="63.623047" xlink:href="#DejaVuSans-46"/>
       <use x="95.410156" xlink:href="#DejaVuSans-48"/>
      </g>
     </g>
    </g>
    <g id="xtick_2">
     <g id="line2d_2">
      <g>
       <use style="stroke:#000000;stroke-width:0.8;" x="138.763636" xlink:href="#me7e8a80d98" y="307.584"/>
      </g>
     </g>
     <g id="text_2">
      <!-- 0.2 -->
      <defs>
       <path d="M 19.1875 8.296875 
L 53.609375 8.296875 
L 53.609375 0 
L 7.328125 0 
L 7.328125 8.296875 
Q 12.9375 14.109375 22.625 23.890625 
Q 32.328125 33.6875 34.8125 36.53125 
Q 39.546875 41.84375 41.421875 45.53125 
Q 43.3125 49.21875 43.3125 52.78125 
Q 43.3125 58.59375 39.234375 62.25 
Q 35.15625 65.921875 28.609375 65.921875 
Q 23.96875 65.921875 18.8125 64.3125 
Q 13.671875 62.703125 7.8125 59.421875 
L 7.8125 69.390625 
Q 13.765625 71.78125 18.9375 73 
Q 24.125 74.21875 28.421875 74.21875 
Q 39.75 74.21875 46.484375 68.546875 
Q 53.21875 62.890625 53.21875 53.421875 
Q 53.21875 48.921875 51.53125 44.890625 
Q 49.859375 40.875 45.40625 35.40625 
Q 44.1875 33.984375 37.640625 27.21875 
Q 31.109375 20.453125 19.1875 8.296875 
z
" id="DejaVuSans-50"/>
      </defs>
      <g transform="translate(130.812074 322.182437)scale(0.1 -0.1)">
       <use xlink:href="#DejaVuSans-48"/>
       <use x="63.623047" xlink:href="#DejaVuSans-46"/>
       <use x="95.410156" xlink:href="#DejaVuSans-50"/>
      </g>
     </g>
    </g>
    <g id="xtick_3">
     <g id="line2d_3">
      <g>
       <use style="stroke:#000000;stroke-width:0.8;" x="203.694545" xlink:href="#me7e8a80d98" y="307.584"/>
      </g>
     </g>
     <g id="text_3">
      <!-- 0.4 -->
      <defs>
       <path d="M 37.796875 64.3125 
L 12.890625 25.390625 
L 37.796875 25.390625 
z
M 35.203125 72.90625 
L 47.609375 72.90625 
L 47.609375 25.390625 
L 58.015625 25.390625 
L 58.015625 17.1875 
L 47.609375 17.1875 
L 47.609375 0 
L 37.796875 0 
L 37.796875 17.1875 
L 4.890625 17.1875 
L 4.890625 26.703125 
z
" id="DejaVuSans-52"/>
      </defs>
      <g transform="translate(195.742983 322.182437)scale(0.1 -0.1)">
       <use xlink:href="#DejaVuSans-48"/>
       <use x="63.623047" xlink:href="#DejaVuSans-46"/>
       <use x="95.410156" xlink:href="#DejaVuSans-52"/>
      </g>
     </g>
    </g>
    <g id="xtick_4">
     <g id="line2d_4">
      <g>
       <use style="stroke:#000000;stroke-width:0.8;" x="268.625455" xlink:href="#me7e8a80d98" y="307.584"/>
      </g>
     </g>
     <g id="text_4">
      <!-- 0.6 -->
      <defs>
       <path d="M 33.015625 40.375 
Q 26.375 40.375 22.484375 35.828125 
Q 18.609375 31.296875 18.609375 23.390625 
Q 18.609375 15.53125 22.484375 10.953125 
Q 26.375 6.390625 33.015625 6.390625 
Q 39.65625 6.390625 43.53125 10.953125 
Q 47.40625 15.53125 47.40625 23.390625 
Q 47.40625 31.296875 43.53125 35.828125 
Q 39.65625 40.375 33.015625 40.375 
z
M 52.59375 71.296875 
L 52.59375 62.3125 
Q 48.875 64.0625 45.09375 64.984375 
Q 41.3125 65.921875 37.59375 65.921875 
Q 27.828125 65.921875 22.671875 59.328125 
Q 17.53125 52.734375 16.796875 39.40625 
Q 19.671875 43.65625 24.015625 45.921875 
Q 28.375 48.1875 33.59375 48.1875 
Q 44.578125 48.1875 50.953125 41.515625 
Q 57.328125 34.859375 57.328125 23.390625 
Q 57.328125 12.15625 50.6875 5.359375 
Q 44.046875 -1.421875 33.015625 -1.421875 
Q 20.359375 -1.421875 13.671875 8.265625 
Q 6.984375 17.96875 6.984375 36.375 
Q 6.984375 53.65625 15.1875 63.9375 
Q 23.390625 74.21875 37.203125 74.21875 
Q 40.921875 74.21875 44.703125 73.484375 
Q 48.484375 72.75 52.59375 71.296875 
z
" id="DejaVuSans-54"/>
      </defs>
      <g transform="translate(260.673892 322.182437)scale(0.1 -0.1)">
       <use xlink:href="#DejaVuSans-48"/>
       <use x="63.623047" xlink:href="#DejaVuSans-46"/>
       <use x="95.410156" xlink:href="#DejaVuSans-54"/>
      </g>
     </g>
    </g>
    <g id="xtick_5">
     <g id="line2d_5">
      <g>
       <use style="stroke:#000000;stroke-width:0.8;" x="333.556364" xlink:href="#me7e8a80d98" y="307.584"/>
      </g>
     </g>
     <g id="text_5">
      <!-- 0.8 -->
      <defs>
       <path d="M 31.78125 34.625 
Q 24.75 34.625 20.71875 30.859375 
Q 16.703125 27.09375 16.703125 20.515625 
Q 16.703125 13.921875 20.71875 10.15625 
Q 24.75 6.390625 31.78125 6.390625 
Q 38.8125 6.390625 42.859375 10.171875 
Q 46.921875 13.96875 46.921875 20.515625 
Q 46.921875 27.09375 42.890625 30.859375 
Q 38.875 34.625 31.78125 34.625 
z
M 21.921875 38.8125 
Q 15.578125 40.375 12.03125 44.71875 
Q 8.5 49.078125 8.5 55.328125 
Q 8.5 64.0625 14.71875 69.140625 
Q 20.953125 74.21875 31.78125 74.21875 
Q 42.671875 74.21875 48.875 69.140625 
Q 55.078125 64.0625 55.078125 55.328125 
Q 55.078125 49.078125 51.53125 44.71875 
Q 48 40.375 41.703125 38.8125 
Q 48.828125 37.15625 52.796875 32.3125 
Q 56.78125 27.484375 56.78125 20.515625 
Q 56.78125 9.90625 50.3125 4.234375 
Q 43.84375 -1.421875 31.78125 -1.421875 
Q 19.734375 -1.421875 13.25 4.234375 
Q 6.78125 9.90625 6.78125 20.515625 
Q 6.78125 27.484375 10.78125 32.3125 
Q 14.796875 37.15625 21.921875 38.8125 
z
M 18.3125 54.390625 
Q 18.3125 48.734375 21.84375 45.5625 
Q 25.390625 42.390625 31.78125 42.390625 
Q 38.140625 42.390625 41.71875 45.5625 
Q 45.3125 48.734375 45.3125 54.390625 
Q 45.3125 60.0625 41.71875 63.234375 
Q 38.140625 66.40625 31.78125 66.40625 
Q 25.390625 66.40625 21.84375 63.234375 
Q 18.3125 60.0625 18.3125 54.390625 
z
" id="DejaVuSans-56"/>
      </defs>
      <g transform="translate(325.604801 322.182437)scale(0.1 -0.1)">
       <use xlink:href="#DejaVuSans-48"/>
       <use x="63.623047" xlink:href="#DejaVuSans-46"/>
       <use x="95.410156" xlink:href="#DejaVuSans-56"/>
      </g>
     </g>
    </g>
    <g id="xtick_6">
     <g id="line2d_6">
      <g>
       <use style="stroke:#000000;stroke-width:0.8;" x="398.487273" xlink:href="#me7e8a80d98" y="307.584"/>
      </g>
     </g>
     <g id="text_6">
      <!-- 1.0 -->
      <defs>
       <path d="M 12.40625 8.296875 
L 28.515625 8.296875 
L 28.515625 63.921875 
L 10.984375 60.40625 
L 10.984375 69.390625 
L 28.421875 72.90625 
L 38.28125 72.90625 
L 38.28125 8.296875 
L 54.390625 8.296875 
L 54.390625 0 
L 12.40625 0 
z
" id="DejaVuSans-49"/>
      </defs>
      <g transform="translate(390.53571 322.182437)scale(0.1 -0.1)">
       <use xlink:href="#DejaVuSans-49"/>
       <use x="63.623047" xlink:href="#DejaVuSans-46"/>
       <use x="95.410156" xlink:href="#DejaVuSans-48"/>
      </g>
     </g>
    </g>
   </g>
   <g id="matplotlib.axis_2">
    <g id="ytick_1">
     <g id="line2d_7">
      <defs>
       <path d="M 0 0 
L -3.5 0 
" id="m81b9322d49" style="stroke:#000000;stroke-width:0.8;"/>
      </defs>
      <g>
       <use style="stroke:#000000;stroke-width:0.8;" x="57.6" xlink:href="#m81b9322d49" y="299.542282"/>
      </g>
     </g>
     <g id="text_7">
      <!-- 0.0 -->
      <g transform="translate(34.696875 303.341501)scale(0.1 -0.1)">
       <use xlink:href="#DejaVuSans-48"/>
       <use x="63.623047" xlink:href="#DejaVuSans-46"/>
       <use x="95.410156" xlink:href="#DejaVuSans-48"/>
      </g>
     </g>
    </g>
    <g id="ytick_2">
     <g id="line2d_8">
      <g>
       <use style="stroke:#000000;stroke-width:0.8;" x="57.6" xlink:href="#m81b9322d49" y="259.567106"/>
      </g>
     </g>
     <g id="text_8">
      <!-- 0.1 -->
      <g transform="translate(34.696875 263.366325)scale(0.1 -0.1)">
       <use xlink:href="#DejaVuSans-48"/>
       <use x="63.623047" xlink:href="#DejaVuSans-46"/>
       <use x="95.410156" xlink:href="#DejaVuSans-49"/>
      </g>
     </g>
    </g>
    <g id="ytick_3">
     <g id="line2d_9">
      <g>
       <use style="stroke:#000000;stroke-width:0.8;" x="57.6" xlink:href="#m81b9322d49" y="219.591929"/>
      </g>
     </g>
     <g id="text_9">
      <!-- 0.2 -->
      <g transform="translate(34.696875 223.391148)scale(0.1 -0.1)">
       <use xlink:href="#DejaVuSans-48"/>
       <use x="63.623047" xlink:href="#DejaVuSans-46"/>
       <use x="95.410156" xlink:href="#DejaVuSans-50"/>
      </g>
     </g>
    </g>
    <g id="ytick_4">
     <g id="line2d_10">
      <g>
       <use style="stroke:#000000;stroke-width:0.8;" x="57.6" xlink:href="#m81b9322d49" y="179.616752"/>
      </g>
     </g>
     <g id="text_10">
      <!-- 0.3 -->
      <defs>
       <path d="M 40.578125 39.3125 
Q 47.65625 37.796875 51.625 33 
Q 55.609375 28.21875 55.609375 21.1875 
Q 55.609375 10.40625 48.1875 4.484375 
Q 40.765625 -1.421875 27.09375 -1.421875 
Q 22.515625 -1.421875 17.65625 -0.515625 
Q 12.796875 0.390625 7.625 2.203125 
L 7.625 11.71875 
Q 11.71875 9.328125 16.59375 8.109375 
Q 21.484375 6.890625 26.8125 6.890625 
Q 36.078125 6.890625 40.9375 10.546875 
Q 45.796875 14.203125 45.796875 21.1875 
Q 45.796875 27.640625 41.28125 31.265625 
Q 36.765625 34.90625 28.71875 34.90625 
L 20.21875 34.90625 
L 20.21875 43.015625 
L 29.109375 43.015625 
Q 36.375 43.015625 40.234375 45.921875 
Q 44.09375 48.828125 44.09375 54.296875 
Q 44.09375 59.90625 40.109375 62.90625 
Q 36.140625 65.921875 28.71875 65.921875 
Q 24.65625 65.921875 20.015625 65.03125 
Q 15.375 64.15625 9.8125 62.3125 
L 9.8125 71.09375 
Q 15.4375 72.65625 20.34375 73.4375 
Q 25.25 74.21875 29.59375 74.21875 
Q 40.828125 74.21875 47.359375 69.109375 
Q 53.90625 64.015625 53.90625 55.328125 
Q 53.90625 49.265625 50.4375 45.09375 
Q 46.96875 40.921875 40.578125 39.3125 
z
" id="DejaVuSans-51"/>
      </defs>
      <g transform="translate(34.696875 183.415971)scale(0.1 -0.1)">
       <use xlink:href="#DejaVuSans-48"/>
       <use x="63.623047" xlink:href="#DejaVuSans-46"/>
       <use x="95.410156" xlink:href="#DejaVuSans-51"/>
      </g>
     </g>
    </g>
    <g id="ytick_5">
     <g id="line2d_11">
      <g>
       <use style="stroke:#000000;stroke-width:0.8;" x="57.6" xlink:href="#m81b9322d49" y="139.641576"/>
      </g>
     </g>
     <g id="text_11">
      <!-- 0.4 -->
      <g transform="translate(34.696875 143.440795)scale(0.1 -0.1)">
       <use xlink:href="#DejaVuSans-48"/>
       <use x="63.623047" xlink:href="#DejaVuSans-46"/>
       <use x="95.410156" xlink:href="#DejaVuSans-52"/>
      </g>
     </g>
    </g>
    <g id="ytick_6">
     <g id="line2d_12">
      <g>
       <use style="stroke:#000000;stroke-width:0.8;" x="57.6" xlink:href="#m81b9322d49" y="99.666399"/>
      </g>
     </g>
     <g id="text_12">
      <!-- 0.5 -->
      <defs>
       <path d="M 10.796875 72.90625 
L 49.515625 72.90625 
L 49.515625 64.59375 
L 19.828125 64.59375 
L 19.828125 46.734375 
Q 21.96875 47.46875 24.109375 47.828125 
Q 26.265625 48.1875 28.421875 48.1875 
Q 40.625 48.1875 47.75 41.5 
Q 54.890625 34.8125 54.890625 23.390625 
Q 54.890625 11.625 47.5625 5.09375 
Q 40.234375 -1.421875 26.90625 -1.421875 
Q 22.3125 -1.421875 17.546875 -0.640625 
Q 12.796875 0.140625 7.71875 1.703125 
L 7.71875 11.625 
Q 12.109375 9.234375 16.796875 8.0625 
Q 21.484375 6.890625 26.703125 6.890625 
Q 35.15625 6.890625 40.078125 11.328125 
Q 45.015625 15.765625 45.015625 23.390625 
Q 45.015625 31 40.078125 35.4375 
Q 35.15625 39.890625 26.703125 39.890625 
Q 22.75 39.890625 18.8125 39.015625 
Q 14.890625 38.140625 10.796875 36.28125 
z
" id="DejaVuSans-53"/>
      </defs>
      <g transform="translate(34.696875 103.465618)scale(0.1 -0.1)">
       <use xlink:href="#DejaVuSans-48"/>
       <use x="63.623047" xlink:href="#DejaVuSans-46"/>
       <use x="95.410156" xlink:href="#DejaVuSans-53"/>
      </g>
     </g>
    </g>
    <g id="ytick_7">
     <g id="line2d_13">
      <g>
       <use style="stroke:#000000;stroke-width:0.8;" x="57.6" xlink:href="#m81b9322d49" y="59.691222"/>
      </g>
     </g>
     <g id="text_13">
      <!-- 0.6 -->
      <g transform="translate(34.696875 63.490441)scale(0.1 -0.1)">
       <use xlink:href="#DejaVuSans-48"/>
       <use x="63.623047" xlink:href="#DejaVuSans-46"/>
       <use x="95.410156" xlink:href="#DejaVuSans-54"/>
      </g>
     </g>
    </g>
   </g>
   <g id="line2d_14">
    <path clip-path="url(#p470fe6370f)" d="M 73.832727 102.234005 
L 75.48072 97.90949 
L 77.128713 105.747823 
L 78.776705 106.558519 
L 80.424698 124.667674 
L 82.07269 140.614572 
L 83.720683 153.047651 
L 85.368676 150.344929 
L 87.016668 144.398622 
L 88.664661 151.155626 
L 90.312653 156.291237 
L 91.960646 167.102523 
L 93.608639 171.967502 
L 95.256631 188.995728 
L 96.904624 207.375115 
L 100.200609 229.808785 
L 101.848602 236.565789 
L 103.496594 254.134479 
L 105.144587 261.972652 
L 106.79258 264.405221 
L 108.440572 267.378335 
L 110.088565 265.216078 
L 111.736557 264.405221 
L 113.38455 264.405221 
L 115.032543 268.729776 
L 116.680535 276.297757 
L 118.328528 278.460054 
L 119.976521 279.811455 
L 121.624513 283.865737 
L 123.272506 283.865737 
L 124.920498 285.217178 
L 126.568491 281.973752 
L 128.216484 280.352039 
L 129.864476 282.784608 
L 131.512469 282.514336 
L 133.160461 284.136009 
L 134.808454 284.406321 
L 136.456447 286.028034 
L 138.104439 283.865737 
L 139.752432 280.622311 
L 141.400425 276.297757 
L 143.048417 270.351489 
L 144.69641 254.945176 
L 146.344402 236.295557 
L 147.992395 220.618891 
L 149.640388 206.023555 
L 152.936373 164.399802 
L 154.584365 146.831111 
L 156.232358 131.965542 
L 157.880351 120.343159 
L 159.528343 107.639848 
L 161.176336 101.423308 
L 162.824329 96.017465 
L 164.472321 91.152486 
L 167.768306 76.286917 
L 171.064292 66.286327 
L 172.712284 68.989049 
L 174.360277 64.934766 
L 176.008269 66.556559 
L 177.656262 76.286917 
L 179.304255 84.935946 
L 180.952247 95.206768 
L 182.60024 95.747233 
L 184.248233 106.829151 
L 185.896225 123.316513 
L 187.544218 126.019235 
L 189.19221 127.91126 
L 190.840203 135.47936 
L 192.488196 142.236364 
L 194.136188 157.642398 
L 197.432174 173.589295 
L 199.080166 183.319653 
L 200.728159 187.103703 
L 202.376151 196.834061 
L 204.024144 204.13153 
L 205.672137 213.051191 
L 207.320129 218.186402 
L 208.968122 227.646527 
L 210.616114 230.079017 
L 213.9121 228.457224 
L 215.560092 230.349249 
L 217.208085 230.079017 
L 218.856078 224.943406 
L 222.152063 240.349839 
L 223.800055 244.674354 
L 225.448048 247.106843 
L 227.096041 258.729226 
L 228.744033 266.567479 
L 230.392026 268.729776 
L 232.040018 270.081217 
L 233.688011 269.000048 
L 235.336004 271.162345 
L 236.983996 270.892073 
L 238.631989 272.784058 
L 240.279982 277.378885 
L 243.575967 284.946866 
L 245.223959 287.649747 
L 246.871952 290.893173 
L 248.519945 291.974302 
L 250.167937 291.163445 
L 251.81593 289.812005 
L 253.463922 291.974302 
L 255.111915 292.244574 
L 256.759908 289.001148 
L 258.4079 286.028034 
L 260.055893 283.325153 
L 261.703886 278.189742 
L 263.351878 270.892073 
L 264.999871 260.350939 
L 266.647863 253.864247 
L 268.295856 238.728046 
L 269.943849 227.646527 
L 271.591841 219.537963 
L 273.239834 208.996908 
L 274.887826 197.644758 
L 276.535819 188.455264 
L 278.183812 187.103703 
L 279.831804 174.130159 
L 281.479797 163.318473 
L 283.12779 160.885984 
L 284.775782 154.939676 
L 286.423775 146.560879 
L 288.071767 128.181492 
L 289.71976 136.290057 
L 291.367753 138.722546 
L 293.015745 133.316703 
L 294.663738 126.019235 
L 296.311731 133.857567 
L 297.959723 154.939676 
L 299.607716 138.452314 
L 301.255708 130.884214 
L 302.903701 137.100754 
L 304.551694 150.885394 
L 306.199686 138.452314 
L 307.847679 129.803285 
L 309.495671 148.723136 
L 311.143664 163.588705 
L 312.791657 162.778009 
L 314.439649 160.075287 
L 316.087642 159.264191 
L 317.735635 167.372756 
L 319.383627 163.048241 
L 321.03162 156.021005 
L 322.679612 162.778009 
L 324.327605 174.130159 
L 325.975598 189.536193 
L 327.62359 182.508956 
L 329.271583 189.536193 
L 330.919575 203.861297 
L 335.863553 224.673174 
L 337.511546 243.863657 
L 339.159539 257.107433 
L 340.807531 261.70234 
L 342.455524 264.945766 
L 344.103516 269.27036 
L 345.751509 279.27091 
L 347.399502 283.865737 
L 349.047494 285.757722 
L 350.695487 288.730876 
L 352.343479 291.163445 
L 353.991472 291.433718 
L 355.639465 290.352589 
L 357.287457 290.352589 
L 358.93545 289.001148 
L 360.583443 290.082317 
L 362.231435 291.974302 
L 363.879428 292.785158 
L 365.52742 294.677144 
L 367.175413 295.488 
L 368.823406 295.488 
L 370.471398 293.055431 
L 372.119391 289.001148 
L 373.767383 286.028034 
L 375.415376 281.973752 
L 377.063369 275.757172 
L 378.711361 264.675494 
L 382.007347 233.863067 
L 383.655339 205.48309 
L 385.303332 185.211678 
L 386.951324 172.778599 
L 388.599317 164.940266 
L 390.24731 153.858747 
L 391.895302 141.155036 
L 393.543295 149.263601 
L 395.191287 154.399212 
L 396.83928 147.371576 
L 398.487273 136.830521 
L 398.487273 136.830521 
" style="fill:none;stroke:#1f77b4;stroke-linecap:square;stroke-width:1.5;"/>
   </g>
   <g id="line2d_15">
    <path clip-path="url(#p470fe6370f)" d="M 73.832727 100.834097 
L 75.48072 96.012084 
L 77.128713 106.430637 
L 78.776705 106.035364 
L 80.424698 120.749086 
L 82.07269 140.464077 
L 83.720683 151.558515 
L 85.368676 157.34942 
L 87.016668 143.047795 
L 88.664661 147.180028 
L 90.312653 154.345074 
L 91.960646 162.065798 
L 93.608639 173.451008 
L 95.256631 178.588167 
L 96.904624 202.294801 
L 98.552617 215.606213 
L 100.200609 226.840891 
L 101.848602 234.795325 
L 103.496594 244.50898 
L 105.144587 259.801453 
L 106.79258 263.152143 
L 108.440572 263.853371 
L 110.088565 265.166327 
L 111.736557 262.46193 
L 113.38455 262.95672 
L 115.032543 263.940844 
L 118.328528 273.111068 
L 119.976521 273.207597 
L 121.624513 275.201334 
L 123.272506 276.539855 
L 124.920498 276.620265 
L 126.568491 276.880027 
L 128.216484 274.104192 
L 129.864476 274.570084 
L 131.512469 275.562075 
L 133.160461 275.946457 
L 134.808454 276.530421 
L 136.456447 276.817699 
L 138.104439 277.551689 
L 139.752432 275.193858 
L 141.400425 273.610497 
L 143.048417 269.571196 
L 144.69641 263.028409 
L 146.344402 243.764625 
L 151.28838 191.89316 
L 152.936373 165.800985 
L 154.584365 146.480571 
L 156.232358 136.221551 
L 157.880351 117.760273 
L 159.528343 112.370849 
L 161.176336 97.878323 
L 162.824329 99.289278 
L 164.472321 92.435263 
L 166.120314 87.667661 
L 167.768306 76.536129 
L 169.416299 72.478366 
L 171.064292 67.31512 
L 172.712284 66.129176 
L 174.360277 68.507895 
L 176.008269 60.304139 
L 177.656262 79.142189 
L 179.304255 83.339886 
L 180.952247 96.526145 
L 182.60024 100.139198 
L 184.248233 103.188615 
L 185.896225 123.585776 
L 187.544218 129.348237 
L 189.19221 129.981213 
L 190.840203 132.578049 
L 192.488196 140.429759 
L 194.136188 154.114623 
L 195.784181 163.531823 
L 197.432174 171.306739 
L 199.080166 180.546863 
L 200.728159 186.058321 
L 202.376151 192.755952 
L 204.024144 200.078856 
L 205.672137 210.956889 
L 207.320129 216.190607 
L 210.616114 231.294272 
L 212.264107 229.06216 
L 213.9121 230.251731 
L 215.560092 229.182567 
L 217.208085 231.319184 
L 218.856078 225.384207 
L 220.50407 227.359921 
L 222.152063 239.139691 
L 223.800055 243.769179 
L 225.448048 245.447404 
L 227.096041 252.653157 
L 228.744033 262.805018 
L 230.392026 266.189602 
L 232.040018 266.792039 
L 233.688011 266.752503 
L 235.336004 267.316795 
L 236.983996 268.114215 
L 238.631989 268.154464 
L 240.279982 270.543094 
L 241.927974 273.461576 
L 243.575967 276.026417 
L 245.223959 277.784063 
L 246.871952 279.003153 
L 248.519945 280.483833 
L 250.167937 280.327561 
L 251.81593 279.826759 
L 253.463922 279.649159 
L 255.111915 280.647161 
L 256.759908 280.209765 
L 258.4079 277.988822 
L 260.055893 277.040815 
L 261.703886 274.952956 
L 263.351878 270.21876 
L 264.999871 264.372714 
L 268.295856 247.728509 
L 269.943849 229.133718 
L 271.591841 222.128088 
L 273.239834 212.48662 
L 276.535819 187.785662 
L 278.183812 183.832228 
L 279.831804 181.402881 
L 281.479797 158.840154 
L 283.12779 159.503737 
L 284.775782 155.682979 
L 286.423775 149.844754 
L 288.071767 131.226057 
L 289.71976 125.699882 
L 291.367753 145.056017 
L 294.663738 126.098676 
L 296.311731 126.669856 
L 297.959723 154.071508 
L 299.607716 153.675479 
L 301.255708 123.981961 
L 302.903701 132.423979 
L 304.551694 149.572848 
L 306.199686 148.995261 
L 307.847679 125.762897 
L 309.495671 136.553224 
L 311.143664 166.685626 
L 312.791657 165.448554 
L 314.439649 162.097665 
L 316.087642 153.48802 
L 317.735635 164.947689 
L 319.383627 166.821454 
L 321.03162 154.366026 
L 322.679612 157.890418 
L 324.327605 167.237863 
L 325.975598 189.725196 
L 327.62359 186.611811 
L 329.271583 181.76348 
L 330.919575 196.976162 
L 332.567568 210.009063 
L 334.215561 215.004081 
L 335.863553 221.741669 
L 337.511546 233.324837 
L 339.159539 253.118209 
L 340.807531 260.993564 
L 342.455524 261.56546 
L 344.103516 264.962302 
L 345.751509 268.908795 
L 347.399502 275.993681 
L 349.047494 276.83358 
L 350.695487 277.968865 
L 352.343479 279.740469 
L 353.991472 280.113019 
L 355.639465 280.103658 
L 357.287457 279.629419 
L 360.583443 279.037637 
L 363.879428 280.731721 
L 365.52742 281.147705 
L 367.175413 281.843724 
L 368.823406 282.054969 
L 370.471398 281.934361 
L 373.767383 278.025639 
L 375.415376 276.351435 
L 377.063369 273.750901 
L 378.711361 268.393047 
L 382.007347 242.436175 
L 383.655339 217.337537 
L 385.303332 185.441636 
L 386.951324 169.663989 
L 388.599317 164.354503 
L 390.24731 156.732872 
L 391.895302 140.795553 
L 393.543295 141.180543 
L 395.191287 156.152168 
L 396.83928 152.105091 
L 398.487273 138.894149 
L 398.487273 138.894149 
" style="fill:none;stroke:#ff7f0e;stroke-linecap:square;stroke-width:1.5;"/>
   </g>
   <g id="line2d_16">
    <path clip-path="url(#p470fe6370f)" d="M 73.832727 107.438278 
L 75.48072 97.962363 
L 77.128713 109.818879 
L 78.776705 108.955787 
L 80.424698 124.530878 
L 82.07269 143.669585 
L 83.720683 154.140229 
L 85.368676 159.722052 
L 87.016668 149.775002 
L 88.664661 148.905066 
L 91.960646 164.104201 
L 93.608639 176.05381 
L 95.256631 182.01925 
L 96.904624 206.297083 
L 98.552617 219.317643 
L 100.200609 231.075447 
L 101.848602 238.502395 
L 103.496594 249.229352 
L 105.144587 265.073044 
L 106.79258 267.118907 
L 108.440572 267.457746 
L 110.088565 268.789057 
L 111.736557 265.971921 
L 113.38455 266.460593 
L 115.032543 267.547054 
L 118.328528 277.270824 
L 119.976521 277.138267 
L 121.624513 279.319218 
L 123.272506 280.639119 
L 124.920498 280.735913 
L 126.568491 280.990547 
L 128.216484 278.265628 
L 129.864476 278.608119 
L 131.512469 279.627409 
L 133.160461 280.040472 
L 134.808454 280.632843 
L 136.456447 280.946208 
L 138.104439 281.72216 
L 139.752432 279.362328 
L 141.400425 277.696179 
L 143.048417 273.719642 
L 144.69641 267.150309 
L 146.344402 250.075328 
L 151.28838 207.575456 
L 154.584365 161.147494 
L 157.880351 127.185089 
L 159.528343 114.213685 
L 161.176336 99.743382 
L 162.824329 101.054007 
L 164.472321 93.745732 
L 166.120314 89.091488 
L 167.768306 77.666076 
L 169.416299 74.564994 
L 171.064292 69.055071 
L 172.712284 68.665662 
L 174.360277 70.221878 
L 176.008269 61.814147 
L 177.656262 83.555814 
L 179.304255 85.980084 
L 180.952247 99.484311 
L 182.60024 102.919644 
L 184.248233 105.677801 
L 185.896225 127.023204 
L 187.544218 132.709051 
L 189.19221 131.627267 
L 190.840203 134.14756 
L 192.488196 142.436555 
L 194.136188 156.599531 
L 195.784181 165.992004 
L 197.432174 173.885118 
L 199.080166 183.462141 
L 200.728159 191.734557 
L 202.376151 197.486068 
L 205.672137 214.640279 
L 207.320129 221.360884 
L 208.968122 227.142532 
L 210.616114 234.71147 
L 212.264107 233.920902 
L 213.9121 233.940652 
L 215.560092 233.753055 
L 217.208085 234.844017 
L 218.856078 232.482445 
L 220.50407 231.204658 
L 222.152063 243.385064 
L 223.800055 247.308423 
L 225.448048 248.45353 
L 227.096041 257.063699 
L 228.744033 267.540434 
L 230.392026 270.112174 
L 232.040018 270.476534 
L 233.688011 270.405522 
L 235.336004 271.04873 
L 236.983996 271.827094 
L 238.631989 271.885894 
L 240.279982 274.462956 
L 241.927974 277.505905 
L 243.575967 280.184114 
L 245.223959 281.98262 
L 246.871952 283.22356 
L 248.519945 284.762841 
L 250.167937 284.575787 
L 251.81593 284.088698 
L 253.463922 283.887439 
L 255.111915 284.905206 
L 256.759908 284.484887 
L 258.4079 282.263811 
L 260.055893 281.247632 
L 261.703886 279.107686 
L 263.351878 274.490711 
L 264.999871 268.452648 
L 266.647863 259.577865 
L 268.295856 251.466218 
L 269.943849 238.123239 
L 271.591841 230.280816 
L 273.239834 223.250015 
L 274.887826 212.988732 
L 276.535819 201.360071 
L 278.183812 194.038407 
L 279.831804 191.720843 
L 281.479797 173.966645 
L 283.12779 165.620702 
L 284.775782 162.538856 
L 286.423775 155.605029 
L 289.71976 128.281119 
L 291.367753 147.508593 
L 293.015745 139.395469 
L 294.663738 129.87441 
L 296.311731 128.265198 
L 297.959723 158.192749 
L 299.607716 158.821991 
L 301.255708 134.941224 
L 302.903701 134.397716 
L 304.551694 152.152125 
L 306.199686 153.204468 
L 307.847679 134.748578 
L 309.495671 139.289965 
L 311.143664 170.409189 
L 312.791657 170.192489 
L 314.439649 167.07295 
L 316.087642 161.163048 
L 317.735635 167.250436 
L 319.383627 172.296349 
L 321.03162 163.514346 
L 322.679612 160.269461 
L 324.327605 169.877032 
L 325.975598 193.613098 
L 327.62359 196.135449 
L 329.271583 189.695856 
L 330.919575 200.343421 
L 332.567568 213.571624 
L 335.863553 225.673555 
L 337.511546 237.852798 
L 339.159539 258.939459 
L 340.807531 265.582786 
L 342.455524 265.088849 
L 344.103516 268.846096 
L 345.751509 272.958662 
L 347.399502 280.497096 
L 349.047494 280.924655 
L 350.695487 282.162241 
L 352.343479 283.998791 
L 353.991472 284.363538 
L 355.639465 284.366882 
L 357.287457 283.875418 
L 360.583443 283.271423 
L 363.879428 284.991215 
L 365.52742 285.432795 
L 367.175413 286.144217 
L 368.823406 286.376109 
L 370.471398 286.235237 
L 375.415376 280.561588 
L 377.063369 277.939532 
L 378.711361 272.645594 
L 380.359354 260.507492 
L 382.007347 247.303235 
L 383.655339 231.798432 
L 385.303332 205.63622 
L 386.951324 185.768889 
L 388.599317 174.715233 
L 390.24731 166.008876 
L 391.895302 151.126181 
L 393.543295 143.171575 
L 395.191287 158.227957 
L 396.83928 156.557502 
L 398.487273 145.62031 
L 398.487273 145.62031 
" style="fill:none;stroke:#2ca02c;stroke-linecap:square;stroke-width:1.5;"/>
   </g>
   <g id="line2d_17">
    <path clip-path="url(#p470fe6370f)" d="M 73.832727 98.255165 
L 75.48072 91.105612 
L 78.776705 100.555221 
L 80.424698 107.872148 
L 82.07269 128.797156 
L 83.720683 145.513436 
L 85.368676 155.584031 
L 87.016668 140.045333 
L 88.664661 145.124664 
L 91.960646 160.792107 
L 93.608639 172.225717 
L 95.256631 177.084956 
L 96.904624 198.523221 
L 98.552617 212.595372 
L 100.200609 223.516867 
L 105.144587 250.458908 
L 106.79258 254.634353 
L 108.440572 255.829104 
L 110.088565 256.677429 
L 111.736557 255.954676 
L 113.38455 255.606408 
L 115.032543 255.97646 
L 116.680535 257.918973 
L 118.328528 260.86799 
L 121.624513 262.710792 
L 123.272506 263.855226 
L 126.568491 264.332584 
L 128.216484 263.177425 
L 129.864476 262.664887 
L 131.512469 263.339926 
L 133.160461 263.598704 
L 134.808454 264.016483 
L 136.456447 264.217748 
L 138.104439 264.637177 
L 139.752432 263.862805 
L 141.400425 262.537237 
L 143.048417 260.699323 
L 144.69641 257.538785 
L 147.992395 224.101645 
L 149.640388 205.128358 
L 151.28838 188.064182 
L 152.936373 160.855891 
L 154.584365 142.542265 
L 156.232358 133.882079 
L 157.880351 114.885161 
L 159.528343 109.975998 
L 161.176336 95.176426 
L 162.824329 93.551281 
L 166.120314 81.814743 
L 167.768306 71.813224 
L 169.416299 65.298114 
L 171.064292 60.279273 
L 172.712284 56.991694 
L 174.360277 59.39387 
L 176.008269 53.568 
L 179.304255 70.974015 
L 180.952247 81.388259 
L 182.60024 90.061315 
L 184.248233 92.707306 
L 185.896225 108.66688 
L 187.544218 122.869251 
L 190.840203 129.001981 
L 192.488196 137.095871 
L 194.136188 148.585661 
L 195.784181 161.900456 
L 197.432174 170.059417 
L 199.080166 179.088175 
L 202.376151 190.612419 
L 204.024144 198.372722 
L 205.672137 208.002116 
L 208.968122 221.073782 
L 210.616114 229.149648 
L 212.264107 228.255129 
L 213.9121 229.053814 
L 215.560092 228.274086 
L 217.208085 230.22321 
L 218.856078 224.282309 
L 220.50407 225.714211 
L 222.152063 236.365622 
L 223.800055 241.898199 
L 225.448048 243.9911 
L 227.096041 247.53424 
L 228.744033 253.350645 
L 230.392026 256.679418 
L 232.040018 257.632563 
L 233.688011 257.939118 
L 235.336004 258.021024 
L 236.983996 258.573176 
L 238.631989 258.654655 
L 240.279982 259.648836 
L 241.927974 261.493275 
L 243.575967 263.121905 
L 245.223959 264.512701 
L 248.519945 266.489743 
L 250.167937 266.813457 
L 251.81593 266.495157 
L 253.463922 266.295925 
L 255.111915 266.802318 
L 256.759908 266.795845 
L 260.055893 264.726707 
L 261.703886 263.678825 
L 263.351878 261.286208 
L 264.999871 258.078528 
L 266.647863 253.538946 
L 268.295856 247.079803 
L 269.943849 226.605942 
L 271.591841 220.811192 
L 273.239834 210.501565 
L 276.535819 184.758235 
L 278.183812 181.790775 
L 279.831804 179.192459 
L 281.479797 154.370163 
L 283.12779 157.371426 
L 284.775782 153.155669 
L 286.423775 147.736702 
L 288.071767 127.249028 
L 289.71976 122.31109 
L 291.367753 139.249663 
L 293.015745 133.31155 
L 294.663738 123.965714 
L 296.311731 123.538954 
L 297.959723 142.10909 
L 299.607716 149.455992 
L 301.255708 120.685504 
L 302.903701 128.769551 
L 304.551694 142.945601 
L 306.199686 145.536134 
L 307.847679 122.82645 
L 309.495671 131.3606 
L 311.143664 156.836689 
L 312.791657 162.933132 
L 314.439649 160.430659 
L 316.087642 150.571566 
L 317.735635 162.760999 
L 319.383627 164.625403 
L 321.03162 151.19288 
L 322.679612 155.916565 
L 324.327605 166.055573 
L 325.975598 186.012508 
L 327.62359 183.876464 
L 329.271583 179.741758 
L 330.919575 194.315382 
L 332.567568 207.397761 
L 334.215561 212.895319 
L 335.863553 219.638409 
L 337.511546 230.008272 
L 339.159539 245.024418 
L 340.807531 252.349185 
L 342.455524 254.501483 
L 344.103516 255.952318 
L 345.751509 258.264858 
L 347.399502 262.184168 
L 349.047494 264.063264 
L 350.695487 264.744123 
L 352.343479 265.910564 
L 353.991472 266.568765 
L 355.639465 266.570298 
L 360.583443 265.870751 
L 362.231435 266.240922 
L 363.879428 266.85632 
L 365.52742 267.213376 
L 367.175413 267.70799 
L 368.823406 267.963873 
L 370.471398 267.96041 
L 372.119391 267.037869 
L 373.767383 265.665823 
L 375.415376 264.53447 
L 377.063369 262.896702 
L 378.711361 260.315756 
L 380.359354 254.147473 
L 382.007347 241.186796 
L 383.655339 212.713589 
L 385.303332 179.878649 
L 386.951324 165.650701 
L 388.599317 161.767829 
L 390.24731 153.997385 
L 391.895302 137.412909 
L 393.543295 138.82132 
L 395.191287 153.784887 
L 396.83928 149.597565 
L 398.487273 136.246715 
L 398.487273 136.246715 
" style="fill:none;stroke:#d62728;stroke-linecap:square;stroke-width:1.5;"/>
   </g>
   <g id="patch_3">
    <path d="M 57.6 307.584 
L 57.6 41.472 
" style="fill:none;stroke:#000000;stroke-linecap:square;stroke-linejoin:miter;stroke-width:0.8;"/>
   </g>
   <g id="patch_4">
    <path d="M 414.72 307.584 
L 414.72 41.472 
" style="fill:none;stroke:#000000;stroke-linecap:square;stroke-linejoin:miter;stroke-width:0.8;"/>
   </g>
   <g id="patch_5">
    <path d="M 57.6 307.584 
L 414.72 307.584 
" style="fill:none;stroke:#000000;stroke-linecap:square;stroke-linejoin:miter;stroke-width:0.8;"/>
   </g>
   <g id="patch_6">
    <path d="M 57.6 41.472 
L 414.72 41.472 
" style="fill:none;stroke:#000000;stroke-linecap:square;stroke-linejoin:miter;stroke-width:0.8;"/>
   </g>
   <g id="text_14">
    <!-- Plot of Test Data vs MCMC Uncertainty  -->
    <defs>
     <path d="M 19.671875 64.796875 
L 19.671875 37.40625 
L 32.078125 37.40625 
Q 38.96875 37.40625 42.71875 40.96875 
Q 46.484375 44.53125 46.484375 51.125 
Q 46.484375 57.671875 42.71875 61.234375 
Q 38.96875 64.796875 32.078125 64.796875 
z
M 9.8125 72.90625 
L 32.078125 72.90625 
Q 44.34375 72.90625 50.609375 67.359375 
Q 56.890625 61.8125 56.890625 51.125 
Q 56.890625 40.328125 50.609375 34.8125 
Q 44.34375 29.296875 32.078125 29.296875 
L 19.671875 29.296875 
L 19.671875 0 
L 9.8125 0 
z
" id="DejaVuSans-80"/>
     <path d="M 9.421875 75.984375 
L 18.40625 75.984375 
L 18.40625 0 
L 9.421875 0 
z
" id="DejaVuSans-108"/>
     <path d="M 30.609375 48.390625 
Q 23.390625 48.390625 19.1875 42.75 
Q 14.984375 37.109375 14.984375 27.296875 
Q 14.984375 17.484375 19.15625 11.84375 
Q 23.34375 6.203125 30.609375 6.203125 
Q 37.796875 6.203125 41.984375 11.859375 
Q 46.1875 17.53125 46.1875 27.296875 
Q 46.1875 37.015625 41.984375 42.703125 
Q 37.796875 48.390625 30.609375 48.390625 
z
M 30.609375 56 
Q 42.328125 56 49.015625 48.375 
Q 55.71875 40.765625 55.71875 27.296875 
Q 55.71875 13.875 49.015625 6.21875 
Q 42.328125 -1.421875 30.609375 -1.421875 
Q 18.84375 -1.421875 12.171875 6.21875 
Q 5.515625 13.875 5.515625 27.296875 
Q 5.515625 40.765625 12.171875 48.375 
Q 18.84375 56 30.609375 56 
z
" id="DejaVuSans-111"/>
     <path d="M 18.3125 70.21875 
L 18.3125 54.6875 
L 36.8125 54.6875 
L 36.8125 47.703125 
L 18.3125 47.703125 
L 18.3125 18.015625 
Q 18.3125 11.328125 20.140625 9.421875 
Q 21.96875 7.515625 27.59375 7.515625 
L 36.8125 7.515625 
L 36.8125 0 
L 27.59375 0 
Q 17.1875 0 13.234375 3.875 
Q 9.28125 7.765625 9.28125 18.015625 
L 9.28125 47.703125 
L 2.6875 47.703125 
L 2.6875 54.6875 
L 9.28125 54.6875 
L 9.28125 70.21875 
z
" id="DejaVuSans-116"/>
     <path id="DejaVuSans-32"/>
     <path d="M 37.109375 75.984375 
L 37.109375 68.5 
L 28.515625 68.5 
Q 23.6875 68.5 21.796875 66.546875 
Q 19.921875 64.59375 19.921875 59.515625 
L 19.921875 54.6875 
L 34.71875 54.6875 
L 34.71875 47.703125 
L 19.921875 47.703125 
L 19.921875 0 
L 10.890625 0 
L 10.890625 47.703125 
L 2.296875 47.703125 
L 2.296875 54.6875 
L 10.890625 54.6875 
L 10.890625 58.5 
Q 10.890625 67.625 15.140625 71.796875 
Q 19.390625 75.984375 28.609375 75.984375 
z
" id="DejaVuSans-102"/>
     <path d="M -0.296875 72.90625 
L 61.375 72.90625 
L 61.375 64.59375 
L 35.5 64.59375 
L 35.5 0 
L 25.59375 0 
L 25.59375 64.59375 
L -0.296875 64.59375 
z
" id="DejaVuSans-84"/>
     <path d="M 56.203125 29.59375 
L 56.203125 25.203125 
L 14.890625 25.203125 
Q 15.484375 15.921875 20.484375 11.0625 
Q 25.484375 6.203125 34.421875 6.203125 
Q 39.59375 6.203125 44.453125 7.46875 
Q 49.3125 8.734375 54.109375 11.28125 
L 54.109375 2.78125 
Q 49.265625 0.734375 44.1875 -0.34375 
Q 39.109375 -1.421875 33.890625 -1.421875 
Q 20.796875 -1.421875 13.15625 6.1875 
Q 5.515625 13.8125 5.515625 26.8125 
Q 5.515625 40.234375 12.765625 48.109375 
Q 20.015625 56 32.328125 56 
Q 43.359375 56 49.78125 48.890625 
Q 56.203125 41.796875 56.203125 29.59375 
z
M 47.21875 32.234375 
Q 47.125 39.59375 43.09375 43.984375 
Q 39.0625 48.390625 32.421875 48.390625 
Q 24.90625 48.390625 20.390625 44.140625 
Q 15.875 39.890625 15.1875 32.171875 
z
" id="DejaVuSans-101"/>
     <path d="M 44.28125 53.078125 
L 44.28125 44.578125 
Q 40.484375 46.53125 36.375 47.5 
Q 32.28125 48.484375 27.875 48.484375 
Q 21.1875 48.484375 17.84375 46.4375 
Q 14.5 44.390625 14.5 40.28125 
Q 14.5 37.15625 16.890625 35.375 
Q 19.28125 33.59375 26.515625 31.984375 
L 29.59375 31.296875 
Q 39.15625 29.25 43.1875 25.515625 
Q 47.21875 21.78125 47.21875 15.09375 
Q 47.21875 7.46875 41.1875 3.015625 
Q 35.15625 -1.421875 24.609375 -1.421875 
Q 20.21875 -1.421875 15.453125 -0.5625 
Q 10.6875 0.296875 5.421875 2 
L 5.421875 11.28125 
Q 10.40625 8.6875 15.234375 7.390625 
Q 20.0625 6.109375 24.8125 6.109375 
Q 31.15625 6.109375 34.5625 8.28125 
Q 37.984375 10.453125 37.984375 14.40625 
Q 37.984375 18.0625 35.515625 20.015625 
Q 33.0625 21.96875 24.703125 23.78125 
L 21.578125 24.515625 
Q 13.234375 26.265625 9.515625 29.90625 
Q 5.8125 33.546875 5.8125 39.890625 
Q 5.8125 47.609375 11.28125 51.796875 
Q 16.75 56 26.8125 56 
Q 31.78125 56 36.171875 55.265625 
Q 40.578125 54.546875 44.28125 53.078125 
z
" id="DejaVuSans-115"/>
     <path d="M 19.671875 64.796875 
L 19.671875 8.109375 
L 31.59375 8.109375 
Q 46.6875 8.109375 53.6875 14.9375 
Q 60.6875 21.78125 60.6875 36.53125 
Q 60.6875 51.171875 53.6875 57.984375 
Q 46.6875 64.796875 31.59375 64.796875 
z
M 9.8125 72.90625 
L 30.078125 72.90625 
Q 51.265625 72.90625 61.171875 64.09375 
Q 71.09375 55.28125 71.09375 36.53125 
Q 71.09375 17.671875 61.125 8.828125 
Q 51.171875 0 30.078125 0 
L 9.8125 0 
z
" id="DejaVuSans-68"/>
     <path d="M 34.28125 27.484375 
Q 23.390625 27.484375 19.1875 25 
Q 14.984375 22.515625 14.984375 16.5 
Q 14.984375 11.71875 18.140625 8.90625 
Q 21.296875 6.109375 26.703125 6.109375 
Q 34.1875 6.109375 38.703125 11.40625 
Q 43.21875 16.703125 43.21875 25.484375 
L 43.21875 27.484375 
z
M 52.203125 31.203125 
L 52.203125 0 
L 43.21875 0 
L 43.21875 8.296875 
Q 40.140625 3.328125 35.546875 0.953125 
Q 30.953125 -1.421875 24.3125 -1.421875 
Q 15.921875 -1.421875 10.953125 3.296875 
Q 6 8.015625 6 15.921875 
Q 6 25.140625 12.171875 29.828125 
Q 18.359375 34.515625 30.609375 34.515625 
L 43.21875 34.515625 
L 43.21875 35.40625 
Q 43.21875 41.609375 39.140625 45 
Q 35.0625 48.390625 27.6875 48.390625 
Q 23 48.390625 18.546875 47.265625 
Q 14.109375 46.140625 10.015625 43.890625 
L 10.015625 52.203125 
Q 14.9375 54.109375 19.578125 55.046875 
Q 24.21875 56 28.609375 56 
Q 40.484375 56 46.34375 49.84375 
Q 52.203125 43.703125 52.203125 31.203125 
z
" id="DejaVuSans-97"/>
     <path d="M 2.984375 54.6875 
L 12.5 54.6875 
L 29.59375 8.796875 
L 46.6875 54.6875 
L 56.203125 54.6875 
L 35.6875 0 
L 23.484375 0 
z
" id="DejaVuSans-118"/>
     <path d="M 9.8125 72.90625 
L 24.515625 72.90625 
L 43.109375 23.296875 
L 61.8125 72.90625 
L 76.515625 72.90625 
L 76.515625 0 
L 66.890625 0 
L 66.890625 64.015625 
L 48.09375 14.015625 
L 38.1875 14.015625 
L 19.390625 64.015625 
L 19.390625 0 
L 9.8125 0 
z
" id="DejaVuSans-77"/>
     <path d="M 64.40625 67.28125 
L 64.40625 56.890625 
Q 59.421875 61.53125 53.78125 63.8125 
Q 48.140625 66.109375 41.796875 66.109375 
Q 29.296875 66.109375 22.65625 58.46875 
Q 16.015625 50.828125 16.015625 36.375 
Q 16.015625 21.96875 22.65625 14.328125 
Q 29.296875 6.6875 41.796875 6.6875 
Q 48.140625 6.6875 53.78125 8.984375 
Q 59.421875 11.28125 64.40625 15.921875 
L 64.40625 5.609375 
Q 59.234375 2.09375 53.4375 0.328125 
Q 47.65625 -1.421875 41.21875 -1.421875 
Q 24.65625 -1.421875 15.125 8.703125 
Q 5.609375 18.84375 5.609375 36.375 
Q 5.609375 53.953125 15.125 64.078125 
Q 24.65625 74.21875 41.21875 74.21875 
Q 47.75 74.21875 53.53125 72.484375 
Q 59.328125 70.75 64.40625 67.28125 
z
" id="DejaVuSans-67"/>
     <path d="M 8.6875 72.90625 
L 18.609375 72.90625 
L 18.609375 28.609375 
Q 18.609375 16.890625 22.84375 11.734375 
Q 27.09375 6.59375 36.625 6.59375 
Q 46.09375 6.59375 50.34375 11.734375 
Q 54.59375 16.890625 54.59375 28.609375 
L 54.59375 72.90625 
L 64.5 72.90625 
L 64.5 27.390625 
Q 64.5 13.140625 57.4375 5.859375 
Q 50.390625 -1.421875 36.625 -1.421875 
Q 22.796875 -1.421875 15.734375 5.859375 
Q 8.6875 13.140625 8.6875 27.390625 
z
" id="DejaVuSans-85"/>
     <path d="M 54.890625 33.015625 
L 54.890625 0 
L 45.90625 0 
L 45.90625 32.71875 
Q 45.90625 40.484375 42.875 44.328125 
Q 39.84375 48.1875 33.796875 48.1875 
Q 26.515625 48.1875 22.3125 43.546875 
Q 18.109375 38.921875 18.109375 30.90625 
L 18.109375 0 
L 9.078125 0 
L 9.078125 54.6875 
L 18.109375 54.6875 
L 18.109375 46.1875 
Q 21.34375 51.125 25.703125 53.5625 
Q 30.078125 56 35.796875 56 
Q 45.21875 56 50.046875 50.171875 
Q 54.890625 44.34375 54.890625 33.015625 
z
" id="DejaVuSans-110"/>
     <path d="M 48.78125 52.59375 
L 48.78125 44.1875 
Q 44.96875 46.296875 41.140625 47.34375 
Q 37.3125 48.390625 33.40625 48.390625 
Q 24.65625 48.390625 19.8125 42.84375 
Q 14.984375 37.3125 14.984375 27.296875 
Q 14.984375 17.28125 19.8125 11.734375 
Q 24.65625 6.203125 33.40625 6.203125 
Q 37.3125 6.203125 41.140625 7.25 
Q 44.96875 8.296875 48.78125 10.40625 
L 48.78125 2.09375 
Q 45.015625 0.34375 40.984375 -0.53125 
Q 36.96875 -1.421875 32.421875 -1.421875 
Q 20.0625 -1.421875 12.78125 6.34375 
Q 5.515625 14.109375 5.515625 27.296875 
Q 5.515625 40.671875 12.859375 48.328125 
Q 20.21875 56 33.015625 56 
Q 37.15625 56 41.109375 55.140625 
Q 45.0625 54.296875 48.78125 52.59375 
z
" id="DejaVuSans-99"/>
     <path d="M 41.109375 46.296875 
Q 39.59375 47.171875 37.8125 47.578125 
Q 36.03125 48 33.890625 48 
Q 26.265625 48 22.1875 43.046875 
Q 18.109375 38.09375 18.109375 28.8125 
L 18.109375 0 
L 9.078125 0 
L 9.078125 54.6875 
L 18.109375 54.6875 
L 18.109375 46.1875 
Q 20.953125 51.171875 25.484375 53.578125 
Q 30.03125 56 36.53125 56 
Q 37.453125 56 38.578125 55.875 
Q 39.703125 55.765625 41.0625 55.515625 
z
" id="DejaVuSans-114"/>
     <path d="M 9.421875 54.6875 
L 18.40625 54.6875 
L 18.40625 0 
L 9.421875 0 
z
M 9.421875 75.984375 
L 18.40625 75.984375 
L 18.40625 64.59375 
L 9.421875 64.59375 
z
" id="DejaVuSans-105"/>
     <path d="M 32.171875 -5.078125 
Q 28.375 -14.84375 24.75 -17.8125 
Q 21.140625 -20.796875 15.09375 -20.796875 
L 7.90625 -20.796875 
L 7.90625 -13.28125 
L 13.1875 -13.28125 
Q 16.890625 -13.28125 18.9375 -11.515625 
Q 21 -9.765625 23.484375 -3.21875 
L 25.09375 0.875 
L 2.984375 54.6875 
L 12.5 54.6875 
L 29.59375 11.921875 
L 46.6875 54.6875 
L 56.203125 54.6875 
z
" id="DejaVuSans-121"/>
    </defs>
    <g transform="translate(118.112813 35.472)scale(0.12 -0.12)">
     <use xlink:href="#DejaVuSans-80"/>
     <use x="60.302734" xlink:href="#DejaVuSans-108"/>
     <use x="88.085938" xlink:href="#DejaVuSans-111"/>
     <use x="149.267578" xlink:href="#DejaVuSans-116"/>
     <use x="188.476562" xlink:href="#DejaVuSans-32"/>
     <use x="220.263672" xlink:href="#DejaVuSans-111"/>
     <use x="281.445312" xlink:href="#DejaVuSans-102"/>
     <use x="316.650391" xlink:href="#DejaVuSans-32"/>
     <use x="348.4375" xlink:href="#DejaVuSans-84"/>
     <use x="409.255859" xlink:href="#DejaVuSans-101"/>
     <use x="470.779297" xlink:href="#DejaVuSans-115"/>
     <use x="522.878906" xlink:href="#DejaVuSans-116"/>
     <use x="562.087891" xlink:href="#DejaVuSans-32"/>
     <use x="593.875" xlink:href="#DejaVuSans-68"/>
     <use x="670.876953" xlink:href="#DejaVuSans-97"/>
     <use x="732.15625" xlink:href="#DejaVuSans-116"/>
     <use x="771.365234" xlink:href="#DejaVuSans-97"/>
     <use x="832.644531" xlink:href="#DejaVuSans-32"/>
     <use x="864.431641" xlink:href="#DejaVuSans-118"/>
     <use x="923.611328" xlink:href="#DejaVuSans-115"/>
     <use x="975.710938" xlink:href="#DejaVuSans-32"/>
     <use x="1007.498047" xlink:href="#DejaVuSans-77"/>
     <use x="1093.777344" xlink:href="#DejaVuSans-67"/>
     <use x="1163.601562" xlink:href="#DejaVuSans-77"/>
     <use x="1249.880859" xlink:href="#DejaVuSans-67"/>
     <use x="1319.705078" xlink:href="#DejaVuSans-32"/>
     <use x="1351.492188" xlink:href="#DejaVuSans-85"/>
     <use x="1424.685547" xlink:href="#DejaVuSans-110"/>
     <use x="1488.064453" xlink:href="#DejaVuSans-99"/>
     <use x="1543.044922" xlink:href="#DejaVuSans-101"/>
     <use x="1604.568359" xlink:href="#DejaVuSans-114"/>
     <use x="1645.681641" xlink:href="#DejaVuSans-116"/>
     <use x="1684.890625" xlink:href="#DejaVuSans-97"/>
     <use x="1746.169922" xlink:href="#DejaVuSans-105"/>
     <use x="1773.953125" xlink:href="#DejaVuSans-110"/>
     <use x="1837.332031" xlink:href="#DejaVuSans-116"/>
     <use x="1876.541016" xlink:href="#DejaVuSans-121"/>
     <use x="1935.720703" xlink:href="#DejaVuSans-32"/>
    </g>
   </g>
   <g id="legend_1">
    <g id="patch_7">
     <path d="M 277.843437 108.1845 
L 407.72 108.1845 
Q 409.72 108.1845 409.72 106.1845 
L 409.72 48.472 
Q 409.72 46.472 407.72 46.472 
L 277.843437 46.472 
Q 275.843437 46.472 275.843437 48.472 
L 275.843437 106.1845 
Q 275.843437 108.1845 277.843437 108.1845 
z
" style="fill:#ffffff;opacity:0.8;stroke:#cccccc;stroke-linejoin:miter;"/>
    </g>
    <g id="line2d_18">
     <path d="M 279.843437 54.570438 
L 299.843437 54.570438 
" style="fill:none;stroke:#1f77b4;stroke-linecap:square;stroke-width:1.5;"/>
    </g>
    <g id="line2d_19"/>
    <g id="text_15">
     <!-- actual -->
     <defs>
      <path d="M 8.5 21.578125 
L 8.5 54.6875 
L 17.484375 54.6875 
L 17.484375 21.921875 
Q 17.484375 14.15625 20.5 10.265625 
Q 23.53125 6.390625 29.59375 6.390625 
Q 36.859375 6.390625 41.078125 11.03125 
Q 45.3125 15.671875 45.3125 23.6875 
L 45.3125 54.6875 
L 54.296875 54.6875 
L 54.296875 0 
L 45.3125 0 
L 45.3125 8.40625 
Q 42.046875 3.421875 37.71875 1 
Q 33.40625 -1.421875 27.6875 -1.421875 
Q 18.265625 -1.421875 13.375 4.4375 
Q 8.5 10.296875 8.5 21.578125 
z
M 31.109375 56 
z
" id="DejaVuSans-117"/>
     </defs>
     <g transform="translate(307.843437 58.070438)scale(0.1 -0.1)">
      <use xlink:href="#DejaVuSans-97"/>
      <use x="61.279297" xlink:href="#DejaVuSans-99"/>
      <use x="116.259766" xlink:href="#DejaVuSans-116"/>
      <use x="155.46875" xlink:href="#DejaVuSans-117"/>
      <use x="218.847656" xlink:href="#DejaVuSans-97"/>
      <use x="280.126953" xlink:href="#DejaVuSans-108"/>
     </g>
    </g>
    <g id="line2d_20">
     <path d="M 279.843437 69.248563 
L 299.843437 69.248563 
" style="fill:none;stroke:#ff7f0e;stroke-linecap:square;stroke-width:1.5;"/>
    </g>
    <g id="line2d_21"/>
    <g id="text_16">
     <!-- pred. (mean) -->
     <defs>
      <path d="M 18.109375 8.203125 
L 18.109375 -20.796875 
L 9.078125 -20.796875 
L 9.078125 54.6875 
L 18.109375 54.6875 
L 18.109375 46.390625 
Q 20.953125 51.265625 25.265625 53.625 
Q 29.59375 56 35.59375 56 
Q 45.5625 56 51.78125 48.09375 
Q 58.015625 40.1875 58.015625 27.296875 
Q 58.015625 14.40625 51.78125 6.484375 
Q 45.5625 -1.421875 35.59375 -1.421875 
Q 29.59375 -1.421875 25.265625 0.953125 
Q 20.953125 3.328125 18.109375 8.203125 
z
M 48.6875 27.296875 
Q 48.6875 37.203125 44.609375 42.84375 
Q 40.53125 48.484375 33.40625 48.484375 
Q 26.265625 48.484375 22.1875 42.84375 
Q 18.109375 37.203125 18.109375 27.296875 
Q 18.109375 17.390625 22.1875 11.75 
Q 26.265625 6.109375 33.40625 6.109375 
Q 40.53125 6.109375 44.609375 11.75 
Q 48.6875 17.390625 48.6875 27.296875 
z
" id="DejaVuSans-112"/>
      <path d="M 45.40625 46.390625 
L 45.40625 75.984375 
L 54.390625 75.984375 
L 54.390625 0 
L 45.40625 0 
L 45.40625 8.203125 
Q 42.578125 3.328125 38.25 0.953125 
Q 33.9375 -1.421875 27.875 -1.421875 
Q 17.96875 -1.421875 11.734375 6.484375 
Q 5.515625 14.40625 5.515625 27.296875 
Q 5.515625 40.1875 11.734375 48.09375 
Q 17.96875 56 27.875 56 
Q 33.9375 56 38.25 53.625 
Q 42.578125 51.265625 45.40625 46.390625 
z
M 14.796875 27.296875 
Q 14.796875 17.390625 18.875 11.75 
Q 22.953125 6.109375 30.078125 6.109375 
Q 37.203125 6.109375 41.296875 11.75 
Q 45.40625 17.390625 45.40625 27.296875 
Q 45.40625 37.203125 41.296875 42.84375 
Q 37.203125 48.484375 30.078125 48.484375 
Q 22.953125 48.484375 18.875 42.84375 
Q 14.796875 37.203125 14.796875 27.296875 
z
" id="DejaVuSans-100"/>
      <path d="M 31 75.875 
Q 24.46875 64.65625 21.28125 53.65625 
Q 18.109375 42.671875 18.109375 31.390625 
Q 18.109375 20.125 21.3125 9.0625 
Q 24.515625 -2 31 -13.1875 
L 23.1875 -13.1875 
Q 15.875 -1.703125 12.234375 9.375 
Q 8.59375 20.453125 8.59375 31.390625 
Q 8.59375 42.28125 12.203125 53.3125 
Q 15.828125 64.359375 23.1875 75.875 
z
" id="DejaVuSans-40"/>
      <path d="M 52 44.1875 
Q 55.375 50.25 60.0625 53.125 
Q 64.75 56 71.09375 56 
Q 79.640625 56 84.28125 50.015625 
Q 88.921875 44.046875 88.921875 33.015625 
L 88.921875 0 
L 79.890625 0 
L 79.890625 32.71875 
Q 79.890625 40.578125 77.09375 44.375 
Q 74.3125 48.1875 68.609375 48.1875 
Q 61.625 48.1875 57.5625 43.546875 
Q 53.515625 38.921875 53.515625 30.90625 
L 53.515625 0 
L 44.484375 0 
L 44.484375 32.71875 
Q 44.484375 40.625 41.703125 44.40625 
Q 38.921875 48.1875 33.109375 48.1875 
Q 26.21875 48.1875 22.15625 43.53125 
Q 18.109375 38.875 18.109375 30.90625 
L 18.109375 0 
L 9.078125 0 
L 9.078125 54.6875 
L 18.109375 54.6875 
L 18.109375 46.1875 
Q 21.1875 51.21875 25.484375 53.609375 
Q 29.78125 56 35.6875 56 
Q 41.65625 56 45.828125 52.96875 
Q 50 49.953125 52 44.1875 
z
" id="DejaVuSans-109"/>
      <path d="M 8.015625 75.875 
L 15.828125 75.875 
Q 23.140625 64.359375 26.78125 53.3125 
Q 30.421875 42.28125 30.421875 31.390625 
Q 30.421875 20.453125 26.78125 9.375 
Q 23.140625 -1.703125 15.828125 -13.1875 
L 8.015625 -13.1875 
Q 14.5 -2 17.703125 9.0625 
Q 20.90625 20.125 20.90625 31.390625 
Q 20.90625 42.671875 17.703125 53.65625 
Q 14.5 64.65625 8.015625 75.875 
z
" id="DejaVuSans-41"/>
     </defs>
     <g transform="translate(307.843437 72.748563)scale(0.1 -0.1)">
      <use xlink:href="#DejaVuSans-112"/>
      <use x="63.476562" xlink:href="#DejaVuSans-114"/>
      <use x="104.558594" xlink:href="#DejaVuSans-101"/>
      <use x="166.082031" xlink:href="#DejaVuSans-100"/>
      <use x="229.558594" xlink:href="#DejaVuSans-46"/>
      <use x="261.345703" xlink:href="#DejaVuSans-32"/>
      <use x="293.132812" xlink:href="#DejaVuSans-40"/>
      <use x="332.146484" xlink:href="#DejaVuSans-109"/>
      <use x="429.558594" xlink:href="#DejaVuSans-101"/>
      <use x="491.082031" xlink:href="#DejaVuSans-97"/>
      <use x="552.361328" xlink:href="#DejaVuSans-110"/>
      <use x="615.740234" xlink:href="#DejaVuSans-41"/>
     </g>
    </g>
    <g id="line2d_22">
     <path d="M 279.843437 83.926688 
L 299.843437 83.926688 
" style="fill:none;stroke:#2ca02c;stroke-linecap:square;stroke-width:1.5;"/>
    </g>
    <g id="line2d_23"/>
    <g id="text_17">
     <!-- pred.(5th percen.) -->
     <defs>
      <path d="M 54.890625 33.015625 
L 54.890625 0 
L 45.90625 0 
L 45.90625 32.71875 
Q 45.90625 40.484375 42.875 44.328125 
Q 39.84375 48.1875 33.796875 48.1875 
Q 26.515625 48.1875 22.3125 43.546875 
Q 18.109375 38.921875 18.109375 30.90625 
L 18.109375 0 
L 9.078125 0 
L 9.078125 75.984375 
L 18.109375 75.984375 
L 18.109375 46.1875 
Q 21.34375 51.125 25.703125 53.5625 
Q 30.078125 56 35.796875 56 
Q 45.21875 56 50.046875 50.171875 
Q 54.890625 44.34375 54.890625 33.015625 
z
" id="DejaVuSans-104"/>
     </defs>
     <g transform="translate(307.843437 87.426688)scale(0.1 -0.1)">
      <use xlink:href="#DejaVuSans-112"/>
      <use x="63.476562" xlink:href="#DejaVuSans-114"/>
      <use x="104.558594" xlink:href="#DejaVuSans-101"/>
      <use x="166.082031" xlink:href="#DejaVuSans-100"/>
      <use x="229.558594" xlink:href="#DejaVuSans-46"/>
      <use x="261.345703" xlink:href="#DejaVuSans-40"/>
      <use x="300.359375" xlink:href="#DejaVuSans-53"/>
      <use x="363.982422" xlink:href="#DejaVuSans-116"/>
      <use x="403.191406" xlink:href="#DejaVuSans-104"/>
      <use x="466.570312" xlink:href="#DejaVuSans-32"/>
      <use x="498.357422" xlink:href="#DejaVuSans-112"/>
      <use x="561.833984" xlink:href="#DejaVuSans-101"/>
      <use x="623.357422" xlink:href="#DejaVuSans-114"/>
      <use x="664.439453" xlink:href="#DejaVuSans-99"/>
      <use x="719.419922" xlink:href="#DejaVuSans-101"/>
      <use x="780.943359" xlink:href="#DejaVuSans-110"/>
      <use x="844.322266" xlink:href="#DejaVuSans-46"/>
      <use x="876.109375" xlink:href="#DejaVuSans-41"/>
     </g>
    </g>
    <g id="line2d_24">
     <path d="M 279.843437 98.604813 
L 299.843437 98.604813 
" style="fill:none;stroke:#d62728;stroke-linecap:square;stroke-width:1.5;"/>
    </g>
    <g id="line2d_25"/>
    <g id="text_18">
     <!-- pred.(95th percen.) -->
     <defs>
      <path d="M 10.984375 1.515625 
L 10.984375 10.5 
Q 14.703125 8.734375 18.5 7.8125 
Q 22.3125 6.890625 25.984375 6.890625 
Q 35.75 6.890625 40.890625 13.453125 
Q 46.046875 20.015625 46.78125 33.40625 
Q 43.953125 29.203125 39.59375 26.953125 
Q 35.25 24.703125 29.984375 24.703125 
Q 19.046875 24.703125 12.671875 31.3125 
Q 6.296875 37.9375 6.296875 49.421875 
Q 6.296875 60.640625 12.9375 67.421875 
Q 19.578125 74.21875 30.609375 74.21875 
Q 43.265625 74.21875 49.921875 64.515625 
Q 56.59375 54.828125 56.59375 36.375 
Q 56.59375 19.140625 48.40625 8.859375 
Q 40.234375 -1.421875 26.421875 -1.421875 
Q 22.703125 -1.421875 18.890625 -0.6875 
Q 15.09375 0.046875 10.984375 1.515625 
z
M 30.609375 32.421875 
Q 37.25 32.421875 41.125 36.953125 
Q 45.015625 41.5 45.015625 49.421875 
Q 45.015625 57.28125 41.125 61.84375 
Q 37.25 66.40625 30.609375 66.40625 
Q 23.96875 66.40625 20.09375 61.84375 
Q 16.21875 57.28125 16.21875 49.421875 
Q 16.21875 41.5 20.09375 36.953125 
Q 23.96875 32.421875 30.609375 32.421875 
z
" id="DejaVuSans-57"/>
     </defs>
     <g transform="translate(307.843437 102.104813)scale(0.1 -0.1)">
      <use xlink:href="#DejaVuSans-112"/>
      <use x="63.476562" xlink:href="#DejaVuSans-114"/>
      <use x="104.558594" xlink:href="#DejaVuSans-101"/>
      <use x="166.082031" xlink:href="#DejaVuSans-100"/>
      <use x="229.558594" xlink:href="#DejaVuSans-46"/>
      <use x="261.345703" xlink:href="#DejaVuSans-40"/>
      <use x="300.359375" xlink:href="#DejaVuSans-57"/>
      <use x="363.982422" xlink:href="#DejaVuSans-53"/>
      <use x="427.605469" xlink:href="#DejaVuSans-116"/>
      <use x="466.814453" xlink:href="#DejaVuSans-104"/>
      <use x="530.193359" xlink:href="#DejaVuSans-32"/>
      <use x="561.980469" xlink:href="#DejaVuSans-112"/>
      <use x="625.457031" xlink:href="#DejaVuSans-101"/>
      <use x="686.980469" xlink:href="#DejaVuSans-114"/>
      <use x="728.0625" xlink:href="#DejaVuSans-99"/>
      <use x="783.042969" xlink:href="#DejaVuSans-101"/>
      <use x="844.566406" xlink:href="#DejaVuSans-110"/>
      <use x="907.945312" xlink:href="#DejaVuSans-46"/>
      <use x="939.732422" xlink:href="#DejaVuSans-41"/>
     </g>
    </g>
   </g>
  </g>
 </g>
 <defs>
  <clipPath id="p470fe6370f">
   <rect height="266.112" width="357.12" x="57.6" y="41.472"/>
  </clipPath>
 </defs>
</svg>
