<?xml version="1.0" encoding="utf-8" standalone="no"?>
<!DOCTYPE svg PUBLIC "-//W3C//DTD SVG 1.1//EN"
  "http://www.w3.org/Graphics/SVG/1.1/DTD/svg11.dtd">
<!-- Created with matplotlib (https://matplotlib.org/) -->
<svg height="345.6pt" version="1.1" viewBox="0 0 460.8 345.6" width="460.8pt" xmlns="http://www.w3.org/2000/svg" xmlns:xlink="http://www.w3.org/1999/xlink">
 <defs>
  <style type="text/css">
*{stroke-linecap:butt;stroke-linejoin:round;}
  </style>
 </defs>
 <g id="figure_1">
  <g id="patch_1">
   <path d="M 0 345.6 
L 460.8 345.6 
L 460.8 0 
L 0 0 
z
" style="fill:#ffffff;"/>
  </g>
  <g id="axes_1">
   <g id="patch_2">
    <path d="M 57.6 307.584 
L 414.72 307.584 
L 414.72 41.472 
L 57.6 41.472 
z
" style="fill:#ffffff;"/>
   </g>
   <g id="PolyCollection_1">
    <path clip-path="url(#p109692f58f)" d="M 73.832727 280.523342 
L 73.832727 285.078664 
L 74.92584 285.744041 
L 76.018953 285.483756 
L 77.112066 285.461142 
L 78.205179 283.063111 
L 79.298292 279.030804 
L 80.391405 276.322083 
L 81.484518 265.594513 
L 82.577631 255.192145 
L 83.670744 235.444852 
L 84.763857 207.192863 
L 85.85697 191.082709 
L 86.950083 164.474565 
L 88.043196 144.493293 
L 89.136309 123.517838 
L 90.229421 118.405467 
L 91.322534 111.639826 
L 92.415647 87.325822 
L 93.50876 76.958104 
L 94.601873 79.267549 
L 95.694986 76.285838 
L 96.788099 72.617649 
L 97.881212 75.20306 
L 98.974325 83.608774 
L 100.067438 94.085642 
L 101.160551 90.792232 
L 102.253664 99.957985 
L 103.346777 113.601656 
L 104.43989 120.443673 
L 105.533003 134.577399 
L 106.626116 136.117858 
L 107.719229 166.324322 
L 108.812342 174.992071 
L 109.905455 152.101992 
L 110.998567 153.841772 
L 112.09168 161.652152 
L 113.184793 165.843639 
L 114.277906 161.19971 
L 115.371019 165.539545 
L 116.464132 191.025827 
L 117.557245 195.613518 
L 118.650358 200.117617 
L 119.743471 218.156732 
L 120.836584 220.624748 
L 121.929697 218.826213 
L 123.02281 228.323105 
L 124.115923 237.226789 
L 125.209036 241.662977 
L 126.302149 242.432032 
L 127.395262 247.570639 
L 128.488375 256.966631 
L 129.581488 260.624834 
L 130.674601 259.682537 
L 131.767713 260.753502 
L 132.860826 264.926748 
L 133.953939 268.44225 
L 135.047052 270.186171 
L 136.140165 273.118103 
L 137.233278 279.152754 
L 138.326391 281.488277 
L 139.419504 280.645292 
L 140.512617 279.627872 
L 141.60573 279.925045 
L 142.698843 278.014285 
L 143.791956 276.261283 
L 144.885069 274.551671 
L 145.978182 268.115244 
L 147.071295 258.347256 
L 148.164408 250.089894 
L 149.257521 247.605316 
L 150.350634 240.955988 
L 151.443747 231.075838 
L 152.53686 228.683969 
L 153.629972 224.348809 
L 154.723085 216.691106 
L 155.816198 205.612293 
L 156.909311 195.80882 
L 158.002424 193.869445 
L 159.095537 192.517309 
L 160.18865 195.345121 
L 161.281763 187.556572 
L 162.374876 164.664547 
L 163.467989 133.807562 
L 164.561102 120.817533 
L 165.654215 104.070507 
L 166.747328 95.025823 
L 167.840441 86.179397 
L 168.933554 86.895778 
L 170.026667 100.24352 
L 171.11978 93.462301 
L 172.212893 91.32936 
L 173.306006 94.581924 
L 174.399118 107.974225 
L 175.492231 123.456846 
L 176.585344 132.342217 
L 177.678457 152.439786 
L 178.77157 163.011595 
L 179.864683 174.320724 
L 180.957796 176.434296 
L 182.050909 179.526456 
L 183.144022 183.932852 
L 184.237135 194.343974 
L 185.330248 187.8687 
L 186.423361 187.744834 
L 187.516474 190.054805 
L 188.609587 192.722408 
L 189.7027 195.338116 
L 190.795813 192.718196 
L 191.888926 203.116084 
L 192.982039 198.376209 
L 194.075152 202.415953 
L 195.168264 207.688304 
L 196.261377 207.497868 
L 197.35449 214.4834 
L 198.447603 221.452766 
L 199.540716 226.420935 
L 200.633829 227.898162 
L 201.726942 224.979072 
L 202.820055 231.898781 
L 203.913168 239.060487 
L 205.006281 244.972563 
L 206.099394 249.477355 
L 207.192507 254.202263 
L 208.28562 261.667802 
L 209.378733 266.105823 
L 210.471846 266.450235 
L 211.564959 268.115839 
L 212.658072 272.149696 
L 213.751185 276.300409 
L 214.844298 280.148517 
L 215.93741 283.174369 
L 217.030523 286.498369 
L 218.123636 288.503597 
L 219.216749 289.580483 
L 220.309862 289.98305 
L 221.402975 289.653244 
L 222.496088 289.586126 
L 223.589201 288.806237 
L 224.682314 287.909529 
L 225.775427 286.169329 
L 226.86854 283.068166 
L 227.961653 278.440655 
L 229.054766 269.883108 
L 230.147879 261.454803 
L 231.240992 251.99666 
L 232.334105 241.774723 
L 233.427218 235.721974 
L 234.520331 222.764547 
L 235.613444 209.352393 
L 236.706556 201.293634 
L 237.799669 185.825599 
L 238.892782 173.645358 
L 239.985895 162.239325 
L 241.079008 150.381916 
L 242.172121 143.782381 
L 243.265234 140.609721 
L 244.358347 141.687603 
L 245.45146 142.198523 
L 246.544573 133.331277 
L 247.637686 137.295543 
L 248.730799 143.445381 
L 249.823912 139.92704 
L 250.917025 144.804061 
L 252.010138 142.800996 
L 253.103251 157.95039 
L 254.196364 162.122603 
L 255.289477 170.898303 
L 256.38259 174.119369 
L 257.475702 181.576247 
L 258.568815 192.782258 
L 259.661928 187.45393 
L 260.755041 194.095186 
L 261.848154 198.652286 
L 262.941267 206.35288 
L 264.03438 203.931714 
L 265.127493 204.867469 
L 266.220606 218.453558 
L 267.313719 224.773406 
L 268.406832 228.498813 
L 269.499945 227.301351 
L 270.593058 227.3231 
L 271.686171 229.358665 
L 272.779284 226.443553 
L 273.872397 221.399765 
L 274.96551 221.581618 
L 276.058623 222.557909 
L 277.151736 227.437089 
L 278.244848 231.336388 
L 279.337961 236.506875 
L 280.431074 242.067334 
L 281.524187 246.025771 
L 282.6173 252.158595 
L 283.710413 253.996739 
L 284.803526 257.771809 
L 285.896639 262.897373 
L 286.989752 268.321711 
L 288.082865 270.701245 
L 289.175978 275.026008 
L 290.269091 281.814374 
L 291.362204 284.905024 
L 292.455317 287.033235 
L 293.54843 287.998087 
L 294.641543 288.118217 
L 295.734656 286.001505 
L 296.827769 282.906596 
L 297.920882 276.837503 
L 299.013994 269.491176 
L 300.107107 260.594493 
L 301.20022 246.747571 
L 302.293333 231.755533 
L 303.386446 219.389495 
L 304.479559 213.131008 
L 305.572672 187.171491 
L 306.665785 180.77289 
L 307.758898 182.68125 
L 308.852011 171.144768 
L 309.945124 149.638184 
L 311.038237 117.815096 
L 312.13135 110.612155 
L 313.224463 91.792828 
L 314.317576 79.930973 
L 315.410689 76.80645 
L 316.503802 78.279414 
L 317.596915 80.428416 
L 318.690028 87.075637 
L 319.78314 95.247721 
L 320.876253 109.014666 
L 321.969366 116.695189 
L 323.062479 120.167722 
L 324.155592 140.851204 
L 325.248705 133.46725 
L 326.341818 133.144823 
L 327.434931 125.920487 
L 328.528044 128.260886 
L 329.621157 129.252812 
L 330.71427 140.392177 
L 331.807383 162.221603 
L 332.900496 170.668904 
L 333.993609 191.294984 
L 335.086722 197.356583 
L 336.179835 209.250367 
L 337.272948 217.439535 
L 338.366061 214.762895 
L 339.459174 216.788596 
L 340.552287 223.057107 
L 341.645399 231.424923 
L 342.738512 242.209145 
L 343.831625 243.913994 
L 344.924738 252.159617 
L 346.017851 263.971313 
L 347.110964 268.925943 
L 348.204077 272.06317 
L 349.29719 273.19861 
L 350.390303 276.964648 
L 351.483416 279.8979 
L 352.576529 280.386014 
L 353.669642 280.293587 
L 354.762755 280.280938 
L 355.855868 281.322422 
L 356.948981 280.38093 
L 358.042094 278.579478 
L 359.135207 278.551506 
L 360.22832 278.812182 
L 361.321433 280.277209 
L 362.414545 281.968337 
L 363.507658 284.373148 
L 364.600771 286.346156 
L 365.693884 287.676465 
L 366.786997 289.027501 
L 367.88011 289.840221 
L 368.973223 290.603562 
L 370.066336 290.731295 
L 371.159449 290.774543 
L 372.252562 290.019254 
L 373.345675 288.771544 
L 374.438788 286.961896 
L 375.531901 282.743963 
L 376.625014 278.369448 
L 377.718127 271.987693 
L 378.81124 262.071321 
L 379.904353 250.619722 
L 380.997466 245.710491 
L 382.090579 239.064575 
L 383.183691 229.132562 
L 384.276804 219.828413 
L 385.369917 215.708413 
L 386.46303 213.440607 
L 387.556143 206.486284 
L 388.649256 203.066119 
L 389.742369 191.770793 
L 390.835482 202.341192 
L 391.928595 206.004537 
L 393.021708 201.395305 
L 394.114821 198.326721 
L 395.207934 206.008368 
L 396.301047 211.994236 
L 397.39416 204.861307 
L 398.487273 201.100505 
L 398.487273 198.353228 
L 398.487273 198.353228 
L 397.39416 198.760878 
L 396.301047 209.811885 
L 395.207934 203.116456 
L 394.114821 196.413566 
L 393.021708 198.884256 
L 391.928595 203.638926 
L 390.835482 197.480352 
L 389.742369 189.045877 
L 388.649256 200.899737 
L 387.556143 204.150837 
L 386.46303 209.011455 
L 385.369917 212.909614 
L 384.276804 214.162467 
L 383.183691 224.464055 
L 382.090579 233.435839 
L 380.997466 241.374688 
L 379.904353 246.072531 
L 378.81124 257.669661 
L 377.718127 269.469023 
L 376.625014 274.636286 
L 375.531901 277.891988 
L 374.438788 281.665319 
L 373.345675 283.256732 
L 372.252562 284.285161 
L 371.159449 285.217051 
L 370.066336 285.213955 
L 368.973223 285.09725 
L 367.88011 284.549028 
L 366.786997 283.842341 
L 365.693884 282.650221 
L 364.600771 281.692158 
L 363.507658 279.885429 
L 362.414545 278.242177 
L 361.321433 276.462124 
L 360.22832 275.471334 
L 359.135207 275.476389 
L 358.042094 274.834689 
L 356.948981 277.126254 
L 355.855868 277.218049 
L 354.762755 276.902325 
L 353.669642 276.504067 
L 352.576529 276.908125 
L 351.483416 276.640266 
L 350.390303 274.067778 
L 349.29719 270.991855 
L 348.204077 269.678117 
L 347.110964 265.834841 
L 346.017851 260.238948 
L 344.924738 248.972974 
L 343.831625 240.124788 
L 342.738512 238.082422 
L 341.645399 228.784433 
L 340.552287 220.631115 
L 339.459174 214.800759 
L 338.366061 211.773514 
L 337.272948 213.764576 
L 336.179835 206.135522 
L 335.086722 193.38662 
L 333.993609 185.739862 
L 332.900496 165.769027 
L 331.807383 155.811328 
L 330.71427 133.606726 
L 329.621157 125.687846 
L 328.528044 124.634477 
L 327.434931 122.292061 
L 326.341818 129.762148 
L 325.248705 129.176353 
L 324.155592 135.153106 
L 323.062479 116.460635 
L 321.969366 112.110872 
L 320.876253 104.505465 
L 319.78314 90.027528 
L 318.690028 79.993149 
L 317.596915 71.648472 
L 316.503802 69.327128 
L 315.410689 68.407328 
L 314.317576 72.510997 
L 313.224463 87.161077 
L 312.13135 106.32095 
L 311.038237 111.181155 
L 309.945124 146.192735 
L 308.852011 168.50562 
L 307.758898 178.567169 
L 306.665785 177.645116 
L 305.572672 183.533403 
L 304.479559 208.193957 
L 303.386446 214.840323 
L 302.293333 225.519969 
L 301.20022 240.460256 
L 300.107107 256.848043 
L 299.013994 266.70435 
L 297.920882 273.572778 
L 296.827769 278.142708 
L 295.734656 280.990951 
L 294.641543 282.855268 
L 293.54843 282.991406 
L 292.455317 282.267242 
L 291.362204 280.6067 
L 290.269091 278.174578 
L 289.175978 272.327044 
L 288.082865 268.295567 
L 286.989752 265.655741 
L 285.896639 260.23045 
L 284.803526 255.121134 
L 283.710413 250.595248 
L 282.6173 248.428504 
L 281.524187 243.057893 
L 280.431074 237.766102 
L 279.337961 233.8916 
L 278.244848 227.377524 
L 277.151736 224.787108 
L 276.058623 220.416265 
L 274.96551 218.281324 
L 273.872397 218.52464 
L 272.779284 220.824278 
L 271.686171 226.307634 
L 270.593058 224.398308 
L 269.499945 223.188424 
L 268.406832 224.432587 
L 267.313719 221.65128 
L 266.220606 215.732937 
L 265.127493 202.684907 
L 264.03438 200.56585 
L 262.941267 204.003228 
L 261.848154 196.418526 
L 260.755041 191.047829 
L 259.661928 185.394374 
L 258.568815 188.934369 
L 257.475702 175.297494 
L 256.38259 171.169518 
L 255.289477 164.746757 
L 254.196364 158.339437 
L 253.103251 151.660777 
L 252.010138 138.112222 
L 250.917025 140.523409 
L 249.823912 136.170999 
L 248.730799 139.183634 
L 247.637686 131.623844 
L 246.544573 129.893002 
L 245.45146 138.09282 
L 244.358347 137.623508 
L 243.265234 135.311645 
L 242.172121 139.825839 
L 241.079008 146.424316 
L 239.985895 158.240575 
L 238.892782 170.665514 
L 237.799669 183.021054 
L 236.706556 198.251378 
L 235.613444 205.538037 
L 234.520331 217.446314 
L 233.427218 229.905893 
L 232.334105 237.634264 
L 231.240992 246.951832 
L 230.147879 258.057198 
L 229.054766 266.950268 
L 227.961653 275.011365 
L 226.86854 278.186632 
L 225.775427 281.225704 
L 224.682314 282.40031 
L 223.589201 283.446344 
L 222.496088 284.070724 
L 221.402975 284.105581 
L 220.309862 284.578018 
L 219.216749 284.389888 
L 218.123636 283.413809 
L 217.030523 281.905673 
L 215.93741 279.059476 
L 214.844298 276.718791 
L 213.751185 273.498497 
L 212.658072 269.821016 
L 211.564959 266.107498 
L 210.471846 264.319569 
L 209.378733 263.449987 
L 208.28562 258.510365 
L 207.192507 251.271369 
L 206.099394 245.77897 
L 205.006281 241.242023 
L 203.913168 235.44134 
L 202.820055 229.588438 
L 201.726942 221.412232 
L 200.633829 223.792953 
L 199.540716 223.326295 
L 198.447603 218.791395 
L 197.35449 212.119717 
L 196.261377 204.379933 
L 195.168264 205.342809 
L 194.075152 200.533971 
L 192.982039 196.259218 
L 191.888926 200.327106 
L 190.795813 190.819106 
L 189.7027 193.278204 
L 188.609587 190.051964 
L 187.516474 187.169894 
L 186.423361 185.709095 
L 185.330248 185.837674 
L 184.237135 191.124031 
L 183.144022 179.239438 
L 182.050909 176.894738 
L 180.957796 172.940017 
L 179.864683 168.489318 
L 178.77157 158.833358 
L 177.678457 145.039148 
L 176.585344 127.940215 
L 175.492231 118.472129 
L 174.399118 104.649723 
L 173.306006 90.140126 
L 172.212893 86.607897 
L 171.11978 85.867171 
L 170.026667 95.74068 
L 168.933554 81.702705 
L 167.840441 79.611205 
L 166.747328 90.967896 
L 165.654215 99.930157 
L 164.561102 115.282375 
L 163.467989 127.806671 
L 162.374876 160.865503 
L 161.281763 185.492344 
L 160.18865 192.985215 
L 159.095537 190.486209 
L 158.002424 191.851806 
L 156.909311 192.579989 
L 155.816198 200.13653 
L 154.723085 212.289063 
L 153.629972 220.542757 
L 152.53686 224.890844 
L 151.443747 226.200743 
L 150.350634 235.733573 
L 149.257521 243.31795 
L 148.164408 246.380858 
L 147.071295 254.187343 
L 145.978182 265.571624 
L 144.885069 272.376779 
L 143.791956 273.328648 
L 142.698843 274.825365 
L 141.60573 276.611104 
L 140.512617 275.883745 
L 139.419504 277.018476 
L 138.326391 278.020569 
L 137.233278 275.720079 
L 136.140165 270.751301 
L 135.047052 267.9852 
L 133.953939 266.04208 
L 132.860826 262.41445 
L 131.767713 258.782845 
L 130.674601 256.229429 
L 129.581488 257.668341 
L 128.488375 253.508383 
L 127.395262 244.778248 
L 126.302149 238.768985 
L 125.209036 236.96359 
L 124.115923 233.833483 
L 123.02281 225.88584 
L 121.929697 216.413854 
L 120.836584 216.643415 
L 119.743471 214.54712 
L 118.650358 197.385313 
L 117.557245 191.257606 
L 116.464132 182.879601 
L 115.371019 159.030044 
L 114.277906 158.478058 
L 113.184793 161.789107 
L 112.09168 155.826857 
L 110.998567 145.529506 
L 109.905455 147.042138 
L 108.812342 170.133766 
L 107.719229 156.849521 
L 106.626116 131.996061 
L 105.533003 129.494841 
L 104.43989 116.377795 
L 103.346777 108.555489 
L 102.253664 96.061324 
L 101.160551 82.888 
L 100.067438 86.958961 
L 98.974325 75.149698 
L 97.881212 65.071671 
L 96.788099 62.932293 
L 95.694986 66.483884 
L 94.601873 70.866327 
L 93.50876 69.402107 
L 92.415647 79.852076 
L 91.322534 108.435716 
L 90.229421 113.611314 
L 89.136309 118.430306 
L 88.043196 138.791952 
L 86.950083 159.561872 
L 85.85697 187.060425 
L 84.763857 200.179931 
L 83.670744 226.146096 
L 82.577631 250.123277 
L 81.484518 262.200668 
L 80.391405 273.514918 
L 79.298292 274.892672 
L 78.205179 278.84035 
L 77.112066 280.612552 
L 76.018953 280.730853 
L 74.92584 281.05728 
L 73.832727 280.523342 
z
" style="fill:#008000;fill-opacity:0.4;"/>
   </g>
   <g id="matplotlib.axis_1">
    <g id="xtick_1">
     <g id="line2d_1">
      <defs>
       <path d="M 0 0 
L 0 3.5 
" id="ma2e542ff0d" style="stroke:#000000;stroke-width:0.8;"/>
      </defs>
      <g>
       <use style="stroke:#000000;stroke-width:0.8;" x="73.832727" xlink:href="#ma2e542ff0d" y="307.584"/>
      </g>
     </g>
     <g id="text_1">
      <!-- 0.0 -->
      <defs>
       <path d="M 31.78125 66.40625 
Q 24.171875 66.40625 20.328125 58.90625 
Q 16.5 51.421875 16.5 36.375 
Q 16.5 21.390625 20.328125 13.890625 
Q 24.171875 6.390625 31.78125 6.390625 
Q 39.453125 6.390625 43.28125 13.890625 
Q 47.125 21.390625 47.125 36.375 
Q 47.125 51.421875 43.28125 58.90625 
Q 39.453125 66.40625 31.78125 66.40625 
z
M 31.78125 74.21875 
Q 44.046875 74.21875 50.515625 64.515625 
Q 56.984375 54.828125 56.984375 36.375 
Q 56.984375 17.96875 50.515625 8.265625 
Q 44.046875 -1.421875 31.78125 -1.421875 
Q 19.53125 -1.421875 13.0625 8.265625 
Q 6.59375 17.96875 6.59375 36.375 
Q 6.59375 54.828125 13.0625 64.515625 
Q 19.53125 74.21875 31.78125 74.21875 
z
" id="DejaVuSans-48"/>
       <path d="M 10.6875 12.40625 
L 21 12.40625 
L 21 0 
L 10.6875 0 
z
" id="DejaVuSans-46"/>
      </defs>
      <g transform="translate(65.881165 322.182437)scale(0.1 -0.1)">
       <use xlink:href="#DejaVuSans-48"/>
       <use x="63.623047" xlink:href="#DejaVuSans-46"/>
       <use x="95.410156" xlink:href="#DejaVuSans-48"/>
      </g>
     </g>
    </g>
    <g id="xtick_2">
     <g id="line2d_2">
      <g>
       <use style="stroke:#000000;stroke-width:0.8;" x="138.763636" xlink:href="#ma2e542ff0d" y="307.584"/>
      </g>
     </g>
     <g id="text_2">
      <!-- 0.2 -->
      <defs>
       <path d="M 19.1875 8.296875 
L 53.609375 8.296875 
L 53.609375 0 
L 7.328125 0 
L 7.328125 8.296875 
Q 12.9375 14.109375 22.625 23.890625 
Q 32.328125 33.6875 34.8125 36.53125 
Q 39.546875 41.84375 41.421875 45.53125 
Q 43.3125 49.21875 43.3125 52.78125 
Q 43.3125 58.59375 39.234375 62.25 
Q 35.15625 65.921875 28.609375 65.921875 
Q 23.96875 65.921875 18.8125 64.3125 
Q 13.671875 62.703125 7.8125 59.421875 
L 7.8125 69.390625 
Q 13.765625 71.78125 18.9375 73 
Q 24.125 74.21875 28.421875 74.21875 
Q 39.75 74.21875 46.484375 68.546875 
Q 53.21875 62.890625 53.21875 53.421875 
Q 53.21875 48.921875 51.53125 44.890625 
Q 49.859375 40.875 45.40625 35.40625 
Q 44.1875 33.984375 37.640625 27.21875 
Q 31.109375 20.453125 19.1875 8.296875 
z
" id="DejaVuSans-50"/>
      </defs>
      <g transform="translate(130.812074 322.182437)scale(0.1 -0.1)">
       <use xlink:href="#DejaVuSans-48"/>
       <use x="63.623047" xlink:href="#DejaVuSans-46"/>
       <use x="95.410156" xlink:href="#DejaVuSans-50"/>
      </g>
     </g>
    </g>
    <g id="xtick_3">
     <g id="line2d_3">
      <g>
       <use style="stroke:#000000;stroke-width:0.8;" x="203.694545" xlink:href="#ma2e542ff0d" y="307.584"/>
      </g>
     </g>
     <g id="text_3">
      <!-- 0.4 -->
      <defs>
       <path d="M 37.796875 64.3125 
L 12.890625 25.390625 
L 37.796875 25.390625 
z
M 35.203125 72.90625 
L 47.609375 72.90625 
L 47.609375 25.390625 
L 58.015625 25.390625 
L 58.015625 17.1875 
L 47.609375 17.1875 
L 47.609375 0 
L 37.796875 0 
L 37.796875 17.1875 
L 4.890625 17.1875 
L 4.890625 26.703125 
z
" id="DejaVuSans-52"/>
      </defs>
      <g transform="translate(195.742983 322.182437)scale(0.1 -0.1)">
       <use xlink:href="#DejaVuSans-48"/>
       <use x="63.623047" xlink:href="#DejaVuSans-46"/>
       <use x="95.410156" xlink:href="#DejaVuSans-52"/>
      </g>
     </g>
    </g>
    <g id="xtick_4">
     <g id="line2d_4">
      <g>
       <use style="stroke:#000000;stroke-width:0.8;" x="268.625455" xlink:href="#ma2e542ff0d" y="307.584"/>
      </g>
     </g>
     <g id="text_4">
      <!-- 0.6 -->
      <defs>
       <path d="M 33.015625 40.375 
Q 26.375 40.375 22.484375 35.828125 
Q 18.609375 31.296875 18.609375 23.390625 
Q 18.609375 15.53125 22.484375 10.953125 
Q 26.375 6.390625 33.015625 6.390625 
Q 39.65625 6.390625 43.53125 10.953125 
Q 47.40625 15.53125 47.40625 23.390625 
Q 47.40625 31.296875 43.53125 35.828125 
Q 39.65625 40.375 33.015625 40.375 
z
M 52.59375 71.296875 
L 52.59375 62.3125 
Q 48.875 64.0625 45.09375 64.984375 
Q 41.3125 65.921875 37.59375 65.921875 
Q 27.828125 65.921875 22.671875 59.328125 
Q 17.53125 52.734375 16.796875 39.40625 
Q 19.671875 43.65625 24.015625 45.921875 
Q 28.375 48.1875 33.59375 48.1875 
Q 44.578125 48.1875 50.953125 41.515625 
Q 57.328125 34.859375 57.328125 23.390625 
Q 57.328125 12.15625 50.6875 5.359375 
Q 44.046875 -1.421875 33.015625 -1.421875 
Q 20.359375 -1.421875 13.671875 8.265625 
Q 6.984375 17.96875 6.984375 36.375 
Q 6.984375 53.65625 15.1875 63.9375 
Q 23.390625 74.21875 37.203125 74.21875 
Q 40.921875 74.21875 44.703125 73.484375 
Q 48.484375 72.75 52.59375 71.296875 
z
" id="DejaVuSans-54"/>
      </defs>
      <g transform="translate(260.673892 322.182437)scale(0.1 -0.1)">
       <use xlink:href="#DejaVuSans-48"/>
       <use x="63.623047" xlink:href="#DejaVuSans-46"/>
       <use x="95.410156" xlink:href="#DejaVuSans-54"/>
      </g>
     </g>
    </g>
    <g id="xtick_5">
     <g id="line2d_5">
      <g>
       <use style="stroke:#000000;stroke-width:0.8;" x="333.556364" xlink:href="#ma2e542ff0d" y="307.584"/>
      </g>
     </g>
     <g id="text_5">
      <!-- 0.8 -->
      <defs>
       <path d="M 31.78125 34.625 
Q 24.75 34.625 20.71875 30.859375 
Q 16.703125 27.09375 16.703125 20.515625 
Q 16.703125 13.921875 20.71875 10.15625 
Q 24.75 6.390625 31.78125 6.390625 
Q 38.8125 6.390625 42.859375 10.171875 
Q 46.921875 13.96875 46.921875 20.515625 
Q 46.921875 27.09375 42.890625 30.859375 
Q 38.875 34.625 31.78125 34.625 
z
M 21.921875 38.8125 
Q 15.578125 40.375 12.03125 44.71875 
Q 8.5 49.078125 8.5 55.328125 
Q 8.5 64.0625 14.71875 69.140625 
Q 20.953125 74.21875 31.78125 74.21875 
Q 42.671875 74.21875 48.875 69.140625 
Q 55.078125 64.0625 55.078125 55.328125 
Q 55.078125 49.078125 51.53125 44.71875 
Q 48 40.375 41.703125 38.8125 
Q 48.828125 37.15625 52.796875 32.3125 
Q 56.78125 27.484375 56.78125 20.515625 
Q 56.78125 9.90625 50.3125 4.234375 
Q 43.84375 -1.421875 31.78125 -1.421875 
Q 19.734375 -1.421875 13.25 4.234375 
Q 6.78125 9.90625 6.78125 20.515625 
Q 6.78125 27.484375 10.78125 32.3125 
Q 14.796875 37.15625 21.921875 38.8125 
z
M 18.3125 54.390625 
Q 18.3125 48.734375 21.84375 45.5625 
Q 25.390625 42.390625 31.78125 42.390625 
Q 38.140625 42.390625 41.71875 45.5625 
Q 45.3125 48.734375 45.3125 54.390625 
Q 45.3125 60.0625 41.71875 63.234375 
Q 38.140625 66.40625 31.78125 66.40625 
Q 25.390625 66.40625 21.84375 63.234375 
Q 18.3125 60.0625 18.3125 54.390625 
z
" id="DejaVuSans-56"/>
      </defs>
      <g transform="translate(325.604801 322.182437)scale(0.1 -0.1)">
       <use xlink:href="#DejaVuSans-48"/>
       <use x="63.623047" xlink:href="#DejaVuSans-46"/>
       <use x="95.410156" xlink:href="#DejaVuSans-56"/>
      </g>
     </g>
    </g>
    <g id="xtick_6">
     <g id="line2d_6">
      <g>
       <use style="stroke:#000000;stroke-width:0.8;" x="398.487273" xlink:href="#ma2e542ff0d" y="307.584"/>
      </g>
     </g>
     <g id="text_6">
      <!-- 1.0 -->
      <defs>
       <path d="M 12.40625 8.296875 
L 28.515625 8.296875 
L 28.515625 63.921875 
L 10.984375 60.40625 
L 10.984375 69.390625 
L 28.421875 72.90625 
L 38.28125 72.90625 
L 38.28125 8.296875 
L 54.390625 8.296875 
L 54.390625 0 
L 12.40625 0 
z
" id="DejaVuSans-49"/>
      </defs>
      <g transform="translate(390.53571 322.182437)scale(0.1 -0.1)">
       <use xlink:href="#DejaVuSans-49"/>
       <use x="63.623047" xlink:href="#DejaVuSans-46"/>
       <use x="95.410156" xlink:href="#DejaVuSans-48"/>
      </g>
     </g>
    </g>
   </g>
   <g id="matplotlib.axis_2">
    <g id="ytick_1">
     <g id="line2d_7">
      <defs>
       <path d="M 0 0 
L -3.5 0 
" id="m475614c857" style="stroke:#000000;stroke-width:0.8;"/>
      </defs>
      <g>
       <use style="stroke:#000000;stroke-width:0.8;" x="57.6" xlink:href="#m475614c857" y="299.17887"/>
      </g>
     </g>
     <g id="text_7">
      <!-- 0.0 -->
      <g transform="translate(34.696875 302.978089)scale(0.1 -0.1)">
       <use xlink:href="#DejaVuSans-48"/>
       <use x="63.623047" xlink:href="#DejaVuSans-46"/>
       <use x="95.410156" xlink:href="#DejaVuSans-48"/>
      </g>
     </g>
    </g>
    <g id="ytick_2">
     <g id="line2d_8">
      <g>
       <use style="stroke:#000000;stroke-width:0.8;" x="57.6" xlink:href="#m475614c857" y="249.553394"/>
      </g>
     </g>
     <g id="text_8">
      <!-- 0.2 -->
      <g transform="translate(34.696875 253.352613)scale(0.1 -0.1)">
       <use xlink:href="#DejaVuSans-48"/>
       <use x="63.623047" xlink:href="#DejaVuSans-46"/>
       <use x="95.410156" xlink:href="#DejaVuSans-50"/>
      </g>
     </g>
    </g>
    <g id="ytick_3">
     <g id="line2d_9">
      <g>
       <use style="stroke:#000000;stroke-width:0.8;" x="57.6" xlink:href="#m475614c857" y="199.927919"/>
      </g>
     </g>
     <g id="text_9">
      <!-- 0.4 -->
      <g transform="translate(34.696875 203.727138)scale(0.1 -0.1)">
       <use xlink:href="#DejaVuSans-48"/>
       <use x="63.623047" xlink:href="#DejaVuSans-46"/>
       <use x="95.410156" xlink:href="#DejaVuSans-52"/>
      </g>
     </g>
    </g>
    <g id="ytick_4">
     <g id="line2d_10">
      <g>
       <use style="stroke:#000000;stroke-width:0.8;" x="57.6" xlink:href="#m475614c857" y="150.302443"/>
      </g>
     </g>
     <g id="text_10">
      <!-- 0.6 -->
      <g transform="translate(34.696875 154.101662)scale(0.1 -0.1)">
       <use xlink:href="#DejaVuSans-48"/>
       <use x="63.623047" xlink:href="#DejaVuSans-46"/>
       <use x="95.410156" xlink:href="#DejaVuSans-54"/>
      </g>
     </g>
    </g>
    <g id="ytick_5">
     <g id="line2d_11">
      <g>
       <use style="stroke:#000000;stroke-width:0.8;" x="57.6" xlink:href="#m475614c857" y="100.676968"/>
      </g>
     </g>
     <g id="text_11">
      <!-- 0.8 -->
      <g transform="translate(34.696875 104.476186)scale(0.1 -0.1)">
       <use xlink:href="#DejaVuSans-48"/>
       <use x="63.623047" xlink:href="#DejaVuSans-46"/>
       <use x="95.410156" xlink:href="#DejaVuSans-56"/>
      </g>
     </g>
    </g>
    <g id="ytick_6">
     <g id="line2d_12">
      <g>
       <use style="stroke:#000000;stroke-width:0.8;" x="57.6" xlink:href="#m475614c857" y="51.051492"/>
      </g>
     </g>
     <g id="text_12">
      <!-- 1.0 -->
      <g transform="translate(34.696875 54.850711)scale(0.1 -0.1)">
       <use xlink:href="#DejaVuSans-49"/>
       <use x="63.623047" xlink:href="#DejaVuSans-46"/>
       <use x="95.410156" xlink:href="#DejaVuSans-48"/>
      </g>
     </g>
    </g>
   </g>
   <g id="line2d_13">
    <path clip-path="url(#p109692f58f)" d="M 73.832727 286.596355 
L 74.92584 286.764114 
L 76.018953 286.093054 
L 77.112066 285.086451 
L 78.205179 278.711289 
L 79.298292 276.194781 
L 80.391405 269.316244 
L 81.484518 258.411542 
L 82.577631 245.661268 
L 83.670744 224.522553 
L 84.763857 206.739263 
L 85.85697 186.607201 
L 88.043196 142.65218 
L 89.136309 124.868891 
L 90.229421 119.332673 
L 91.322534 104.40136 
L 92.415647 76.719773 
L 93.50876 67.324926 
L 94.601873 65.143887 
L 95.694986 54.574653 
L 96.788099 53.568 
L 97.881212 61.78846 
L 98.974325 79.571997 
L 100.067438 85.779152 
L 101.160551 87.456989 
L 102.253664 103.394707 
L 105.533003 130.405357 
L 106.626116 142.484446 
L 107.719229 161.609856 
L 108.812342 163.95863 
L 109.905455 152.047275 
L 110.998567 154.396049 
L 112.09168 159.932267 
L 113.184793 161.945572 
L 114.277906 159.932267 
L 115.371019 168.991645 
L 116.464132 184.761877 
L 117.557245 189.962627 
L 118.650358 202.712901 
L 119.743471 213.953319 
L 120.836584 215.463174 
L 121.929697 220.328456 
L 124.115923 236.433907 
L 125.209036 238.614947 
L 126.302149 241.131455 
L 127.395262 250.52655 
L 128.488375 256.398236 
L 129.581488 259.250212 
L 130.674601 257.069421 
L 131.767713 260.92805 
L 132.860826 265.289881 
L 135.047052 269.819694 
L 137.233278 280.892279 
L 138.326391 280.892279 
L 139.419504 278.54353 
L 140.512617 279.550133 
L 141.60573 277.704686 
L 142.698843 275.188178 
L 143.791956 274.684901 
L 144.885069 269.819694 
L 147.071295 251.532955 
L 148.164408 247.674326 
L 149.257521 242.64131 
L 150.350634 234.588584 
L 151.443747 229.555568 
L 152.53686 225.361471 
L 153.629972 220.49619 
L 154.723085 214.288787 
L 155.816198 200.867329 
L 156.909311 196.337764 
L 158.002424 193.150071 
L 159.095537 192.143419 
L 160.18865 190.298095 
L 161.281763 182.077387 
L 164.561102 115.809512 
L 167.840441 77.89416 
L 168.933554 90.141231 
L 170.026667 93.496658 
L 171.11978 88.79911 
L 172.212893 89.470047 
L 173.306006 96.1809 
L 174.399118 112.622068 
L 175.492231 122.352383 
L 176.585344 133.257333 
L 177.678457 151.543825 
L 178.77157 160.435469 
L 179.864683 167.984993 
L 180.957796 174.695846 
L 182.050909 176.205701 
L 183.144022 184.929611 
L 184.237135 186.607201 
L 185.330248 187.110403 
L 186.423361 186.607201 
L 187.516474 187.781587 
L 188.609587 191.304748 
L 189.7027 191.640216 
L 190.795813 194.659926 
L 191.888926 197.176434 
L 194.075152 200.364127 
L 195.168264 205.564877 
L 196.261377 206.571529 
L 197.35449 213.785585 
L 198.447603 219.992739 
L 199.540716 224.522553 
L 200.633829 223.683634 
L 201.726942 225.361471 
L 203.913168 238.950415 
L 205.006281 244.319147 
L 206.099394 248.680979 
L 207.192507 256.230502 
L 208.28562 262.270171 
L 209.378733 264.45121 
L 210.471846 265.625349 
L 211.564959 268.309839 
L 213.751185 277.536927 
L 214.844298 281.731099 
L 215.93741 286.596355 
L 217.030523 290.119442 
L 218.123636 292.803733 
L 219.216749 293.810336 
L 220.309862 293.139251 
L 221.402975 292.635949 
L 222.496088 292.300432 
L 223.589201 289.951683 
L 224.682314 288.777321 
L 225.775427 283.744305 
L 226.86854 279.717892 
L 229.054766 263.109089 
L 230.147879 255.559566 
L 231.240992 244.486881 
L 232.334105 238.782681 
L 233.427218 229.2201 
L 234.520331 217.811948 
L 235.613444 209.255771 
L 239.985895 160.603451 
L 242.172121 142.819914 
L 243.265234 141.813509 
L 244.358347 141.645775 
L 245.45146 138.961285 
L 246.544573 134.767188 
L 247.637686 138.961285 
L 248.730799 139.464736 
L 249.823912 141.981244 
L 250.917025 140.639123 
L 252.010138 147.181993 
L 253.103251 155.234719 
L 254.196364 159.764533 
L 255.289477 168.656177 
L 256.38259 170.501501 
L 257.475702 182.580838 
L 259.661928 187.278385 
L 262.941267 202.712901 
L 264.03438 200.867329 
L 265.127493 206.403795 
L 266.220606 216.13411 
L 267.313719 223.5159 
L 268.406832 225.361471 
L 269.499945 224.690287 
L 271.686171 226.703592 
L 272.779284 222.006045 
L 273.872397 220.999392 
L 274.96551 219.489537 
L 276.058623 222.173779 
L 277.151736 227.03906 
L 278.244848 229.891037 
L 279.337961 236.769624 
L 280.431074 240.124802 
L 281.524187 247.003389 
L 282.6173 250.52655 
L 283.710413 253.54626 
L 285.896639 263.94776 
L 286.989752 267.806389 
L 288.082865 270.994081 
L 289.175978 278.879073 
L 290.269091 284.583149 
L 291.362204 287.938476 
L 292.455317 290.119442 
L 293.54843 290.287225 
L 294.641543 288.609562 
L 295.734656 283.744305 
L 296.827769 278.040229 
L 299.013994 262.941107 
L 300.107107 252.371873 
L 302.293333 226.703592 
L 303.386446 219.657271 
L 304.479559 203.048369 
L 305.572672 190.298095 
L 306.665785 182.748572 
L 307.758898 177.547822 
L 308.852011 168.991645 
L 309.945124 142.148978 
L 311.038237 121.849181 
L 314.317576 67.828129 
L 315.410689 63.801766 
L 316.503802 64.976152 
L 317.596915 72.022474 
L 318.690028 82.256239 
L 319.78314 97.187304 
L 320.876253 109.769844 
L 321.969366 114.131923 
L 323.062479 126.378994 
L 324.155592 134.599454 
L 325.248705 134.263986 
L 326.341818 129.734172 
L 327.434931 128.224317 
L 328.528044 128.72752 
L 329.621157 130.069641 
L 330.71427 144.665485 
L 331.807383 156.409106 
L 333.993609 185.600548 
L 335.086722 194.659926 
L 336.179835 208.081384 
L 337.272948 211.940013 
L 338.366061 212.778932 
L 339.459174 216.973029 
L 340.552287 222.844963 
L 341.645399 233.749665 
L 342.738512 238.614947 
L 343.831625 244.486881 
L 344.924738 256.56597 
L 346.017851 264.786678 
L 347.110964 269.316244 
L 348.204077 271.161815 
L 349.29719 273.846057 
L 350.390303 278.207988 
L 351.483416 279.885676 
L 352.576529 279.046832 
L 353.669642 280.221194 
L 354.762755 279.382374 
L 355.855868 281.395581 
L 356.948981 277.201384 
L 358.042094 277.87247 
L 359.135207 277.536927 
L 360.22832 277.87247 
L 361.321433 281.395581 
L 362.414545 283.241003 
L 363.507658 287.099657 
L 364.600771 288.94508 
L 365.693884 291.293828 
L 366.786997 293.307035 
L 367.88011 294.145854 
L 368.973223 295.320241 
L 370.066336 295.488 
L 372.252562 292.132648 
L 373.345675 289.61614 
L 376.625014 272.67167 
L 377.718127 265.961065 
L 378.81124 252.875076 
L 379.904353 246.667921 
L 380.997466 241.466923 
L 382.090579 232.910995 
L 383.183691 226.032408 
L 384.276804 215.798642 
L 385.369917 215.463174 
L 386.46303 209.255771 
L 387.556143 205.732611 
L 388.649256 199.357474 
L 389.742369 194.492192 
L 390.835482 201.203045 
L 391.928595 202.20945 
L 393.021708 198.854272 
L 394.114821 198.518555 
L 395.207934 204.39049 
L 396.301047 207.745916 
L 397.39416 200.364127 
L 398.487273 198.854272 
L 398.487273 198.854272 
" style="fill:none;stroke:#1f77b4;stroke-linecap:square;stroke-width:1.5;"/>
   </g>
   <g id="line2d_14">
    <path clip-path="url(#p109692f58f)" d="M 73.832727 283.649605 
L 74.92584 284.337773 
L 76.018953 284.01794 
L 77.112066 284.005435 
L 78.205179 281.574185 
L 79.298292 277.352024 
L 80.391405 274.953434 
L 82.577631 252.175789 
L 83.670744 229.321604 
L 84.763857 203.533613 
L 85.85697 189.18917 
L 86.950083 162.513466 
L 89.136309 121.431458 
L 90.229421 116.557183 
L 91.322534 110.06362 
L 92.415647 82.443532 
L 93.50876 72.962409 
L 94.601873 74.006756 
L 95.694986 69.017164 
L 96.788099 66.130576 
L 97.881212 68.317996 
L 98.974325 78.010685 
L 100.067438 89.619394 
L 101.160551 85.398108 
L 103.346777 111.092978 
L 104.43989 118.251833 
L 105.533003 132.485982 
L 106.626116 133.986533 
L 107.719229 162.773937 
L 108.812342 171.917238 
L 109.905455 149.018486 
L 110.998567 151.905116 
L 112.09168 159.881205 
L 113.184793 164.157502 
L 114.277906 159.911947 
L 115.371019 163.85508 
L 116.464132 187.869184 
L 117.557245 192.926477 
L 118.650358 198.664631 
L 119.743471 215.861818 
L 120.836584 217.704102 
L 121.929697 217.352027 
L 123.02281 226.969434 
L 124.115923 235.186624 
L 125.209036 238.328544 
L 126.302149 239.874776 
L 127.395262 246.068227 
L 128.488375 255.058668 
L 129.581488 258.983757 
L 130.674601 257.184718 
L 131.767713 259.583858 
L 133.953939 267.098847 
L 135.047052 268.964222 
L 136.140165 271.864375 
L 137.233278 277.63812 
L 138.326391 280.063646 
L 139.419504 279.321007 
L 140.512617 278.272686 
L 141.60573 278.647706 
L 143.791956 274.986679 
L 144.885069 273.33875 
L 145.978182 266.508622 
L 147.071295 255.73615 
L 148.164408 247.846228 
L 149.257521 244.534099 
L 150.350634 237.087742 
L 151.443747 227.556665 
L 152.53686 226.005043 
L 153.629972 221.638368 
L 154.723085 213.468503 
L 155.816198 201.74766 
L 156.909311 194.515754 
L 158.002424 192.847693 
L 159.095537 191.529927 
L 160.18865 194.224956 
L 161.281763 186.508993 
L 162.374876 162.67387 
L 163.467989 131.448942 
L 164.561102 118.526523 
L 165.654215 101.970107 
L 166.747328 92.818699 
L 167.840441 81.770657 
L 168.933554 84.229294 
L 170.026667 97.799126 
L 171.11978 88.434117 
L 172.212893 88.236645 
L 173.306006 91.886088 
L 175.492231 120.777512 
L 176.585344 130.368001 
L 177.678457 149.958671 
L 179.864683 172.054183 
L 180.957796 174.72319 
L 182.050909 177.976871 
L 183.144022 182.357378 
L 184.237135 192.506826 
L 185.330248 186.776839 
L 186.423361 186.638265 
L 187.516474 188.843527 
L 189.7027 194.103477 
L 190.795813 191.70941 
L 191.888926 201.769252 
L 192.982039 197.103329 
L 194.075152 201.285507 
L 195.168264 206.516462 
L 196.261377 205.216644 
L 197.35449 213.390677 
L 198.447603 219.772184 
L 199.540716 224.40678 
L 200.633829 224.826705 
L 201.726942 222.41535 
L 202.820055 230.685065 
L 205.006281 242.60133 
L 206.099394 247.09897 
L 207.192507 252.525357 
L 208.28562 259.968767 
L 209.378733 264.608607 
L 210.471846 265.213527 
L 211.564959 266.896967 
L 214.844298 278.722125 
L 215.93741 281.661827 
L 217.030523 284.976597 
L 218.123636 286.96358 
L 219.216749 288.089241 
L 220.309862 288.458445 
L 221.402975 288.079906 
L 222.496088 288.029911 
L 223.589201 287.253666 
L 224.682314 286.305664 
L 225.775427 284.596275 
L 226.86854 281.36135 
L 227.961653 276.86813 
L 230.147879 259.460173 
L 231.240992 248.654612 
L 232.334105 239.21723 
L 233.427218 231.420124 
L 235.613444 207.019835 
L 236.706556 199.539203 
L 237.799669 184.593672 
L 241.079008 148.868703 
L 242.172121 142.318551 
L 243.265234 139.070787 
L 244.358347 140.325212 
L 245.45146 140.80678 
L 246.544573 131.785123 
L 247.637686 135.848701 
L 248.730799 141.909752 
L 249.823912 138.255101 
L 250.917025 143.387353 
L 252.010138 141.182619 
L 253.103251 155.886882 
L 254.196364 160.451229 
L 255.289477 168.937384 
L 256.38259 172.414 
L 257.475702 179.750065 
L 258.568815 190.574418 
L 259.661928 186.303957 
L 260.755041 192.733582 
L 261.848154 197.290704 
L 262.941267 204.983839 
L 264.03438 201.503617 
L 265.127493 203.868007 
L 266.220606 217.009295 
L 267.313719 222.732746 
L 268.406832 225.45454 
L 269.499945 224.191888 
L 270.593058 225.331727 
L 271.686171 227.303252 
L 272.779284 222.040058 
L 273.872397 219.517399 
L 274.96551 219.249031 
L 276.058623 221.397274 
L 277.151736 225.832298 
L 278.244848 228.405535 
L 279.337961 235.070739 
L 280.431074 239.104008 
L 282.6173 249.825243 
L 283.710413 251.771877 
L 284.803526 256.260577 
L 286.989752 266.861617 
L 288.082865 269.365172 
L 289.175978 273.661306 
L 290.269091 280.202699 
L 291.362204 283.339294 
L 292.455317 285.54522 
L 293.54843 286.529751 
L 294.641543 286.609973 
L 295.734656 284.402703 
L 296.827769 281.212232 
L 297.920882 275.205845 
L 299.013994 267.774146 
L 300.107107 258.304245 
L 302.293333 227.880451 
L 303.386446 216.509193 
L 304.479559 209.704992 
L 305.572672 185.614071 
L 306.665785 179.496892 
L 307.758898 181.286114 
L 308.852011 169.92536 
L 309.945124 148.024041 
L 311.038237 115.013003 
L 312.13135 108.519078 
L 313.224463 89.20247 
L 314.317576 75.146864 
L 315.410689 71.818405 
L 316.503802 72.12495 
L 317.596915 74.147027 
L 318.690028 82.291759 
L 319.78314 92.142885 
L 320.876253 106.899947 
L 321.969366 114.210802 
L 323.062479 118.33212 
L 324.155592 138.793438 
L 325.248705 130.995614 
L 326.341818 131.757717 
L 327.434931 124.376307 
L 328.528044 126.807184 
L 329.621157 127.652971 
L 330.71427 138.622182 
L 331.807383 159.46541 
L 332.900496 168.397119 
L 333.993609 187.974528 
L 335.086722 194.961985 
L 336.179835 207.422177 
L 337.272948 214.968186 
L 338.366061 212.701584 
L 339.459174 215.716305 
L 340.552287 221.563369 
L 341.645399 230.022416 
L 342.738512 239.574033 
L 343.831625 241.493239 
L 344.924738 250.495834 
L 346.017851 262.03345 
L 347.110964 267.226472 
L 348.204077 270.746911 
L 349.29719 272.027882 
L 350.390303 275.638035 
L 351.483416 278.507069 
L 352.576529 279.059573 
L 353.669642 278.957544 
L 354.762755 278.991496 
L 355.855868 279.953896 
L 356.948981 279.063004 
L 358.042094 277.117758 
L 359.135207 277.264371 
L 360.22832 277.530753 
L 361.321433 278.926544 
L 362.414545 280.546533 
L 363.507658 282.933623 
L 364.600771 284.848812 
L 366.786997 287.535685 
L 368.973223 289.070289 
L 371.159449 289.217617 
L 372.252562 288.384974 
L 373.345675 287.141187 
L 374.438788 285.299782 
L 376.625014 276.74135 
L 377.718127 270.489141 
L 379.904353 248.039035 
L 380.997466 242.697257 
L 382.090579 234.885899 
L 383.183691 225.834627 
L 384.276804 215.615851 
L 385.369917 214.347632 
L 386.46303 210.081723 
L 387.556143 205.270398 
L 388.649256 201.829677 
L 389.742369 190.303915 
L 390.835482 200.818541 
L 391.928595 204.470132 
L 393.021708 199.749987 
L 394.114821 197.357189 
L 395.207934 204.82185 
L 396.301047 210.658976 
L 397.39416 200.182688 
L 398.487273 199.92788 
L 398.487273 199.92788 
" style="fill:none;stroke:#ff7f0e;stroke-linecap:square;stroke-width:1.5;"/>
   </g>
   <g id="line2d_15">
    <path clip-path="url(#p109692f58f)" d="M 73.832727 285.078664 
L 74.92584 285.744041 
L 76.018953 285.483756 
L 77.112066 285.461142 
L 78.205179 283.063111 
L 79.298292 279.030804 
L 80.391405 276.322083 
L 82.577631 255.192145 
L 83.670744 235.444852 
L 84.763857 207.192863 
L 85.85697 191.082709 
L 86.950083 164.474565 
L 89.136309 123.517838 
L 90.229421 118.405467 
L 91.322534 111.639826 
L 92.415647 87.325822 
L 93.50876 76.958104 
L 94.601873 79.267549 
L 95.694986 76.285838 
L 96.788099 72.617649 
L 97.881212 75.20306 
L 98.974325 83.608774 
L 100.067438 94.085642 
L 101.160551 90.792232 
L 102.253664 99.957985 
L 103.346777 113.601656 
L 104.43989 120.443673 
L 105.533003 134.577399 
L 106.626116 136.117858 
L 107.719229 166.324322 
L 108.812342 174.992071 
L 109.905455 152.101992 
L 110.998567 153.841772 
L 112.09168 161.652152 
L 113.184793 165.843639 
L 114.277906 161.19971 
L 115.371019 165.539545 
L 116.464132 191.025827 
L 118.650358 200.117617 
L 119.743471 218.156732 
L 120.836584 220.624748 
L 121.929697 218.826213 
L 124.115923 237.226789 
L 125.209036 241.662977 
L 126.302149 242.432032 
L 127.395262 247.570639 
L 128.488375 256.966631 
L 129.581488 260.624834 
L 130.674601 259.682537 
L 131.767713 260.753502 
L 132.860826 264.926748 
L 133.953939 268.44225 
L 135.047052 270.186171 
L 136.140165 273.118103 
L 137.233278 279.152754 
L 138.326391 281.488277 
L 139.419504 280.645292 
L 140.512617 279.627872 
L 141.60573 279.925045 
L 143.791956 276.261283 
L 144.885069 274.551671 
L 145.978182 268.115244 
L 147.071295 258.347256 
L 148.164408 250.089894 
L 149.257521 247.605316 
L 150.350634 240.955988 
L 151.443747 231.075838 
L 152.53686 228.683969 
L 153.629972 224.348809 
L 154.723085 216.691106 
L 155.816198 205.612293 
L 156.909311 195.80882 
L 158.002424 193.869445 
L 159.095537 192.517309 
L 160.18865 195.345121 
L 161.281763 187.556572 
L 162.374876 164.664547 
L 163.467989 133.807562 
L 164.561102 120.817533 
L 165.654215 104.070507 
L 167.840441 86.179397 
L 168.933554 86.895778 
L 170.026667 100.24352 
L 171.11978 93.462301 
L 172.212893 91.32936 
L 173.306006 94.581924 
L 174.399118 107.974225 
L 175.492231 123.456846 
L 176.585344 132.342217 
L 177.678457 152.439786 
L 179.864683 174.320724 
L 180.957796 176.434296 
L 182.050909 179.526456 
L 183.144022 183.932852 
L 184.237135 194.343974 
L 185.330248 187.8687 
L 186.423361 187.744834 
L 187.516474 190.054805 
L 189.7027 195.338116 
L 190.795813 192.718196 
L 191.888926 203.116084 
L 192.982039 198.376209 
L 194.075152 202.415953 
L 195.168264 207.688304 
L 196.261377 207.497868 
L 198.447603 221.452766 
L 199.540716 226.420935 
L 200.633829 227.898162 
L 201.726942 224.979072 
L 203.913168 239.060487 
L 205.006281 244.972563 
L 207.192507 254.202263 
L 208.28562 261.667802 
L 209.378733 266.105823 
L 210.471846 266.450235 
L 211.564959 268.115839 
L 214.844298 280.148517 
L 217.030523 286.498369 
L 218.123636 288.503597 
L 219.216749 289.580483 
L 220.309862 289.98305 
L 221.402975 289.653244 
L 222.496088 289.586126 
L 224.682314 287.909529 
L 225.775427 286.169329 
L 226.86854 283.068166 
L 227.961653 278.440655 
L 231.240992 251.99666 
L 232.334105 241.774723 
L 233.427218 235.721974 
L 235.613444 209.352393 
L 236.706556 201.293634 
L 237.799669 185.825599 
L 241.079008 150.381916 
L 242.172121 143.782381 
L 243.265234 140.609721 
L 244.358347 141.687603 
L 245.45146 142.198523 
L 246.544573 133.331277 
L 247.637686 137.295543 
L 248.730799 143.445381 
L 249.823912 139.92704 
L 250.917025 144.804061 
L 252.010138 142.800996 
L 253.103251 157.95039 
L 254.196364 162.122603 
L 255.289477 170.898303 
L 256.38259 174.119369 
L 257.475702 181.576247 
L 258.568815 192.782258 
L 259.661928 187.45393 
L 260.755041 194.095186 
L 261.848154 198.652286 
L 262.941267 206.35288 
L 264.03438 203.931714 
L 265.127493 204.867469 
L 266.220606 218.453558 
L 267.313719 224.773406 
L 268.406832 228.498813 
L 269.499945 227.301351 
L 270.593058 227.3231 
L 271.686171 229.358665 
L 272.779284 226.443553 
L 273.872397 221.399765 
L 274.96551 221.581618 
L 276.058623 222.557909 
L 277.151736 227.437089 
L 278.244848 231.336388 
L 280.431074 242.067334 
L 281.524187 246.025771 
L 282.6173 252.158595 
L 283.710413 253.996739 
L 284.803526 257.771809 
L 286.989752 268.321711 
L 288.082865 270.701245 
L 289.175978 275.026008 
L 290.269091 281.814374 
L 291.362204 284.905024 
L 292.455317 287.033235 
L 293.54843 287.998087 
L 294.641543 288.118217 
L 295.734656 286.001505 
L 296.827769 282.906596 
L 297.920882 276.837503 
L 299.013994 269.491176 
L 300.107107 260.594493 
L 303.386446 219.389495 
L 304.479559 213.131008 
L 305.572672 187.171491 
L 306.665785 180.77289 
L 307.758898 182.68125 
L 308.852011 171.144768 
L 309.945124 149.638184 
L 311.038237 117.815096 
L 312.13135 110.612155 
L 313.224463 91.792828 
L 314.317576 79.930973 
L 315.410689 76.80645 
L 316.503802 78.279414 
L 317.596915 80.428416 
L 318.690028 87.075637 
L 319.78314 95.247721 
L 320.876253 109.014666 
L 321.969366 116.695189 
L 323.062479 120.167722 
L 324.155592 140.851204 
L 325.248705 133.46725 
L 326.341818 133.144823 
L 327.434931 125.920487 
L 328.528044 128.260886 
L 329.621157 129.252812 
L 330.71427 140.392177 
L 331.807383 162.221603 
L 332.900496 170.668904 
L 333.993609 191.294984 
L 335.086722 197.356583 
L 336.179835 209.250367 
L 337.272948 217.439535 
L 338.366061 214.762895 
L 339.459174 216.788596 
L 340.552287 223.057107 
L 341.645399 231.424923 
L 342.738512 242.209145 
L 343.831625 243.913994 
L 344.924738 252.159617 
L 346.017851 263.971313 
L 347.110964 268.925943 
L 348.204077 272.06317 
L 349.29719 273.19861 
L 350.390303 276.964648 
L 351.483416 279.8979 
L 352.576529 280.386014 
L 354.762755 280.280938 
L 355.855868 281.322422 
L 356.948981 280.38093 
L 358.042094 278.579478 
L 359.135207 278.551506 
L 360.22832 278.812182 
L 361.321433 280.277209 
L 362.414545 281.968337 
L 363.507658 284.373148 
L 364.600771 286.346156 
L 366.786997 289.027501 
L 368.973223 290.603562 
L 371.159449 290.774543 
L 372.252562 290.019254 
L 373.345675 288.771544 
L 374.438788 286.961896 
L 376.625014 278.369448 
L 377.718127 271.987693 
L 378.81124 262.071321 
L 379.904353 250.619722 
L 380.997466 245.710491 
L 382.090579 239.064575 
L 384.276804 219.828413 
L 385.369917 215.708413 
L 386.46303 213.440607 
L 387.556143 206.486284 
L 388.649256 203.066119 
L 389.742369 191.770793 
L 390.835482 202.341192 
L 391.928595 206.004537 
L 393.021708 201.395305 
L 394.114821 198.326721 
L 395.207934 206.008368 
L 396.301047 211.994236 
L 397.39416 204.861307 
L 398.487273 201.100505 
L 398.487273 201.100505 
" style="fill:none;stroke:#2ca02c;stroke-linecap:square;stroke-width:1.5;"/>
   </g>
   <g id="line2d_16">
    <path clip-path="url(#p109692f58f)" d="M 73.832727 280.523342 
L 74.92584 281.05728 
L 76.018953 280.730853 
L 77.112066 280.612552 
L 78.205179 278.84035 
L 79.298292 274.892672 
L 80.391405 273.514918 
L 82.577631 250.123277 
L 84.763857 200.179931 
L 85.85697 187.060425 
L 86.950083 159.561872 
L 89.136309 118.430306 
L 91.322534 108.435716 
L 92.415647 79.852076 
L 93.50876 69.402107 
L 94.601873 70.866327 
L 95.694986 66.483884 
L 96.788099 62.932293 
L 97.881212 65.071671 
L 98.974325 75.149698 
L 100.067438 86.958961 
L 101.160551 82.888 
L 103.346777 108.555489 
L 104.43989 116.377795 
L 105.533003 129.494841 
L 106.626116 131.996061 
L 107.719229 156.849521 
L 108.812342 170.133766 
L 109.905455 147.042138 
L 110.998567 145.529506 
L 112.09168 155.826857 
L 113.184793 161.789107 
L 114.277906 158.478058 
L 115.371019 159.030044 
L 116.464132 182.879601 
L 117.557245 191.257606 
L 118.650358 197.385313 
L 119.743471 214.54712 
L 120.836584 216.643415 
L 121.929697 216.413854 
L 123.02281 225.88584 
L 124.115923 233.833483 
L 125.209036 236.96359 
L 126.302149 238.768985 
L 127.395262 244.778248 
L 128.488375 253.508383 
L 129.581488 257.668341 
L 130.674601 256.229429 
L 131.767713 258.782845 
L 133.953939 266.04208 
L 135.047052 267.9852 
L 136.140165 270.751301 
L 137.233278 275.720079 
L 138.326391 278.020569 
L 140.512617 275.883745 
L 141.60573 276.611104 
L 142.698843 274.825365 
L 143.791956 273.328648 
L 144.885069 272.376779 
L 145.978182 265.571624 
L 147.071295 254.187343 
L 148.164408 246.380858 
L 149.257521 243.31795 
L 150.350634 235.733573 
L 151.443747 226.200743 
L 152.53686 224.890844 
L 153.629972 220.542757 
L 154.723085 212.289063 
L 155.816198 200.13653 
L 156.909311 192.579989 
L 158.002424 191.851806 
L 159.095537 190.486209 
L 160.18865 192.985215 
L 161.281763 185.492344 
L 162.374876 160.865503 
L 163.467989 127.806671 
L 164.561102 115.282375 
L 165.654215 99.930157 
L 166.747328 90.967896 
L 167.840441 79.611205 
L 168.933554 81.702705 
L 170.026667 95.74068 
L 171.11978 85.867171 
L 172.212893 86.607897 
L 173.306006 90.140126 
L 175.492231 118.472129 
L 176.585344 127.940215 
L 177.678457 145.039148 
L 178.77157 158.833358 
L 179.864683 168.489318 
L 180.957796 172.940017 
L 182.050909 176.894738 
L 183.144022 179.239438 
L 184.237135 191.124031 
L 185.330248 185.837674 
L 186.423361 185.709095 
L 187.516474 187.169894 
L 188.609587 190.051964 
L 189.7027 193.278204 
L 190.795813 190.819106 
L 191.888926 200.327106 
L 192.982039 196.259218 
L 194.075152 200.533971 
L 195.168264 205.342809 
L 196.261377 204.379933 
L 197.35449 212.119717 
L 198.447603 218.791395 
L 199.540716 223.326295 
L 200.633829 223.792953 
L 201.726942 221.412232 
L 202.820055 229.588438 
L 205.006281 241.242023 
L 206.099394 245.77897 
L 207.192507 251.271369 
L 208.28562 258.510365 
L 209.378733 263.449987 
L 210.471846 264.319569 
L 211.564959 266.107498 
L 213.751185 273.498497 
L 214.844298 276.718791 
L 215.93741 279.059476 
L 217.030523 281.905673 
L 218.123636 283.413809 
L 219.216749 284.389888 
L 220.309862 284.578018 
L 221.402975 284.105581 
L 222.496088 284.070724 
L 223.589201 283.446344 
L 225.775427 281.225704 
L 227.961653 275.011365 
L 229.054766 266.950268 
L 230.147879 258.057198 
L 231.240992 246.951832 
L 232.334105 237.634264 
L 233.427218 229.905893 
L 235.613444 205.538037 
L 236.706556 198.251378 
L 237.799669 183.021054 
L 241.079008 146.424316 
L 242.172121 139.825839 
L 243.265234 135.311645 
L 244.358347 137.623508 
L 245.45146 138.09282 
L 246.544573 129.893002 
L 247.637686 131.623844 
L 248.730799 139.183634 
L 249.823912 136.170999 
L 250.917025 140.523409 
L 252.010138 138.112222 
L 253.103251 151.660777 
L 256.38259 171.169518 
L 257.475702 175.297494 
L 258.568815 188.934369 
L 259.661928 185.394374 
L 261.848154 196.418526 
L 262.941267 204.003228 
L 264.03438 200.56585 
L 265.127493 202.684907 
L 266.220606 215.732937 
L 267.313719 221.65128 
L 268.406832 224.432587 
L 269.499945 223.188424 
L 270.593058 224.398308 
L 271.686171 226.307634 
L 272.779284 220.824278 
L 273.872397 218.52464 
L 274.96551 218.281324 
L 276.058623 220.416265 
L 277.151736 224.787108 
L 278.244848 227.377524 
L 279.337961 233.8916 
L 280.431074 237.766102 
L 282.6173 248.428504 
L 283.710413 250.595248 
L 284.803526 255.121134 
L 286.989752 265.655741 
L 288.082865 268.295567 
L 289.175978 272.327044 
L 290.269091 278.174578 
L 291.362204 280.6067 
L 292.455317 282.267242 
L 293.54843 282.991406 
L 294.641543 282.855268 
L 295.734656 280.990951 
L 296.827769 278.142708 
L 297.920882 273.572778 
L 299.013994 266.70435 
L 300.107107 256.848043 
L 302.293333 225.519969 
L 303.386446 214.840323 
L 304.479559 208.193957 
L 305.572672 183.533403 
L 306.665785 177.645116 
L 307.758898 178.567169 
L 308.852011 168.50562 
L 309.945124 146.192735 
L 311.038237 111.181155 
L 312.13135 106.32095 
L 313.224463 87.161077 
L 314.317576 72.510997 
L 315.410689 68.407328 
L 316.503802 69.327128 
L 317.596915 71.648472 
L 318.690028 79.993149 
L 319.78314 90.027528 
L 320.876253 104.505465 
L 321.969366 112.110872 
L 323.062479 116.460635 
L 324.155592 135.153106 
L 325.248705 129.176353 
L 326.341818 129.762148 
L 327.434931 122.292061 
L 328.528044 124.634477 
L 329.621157 125.687846 
L 330.71427 133.606726 
L 331.807383 155.811328 
L 332.900496 165.769027 
L 333.993609 185.739862 
L 335.086722 193.38662 
L 336.179835 206.135522 
L 337.272948 213.764576 
L 338.366061 211.773514 
L 339.459174 214.800759 
L 340.552287 220.631115 
L 341.645399 228.784433 
L 342.738512 238.082422 
L 343.831625 240.124788 
L 344.924738 248.972974 
L 346.017851 260.238948 
L 347.110964 265.834841 
L 348.204077 269.678117 
L 349.29719 270.991855 
L 350.390303 274.067778 
L 351.483416 276.640266 
L 352.576529 276.908125 
L 353.669642 276.504067 
L 355.855868 277.218049 
L 356.948981 277.126254 
L 358.042094 274.834689 
L 359.135207 275.476389 
L 360.22832 275.471334 
L 361.321433 276.462124 
L 364.600771 281.692158 
L 365.693884 282.650221 
L 366.786997 283.842341 
L 367.88011 284.549028 
L 368.973223 285.09725 
L 370.066336 285.213955 
L 371.159449 285.217051 
L 373.345675 283.256732 
L 374.438788 281.665319 
L 375.531901 277.891988 
L 376.625014 274.636286 
L 377.718127 269.469023 
L 379.904353 246.072531 
L 380.997466 241.374688 
L 382.090579 233.435839 
L 383.183691 224.464055 
L 384.276804 214.162467 
L 385.369917 212.909614 
L 386.46303 209.011455 
L 387.556143 204.150837 
L 388.649256 200.899737 
L 389.742369 189.045877 
L 390.835482 197.480352 
L 391.928595 203.638926 
L 393.021708 198.884256 
L 394.114821 196.413566 
L 396.301047 209.811885 
L 397.39416 198.760878 
L 398.487273 198.353228 
L 398.487273 198.353228 
" style="fill:none;stroke:#d62728;stroke-linecap:square;stroke-width:1.5;"/>
   </g>
   <g id="patch_3">
    <path d="M 57.6 307.584 
L 57.6 41.472 
" style="fill:none;stroke:#000000;stroke-linecap:square;stroke-linejoin:miter;stroke-width:0.8;"/>
   </g>
   <g id="patch_4">
    <path d="M 414.72 307.584 
L 414.72 41.472 
" style="fill:none;stroke:#000000;stroke-linecap:square;stroke-linejoin:miter;stroke-width:0.8;"/>
   </g>
   <g id="patch_5">
    <path d="M 57.6 307.584 
L 414.72 307.584 
" style="fill:none;stroke:#000000;stroke-linecap:square;stroke-linejoin:miter;stroke-width:0.8;"/>
   </g>
   <g id="patch_6">
    <path d="M 57.6 41.472 
L 414.72 41.472 
" style="fill:none;stroke:#000000;stroke-linecap:square;stroke-linejoin:miter;stroke-width:0.8;"/>
   </g>
   <g id="text_13">
    <!-- Plot of Train Data vs MCMC Uncertainty  -->
    <defs>
     <path d="M 19.671875 64.796875 
L 19.671875 37.40625 
L 32.078125 37.40625 
Q 38.96875 37.40625 42.71875 40.96875 
Q 46.484375 44.53125 46.484375 51.125 
Q 46.484375 57.671875 42.71875 61.234375 
Q 38.96875 64.796875 32.078125 64.796875 
z
M 9.8125 72.90625 
L 32.078125 72.90625 
Q 44.34375 72.90625 50.609375 67.359375 
Q 56.890625 61.8125 56.890625 51.125 
Q 56.890625 40.328125 50.609375 34.8125 
Q 44.34375 29.296875 32.078125 29.296875 
L 19.671875 29.296875 
L 19.671875 0 
L 9.8125 0 
z
" id="DejaVuSans-80"/>
     <path d="M 9.421875 75.984375 
L 18.40625 75.984375 
L 18.40625 0 
L 9.421875 0 
z
" id="DejaVuSans-108"/>
     <path d="M 30.609375 48.390625 
Q 23.390625 48.390625 19.1875 42.75 
Q 14.984375 37.109375 14.984375 27.296875 
Q 14.984375 17.484375 19.15625 11.84375 
Q 23.34375 6.203125 30.609375 6.203125 
Q 37.796875 6.203125 41.984375 11.859375 
Q 46.1875 17.53125 46.1875 27.296875 
Q 46.1875 37.015625 41.984375 42.703125 
Q 37.796875 48.390625 30.609375 48.390625 
z
M 30.609375 56 
Q 42.328125 56 49.015625 48.375 
Q 55.71875 40.765625 55.71875 27.296875 
Q 55.71875 13.875 49.015625 6.21875 
Q 42.328125 -1.421875 30.609375 -1.421875 
Q 18.84375 -1.421875 12.171875 6.21875 
Q 5.515625 13.875 5.515625 27.296875 
Q 5.515625 40.765625 12.171875 48.375 
Q 18.84375 56 30.609375 56 
z
" id="DejaVuSans-111"/>
     <path d="M 18.3125 70.21875 
L 18.3125 54.6875 
L 36.8125 54.6875 
L 36.8125 47.703125 
L 18.3125 47.703125 
L 18.3125 18.015625 
Q 18.3125 11.328125 20.140625 9.421875 
Q 21.96875 7.515625 27.59375 7.515625 
L 36.8125 7.515625 
L 36.8125 0 
L 27.59375 0 
Q 17.1875 0 13.234375 3.875 
Q 9.28125 7.765625 9.28125 18.015625 
L 9.28125 47.703125 
L 2.6875 47.703125 
L 2.6875 54.6875 
L 9.28125 54.6875 
L 9.28125 70.21875 
z
" id="DejaVuSans-116"/>
     <path id="DejaVuSans-32"/>
     <path d="M 37.109375 75.984375 
L 37.109375 68.5 
L 28.515625 68.5 
Q 23.6875 68.5 21.796875 66.546875 
Q 19.921875 64.59375 19.921875 59.515625 
L 19.921875 54.6875 
L 34.71875 54.6875 
L 34.71875 47.703125 
L 19.921875 47.703125 
L 19.921875 0 
L 10.890625 0 
L 10.890625 47.703125 
L 2.296875 47.703125 
L 2.296875 54.6875 
L 10.890625 54.6875 
L 10.890625 58.5 
Q 10.890625 67.625 15.140625 71.796875 
Q 19.390625 75.984375 28.609375 75.984375 
z
" id="DejaVuSans-102"/>
     <path d="M -0.296875 72.90625 
L 61.375 72.90625 
L 61.375 64.59375 
L 35.5 64.59375 
L 35.5 0 
L 25.59375 0 
L 25.59375 64.59375 
L -0.296875 64.59375 
z
" id="DejaVuSans-84"/>
     <path d="M 41.109375 46.296875 
Q 39.59375 47.171875 37.8125 47.578125 
Q 36.03125 48 33.890625 48 
Q 26.265625 48 22.1875 43.046875 
Q 18.109375 38.09375 18.109375 28.8125 
L 18.109375 0 
L 9.078125 0 
L 9.078125 54.6875 
L 18.109375 54.6875 
L 18.109375 46.1875 
Q 20.953125 51.171875 25.484375 53.578125 
Q 30.03125 56 36.53125 56 
Q 37.453125 56 38.578125 55.875 
Q 39.703125 55.765625 41.0625 55.515625 
z
" id="DejaVuSans-114"/>
     <path d="M 34.28125 27.484375 
Q 23.390625 27.484375 19.1875 25 
Q 14.984375 22.515625 14.984375 16.5 
Q 14.984375 11.71875 18.140625 8.90625 
Q 21.296875 6.109375 26.703125 6.109375 
Q 34.1875 6.109375 38.703125 11.40625 
Q 43.21875 16.703125 43.21875 25.484375 
L 43.21875 27.484375 
z
M 52.203125 31.203125 
L 52.203125 0 
L 43.21875 0 
L 43.21875 8.296875 
Q 40.140625 3.328125 35.546875 0.953125 
Q 30.953125 -1.421875 24.3125 -1.421875 
Q 15.921875 -1.421875 10.953125 3.296875 
Q 6 8.015625 6 15.921875 
Q 6 25.140625 12.171875 29.828125 
Q 18.359375 34.515625 30.609375 34.515625 
L 43.21875 34.515625 
L 43.21875 35.40625 
Q 43.21875 41.609375 39.140625 45 
Q 35.0625 48.390625 27.6875 48.390625 
Q 23 48.390625 18.546875 47.265625 
Q 14.109375 46.140625 10.015625 43.890625 
L 10.015625 52.203125 
Q 14.9375 54.109375 19.578125 55.046875 
Q 24.21875 56 28.609375 56 
Q 40.484375 56 46.34375 49.84375 
Q 52.203125 43.703125 52.203125 31.203125 
z
" id="DejaVuSans-97"/>
     <path d="M 9.421875 54.6875 
L 18.40625 54.6875 
L 18.40625 0 
L 9.421875 0 
z
M 9.421875 75.984375 
L 18.40625 75.984375 
L 18.40625 64.59375 
L 9.421875 64.59375 
z
" id="DejaVuSans-105"/>
     <path d="M 54.890625 33.015625 
L 54.890625 0 
L 45.90625 0 
L 45.90625 32.71875 
Q 45.90625 40.484375 42.875 44.328125 
Q 39.84375 48.1875 33.796875 48.1875 
Q 26.515625 48.1875 22.3125 43.546875 
Q 18.109375 38.921875 18.109375 30.90625 
L 18.109375 0 
L 9.078125 0 
L 9.078125 54.6875 
L 18.109375 54.6875 
L 18.109375 46.1875 
Q 21.34375 51.125 25.703125 53.5625 
Q 30.078125 56 35.796875 56 
Q 45.21875 56 50.046875 50.171875 
Q 54.890625 44.34375 54.890625 33.015625 
z
" id="DejaVuSans-110"/>
     <path d="M 19.671875 64.796875 
L 19.671875 8.109375 
L 31.59375 8.109375 
Q 46.6875 8.109375 53.6875 14.9375 
Q 60.6875 21.78125 60.6875 36.53125 
Q 60.6875 51.171875 53.6875 57.984375 
Q 46.6875 64.796875 31.59375 64.796875 
z
M 9.8125 72.90625 
L 30.078125 72.90625 
Q 51.265625 72.90625 61.171875 64.09375 
Q 71.09375 55.28125 71.09375 36.53125 
Q 71.09375 17.671875 61.125 8.828125 
Q 51.171875 0 30.078125 0 
L 9.8125 0 
z
" id="DejaVuSans-68"/>
     <path d="M 2.984375 54.6875 
L 12.5 54.6875 
L 29.59375 8.796875 
L 46.6875 54.6875 
L 56.203125 54.6875 
L 35.6875 0 
L 23.484375 0 
z
" id="DejaVuSans-118"/>
     <path d="M 44.28125 53.078125 
L 44.28125 44.578125 
Q 40.484375 46.53125 36.375 47.5 
Q 32.28125 48.484375 27.875 48.484375 
Q 21.1875 48.484375 17.84375 46.4375 
Q 14.5 44.390625 14.5 40.28125 
Q 14.5 37.15625 16.890625 35.375 
Q 19.28125 33.59375 26.515625 31.984375 
L 29.59375 31.296875 
Q 39.15625 29.25 43.1875 25.515625 
Q 47.21875 21.78125 47.21875 15.09375 
Q 47.21875 7.46875 41.1875 3.015625 
Q 35.15625 -1.421875 24.609375 -1.421875 
Q 20.21875 -1.421875 15.453125 -0.5625 
Q 10.6875 0.296875 5.421875 2 
L 5.421875 11.28125 
Q 10.40625 8.6875 15.234375 7.390625 
Q 20.0625 6.109375 24.8125 6.109375 
Q 31.15625 6.109375 34.5625 8.28125 
Q 37.984375 10.453125 37.984375 14.40625 
Q 37.984375 18.0625 35.515625 20.015625 
Q 33.0625 21.96875 24.703125 23.78125 
L 21.578125 24.515625 
Q 13.234375 26.265625 9.515625 29.90625 
Q 5.8125 33.546875 5.8125 39.890625 
Q 5.8125 47.609375 11.28125 51.796875 
Q 16.75 56 26.8125 56 
Q 31.78125 56 36.171875 55.265625 
Q 40.578125 54.546875 44.28125 53.078125 
z
" id="DejaVuSans-115"/>
     <path d="M 9.8125 72.90625 
L 24.515625 72.90625 
L 43.109375 23.296875 
L 61.8125 72.90625 
L 76.515625 72.90625 
L 76.515625 0 
L 66.890625 0 
L 66.890625 64.015625 
L 48.09375 14.015625 
L 38.1875 14.015625 
L 19.390625 64.015625 
L 19.390625 0 
L 9.8125 0 
z
" id="DejaVuSans-77"/>
     <path d="M 64.40625 67.28125 
L 64.40625 56.890625 
Q 59.421875 61.53125 53.78125 63.8125 
Q 48.140625 66.109375 41.796875 66.109375 
Q 29.296875 66.109375 22.65625 58.46875 
Q 16.015625 50.828125 16.015625 36.375 
Q 16.015625 21.96875 22.65625 14.328125 
Q 29.296875 6.6875 41.796875 6.6875 
Q 48.140625 6.6875 53.78125 8.984375 
Q 59.421875 11.28125 64.40625 15.921875 
L 64.40625 5.609375 
Q 59.234375 2.09375 53.4375 0.328125 
Q 47.65625 -1.421875 41.21875 -1.421875 
Q 24.65625 -1.421875 15.125 8.703125 
Q 5.609375 18.84375 5.609375 36.375 
Q 5.609375 53.953125 15.125 64.078125 
Q 24.65625 74.21875 41.21875 74.21875 
Q 47.75 74.21875 53.53125 72.484375 
Q 59.328125 70.75 64.40625 67.28125 
z
" id="DejaVuSans-67"/>
     <path d="M 8.6875 72.90625 
L 18.609375 72.90625 
L 18.609375 28.609375 
Q 18.609375 16.890625 22.84375 11.734375 
Q 27.09375 6.59375 36.625 6.59375 
Q 46.09375 6.59375 50.34375 11.734375 
Q 54.59375 16.890625 54.59375 28.609375 
L 54.59375 72.90625 
L 64.5 72.90625 
L 64.5 27.390625 
Q 64.5 13.140625 57.4375 5.859375 
Q 50.390625 -1.421875 36.625 -1.421875 
Q 22.796875 -1.421875 15.734375 5.859375 
Q 8.6875 13.140625 8.6875 27.390625 
z
" id="DejaVuSans-85"/>
     <path d="M 48.78125 52.59375 
L 48.78125 44.1875 
Q 44.96875 46.296875 41.140625 47.34375 
Q 37.3125 48.390625 33.40625 48.390625 
Q 24.65625 48.390625 19.8125 42.84375 
Q 14.984375 37.3125 14.984375 27.296875 
Q 14.984375 17.28125 19.8125 11.734375 
Q 24.65625 6.203125 33.40625 6.203125 
Q 37.3125 6.203125 41.140625 7.25 
Q 44.96875 8.296875 48.78125 10.40625 
L 48.78125 2.09375 
Q 45.015625 0.34375 40.984375 -0.53125 
Q 36.96875 -1.421875 32.421875 -1.421875 
Q 20.0625 -1.421875 12.78125 6.34375 
Q 5.515625 14.109375 5.515625 27.296875 
Q 5.515625 40.671875 12.859375 48.328125 
Q 20.21875 56 33.015625 56 
Q 37.15625 56 41.109375 55.140625 
Q 45.0625 54.296875 48.78125 52.59375 
z
" id="DejaVuSans-99"/>
     <path d="M 56.203125 29.59375 
L 56.203125 25.203125 
L 14.890625 25.203125 
Q 15.484375 15.921875 20.484375 11.0625 
Q 25.484375 6.203125 34.421875 6.203125 
Q 39.59375 6.203125 44.453125 7.46875 
Q 49.3125 8.734375 54.109375 11.28125 
L 54.109375 2.78125 
Q 49.265625 0.734375 44.1875 -0.34375 
Q 39.109375 -1.421875 33.890625 -1.421875 
Q 20.796875 -1.421875 13.15625 6.1875 
Q 5.515625 13.8125 5.515625 26.8125 
Q 5.515625 40.234375 12.765625 48.109375 
Q 20.015625 56 32.328125 56 
Q 43.359375 56 49.78125 48.890625 
Q 56.203125 41.796875 56.203125 29.59375 
z
M 47.21875 32.234375 
Q 47.125 39.59375 43.09375 43.984375 
Q 39.0625 48.390625 32.421875 48.390625 
Q 24.90625 48.390625 20.390625 44.140625 
Q 15.875 39.890625 15.1875 32.171875 
z
" id="DejaVuSans-101"/>
     <path d="M 32.171875 -5.078125 
Q 28.375 -14.84375 24.75 -17.8125 
Q 21.140625 -20.796875 15.09375 -20.796875 
L 7.90625 -20.796875 
L 7.90625 -13.28125 
L 13.1875 -13.28125 
Q 16.890625 -13.28125 18.9375 -11.515625 
Q 21 -9.765625 23.484375 -3.21875 
L 25.09375 0.875 
L 2.984375 54.6875 
L 12.5 54.6875 
L 29.59375 11.921875 
L 46.6875 54.6875 
L 56.203125 54.6875 
z
" id="DejaVuSans-121"/>
    </defs>
    <g transform="translate(115.666875 35.472)scale(0.12 -0.12)">
     <use xlink:href="#DejaVuSans-80"/>
     <use x="60.302734" xlink:href="#DejaVuSans-108"/>
     <use x="88.085938" xlink:href="#DejaVuSans-111"/>
     <use x="149.267578" xlink:href="#DejaVuSans-116"/>
     <use x="188.476562" xlink:href="#DejaVuSans-32"/>
     <use x="220.263672" xlink:href="#DejaVuSans-111"/>
     <use x="281.445312" xlink:href="#DejaVuSans-102"/>
     <use x="316.650391" xlink:href="#DejaVuSans-32"/>
     <use x="348.4375" xlink:href="#DejaVuSans-84"/>
     <use x="409.302734" xlink:href="#DejaVuSans-114"/>
     <use x="450.416016" xlink:href="#DejaVuSans-97"/>
     <use x="511.695312" xlink:href="#DejaVuSans-105"/>
     <use x="539.478516" xlink:href="#DejaVuSans-110"/>
     <use x="602.857422" xlink:href="#DejaVuSans-32"/>
     <use x="634.644531" xlink:href="#DejaVuSans-68"/>
     <use x="711.646484" xlink:href="#DejaVuSans-97"/>
     <use x="772.925781" xlink:href="#DejaVuSans-116"/>
     <use x="812.134766" xlink:href="#DejaVuSans-97"/>
     <use x="873.414062" xlink:href="#DejaVuSans-32"/>
     <use x="905.201172" xlink:href="#DejaVuSans-118"/>
     <use x="964.380859" xlink:href="#DejaVuSans-115"/>
     <use x="1016.480469" xlink:href="#DejaVuSans-32"/>
     <use x="1048.267578" xlink:href="#DejaVuSans-77"/>
     <use x="1134.546875" xlink:href="#DejaVuSans-67"/>
     <use x="1204.371094" xlink:href="#DejaVuSans-77"/>
     <use x="1290.650391" xlink:href="#DejaVuSans-67"/>
     <use x="1360.474609" xlink:href="#DejaVuSans-32"/>
     <use x="1392.261719" xlink:href="#DejaVuSans-85"/>
     <use x="1465.455078" xlink:href="#DejaVuSans-110"/>
     <use x="1528.833984" xlink:href="#DejaVuSans-99"/>
     <use x="1583.814453" xlink:href="#DejaVuSans-101"/>
     <use x="1645.337891" xlink:href="#DejaVuSans-114"/>
     <use x="1686.451172" xlink:href="#DejaVuSans-116"/>
     <use x="1725.660156" xlink:href="#DejaVuSans-97"/>
     <use x="1786.939453" xlink:href="#DejaVuSans-105"/>
     <use x="1814.722656" xlink:href="#DejaVuSans-110"/>
     <use x="1878.101562" xlink:href="#DejaVuSans-116"/>
     <use x="1917.310547" xlink:href="#DejaVuSans-121"/>
     <use x="1976.490234" xlink:href="#DejaVuSans-32"/>
    </g>
   </g>
   <g id="legend_1">
    <g id="patch_7">
     <path d="M 277.843437 108.1845 
L 407.72 108.1845 
Q 409.72 108.1845 409.72 106.1845 
L 409.72 48.472 
Q 409.72 46.472 407.72 46.472 
L 277.843437 46.472 
Q 275.843437 46.472 275.843437 48.472 
L 275.843437 106.1845 
Q 275.843437 108.1845 277.843437 108.1845 
z
" style="fill:#ffffff;opacity:0.8;stroke:#cccccc;stroke-linejoin:miter;"/>
    </g>
    <g id="line2d_17">
     <path d="M 279.843437 54.570438 
L 299.843437 54.570438 
" style="fill:none;stroke:#1f77b4;stroke-linecap:square;stroke-width:1.5;"/>
    </g>
    <g id="line2d_18"/>
    <g id="text_14">
     <!-- actual -->
     <defs>
      <path d="M 8.5 21.578125 
L 8.5 54.6875 
L 17.484375 54.6875 
L 17.484375 21.921875 
Q 17.484375 14.15625 20.5 10.265625 
Q 23.53125 6.390625 29.59375 6.390625 
Q 36.859375 6.390625 41.078125 11.03125 
Q 45.3125 15.671875 45.3125 23.6875 
L 45.3125 54.6875 
L 54.296875 54.6875 
L 54.296875 0 
L 45.3125 0 
L 45.3125 8.40625 
Q 42.046875 3.421875 37.71875 1 
Q 33.40625 -1.421875 27.6875 -1.421875 
Q 18.265625 -1.421875 13.375 4.4375 
Q 8.5 10.296875 8.5 21.578125 
z
M 31.109375 56 
z
" id="DejaVuSans-117"/>
     </defs>
     <g transform="translate(307.843437 58.070438)scale(0.1 -0.1)">
      <use xlink:href="#DejaVuSans-97"/>
      <use x="61.279297" xlink:href="#DejaVuSans-99"/>
      <use x="116.259766" xlink:href="#DejaVuSans-116"/>
      <use x="155.46875" xlink:href="#DejaVuSans-117"/>
      <use x="218.847656" xlink:href="#DejaVuSans-97"/>
      <use x="280.126953" xlink:href="#DejaVuSans-108"/>
     </g>
    </g>
    <g id="line2d_19">
     <path d="M 279.843437 69.248563 
L 299.843437 69.248563 
" style="fill:none;stroke:#ff7f0e;stroke-linecap:square;stroke-width:1.5;"/>
    </g>
    <g id="line2d_20"/>
    <g id="text_15">
     <!-- pred. (mean) -->
     <defs>
      <path d="M 18.109375 8.203125 
L 18.109375 -20.796875 
L 9.078125 -20.796875 
L 9.078125 54.6875 
L 18.109375 54.6875 
L 18.109375 46.390625 
Q 20.953125 51.265625 25.265625 53.625 
Q 29.59375 56 35.59375 56 
Q 45.5625 56 51.78125 48.09375 
Q 58.015625 40.1875 58.015625 27.296875 
Q 58.015625 14.40625 51.78125 6.484375 
Q 45.5625 -1.421875 35.59375 -1.421875 
Q 29.59375 -1.421875 25.265625 0.953125 
Q 20.953125 3.328125 18.109375 8.203125 
z
M 48.6875 27.296875 
Q 48.6875 37.203125 44.609375 42.84375 
Q 40.53125 48.484375 33.40625 48.484375 
Q 26.265625 48.484375 22.1875 42.84375 
Q 18.109375 37.203125 18.109375 27.296875 
Q 18.109375 17.390625 22.1875 11.75 
Q 26.265625 6.109375 33.40625 6.109375 
Q 40.53125 6.109375 44.609375 11.75 
Q 48.6875 17.390625 48.6875 27.296875 
z
" id="DejaVuSans-112"/>
      <path d="M 45.40625 46.390625 
L 45.40625 75.984375 
L 54.390625 75.984375 
L 54.390625 0 
L 45.40625 0 
L 45.40625 8.203125 
Q 42.578125 3.328125 38.25 0.953125 
Q 33.9375 -1.421875 27.875 -1.421875 
Q 17.96875 -1.421875 11.734375 6.484375 
Q 5.515625 14.40625 5.515625 27.296875 
Q 5.515625 40.1875 11.734375 48.09375 
Q 17.96875 56 27.875 56 
Q 33.9375 56 38.25 53.625 
Q 42.578125 51.265625 45.40625 46.390625 
z
M 14.796875 27.296875 
Q 14.796875 17.390625 18.875 11.75 
Q 22.953125 6.109375 30.078125 6.109375 
Q 37.203125 6.109375 41.296875 11.75 
Q 45.40625 17.390625 45.40625 27.296875 
Q 45.40625 37.203125 41.296875 42.84375 
Q 37.203125 48.484375 30.078125 48.484375 
Q 22.953125 48.484375 18.875 42.84375 
Q 14.796875 37.203125 14.796875 27.296875 
z
" id="DejaVuSans-100"/>
      <path d="M 31 75.875 
Q 24.46875 64.65625 21.28125 53.65625 
Q 18.109375 42.671875 18.109375 31.390625 
Q 18.109375 20.125 21.3125 9.0625 
Q 24.515625 -2 31 -13.1875 
L 23.1875 -13.1875 
Q 15.875 -1.703125 12.234375 9.375 
Q 8.59375 20.453125 8.59375 31.390625 
Q 8.59375 42.28125 12.203125 53.3125 
Q 15.828125 64.359375 23.1875 75.875 
z
" id="DejaVuSans-40"/>
      <path d="M 52 44.1875 
Q 55.375 50.25 60.0625 53.125 
Q 64.75 56 71.09375 56 
Q 79.640625 56 84.28125 50.015625 
Q 88.921875 44.046875 88.921875 33.015625 
L 88.921875 0 
L 79.890625 0 
L 79.890625 32.71875 
Q 79.890625 40.578125 77.09375 44.375 
Q 74.3125 48.1875 68.609375 48.1875 
Q 61.625 48.1875 57.5625 43.546875 
Q 53.515625 38.921875 53.515625 30.90625 
L 53.515625 0 
L 44.484375 0 
L 44.484375 32.71875 
Q 44.484375 40.625 41.703125 44.40625 
Q 38.921875 48.1875 33.109375 48.1875 
Q 26.21875 48.1875 22.15625 43.53125 
Q 18.109375 38.875 18.109375 30.90625 
L 18.109375 0 
L 9.078125 0 
L 9.078125 54.6875 
L 18.109375 54.6875 
L 18.109375 46.1875 
Q 21.1875 51.21875 25.484375 53.609375 
Q 29.78125 56 35.6875 56 
Q 41.65625 56 45.828125 52.96875 
Q 50 49.953125 52 44.1875 
z
" id="DejaVuSans-109"/>
      <path d="M 8.015625 75.875 
L 15.828125 75.875 
Q 23.140625 64.359375 26.78125 53.3125 
Q 30.421875 42.28125 30.421875 31.390625 
Q 30.421875 20.453125 26.78125 9.375 
Q 23.140625 -1.703125 15.828125 -13.1875 
L 8.015625 -13.1875 
Q 14.5 -2 17.703125 9.0625 
Q 20.90625 20.125 20.90625 31.390625 
Q 20.90625 42.671875 17.703125 53.65625 
Q 14.5 64.65625 8.015625 75.875 
z
" id="DejaVuSans-41"/>
     </defs>
     <g transform="translate(307.843437 72.748563)scale(0.1 -0.1)">
      <use xlink:href="#DejaVuSans-112"/>
      <use x="63.476562" xlink:href="#DejaVuSans-114"/>
      <use x="104.558594" xlink:href="#DejaVuSans-101"/>
      <use x="166.082031" xlink:href="#DejaVuSans-100"/>
      <use x="229.558594" xlink:href="#DejaVuSans-46"/>
      <use x="261.345703" xlink:href="#DejaVuSans-32"/>
      <use x="293.132812" xlink:href="#DejaVuSans-40"/>
      <use x="332.146484" xlink:href="#DejaVuSans-109"/>
      <use x="429.558594" xlink:href="#DejaVuSans-101"/>
      <use x="491.082031" xlink:href="#DejaVuSans-97"/>
      <use x="552.361328" xlink:href="#DejaVuSans-110"/>
      <use x="615.740234" xlink:href="#DejaVuSans-41"/>
     </g>
    </g>
    <g id="line2d_21">
     <path d="M 279.843437 83.926688 
L 299.843437 83.926688 
" style="fill:none;stroke:#2ca02c;stroke-linecap:square;stroke-width:1.5;"/>
    </g>
    <g id="line2d_22"/>
    <g id="text_16">
     <!-- pred.(5th percen.) -->
     <defs>
      <path d="M 10.796875 72.90625 
L 49.515625 72.90625 
L 49.515625 64.59375 
L 19.828125 64.59375 
L 19.828125 46.734375 
Q 21.96875 47.46875 24.109375 47.828125 
Q 26.265625 48.1875 28.421875 48.1875 
Q 40.625 48.1875 47.75 41.5 
Q 54.890625 34.8125 54.890625 23.390625 
Q 54.890625 11.625 47.5625 5.09375 
Q 40.234375 -1.421875 26.90625 -1.421875 
Q 22.3125 -1.421875 17.546875 -0.640625 
Q 12.796875 0.140625 7.71875 1.703125 
L 7.71875 11.625 
Q 12.109375 9.234375 16.796875 8.0625 
Q 21.484375 6.890625 26.703125 6.890625 
Q 35.15625 6.890625 40.078125 11.328125 
Q 45.015625 15.765625 45.015625 23.390625 
Q 45.015625 31 40.078125 35.4375 
Q 35.15625 39.890625 26.703125 39.890625 
Q 22.75 39.890625 18.8125 39.015625 
Q 14.890625 38.140625 10.796875 36.28125 
z
" id="DejaVuSans-53"/>
      <path d="M 54.890625 33.015625 
L 54.890625 0 
L 45.90625 0 
L 45.90625 32.71875 
Q 45.90625 40.484375 42.875 44.328125 
Q 39.84375 48.1875 33.796875 48.1875 
Q 26.515625 48.1875 22.3125 43.546875 
Q 18.109375 38.921875 18.109375 30.90625 
L 18.109375 0 
L 9.078125 0 
L 9.078125 75.984375 
L 18.109375 75.984375 
L 18.109375 46.1875 
Q 21.34375 51.125 25.703125 53.5625 
Q 30.078125 56 35.796875 56 
Q 45.21875 56 50.046875 50.171875 
Q 54.890625 44.34375 54.890625 33.015625 
z
" id="DejaVuSans-104"/>
     </defs>
     <g transform="translate(307.843437 87.426688)scale(0.1 -0.1)">
      <use xlink:href="#DejaVuSans-112"/>
      <use x="63.476562" xlink:href="#DejaVuSans-114"/>
      <use x="104.558594" xlink:href="#DejaVuSans-101"/>
      <use x="166.082031" xlink:href="#DejaVuSans-100"/>
      <use x="229.558594" xlink:href="#DejaVuSans-46"/>
      <use x="261.345703" xlink:href="#DejaVuSans-40"/>
      <use x="300.359375" xlink:href="#DejaVuSans-53"/>
      <use x="363.982422" xlink:href="#DejaVuSans-116"/>
      <use x="403.191406" xlink:href="#DejaVuSans-104"/>
      <use x="466.570312" xlink:href="#DejaVuSans-32"/>
      <use x="498.357422" xlink:href="#DejaVuSans-112"/>
      <use x="561.833984" xlink:href="#DejaVuSans-101"/>
      <use x="623.357422" xlink:href="#DejaVuSans-114"/>
      <use x="664.439453" xlink:href="#DejaVuSans-99"/>
      <use x="719.419922" xlink:href="#DejaVuSans-101"/>
      <use x="780.943359" xlink:href="#DejaVuSans-110"/>
      <use x="844.322266" xlink:href="#DejaVuSans-46"/>
      <use x="876.109375" xlink:href="#DejaVuSans-41"/>
     </g>
    </g>
    <g id="line2d_23">
     <path d="M 279.843437 98.604813 
L 299.843437 98.604813 
" style="fill:none;stroke:#d62728;stroke-linecap:square;stroke-width:1.5;"/>
    </g>
    <g id="line2d_24"/>
    <g id="text_17">
     <!-- pred.(95th percen.) -->
     <defs>
      <path d="M 10.984375 1.515625 
L 10.984375 10.5 
Q 14.703125 8.734375 18.5 7.8125 
Q 22.3125 6.890625 25.984375 6.890625 
Q 35.75 6.890625 40.890625 13.453125 
Q 46.046875 20.015625 46.78125 33.40625 
Q 43.953125 29.203125 39.59375 26.953125 
Q 35.25 24.703125 29.984375 24.703125 
Q 19.046875 24.703125 12.671875 31.3125 
Q 6.296875 37.9375 6.296875 49.421875 
Q 6.296875 60.640625 12.9375 67.421875 
Q 19.578125 74.21875 30.609375 74.21875 
Q 43.265625 74.21875 49.921875 64.515625 
Q 56.59375 54.828125 56.59375 36.375 
Q 56.59375 19.140625 48.40625 8.859375 
Q 40.234375 -1.421875 26.421875 -1.421875 
Q 22.703125 -1.421875 18.890625 -0.6875 
Q 15.09375 0.046875 10.984375 1.515625 
z
M 30.609375 32.421875 
Q 37.25 32.421875 41.125 36.953125 
Q 45.015625 41.5 45.015625 49.421875 
Q 45.015625 57.28125 41.125 61.84375 
Q 37.25 66.40625 30.609375 66.40625 
Q 23.96875 66.40625 20.09375 61.84375 
Q 16.21875 57.28125 16.21875 49.421875 
Q 16.21875 41.5 20.09375 36.953125 
Q 23.96875 32.421875 30.609375 32.421875 
z
" id="DejaVuSans-57"/>
     </defs>
     <g transform="translate(307.843437 102.104813)scale(0.1 -0.1)">
      <use xlink:href="#DejaVuSans-112"/>
      <use x="63.476562" xlink:href="#DejaVuSans-114"/>
      <use x="104.558594" xlink:href="#DejaVuSans-101"/>
      <use x="166.082031" xlink:href="#DejaVuSans-100"/>
      <use x="229.558594" xlink:href="#DejaVuSans-46"/>
      <use x="261.345703" xlink:href="#DejaVuSans-40"/>
      <use x="300.359375" xlink:href="#DejaVuSans-57"/>
      <use x="363.982422" xlink:href="#DejaVuSans-53"/>
      <use x="427.605469" xlink:href="#DejaVuSans-116"/>
      <use x="466.814453" xlink:href="#DejaVuSans-104"/>
      <use x="530.193359" xlink:href="#DejaVuSans-32"/>
      <use x="561.980469" xlink:href="#DejaVuSans-112"/>
      <use x="625.457031" xlink:href="#DejaVuSans-101"/>
      <use x="686.980469" xlink:href="#DejaVuSans-114"/>
      <use x="728.0625" xlink:href="#DejaVuSans-99"/>
      <use x="783.042969" xlink:href="#DejaVuSans-101"/>
      <use x="844.566406" xlink:href="#DejaVuSans-110"/>
      <use x="907.945312" xlink:href="#DejaVuSans-46"/>
      <use x="939.732422" xlink:href="#DejaVuSans-41"/>
     </g>
    </g>
   </g>
  </g>
 </g>
 <defs>
  <clipPath id="p109692f58f">
   <rect height="266.112" width="357.12" x="57.6" y="41.472"/>
  </clipPath>
 </defs>
</svg>
