<?xml version="1.0" encoding="utf-8" standalone="no"?>
<!DOCTYPE svg PUBLIC "-//W3C//DTD SVG 1.1//EN"
  "http://www.w3.org/Graphics/SVG/1.1/DTD/svg11.dtd">
<!-- Created with matplotlib (https://matplotlib.org/) -->
<svg height="345.6pt" version="1.1" viewBox="0 0 460.8 345.6" width="460.8pt" xmlns="http://www.w3.org/2000/svg" xmlns:xlink="http://www.w3.org/1999/xlink">
 <defs>
  <style type="text/css">
*{stroke-linecap:butt;stroke-linejoin:round;}
  </style>
 </defs>
 <g id="figure_1">
  <g id="patch_1">
   <path d="M 0 345.6 
L 460.8 345.6 
L 460.8 0 
L 0 0 
z
" style="fill:#ffffff;"/>
  </g>
  <g id="axes_1">
   <g id="patch_2">
    <path d="M 57.6 307.584 
L 414.72 307.584 
L 414.72 41.472 
L 57.6 41.472 
z
" style="fill:#ffffff;"/>
   </g>
   <g id="PolyCollection_1">
    <path clip-path="url(#p291921797e)" d="M 73.832727 93.818481 
L 73.832727 98.26649 
L 75.48072 98.279117 
L 77.128713 111.048432 
L 78.776705 104.652824 
L 80.424698 127.763892 
L 82.07269 144.593133 
L 83.720683 154.764977 
L 85.368676 160.698752 
L 87.016668 143.557701 
L 88.664661 151.449221 
L 90.312653 156.871415 
L 91.960646 165.519117 
L 93.608639 177.516243 
L 95.256631 181.489178 
L 96.904624 206.940006 
L 98.552617 218.47639 
L 100.200609 229.209228 
L 101.848602 236.240403 
L 103.496594 246.912654 
L 105.144587 260.736218 
L 106.79258 265.234151 
L 108.440572 266.676663 
L 110.088565 267.874741 
L 111.736557 265.834606 
L 113.38455 266.108396 
L 115.032543 267.166047 
L 116.680535 271.530516 
L 118.328528 276.155583 
L 119.976521 276.992374 
L 121.624513 279.243772 
L 123.272506 280.507415 
L 124.920498 281.167072 
L 126.568491 281.285026 
L 128.216484 279.078771 
L 129.864476 279.092707 
L 131.512469 279.563672 
L 133.160461 280.441595 
L 134.808454 280.825616 
L 136.456447 281.344492 
L 138.104439 281.939786 
L 139.752432 280.088686 
L 141.400425 278.395604 
L 143.048417 274.293397 
L 144.69641 267.472263 
L 146.344402 249.440826 
L 147.992395 232.371092 
L 149.640388 213.767293 
L 151.28838 197.48388 
L 152.936373 167.953657 
L 154.584365 146.799921 
L 156.232358 137.107817 
L 157.880351 114.642355 
L 159.528343 113.739215 
L 161.176336 95.853771 
L 162.824329 101.787635 
L 164.472321 91.496845 
L 166.120314 87.634659 
L 167.768306 74.925667 
L 169.416299 73.336363 
L 171.064292 66.73891 
L 172.712284 66.80523 
L 174.360277 68.89176 
L 176.008269 59.240071 
L 177.656262 85.769669 
L 179.304255 82.024303 
L 180.952247 100.627982 
L 182.60024 100.375362 
L 184.248233 105.444664 
L 185.896225 129.268768 
L 187.544218 130.52582 
L 189.19221 131.887902 
L 190.840203 133.982288 
L 192.488196 143.029282 
L 194.136188 159.266429 
L 195.784181 166.948088 
L 197.432174 175.202333 
L 199.080166 184.175858 
L 200.728159 190.404713 
L 202.376151 196.53331 
L 204.024144 204.343382 
L 205.672137 214.62893 
L 207.320129 219.44942 
L 208.968122 226.26454 
L 210.616114 233.212528 
L 212.264107 231.881008 
L 213.9121 232.903242 
L 215.560092 231.643259 
L 217.208085 233.646267 
L 218.856078 229.096217 
L 220.50407 230.828279 
L 222.152063 241.14376 
L 223.800055 245.089472 
L 225.448048 246.914731 
L 227.096041 255.163197 
L 228.744033 264.700224 
L 230.392026 268.4454 
L 232.040018 269.84791 
L 233.688011 269.875881 
L 235.336004 270.961255 
L 236.983996 271.348118 
L 238.631989 271.775084 
L 240.279982 274.018084 
L 241.927974 276.940855 
L 243.575967 279.917595 
L 245.223959 281.966167 
L 246.871952 283.45932 
L 248.519945 285.018755 
L 250.167937 285.241395 
L 251.81593 284.917946 
L 253.463922 284.766366 
L 255.111915 285.384294 
L 256.759908 285.197127 
L 258.4079 283.377008 
L 260.055893 282.177021 
L 261.703886 279.907964 
L 263.351878 275.238786 
L 264.999871 269.230715 
L 266.647863 260.560814 
L 268.295856 251.032742 
L 269.943849 234.073311 
L 271.591841 226.596293 
L 273.239834 217.276947 
L 274.887826 205.09949 
L 276.535819 192.564186 
L 278.183812 187.882083 
L 279.831804 186.470076 
L 281.479797 160.729037 
L 283.12779 163.781306 
L 284.775782 157.723939 
L 286.423775 151.09109 
L 288.071767 130.726217 
L 289.71976 129.269598 
L 291.367753 150.191436 
L 293.015745 135.006855 
L 294.663738 125.501789 
L 296.311731 129.571641 
L 297.959723 162.873936 
L 299.607716 157.523731 
L 301.255708 120.377285 
L 302.903701 137.974535 
L 304.551694 154.851481 
L 306.199686 151.818968 
L 307.847679 123.200727 
L 309.495671 143.411784 
L 311.143664 173.810155 
L 312.791657 168.672877 
L 314.439649 164.480237 
L 316.087642 155.399932 
L 317.735635 170.641287 
L 319.383627 170.475375 
L 321.03162 156.666564 
L 322.679612 162.246282 
L 324.327605 170.547884 
L 325.975598 195.967073 
L 327.62359 192.415076 
L 329.271583 185.269058 
L 330.919575 201.18677 
L 332.567568 213.774687 
L 334.215561 218.290577 
L 335.863553 224.795211 
L 337.511546 236.089594 
L 339.159539 254.165007 
L 340.807531 262.560819 
L 342.455524 263.853127 
L 344.103516 267.688626 
L 345.751509 272.030355 
L 347.399502 279.06245 
L 349.047494 280.891749 
L 350.695487 282.310135 
L 352.343479 284.226694 
L 353.991472 284.792292 
L 355.639465 285.027219 
L 357.287457 284.735696 
L 358.93545 284.29112 
L 360.583443 284.097896 
L 362.231435 284.662513 
L 363.879428 285.518541 
L 365.52742 286.127592 
L 367.175413 286.756593 
L 368.823406 287.137902 
L 370.471398 287.127319 
L 372.119391 285.485516 
L 373.767383 283.467943 
L 375.415376 281.482973 
L 377.063369 278.835004 
L 378.711361 273.458311 
L 380.359354 260.95533 
L 382.007347 247.622918 
L 383.655339 223.201618 
L 385.303332 190.203836 
L 386.951324 172.885965 
L 388.599317 167.202493 
L 390.24731 158.711484 
L 391.895302 140.824568 
L 393.543295 145.203084 
L 395.191287 160.195798 
L 396.83928 154.1209 
L 398.487273 138.540536 
L 398.487273 134.195812 
L 398.487273 134.195812 
L 396.83928 148.160845 
L 395.191287 156.602616 
L 393.543295 139.701122 
L 391.895302 134.97217 
L 390.24731 153.420992 
L 388.599317 162.435273 
L 386.951324 165.178487 
L 385.303332 179.294833 
L 383.655339 212.662803 
L 382.007347 242.479378 
L 380.359354 255.880653 
L 378.711361 265.890985 
L 377.063369 270.343319 
L 375.415376 272.708062 
L 373.767383 274.270052 
L 372.119391 276.161563 
L 370.471398 277.90981 
L 368.823406 277.997089 
L 367.175413 277.785664 
L 365.52742 277.046121 
L 363.879428 276.664492 
L 362.231435 275.840769 
L 360.583443 275.06042 
L 358.93545 275.447449 
L 357.287457 275.654771 
L 355.639465 276.088361 
L 353.991472 276.073128 
L 352.343479 275.607704 
L 350.695487 273.967044 
L 349.047494 272.789435 
L 347.399502 271.816472 
L 345.751509 265.535505 
L 344.103516 262.308126 
L 342.455524 259.351203 
L 340.807531 257.652265 
L 339.159539 248.180274 
L 337.511546 231.297914 
L 335.863553 219.16493 
L 334.215561 212.529846 
L 332.567568 207.036507 
L 330.919575 196.734688 
L 329.271583 181.692368 
L 327.62359 179.233541 
L 325.975598 190.509499 
L 324.327605 166.515748 
L 322.679612 158.22627 
L 321.03162 149.82524 
L 319.383627 163.651733 
L 317.735635 166.506181 
L 316.087642 149.174049 
L 314.439649 160.667859 
L 312.791657 160.225268 
L 311.143664 168.192716 
L 309.495671 134.311086 
L 307.847679 118.785539 
L 306.199686 143.632372 
L 304.551694 149.887106 
L 302.903701 131.674697 
L 301.255708 115.610311 
L 299.607716 146.06266 
L 297.959723 154.413191 
L 296.311731 124.25138 
L 294.663738 122.152779 
L 293.015745 129.860482 
L 291.367753 146.224479 
L 289.71976 121.836399 
L 288.071767 123.458025 
L 286.423775 147.442709 
L 284.775782 152.422164 
L 283.12779 159.815993 
L 281.479797 151.892015 
L 279.831804 178.618748 
L 278.183812 182.79999 
L 276.535819 184.563778 
L 274.887826 197.055114 
L 273.239834 209.989131 
L 271.591841 220.8339 
L 269.943849 227.515032 
L 268.295856 247.13282 
L 266.647863 255.460073 
L 264.999871 262.702946 
L 263.351878 267.448857 
L 261.703886 271.348318 
L 260.055893 273.200542 
L 258.4079 274.23528 
L 256.759908 276.281453 
L 255.111915 276.597684 
L 253.463922 275.606753 
L 251.81593 275.891284 
L 250.167937 276.300424 
L 248.519945 276.408106 
L 246.871952 274.917872 
L 245.223959 273.716759 
L 243.575967 272.043129 
L 241.927974 269.691023 
L 240.279982 267.130435 
L 238.631989 265.178161 
L 236.983996 265.177846 
L 235.336004 264.399241 
L 233.688011 264.113896 
L 232.040018 263.97802 
L 230.392026 263.210572 
L 228.744033 259.725462 
L 227.096041 251.031036 
L 225.448048 243.425353 
L 223.800055 240.942601 
L 222.152063 236.539482 
L 220.50407 227.628996 
L 218.856078 222.622528 
L 217.208085 229.533879 
L 215.560092 227.622736 
L 213.9121 229.247826 
L 212.264107 226.653288 
L 210.616114 228.123598 
L 208.968122 221.738272 
L 207.320129 212.82813 
L 205.672137 209.746651 
L 204.024144 197.384714 
L 202.376151 192.126207 
L 200.728159 183.785437 
L 199.080166 179.90155 
L 197.432174 171.308324 
L 195.784181 161.510534 
L 194.136188 154.830165 
L 192.488196 139.726586 
L 190.840203 130.607707 
L 189.19221 128.372814 
L 187.544218 125.274101 
L 185.896225 121.333849 
L 184.248233 97.323418 
L 182.60024 96.083929 
L 180.952247 91.644196 
L 179.304255 77.134621 
L 177.656262 71.456665 
L 176.008269 53.568 
L 174.360277 63.058649 
L 172.712284 58.694863 
L 171.064292 60.571519 
L 169.416299 65.863705 
L 167.768306 69.894003 
L 166.120314 82.072982 
L 164.472321 86.679555 
L 162.824329 94.963203 
L 161.176336 91.180717 
L 159.528343 109.167562 
L 157.880351 110.1754 
L 156.232358 132.803659 
L 154.584365 140.384807 
L 152.936373 158.829119 
L 151.28838 187.501848 
L 149.640388 205.251568 
L 147.992395 225.166264 
L 146.344402 243.291022 
L 144.69641 261.696883 
L 143.048417 266.753921 
L 141.400425 270.096839 
L 139.752432 271.558686 
L 138.104439 273.60552 
L 136.456447 272.881083 
L 134.808454 272.600748 
L 133.160461 272.077388 
L 131.512469 271.755847 
L 129.864476 270.864289 
L 128.216484 270.590426 
L 126.568491 272.978729 
L 124.920498 272.676176 
L 123.272506 272.587316 
L 121.624513 271.283122 
L 119.976521 269.520782 
L 118.328528 269.362668 
L 116.680535 265.211165 
L 115.032543 261.483277 
L 113.38455 260.886267 
L 111.736557 260.619647 
L 110.088565 262.72595 
L 108.440572 261.362156 
L 106.79258 260.4642 
L 105.144587 255.458682 
L 103.496594 242.050188 
L 101.848602 231.051559 
L 100.200609 223.951691 
L 98.552617 211.376636 
L 96.904624 201.130169 
L 95.256631 177.611262 
L 93.608639 173.115677 
L 91.960646 162.258435 
L 90.312653 153.238612 
L 88.664661 147.052075 
L 87.016668 137.268585 
L 85.368676 155.732105 
L 83.720683 150.34313 
L 82.07269 139.248341 
L 80.424698 116.26346 
L 78.776705 100.820478 
L 77.128713 99.77695 
L 75.48072 91.101985 
L 73.832727 93.818481 
z
" style="fill:#008000;fill-opacity:0.4;"/>
   </g>
   <g id="matplotlib.axis_1">
    <g id="xtick_1">
     <g id="line2d_1">
      <defs>
       <path d="M 0 0 
L 0 3.5 
" id="m7d5b73a9a9" style="stroke:#000000;stroke-width:0.8;"/>
      </defs>
      <g>
       <use style="stroke:#000000;stroke-width:0.8;" x="73.832727" xlink:href="#m7d5b73a9a9" y="307.584"/>
      </g>
     </g>
     <g id="text_1">
      <!-- 0.0 -->
      <defs>
       <path d="M 31.78125 66.40625 
Q 24.171875 66.40625 20.328125 58.90625 
Q 16.5 51.421875 16.5 36.375 
Q 16.5 21.390625 20.328125 13.890625 
Q 24.171875 6.390625 31.78125 6.390625 
Q 39.453125 6.390625 43.28125 13.890625 
Q 47.125 21.390625 47.125 36.375 
Q 47.125 51.421875 43.28125 58.90625 
Q 39.453125 66.40625 31.78125 66.40625 
z
M 31.78125 74.21875 
Q 44.046875 74.21875 50.515625 64.515625 
Q 56.984375 54.828125 56.984375 36.375 
Q 56.984375 17.96875 50.515625 8.265625 
Q 44.046875 -1.421875 31.78125 -1.421875 
Q 19.53125 -1.421875 13.0625 8.265625 
Q 6.59375 17.96875 6.59375 36.375 
Q 6.59375 54.828125 13.0625 64.515625 
Q 19.53125 74.21875 31.78125 74.21875 
z
" id="DejaVuSans-48"/>
       <path d="M 10.6875 12.40625 
L 21 12.40625 
L 21 0 
L 10.6875 0 
z
" id="DejaVuSans-46"/>
      </defs>
      <g transform="translate(65.881165 322.182437)scale(0.1 -0.1)">
       <use xlink:href="#DejaVuSans-48"/>
       <use x="63.623047" xlink:href="#DejaVuSans-46"/>
       <use x="95.410156" xlink:href="#DejaVuSans-48"/>
      </g>
     </g>
    </g>
    <g id="xtick_2">
     <g id="line2d_2">
      <g>
       <use style="stroke:#000000;stroke-width:0.8;" x="138.763636" xlink:href="#m7d5b73a9a9" y="307.584"/>
      </g>
     </g>
     <g id="text_2">
      <!-- 0.2 -->
      <defs>
       <path d="M 19.1875 8.296875 
L 53.609375 8.296875 
L 53.609375 0 
L 7.328125 0 
L 7.328125 8.296875 
Q 12.9375 14.109375 22.625 23.890625 
Q 32.328125 33.6875 34.8125 36.53125 
Q 39.546875 41.84375 41.421875 45.53125 
Q 43.3125 49.21875 43.3125 52.78125 
Q 43.3125 58.59375 39.234375 62.25 
Q 35.15625 65.921875 28.609375 65.921875 
Q 23.96875 65.921875 18.8125 64.3125 
Q 13.671875 62.703125 7.8125 59.421875 
L 7.8125 69.390625 
Q 13.765625 71.78125 18.9375 73 
Q 24.125 74.21875 28.421875 74.21875 
Q 39.75 74.21875 46.484375 68.546875 
Q 53.21875 62.890625 53.21875 53.421875 
Q 53.21875 48.921875 51.53125 44.890625 
Q 49.859375 40.875 45.40625 35.40625 
Q 44.1875 33.984375 37.640625 27.21875 
Q 31.109375 20.453125 19.1875 8.296875 
z
" id="DejaVuSans-50"/>
      </defs>
      <g transform="translate(130.812074 322.182437)scale(0.1 -0.1)">
       <use xlink:href="#DejaVuSans-48"/>
       <use x="63.623047" xlink:href="#DejaVuSans-46"/>
       <use x="95.410156" xlink:href="#DejaVuSans-50"/>
      </g>
     </g>
    </g>
    <g id="xtick_3">
     <g id="line2d_3">
      <g>
       <use style="stroke:#000000;stroke-width:0.8;" x="203.694545" xlink:href="#m7d5b73a9a9" y="307.584"/>
      </g>
     </g>
     <g id="text_3">
      <!-- 0.4 -->
      <defs>
       <path d="M 37.796875 64.3125 
L 12.890625 25.390625 
L 37.796875 25.390625 
z
M 35.203125 72.90625 
L 47.609375 72.90625 
L 47.609375 25.390625 
L 58.015625 25.390625 
L 58.015625 17.1875 
L 47.609375 17.1875 
L 47.609375 0 
L 37.796875 0 
L 37.796875 17.1875 
L 4.890625 17.1875 
L 4.890625 26.703125 
z
" id="DejaVuSans-52"/>
      </defs>
      <g transform="translate(195.742983 322.182437)scale(0.1 -0.1)">
       <use xlink:href="#DejaVuSans-48"/>
       <use x="63.623047" xlink:href="#DejaVuSans-46"/>
       <use x="95.410156" xlink:href="#DejaVuSans-52"/>
      </g>
     </g>
    </g>
    <g id="xtick_4">
     <g id="line2d_4">
      <g>
       <use style="stroke:#000000;stroke-width:0.8;" x="268.625455" xlink:href="#m7d5b73a9a9" y="307.584"/>
      </g>
     </g>
     <g id="text_4">
      <!-- 0.6 -->
      <defs>
       <path d="M 33.015625 40.375 
Q 26.375 40.375 22.484375 35.828125 
Q 18.609375 31.296875 18.609375 23.390625 
Q 18.609375 15.53125 22.484375 10.953125 
Q 26.375 6.390625 33.015625 6.390625 
Q 39.65625 6.390625 43.53125 10.953125 
Q 47.40625 15.53125 47.40625 23.390625 
Q 47.40625 31.296875 43.53125 35.828125 
Q 39.65625 40.375 33.015625 40.375 
z
M 52.59375 71.296875 
L 52.59375 62.3125 
Q 48.875 64.0625 45.09375 64.984375 
Q 41.3125 65.921875 37.59375 65.921875 
Q 27.828125 65.921875 22.671875 59.328125 
Q 17.53125 52.734375 16.796875 39.40625 
Q 19.671875 43.65625 24.015625 45.921875 
Q 28.375 48.1875 33.59375 48.1875 
Q 44.578125 48.1875 50.953125 41.515625 
Q 57.328125 34.859375 57.328125 23.390625 
Q 57.328125 12.15625 50.6875 5.359375 
Q 44.046875 -1.421875 33.015625 -1.421875 
Q 20.359375 -1.421875 13.671875 8.265625 
Q 6.984375 17.96875 6.984375 36.375 
Q 6.984375 53.65625 15.1875 63.9375 
Q 23.390625 74.21875 37.203125 74.21875 
Q 40.921875 74.21875 44.703125 73.484375 
Q 48.484375 72.75 52.59375 71.296875 
z
" id="DejaVuSans-54"/>
      </defs>
      <g transform="translate(260.673892 322.182437)scale(0.1 -0.1)">
       <use xlink:href="#DejaVuSans-48"/>
       <use x="63.623047" xlink:href="#DejaVuSans-46"/>
       <use x="95.410156" xlink:href="#DejaVuSans-54"/>
      </g>
     </g>
    </g>
    <g id="xtick_5">
     <g id="line2d_5">
      <g>
       <use style="stroke:#000000;stroke-width:0.8;" x="333.556364" xlink:href="#m7d5b73a9a9" y="307.584"/>
      </g>
     </g>
     <g id="text_5">
      <!-- 0.8 -->
      <defs>
       <path d="M 31.78125 34.625 
Q 24.75 34.625 20.71875 30.859375 
Q 16.703125 27.09375 16.703125 20.515625 
Q 16.703125 13.921875 20.71875 10.15625 
Q 24.75 6.390625 31.78125 6.390625 
Q 38.8125 6.390625 42.859375 10.171875 
Q 46.921875 13.96875 46.921875 20.515625 
Q 46.921875 27.09375 42.890625 30.859375 
Q 38.875 34.625 31.78125 34.625 
z
M 21.921875 38.8125 
Q 15.578125 40.375 12.03125 44.71875 
Q 8.5 49.078125 8.5 55.328125 
Q 8.5 64.0625 14.71875 69.140625 
Q 20.953125 74.21875 31.78125 74.21875 
Q 42.671875 74.21875 48.875 69.140625 
Q 55.078125 64.0625 55.078125 55.328125 
Q 55.078125 49.078125 51.53125 44.71875 
Q 48 40.375 41.703125 38.8125 
Q 48.828125 37.15625 52.796875 32.3125 
Q 56.78125 27.484375 56.78125 20.515625 
Q 56.78125 9.90625 50.3125 4.234375 
Q 43.84375 -1.421875 31.78125 -1.421875 
Q 19.734375 -1.421875 13.25 4.234375 
Q 6.78125 9.90625 6.78125 20.515625 
Q 6.78125 27.484375 10.78125 32.3125 
Q 14.796875 37.15625 21.921875 38.8125 
z
M 18.3125 54.390625 
Q 18.3125 48.734375 21.84375 45.5625 
Q 25.390625 42.390625 31.78125 42.390625 
Q 38.140625 42.390625 41.71875 45.5625 
Q 45.3125 48.734375 45.3125 54.390625 
Q 45.3125 60.0625 41.71875 63.234375 
Q 38.140625 66.40625 31.78125 66.40625 
Q 25.390625 66.40625 21.84375 63.234375 
Q 18.3125 60.0625 18.3125 54.390625 
z
" id="DejaVuSans-56"/>
      </defs>
      <g transform="translate(325.604801 322.182437)scale(0.1 -0.1)">
       <use xlink:href="#DejaVuSans-48"/>
       <use x="63.623047" xlink:href="#DejaVuSans-46"/>
       <use x="95.410156" xlink:href="#DejaVuSans-56"/>
      </g>
     </g>
    </g>
    <g id="xtick_6">
     <g id="line2d_6">
      <g>
       <use style="stroke:#000000;stroke-width:0.8;" x="398.487273" xlink:href="#m7d5b73a9a9" y="307.584"/>
      </g>
     </g>
     <g id="text_6">
      <!-- 1.0 -->
      <defs>
       <path d="M 12.40625 8.296875 
L 28.515625 8.296875 
L 28.515625 63.921875 
L 10.984375 60.40625 
L 10.984375 69.390625 
L 28.421875 72.90625 
L 38.28125 72.90625 
L 38.28125 8.296875 
L 54.390625 8.296875 
L 54.390625 0 
L 12.40625 0 
z
" id="DejaVuSans-49"/>
      </defs>
      <g transform="translate(390.53571 322.182437)scale(0.1 -0.1)">
       <use xlink:href="#DejaVuSans-49"/>
       <use x="63.623047" xlink:href="#DejaVuSans-46"/>
       <use x="95.410156" xlink:href="#DejaVuSans-48"/>
      </g>
     </g>
    </g>
   </g>
   <g id="matplotlib.axis_2">
    <g id="ytick_1">
     <g id="line2d_7">
      <defs>
       <path d="M 0 0 
L -3.5 0 
" id="m3265d7bcde" style="stroke:#000000;stroke-width:0.8;"/>
      </defs>
      <g>
       <use style="stroke:#000000;stroke-width:0.8;" x="57.6" xlink:href="#m3265d7bcde" y="299.566379"/>
      </g>
     </g>
     <g id="text_7">
      <!-- 0.0 -->
      <g transform="translate(34.696875 303.365598)scale(0.1 -0.1)">
       <use xlink:href="#DejaVuSans-48"/>
       <use x="63.623047" xlink:href="#DejaVuSans-46"/>
       <use x="95.410156" xlink:href="#DejaVuSans-48"/>
      </g>
     </g>
    </g>
    <g id="ytick_2">
     <g id="line2d_8">
      <g>
       <use style="stroke:#000000;stroke-width:0.8;" x="57.6" xlink:href="#m3265d7bcde" y="259.353612"/>
      </g>
     </g>
     <g id="text_8">
      <!-- 0.1 -->
      <g transform="translate(34.696875 263.152831)scale(0.1 -0.1)">
       <use xlink:href="#DejaVuSans-48"/>
       <use x="63.623047" xlink:href="#DejaVuSans-46"/>
       <use x="95.410156" xlink:href="#DejaVuSans-49"/>
      </g>
     </g>
    </g>
    <g id="ytick_3">
     <g id="line2d_9">
      <g>
       <use style="stroke:#000000;stroke-width:0.8;" x="57.6" xlink:href="#m3265d7bcde" y="219.140845"/>
      </g>
     </g>
     <g id="text_9">
      <!-- 0.2 -->
      <g transform="translate(34.696875 222.940064)scale(0.1 -0.1)">
       <use xlink:href="#DejaVuSans-48"/>
       <use x="63.623047" xlink:href="#DejaVuSans-46"/>
       <use x="95.410156" xlink:href="#DejaVuSans-50"/>
      </g>
     </g>
    </g>
    <g id="ytick_4">
     <g id="line2d_10">
      <g>
       <use style="stroke:#000000;stroke-width:0.8;" x="57.6" xlink:href="#m3265d7bcde" y="178.928079"/>
      </g>
     </g>
     <g id="text_10">
      <!-- 0.3 -->
      <defs>
       <path d="M 40.578125 39.3125 
Q 47.65625 37.796875 51.625 33 
Q 55.609375 28.21875 55.609375 21.1875 
Q 55.609375 10.40625 48.1875 4.484375 
Q 40.765625 -1.421875 27.09375 -1.421875 
Q 22.515625 -1.421875 17.65625 -0.515625 
Q 12.796875 0.390625 7.625 2.203125 
L 7.625 11.71875 
Q 11.71875 9.328125 16.59375 8.109375 
Q 21.484375 6.890625 26.8125 6.890625 
Q 36.078125 6.890625 40.9375 10.546875 
Q 45.796875 14.203125 45.796875 21.1875 
Q 45.796875 27.640625 41.28125 31.265625 
Q 36.765625 34.90625 28.71875 34.90625 
L 20.21875 34.90625 
L 20.21875 43.015625 
L 29.109375 43.015625 
Q 36.375 43.015625 40.234375 45.921875 
Q 44.09375 48.828125 44.09375 54.296875 
Q 44.09375 59.90625 40.109375 62.90625 
Q 36.140625 65.921875 28.71875 65.921875 
Q 24.65625 65.921875 20.015625 65.03125 
Q 15.375 64.15625 9.8125 62.3125 
L 9.8125 71.09375 
Q 15.4375 72.65625 20.34375 73.4375 
Q 25.25 74.21875 29.59375 74.21875 
Q 40.828125 74.21875 47.359375 69.109375 
Q 53.90625 64.015625 53.90625 55.328125 
Q 53.90625 49.265625 50.4375 45.09375 
Q 46.96875 40.921875 40.578125 39.3125 
z
" id="DejaVuSans-51"/>
      </defs>
      <g transform="translate(34.696875 182.727298)scale(0.1 -0.1)">
       <use xlink:href="#DejaVuSans-48"/>
       <use x="63.623047" xlink:href="#DejaVuSans-46"/>
       <use x="95.410156" xlink:href="#DejaVuSans-51"/>
      </g>
     </g>
    </g>
    <g id="ytick_5">
     <g id="line2d_11">
      <g>
       <use style="stroke:#000000;stroke-width:0.8;" x="57.6" xlink:href="#m3265d7bcde" y="138.715312"/>
      </g>
     </g>
     <g id="text_11">
      <!-- 0.4 -->
      <g transform="translate(34.696875 142.514531)scale(0.1 -0.1)">
       <use xlink:href="#DejaVuSans-48"/>
       <use x="63.623047" xlink:href="#DejaVuSans-46"/>
       <use x="95.410156" xlink:href="#DejaVuSans-52"/>
      </g>
     </g>
    </g>
    <g id="ytick_6">
     <g id="line2d_12">
      <g>
       <use style="stroke:#000000;stroke-width:0.8;" x="57.6" xlink:href="#m3265d7bcde" y="98.502545"/>
      </g>
     </g>
     <g id="text_12">
      <!-- 0.5 -->
      <defs>
       <path d="M 10.796875 72.90625 
L 49.515625 72.90625 
L 49.515625 64.59375 
L 19.828125 64.59375 
L 19.828125 46.734375 
Q 21.96875 47.46875 24.109375 47.828125 
Q 26.265625 48.1875 28.421875 48.1875 
Q 40.625 48.1875 47.75 41.5 
Q 54.890625 34.8125 54.890625 23.390625 
Q 54.890625 11.625 47.5625 5.09375 
Q 40.234375 -1.421875 26.90625 -1.421875 
Q 22.3125 -1.421875 17.546875 -0.640625 
Q 12.796875 0.140625 7.71875 1.703125 
L 7.71875 11.625 
Q 12.109375 9.234375 16.796875 8.0625 
Q 21.484375 6.890625 26.703125 6.890625 
Q 35.15625 6.890625 40.078125 11.328125 
Q 45.015625 15.765625 45.015625 23.390625 
Q 45.015625 31 40.078125 35.4375 
Q 35.15625 39.890625 26.703125 39.890625 
Q 22.75 39.890625 18.8125 39.015625 
Q 14.890625 38.140625 10.796875 36.28125 
z
" id="DejaVuSans-53"/>
      </defs>
      <g transform="translate(34.696875 102.301764)scale(0.1 -0.1)">
       <use xlink:href="#DejaVuSans-48"/>
       <use x="63.623047" xlink:href="#DejaVuSans-46"/>
       <use x="95.410156" xlink:href="#DejaVuSans-53"/>
      </g>
     </g>
    </g>
    <g id="ytick_7">
     <g id="line2d_13">
      <g>
       <use style="stroke:#000000;stroke-width:0.8;" x="57.6" xlink:href="#m3265d7bcde" y="58.289779"/>
      </g>
     </g>
     <g id="text_13">
      <!-- 0.6 -->
      <g transform="translate(34.696875 62.088998)scale(0.1 -0.1)">
       <use xlink:href="#DejaVuSans-48"/>
       <use x="63.623047" xlink:href="#DejaVuSans-46"/>
       <use x="95.410156" xlink:href="#DejaVuSans-54"/>
      </g>
     </g>
    </g>
   </g>
   <g id="line2d_14">
    <path clip-path="url(#p291921797e)" d="M 73.832727 101.085411 
L 75.48072 96.735194 
L 77.128713 104.620114 
L 78.776705 105.435629 
L 80.424698 123.652414 
L 82.07269 139.694091 
L 83.720683 152.201066 
L 85.368676 149.48228 
L 87.016668 143.500631 
L 88.664661 150.297795 
L 90.312653 155.463929 
L 91.960646 166.339472 
L 93.608639 171.233366 
L 95.256631 188.362798 
L 96.904624 206.851422 
L 100.200609 229.418424 
L 101.848602 236.215588 
L 103.496594 253.888697 
L 105.144587 261.773456 
L 106.79258 264.220483 
L 108.440572 267.211267 
L 110.088565 265.036159 
L 111.736557 264.220483 
L 113.38455 264.220483 
L 115.032543 268.57074 
L 116.680535 276.183701 
L 118.328528 278.358849 
L 119.976521 279.718282 
L 121.624513 283.796661 
L 123.272506 283.796661 
L 124.920498 285.156134 
L 126.568491 281.893431 
L 128.216484 280.262079 
L 129.864476 282.709107 
L 131.512469 282.437228 
L 133.160461 284.068539 
L 134.808454 284.340458 
L 136.456447 285.97181 
L 138.104439 283.796661 
L 139.752432 280.533958 
L 141.400425 276.183701 
L 143.048417 270.202092 
L 144.69641 254.704212 
L 146.344402 235.94375 
L 147.992395 220.173911 
L 149.640388 205.491828 
L 152.936373 163.620687 
L 154.584365 145.947578 
L 156.232358 130.993657 
L 157.880351 119.302197 
L 159.528343 106.523384 
L 161.176336 100.269897 
L 162.824329 94.831924 
L 164.472321 89.93803 
L 167.768306 74.984109 
L 171.064292 64.924081 
L 172.712284 67.642866 
L 174.360277 63.564487 
L 176.008269 65.195919 
L 177.656262 74.984109 
L 179.304255 83.684543 
L 180.952247 94.016409 
L 182.60024 94.560086 
L 184.248233 105.707869 
L 185.896225 122.293223 
L 187.544218 125.012008 
L 189.19221 126.915278 
L 190.840203 134.528359 
L 192.488196 141.325523 
L 194.136188 156.823121 
L 197.432174 172.864798 
L 199.080166 182.652987 
L 200.728159 186.459528 
L 202.376151 196.247717 
L 204.024144 203.588558 
L 205.672137 212.561233 
L 207.320129 217.726965 
L 208.968122 227.243316 
L 210.616114 229.690263 
L 213.9121 228.058831 
L 215.560092 229.962101 
L 217.208085 229.690263 
L 218.856078 224.524129 
L 222.152063 240.022129 
L 223.800055 244.372346 
L 225.448048 246.819293 
L 227.096041 258.510753 
L 228.744033 266.395591 
L 230.392026 268.57074 
L 232.040018 269.930213 
L 233.688011 268.842619 
L 235.336004 271.017767 
L 236.983996 270.745889 
L 238.631989 272.649119 
L 240.279982 277.271255 
L 243.575967 284.884215 
L 245.223959 287.603161 
L 246.871952 290.865864 
L 248.519945 291.953418 
L 250.167937 291.137743 
L 251.81593 289.77827 
L 253.463922 291.953418 
L 255.111915 292.225297 
L 256.759908 288.962594 
L 258.4079 285.97181 
L 260.055893 283.252864 
L 261.703886 278.086931 
L 263.351878 270.745889 
L 264.999871 260.142104 
L 266.647863 253.616859 
L 268.295856 238.390697 
L 269.943849 227.243316 
L 271.591841 219.086558 
L 273.239834 208.482854 
L 274.887826 197.063232 
L 276.535819 187.819122 
L 278.183812 186.459528 
L 279.831804 173.408877 
L 281.479797 162.532932 
L 283.12779 160.085985 
L 284.775782 154.104336 
L 286.423775 145.67574 
L 288.071767 127.187116 
L 289.71976 135.343874 
L 291.367753 137.790821 
L 293.015745 132.352848 
L 294.663738 125.012008 
L 296.311731 132.896927 
L 297.959723 154.104336 
L 299.607716 137.518982 
L 301.255708 129.905901 
L 302.903701 136.159389 
L 304.551694 150.025957 
L 306.199686 137.518982 
L 307.847679 128.818548 
L 309.495671 147.850848 
L 311.143664 162.80477 
L 312.791657 161.989255 
L 314.439649 159.27047 
L 316.087642 158.454553 
L 317.735635 166.611311 
L 319.383627 162.261093 
L 321.03162 155.192091 
L 322.679612 161.989255 
L 324.327605 173.408877 
L 325.975598 188.906475 
L 327.62359 181.837472 
L 329.271583 188.906475 
L 330.919575 203.31672 
L 335.863553 224.25229 
L 337.511546 243.556831 
L 339.159539 256.879321 
L 340.807531 261.501537 
L 342.455524 264.76424 
L 344.103516 269.114537 
L 345.751509 279.174525 
L 347.399502 283.796661 
L 349.047494 285.699891 
L 350.695487 288.690715 
L 352.343479 291.137743 
L 353.991472 291.409621 
L 355.639465 290.322067 
L 357.287457 290.322067 
L 358.93545 288.962594 
L 360.583443 290.050188 
L 362.231435 291.953418 
L 363.879428 292.769094 
L 365.52742 294.672324 
L 367.175413 295.488 
L 368.823406 295.488 
L 370.471398 293.040973 
L 372.119391 288.962594 
L 373.767383 285.97181 
L 375.415376 281.893431 
L 377.063369 275.639903 
L 378.711361 264.492361 
L 382.007347 233.496803 
L 383.655339 204.948152 
L 385.303332 184.556258 
L 386.951324 172.049283 
L 388.599317 164.164364 
L 390.24731 153.016983 
L 391.895302 140.237768 
L 393.543295 148.394525 
L 395.191287 153.560659 
L 396.83928 146.491255 
L 398.487273 135.88755 
L 398.487273 135.88755 
" style="fill:none;stroke:#1f77b4;stroke-linecap:square;stroke-width:1.5;"/>
   </g>
   <g id="line2d_15">
    <path clip-path="url(#p291921797e)" d="M 73.832727 96.303005 
L 75.48072 95.796968 
L 77.128713 108.177878 
L 78.776705 102.279472 
L 80.424698 124.566061 
L 82.07269 141.31319 
L 83.720683 151.896367 
L 85.368676 157.145978 
L 87.016668 139.132029 
L 88.664661 149.584141 
L 90.312653 154.432032 
L 91.960646 163.65835 
L 93.608639 174.609746 
L 95.256631 179.412886 
L 96.904624 203.944997 
L 98.552617 214.140129 
L 100.200609 226.396502 
L 101.848602 233.316181 
L 103.496594 244.321427 
L 105.144587 257.917506 
L 106.79258 262.934563 
L 108.440572 264.532188 
L 110.088565 265.788727 
L 111.736557 263.740018 
L 113.38455 264.034118 
L 115.032543 265.011733 
L 116.680535 269.223006 
L 118.328528 273.769522 
L 119.976521 274.725884 
L 121.624513 276.932984 
L 123.272506 278.145086 
L 124.920498 278.72646 
L 126.568491 278.864351 
L 128.216484 276.516568 
L 129.864476 276.651669 
L 131.512469 277.249354 
L 133.160461 278.000977 
L 136.456447 278.906296 
L 138.104439 279.544314 
L 139.752432 277.557639 
L 141.400425 275.888622 
L 143.048417 271.773828 
L 144.69641 264.894683 
L 146.344402 245.732927 
L 147.992395 228.215016 
L 149.640388 208.121868 
L 151.28838 190.566571 
L 152.936373 162.085513 
L 154.584365 143.096063 
L 156.232358 135.023152 
L 157.880351 112.537967 
L 159.528343 111.783866 
L 161.176336 93.886779 
L 162.824329 99.526663 
L 164.472321 89.508957 
L 166.120314 85.548073 
L 167.768306 72.838999 
L 169.416299 71.04236 
L 171.064292 64.589734 
L 172.712284 64.476308 
L 174.360277 66.69017 
L 176.008269 57.105651 
L 177.656262 82.070726 
L 179.304255 79.717337 
L 180.952247 97.413467 
L 182.60024 97.888437 
L 184.248233 102.942545 
L 185.896225 125.867394 
L 187.544218 127.140097 
L 189.19221 130.014037 
L 190.840203 132.286699 
L 192.488196 140.954896 
L 194.136188 157.000199 
L 195.784181 163.018038 
L 197.432174 172.788947 
L 199.080166 181.670707 
L 200.728159 185.573278 
L 202.376151 194.107006 
L 204.024144 199.490892 
L 205.672137 211.802325 
L 207.320129 215.040597 
L 208.968122 223.655237 
L 210.616114 230.116014 
L 212.264107 228.155385 
L 213.9121 230.536505 
L 215.560092 229.090888 
L 217.208085 231.000369 
L 218.856078 224.254177 
L 220.50407 228.819521 
L 222.152063 238.627753 
L 223.800055 242.758316 
L 225.448048 244.837181 
L 227.096041 253.083376 
L 228.744033 262.022779 
L 230.392026 266.19096 
L 232.040018 267.709037 
L 233.688011 267.765958 
L 235.336004 268.763283 
L 238.631989 269.546735 
L 240.279982 271.792469 
L 243.575967 277.534534 
L 245.223959 279.533533 
L 248.519945 282.58646 
L 250.167937 282.730606 
L 251.81593 282.368655 
L 253.463922 282.220455 
L 255.111915 282.909161 
L 256.759908 282.688144 
L 258.4079 280.72132 
L 260.055893 279.564509 
L 261.703886 277.351363 
L 263.351878 272.591718 
L 264.999871 266.563956 
L 266.647863 258.024173 
L 268.295856 248.551934 
L 269.943849 230.063661 
L 271.591841 223.08164 
L 273.239834 212.037021 
L 276.535819 186.787644 
L 278.183812 184.414213 
L 279.831804 180.465084 
L 281.479797 154.309566 
L 283.12779 161.582099 
L 284.775782 154.072927 
L 286.423775 148.983663 
L 288.071767 125.817293 
L 289.71976 126.883247 
L 291.367753 147.809573 
L 293.015745 131.654046 
L 294.663738 123.766716 
L 296.311731 127.603059 
L 297.959723 159.476359 
L 299.607716 148.486269 
L 301.255708 118.064892 
L 304.551694 152.539843 
L 306.199686 145.603582 
L 307.847679 120.89945 
L 309.495671 140.825369 
L 311.143664 170.30996 
L 312.791657 162.170857 
L 314.439649 162.100623 
L 316.087642 150.928963 
L 317.735635 168.730115 
L 319.383627 165.259583 
L 321.03162 151.649526 
L 322.679612 160.424286 
L 324.327605 167.964704 
L 325.975598 193.331815 
L 327.62359 182.031552 
L 329.271583 183.098329 
L 330.919575 198.734614 
L 332.567568 209.423074 
L 334.215561 214.624582 
L 335.863553 221.184244 
L 337.511546 233.559976 
L 339.159539 251.012086 
L 340.807531 259.80428 
L 342.455524 261.729433 
L 344.103516 265.555929 
L 345.751509 269.672055 
L 347.399502 276.584078 
L 349.047494 278.440284 
L 350.695487 279.941889 
L 352.343479 281.778118 
L 353.991472 282.335568 
L 355.639465 282.529929 
L 360.583443 281.550623 
L 362.231435 282.188773 
L 363.879428 283.033831 
L 367.175413 284.275129 
L 368.823406 284.630358 
L 370.471398 284.594813 
L 372.119391 282.823201 
L 375.415376 278.856953 
L 377.063369 276.195192 
L 378.711361 270.785861 
L 382.007347 244.592745 
L 383.655339 216.358588 
L 385.303332 184.054035 
L 386.951324 168.091336 
L 388.599317 164.362744 
L 390.24731 155.125902 
L 391.895302 137.046522 
L 393.543295 143.175091 
L 395.191287 157.9929 
L 396.83928 149.778725 
L 398.487273 135.996189 
L 398.487273 135.996189 
" style="fill:none;stroke:#ff7f0e;stroke-linecap:square;stroke-width:1.5;"/>
   </g>
   <g id="line2d_16">
    <path clip-path="url(#p291921797e)" d="M 73.832727 98.26649 
L 75.48072 98.279117 
L 77.128713 111.048432 
L 78.776705 104.652824 
L 80.424698 127.763892 
L 82.07269 144.593133 
L 83.720683 154.764977 
L 85.368676 160.698752 
L 87.016668 143.557701 
L 88.664661 151.449221 
L 90.312653 156.871415 
L 91.960646 165.519117 
L 93.608639 177.516243 
L 95.256631 181.489178 
L 96.904624 206.940006 
L 98.552617 218.47639 
L 100.200609 229.209228 
L 101.848602 236.240403 
L 103.496594 246.912654 
L 105.144587 260.736218 
L 106.79258 265.234151 
L 108.440572 266.676663 
L 110.088565 267.874741 
L 111.736557 265.834606 
L 113.38455 266.108396 
L 115.032543 267.166047 
L 118.328528 276.155583 
L 119.976521 276.992374 
L 121.624513 279.243772 
L 123.272506 280.507415 
L 124.920498 281.167072 
L 126.568491 281.285026 
L 128.216484 279.078771 
L 129.864476 279.092707 
L 131.512469 279.563672 
L 133.160461 280.441595 
L 134.808454 280.825616 
L 138.104439 281.939786 
L 141.400425 278.395604 
L 143.048417 274.293397 
L 144.69641 267.472263 
L 149.640388 213.767293 
L 151.28838 197.48388 
L 152.936373 167.953657 
L 154.584365 146.799921 
L 156.232358 137.107817 
L 157.880351 114.642355 
L 159.528343 113.739215 
L 161.176336 95.853771 
L 162.824329 101.787635 
L 164.472321 91.496845 
L 166.120314 87.634659 
L 167.768306 74.925667 
L 169.416299 73.336363 
L 171.064292 66.73891 
L 172.712284 66.80523 
L 174.360277 68.89176 
L 176.008269 59.240071 
L 177.656262 85.769669 
L 179.304255 82.024303 
L 180.952247 100.627982 
L 182.60024 100.375362 
L 184.248233 105.444664 
L 185.896225 129.268768 
L 189.19221 131.887902 
L 190.840203 133.982288 
L 192.488196 143.029282 
L 194.136188 159.266429 
L 195.784181 166.948088 
L 197.432174 175.202333 
L 199.080166 184.175858 
L 202.376151 196.53331 
L 204.024144 204.343382 
L 205.672137 214.62893 
L 207.320129 219.44942 
L 210.616114 233.212528 
L 212.264107 231.881008 
L 213.9121 232.903242 
L 215.560092 231.643259 
L 217.208085 233.646267 
L 218.856078 229.096217 
L 220.50407 230.828279 
L 222.152063 241.14376 
L 223.800055 245.089472 
L 225.448048 246.914731 
L 227.096041 255.163197 
L 228.744033 264.700224 
L 230.392026 268.4454 
L 232.040018 269.84791 
L 233.688011 269.875881 
L 235.336004 270.961255 
L 238.631989 271.775084 
L 240.279982 274.018084 
L 243.575967 279.917595 
L 245.223959 281.966167 
L 248.519945 285.018755 
L 250.167937 285.241395 
L 251.81593 284.917946 
L 253.463922 284.766366 
L 255.111915 285.384294 
L 256.759908 285.197127 
L 258.4079 283.377008 
L 260.055893 282.177021 
L 261.703886 279.907964 
L 263.351878 275.238786 
L 264.999871 269.230715 
L 266.647863 260.560814 
L 268.295856 251.032742 
L 269.943849 234.073311 
L 271.591841 226.596293 
L 273.239834 217.276947 
L 276.535819 192.564186 
L 278.183812 187.882083 
L 279.831804 186.470076 
L 281.479797 160.729037 
L 283.12779 163.781306 
L 284.775782 157.723939 
L 286.423775 151.09109 
L 288.071767 130.726217 
L 289.71976 129.269598 
L 291.367753 150.191436 
L 293.015745 135.006855 
L 294.663738 125.501789 
L 296.311731 129.571641 
L 297.959723 162.873936 
L 299.607716 157.523731 
L 301.255708 120.377285 
L 304.551694 154.851481 
L 306.199686 151.818968 
L 307.847679 123.200727 
L 309.495671 143.411784 
L 311.143664 173.810155 
L 312.791657 168.672877 
L 314.439649 164.480237 
L 316.087642 155.399932 
L 317.735635 170.641287 
L 319.383627 170.475375 
L 321.03162 156.666564 
L 322.679612 162.246282 
L 324.327605 170.547884 
L 325.975598 195.967073 
L 327.62359 192.415076 
L 329.271583 185.269058 
L 330.919575 201.18677 
L 332.567568 213.774687 
L 334.215561 218.290577 
L 335.863553 224.795211 
L 337.511546 236.089594 
L 339.159539 254.165007 
L 340.807531 262.560819 
L 342.455524 263.853127 
L 344.103516 267.688626 
L 345.751509 272.030355 
L 347.399502 279.06245 
L 349.047494 280.891749 
L 350.695487 282.310135 
L 352.343479 284.226694 
L 353.991472 284.792292 
L 355.639465 285.027219 
L 357.287457 284.735696 
L 358.93545 284.29112 
L 360.583443 284.097896 
L 362.231435 284.662513 
L 363.879428 285.518541 
L 367.175413 286.756593 
L 368.823406 287.137902 
L 370.471398 287.127319 
L 372.119391 285.485516 
L 375.415376 281.482973 
L 377.063369 278.835004 
L 378.711361 273.458311 
L 382.007347 247.622918 
L 383.655339 223.201618 
L 385.303332 190.203836 
L 386.951324 172.885965 
L 388.599317 167.202493 
L 390.24731 158.711484 
L 391.895302 140.824568 
L 393.543295 145.203084 
L 395.191287 160.195798 
L 396.83928 154.1209 
L 398.487273 138.540536 
L 398.487273 138.540536 
" style="fill:none;stroke:#2ca02c;stroke-linecap:square;stroke-width:1.5;"/>
   </g>
   <g id="line2d_17">
    <path clip-path="url(#p291921797e)" d="M 73.832727 93.818481 
L 75.48072 91.101985 
L 77.128713 99.77695 
L 78.776705 100.820478 
L 80.424698 116.26346 
L 82.07269 139.248341 
L 83.720683 150.34313 
L 85.368676 155.732105 
L 87.016668 137.268585 
L 88.664661 147.052075 
L 90.312653 153.238612 
L 91.960646 162.258435 
L 93.608639 173.115677 
L 95.256631 177.611262 
L 96.904624 201.130169 
L 98.552617 211.376636 
L 100.200609 223.951691 
L 101.848602 231.051559 
L 103.496594 242.050188 
L 105.144587 255.458682 
L 106.79258 260.4642 
L 108.440572 261.362156 
L 110.088565 262.72595 
L 111.736557 260.619647 
L 113.38455 260.886267 
L 115.032543 261.483277 
L 116.680535 265.211165 
L 118.328528 269.362668 
L 119.976521 269.520782 
L 121.624513 271.283122 
L 123.272506 272.587316 
L 124.920498 272.676176 
L 126.568491 272.978729 
L 128.216484 270.590426 
L 129.864476 270.864289 
L 131.512469 271.755847 
L 133.160461 272.077388 
L 134.808454 272.600748 
L 136.456447 272.881083 
L 138.104439 273.60552 
L 139.752432 271.558686 
L 141.400425 270.096839 
L 143.048417 266.753921 
L 144.69641 261.696883 
L 151.28838 187.501848 
L 152.936373 158.829119 
L 154.584365 140.384807 
L 156.232358 132.803659 
L 157.880351 110.1754 
L 159.528343 109.167562 
L 161.176336 91.180717 
L 162.824329 94.963203 
L 164.472321 86.679555 
L 166.120314 82.072982 
L 167.768306 69.894003 
L 169.416299 65.863705 
L 171.064292 60.571519 
L 172.712284 58.694863 
L 174.360277 63.058649 
L 176.008269 53.568 
L 177.656262 71.456665 
L 179.304255 77.134621 
L 180.952247 91.644196 
L 182.60024 96.083929 
L 184.248233 97.323418 
L 185.896225 121.333849 
L 187.544218 125.274101 
L 189.19221 128.372814 
L 190.840203 130.607707 
L 192.488196 139.726586 
L 194.136188 154.830165 
L 195.784181 161.510534 
L 197.432174 171.308324 
L 199.080166 179.90155 
L 200.728159 183.785437 
L 202.376151 192.126207 
L 204.024144 197.384714 
L 205.672137 209.746651 
L 207.320129 212.82813 
L 208.968122 221.738272 
L 210.616114 228.123598 
L 212.264107 226.653288 
L 213.9121 229.247826 
L 215.560092 227.622736 
L 217.208085 229.533879 
L 218.856078 222.622528 
L 220.50407 227.628996 
L 222.152063 236.539482 
L 223.800055 240.942601 
L 225.448048 243.425353 
L 227.096041 251.031036 
L 228.744033 259.725462 
L 230.392026 263.210572 
L 232.040018 263.97802 
L 233.688011 264.113896 
L 235.336004 264.399241 
L 236.983996 265.177846 
L 238.631989 265.178161 
L 240.279982 267.130435 
L 241.927974 269.691023 
L 243.575967 272.043129 
L 245.223959 273.716759 
L 246.871952 274.917872 
L 248.519945 276.408106 
L 250.167937 276.300424 
L 251.81593 275.891284 
L 253.463922 275.606753 
L 255.111915 276.597684 
L 256.759908 276.281453 
L 258.4079 274.23528 
L 260.055893 273.200542 
L 261.703886 271.348318 
L 263.351878 267.448857 
L 264.999871 262.702946 
L 266.647863 255.460073 
L 268.295856 247.13282 
L 269.943849 227.515032 
L 271.591841 220.8339 
L 273.239834 209.989131 
L 276.535819 184.563778 
L 278.183812 182.79999 
L 279.831804 178.618748 
L 281.479797 151.892015 
L 283.12779 159.815993 
L 284.775782 152.422164 
L 286.423775 147.442709 
L 288.071767 123.458025 
L 289.71976 121.836399 
L 291.367753 146.224479 
L 293.015745 129.860482 
L 294.663738 122.152779 
L 296.311731 124.25138 
L 297.959723 154.413191 
L 299.607716 146.06266 
L 301.255708 115.610311 
L 302.903701 131.674697 
L 304.551694 149.887106 
L 306.199686 143.632372 
L 307.847679 118.785539 
L 309.495671 134.311086 
L 311.143664 168.192716 
L 312.791657 160.225268 
L 314.439649 160.667859 
L 316.087642 149.174049 
L 317.735635 166.506181 
L 319.383627 163.651733 
L 321.03162 149.82524 
L 324.327605 166.515748 
L 325.975598 190.509499 
L 327.62359 179.233541 
L 329.271583 181.692368 
L 330.919575 196.734688 
L 332.567568 207.036507 
L 334.215561 212.529846 
L 335.863553 219.16493 
L 337.511546 231.297914 
L 339.159539 248.180274 
L 340.807531 257.652265 
L 342.455524 259.351203 
L 344.103516 262.308126 
L 345.751509 265.535505 
L 347.399502 271.816472 
L 349.047494 272.789435 
L 350.695487 273.967044 
L 352.343479 275.607704 
L 353.991472 276.073128 
L 355.639465 276.088361 
L 357.287457 275.654771 
L 358.93545 275.447449 
L 360.583443 275.06042 
L 363.879428 276.664492 
L 365.52742 277.046121 
L 367.175413 277.785664 
L 368.823406 277.997089 
L 370.471398 277.90981 
L 375.415376 272.708062 
L 377.063369 270.343319 
L 378.711361 265.890985 
L 380.359354 255.880653 
L 382.007347 242.479378 
L 383.655339 212.662803 
L 385.303332 179.294833 
L 386.951324 165.178487 
L 388.599317 162.435273 
L 390.24731 153.420992 
L 391.895302 134.97217 
L 393.543295 139.701122 
L 395.191287 156.602616 
L 396.83928 148.160845 
L 398.487273 134.195812 
L 398.487273 134.195812 
" style="fill:none;stroke:#d62728;stroke-linecap:square;stroke-width:1.5;"/>
   </g>
   <g id="patch_3">
    <path d="M 57.6 307.584 
L 57.6 41.472 
" style="fill:none;stroke:#000000;stroke-linecap:square;stroke-linejoin:miter;stroke-width:0.8;"/>
   </g>
   <g id="patch_4">
    <path d="M 414.72 307.584 
L 414.72 41.472 
" style="fill:none;stroke:#000000;stroke-linecap:square;stroke-linejoin:miter;stroke-width:0.8;"/>
   </g>
   <g id="patch_5">
    <path d="M 57.6 307.584 
L 414.72 307.584 
" style="fill:none;stroke:#000000;stroke-linecap:square;stroke-linejoin:miter;stroke-width:0.8;"/>
   </g>
   <g id="patch_6">
    <path d="M 57.6 41.472 
L 414.72 41.472 
" style="fill:none;stroke:#000000;stroke-linecap:square;stroke-linejoin:miter;stroke-width:0.8;"/>
   </g>
   <g id="text_14">
    <!-- Plot of Test Data vs MCMC Uncertainty  -->
    <defs>
     <path d="M 19.671875 64.796875 
L 19.671875 37.40625 
L 32.078125 37.40625 
Q 38.96875 37.40625 42.71875 40.96875 
Q 46.484375 44.53125 46.484375 51.125 
Q 46.484375 57.671875 42.71875 61.234375 
Q 38.96875 64.796875 32.078125 64.796875 
z
M 9.8125 72.90625 
L 32.078125 72.90625 
Q 44.34375 72.90625 50.609375 67.359375 
Q 56.890625 61.8125 56.890625 51.125 
Q 56.890625 40.328125 50.609375 34.8125 
Q 44.34375 29.296875 32.078125 29.296875 
L 19.671875 29.296875 
L 19.671875 0 
L 9.8125 0 
z
" id="DejaVuSans-80"/>
     <path d="M 9.421875 75.984375 
L 18.40625 75.984375 
L 18.40625 0 
L 9.421875 0 
z
" id="DejaVuSans-108"/>
     <path d="M 30.609375 48.390625 
Q 23.390625 48.390625 19.1875 42.75 
Q 14.984375 37.109375 14.984375 27.296875 
Q 14.984375 17.484375 19.15625 11.84375 
Q 23.34375 6.203125 30.609375 6.203125 
Q 37.796875 6.203125 41.984375 11.859375 
Q 46.1875 17.53125 46.1875 27.296875 
Q 46.1875 37.015625 41.984375 42.703125 
Q 37.796875 48.390625 30.609375 48.390625 
z
M 30.609375 56 
Q 42.328125 56 49.015625 48.375 
Q 55.71875 40.765625 55.71875 27.296875 
Q 55.71875 13.875 49.015625 6.21875 
Q 42.328125 -1.421875 30.609375 -1.421875 
Q 18.84375 -1.421875 12.171875 6.21875 
Q 5.515625 13.875 5.515625 27.296875 
Q 5.515625 40.765625 12.171875 48.375 
Q 18.84375 56 30.609375 56 
z
" id="DejaVuSans-111"/>
     <path d="M 18.3125 70.21875 
L 18.3125 54.6875 
L 36.8125 54.6875 
L 36.8125 47.703125 
L 18.3125 47.703125 
L 18.3125 18.015625 
Q 18.3125 11.328125 20.140625 9.421875 
Q 21.96875 7.515625 27.59375 7.515625 
L 36.8125 7.515625 
L 36.8125 0 
L 27.59375 0 
Q 17.1875 0 13.234375 3.875 
Q 9.28125 7.765625 9.28125 18.015625 
L 9.28125 47.703125 
L 2.6875 47.703125 
L 2.6875 54.6875 
L 9.28125 54.6875 
L 9.28125 70.21875 
z
" id="DejaVuSans-116"/>
     <path id="DejaVuSans-32"/>
     <path d="M 37.109375 75.984375 
L 37.109375 68.5 
L 28.515625 68.5 
Q 23.6875 68.5 21.796875 66.546875 
Q 19.921875 64.59375 19.921875 59.515625 
L 19.921875 54.6875 
L 34.71875 54.6875 
L 34.71875 47.703125 
L 19.921875 47.703125 
L 19.921875 0 
L 10.890625 0 
L 10.890625 47.703125 
L 2.296875 47.703125 
L 2.296875 54.6875 
L 10.890625 54.6875 
L 10.890625 58.5 
Q 10.890625 67.625 15.140625 71.796875 
Q 19.390625 75.984375 28.609375 75.984375 
z
" id="DejaVuSans-102"/>
     <path d="M -0.296875 72.90625 
L 61.375 72.90625 
L 61.375 64.59375 
L 35.5 64.59375 
L 35.5 0 
L 25.59375 0 
L 25.59375 64.59375 
L -0.296875 64.59375 
z
" id="DejaVuSans-84"/>
     <path d="M 56.203125 29.59375 
L 56.203125 25.203125 
L 14.890625 25.203125 
Q 15.484375 15.921875 20.484375 11.0625 
Q 25.484375 6.203125 34.421875 6.203125 
Q 39.59375 6.203125 44.453125 7.46875 
Q 49.3125 8.734375 54.109375 11.28125 
L 54.109375 2.78125 
Q 49.265625 0.734375 44.1875 -0.34375 
Q 39.109375 -1.421875 33.890625 -1.421875 
Q 20.796875 -1.421875 13.15625 6.1875 
Q 5.515625 13.8125 5.515625 26.8125 
Q 5.515625 40.234375 12.765625 48.109375 
Q 20.015625 56 32.328125 56 
Q 43.359375 56 49.78125 48.890625 
Q 56.203125 41.796875 56.203125 29.59375 
z
M 47.21875 32.234375 
Q 47.125 39.59375 43.09375 43.984375 
Q 39.0625 48.390625 32.421875 48.390625 
Q 24.90625 48.390625 20.390625 44.140625 
Q 15.875 39.890625 15.1875 32.171875 
z
" id="DejaVuSans-101"/>
     <path d="M 44.28125 53.078125 
L 44.28125 44.578125 
Q 40.484375 46.53125 36.375 47.5 
Q 32.28125 48.484375 27.875 48.484375 
Q 21.1875 48.484375 17.84375 46.4375 
Q 14.5 44.390625 14.5 40.28125 
Q 14.5 37.15625 16.890625 35.375 
Q 19.28125 33.59375 26.515625 31.984375 
L 29.59375 31.296875 
Q 39.15625 29.25 43.1875 25.515625 
Q 47.21875 21.78125 47.21875 15.09375 
Q 47.21875 7.46875 41.1875 3.015625 
Q 35.15625 -1.421875 24.609375 -1.421875 
Q 20.21875 -1.421875 15.453125 -0.5625 
Q 10.6875 0.296875 5.421875 2 
L 5.421875 11.28125 
Q 10.40625 8.6875 15.234375 7.390625 
Q 20.0625 6.109375 24.8125 6.109375 
Q 31.15625 6.109375 34.5625 8.28125 
Q 37.984375 10.453125 37.984375 14.40625 
Q 37.984375 18.0625 35.515625 20.015625 
Q 33.0625 21.96875 24.703125 23.78125 
L 21.578125 24.515625 
Q 13.234375 26.265625 9.515625 29.90625 
Q 5.8125 33.546875 5.8125 39.890625 
Q 5.8125 47.609375 11.28125 51.796875 
Q 16.75 56 26.8125 56 
Q 31.78125 56 36.171875 55.265625 
Q 40.578125 54.546875 44.28125 53.078125 
z
" id="DejaVuSans-115"/>
     <path d="M 19.671875 64.796875 
L 19.671875 8.109375 
L 31.59375 8.109375 
Q 46.6875 8.109375 53.6875 14.9375 
Q 60.6875 21.78125 60.6875 36.53125 
Q 60.6875 51.171875 53.6875 57.984375 
Q 46.6875 64.796875 31.59375 64.796875 
z
M 9.8125 72.90625 
L 30.078125 72.90625 
Q 51.265625 72.90625 61.171875 64.09375 
Q 71.09375 55.28125 71.09375 36.53125 
Q 71.09375 17.671875 61.125 8.828125 
Q 51.171875 0 30.078125 0 
L 9.8125 0 
z
" id="DejaVuSans-68"/>
     <path d="M 34.28125 27.484375 
Q 23.390625 27.484375 19.1875 25 
Q 14.984375 22.515625 14.984375 16.5 
Q 14.984375 11.71875 18.140625 8.90625 
Q 21.296875 6.109375 26.703125 6.109375 
Q 34.1875 6.109375 38.703125 11.40625 
Q 43.21875 16.703125 43.21875 25.484375 
L 43.21875 27.484375 
z
M 52.203125 31.203125 
L 52.203125 0 
L 43.21875 0 
L 43.21875 8.296875 
Q 40.140625 3.328125 35.546875 0.953125 
Q 30.953125 -1.421875 24.3125 -1.421875 
Q 15.921875 -1.421875 10.953125 3.296875 
Q 6 8.015625 6 15.921875 
Q 6 25.140625 12.171875 29.828125 
Q 18.359375 34.515625 30.609375 34.515625 
L 43.21875 34.515625 
L 43.21875 35.40625 
Q 43.21875 41.609375 39.140625 45 
Q 35.0625 48.390625 27.6875 48.390625 
Q 23 48.390625 18.546875 47.265625 
Q 14.109375 46.140625 10.015625 43.890625 
L 10.015625 52.203125 
Q 14.9375 54.109375 19.578125 55.046875 
Q 24.21875 56 28.609375 56 
Q 40.484375 56 46.34375 49.84375 
Q 52.203125 43.703125 52.203125 31.203125 
z
" id="DejaVuSans-97"/>
     <path d="M 2.984375 54.6875 
L 12.5 54.6875 
L 29.59375 8.796875 
L 46.6875 54.6875 
L 56.203125 54.6875 
L 35.6875 0 
L 23.484375 0 
z
" id="DejaVuSans-118"/>
     <path d="M 9.8125 72.90625 
L 24.515625 72.90625 
L 43.109375 23.296875 
L 61.8125 72.90625 
L 76.515625 72.90625 
L 76.515625 0 
L 66.890625 0 
L 66.890625 64.015625 
L 48.09375 14.015625 
L 38.1875 14.015625 
L 19.390625 64.015625 
L 19.390625 0 
L 9.8125 0 
z
" id="DejaVuSans-77"/>
     <path d="M 64.40625 67.28125 
L 64.40625 56.890625 
Q 59.421875 61.53125 53.78125 63.8125 
Q 48.140625 66.109375 41.796875 66.109375 
Q 29.296875 66.109375 22.65625 58.46875 
Q 16.015625 50.828125 16.015625 36.375 
Q 16.015625 21.96875 22.65625 14.328125 
Q 29.296875 6.6875 41.796875 6.6875 
Q 48.140625 6.6875 53.78125 8.984375 
Q 59.421875 11.28125 64.40625 15.921875 
L 64.40625 5.609375 
Q 59.234375 2.09375 53.4375 0.328125 
Q 47.65625 -1.421875 41.21875 -1.421875 
Q 24.65625 -1.421875 15.125 8.703125 
Q 5.609375 18.84375 5.609375 36.375 
Q 5.609375 53.953125 15.125 64.078125 
Q 24.65625 74.21875 41.21875 74.21875 
Q 47.75 74.21875 53.53125 72.484375 
Q 59.328125 70.75 64.40625 67.28125 
z
" id="DejaVuSans-67"/>
     <path d="M 8.6875 72.90625 
L 18.609375 72.90625 
L 18.609375 28.609375 
Q 18.609375 16.890625 22.84375 11.734375 
Q 27.09375 6.59375 36.625 6.59375 
Q 46.09375 6.59375 50.34375 11.734375 
Q 54.59375 16.890625 54.59375 28.609375 
L 54.59375 72.90625 
L 64.5 72.90625 
L 64.5 27.390625 
Q 64.5 13.140625 57.4375 5.859375 
Q 50.390625 -1.421875 36.625 -1.421875 
Q 22.796875 -1.421875 15.734375 5.859375 
Q 8.6875 13.140625 8.6875 27.390625 
z
" id="DejaVuSans-85"/>
     <path d="M 54.890625 33.015625 
L 54.890625 0 
L 45.90625 0 
L 45.90625 32.71875 
Q 45.90625 40.484375 42.875 44.328125 
Q 39.84375 48.1875 33.796875 48.1875 
Q 26.515625 48.1875 22.3125 43.546875 
Q 18.109375 38.921875 18.109375 30.90625 
L 18.109375 0 
L 9.078125 0 
L 9.078125 54.6875 
L 18.109375 54.6875 
L 18.109375 46.1875 
Q 21.34375 51.125 25.703125 53.5625 
Q 30.078125 56 35.796875 56 
Q 45.21875 56 50.046875 50.171875 
Q 54.890625 44.34375 54.890625 33.015625 
z
" id="DejaVuSans-110"/>
     <path d="M 48.78125 52.59375 
L 48.78125 44.1875 
Q 44.96875 46.296875 41.140625 47.34375 
Q 37.3125 48.390625 33.40625 48.390625 
Q 24.65625 48.390625 19.8125 42.84375 
Q 14.984375 37.3125 14.984375 27.296875 
Q 14.984375 17.28125 19.8125 11.734375 
Q 24.65625 6.203125 33.40625 6.203125 
Q 37.3125 6.203125 41.140625 7.25 
Q 44.96875 8.296875 48.78125 10.40625 
L 48.78125 2.09375 
Q 45.015625 0.34375 40.984375 -0.53125 
Q 36.96875 -1.421875 32.421875 -1.421875 
Q 20.0625 -1.421875 12.78125 6.34375 
Q 5.515625 14.109375 5.515625 27.296875 
Q 5.515625 40.671875 12.859375 48.328125 
Q 20.21875 56 33.015625 56 
Q 37.15625 56 41.109375 55.140625 
Q 45.0625 54.296875 48.78125 52.59375 
z
" id="DejaVuSans-99"/>
     <path d="M 41.109375 46.296875 
Q 39.59375 47.171875 37.8125 47.578125 
Q 36.03125 48 33.890625 48 
Q 26.265625 48 22.1875 43.046875 
Q 18.109375 38.09375 18.109375 28.8125 
L 18.109375 0 
L 9.078125 0 
L 9.078125 54.6875 
L 18.109375 54.6875 
L 18.109375 46.1875 
Q 20.953125 51.171875 25.484375 53.578125 
Q 30.03125 56 36.53125 56 
Q 37.453125 56 38.578125 55.875 
Q 39.703125 55.765625 41.0625 55.515625 
z
" id="DejaVuSans-114"/>
     <path d="M 9.421875 54.6875 
L 18.40625 54.6875 
L 18.40625 0 
L 9.421875 0 
z
M 9.421875 75.984375 
L 18.40625 75.984375 
L 18.40625 64.59375 
L 9.421875 64.59375 
z
" id="DejaVuSans-105"/>
     <path d="M 32.171875 -5.078125 
Q 28.375 -14.84375 24.75 -17.8125 
Q 21.140625 -20.796875 15.09375 -20.796875 
L 7.90625 -20.796875 
L 7.90625 -13.28125 
L 13.1875 -13.28125 
Q 16.890625 -13.28125 18.9375 -11.515625 
Q 21 -9.765625 23.484375 -3.21875 
L 25.09375 0.875 
L 2.984375 54.6875 
L 12.5 54.6875 
L 29.59375 11.921875 
L 46.6875 54.6875 
L 56.203125 54.6875 
z
" id="DejaVuSans-121"/>
    </defs>
    <g transform="translate(118.112813 35.472)scale(0.12 -0.12)">
     <use xlink:href="#DejaVuSans-80"/>
     <use x="60.302734" xlink:href="#DejaVuSans-108"/>
     <use x="88.085938" xlink:href="#DejaVuSans-111"/>
     <use x="149.267578" xlink:href="#DejaVuSans-116"/>
     <use x="188.476562" xlink:href="#DejaVuSans-32"/>
     <use x="220.263672" xlink:href="#DejaVuSans-111"/>
     <use x="281.445312" xlink:href="#DejaVuSans-102"/>
     <use x="316.650391" xlink:href="#DejaVuSans-32"/>
     <use x="348.4375" xlink:href="#DejaVuSans-84"/>
     <use x="409.255859" xlink:href="#DejaVuSans-101"/>
     <use x="470.779297" xlink:href="#DejaVuSans-115"/>
     <use x="522.878906" xlink:href="#DejaVuSans-116"/>
     <use x="562.087891" xlink:href="#DejaVuSans-32"/>
     <use x="593.875" xlink:href="#DejaVuSans-68"/>
     <use x="670.876953" xlink:href="#DejaVuSans-97"/>
     <use x="732.15625" xlink:href="#DejaVuSans-116"/>
     <use x="771.365234" xlink:href="#DejaVuSans-97"/>
     <use x="832.644531" xlink:href="#DejaVuSans-32"/>
     <use x="864.431641" xlink:href="#DejaVuSans-118"/>
     <use x="923.611328" xlink:href="#DejaVuSans-115"/>
     <use x="975.710938" xlink:href="#DejaVuSans-32"/>
     <use x="1007.498047" xlink:href="#DejaVuSans-77"/>
     <use x="1093.777344" xlink:href="#DejaVuSans-67"/>
     <use x="1163.601562" xlink:href="#DejaVuSans-77"/>
     <use x="1249.880859" xlink:href="#DejaVuSans-67"/>
     <use x="1319.705078" xlink:href="#DejaVuSans-32"/>
     <use x="1351.492188" xlink:href="#DejaVuSans-85"/>
     <use x="1424.685547" xlink:href="#DejaVuSans-110"/>
     <use x="1488.064453" xlink:href="#DejaVuSans-99"/>
     <use x="1543.044922" xlink:href="#DejaVuSans-101"/>
     <use x="1604.568359" xlink:href="#DejaVuSans-114"/>
     <use x="1645.681641" xlink:href="#DejaVuSans-116"/>
     <use x="1684.890625" xlink:href="#DejaVuSans-97"/>
     <use x="1746.169922" xlink:href="#DejaVuSans-105"/>
     <use x="1773.953125" xlink:href="#DejaVuSans-110"/>
     <use x="1837.332031" xlink:href="#DejaVuSans-116"/>
     <use x="1876.541016" xlink:href="#DejaVuSans-121"/>
     <use x="1935.720703" xlink:href="#DejaVuSans-32"/>
    </g>
   </g>
   <g id="legend_1">
    <g id="patch_7">
     <path d="M 277.843437 108.1845 
L 407.72 108.1845 
Q 409.72 108.1845 409.72 106.1845 
L 409.72 48.472 
Q 409.72 46.472 407.72 46.472 
L 277.843437 46.472 
Q 275.843437 46.472 275.843437 48.472 
L 275.843437 106.1845 
Q 275.843437 108.1845 277.843437 108.1845 
z
" style="fill:#ffffff;opacity:0.8;stroke:#cccccc;stroke-linejoin:miter;"/>
    </g>
    <g id="line2d_18">
     <path d="M 279.843437 54.570438 
L 299.843437 54.570438 
" style="fill:none;stroke:#1f77b4;stroke-linecap:square;stroke-width:1.5;"/>
    </g>
    <g id="line2d_19"/>
    <g id="text_15">
     <!-- actual -->
     <defs>
      <path d="M 8.5 21.578125 
L 8.5 54.6875 
L 17.484375 54.6875 
L 17.484375 21.921875 
Q 17.484375 14.15625 20.5 10.265625 
Q 23.53125 6.390625 29.59375 6.390625 
Q 36.859375 6.390625 41.078125 11.03125 
Q 45.3125 15.671875 45.3125 23.6875 
L 45.3125 54.6875 
L 54.296875 54.6875 
L 54.296875 0 
L 45.3125 0 
L 45.3125 8.40625 
Q 42.046875 3.421875 37.71875 1 
Q 33.40625 -1.421875 27.6875 -1.421875 
Q 18.265625 -1.421875 13.375 4.4375 
Q 8.5 10.296875 8.5 21.578125 
z
M 31.109375 56 
z
" id="DejaVuSans-117"/>
     </defs>
     <g transform="translate(307.843437 58.070438)scale(0.1 -0.1)">
      <use xlink:href="#DejaVuSans-97"/>
      <use x="61.279297" xlink:href="#DejaVuSans-99"/>
      <use x="116.259766" xlink:href="#DejaVuSans-116"/>
      <use x="155.46875" xlink:href="#DejaVuSans-117"/>
      <use x="218.847656" xlink:href="#DejaVuSans-97"/>
      <use x="280.126953" xlink:href="#DejaVuSans-108"/>
     </g>
    </g>
    <g id="line2d_20">
     <path d="M 279.843437 69.248563 
L 299.843437 69.248563 
" style="fill:none;stroke:#ff7f0e;stroke-linecap:square;stroke-width:1.5;"/>
    </g>
    <g id="line2d_21"/>
    <g id="text_16">
     <!-- pred. (mean) -->
     <defs>
      <path d="M 18.109375 8.203125 
L 18.109375 -20.796875 
L 9.078125 -20.796875 
L 9.078125 54.6875 
L 18.109375 54.6875 
L 18.109375 46.390625 
Q 20.953125 51.265625 25.265625 53.625 
Q 29.59375 56 35.59375 56 
Q 45.5625 56 51.78125 48.09375 
Q 58.015625 40.1875 58.015625 27.296875 
Q 58.015625 14.40625 51.78125 6.484375 
Q 45.5625 -1.421875 35.59375 -1.421875 
Q 29.59375 -1.421875 25.265625 0.953125 
Q 20.953125 3.328125 18.109375 8.203125 
z
M 48.6875 27.296875 
Q 48.6875 37.203125 44.609375 42.84375 
Q 40.53125 48.484375 33.40625 48.484375 
Q 26.265625 48.484375 22.1875 42.84375 
Q 18.109375 37.203125 18.109375 27.296875 
Q 18.109375 17.390625 22.1875 11.75 
Q 26.265625 6.109375 33.40625 6.109375 
Q 40.53125 6.109375 44.609375 11.75 
Q 48.6875 17.390625 48.6875 27.296875 
z
" id="DejaVuSans-112"/>
      <path d="M 45.40625 46.390625 
L 45.40625 75.984375 
L 54.390625 75.984375 
L 54.390625 0 
L 45.40625 0 
L 45.40625 8.203125 
Q 42.578125 3.328125 38.25 0.953125 
Q 33.9375 -1.421875 27.875 -1.421875 
Q 17.96875 -1.421875 11.734375 6.484375 
Q 5.515625 14.40625 5.515625 27.296875 
Q 5.515625 40.1875 11.734375 48.09375 
Q 17.96875 56 27.875 56 
Q 33.9375 56 38.25 53.625 
Q 42.578125 51.265625 45.40625 46.390625 
z
M 14.796875 27.296875 
Q 14.796875 17.390625 18.875 11.75 
Q 22.953125 6.109375 30.078125 6.109375 
Q 37.203125 6.109375 41.296875 11.75 
Q 45.40625 17.390625 45.40625 27.296875 
Q 45.40625 37.203125 41.296875 42.84375 
Q 37.203125 48.484375 30.078125 48.484375 
Q 22.953125 48.484375 18.875 42.84375 
Q 14.796875 37.203125 14.796875 27.296875 
z
" id="DejaVuSans-100"/>
      <path d="M 31 75.875 
Q 24.46875 64.65625 21.28125 53.65625 
Q 18.109375 42.671875 18.109375 31.390625 
Q 18.109375 20.125 21.3125 9.0625 
Q 24.515625 -2 31 -13.1875 
L 23.1875 -13.1875 
Q 15.875 -1.703125 12.234375 9.375 
Q 8.59375 20.453125 8.59375 31.390625 
Q 8.59375 42.28125 12.203125 53.3125 
Q 15.828125 64.359375 23.1875 75.875 
z
" id="DejaVuSans-40"/>
      <path d="M 52 44.1875 
Q 55.375 50.25 60.0625 53.125 
Q 64.75 56 71.09375 56 
Q 79.640625 56 84.28125 50.015625 
Q 88.921875 44.046875 88.921875 33.015625 
L 88.921875 0 
L 79.890625 0 
L 79.890625 32.71875 
Q 79.890625 40.578125 77.09375 44.375 
Q 74.3125 48.1875 68.609375 48.1875 
Q 61.625 48.1875 57.5625 43.546875 
Q 53.515625 38.921875 53.515625 30.90625 
L 53.515625 0 
L 44.484375 0 
L 44.484375 32.71875 
Q 44.484375 40.625 41.703125 44.40625 
Q 38.921875 48.1875 33.109375 48.1875 
Q 26.21875 48.1875 22.15625 43.53125 
Q 18.109375 38.875 18.109375 30.90625 
L 18.109375 0 
L 9.078125 0 
L 9.078125 54.6875 
L 18.109375 54.6875 
L 18.109375 46.1875 
Q 21.1875 51.21875 25.484375 53.609375 
Q 29.78125 56 35.6875 56 
Q 41.65625 56 45.828125 52.96875 
Q 50 49.953125 52 44.1875 
z
" id="DejaVuSans-109"/>
      <path d="M 8.015625 75.875 
L 15.828125 75.875 
Q 23.140625 64.359375 26.78125 53.3125 
Q 30.421875 42.28125 30.421875 31.390625 
Q 30.421875 20.453125 26.78125 9.375 
Q 23.140625 -1.703125 15.828125 -13.1875 
L 8.015625 -13.1875 
Q 14.5 -2 17.703125 9.0625 
Q 20.90625 20.125 20.90625 31.390625 
Q 20.90625 42.671875 17.703125 53.65625 
Q 14.5 64.65625 8.015625 75.875 
z
" id="DejaVuSans-41"/>
     </defs>
     <g transform="translate(307.843437 72.748563)scale(0.1 -0.1)">
      <use xlink:href="#DejaVuSans-112"/>
      <use x="63.476562" xlink:href="#DejaVuSans-114"/>
      <use x="104.558594" xlink:href="#DejaVuSans-101"/>
      <use x="166.082031" xlink:href="#DejaVuSans-100"/>
      <use x="229.558594" xlink:href="#DejaVuSans-46"/>
      <use x="261.345703" xlink:href="#DejaVuSans-32"/>
      <use x="293.132812" xlink:href="#DejaVuSans-40"/>
      <use x="332.146484" xlink:href="#DejaVuSans-109"/>
      <use x="429.558594" xlink:href="#DejaVuSans-101"/>
      <use x="491.082031" xlink:href="#DejaVuSans-97"/>
      <use x="552.361328" xlink:href="#DejaVuSans-110"/>
      <use x="615.740234" xlink:href="#DejaVuSans-41"/>
     </g>
    </g>
    <g id="line2d_22">
     <path d="M 279.843437 83.926688 
L 299.843437 83.926688 
" style="fill:none;stroke:#2ca02c;stroke-linecap:square;stroke-width:1.5;"/>
    </g>
    <g id="line2d_23"/>
    <g id="text_17">
     <!-- pred.(5th percen.) -->
     <defs>
      <path d="M 54.890625 33.015625 
L 54.890625 0 
L 45.90625 0 
L 45.90625 32.71875 
Q 45.90625 40.484375 42.875 44.328125 
Q 39.84375 48.1875 33.796875 48.1875 
Q 26.515625 48.1875 22.3125 43.546875 
Q 18.109375 38.921875 18.109375 30.90625 
L 18.109375 0 
L 9.078125 0 
L 9.078125 75.984375 
L 18.109375 75.984375 
L 18.109375 46.1875 
Q 21.34375 51.125 25.703125 53.5625 
Q 30.078125 56 35.796875 56 
Q 45.21875 56 50.046875 50.171875 
Q 54.890625 44.34375 54.890625 33.015625 
z
" id="DejaVuSans-104"/>
     </defs>
     <g transform="translate(307.843437 87.426688)scale(0.1 -0.1)">
      <use xlink:href="#DejaVuSans-112"/>
      <use x="63.476562" xlink:href="#DejaVuSans-114"/>
      <use x="104.558594" xlink:href="#DejaVuSans-101"/>
      <use x="166.082031" xlink:href="#DejaVuSans-100"/>
      <use x="229.558594" xlink:href="#DejaVuSans-46"/>
      <use x="261.345703" xlink:href="#DejaVuSans-40"/>
      <use x="300.359375" xlink:href="#DejaVuSans-53"/>
      <use x="363.982422" xlink:href="#DejaVuSans-116"/>
      <use x="403.191406" xlink:href="#DejaVuSans-104"/>
      <use x="466.570312" xlink:href="#DejaVuSans-32"/>
      <use x="498.357422" xlink:href="#DejaVuSans-112"/>
      <use x="561.833984" xlink:href="#DejaVuSans-101"/>
      <use x="623.357422" xlink:href="#DejaVuSans-114"/>
      <use x="664.439453" xlink:href="#DejaVuSans-99"/>
      <use x="719.419922" xlink:href="#DejaVuSans-101"/>
      <use x="780.943359" xlink:href="#DejaVuSans-110"/>
      <use x="844.322266" xlink:href="#DejaVuSans-46"/>
      <use x="876.109375" xlink:href="#DejaVuSans-41"/>
     </g>
    </g>
    <g id="line2d_24">
     <path d="M 279.843437 98.604813 
L 299.843437 98.604813 
" style="fill:none;stroke:#d62728;stroke-linecap:square;stroke-width:1.5;"/>
    </g>
    <g id="line2d_25"/>
    <g id="text_18">
     <!-- pred.(95th percen.) -->
     <defs>
      <path d="M 10.984375 1.515625 
L 10.984375 10.5 
Q 14.703125 8.734375 18.5 7.8125 
Q 22.3125 6.890625 25.984375 6.890625 
Q 35.75 6.890625 40.890625 13.453125 
Q 46.046875 20.015625 46.78125 33.40625 
Q 43.953125 29.203125 39.59375 26.953125 
Q 35.25 24.703125 29.984375 24.703125 
Q 19.046875 24.703125 12.671875 31.3125 
Q 6.296875 37.9375 6.296875 49.421875 
Q 6.296875 60.640625 12.9375 67.421875 
Q 19.578125 74.21875 30.609375 74.21875 
Q 43.265625 74.21875 49.921875 64.515625 
Q 56.59375 54.828125 56.59375 36.375 
Q 56.59375 19.140625 48.40625 8.859375 
Q 40.234375 -1.421875 26.421875 -1.421875 
Q 22.703125 -1.421875 18.890625 -0.6875 
Q 15.09375 0.046875 10.984375 1.515625 
z
M 30.609375 32.421875 
Q 37.25 32.421875 41.125 36.953125 
Q 45.015625 41.5 45.015625 49.421875 
Q 45.015625 57.28125 41.125 61.84375 
Q 37.25 66.40625 30.609375 66.40625 
Q 23.96875 66.40625 20.09375 61.84375 
Q 16.21875 57.28125 16.21875 49.421875 
Q 16.21875 41.5 20.09375 36.953125 
Q 23.96875 32.421875 30.609375 32.421875 
z
" id="DejaVuSans-57"/>
     </defs>
     <g transform="translate(307.843437 102.104813)scale(0.1 -0.1)">
      <use xlink:href="#DejaVuSans-112"/>
      <use x="63.476562" xlink:href="#DejaVuSans-114"/>
      <use x="104.558594" xlink:href="#DejaVuSans-101"/>
      <use x="166.082031" xlink:href="#DejaVuSans-100"/>
      <use x="229.558594" xlink:href="#DejaVuSans-46"/>
      <use x="261.345703" xlink:href="#DejaVuSans-40"/>
      <use x="300.359375" xlink:href="#DejaVuSans-57"/>
      <use x="363.982422" xlink:href="#DejaVuSans-53"/>
      <use x="427.605469" xlink:href="#DejaVuSans-116"/>
      <use x="466.814453" xlink:href="#DejaVuSans-104"/>
      <use x="530.193359" xlink:href="#DejaVuSans-32"/>
      <use x="561.980469" xlink:href="#DejaVuSans-112"/>
      <use x="625.457031" xlink:href="#DejaVuSans-101"/>
      <use x="686.980469" xlink:href="#DejaVuSans-114"/>
      <use x="728.0625" xlink:href="#DejaVuSans-99"/>
      <use x="783.042969" xlink:href="#DejaVuSans-101"/>
      <use x="844.566406" xlink:href="#DejaVuSans-110"/>
      <use x="907.945312" xlink:href="#DejaVuSans-46"/>
      <use x="939.732422" xlink:href="#DejaVuSans-41"/>
     </g>
    </g>
   </g>
  </g>
 </g>
 <defs>
  <clipPath id="p291921797e">
   <rect height="266.112" width="357.12" x="57.6" y="41.472"/>
  </clipPath>
 </defs>
</svg>
