<?xml version="1.0" encoding="utf-8" standalone="no"?>
<!DOCTYPE svg PUBLIC "-//W3C//DTD SVG 1.1//EN"
  "http://www.w3.org/Graphics/SVG/1.1/DTD/svg11.dtd">
<!-- Created with matplotlib (https://matplotlib.org/) -->
<svg height="345.6pt" version="1.1" viewBox="0 0 460.8 345.6" width="460.8pt" xmlns="http://www.w3.org/2000/svg" xmlns:xlink="http://www.w3.org/1999/xlink">
 <defs>
  <style type="text/css">
*{stroke-linecap:butt;stroke-linejoin:round;}
  </style>
 </defs>
 <g id="figure_1">
  <g id="patch_1">
   <path d="M 0 345.6 
L 460.8 345.6 
L 460.8 0 
L 0 0 
z
" style="fill:#ffffff;"/>
  </g>
  <g id="axes_1">
   <g id="patch_2">
    <path d="M 57.6 307.584 
L 414.72 307.584 
L 414.72 41.472 
L 57.6 41.472 
z
" style="fill:#ffffff;"/>
   </g>
   <g id="PolyCollection_1">
    <path clip-path="url(#pafe87b88c2)" d="M 73.832727 90.86468 
L 73.832727 96.43514 
L 75.48072 92.945523 
L 77.128713 111.481181 
L 78.776705 104.527058 
L 80.424698 127.384636 
L 82.07269 145.174643 
L 83.720683 154.447634 
L 85.368676 157.107235 
L 87.016668 142.448991 
L 88.664661 149.634948 
L 90.312653 154.347194 
L 91.960646 163.873035 
L 93.608639 174.156995 
L 95.256631 184.634856 
L 96.904624 205.383482 
L 98.552617 217.139074 
L 100.200609 230.501325 
L 101.848602 236.06948 
L 103.496594 248.956443 
L 105.144587 259.447534 
L 106.79258 264.971408 
L 108.440572 266.6132 
L 110.088565 267.371919 
L 111.736557 265.915003 
L 113.38455 265.853179 
L 115.032543 267.28718 
L 116.680535 271.203698 
L 118.328528 275.476254 
L 119.976521 277.012795 
L 121.624513 279.314424 
L 123.272506 280.382695 
L 124.920498 281.214372 
L 126.568491 281.250061 
L 128.216484 279.271722 
L 129.864476 279.139689 
L 131.512469 279.468134 
L 133.160461 280.495259 
L 134.808454 280.839821 
L 136.456447 281.357632 
L 138.104439 281.884162 
L 139.752432 280.217256 
L 141.400425 278.467684 
L 143.048417 274.494813 
L 144.69641 267.33195 
L 146.344402 250.223425 
L 147.992395 231.517927 
L 149.640388 212.897898 
L 151.28838 194.10482 
L 152.936373 168.390129 
L 154.584365 145.39662 
L 156.232358 134.828586 
L 157.880351 115.540588 
L 159.528343 107.858571 
L 161.176336 95.605827 
L 162.824329 96.016317 
L 164.472321 90.501451 
L 166.120314 84.622472 
L 167.768306 73.201958 
L 169.416299 69.653611 
L 171.064292 65.129221 
L 172.712284 65.839848 
L 174.360277 64.536413 
L 176.008269 58.112522 
L 177.656262 81.497105 
L 179.304255 84.881453 
L 180.952247 97.327405 
L 182.60024 99.158406 
L 184.248233 106.422993 
L 185.896225 129.031173 
L 187.544218 129.948327 
L 189.19221 130.394509 
L 190.840203 134.692825 
L 192.488196 140.190809 
L 194.136188 159.460337 
L 195.784181 164.106529 
L 197.432174 172.259963 
L 199.080166 183.785946 
L 200.728159 186.371737 
L 202.376151 197.457219 
L 204.024144 200.879393 
L 205.672137 214.271113 
L 207.320129 217.926644 
L 208.968122 226.998168 
L 210.616114 231.730689 
L 212.264107 230.174292 
L 213.9121 232.243463 
L 215.560092 232.843145 
L 217.208085 232.804324 
L 218.856078 226.626268 
L 220.50407 231.952474 
L 222.152063 241.887336 
L 223.800055 245.537811 
L 225.448048 245.982442 
L 227.096041 256.496977 
L 228.744033 264.495506 
L 230.392026 267.907644 
L 232.040018 269.636387 
L 233.688011 269.585141 
L 235.336004 270.996138 
L 236.983996 271.120496 
L 238.631989 271.71089 
L 240.279982 273.915331 
L 241.927974 276.611782 
L 243.575967 279.778485 
L 245.223959 281.81034 
L 246.871952 283.385013 
L 248.519945 284.878011 
L 250.167937 285.104161 
L 251.81593 284.805348 
L 253.463922 284.752763 
L 255.111915 285.20204 
L 256.759908 285.067354 
L 258.4079 283.382006 
L 260.055893 282.193307 
L 261.703886 280.042515 
L 263.351878 275.338612 
L 264.999871 269.176795 
L 266.647863 261.086384 
L 268.295856 250.840044 
L 269.943849 234.343301 
L 271.591841 224.382844 
L 273.239834 215.034912 
L 274.887826 202.560194 
L 276.535819 189.838961 
L 278.183812 185.820569 
L 279.831804 181.311927 
L 281.479797 160.507885 
L 283.12779 159.129775 
L 284.775782 154.677706 
L 286.423775 148.657563 
L 288.071767 129.468116 
L 289.71976 129.809075 
L 291.367753 145.73903 
L 293.015745 135.412589 
L 294.663738 122.941927 
L 296.311731 127.519189 
L 297.959723 164.217333 
L 299.607716 154.166638 
L 301.255708 123.576765 
L 302.903701 132.185495 
L 304.551694 155.321712 
L 306.199686 148.127215 
L 307.847679 124.194382 
L 309.495671 141.743489 
L 311.143664 171.427838 
L 312.791657 166.714132 
L 314.439649 162.396373 
L 316.087642 152.854551 
L 317.735635 167.047921 
L 319.383627 166.42476 
L 321.03162 153.693192 
L 322.679612 160.873391 
L 324.327605 168.231701 
L 325.975598 196.914938 
L 327.62359 187.759076 
L 329.271583 185.795856 
L 330.919575 200.270539 
L 332.567568 210.229001 
L 334.215561 217.725908 
L 335.863553 223.059776 
L 337.511546 238.527976 
L 339.159539 253.48089 
L 340.807531 262.172387 
L 342.455524 263.754044 
L 344.103516 267.253707 
L 345.751509 271.776701 
L 347.399502 278.22243 
L 349.047494 280.735206 
L 350.695487 282.29954 
L 352.343479 284.117854 
L 353.991472 284.705847 
L 355.639465 284.904988 
L 357.287457 284.680835 
L 358.93545 284.249279 
L 360.583443 284.083365 
L 362.231435 284.581519 
L 363.879428 285.334782 
L 365.52742 285.968375 
L 367.175413 286.494513 
L 368.823406 286.866965 
L 370.471398 286.866542 
L 372.119391 285.305866 
L 373.767383 283.460259 
L 375.415376 281.4719 
L 377.063369 278.864354 
L 378.711361 273.615114 
L 380.359354 261.342365 
L 382.007347 247.744452 
L 383.655339 223.204707 
L 385.303332 190.715221 
L 386.951324 170.623471 
L 388.599317 163.482977 
L 390.24731 155.887841 
L 391.895302 139.45238 
L 393.543295 144.87173 
L 395.191287 156.903829 
L 396.83928 151.298248 
L 398.487273 137.291567 
L 398.487273 132.498274 
L 398.487273 132.498274 
L 396.83928 146.350295 
L 395.191287 152.544877 
L 393.543295 137.724063 
L 391.895302 132.702241 
L 390.24731 151.36523 
L 388.599317 159.473246 
L 386.951324 164.573615 
L 385.303332 183.86399 
L 383.655339 213.226383 
L 382.007347 243.600847 
L 380.359354 255.989894 
L 378.711361 268.738358 
L 377.063369 273.071447 
L 375.415376 275.357919 
L 373.767383 277.148954 
L 372.119391 279.143429 
L 370.471398 280.668015 
L 368.823406 280.669046 
L 367.175413 280.28485 
L 365.52742 279.696033 
L 363.879428 279.14399 
L 362.231435 278.341825 
L 360.583443 277.794188 
L 358.93545 278.050006 
L 357.287457 278.458995 
L 355.639465 278.66657 
L 353.991472 278.586841 
L 352.343479 277.926541 
L 350.695487 276.214562 
L 349.047494 275.098296 
L 347.399502 272.804951 
L 345.751509 266.813009 
L 344.103516 263.050709 
L 342.455524 260.345297 
L 340.807531 257.954506 
L 339.159539 247.873933 
L 337.511546 231.222508 
L 335.863553 218.225976 
L 334.215561 212.496384 
L 332.567568 205.65461 
L 330.919575 195.211745 
L 329.271583 180.373181 
L 327.62359 179.3999 
L 325.975598 189.012476 
L 324.327605 165.471708 
L 322.679612 155.206276 
L 321.03162 147.650501 
L 319.383627 161.63685 
L 317.735635 162.061466 
L 316.087642 148.266467 
L 314.439649 159.68549 
L 312.791657 161.848616 
L 311.143664 165.862805 
L 309.495671 132.379622 
L 307.847679 119.238288 
L 306.199686 138.344023 
L 304.551694 148.298806 
L 302.903701 126.338836 
L 301.255708 119.079285 
L 299.607716 142.327315 
L 297.959723 152.787315 
L 296.311731 122.465753 
L 294.663738 117.050762 
L 293.015745 132.115841 
L 291.367753 140.018848 
L 289.71976 121.398045 
L 288.071767 119.632085 
L 286.423775 144.921734 
L 284.775782 150.577686 
L 283.12779 154.89806 
L 281.479797 153.370233 
L 279.831804 175.80722 
L 278.183812 181.676951 
L 276.535819 184.452145 
L 274.887826 197.009352 
L 273.239834 209.881083 
L 271.591841 220.453537 
L 269.943849 229.482834 
L 268.295856 246.311075 
L 266.647863 257.648112 
L 264.999871 264.685495 
L 263.351878 270.183086 
L 261.703886 274.162174 
L 260.055893 275.930305 
L 258.4079 277.149589 
L 256.759908 278.885448 
L 255.111915 279.007935 
L 253.463922 278.474694 
L 251.81593 278.572045 
L 250.167937 278.905031 
L 248.519945 278.680354 
L 246.871952 277.28659 
L 245.223959 275.945396 
L 243.575967 273.908368 
L 241.927974 271.231757 
L 240.279982 268.792996 
L 238.631989 266.983485 
L 236.983996 266.696829 
L 235.336004 266.231677 
L 233.688011 265.485239 
L 232.040018 265.349046 
L 230.392026 264.088165 
L 228.744033 259.860461 
L 227.096041 251.070784 
L 225.448048 242.657054 
L 223.800055 241.032487 
L 222.152063 236.235538 
L 220.50407 226.555989 
L 218.856078 220.846741 
L 217.208085 228.596783 
L 215.560092 227.979805 
L 213.9121 228.048844 
L 212.264107 225.597026 
L 210.616114 226.983542 
L 208.968122 221.230324 
L 207.320129 212.872642 
L 205.672137 208.777839 
L 204.024144 196.799897 
L 202.376151 191.750608 
L 200.728159 183.028538 
L 199.080166 179.68722 
L 197.432174 169.292215 
L 195.784181 159.106171 
L 194.136188 153.016175 
L 192.488196 134.959519 
L 190.840203 130.618589 
L 189.19221 126.092182 
L 187.544218 122.74394 
L 185.896225 121.262078 
L 184.248233 99.520223 
L 182.60024 94.085562 
L 180.952247 91.549039 
L 179.304255 80.335353 
L 177.656262 71.860519 
L 176.008269 53.568 
L 174.360277 60.826313 
L 172.712284 60.268108 
L 171.064292 61.320589 
L 169.416299 66.08344 
L 167.768306 69.850235 
L 166.120314 81.286095 
L 164.472321 87.374203 
L 162.824329 90.82792 
L 161.176336 91.936245 
L 159.528343 102.06844 
L 157.880351 110.634233 
L 156.232358 129.964093 
L 154.584365 138.14254 
L 152.936373 161.05778 
L 151.28838 186.336413 
L 149.640388 206.8373 
L 147.992395 226.830776 
L 146.344402 243.541301 
L 144.69641 262.535751 
L 143.048417 269.460708 
L 141.400425 272.641685 
L 139.752432 274.347299 
L 138.104439 275.907439 
L 136.456447 275.352609 
L 134.808454 274.96138 
L 133.160461 274.457004 
L 131.512469 273.826396 
L 129.864476 273.151443 
L 128.216484 273.48057 
L 126.568491 275.358926 
L 124.920498 275.210272 
L 123.272506 274.723048 
L 121.624513 273.346454 
L 119.976521 271.677719 
L 118.328528 270.425778 
L 116.680535 266.34143 
L 115.032543 262.99889 
L 113.38455 262.046317 
L 111.736557 262.286698 
L 110.088565 263.582256 
L 108.440572 262.664088 
L 106.79258 261.204394 
L 105.144587 255.031788 
L 103.496594 242.25026 
L 101.848602 230.941252 
L 100.200609 224.141136 
L 98.552617 211.606301 
L 96.904624 200.135022 
L 95.256631 178.59728 
L 93.608639 170.766756 
L 91.960646 160.307012 
L 90.312653 150.334272 
L 88.664661 143.98867 
L 87.016668 138.003369 
L 85.368676 151.462605 
L 83.720683 149.893099 
L 82.07269 139.748337 
L 80.424698 116.586834 
L 78.776705 99.018947 
L 77.128713 101.831363 
L 75.48072 88.345114 
L 73.832727 90.86468 
z
" style="fill:#008000;fill-opacity:0.4;"/>
   </g>
   <g id="matplotlib.axis_1">
    <g id="xtick_1">
     <g id="line2d_1">
      <defs>
       <path d="M 0 0 
L 0 3.5 
" id="m0bcd4e3596" style="stroke:#000000;stroke-width:0.8;"/>
      </defs>
      <g>
       <use style="stroke:#000000;stroke-width:0.8;" x="73.832727" xlink:href="#m0bcd4e3596" y="307.584"/>
      </g>
     </g>
     <g id="text_1">
      <!-- 0.0 -->
      <defs>
       <path d="M 31.78125 66.40625 
Q 24.171875 66.40625 20.328125 58.90625 
Q 16.5 51.421875 16.5 36.375 
Q 16.5 21.390625 20.328125 13.890625 
Q 24.171875 6.390625 31.78125 6.390625 
Q 39.453125 6.390625 43.28125 13.890625 
Q 47.125 21.390625 47.125 36.375 
Q 47.125 51.421875 43.28125 58.90625 
Q 39.453125 66.40625 31.78125 66.40625 
z
M 31.78125 74.21875 
Q 44.046875 74.21875 50.515625 64.515625 
Q 56.984375 54.828125 56.984375 36.375 
Q 56.984375 17.96875 50.515625 8.265625 
Q 44.046875 -1.421875 31.78125 -1.421875 
Q 19.53125 -1.421875 13.0625 8.265625 
Q 6.59375 17.96875 6.59375 36.375 
Q 6.59375 54.828125 13.0625 64.515625 
Q 19.53125 74.21875 31.78125 74.21875 
z
" id="DejaVuSans-48"/>
       <path d="M 10.6875 12.40625 
L 21 12.40625 
L 21 0 
L 10.6875 0 
z
" id="DejaVuSans-46"/>
      </defs>
      <g transform="translate(65.881165 322.182437)scale(0.1 -0.1)">
       <use xlink:href="#DejaVuSans-48"/>
       <use x="63.623047" xlink:href="#DejaVuSans-46"/>
       <use x="95.410156" xlink:href="#DejaVuSans-48"/>
      </g>
     </g>
    </g>
    <g id="xtick_2">
     <g id="line2d_2">
      <g>
       <use style="stroke:#000000;stroke-width:0.8;" x="138.763636" xlink:href="#m0bcd4e3596" y="307.584"/>
      </g>
     </g>
     <g id="text_2">
      <!-- 0.2 -->
      <defs>
       <path d="M 19.1875 8.296875 
L 53.609375 8.296875 
L 53.609375 0 
L 7.328125 0 
L 7.328125 8.296875 
Q 12.9375 14.109375 22.625 23.890625 
Q 32.328125 33.6875 34.8125 36.53125 
Q 39.546875 41.84375 41.421875 45.53125 
Q 43.3125 49.21875 43.3125 52.78125 
Q 43.3125 58.59375 39.234375 62.25 
Q 35.15625 65.921875 28.609375 65.921875 
Q 23.96875 65.921875 18.8125 64.3125 
Q 13.671875 62.703125 7.8125 59.421875 
L 7.8125 69.390625 
Q 13.765625 71.78125 18.9375 73 
Q 24.125 74.21875 28.421875 74.21875 
Q 39.75 74.21875 46.484375 68.546875 
Q 53.21875 62.890625 53.21875 53.421875 
Q 53.21875 48.921875 51.53125 44.890625 
Q 49.859375 40.875 45.40625 35.40625 
Q 44.1875 33.984375 37.640625 27.21875 
Q 31.109375 20.453125 19.1875 8.296875 
z
" id="DejaVuSans-50"/>
      </defs>
      <g transform="translate(130.812074 322.182437)scale(0.1 -0.1)">
       <use xlink:href="#DejaVuSans-48"/>
       <use x="63.623047" xlink:href="#DejaVuSans-46"/>
       <use x="95.410156" xlink:href="#DejaVuSans-50"/>
      </g>
     </g>
    </g>
    <g id="xtick_3">
     <g id="line2d_3">
      <g>
       <use style="stroke:#000000;stroke-width:0.8;" x="203.694545" xlink:href="#m0bcd4e3596" y="307.584"/>
      </g>
     </g>
     <g id="text_3">
      <!-- 0.4 -->
      <defs>
       <path d="M 37.796875 64.3125 
L 12.890625 25.390625 
L 37.796875 25.390625 
z
M 35.203125 72.90625 
L 47.609375 72.90625 
L 47.609375 25.390625 
L 58.015625 25.390625 
L 58.015625 17.1875 
L 47.609375 17.1875 
L 47.609375 0 
L 37.796875 0 
L 37.796875 17.1875 
L 4.890625 17.1875 
L 4.890625 26.703125 
z
" id="DejaVuSans-52"/>
      </defs>
      <g transform="translate(195.742983 322.182437)scale(0.1 -0.1)">
       <use xlink:href="#DejaVuSans-48"/>
       <use x="63.623047" xlink:href="#DejaVuSans-46"/>
       <use x="95.410156" xlink:href="#DejaVuSans-52"/>
      </g>
     </g>
    </g>
    <g id="xtick_4">
     <g id="line2d_4">
      <g>
       <use style="stroke:#000000;stroke-width:0.8;" x="268.625455" xlink:href="#m0bcd4e3596" y="307.584"/>
      </g>
     </g>
     <g id="text_4">
      <!-- 0.6 -->
      <defs>
       <path d="M 33.015625 40.375 
Q 26.375 40.375 22.484375 35.828125 
Q 18.609375 31.296875 18.609375 23.390625 
Q 18.609375 15.53125 22.484375 10.953125 
Q 26.375 6.390625 33.015625 6.390625 
Q 39.65625 6.390625 43.53125 10.953125 
Q 47.40625 15.53125 47.40625 23.390625 
Q 47.40625 31.296875 43.53125 35.828125 
Q 39.65625 40.375 33.015625 40.375 
z
M 52.59375 71.296875 
L 52.59375 62.3125 
Q 48.875 64.0625 45.09375 64.984375 
Q 41.3125 65.921875 37.59375 65.921875 
Q 27.828125 65.921875 22.671875 59.328125 
Q 17.53125 52.734375 16.796875 39.40625 
Q 19.671875 43.65625 24.015625 45.921875 
Q 28.375 48.1875 33.59375 48.1875 
Q 44.578125 48.1875 50.953125 41.515625 
Q 57.328125 34.859375 57.328125 23.390625 
Q 57.328125 12.15625 50.6875 5.359375 
Q 44.046875 -1.421875 33.015625 -1.421875 
Q 20.359375 -1.421875 13.671875 8.265625 
Q 6.984375 17.96875 6.984375 36.375 
Q 6.984375 53.65625 15.1875 63.9375 
Q 23.390625 74.21875 37.203125 74.21875 
Q 40.921875 74.21875 44.703125 73.484375 
Q 48.484375 72.75 52.59375 71.296875 
z
" id="DejaVuSans-54"/>
      </defs>
      <g transform="translate(260.673892 322.182437)scale(0.1 -0.1)">
       <use xlink:href="#DejaVuSans-48"/>
       <use x="63.623047" xlink:href="#DejaVuSans-46"/>
       <use x="95.410156" xlink:href="#DejaVuSans-54"/>
      </g>
     </g>
    </g>
    <g id="xtick_5">
     <g id="line2d_5">
      <g>
       <use style="stroke:#000000;stroke-width:0.8;" x="333.556364" xlink:href="#m0bcd4e3596" y="307.584"/>
      </g>
     </g>
     <g id="text_5">
      <!-- 0.8 -->
      <defs>
       <path d="M 31.78125 34.625 
Q 24.75 34.625 20.71875 30.859375 
Q 16.703125 27.09375 16.703125 20.515625 
Q 16.703125 13.921875 20.71875 10.15625 
Q 24.75 6.390625 31.78125 6.390625 
Q 38.8125 6.390625 42.859375 10.171875 
Q 46.921875 13.96875 46.921875 20.515625 
Q 46.921875 27.09375 42.890625 30.859375 
Q 38.875 34.625 31.78125 34.625 
z
M 21.921875 38.8125 
Q 15.578125 40.375 12.03125 44.71875 
Q 8.5 49.078125 8.5 55.328125 
Q 8.5 64.0625 14.71875 69.140625 
Q 20.953125 74.21875 31.78125 74.21875 
Q 42.671875 74.21875 48.875 69.140625 
Q 55.078125 64.0625 55.078125 55.328125 
Q 55.078125 49.078125 51.53125 44.71875 
Q 48 40.375 41.703125 38.8125 
Q 48.828125 37.15625 52.796875 32.3125 
Q 56.78125 27.484375 56.78125 20.515625 
Q 56.78125 9.90625 50.3125 4.234375 
Q 43.84375 -1.421875 31.78125 -1.421875 
Q 19.734375 -1.421875 13.25 4.234375 
Q 6.78125 9.90625 6.78125 20.515625 
Q 6.78125 27.484375 10.78125 32.3125 
Q 14.796875 37.15625 21.921875 38.8125 
z
M 18.3125 54.390625 
Q 18.3125 48.734375 21.84375 45.5625 
Q 25.390625 42.390625 31.78125 42.390625 
Q 38.140625 42.390625 41.71875 45.5625 
Q 45.3125 48.734375 45.3125 54.390625 
Q 45.3125 60.0625 41.71875 63.234375 
Q 38.140625 66.40625 31.78125 66.40625 
Q 25.390625 66.40625 21.84375 63.234375 
Q 18.3125 60.0625 18.3125 54.390625 
z
" id="DejaVuSans-56"/>
      </defs>
      <g transform="translate(325.604801 322.182437)scale(0.1 -0.1)">
       <use xlink:href="#DejaVuSans-48"/>
       <use x="63.623047" xlink:href="#DejaVuSans-46"/>
       <use x="95.410156" xlink:href="#DejaVuSans-56"/>
      </g>
     </g>
    </g>
    <g id="xtick_6">
     <g id="line2d_6">
      <g>
       <use style="stroke:#000000;stroke-width:0.8;" x="398.487273" xlink:href="#m0bcd4e3596" y="307.584"/>
      </g>
     </g>
     <g id="text_6">
      <!-- 1.0 -->
      <defs>
       <path d="M 12.40625 8.296875 
L 28.515625 8.296875 
L 28.515625 63.921875 
L 10.984375 60.40625 
L 10.984375 69.390625 
L 28.421875 72.90625 
L 38.28125 72.90625 
L 38.28125 8.296875 
L 54.390625 8.296875 
L 54.390625 0 
L 12.40625 0 
z
" id="DejaVuSans-49"/>
      </defs>
      <g transform="translate(390.53571 322.182437)scale(0.1 -0.1)">
       <use xlink:href="#DejaVuSans-49"/>
       <use x="63.623047" xlink:href="#DejaVuSans-46"/>
       <use x="95.410156" xlink:href="#DejaVuSans-48"/>
      </g>
     </g>
    </g>
   </g>
   <g id="matplotlib.axis_2">
    <g id="ytick_1">
     <g id="line2d_7">
      <defs>
       <path d="M 0 0 
L -3.5 0 
" id="m8e9494eecb" style="stroke:#000000;stroke-width:0.8;"/>
      </defs>
      <g>
       <use style="stroke:#000000;stroke-width:0.8;" x="57.6" xlink:href="#m8e9494eecb" y="299.597847"/>
      </g>
     </g>
     <g id="text_7">
      <!-- 0.0 -->
      <g transform="translate(34.696875 303.397066)scale(0.1 -0.1)">
       <use xlink:href="#DejaVuSans-48"/>
       <use x="63.623047" xlink:href="#DejaVuSans-46"/>
       <use x="95.410156" xlink:href="#DejaVuSans-48"/>
      </g>
     </g>
    </g>
    <g id="ytick_2">
     <g id="line2d_8">
      <g>
       <use style="stroke:#000000;stroke-width:0.8;" x="57.6" xlink:href="#m8e9494eecb" y="259.074802"/>
      </g>
     </g>
     <g id="text_8">
      <!-- 0.1 -->
      <g transform="translate(34.696875 262.874021)scale(0.1 -0.1)">
       <use xlink:href="#DejaVuSans-48"/>
       <use x="63.623047" xlink:href="#DejaVuSans-46"/>
       <use x="95.410156" xlink:href="#DejaVuSans-49"/>
      </g>
     </g>
    </g>
    <g id="ytick_3">
     <g id="line2d_9">
      <g>
       <use style="stroke:#000000;stroke-width:0.8;" x="57.6" xlink:href="#m8e9494eecb" y="218.551758"/>
      </g>
     </g>
     <g id="text_9">
      <!-- 0.2 -->
      <g transform="translate(34.696875 222.350977)scale(0.1 -0.1)">
       <use xlink:href="#DejaVuSans-48"/>
       <use x="63.623047" xlink:href="#DejaVuSans-46"/>
       <use x="95.410156" xlink:href="#DejaVuSans-50"/>
      </g>
     </g>
    </g>
    <g id="ytick_4">
     <g id="line2d_10">
      <g>
       <use style="stroke:#000000;stroke-width:0.8;" x="57.6" xlink:href="#m8e9494eecb" y="178.028713"/>
      </g>
     </g>
     <g id="text_10">
      <!-- 0.3 -->
      <defs>
       <path d="M 40.578125 39.3125 
Q 47.65625 37.796875 51.625 33 
Q 55.609375 28.21875 55.609375 21.1875 
Q 55.609375 10.40625 48.1875 4.484375 
Q 40.765625 -1.421875 27.09375 -1.421875 
Q 22.515625 -1.421875 17.65625 -0.515625 
Q 12.796875 0.390625 7.625 2.203125 
L 7.625 11.71875 
Q 11.71875 9.328125 16.59375 8.109375 
Q 21.484375 6.890625 26.8125 6.890625 
Q 36.078125 6.890625 40.9375 10.546875 
Q 45.796875 14.203125 45.796875 21.1875 
Q 45.796875 27.640625 41.28125 31.265625 
Q 36.765625 34.90625 28.71875 34.90625 
L 20.21875 34.90625 
L 20.21875 43.015625 
L 29.109375 43.015625 
Q 36.375 43.015625 40.234375 45.921875 
Q 44.09375 48.828125 44.09375 54.296875 
Q 44.09375 59.90625 40.109375 62.90625 
Q 36.140625 65.921875 28.71875 65.921875 
Q 24.65625 65.921875 20.015625 65.03125 
Q 15.375 64.15625 9.8125 62.3125 
L 9.8125 71.09375 
Q 15.4375 72.65625 20.34375 73.4375 
Q 25.25 74.21875 29.59375 74.21875 
Q 40.828125 74.21875 47.359375 69.109375 
Q 53.90625 64.015625 53.90625 55.328125 
Q 53.90625 49.265625 50.4375 45.09375 
Q 46.96875 40.921875 40.578125 39.3125 
z
" id="DejaVuSans-51"/>
      </defs>
      <g transform="translate(34.696875 181.827932)scale(0.1 -0.1)">
       <use xlink:href="#DejaVuSans-48"/>
       <use x="63.623047" xlink:href="#DejaVuSans-46"/>
       <use x="95.410156" xlink:href="#DejaVuSans-51"/>
      </g>
     </g>
    </g>
    <g id="ytick_5">
     <g id="line2d_11">
      <g>
       <use style="stroke:#000000;stroke-width:0.8;" x="57.6" xlink:href="#m8e9494eecb" y="137.505668"/>
      </g>
     </g>
     <g id="text_11">
      <!-- 0.4 -->
      <g transform="translate(34.696875 141.304887)scale(0.1 -0.1)">
       <use xlink:href="#DejaVuSans-48"/>
       <use x="63.623047" xlink:href="#DejaVuSans-46"/>
       <use x="95.410156" xlink:href="#DejaVuSans-52"/>
      </g>
     </g>
    </g>
    <g id="ytick_6">
     <g id="line2d_12">
      <g>
       <use style="stroke:#000000;stroke-width:0.8;" x="57.6" xlink:href="#m8e9494eecb" y="96.982624"/>
      </g>
     </g>
     <g id="text_12">
      <!-- 0.5 -->
      <defs>
       <path d="M 10.796875 72.90625 
L 49.515625 72.90625 
L 49.515625 64.59375 
L 19.828125 64.59375 
L 19.828125 46.734375 
Q 21.96875 47.46875 24.109375 47.828125 
Q 26.265625 48.1875 28.421875 48.1875 
Q 40.625 48.1875 47.75 41.5 
Q 54.890625 34.8125 54.890625 23.390625 
Q 54.890625 11.625 47.5625 5.09375 
Q 40.234375 -1.421875 26.90625 -1.421875 
Q 22.3125 -1.421875 17.546875 -0.640625 
Q 12.796875 0.140625 7.71875 1.703125 
L 7.71875 11.625 
Q 12.109375 9.234375 16.796875 8.0625 
Q 21.484375 6.890625 26.703125 6.890625 
Q 35.15625 6.890625 40.078125 11.328125 
Q 45.015625 15.765625 45.015625 23.390625 
Q 45.015625 31 40.078125 35.4375 
Q 35.15625 39.890625 26.703125 39.890625 
Q 22.75 39.890625 18.8125 39.015625 
Q 14.890625 38.140625 10.796875 36.28125 
z
" id="DejaVuSans-53"/>
      </defs>
      <g transform="translate(34.696875 100.781842)scale(0.1 -0.1)">
       <use xlink:href="#DejaVuSans-48"/>
       <use x="63.623047" xlink:href="#DejaVuSans-46"/>
       <use x="95.410156" xlink:href="#DejaVuSans-53"/>
      </g>
     </g>
    </g>
    <g id="ytick_7">
     <g id="line2d_13">
      <g>
       <use style="stroke:#000000;stroke-width:0.8;" x="57.6" xlink:href="#m8e9494eecb" y="56.459579"/>
      </g>
     </g>
     <g id="text_13">
      <!-- 0.6 -->
      <g transform="translate(34.696875 60.258798)scale(0.1 -0.1)">
       <use xlink:href="#DejaVuSans-48"/>
       <use x="63.623047" xlink:href="#DejaVuSans-46"/>
       <use x="95.410156" xlink:href="#DejaVuSans-54"/>
      </g>
     </g>
    </g>
   </g>
   <g id="line2d_14">
    <path clip-path="url(#pafe87b88c2)" d="M 73.832727 99.585419 
L 75.48072 95.201636 
L 77.128713 103.147394 
L 78.776705 103.969202 
L 80.424698 122.326546 
L 82.07269 138.491999 
L 83.720683 151.095477 
L 85.368676 148.355714 
L 87.016668 142.327911 
L 88.664661 149.177521 
L 90.312653 154.383516 
L 91.960646 165.342974 
L 93.608639 170.274628 
L 95.256631 187.53623 
L 96.904624 206.16751 
L 100.200609 228.908638 
L 101.848602 235.758248 
L 103.496594 253.567721 
L 105.144587 261.513317 
L 106.79258 263.979226 
L 108.440572 266.993086 
L 110.088565 264.801195 
L 111.736557 263.979226 
L 113.38455 263.979226 
L 115.032543 268.363049 
L 116.680535 276.03475 
L 118.328528 278.226682 
L 119.976521 279.596604 
L 121.624513 283.706452 
L 123.272506 283.706452 
L 124.920498 285.076414 
L 126.568491 281.788536 
L 128.216484 280.144597 
L 129.864476 282.610506 
L 131.512469 282.33653 
L 133.160461 283.980428 
L 134.808454 284.254445 
L 136.456447 285.898384 
L 138.104439 283.706452 
L 139.752432 280.418574 
L 141.400425 276.03475 
L 143.048417 270.006988 
L 144.69641 254.389528 
L 146.344402 235.484312 
L 147.992395 219.592795 
L 149.640388 204.797426 
L 152.936373 162.603211 
L 154.584365 144.793738 
L 156.232358 129.724433 
L 157.880351 117.942763 
L 159.528343 105.06535 
L 161.176336 98.763611 
L 162.824329 93.28368 
L 164.472321 88.352026 
L 167.768306 73.282721 
L 171.064292 63.145071 
L 172.712284 65.884834 
L 174.360277 61.774987 
L 176.008269 63.419007 
L 177.656262 73.282721 
L 179.304255 82.050287 
L 180.952247 92.461873 
L 182.60024 93.009744 
L 184.248233 104.243543 
L 185.896225 120.956867 
L 187.544218 123.69663 
L 189.19221 125.614586 
L 190.840203 133.286409 
L 192.488196 140.136019 
L 194.136188 155.753195 
L 197.432174 171.918648 
L 199.080166 181.782363 
L 200.728159 185.618274 
L 202.376151 195.481988 
L 204.024144 202.87947 
L 205.672137 211.921377 
L 207.320129 217.126968 
L 208.968122 226.716746 
L 210.616114 229.182573 
L 213.9121 227.538553 
L 215.560092 229.456509 
L 217.208085 229.182573 
L 218.856078 223.976578 
L 222.152063 239.594159 
L 223.800055 243.977942 
L 225.448048 246.443769 
L 227.096041 258.225439 
L 228.744033 266.171117 
L 230.392026 268.363049 
L 232.040018 269.733012 
L 233.688011 268.637025 
L 235.336004 270.828957 
L 236.983996 270.554981 
L 238.631989 272.472896 
L 240.279982 277.130696 
L 243.575967 284.802397 
L 245.223959 287.542322 
L 246.871952 290.8302 
L 248.519945 291.926146 
L 250.167937 291.104177 
L 251.81593 289.734214 
L 253.463922 291.926146 
L 255.111915 292.200122 
L 256.759908 288.912244 
L 258.4079 285.898384 
L 260.055893 283.158458 
L 261.703886 277.952665 
L 263.351878 270.554981 
L 264.999871 259.869378 
L 266.647863 253.293785 
L 268.295856 237.950139 
L 269.943849 226.716746 
L 271.591841 218.497052 
L 273.239834 207.81153 
L 274.887826 196.303796 
L 276.535819 186.988358 
L 278.183812 185.618274 
L 279.831804 172.466925 
L 281.479797 161.507063 
L 283.12779 159.041235 
L 284.775782 153.013432 
L 286.423775 144.519802 
L 288.071767 125.888522 
L 289.71976 134.108216 
L 291.367753 136.574044 
L 293.015745 131.094112 
L 294.663738 123.69663 
L 296.311731 131.642389 
L 297.959723 153.013432 
L 299.607716 136.300108 
L 301.255708 128.628285 
L 302.903701 134.930024 
L 304.551694 148.903585 
L 306.199686 136.300108 
L 307.847679 127.532542 
L 309.495671 146.711694 
L 311.143664 161.780998 
L 312.791657 160.959191 
L 314.439649 158.219428 
L 316.087642 157.397215 
L 317.735635 165.61691 
L 319.383627 161.233127 
L 321.03162 154.109581 
L 322.679612 160.959191 
L 324.327605 172.466925 
L 325.975598 188.084101 
L 327.62359 180.960555 
L 329.271583 188.084101 
L 330.919575 202.605534 
L 335.863553 223.702642 
L 337.511546 243.156135 
L 339.159539 256.58142 
L 340.807531 261.2393 
L 342.455524 264.527178 
L 344.103516 268.911042 
L 345.751509 279.048652 
L 347.399502 283.706452 
L 349.047494 285.624367 
L 350.695487 288.638268 
L 352.343479 291.104177 
L 353.991472 291.378153 
L 355.639465 290.282207 
L 357.287457 290.282207 
L 358.93545 288.912244 
L 360.583443 290.008231 
L 362.231435 291.926146 
L 363.879428 292.748115 
L 365.52742 294.666031 
L 367.175413 295.488 
L 368.823406 295.488 
L 370.471398 293.022092 
L 372.119391 288.912244 
L 373.767383 285.898384 
L 375.415376 281.788536 
L 377.063369 275.486757 
L 378.711361 264.253202 
L 382.007347 233.018485 
L 383.655339 204.249554 
L 385.303332 183.700318 
L 386.951324 171.096841 
L 388.599317 163.151082 
L 390.24731 151.917689 
L 391.895302 139.039871 
L 393.543295 147.259565 
L 395.191287 152.465561 
L 396.83928 145.34161 
L 398.487273 134.656088 
L 398.487273 134.656088 
" style="fill:none;stroke:#1f77b4;stroke-linecap:square;stroke-width:1.5;"/>
   </g>
   <g id="line2d_15">
    <path clip-path="url(#pafe87b88c2)" d="M 73.832727 93.275547 
L 75.48072 90.739825 
L 77.128713 108.44114 
L 78.776705 101.025781 
L 80.424698 123.678543 
L 82.07269 142.024625 
L 83.720683 151.627506 
L 85.368676 153.601351 
L 87.016668 139.458699 
L 88.664661 147.439638 
L 90.312653 152.007163 
L 95.256631 182.504542 
L 96.904624 202.985226 
L 98.552617 214.371399 
L 100.200609 227.251736 
L 101.848602 233.542656 
L 105.144587 257.194739 
L 106.79258 263.281262 
L 108.440572 265.008243 
L 110.088565 265.558685 
L 111.736557 264.104603 
L 113.38455 264.165792 
L 115.032543 265.635004 
L 118.328528 273.63233 
L 119.976521 274.894079 
L 121.624513 277.253509 
L 124.920498 278.941523 
L 126.568491 278.8572 
L 128.216484 276.779923 
L 129.864476 276.881821 
L 131.512469 277.157597 
L 133.160461 278.224813 
L 134.808454 278.508079 
L 138.104439 279.528674 
L 141.400425 276.026751 
L 143.048417 272.026276 
L 144.69641 264.525793 
L 149.640388 208.975288 
L 151.28838 188.666858 
L 152.936373 163.475924 
L 154.584365 140.591248 
L 156.232358 132.445284 
L 157.880351 112.748094 
L 159.528343 104.961877 
L 161.176336 93.783234 
L 162.824329 93.38971 
L 164.472321 89.052847 
L 166.120314 82.931248 
L 167.768306 71.809402 
L 169.416299 68.222505 
L 171.064292 63.647343 
L 172.712284 64.109043 
L 174.360277 62.535443 
L 176.008269 56.28591 
L 177.656262 78.459282 
L 179.304255 82.817815 
L 180.952247 94.790245 
L 182.60024 95.977484 
L 184.248233 104.069319 
L 185.896225 125.722257 
L 187.544218 125.168559 
L 189.19221 128.050831 
L 192.488196 137.147562 
L 194.136188 156.876541 
L 195.784181 160.989319 
L 197.432174 170.554726 
L 199.080166 182.13845 
L 200.728159 184.523003 
L 202.376151 195.198579 
L 204.024144 198.924195 
L 205.672137 211.64437 
L 207.320129 215.505682 
L 208.968122 224.161221 
L 210.616114 229.40906 
L 212.264107 227.804047 
L 213.9121 230.258595 
L 217.208085 230.796106 
L 218.856078 223.018789 
L 220.50407 229.360007 
L 222.152063 239.047496 
L 223.800055 243.297608 
L 225.448048 244.321997 
L 227.096041 253.95635 
L 228.744033 262.344531 
L 230.392026 266.293489 
L 232.040018 267.918596 
L 233.688011 267.667605 
L 235.336004 269.241313 
L 236.983996 269.270543 
L 238.631989 269.857729 
L 240.279982 272.118003 
L 241.927974 274.687842 
L 243.575967 277.730982 
L 245.223959 279.70359 
L 248.519945 282.576819 
L 250.167937 282.719665 
L 251.81593 282.376856 
L 253.463922 282.424974 
L 255.111915 282.854197 
L 256.759908 282.615023 
L 258.4079 280.77555 
L 260.055893 279.672519 
L 261.703886 277.522471 
L 263.351878 272.65404 
L 264.999871 266.529031 
L 266.647863 259.03089 
L 268.295856 247.965919 
L 269.943849 231.230872 
L 271.591841 222.321368 
L 273.239834 212.094878 
L 276.535819 186.502162 
L 278.183812 184.070176 
L 279.831804 177.492564 
L 281.479797 155.383021 
L 283.12779 156.863118 
L 284.775782 152.109858 
L 286.423775 146.594826 
L 288.071767 122.411871 
L 289.71976 126.908202 
L 291.367753 142.537632 
L 293.015745 133.48038 
L 294.663738 119.628135 
L 296.311731 125.19254 
L 297.959723 160.684381 
L 299.607716 146.280984 
L 301.255708 121.353662 
L 302.903701 129.045395 
L 304.551694 152.597058 
L 306.199686 141.618679 
L 307.847679 121.186687 
L 309.495671 138.53448 
L 311.143664 168.265755 
L 312.791657 163.637516 
L 314.439649 160.960197 
L 316.087642 149.786818 
L 317.735635 164.924854 
L 319.383627 163.345395 
L 321.03162 149.455491 
L 322.679612 158.870342 
L 324.327605 166.647062 
L 325.975598 194.274388 
L 327.62359 182.168867 
L 329.271583 183.819483 
L 330.919575 198.148576 
L 332.567568 207.984816 
L 334.215561 215.169885 
L 335.863553 220.666423 
L 337.511546 234.991704 
L 339.159539 250.61143 
L 340.807531 260.077675 
L 342.455524 262.144499 
L 344.103516 265.629683 
L 345.751509 270.093402 
L 347.399502 276.44014 
L 349.047494 278.614836 
L 350.695487 280.050368 
L 352.343479 281.894573 
L 353.991472 282.317789 
L 355.639465 282.489713 
L 357.287457 282.312988 
L 358.93545 281.758128 
L 360.583443 281.688287 
L 362.231435 282.248229 
L 365.52742 283.697903 
L 367.175413 284.219778 
L 368.823406 284.580952 
L 370.471398 284.561255 
L 372.119391 282.801832 
L 375.415376 278.816617 
L 377.063369 276.26192 
L 378.711361 270.961116 
L 382.007347 245.313436 
L 385.303332 186.382328 
L 386.951324 166.887306 
L 388.599317 161.359712 
L 390.24731 153.030965 
L 391.895302 134.799044 
L 393.543295 142.361129 
L 395.191287 154.424629 
L 396.83928 148.136383 
L 398.487273 134.282455 
L 398.487273 134.282455 
" style="fill:none;stroke:#ff7f0e;stroke-linecap:square;stroke-width:1.5;"/>
   </g>
   <g id="line2d_16">
    <path clip-path="url(#pafe87b88c2)" d="M 73.832727 96.43514 
L 75.48072 92.945523 
L 77.128713 111.481181 
L 78.776705 104.527058 
L 80.424698 127.384636 
L 82.07269 145.174643 
L 83.720683 154.447634 
L 85.368676 157.107235 
L 87.016668 142.448991 
L 88.664661 149.634948 
L 90.312653 154.347194 
L 91.960646 163.873035 
L 95.256631 184.634856 
L 96.904624 205.383482 
L 98.552617 217.139074 
L 100.200609 230.501325 
L 101.848602 236.06948 
L 103.496594 248.956443 
L 105.144587 259.447534 
L 106.79258 264.971408 
L 108.440572 266.6132 
L 110.088565 267.371919 
L 111.736557 265.915003 
L 113.38455 265.853179 
L 115.032543 267.28718 
L 116.680535 271.203698 
L 118.328528 275.476254 
L 119.976521 277.012795 
L 121.624513 279.314424 
L 123.272506 280.382695 
L 124.920498 281.214372 
L 126.568491 281.250061 
L 128.216484 279.271722 
L 129.864476 279.139689 
L 131.512469 279.468134 
L 133.160461 280.495259 
L 134.808454 280.839821 
L 138.104439 281.884162 
L 141.400425 278.467684 
L 143.048417 274.494813 
L 144.69641 267.33195 
L 146.344402 250.223425 
L 151.28838 194.10482 
L 152.936373 168.390129 
L 154.584365 145.39662 
L 156.232358 134.828586 
L 157.880351 115.540588 
L 159.528343 107.858571 
L 161.176336 95.605827 
L 162.824329 96.016317 
L 166.120314 84.622472 
L 167.768306 73.201958 
L 169.416299 69.653611 
L 171.064292 65.129221 
L 172.712284 65.839848 
L 174.360277 64.536413 
L 176.008269 58.112522 
L 177.656262 81.497105 
L 179.304255 84.881453 
L 180.952247 97.327405 
L 182.60024 99.158406 
L 184.248233 106.422993 
L 185.896225 129.031173 
L 187.544218 129.948327 
L 189.19221 130.394509 
L 190.840203 134.692825 
L 192.488196 140.190809 
L 194.136188 159.460337 
L 195.784181 164.106529 
L 197.432174 172.259963 
L 199.080166 183.785946 
L 200.728159 186.371737 
L 202.376151 197.457219 
L 204.024144 200.879393 
L 205.672137 214.271113 
L 207.320129 217.926644 
L 208.968122 226.998168 
L 210.616114 231.730689 
L 212.264107 230.174292 
L 213.9121 232.243463 
L 215.560092 232.843145 
L 217.208085 232.804324 
L 218.856078 226.626268 
L 220.50407 231.952474 
L 222.152063 241.887336 
L 223.800055 245.537811 
L 225.448048 245.982442 
L 227.096041 256.496977 
L 228.744033 264.495506 
L 230.392026 267.907644 
L 232.040018 269.636387 
L 233.688011 269.585141 
L 235.336004 270.996138 
L 236.983996 271.120496 
L 238.631989 271.71089 
L 240.279982 273.915331 
L 241.927974 276.611782 
L 243.575967 279.778485 
L 245.223959 281.81034 
L 248.519945 284.878011 
L 250.167937 285.104161 
L 251.81593 284.805348 
L 253.463922 284.752763 
L 255.111915 285.20204 
L 256.759908 285.067354 
L 258.4079 283.382006 
L 260.055893 282.193307 
L 261.703886 280.042515 
L 263.351878 275.338612 
L 264.999871 269.176795 
L 266.647863 261.086384 
L 268.295856 250.840044 
L 269.943849 234.343301 
L 273.239834 215.034912 
L 276.535819 189.838961 
L 278.183812 185.820569 
L 279.831804 181.311927 
L 281.479797 160.507885 
L 283.12779 159.129775 
L 284.775782 154.677706 
L 286.423775 148.657563 
L 288.071767 129.468116 
L 289.71976 129.809075 
L 291.367753 145.73903 
L 293.015745 135.412589 
L 294.663738 122.941927 
L 296.311731 127.519189 
L 297.959723 164.217333 
L 299.607716 154.166638 
L 301.255708 123.576765 
L 302.903701 132.185495 
L 304.551694 155.321712 
L 306.199686 148.127215 
L 307.847679 124.194382 
L 309.495671 141.743489 
L 311.143664 171.427838 
L 312.791657 166.714132 
L 314.439649 162.396373 
L 316.087642 152.854551 
L 317.735635 167.047921 
L 319.383627 166.42476 
L 321.03162 153.693192 
L 324.327605 168.231701 
L 325.975598 196.914938 
L 327.62359 187.759076 
L 329.271583 185.795856 
L 330.919575 200.270539 
L 332.567568 210.229001 
L 334.215561 217.725908 
L 335.863553 223.059776 
L 339.159539 253.48089 
L 340.807531 262.172387 
L 342.455524 263.754044 
L 344.103516 267.253707 
L 345.751509 271.776701 
L 347.399502 278.22243 
L 349.047494 280.735206 
L 350.695487 282.29954 
L 352.343479 284.117854 
L 353.991472 284.705847 
L 355.639465 284.904988 
L 357.287457 284.680835 
L 358.93545 284.249279 
L 360.583443 284.083365 
L 362.231435 284.581519 
L 365.52742 285.968375 
L 367.175413 286.494513 
L 368.823406 286.866965 
L 370.471398 286.866542 
L 372.119391 285.305866 
L 375.415376 281.4719 
L 377.063369 278.864354 
L 378.711361 273.615114 
L 380.359354 261.342365 
L 382.007347 247.744452 
L 383.655339 223.204707 
L 385.303332 190.715221 
L 386.951324 170.623471 
L 390.24731 155.887841 
L 391.895302 139.45238 
L 393.543295 144.87173 
L 395.191287 156.903829 
L 396.83928 151.298248 
L 398.487273 137.291567 
L 398.487273 137.291567 
" style="fill:none;stroke:#2ca02c;stroke-linecap:square;stroke-width:1.5;"/>
   </g>
   <g id="line2d_17">
    <path clip-path="url(#pafe87b88c2)" d="M 73.832727 90.86468 
L 75.48072 88.345114 
L 77.128713 101.831363 
L 78.776705 99.018947 
L 80.424698 116.586834 
L 82.07269 139.748337 
L 83.720683 149.893099 
L 85.368676 151.462605 
L 87.016668 138.003369 
L 90.312653 150.334272 
L 93.608639 170.766756 
L 95.256631 178.59728 
L 96.904624 200.135022 
L 98.552617 211.606301 
L 100.200609 224.141136 
L 101.848602 230.941252 
L 103.496594 242.25026 
L 105.144587 255.031788 
L 106.79258 261.204394 
L 108.440572 262.664088 
L 110.088565 263.582256 
L 111.736557 262.286698 
L 113.38455 262.046317 
L 115.032543 262.99889 
L 116.680535 266.34143 
L 118.328528 270.425778 
L 119.976521 271.677719 
L 121.624513 273.346454 
L 123.272506 274.723048 
L 124.920498 275.210272 
L 126.568491 275.358926 
L 128.216484 273.48057 
L 129.864476 273.151443 
L 133.160461 274.457004 
L 138.104439 275.907439 
L 141.400425 272.641685 
L 143.048417 269.460708 
L 144.69641 262.535751 
L 146.344402 243.541301 
L 147.992395 226.830776 
L 151.28838 186.336413 
L 152.936373 161.05778 
L 154.584365 138.14254 
L 156.232358 129.964093 
L 157.880351 110.634233 
L 159.528343 102.06844 
L 161.176336 91.936245 
L 162.824329 90.82792 
L 164.472321 87.374203 
L 166.120314 81.286095 
L 167.768306 69.850235 
L 169.416299 66.08344 
L 171.064292 61.320589 
L 172.712284 60.268108 
L 174.360277 60.826313 
L 176.008269 53.568 
L 177.656262 71.860519 
L 179.304255 80.335353 
L 180.952247 91.549039 
L 182.60024 94.085562 
L 184.248233 99.520223 
L 185.896225 121.262078 
L 187.544218 122.74394 
L 189.19221 126.092182 
L 192.488196 134.959519 
L 194.136188 153.016175 
L 195.784181 159.106171 
L 199.080166 179.68722 
L 200.728159 183.028538 
L 202.376151 191.750608 
L 204.024144 196.799897 
L 205.672137 208.777839 
L 207.320129 212.872642 
L 208.968122 221.230324 
L 210.616114 226.983542 
L 212.264107 225.597026 
L 213.9121 228.048844 
L 215.560092 227.979805 
L 217.208085 228.596783 
L 218.856078 220.846741 
L 220.50407 226.555989 
L 222.152063 236.235538 
L 223.800055 241.032487 
L 225.448048 242.657054 
L 228.744033 259.860461 
L 230.392026 264.088165 
L 232.040018 265.349046 
L 233.688011 265.485239 
L 235.336004 266.231677 
L 236.983996 266.696829 
L 238.631989 266.983485 
L 240.279982 268.792996 
L 241.927974 271.231757 
L 243.575967 273.908368 
L 245.223959 275.945396 
L 248.519945 278.680354 
L 250.167937 278.905031 
L 251.81593 278.572045 
L 253.463922 278.474694 
L 255.111915 279.007935 
L 256.759908 278.885448 
L 258.4079 277.149589 
L 260.055893 275.930305 
L 261.703886 274.162174 
L 263.351878 270.183086 
L 264.999871 264.685495 
L 266.647863 257.648112 
L 268.295856 246.311075 
L 269.943849 229.482834 
L 271.591841 220.453537 
L 273.239834 209.881083 
L 276.535819 184.452145 
L 278.183812 181.676951 
L 279.831804 175.80722 
L 281.479797 153.370233 
L 283.12779 154.89806 
L 284.775782 150.577686 
L 286.423775 144.921734 
L 288.071767 119.632085 
L 289.71976 121.398045 
L 291.367753 140.018848 
L 293.015745 132.115841 
L 294.663738 117.050762 
L 296.311731 122.465753 
L 297.959723 152.787315 
L 299.607716 142.327315 
L 301.255708 119.079285 
L 302.903701 126.338836 
L 304.551694 148.298806 
L 306.199686 138.344023 
L 307.847679 119.238288 
L 309.495671 132.379622 
L 311.143664 165.862805 
L 312.791657 161.848616 
L 314.439649 159.68549 
L 316.087642 148.266467 
L 317.735635 162.061466 
L 319.383627 161.63685 
L 321.03162 147.650501 
L 322.679612 155.206276 
L 324.327605 165.471708 
L 325.975598 189.012476 
L 327.62359 179.3999 
L 329.271583 180.373181 
L 330.919575 195.211745 
L 332.567568 205.65461 
L 334.215561 212.496384 
L 335.863553 218.225976 
L 337.511546 231.222508 
L 339.159539 247.873933 
L 340.807531 257.954506 
L 342.455524 260.345297 
L 344.103516 263.050709 
L 345.751509 266.813009 
L 347.399502 272.804951 
L 349.047494 275.098296 
L 350.695487 276.214562 
L 352.343479 277.926541 
L 353.991472 278.586841 
L 355.639465 278.66657 
L 357.287457 278.458995 
L 358.93545 278.050006 
L 360.583443 277.794188 
L 362.231435 278.341825 
L 363.879428 279.14399 
L 367.175413 280.28485 
L 368.823406 280.669046 
L 370.471398 280.668015 
L 372.119391 279.143429 
L 373.767383 277.148954 
L 375.415376 275.357919 
L 377.063369 273.071447 
L 378.711361 268.738358 
L 382.007347 243.600847 
L 385.303332 183.86399 
L 386.951324 164.573615 
L 388.599317 159.473246 
L 390.24731 151.36523 
L 391.895302 132.702241 
L 393.543295 137.724063 
L 395.191287 152.544877 
L 396.83928 146.350295 
L 398.487273 132.498274 
L 398.487273 132.498274 
" style="fill:none;stroke:#d62728;stroke-linecap:square;stroke-width:1.5;"/>
   </g>
   <g id="patch_3">
    <path d="M 57.6 307.584 
L 57.6 41.472 
" style="fill:none;stroke:#000000;stroke-linecap:square;stroke-linejoin:miter;stroke-width:0.8;"/>
   </g>
   <g id="patch_4">
    <path d="M 414.72 307.584 
L 414.72 41.472 
" style="fill:none;stroke:#000000;stroke-linecap:square;stroke-linejoin:miter;stroke-width:0.8;"/>
   </g>
   <g id="patch_5">
    <path d="M 57.6 307.584 
L 414.72 307.584 
" style="fill:none;stroke:#000000;stroke-linecap:square;stroke-linejoin:miter;stroke-width:0.8;"/>
   </g>
   <g id="patch_6">
    <path d="M 57.6 41.472 
L 414.72 41.472 
" style="fill:none;stroke:#000000;stroke-linecap:square;stroke-linejoin:miter;stroke-width:0.8;"/>
   </g>
   <g id="text_14">
    <!-- Plot of Test Data vs MCMC Uncertainty  -->
    <defs>
     <path d="M 19.671875 64.796875 
L 19.671875 37.40625 
L 32.078125 37.40625 
Q 38.96875 37.40625 42.71875 40.96875 
Q 46.484375 44.53125 46.484375 51.125 
Q 46.484375 57.671875 42.71875 61.234375 
Q 38.96875 64.796875 32.078125 64.796875 
z
M 9.8125 72.90625 
L 32.078125 72.90625 
Q 44.34375 72.90625 50.609375 67.359375 
Q 56.890625 61.8125 56.890625 51.125 
Q 56.890625 40.328125 50.609375 34.8125 
Q 44.34375 29.296875 32.078125 29.296875 
L 19.671875 29.296875 
L 19.671875 0 
L 9.8125 0 
z
" id="DejaVuSans-80"/>
     <path d="M 9.421875 75.984375 
L 18.40625 75.984375 
L 18.40625 0 
L 9.421875 0 
z
" id="DejaVuSans-108"/>
     <path d="M 30.609375 48.390625 
Q 23.390625 48.390625 19.1875 42.75 
Q 14.984375 37.109375 14.984375 27.296875 
Q 14.984375 17.484375 19.15625 11.84375 
Q 23.34375 6.203125 30.609375 6.203125 
Q 37.796875 6.203125 41.984375 11.859375 
Q 46.1875 17.53125 46.1875 27.296875 
Q 46.1875 37.015625 41.984375 42.703125 
Q 37.796875 48.390625 30.609375 48.390625 
z
M 30.609375 56 
Q 42.328125 56 49.015625 48.375 
Q 55.71875 40.765625 55.71875 27.296875 
Q 55.71875 13.875 49.015625 6.21875 
Q 42.328125 -1.421875 30.609375 -1.421875 
Q 18.84375 -1.421875 12.171875 6.21875 
Q 5.515625 13.875 5.515625 27.296875 
Q 5.515625 40.765625 12.171875 48.375 
Q 18.84375 56 30.609375 56 
z
" id="DejaVuSans-111"/>
     <path d="M 18.3125 70.21875 
L 18.3125 54.6875 
L 36.8125 54.6875 
L 36.8125 47.703125 
L 18.3125 47.703125 
L 18.3125 18.015625 
Q 18.3125 11.328125 20.140625 9.421875 
Q 21.96875 7.515625 27.59375 7.515625 
L 36.8125 7.515625 
L 36.8125 0 
L 27.59375 0 
Q 17.1875 0 13.234375 3.875 
Q 9.28125 7.765625 9.28125 18.015625 
L 9.28125 47.703125 
L 2.6875 47.703125 
L 2.6875 54.6875 
L 9.28125 54.6875 
L 9.28125 70.21875 
z
" id="DejaVuSans-116"/>
     <path id="DejaVuSans-32"/>
     <path d="M 37.109375 75.984375 
L 37.109375 68.5 
L 28.515625 68.5 
Q 23.6875 68.5 21.796875 66.546875 
Q 19.921875 64.59375 19.921875 59.515625 
L 19.921875 54.6875 
L 34.71875 54.6875 
L 34.71875 47.703125 
L 19.921875 47.703125 
L 19.921875 0 
L 10.890625 0 
L 10.890625 47.703125 
L 2.296875 47.703125 
L 2.296875 54.6875 
L 10.890625 54.6875 
L 10.890625 58.5 
Q 10.890625 67.625 15.140625 71.796875 
Q 19.390625 75.984375 28.609375 75.984375 
z
" id="DejaVuSans-102"/>
     <path d="M -0.296875 72.90625 
L 61.375 72.90625 
L 61.375 64.59375 
L 35.5 64.59375 
L 35.5 0 
L 25.59375 0 
L 25.59375 64.59375 
L -0.296875 64.59375 
z
" id="DejaVuSans-84"/>
     <path d="M 56.203125 29.59375 
L 56.203125 25.203125 
L 14.890625 25.203125 
Q 15.484375 15.921875 20.484375 11.0625 
Q 25.484375 6.203125 34.421875 6.203125 
Q 39.59375 6.203125 44.453125 7.46875 
Q 49.3125 8.734375 54.109375 11.28125 
L 54.109375 2.78125 
Q 49.265625 0.734375 44.1875 -0.34375 
Q 39.109375 -1.421875 33.890625 -1.421875 
Q 20.796875 -1.421875 13.15625 6.1875 
Q 5.515625 13.8125 5.515625 26.8125 
Q 5.515625 40.234375 12.765625 48.109375 
Q 20.015625 56 32.328125 56 
Q 43.359375 56 49.78125 48.890625 
Q 56.203125 41.796875 56.203125 29.59375 
z
M 47.21875 32.234375 
Q 47.125 39.59375 43.09375 43.984375 
Q 39.0625 48.390625 32.421875 48.390625 
Q 24.90625 48.390625 20.390625 44.140625 
Q 15.875 39.890625 15.1875 32.171875 
z
" id="DejaVuSans-101"/>
     <path d="M 44.28125 53.078125 
L 44.28125 44.578125 
Q 40.484375 46.53125 36.375 47.5 
Q 32.28125 48.484375 27.875 48.484375 
Q 21.1875 48.484375 17.84375 46.4375 
Q 14.5 44.390625 14.5 40.28125 
Q 14.5 37.15625 16.890625 35.375 
Q 19.28125 33.59375 26.515625 31.984375 
L 29.59375 31.296875 
Q 39.15625 29.25 43.1875 25.515625 
Q 47.21875 21.78125 47.21875 15.09375 
Q 47.21875 7.46875 41.1875 3.015625 
Q 35.15625 -1.421875 24.609375 -1.421875 
Q 20.21875 -1.421875 15.453125 -0.5625 
Q 10.6875 0.296875 5.421875 2 
L 5.421875 11.28125 
Q 10.40625 8.6875 15.234375 7.390625 
Q 20.0625 6.109375 24.8125 6.109375 
Q 31.15625 6.109375 34.5625 8.28125 
Q 37.984375 10.453125 37.984375 14.40625 
Q 37.984375 18.0625 35.515625 20.015625 
Q 33.0625 21.96875 24.703125 23.78125 
L 21.578125 24.515625 
Q 13.234375 26.265625 9.515625 29.90625 
Q 5.8125 33.546875 5.8125 39.890625 
Q 5.8125 47.609375 11.28125 51.796875 
Q 16.75 56 26.8125 56 
Q 31.78125 56 36.171875 55.265625 
Q 40.578125 54.546875 44.28125 53.078125 
z
" id="DejaVuSans-115"/>
     <path d="M 19.671875 64.796875 
L 19.671875 8.109375 
L 31.59375 8.109375 
Q 46.6875 8.109375 53.6875 14.9375 
Q 60.6875 21.78125 60.6875 36.53125 
Q 60.6875 51.171875 53.6875 57.984375 
Q 46.6875 64.796875 31.59375 64.796875 
z
M 9.8125 72.90625 
L 30.078125 72.90625 
Q 51.265625 72.90625 61.171875 64.09375 
Q 71.09375 55.28125 71.09375 36.53125 
Q 71.09375 17.671875 61.125 8.828125 
Q 51.171875 0 30.078125 0 
L 9.8125 0 
z
" id="DejaVuSans-68"/>
     <path d="M 34.28125 27.484375 
Q 23.390625 27.484375 19.1875 25 
Q 14.984375 22.515625 14.984375 16.5 
Q 14.984375 11.71875 18.140625 8.90625 
Q 21.296875 6.109375 26.703125 6.109375 
Q 34.1875 6.109375 38.703125 11.40625 
Q 43.21875 16.703125 43.21875 25.484375 
L 43.21875 27.484375 
z
M 52.203125 31.203125 
L 52.203125 0 
L 43.21875 0 
L 43.21875 8.296875 
Q 40.140625 3.328125 35.546875 0.953125 
Q 30.953125 -1.421875 24.3125 -1.421875 
Q 15.921875 -1.421875 10.953125 3.296875 
Q 6 8.015625 6 15.921875 
Q 6 25.140625 12.171875 29.828125 
Q 18.359375 34.515625 30.609375 34.515625 
L 43.21875 34.515625 
L 43.21875 35.40625 
Q 43.21875 41.609375 39.140625 45 
Q 35.0625 48.390625 27.6875 48.390625 
Q 23 48.390625 18.546875 47.265625 
Q 14.109375 46.140625 10.015625 43.890625 
L 10.015625 52.203125 
Q 14.9375 54.109375 19.578125 55.046875 
Q 24.21875 56 28.609375 56 
Q 40.484375 56 46.34375 49.84375 
Q 52.203125 43.703125 52.203125 31.203125 
z
" id="DejaVuSans-97"/>
     <path d="M 2.984375 54.6875 
L 12.5 54.6875 
L 29.59375 8.796875 
L 46.6875 54.6875 
L 56.203125 54.6875 
L 35.6875 0 
L 23.484375 0 
z
" id="DejaVuSans-118"/>
     <path d="M 9.8125 72.90625 
L 24.515625 72.90625 
L 43.109375 23.296875 
L 61.8125 72.90625 
L 76.515625 72.90625 
L 76.515625 0 
L 66.890625 0 
L 66.890625 64.015625 
L 48.09375 14.015625 
L 38.1875 14.015625 
L 19.390625 64.015625 
L 19.390625 0 
L 9.8125 0 
z
" id="DejaVuSans-77"/>
     <path d="M 64.40625 67.28125 
L 64.40625 56.890625 
Q 59.421875 61.53125 53.78125 63.8125 
Q 48.140625 66.109375 41.796875 66.109375 
Q 29.296875 66.109375 22.65625 58.46875 
Q 16.015625 50.828125 16.015625 36.375 
Q 16.015625 21.96875 22.65625 14.328125 
Q 29.296875 6.6875 41.796875 6.6875 
Q 48.140625 6.6875 53.78125 8.984375 
Q 59.421875 11.28125 64.40625 15.921875 
L 64.40625 5.609375 
Q 59.234375 2.09375 53.4375 0.328125 
Q 47.65625 -1.421875 41.21875 -1.421875 
Q 24.65625 -1.421875 15.125 8.703125 
Q 5.609375 18.84375 5.609375 36.375 
Q 5.609375 53.953125 15.125 64.078125 
Q 24.65625 74.21875 41.21875 74.21875 
Q 47.75 74.21875 53.53125 72.484375 
Q 59.328125 70.75 64.40625 67.28125 
z
" id="DejaVuSans-67"/>
     <path d="M 8.6875 72.90625 
L 18.609375 72.90625 
L 18.609375 28.609375 
Q 18.609375 16.890625 22.84375 11.734375 
Q 27.09375 6.59375 36.625 6.59375 
Q 46.09375 6.59375 50.34375 11.734375 
Q 54.59375 16.890625 54.59375 28.609375 
L 54.59375 72.90625 
L 64.5 72.90625 
L 64.5 27.390625 
Q 64.5 13.140625 57.4375 5.859375 
Q 50.390625 -1.421875 36.625 -1.421875 
Q 22.796875 -1.421875 15.734375 5.859375 
Q 8.6875 13.140625 8.6875 27.390625 
z
" id="DejaVuSans-85"/>
     <path d="M 54.890625 33.015625 
L 54.890625 0 
L 45.90625 0 
L 45.90625 32.71875 
Q 45.90625 40.484375 42.875 44.328125 
Q 39.84375 48.1875 33.796875 48.1875 
Q 26.515625 48.1875 22.3125 43.546875 
Q 18.109375 38.921875 18.109375 30.90625 
L 18.109375 0 
L 9.078125 0 
L 9.078125 54.6875 
L 18.109375 54.6875 
L 18.109375 46.1875 
Q 21.34375 51.125 25.703125 53.5625 
Q 30.078125 56 35.796875 56 
Q 45.21875 56 50.046875 50.171875 
Q 54.890625 44.34375 54.890625 33.015625 
z
" id="DejaVuSans-110"/>
     <path d="M 48.78125 52.59375 
L 48.78125 44.1875 
Q 44.96875 46.296875 41.140625 47.34375 
Q 37.3125 48.390625 33.40625 48.390625 
Q 24.65625 48.390625 19.8125 42.84375 
Q 14.984375 37.3125 14.984375 27.296875 
Q 14.984375 17.28125 19.8125 11.734375 
Q 24.65625 6.203125 33.40625 6.203125 
Q 37.3125 6.203125 41.140625 7.25 
Q 44.96875 8.296875 48.78125 10.40625 
L 48.78125 2.09375 
Q 45.015625 0.34375 40.984375 -0.53125 
Q 36.96875 -1.421875 32.421875 -1.421875 
Q 20.0625 -1.421875 12.78125 6.34375 
Q 5.515625 14.109375 5.515625 27.296875 
Q 5.515625 40.671875 12.859375 48.328125 
Q 20.21875 56 33.015625 56 
Q 37.15625 56 41.109375 55.140625 
Q 45.0625 54.296875 48.78125 52.59375 
z
" id="DejaVuSans-99"/>
     <path d="M 41.109375 46.296875 
Q 39.59375 47.171875 37.8125 47.578125 
Q 36.03125 48 33.890625 48 
Q 26.265625 48 22.1875 43.046875 
Q 18.109375 38.09375 18.109375 28.8125 
L 18.109375 0 
L 9.078125 0 
L 9.078125 54.6875 
L 18.109375 54.6875 
L 18.109375 46.1875 
Q 20.953125 51.171875 25.484375 53.578125 
Q 30.03125 56 36.53125 56 
Q 37.453125 56 38.578125 55.875 
Q 39.703125 55.765625 41.0625 55.515625 
z
" id="DejaVuSans-114"/>
     <path d="M 9.421875 54.6875 
L 18.40625 54.6875 
L 18.40625 0 
L 9.421875 0 
z
M 9.421875 75.984375 
L 18.40625 75.984375 
L 18.40625 64.59375 
L 9.421875 64.59375 
z
" id="DejaVuSans-105"/>
     <path d="M 32.171875 -5.078125 
Q 28.375 -14.84375 24.75 -17.8125 
Q 21.140625 -20.796875 15.09375 -20.796875 
L 7.90625 -20.796875 
L 7.90625 -13.28125 
L 13.1875 -13.28125 
Q 16.890625 -13.28125 18.9375 -11.515625 
Q 21 -9.765625 23.484375 -3.21875 
L 25.09375 0.875 
L 2.984375 54.6875 
L 12.5 54.6875 
L 29.59375 11.921875 
L 46.6875 54.6875 
L 56.203125 54.6875 
z
" id="DejaVuSans-121"/>
    </defs>
    <g transform="translate(118.112813 35.472)scale(0.12 -0.12)">
     <use xlink:href="#DejaVuSans-80"/>
     <use x="60.302734" xlink:href="#DejaVuSans-108"/>
     <use x="88.085938" xlink:href="#DejaVuSans-111"/>
     <use x="149.267578" xlink:href="#DejaVuSans-116"/>
     <use x="188.476562" xlink:href="#DejaVuSans-32"/>
     <use x="220.263672" xlink:href="#DejaVuSans-111"/>
     <use x="281.445312" xlink:href="#DejaVuSans-102"/>
     <use x="316.650391" xlink:href="#DejaVuSans-32"/>
     <use x="348.4375" xlink:href="#DejaVuSans-84"/>
     <use x="409.255859" xlink:href="#DejaVuSans-101"/>
     <use x="470.779297" xlink:href="#DejaVuSans-115"/>
     <use x="522.878906" xlink:href="#DejaVuSans-116"/>
     <use x="562.087891" xlink:href="#DejaVuSans-32"/>
     <use x="593.875" xlink:href="#DejaVuSans-68"/>
     <use x="670.876953" xlink:href="#DejaVuSans-97"/>
     <use x="732.15625" xlink:href="#DejaVuSans-116"/>
     <use x="771.365234" xlink:href="#DejaVuSans-97"/>
     <use x="832.644531" xlink:href="#DejaVuSans-32"/>
     <use x="864.431641" xlink:href="#DejaVuSans-118"/>
     <use x="923.611328" xlink:href="#DejaVuSans-115"/>
     <use x="975.710938" xlink:href="#DejaVuSans-32"/>
     <use x="1007.498047" xlink:href="#DejaVuSans-77"/>
     <use x="1093.777344" xlink:href="#DejaVuSans-67"/>
     <use x="1163.601562" xlink:href="#DejaVuSans-77"/>
     <use x="1249.880859" xlink:href="#DejaVuSans-67"/>
     <use x="1319.705078" xlink:href="#DejaVuSans-32"/>
     <use x="1351.492188" xlink:href="#DejaVuSans-85"/>
     <use x="1424.685547" xlink:href="#DejaVuSans-110"/>
     <use x="1488.064453" xlink:href="#DejaVuSans-99"/>
     <use x="1543.044922" xlink:href="#DejaVuSans-101"/>
     <use x="1604.568359" xlink:href="#DejaVuSans-114"/>
     <use x="1645.681641" xlink:href="#DejaVuSans-116"/>
     <use x="1684.890625" xlink:href="#DejaVuSans-97"/>
     <use x="1746.169922" xlink:href="#DejaVuSans-105"/>
     <use x="1773.953125" xlink:href="#DejaVuSans-110"/>
     <use x="1837.332031" xlink:href="#DejaVuSans-116"/>
     <use x="1876.541016" xlink:href="#DejaVuSans-121"/>
     <use x="1935.720703" xlink:href="#DejaVuSans-32"/>
    </g>
   </g>
   <g id="legend_1">
    <g id="patch_7">
     <path d="M 277.843437 108.1845 
L 407.72 108.1845 
Q 409.72 108.1845 409.72 106.1845 
L 409.72 48.472 
Q 409.72 46.472 407.72 46.472 
L 277.843437 46.472 
Q 275.843437 46.472 275.843437 48.472 
L 275.843437 106.1845 
Q 275.843437 108.1845 277.843437 108.1845 
z
" style="fill:#ffffff;opacity:0.8;stroke:#cccccc;stroke-linejoin:miter;"/>
    </g>
    <g id="line2d_18">
     <path d="M 279.843437 54.570438 
L 299.843437 54.570438 
" style="fill:none;stroke:#1f77b4;stroke-linecap:square;stroke-width:1.5;"/>
    </g>
    <g id="line2d_19"/>
    <g id="text_15">
     <!-- actual -->
     <defs>
      <path d="M 8.5 21.578125 
L 8.5 54.6875 
L 17.484375 54.6875 
L 17.484375 21.921875 
Q 17.484375 14.15625 20.5 10.265625 
Q 23.53125 6.390625 29.59375 6.390625 
Q 36.859375 6.390625 41.078125 11.03125 
Q 45.3125 15.671875 45.3125 23.6875 
L 45.3125 54.6875 
L 54.296875 54.6875 
L 54.296875 0 
L 45.3125 0 
L 45.3125 8.40625 
Q 42.046875 3.421875 37.71875 1 
Q 33.40625 -1.421875 27.6875 -1.421875 
Q 18.265625 -1.421875 13.375 4.4375 
Q 8.5 10.296875 8.5 21.578125 
z
M 31.109375 56 
z
" id="DejaVuSans-117"/>
     </defs>
     <g transform="translate(307.843437 58.070438)scale(0.1 -0.1)">
      <use xlink:href="#DejaVuSans-97"/>
      <use x="61.279297" xlink:href="#DejaVuSans-99"/>
      <use x="116.259766" xlink:href="#DejaVuSans-116"/>
      <use x="155.46875" xlink:href="#DejaVuSans-117"/>
      <use x="218.847656" xlink:href="#DejaVuSans-97"/>
      <use x="280.126953" xlink:href="#DejaVuSans-108"/>
     </g>
    </g>
    <g id="line2d_20">
     <path d="M 279.843437 69.248563 
L 299.843437 69.248563 
" style="fill:none;stroke:#ff7f0e;stroke-linecap:square;stroke-width:1.5;"/>
    </g>
    <g id="line2d_21"/>
    <g id="text_16">
     <!-- pred. (mean) -->
     <defs>
      <path d="M 18.109375 8.203125 
L 18.109375 -20.796875 
L 9.078125 -20.796875 
L 9.078125 54.6875 
L 18.109375 54.6875 
L 18.109375 46.390625 
Q 20.953125 51.265625 25.265625 53.625 
Q 29.59375 56 35.59375 56 
Q 45.5625 56 51.78125 48.09375 
Q 58.015625 40.1875 58.015625 27.296875 
Q 58.015625 14.40625 51.78125 6.484375 
Q 45.5625 -1.421875 35.59375 -1.421875 
Q 29.59375 -1.421875 25.265625 0.953125 
Q 20.953125 3.328125 18.109375 8.203125 
z
M 48.6875 27.296875 
Q 48.6875 37.203125 44.609375 42.84375 
Q 40.53125 48.484375 33.40625 48.484375 
Q 26.265625 48.484375 22.1875 42.84375 
Q 18.109375 37.203125 18.109375 27.296875 
Q 18.109375 17.390625 22.1875 11.75 
Q 26.265625 6.109375 33.40625 6.109375 
Q 40.53125 6.109375 44.609375 11.75 
Q 48.6875 17.390625 48.6875 27.296875 
z
" id="DejaVuSans-112"/>
      <path d="M 45.40625 46.390625 
L 45.40625 75.984375 
L 54.390625 75.984375 
L 54.390625 0 
L 45.40625 0 
L 45.40625 8.203125 
Q 42.578125 3.328125 38.25 0.953125 
Q 33.9375 -1.421875 27.875 -1.421875 
Q 17.96875 -1.421875 11.734375 6.484375 
Q 5.515625 14.40625 5.515625 27.296875 
Q 5.515625 40.1875 11.734375 48.09375 
Q 17.96875 56 27.875 56 
Q 33.9375 56 38.25 53.625 
Q 42.578125 51.265625 45.40625 46.390625 
z
M 14.796875 27.296875 
Q 14.796875 17.390625 18.875 11.75 
Q 22.953125 6.109375 30.078125 6.109375 
Q 37.203125 6.109375 41.296875 11.75 
Q 45.40625 17.390625 45.40625 27.296875 
Q 45.40625 37.203125 41.296875 42.84375 
Q 37.203125 48.484375 30.078125 48.484375 
Q 22.953125 48.484375 18.875 42.84375 
Q 14.796875 37.203125 14.796875 27.296875 
z
" id="DejaVuSans-100"/>
      <path d="M 31 75.875 
Q 24.46875 64.65625 21.28125 53.65625 
Q 18.109375 42.671875 18.109375 31.390625 
Q 18.109375 20.125 21.3125 9.0625 
Q 24.515625 -2 31 -13.1875 
L 23.1875 -13.1875 
Q 15.875 -1.703125 12.234375 9.375 
Q 8.59375 20.453125 8.59375 31.390625 
Q 8.59375 42.28125 12.203125 53.3125 
Q 15.828125 64.359375 23.1875 75.875 
z
" id="DejaVuSans-40"/>
      <path d="M 52 44.1875 
Q 55.375 50.25 60.0625 53.125 
Q 64.75 56 71.09375 56 
Q 79.640625 56 84.28125 50.015625 
Q 88.921875 44.046875 88.921875 33.015625 
L 88.921875 0 
L 79.890625 0 
L 79.890625 32.71875 
Q 79.890625 40.578125 77.09375 44.375 
Q 74.3125 48.1875 68.609375 48.1875 
Q 61.625 48.1875 57.5625 43.546875 
Q 53.515625 38.921875 53.515625 30.90625 
L 53.515625 0 
L 44.484375 0 
L 44.484375 32.71875 
Q 44.484375 40.625 41.703125 44.40625 
Q 38.921875 48.1875 33.109375 48.1875 
Q 26.21875 48.1875 22.15625 43.53125 
Q 18.109375 38.875 18.109375 30.90625 
L 18.109375 0 
L 9.078125 0 
L 9.078125 54.6875 
L 18.109375 54.6875 
L 18.109375 46.1875 
Q 21.1875 51.21875 25.484375 53.609375 
Q 29.78125 56 35.6875 56 
Q 41.65625 56 45.828125 52.96875 
Q 50 49.953125 52 44.1875 
z
" id="DejaVuSans-109"/>
      <path d="M 8.015625 75.875 
L 15.828125 75.875 
Q 23.140625 64.359375 26.78125 53.3125 
Q 30.421875 42.28125 30.421875 31.390625 
Q 30.421875 20.453125 26.78125 9.375 
Q 23.140625 -1.703125 15.828125 -13.1875 
L 8.015625 -13.1875 
Q 14.5 -2 17.703125 9.0625 
Q 20.90625 20.125 20.90625 31.390625 
Q 20.90625 42.671875 17.703125 53.65625 
Q 14.5 64.65625 8.015625 75.875 
z
" id="DejaVuSans-41"/>
     </defs>
     <g transform="translate(307.843437 72.748563)scale(0.1 -0.1)">
      <use xlink:href="#DejaVuSans-112"/>
      <use x="63.476562" xlink:href="#DejaVuSans-114"/>
      <use x="104.558594" xlink:href="#DejaVuSans-101"/>
      <use x="166.082031" xlink:href="#DejaVuSans-100"/>
      <use x="229.558594" xlink:href="#DejaVuSans-46"/>
      <use x="261.345703" xlink:href="#DejaVuSans-32"/>
      <use x="293.132812" xlink:href="#DejaVuSans-40"/>
      <use x="332.146484" xlink:href="#DejaVuSans-109"/>
      <use x="429.558594" xlink:href="#DejaVuSans-101"/>
      <use x="491.082031" xlink:href="#DejaVuSans-97"/>
      <use x="552.361328" xlink:href="#DejaVuSans-110"/>
      <use x="615.740234" xlink:href="#DejaVuSans-41"/>
     </g>
    </g>
    <g id="line2d_22">
     <path d="M 279.843437 83.926688 
L 299.843437 83.926688 
" style="fill:none;stroke:#2ca02c;stroke-linecap:square;stroke-width:1.5;"/>
    </g>
    <g id="line2d_23"/>
    <g id="text_17">
     <!-- pred.(5th percen.) -->
     <defs>
      <path d="M 54.890625 33.015625 
L 54.890625 0 
L 45.90625 0 
L 45.90625 32.71875 
Q 45.90625 40.484375 42.875 44.328125 
Q 39.84375 48.1875 33.796875 48.1875 
Q 26.515625 48.1875 22.3125 43.546875 
Q 18.109375 38.921875 18.109375 30.90625 
L 18.109375 0 
L 9.078125 0 
L 9.078125 75.984375 
L 18.109375 75.984375 
L 18.109375 46.1875 
Q 21.34375 51.125 25.703125 53.5625 
Q 30.078125 56 35.796875 56 
Q 45.21875 56 50.046875 50.171875 
Q 54.890625 44.34375 54.890625 33.015625 
z
" id="DejaVuSans-104"/>
     </defs>
     <g transform="translate(307.843437 87.426688)scale(0.1 -0.1)">
      <use xlink:href="#DejaVuSans-112"/>
      <use x="63.476562" xlink:href="#DejaVuSans-114"/>
      <use x="104.558594" xlink:href="#DejaVuSans-101"/>
      <use x="166.082031" xlink:href="#DejaVuSans-100"/>
      <use x="229.558594" xlink:href="#DejaVuSans-46"/>
      <use x="261.345703" xlink:href="#DejaVuSans-40"/>
      <use x="300.359375" xlink:href="#DejaVuSans-53"/>
      <use x="363.982422" xlink:href="#DejaVuSans-116"/>
      <use x="403.191406" xlink:href="#DejaVuSans-104"/>
      <use x="466.570312" xlink:href="#DejaVuSans-32"/>
      <use x="498.357422" xlink:href="#DejaVuSans-112"/>
      <use x="561.833984" xlink:href="#DejaVuSans-101"/>
      <use x="623.357422" xlink:href="#DejaVuSans-114"/>
      <use x="664.439453" xlink:href="#DejaVuSans-99"/>
      <use x="719.419922" xlink:href="#DejaVuSans-101"/>
      <use x="780.943359" xlink:href="#DejaVuSans-110"/>
      <use x="844.322266" xlink:href="#DejaVuSans-46"/>
      <use x="876.109375" xlink:href="#DejaVuSans-41"/>
     </g>
    </g>
    <g id="line2d_24">
     <path d="M 279.843437 98.604813 
L 299.843437 98.604813 
" style="fill:none;stroke:#d62728;stroke-linecap:square;stroke-width:1.5;"/>
    </g>
    <g id="line2d_25"/>
    <g id="text_18">
     <!-- pred.(95th percen.) -->
     <defs>
      <path d="M 10.984375 1.515625 
L 10.984375 10.5 
Q 14.703125 8.734375 18.5 7.8125 
Q 22.3125 6.890625 25.984375 6.890625 
Q 35.75 6.890625 40.890625 13.453125 
Q 46.046875 20.015625 46.78125 33.40625 
Q 43.953125 29.203125 39.59375 26.953125 
Q 35.25 24.703125 29.984375 24.703125 
Q 19.046875 24.703125 12.671875 31.3125 
Q 6.296875 37.9375 6.296875 49.421875 
Q 6.296875 60.640625 12.9375 67.421875 
Q 19.578125 74.21875 30.609375 74.21875 
Q 43.265625 74.21875 49.921875 64.515625 
Q 56.59375 54.828125 56.59375 36.375 
Q 56.59375 19.140625 48.40625 8.859375 
Q 40.234375 -1.421875 26.421875 -1.421875 
Q 22.703125 -1.421875 18.890625 -0.6875 
Q 15.09375 0.046875 10.984375 1.515625 
z
M 30.609375 32.421875 
Q 37.25 32.421875 41.125 36.953125 
Q 45.015625 41.5 45.015625 49.421875 
Q 45.015625 57.28125 41.125 61.84375 
Q 37.25 66.40625 30.609375 66.40625 
Q 23.96875 66.40625 20.09375 61.84375 
Q 16.21875 57.28125 16.21875 49.421875 
Q 16.21875 41.5 20.09375 36.953125 
Q 23.96875 32.421875 30.609375 32.421875 
z
" id="DejaVuSans-57"/>
     </defs>
     <g transform="translate(307.843437 102.104813)scale(0.1 -0.1)">
      <use xlink:href="#DejaVuSans-112"/>
      <use x="63.476562" xlink:href="#DejaVuSans-114"/>
      <use x="104.558594" xlink:href="#DejaVuSans-101"/>
      <use x="166.082031" xlink:href="#DejaVuSans-100"/>
      <use x="229.558594" xlink:href="#DejaVuSans-46"/>
      <use x="261.345703" xlink:href="#DejaVuSans-40"/>
      <use x="300.359375" xlink:href="#DejaVuSans-57"/>
      <use x="363.982422" xlink:href="#DejaVuSans-53"/>
      <use x="427.605469" xlink:href="#DejaVuSans-116"/>
      <use x="466.814453" xlink:href="#DejaVuSans-104"/>
      <use x="530.193359" xlink:href="#DejaVuSans-32"/>
      <use x="561.980469" xlink:href="#DejaVuSans-112"/>
      <use x="625.457031" xlink:href="#DejaVuSans-101"/>
      <use x="686.980469" xlink:href="#DejaVuSans-114"/>
      <use x="728.0625" xlink:href="#DejaVuSans-99"/>
      <use x="783.042969" xlink:href="#DejaVuSans-101"/>
      <use x="844.566406" xlink:href="#DejaVuSans-110"/>
      <use x="907.945312" xlink:href="#DejaVuSans-46"/>
      <use x="939.732422" xlink:href="#DejaVuSans-41"/>
     </g>
    </g>
   </g>
  </g>
 </g>
 <defs>
  <clipPath id="pafe87b88c2">
   <rect height="266.112" width="357.12" x="57.6" y="41.472"/>
  </clipPath>
 </defs>
</svg>
