<?xml version="1.0" encoding="utf-8" standalone="no"?>
<!DOCTYPE svg PUBLIC "-//W3C//DTD SVG 1.1//EN"
  "http://www.w3.org/Graphics/SVG/1.1/DTD/svg11.dtd">
<!-- Created with matplotlib (https://matplotlib.org/) -->
<svg height="345.6pt" version="1.1" viewBox="0 0 460.8 345.6" width="460.8pt" xmlns="http://www.w3.org/2000/svg" xmlns:xlink="http://www.w3.org/1999/xlink">
 <defs>
  <style type="text/css">
*{stroke-linecap:butt;stroke-linejoin:round;}
  </style>
 </defs>
 <g id="figure_1">
  <g id="patch_1">
   <path d="M 0 345.6 
L 460.8 345.6 
L 460.8 0 
L 0 0 
z
" style="fill:#ffffff;"/>
  </g>
  <g id="axes_1">
   <g id="patch_2">
    <path d="M 57.6 307.584 
L 414.72 307.584 
L 414.72 41.472 
L 57.6 41.472 
z
" style="fill:#ffffff;"/>
   </g>
   <g id="PolyCollection_1">
    <path clip-path="url(#p46468c2a3a)" d="M 73.832727 281.879569 
L 73.832727 285.117641 
L 74.92584 285.798561 
L 76.018953 285.55712 
L 77.112066 285.567102 
L 78.205179 283.142405 
L 79.298292 279.365698 
L 80.391405 276.28992 
L 81.484518 266.454874 
L 82.577631 254.566045 
L 83.670744 235.283075 
L 84.763857 209.044439 
L 85.85697 190.810658 
L 86.950083 166.206706 
L 88.043196 143.851885 
L 89.136309 124.406949 
L 90.229421 119.148065 
L 91.322534 111.735691 
L 92.415647 87.962184 
L 93.50876 76.487284 
L 94.601873 76.820379 
L 95.694986 73.324978 
L 96.788099 70.277275 
L 97.881212 71.948919 
L 98.974325 80.223854 
L 100.067438 91.007375 
L 101.160551 88.898139 
L 102.253664 99.531315 
L 103.346777 111.939788 
L 104.43989 121.058801 
L 105.533003 134.491456 
L 106.626116 139.993931 
L 107.719229 164.386534 
L 108.812342 175.808212 
L 109.905455 153.862934 
L 110.998567 153.550947 
L 112.09168 161.00928 
L 113.184793 165.290042 
L 114.277906 161.214503 
L 115.371019 166.304717 
L 116.464132 190.677857 
L 117.557245 197.04371 
L 118.650358 202.716199 
L 119.743471 217.269627 
L 120.836584 219.735779 
L 121.929697 219.766551 
L 123.02281 227.779376 
L 124.115923 236.916128 
L 125.209036 239.345532 
L 126.302149 241.66148 
L 127.395262 249.259406 
L 128.488375 256.467245 
L 129.581488 261.185905 
L 130.674601 258.660156 
L 131.767713 261.755368 
L 132.860826 265.473623 
L 133.953939 268.489574 
L 135.047052 270.489462 
L 136.140165 273.544638 
L 137.233278 279.30278 
L 138.326391 281.208121 
L 139.419504 280.723003 
L 140.512617 279.8581 
L 141.60573 279.800575 
L 142.698843 278.301271 
L 143.791956 276.543203 
L 144.885069 274.384827 
L 145.978182 268.471571 
L 147.071295 258.440478 
L 148.164408 250.188039 
L 149.257521 245.867099 
L 150.350634 239.522658 
L 151.443747 230.476729 
L 152.53686 226.44116 
L 153.629972 222.987899 
L 154.723085 215.898468 
L 155.816198 203.851744 
L 156.909311 196.620251 
L 158.002424 193.119872 
L 159.095537 191.67501 
L 160.18865 194.686249 
L 161.281763 188.99117 
L 162.374876 167.374356 
L 163.467989 134.824802 
L 164.561102 117.894117 
L 165.654215 106.908624 
L 166.747328 95.069252 
L 167.840441 84.916432 
L 168.933554 87.762753 
L 170.026667 97.773351 
L 171.11978 92.237043 
L 172.212893 89.814912 
L 173.306006 93.024815 
L 174.399118 106.901085 
L 175.492231 121.039196 
L 176.585344 133.137429 
L 177.678457 155.010172 
L 178.77157 163.558155 
L 179.864683 174.13789 
L 180.957796 179.010088 
L 182.050909 179.406196 
L 183.144022 184.941694 
L 184.237135 192.93842 
L 185.330248 189.943729 
L 186.423361 187.055698 
L 187.516474 189.436768 
L 188.609587 193.32542 
L 189.7027 194.945381 
L 190.795813 193.280065 
L 191.888926 201.751164 
L 192.982039 199.759771 
L 194.075152 201.143932 
L 195.168264 208.699763 
L 196.261377 206.555906 
L 197.35449 214.39473 
L 198.447603 221.101289 
L 199.540716 225.572941 
L 200.633829 225.652223 
L 201.726942 223.907535 
L 202.820055 231.635699 
L 203.913168 238.412431 
L 205.006281 243.920508 
L 206.099394 248.696935 
L 207.192507 255.004662 
L 208.28562 261.475045 
L 209.378733 266.184765 
L 210.471846 266.907721 
L 211.564959 268.273576 
L 212.658072 272.57538 
L 213.751185 276.374961 
L 214.844298 280.208383 
L 215.93741 283.041046 
L 217.030523 286.213153 
L 218.123636 288.378235 
L 219.216749 289.531843 
L 220.309862 289.975952 
L 221.402975 289.695651 
L 222.496088 289.62823 
L 223.589201 288.869 
L 224.682314 288.039951 
L 225.775427 286.189595 
L 226.86854 283.301795 
L 227.961653 278.571624 
L 229.054766 270.556523 
L 230.147879 261.629265 
L 231.240992 251.46121 
L 232.334105 241.984954 
L 233.427218 234.019236 
L 234.520331 222.25534 
L 235.613444 209.701539 
L 236.706556 200.294474 
L 237.799669 186.732153 
L 238.892782 173.086113 
L 239.985895 161.477015 
L 241.079008 150.365172 
L 242.172121 141.747704 
L 243.265234 141.609601 
L 244.358347 141.270826 
L 245.45146 141.858585 
L 246.544573 135.129236 
L 247.637686 137.846248 
L 248.730799 142.762108 
L 249.823912 142.788616 
L 250.917025 143.455771 
L 252.010138 146.322011 
L 253.103251 155.522676 
L 254.196364 161.663549 
L 255.289477 171.886818 
L 256.38259 174.190064 
L 257.475702 183.729412 
L 258.568815 191.37506 
L 259.661928 189.173552 
L 260.755041 193.917802 
L 261.848154 198.41091 
L 262.941267 206.608513 
L 264.03438 203.317227 
L 265.127493 205.455279 
L 266.220606 218.921116 
L 267.313719 225.20435 
L 268.406832 226.206486 
L 269.499945 224.920332 
L 270.593058 226.137813 
L 271.686171 228.787356 
L 272.779284 224.214599 
L 273.872397 220.356299 
L 274.96551 219.347077 
L 276.058623 222.775459 
L 277.151736 227.503292 
L 278.244848 228.921588 
L 279.337961 236.869452 
L 280.431074 240.115048 
L 281.524187 246.917914 
L 282.6173 251.155594 
L 283.710413 253.552385 
L 284.803526 258.011805 
L 285.896639 263.014631 
L 286.989752 268.534147 
L 288.082865 271.059757 
L 289.175978 275.510831 
L 290.269091 281.527032 
L 291.362204 284.608803 
L 292.455317 286.914773 
L 293.54843 287.994335 
L 294.641543 288.207782 
L 295.734656 286.104981 
L 296.827769 283.083102 
L 297.920882 277.21861 
L 299.013994 269.840336 
L 300.107107 260.723036 
L 301.20022 246.641237 
L 302.293333 231.306199 
L 303.386446 219.175962 
L 304.479559 210.716524 
L 305.572672 190.910277 
L 306.665785 179.402609 
L 307.758898 180.483208 
L 308.852011 172.095384 
L 309.945124 150.892403 
L 311.038237 120.28005 
L 312.13135 108.331379 
L 313.224463 93.149327 
L 314.317576 79.341251 
L 315.410689 75.30072 
L 316.503802 75.597024 
L 317.596915 77.427208 
L 318.690028 84.051018 
L 319.78314 93.774514 
L 320.876253 107.113519 
L 321.969366 115.566944 
L 323.062479 122.540864 
L 324.155592 138.641704 
L 325.248705 135.935228 
L 326.341818 131.627626 
L 327.434931 128.572959 
L 328.528044 128.073203 
L 329.621157 129.415449 
L 330.71427 142.316983 
L 331.807383 160.522344 
L 332.900496 173.446263 
L 333.993609 191.089327 
L 335.086722 198.430761 
L 336.179835 210.686826 
L 337.272948 216.609326 
L 338.366061 214.428955 
L 339.459174 217.141614 
L 340.552287 222.422625 
L 341.645399 232.053871 
L 342.738512 240.106825 
L 343.831625 244.776375 
L 344.924738 253.309788 
L 346.017851 263.611287 
L 347.110964 269.061554 
L 348.204077 271.983837 
L 349.29719 273.439084 
L 350.390303 277.016885 
L 351.483416 279.697204 
L 352.576529 280.354794 
L 353.669642 280.502809 
L 354.762755 280.200753 
L 355.855868 281.582729 
L 356.948981 280.269681 
L 358.042094 278.943087 
L 359.135207 278.410047 
L 360.22832 278.933966 
L 361.321433 280.606096 
L 362.414545 281.716038 
L 363.507658 284.34047 
L 364.600771 286.179828 
L 365.693884 287.706639 
L 366.786997 289.002804 
L 367.88011 289.81787 
L 368.973223 290.5747 
L 370.066336 290.656654 
L 371.159449 290.670257 
L 372.252562 290.013453 
L 373.345675 288.825279 
L 374.438788 286.988149 
L 375.531901 282.981377 
L 376.625014 278.551488 
L 377.718127 272.46898 
L 378.81124 262.114487 
L 379.904353 250.833819 
L 380.997466 244.503358 
L 382.090579 237.401488 
L 383.183691 228.437651 
L 384.276804 218.220682 
L 385.369917 217.00156 
L 386.46303 211.528752 
L 387.556143 206.23653 
L 388.649256 202.300832 
L 389.742369 192.38756 
L 390.835482 201.691673 
L 391.928595 205.163149 
L 393.021708 200.685358 
L 394.114821 198.242527 
L 395.207934 206.661221 
L 396.301047 212.742291 
L 397.39416 203.174164 
L 398.487273 201.110291 
L 398.487273 197.791832 
L 398.487273 197.791832 
L 397.39416 197.384572 
L 396.301047 210.429557 
L 395.207934 202.740491 
L 394.114821 195.942412 
L 393.021708 197.713316 
L 391.928595 201.736866 
L 390.835482 196.701477 
L 389.742369 189.195416 
L 388.649256 199.698906 
L 387.556143 203.978456 
L 386.46303 207.278482 
L 385.369917 212.734132 
L 384.276804 212.691409 
L 383.183691 225.252828 
L 382.090579 233.197846 
L 380.997466 241.647848 
L 379.904353 248.478729 
L 378.81124 257.263588 
L 377.718127 270.228069 
L 376.625014 276.03216 
L 375.531901 280.043982 
L 374.438788 283.424647 
L 373.345675 285.034733 
L 372.252562 286.193424 
L 371.159449 286.86405 
L 370.066336 286.896581 
L 368.973223 286.737117 
L 367.88011 286.07719 
L 366.786997 285.324742 
L 365.693884 284.088575 
L 364.600771 282.821861 
L 363.507658 281.04855 
L 362.414545 279.049607 
L 361.321433 277.615481 
L 360.22832 276.528919 
L 359.135207 276.248693 
L 358.042094 276.335936 
L 356.948981 278.027596 
L 355.855868 278.507354 
L 354.762755 277.806338 
L 353.669642 277.851018 
L 352.576529 277.880468 
L 351.483416 277.19001 
L 350.390303 274.409574 
L 349.29719 271.442619 
L 348.204077 269.766915 
L 347.110964 266.110589 
L 346.017851 259.999369 
L 344.924738 249.210472 
L 343.831625 241.37469 
L 342.738512 237.682749 
L 341.645399 228.908005 
L 340.552287 220.536111 
L 339.459174 214.929892 
L 338.366061 212.842197 
L 337.272948 212.739286 
L 336.179835 206.430709 
L 335.086722 194.34529 
L 333.993609 186.556592 
L 332.900496 168.937398 
L 331.807383 156.457822 
L 330.71427 135.594865 
L 329.621157 125.795683 
L 328.528044 124.671761 
L 327.434931 124.107742 
L 326.341818 128.685839 
L 325.248705 130.400021 
L 324.155592 134.657073 
L 323.062479 117.626264 
L 321.969366 111.441045 
L 320.876253 103.565955 
L 319.78314 89.315253 
L 318.690028 77.538789 
L 317.596915 70.100371 
L 316.503802 68.262287 
L 315.410689 68.494383 
L 314.317576 73.682615 
L 313.224463 89.766638 
L 312.13135 105.135739 
L 311.038237 114.705267 
L 309.945124 143.877365 
L 308.852011 170.105024 
L 307.758898 177.494874 
L 306.665785 175.699374 
L 305.572672 187.121624 
L 304.479559 204.528365 
L 303.386446 215.788319 
L 302.293333 226.787184 
L 301.20022 241.808987 
L 300.107107 257.595299 
L 299.013994 267.278661 
L 297.920882 274.478825 
L 296.827769 280.004856 
L 295.734656 282.777132 
L 294.641543 284.545996 
L 293.54843 284.438757 
L 292.455317 283.385465 
L 291.362204 281.546262 
L 290.269091 278.342491 
L 289.175978 272.667187 
L 288.082865 268.656623 
L 286.989752 265.621366 
L 285.896639 260.065003 
L 284.803526 254.932898 
L 283.710413 250.597143 
L 282.6173 248.124674 
L 281.524187 243.332567 
L 280.431074 237.575737 
L 279.337961 233.643562 
L 278.244848 226.947057 
L 277.151736 225.085554 
L 276.058623 220.254781 
L 274.96551 217.214654 
L 273.872397 218.382036 
L 272.779284 220.188521 
L 271.686171 226.562286 
L 270.593058 224.140098 
L 269.499945 222.531528 
L 268.406832 223.864476 
L 267.313719 223.113425 
L 266.220606 215.045163 
L 265.127493 202.425244 
L 264.03438 199.668808 
L 262.941267 203.74649 
L 261.848154 195.509669 
L 260.755041 191.046853 
L 259.661928 187.136467 
L 258.568815 185.995429 
L 257.475702 177.891445 
L 256.38259 170.4199 
L 255.289477 166.842859 
L 254.196364 159.080054 
L 253.103251 152.005721 
L 252.010138 140.91093 
L 250.917025 140.655982 
L 249.823912 138.212799 
L 248.730799 139.589831 
L 247.637686 133.333736 
L 246.544573 131.197525 
L 245.45146 138.83605 
L 244.358347 138.290743 
L 243.265234 137.314665 
L 242.172121 139.332598 
L 241.079008 147.606806 
L 239.985895 158.586564 
L 238.892782 168.984658 
L 237.799669 183.370376 
L 236.706556 195.742772 
L 235.613444 206.191818 
L 234.520331 217.999592 
L 233.427218 229.533252 
L 232.334105 239.3357 
L 231.240992 247.197681 
L 230.147879 259.056938 
L 229.054766 267.915605 
L 227.961653 275.79212 
L 226.86854 280.19832 
L 225.775427 282.801762 
L 224.682314 284.254235 
L 223.589201 285.155327 
L 222.496088 285.773314 
L 221.402975 285.87683 
L 220.309862 286.185843 
L 219.216749 285.828306 
L 218.123636 284.794957 
L 217.030523 282.849726 
L 215.93741 279.982909 
L 214.844298 277.333666 
L 213.751185 273.826802 
L 212.658072 269.959724 
L 211.564959 266.050671 
L 210.471846 264.57154 
L 209.378733 263.40431 
L 208.28562 258.311356 
L 207.192507 251.43181 
L 206.099394 245.69545 
L 205.006281 241.111652 
L 203.913168 235.777934 
L 202.820055 228.729582 
L 201.726942 222.036056 
L 200.633829 223.481432 
L 199.540716 223.879721 
L 198.447603 219.085493 
L 197.35449 211.06021 
L 196.261377 203.262363 
L 195.168264 205.264655 
L 194.075152 198.321692 
L 192.982039 197.967179 
L 191.888926 198.469866 
L 190.795813 191.085087 
L 189.7027 192.051994 
L 188.609587 190.563114 
L 187.516474 186.641906 
L 186.423361 184.302123 
L 185.330248 187.935569 
L 184.237135 188.37882 
L 183.144022 181.069946 
L 182.050909 176.09906 
L 180.957796 176.033092 
L 179.864683 169.976214 
L 178.77157 158.773538 
L 177.678457 147.370889 
L 176.585344 128.36805 
L 175.492231 116.590394 
L 174.399118 103.832768 
L 173.306006 89.828357 
L 172.212893 86.303045 
L 171.11978 87.860766 
L 170.026667 93.519832 
L 168.933554 82.506314 
L 167.840441 79.727606 
L 166.747328 92.003979 
L 165.654215 102.046831 
L 164.561102 114.24968 
L 163.467989 129.282953 
L 162.374876 161.445919 
L 161.281763 186.990059 
L 160.18865 192.012131 
L 159.095537 189.071703 
L 158.002424 190.571615 
L 156.909311 192.957494 
L 155.816198 196.517663 
L 154.723085 212.548583 
L 153.629972 220.95892 
L 152.53686 223.995614 
L 151.443747 227.291435 
L 150.350634 235.864526 
L 149.257521 242.875976 
L 148.164408 247.68891 
L 147.071295 255.131626 
L 145.978182 265.781568 
L 144.885069 272.513779 
L 143.791956 274.469369 
L 142.698843 276.1254 
L 141.60573 277.405432 
L 140.512617 277.28576 
L 139.419504 278.257395 
L 138.326391 278.778508 
L 137.233278 276.126713 
L 136.140165 271.118189 
L 135.047052 268.260859 
L 133.953939 266.044376 
L 132.860826 262.508376 
L 131.767713 258.705129 
L 130.674601 255.52041 
L 129.581488 257.955318 
L 128.488375 253.155295 
L 127.395262 245.063586 
L 126.302149 238.897376 
L 125.209036 236.749015 
L 124.115923 234.160044 
L 123.02281 225.274359 
L 121.929697 217.543491 
L 120.836584 216.655296 
L 119.743471 213.477276 
L 118.650358 198.740493 
L 117.557245 192.567304 
L 116.464132 183.485083 
L 115.371019 161.51815 
L 114.277906 158.981584 
L 113.184793 162.963442 
L 112.09168 157.366618 
L 110.998567 147.81475 
L 109.905455 147.901883 
L 108.812342 170.911169 
L 107.719229 157.278929 
L 106.626116 134.334401 
L 105.533003 129.886499 
L 104.43989 116.688688 
L 103.346777 107.700167 
L 102.253664 95.692639 
L 101.160551 84.010335 
L 100.067438 84.453282 
L 98.974325 72.469297 
L 97.881212 63.528112 
L 96.788099 62.538787 
L 95.694986 65.59944 
L 94.601873 69.895649 
L 93.50876 70.473081 
L 92.415647 82.151411 
L 91.322534 108.115521 
L 90.229421 114.304445 
L 89.136309 119.999067 
L 88.043196 140.088231 
L 86.950083 161.260924 
L 85.85697 184.985418 
L 84.763857 202.543628 
L 83.670744 227.240292 
L 82.577631 250.683235 
L 81.484518 262.486791 
L 80.391405 274.220941 
L 79.298292 276.789293 
L 78.205179 280.3492 
L 77.112066 282.127306 
L 76.018953 282.242468 
L 74.92584 282.398859 
L 73.832727 281.879569 
z
" style="fill:#008000;fill-opacity:0.4;"/>
   </g>
   <g id="matplotlib.axis_1">
    <g id="xtick_1">
     <g id="line2d_1">
      <defs>
       <path d="M 0 0 
L 0 3.5 
" id="m290c617c43" style="stroke:#000000;stroke-width:0.8;"/>
      </defs>
      <g>
       <use style="stroke:#000000;stroke-width:0.8;" x="73.832727" xlink:href="#m290c617c43" y="307.584"/>
      </g>
     </g>
     <g id="text_1">
      <!-- 0.0 -->
      <defs>
       <path d="M 31.78125 66.40625 
Q 24.171875 66.40625 20.328125 58.90625 
Q 16.5 51.421875 16.5 36.375 
Q 16.5 21.390625 20.328125 13.890625 
Q 24.171875 6.390625 31.78125 6.390625 
Q 39.453125 6.390625 43.28125 13.890625 
Q 47.125 21.390625 47.125 36.375 
Q 47.125 51.421875 43.28125 58.90625 
Q 39.453125 66.40625 31.78125 66.40625 
z
M 31.78125 74.21875 
Q 44.046875 74.21875 50.515625 64.515625 
Q 56.984375 54.828125 56.984375 36.375 
Q 56.984375 17.96875 50.515625 8.265625 
Q 44.046875 -1.421875 31.78125 -1.421875 
Q 19.53125 -1.421875 13.0625 8.265625 
Q 6.59375 17.96875 6.59375 36.375 
Q 6.59375 54.828125 13.0625 64.515625 
Q 19.53125 74.21875 31.78125 74.21875 
z
" id="DejaVuSans-48"/>
       <path d="M 10.6875 12.40625 
L 21 12.40625 
L 21 0 
L 10.6875 0 
z
" id="DejaVuSans-46"/>
      </defs>
      <g transform="translate(65.881165 322.182437)scale(0.1 -0.1)">
       <use xlink:href="#DejaVuSans-48"/>
       <use x="63.623047" xlink:href="#DejaVuSans-46"/>
       <use x="95.410156" xlink:href="#DejaVuSans-48"/>
      </g>
     </g>
    </g>
    <g id="xtick_2">
     <g id="line2d_2">
      <g>
       <use style="stroke:#000000;stroke-width:0.8;" x="138.763636" xlink:href="#m290c617c43" y="307.584"/>
      </g>
     </g>
     <g id="text_2">
      <!-- 0.2 -->
      <defs>
       <path d="M 19.1875 8.296875 
L 53.609375 8.296875 
L 53.609375 0 
L 7.328125 0 
L 7.328125 8.296875 
Q 12.9375 14.109375 22.625 23.890625 
Q 32.328125 33.6875 34.8125 36.53125 
Q 39.546875 41.84375 41.421875 45.53125 
Q 43.3125 49.21875 43.3125 52.78125 
Q 43.3125 58.59375 39.234375 62.25 
Q 35.15625 65.921875 28.609375 65.921875 
Q 23.96875 65.921875 18.8125 64.3125 
Q 13.671875 62.703125 7.8125 59.421875 
L 7.8125 69.390625 
Q 13.765625 71.78125 18.9375 73 
Q 24.125 74.21875 28.421875 74.21875 
Q 39.75 74.21875 46.484375 68.546875 
Q 53.21875 62.890625 53.21875 53.421875 
Q 53.21875 48.921875 51.53125 44.890625 
Q 49.859375 40.875 45.40625 35.40625 
Q 44.1875 33.984375 37.640625 27.21875 
Q 31.109375 20.453125 19.1875 8.296875 
z
" id="DejaVuSans-50"/>
      </defs>
      <g transform="translate(130.812074 322.182437)scale(0.1 -0.1)">
       <use xlink:href="#DejaVuSans-48"/>
       <use x="63.623047" xlink:href="#DejaVuSans-46"/>
       <use x="95.410156" xlink:href="#DejaVuSans-50"/>
      </g>
     </g>
    </g>
    <g id="xtick_3">
     <g id="line2d_3">
      <g>
       <use style="stroke:#000000;stroke-width:0.8;" x="203.694545" xlink:href="#m290c617c43" y="307.584"/>
      </g>
     </g>
     <g id="text_3">
      <!-- 0.4 -->
      <defs>
       <path d="M 37.796875 64.3125 
L 12.890625 25.390625 
L 37.796875 25.390625 
z
M 35.203125 72.90625 
L 47.609375 72.90625 
L 47.609375 25.390625 
L 58.015625 25.390625 
L 58.015625 17.1875 
L 47.609375 17.1875 
L 47.609375 0 
L 37.796875 0 
L 37.796875 17.1875 
L 4.890625 17.1875 
L 4.890625 26.703125 
z
" id="DejaVuSans-52"/>
      </defs>
      <g transform="translate(195.742983 322.182437)scale(0.1 -0.1)">
       <use xlink:href="#DejaVuSans-48"/>
       <use x="63.623047" xlink:href="#DejaVuSans-46"/>
       <use x="95.410156" xlink:href="#DejaVuSans-52"/>
      </g>
     </g>
    </g>
    <g id="xtick_4">
     <g id="line2d_4">
      <g>
       <use style="stroke:#000000;stroke-width:0.8;" x="268.625455" xlink:href="#m290c617c43" y="307.584"/>
      </g>
     </g>
     <g id="text_4">
      <!-- 0.6 -->
      <defs>
       <path d="M 33.015625 40.375 
Q 26.375 40.375 22.484375 35.828125 
Q 18.609375 31.296875 18.609375 23.390625 
Q 18.609375 15.53125 22.484375 10.953125 
Q 26.375 6.390625 33.015625 6.390625 
Q 39.65625 6.390625 43.53125 10.953125 
Q 47.40625 15.53125 47.40625 23.390625 
Q 47.40625 31.296875 43.53125 35.828125 
Q 39.65625 40.375 33.015625 40.375 
z
M 52.59375 71.296875 
L 52.59375 62.3125 
Q 48.875 64.0625 45.09375 64.984375 
Q 41.3125 65.921875 37.59375 65.921875 
Q 27.828125 65.921875 22.671875 59.328125 
Q 17.53125 52.734375 16.796875 39.40625 
Q 19.671875 43.65625 24.015625 45.921875 
Q 28.375 48.1875 33.59375 48.1875 
Q 44.578125 48.1875 50.953125 41.515625 
Q 57.328125 34.859375 57.328125 23.390625 
Q 57.328125 12.15625 50.6875 5.359375 
Q 44.046875 -1.421875 33.015625 -1.421875 
Q 20.359375 -1.421875 13.671875 8.265625 
Q 6.984375 17.96875 6.984375 36.375 
Q 6.984375 53.65625 15.1875 63.9375 
Q 23.390625 74.21875 37.203125 74.21875 
Q 40.921875 74.21875 44.703125 73.484375 
Q 48.484375 72.75 52.59375 71.296875 
z
" id="DejaVuSans-54"/>
      </defs>
      <g transform="translate(260.673892 322.182437)scale(0.1 -0.1)">
       <use xlink:href="#DejaVuSans-48"/>
       <use x="63.623047" xlink:href="#DejaVuSans-46"/>
       <use x="95.410156" xlink:href="#DejaVuSans-54"/>
      </g>
     </g>
    </g>
    <g id="xtick_5">
     <g id="line2d_5">
      <g>
       <use style="stroke:#000000;stroke-width:0.8;" x="333.556364" xlink:href="#m290c617c43" y="307.584"/>
      </g>
     </g>
     <g id="text_5">
      <!-- 0.8 -->
      <defs>
       <path d="M 31.78125 34.625 
Q 24.75 34.625 20.71875 30.859375 
Q 16.703125 27.09375 16.703125 20.515625 
Q 16.703125 13.921875 20.71875 10.15625 
Q 24.75 6.390625 31.78125 6.390625 
Q 38.8125 6.390625 42.859375 10.171875 
Q 46.921875 13.96875 46.921875 20.515625 
Q 46.921875 27.09375 42.890625 30.859375 
Q 38.875 34.625 31.78125 34.625 
z
M 21.921875 38.8125 
Q 15.578125 40.375 12.03125 44.71875 
Q 8.5 49.078125 8.5 55.328125 
Q 8.5 64.0625 14.71875 69.140625 
Q 20.953125 74.21875 31.78125 74.21875 
Q 42.671875 74.21875 48.875 69.140625 
Q 55.078125 64.0625 55.078125 55.328125 
Q 55.078125 49.078125 51.53125 44.71875 
Q 48 40.375 41.703125 38.8125 
Q 48.828125 37.15625 52.796875 32.3125 
Q 56.78125 27.484375 56.78125 20.515625 
Q 56.78125 9.90625 50.3125 4.234375 
Q 43.84375 -1.421875 31.78125 -1.421875 
Q 19.734375 -1.421875 13.25 4.234375 
Q 6.78125 9.90625 6.78125 20.515625 
Q 6.78125 27.484375 10.78125 32.3125 
Q 14.796875 37.15625 21.921875 38.8125 
z
M 18.3125 54.390625 
Q 18.3125 48.734375 21.84375 45.5625 
Q 25.390625 42.390625 31.78125 42.390625 
Q 38.140625 42.390625 41.71875 45.5625 
Q 45.3125 48.734375 45.3125 54.390625 
Q 45.3125 60.0625 41.71875 63.234375 
Q 38.140625 66.40625 31.78125 66.40625 
Q 25.390625 66.40625 21.84375 63.234375 
Q 18.3125 60.0625 18.3125 54.390625 
z
" id="DejaVuSans-56"/>
      </defs>
      <g transform="translate(325.604801 322.182437)scale(0.1 -0.1)">
       <use xlink:href="#DejaVuSans-48"/>
       <use x="63.623047" xlink:href="#DejaVuSans-46"/>
       <use x="95.410156" xlink:href="#DejaVuSans-56"/>
      </g>
     </g>
    </g>
    <g id="xtick_6">
     <g id="line2d_6">
      <g>
       <use style="stroke:#000000;stroke-width:0.8;" x="398.487273" xlink:href="#m290c617c43" y="307.584"/>
      </g>
     </g>
     <g id="text_6">
      <!-- 1.0 -->
      <defs>
       <path d="M 12.40625 8.296875 
L 28.515625 8.296875 
L 28.515625 63.921875 
L 10.984375 60.40625 
L 10.984375 69.390625 
L 28.421875 72.90625 
L 38.28125 72.90625 
L 38.28125 8.296875 
L 54.390625 8.296875 
L 54.390625 0 
L 12.40625 0 
z
" id="DejaVuSans-49"/>
      </defs>
      <g transform="translate(390.53571 322.182437)scale(0.1 -0.1)">
       <use xlink:href="#DejaVuSans-49"/>
       <use x="63.623047" xlink:href="#DejaVuSans-46"/>
       <use x="95.410156" xlink:href="#DejaVuSans-48"/>
      </g>
     </g>
    </g>
   </g>
   <g id="matplotlib.axis_2">
    <g id="ytick_1">
     <g id="line2d_7">
      <defs>
       <path d="M 0 0 
L -3.5 0 
" id="m4ebe8abb8f" style="stroke:#000000;stroke-width:0.8;"/>
      </defs>
      <g>
       <use style="stroke:#000000;stroke-width:0.8;" x="57.6" xlink:href="#m4ebe8abb8f" y="299.17887"/>
      </g>
     </g>
     <g id="text_7">
      <!-- 0.0 -->
      <g transform="translate(34.696875 302.978089)scale(0.1 -0.1)">
       <use xlink:href="#DejaVuSans-48"/>
       <use x="63.623047" xlink:href="#DejaVuSans-46"/>
       <use x="95.410156" xlink:href="#DejaVuSans-48"/>
      </g>
     </g>
    </g>
    <g id="ytick_2">
     <g id="line2d_8">
      <g>
       <use style="stroke:#000000;stroke-width:0.8;" x="57.6" xlink:href="#m4ebe8abb8f" y="249.553394"/>
      </g>
     </g>
     <g id="text_8">
      <!-- 0.2 -->
      <g transform="translate(34.696875 253.352613)scale(0.1 -0.1)">
       <use xlink:href="#DejaVuSans-48"/>
       <use x="63.623047" xlink:href="#DejaVuSans-46"/>
       <use x="95.410156" xlink:href="#DejaVuSans-50"/>
      </g>
     </g>
    </g>
    <g id="ytick_3">
     <g id="line2d_9">
      <g>
       <use style="stroke:#000000;stroke-width:0.8;" x="57.6" xlink:href="#m4ebe8abb8f" y="199.927919"/>
      </g>
     </g>
     <g id="text_9">
      <!-- 0.4 -->
      <g transform="translate(34.696875 203.727138)scale(0.1 -0.1)">
       <use xlink:href="#DejaVuSans-48"/>
       <use x="63.623047" xlink:href="#DejaVuSans-46"/>
       <use x="95.410156" xlink:href="#DejaVuSans-52"/>
      </g>
     </g>
    </g>
    <g id="ytick_4">
     <g id="line2d_10">
      <g>
       <use style="stroke:#000000;stroke-width:0.8;" x="57.6" xlink:href="#m4ebe8abb8f" y="150.302443"/>
      </g>
     </g>
     <g id="text_10">
      <!-- 0.6 -->
      <g transform="translate(34.696875 154.101662)scale(0.1 -0.1)">
       <use xlink:href="#DejaVuSans-48"/>
       <use x="63.623047" xlink:href="#DejaVuSans-46"/>
       <use x="95.410156" xlink:href="#DejaVuSans-54"/>
      </g>
     </g>
    </g>
    <g id="ytick_5">
     <g id="line2d_11">
      <g>
       <use style="stroke:#000000;stroke-width:0.8;" x="57.6" xlink:href="#m4ebe8abb8f" y="100.676968"/>
      </g>
     </g>
     <g id="text_11">
      <!-- 0.8 -->
      <g transform="translate(34.696875 104.476186)scale(0.1 -0.1)">
       <use xlink:href="#DejaVuSans-48"/>
       <use x="63.623047" xlink:href="#DejaVuSans-46"/>
       <use x="95.410156" xlink:href="#DejaVuSans-56"/>
      </g>
     </g>
    </g>
    <g id="ytick_6">
     <g id="line2d_12">
      <g>
       <use style="stroke:#000000;stroke-width:0.8;" x="57.6" xlink:href="#m4ebe8abb8f" y="51.051492"/>
      </g>
     </g>
     <g id="text_12">
      <!-- 1.0 -->
      <g transform="translate(34.696875 54.850711)scale(0.1 -0.1)">
       <use xlink:href="#DejaVuSans-49"/>
       <use x="63.623047" xlink:href="#DejaVuSans-46"/>
       <use x="95.410156" xlink:href="#DejaVuSans-48"/>
      </g>
     </g>
    </g>
   </g>
   <g id="line2d_13">
    <path clip-path="url(#p46468c2a3a)" d="M 73.832727 286.596355 
L 74.92584 286.764114 
L 76.018953 286.093054 
L 77.112066 285.086451 
L 78.205179 278.711289 
L 79.298292 276.194781 
L 80.391405 269.316244 
L 81.484518 258.411542 
L 82.577631 245.661268 
L 83.670744 224.522553 
L 84.763857 206.739263 
L 85.85697 186.607201 
L 88.043196 142.65218 
L 89.136309 124.868891 
L 90.229421 119.332673 
L 91.322534 104.40136 
L 92.415647 76.719773 
L 93.50876 67.324926 
L 94.601873 65.143887 
L 95.694986 54.574653 
L 96.788099 53.568 
L 97.881212 61.78846 
L 98.974325 79.571997 
L 100.067438 85.779152 
L 101.160551 87.456989 
L 102.253664 103.394707 
L 105.533003 130.405357 
L 106.626116 142.484446 
L 107.719229 161.609856 
L 108.812342 163.95863 
L 109.905455 152.047275 
L 110.998567 154.396049 
L 112.09168 159.932267 
L 113.184793 161.945572 
L 114.277906 159.932267 
L 115.371019 168.991645 
L 116.464132 184.761877 
L 117.557245 189.962627 
L 118.650358 202.712901 
L 119.743471 213.953319 
L 120.836584 215.463174 
L 121.929697 220.328456 
L 124.115923 236.433907 
L 125.209036 238.614947 
L 126.302149 241.131455 
L 127.395262 250.52655 
L 128.488375 256.398236 
L 129.581488 259.250212 
L 130.674601 257.069421 
L 131.767713 260.92805 
L 132.860826 265.289881 
L 135.047052 269.819694 
L 137.233278 280.892279 
L 138.326391 280.892279 
L 139.419504 278.54353 
L 140.512617 279.550133 
L 141.60573 277.704686 
L 142.698843 275.188178 
L 143.791956 274.684901 
L 144.885069 269.819694 
L 147.071295 251.532955 
L 148.164408 247.674326 
L 149.257521 242.64131 
L 150.350634 234.588584 
L 151.443747 229.555568 
L 152.53686 225.361471 
L 153.629972 220.49619 
L 154.723085 214.288787 
L 155.816198 200.867329 
L 156.909311 196.337764 
L 158.002424 193.150071 
L 159.095537 192.143419 
L 160.18865 190.298095 
L 161.281763 182.077387 
L 164.561102 115.809512 
L 167.840441 77.89416 
L 168.933554 90.141231 
L 170.026667 93.496658 
L 171.11978 88.79911 
L 172.212893 89.470047 
L 173.306006 96.1809 
L 174.399118 112.622068 
L 175.492231 122.352383 
L 176.585344 133.257333 
L 177.678457 151.543825 
L 178.77157 160.435469 
L 179.864683 167.984993 
L 180.957796 174.695846 
L 182.050909 176.205701 
L 183.144022 184.929611 
L 184.237135 186.607201 
L 185.330248 187.110403 
L 186.423361 186.607201 
L 187.516474 187.781587 
L 188.609587 191.304748 
L 189.7027 191.640216 
L 190.795813 194.659926 
L 191.888926 197.176434 
L 194.075152 200.364127 
L 195.168264 205.564877 
L 196.261377 206.571529 
L 197.35449 213.785585 
L 198.447603 219.992739 
L 199.540716 224.522553 
L 200.633829 223.683634 
L 201.726942 225.361471 
L 203.913168 238.950415 
L 205.006281 244.319147 
L 206.099394 248.680979 
L 207.192507 256.230502 
L 208.28562 262.270171 
L 209.378733 264.45121 
L 210.471846 265.625349 
L 211.564959 268.309839 
L 213.751185 277.536927 
L 214.844298 281.731099 
L 215.93741 286.596355 
L 217.030523 290.119442 
L 218.123636 292.803733 
L 219.216749 293.810336 
L 220.309862 293.139251 
L 221.402975 292.635949 
L 222.496088 292.300432 
L 223.589201 289.951683 
L 224.682314 288.777321 
L 225.775427 283.744305 
L 226.86854 279.717892 
L 229.054766 263.109089 
L 230.147879 255.559566 
L 231.240992 244.486881 
L 232.334105 238.782681 
L 233.427218 229.2201 
L 234.520331 217.811948 
L 235.613444 209.255771 
L 239.985895 160.603451 
L 242.172121 142.819914 
L 243.265234 141.813509 
L 244.358347 141.645775 
L 245.45146 138.961285 
L 246.544573 134.767188 
L 247.637686 138.961285 
L 248.730799 139.464736 
L 249.823912 141.981244 
L 250.917025 140.639123 
L 252.010138 147.181993 
L 253.103251 155.234719 
L 254.196364 159.764533 
L 255.289477 168.656177 
L 256.38259 170.501501 
L 257.475702 182.580838 
L 259.661928 187.278385 
L 262.941267 202.712901 
L 264.03438 200.867329 
L 265.127493 206.403795 
L 266.220606 216.13411 
L 267.313719 223.5159 
L 268.406832 225.361471 
L 269.499945 224.690287 
L 271.686171 226.703592 
L 272.779284 222.006045 
L 273.872397 220.999392 
L 274.96551 219.489537 
L 276.058623 222.173779 
L 277.151736 227.03906 
L 278.244848 229.891037 
L 279.337961 236.769624 
L 280.431074 240.124802 
L 281.524187 247.003389 
L 282.6173 250.52655 
L 283.710413 253.54626 
L 285.896639 263.94776 
L 286.989752 267.806389 
L 288.082865 270.994081 
L 289.175978 278.879073 
L 290.269091 284.583149 
L 291.362204 287.938476 
L 292.455317 290.119442 
L 293.54843 290.287225 
L 294.641543 288.609562 
L 295.734656 283.744305 
L 296.827769 278.040229 
L 299.013994 262.941107 
L 300.107107 252.371873 
L 302.293333 226.703592 
L 303.386446 219.657271 
L 304.479559 203.048369 
L 305.572672 190.298095 
L 306.665785 182.748572 
L 307.758898 177.547822 
L 308.852011 168.991645 
L 309.945124 142.148978 
L 311.038237 121.849181 
L 314.317576 67.828129 
L 315.410689 63.801766 
L 316.503802 64.976152 
L 317.596915 72.022474 
L 318.690028 82.256239 
L 319.78314 97.187304 
L 320.876253 109.769844 
L 321.969366 114.131923 
L 323.062479 126.378994 
L 324.155592 134.599454 
L 325.248705 134.263986 
L 326.341818 129.734172 
L 327.434931 128.224317 
L 328.528044 128.72752 
L 329.621157 130.069641 
L 330.71427 144.665485 
L 331.807383 156.409106 
L 333.993609 185.600548 
L 335.086722 194.659926 
L 336.179835 208.081384 
L 337.272948 211.940013 
L 338.366061 212.778932 
L 339.459174 216.973029 
L 340.552287 222.844963 
L 341.645399 233.749665 
L 342.738512 238.614947 
L 343.831625 244.486881 
L 344.924738 256.56597 
L 346.017851 264.786678 
L 347.110964 269.316244 
L 348.204077 271.161815 
L 349.29719 273.846057 
L 350.390303 278.207988 
L 351.483416 279.885676 
L 352.576529 279.046832 
L 353.669642 280.221194 
L 354.762755 279.382374 
L 355.855868 281.395581 
L 356.948981 277.201384 
L 358.042094 277.87247 
L 359.135207 277.536927 
L 360.22832 277.87247 
L 361.321433 281.395581 
L 362.414545 283.241003 
L 363.507658 287.099657 
L 364.600771 288.94508 
L 365.693884 291.293828 
L 366.786997 293.307035 
L 367.88011 294.145854 
L 368.973223 295.320241 
L 370.066336 295.488 
L 372.252562 292.132648 
L 373.345675 289.61614 
L 376.625014 272.67167 
L 377.718127 265.961065 
L 378.81124 252.875076 
L 379.904353 246.667921 
L 380.997466 241.466923 
L 382.090579 232.910995 
L 383.183691 226.032408 
L 384.276804 215.798642 
L 385.369917 215.463174 
L 386.46303 209.255771 
L 387.556143 205.732611 
L 388.649256 199.357474 
L 389.742369 194.492192 
L 390.835482 201.203045 
L 391.928595 202.20945 
L 393.021708 198.854272 
L 394.114821 198.518555 
L 395.207934 204.39049 
L 396.301047 207.745916 
L 397.39416 200.364127 
L 398.487273 198.854272 
L 398.487273 198.854272 
" style="fill:none;stroke:#1f77b4;stroke-linecap:square;stroke-width:1.5;"/>
   </g>
   <g id="line2d_14">
    <path clip-path="url(#p46468c2a3a)" d="M 73.832727 283.886588 
L 74.92584 284.489881 
L 76.018953 284.15774 
L 77.112066 284.221274 
L 78.205179 281.561798 
L 79.298292 278.004213 
L 80.391405 275.039989 
L 82.577631 252.059245 
L 84.763857 204.835093 
L 85.85697 187.150207 
L 86.950083 163.434699 
L 89.136309 122.683705 
L 90.229421 117.610126 
L 91.322534 110.252063 
L 92.415647 84.555455 
L 93.50876 73.895137 
L 94.601873 73.401189 
L 95.694986 68.786676 
L 96.788099 66.185225 
L 97.881212 67.336096 
L 98.974325 76.035019 
L 100.067438 87.047356 
L 101.160551 85.907037 
L 103.346777 110.013458 
L 104.43989 119.138192 
L 105.533003 132.718726 
L 106.626116 137.411273 
L 107.719229 162.129466 
L 108.812342 172.427909 
L 109.905455 150.375838 
L 110.998567 151.638281 
L 112.09168 159.880751 
L 113.184793 163.9517 
L 114.277906 160.075072 
L 115.371019 164.793931 
L 116.464132 187.927355 
L 117.557245 194.078751 
L 118.650358 201.224896 
L 119.743471 215.067178 
L 120.836584 217.808128 
L 121.929697 218.905525 
L 123.02281 226.793041 
L 124.115923 235.593117 
L 126.302149 240.303287 
L 128.488375 254.782328 
L 129.581488 259.581513 
L 130.674601 256.79205 
L 133.953939 267.275153 
L 135.047052 269.405228 
L 136.140165 272.384726 
L 137.233278 278.017728 
L 138.326391 280.183024 
L 140.512617 278.786722 
L 141.60573 278.662062 
L 143.791956 275.511532 
L 144.885069 273.25267 
L 145.978182 266.785803 
L 147.071295 256.260704 
L 148.164408 249.028329 
L 149.257521 244.197684 
L 150.350634 237.265204 
L 151.443747 228.61402 
L 152.53686 224.977412 
L 153.629972 221.890313 
L 154.723085 213.53523 
L 155.816198 198.572342 
L 158.002424 191.828228 
L 159.095537 190.403619 
L 160.18865 193.25431 
L 161.281763 187.923248 
L 162.374876 163.144684 
L 163.467989 132.09541 
L 164.561102 116.402894 
L 166.747328 93.905186 
L 167.840441 81.785001 
L 168.933554 85.365101 
L 170.026667 95.416928 
L 171.11978 89.853655 
L 172.212893 88.069408 
L 173.306006 91.348173 
L 175.492231 119.018529 
L 176.585344 131.159147 
L 177.678457 152.845814 
L 178.77157 160.63761 
L 179.864683 172.541244 
L 180.957796 177.853649 
L 182.050909 177.289867 
L 184.237135 190.092318 
L 185.330248 188.970655 
L 186.423361 185.546959 
L 187.516474 187.935789 
L 188.609587 191.881934 
L 189.7027 193.314372 
L 190.795813 192.101049 
L 191.888926 199.908112 
L 192.982039 198.757778 
L 194.075152 199.589681 
L 195.168264 207.420493 
L 196.261377 204.494638 
L 197.35449 213.112901 
L 198.447603 220.021456 
L 199.540716 224.691953 
L 200.633829 224.336256 
L 201.726942 222.947206 
L 202.820055 230.604448 
L 203.913168 237.089941 
L 205.006281 242.531416 
L 206.099394 247.226684 
L 207.192507 253.237761 
L 208.28562 259.875851 
L 209.378733 264.787388 
L 210.471846 265.7943 
L 211.564959 267.197094 
L 214.844298 279.095014 
L 217.030523 285.105405 
L 218.123636 287.152112 
L 219.216749 288.146763 
L 220.309862 288.490213 
L 221.402975 288.176986 
L 222.496088 288.1481 
L 224.682314 286.501223 
L 225.775427 284.558504 
L 226.86854 281.73763 
L 227.961653 276.93082 
L 229.054766 268.960394 
L 230.147879 260.005918 
L 231.240992 248.494515 
L 232.334105 240.792499 
L 233.427218 230.867013 
L 237.799669 184.838072 
L 238.892782 170.647722 
L 241.079008 149.314916 
L 242.172121 140.840455 
L 243.265234 140.216249 
L 244.358347 140.106157 
L 245.45146 140.675963 
L 246.544573 133.428968 
L 247.637686 136.472428 
L 248.730799 141.461557 
L 249.823912 140.834106 
L 250.917025 142.342571 
L 252.010138 144.456033 
L 253.103251 154.255235 
L 254.196364 160.251975 
L 255.289477 170.408891 
L 256.38259 171.70145 
L 257.475702 181.882074 
L 258.568815 187.971922 
L 259.661928 188.14644 
L 261.848154 196.763447 
L 262.941267 205.146083 
L 264.03438 200.95551 
L 265.127493 204.243668 
L 266.220606 217.370907 
L 267.313719 224.125892 
L 268.406832 224.782175 
L 269.499945 223.403419 
L 270.593058 225.219758 
L 271.686171 227.798823 
L 272.779284 221.373805 
L 273.872397 219.390824 
L 274.96551 218.045305 
L 276.058623 221.877565 
L 277.151736 226.556206 
L 278.244848 227.835798 
L 279.337961 235.595314 
L 280.431074 238.90842 
L 281.524187 245.244579 
L 282.6173 249.671279 
L 283.710413 252.107842 
L 284.803526 256.482479 
L 286.989752 267.085088 
L 288.082865 269.874843 
L 289.175978 274.226019 
L 290.269091 280.296485 
L 291.362204 283.547386 
L 292.455317 285.674874 
L 293.54843 286.634217 
L 294.641543 286.775764 
L 295.734656 284.472622 
L 296.827769 281.469369 
L 297.920882 275.600375 
L 299.013994 268.294216 
L 300.107107 258.652644 
L 302.293333 228.260779 
L 304.479559 206.3056 
L 305.572672 189.288014 
L 306.665785 177.376767 
L 307.758898 178.97924 
L 308.852011 171.147141 
L 309.945124 145.989164 
L 311.038237 118.258812 
L 312.13135 107.153315 
L 314.317576 76.31852 
L 315.410689 72.078707 
L 316.503802 71.735472 
L 317.596915 73.39026 
L 318.690028 80.440327 
L 319.78314 91.465463 
L 320.876253 105.569488 
L 321.969366 113.744276 
L 323.062479 120.612553 
L 324.155592 137.162 
L 325.248705 133.245489 
L 326.341818 130.434022 
L 327.434931 126.778457 
L 328.528044 126.724362 
L 329.621157 127.890056 
L 330.71427 140.514442 
L 331.807383 158.68742 
L 332.900496 171.822342 
L 333.993609 188.394246 
L 335.086722 195.828089 
L 336.179835 208.810052 
L 337.272948 214.144541 
L 338.366061 213.528764 
L 339.459174 216.238805 
L 340.552287 221.538381 
L 341.645399 230.850984 
L 342.738512 238.82699 
L 343.831625 243.124658 
L 344.924738 251.329012 
L 346.017851 261.746544 
L 347.110964 267.592344 
L 348.204077 270.905583 
L 349.29719 272.456306 
L 350.390303 275.963463 
L 351.483416 278.699119 
L 352.576529 279.286385 
L 353.669642 279.465476 
L 354.762755 279.033687 
L 355.855868 280.521001 
L 356.948981 278.97323 
L 358.042094 277.834153 
L 359.135207 277.305716 
L 360.22832 277.883798 
L 361.321433 279.57512 
L 362.414545 280.66616 
L 363.507658 283.276771 
L 364.600771 284.977553 
L 366.786997 287.676448 
L 368.973223 289.203437 
L 371.159449 289.191195 
L 372.252562 288.498763 
L 373.345675 287.180893 
L 374.438788 285.308607 
L 376.625014 277.073167 
L 377.718127 271.109889 
L 378.81124 258.90674 
L 379.904353 249.700817 
L 380.997466 243.029285 
L 383.183691 226.502504 
L 384.276804 214.157534 
L 385.369917 215.628718 
L 386.46303 208.606102 
L 387.556143 205.102088 
L 388.649256 200.830537 
L 389.742369 190.384011 
L 390.835482 199.814703 
L 391.928595 203.089974 
L 393.021708 198.922241 
L 394.114821 197.080831 
L 395.207934 205.202971 
L 396.301047 211.550024 
L 397.39416 199.153507 
L 398.487273 199.70204 
L 398.487273 199.70204 
" style="fill:none;stroke:#ff7f0e;stroke-linecap:square;stroke-width:1.5;"/>
   </g>
   <g id="line2d_15">
    <path clip-path="url(#p46468c2a3a)" d="M 73.832727 285.117641 
L 74.92584 285.798561 
L 76.018953 285.55712 
L 77.112066 285.567102 
L 78.205179 283.142405 
L 79.298292 279.365698 
L 80.391405 276.28992 
L 81.484518 266.454874 
L 82.577631 254.566045 
L 83.670744 235.283075 
L 84.763857 209.044439 
L 85.85697 190.810658 
L 88.043196 143.851885 
L 89.136309 124.406949 
L 90.229421 119.148065 
L 91.322534 111.735691 
L 92.415647 87.962184 
L 93.50876 76.487284 
L 94.601873 76.820379 
L 95.694986 73.324978 
L 96.788099 70.277275 
L 97.881212 71.948919 
L 98.974325 80.223854 
L 100.067438 91.007375 
L 101.160551 88.898139 
L 102.253664 99.531315 
L 103.346777 111.939788 
L 104.43989 121.058801 
L 105.533003 134.491456 
L 106.626116 139.993931 
L 107.719229 164.386534 
L 108.812342 175.808212 
L 109.905455 153.862934 
L 110.998567 153.550947 
L 112.09168 161.00928 
L 113.184793 165.290042 
L 114.277906 161.214503 
L 115.371019 166.304717 
L 116.464132 190.677857 
L 117.557245 197.04371 
L 118.650358 202.716199 
L 119.743471 217.269627 
L 120.836584 219.735779 
L 121.929697 219.766551 
L 123.02281 227.779376 
L 124.115923 236.916128 
L 126.302149 241.66148 
L 128.488375 256.467245 
L 129.581488 261.185905 
L 130.674601 258.660156 
L 131.767713 261.755368 
L 132.860826 265.473623 
L 133.953939 268.489574 
L 135.047052 270.489462 
L 136.140165 273.544638 
L 137.233278 279.30278 
L 138.326391 281.208121 
L 139.419504 280.723003 
L 140.512617 279.8581 
L 141.60573 279.800575 
L 142.698843 278.301271 
L 143.791956 276.543203 
L 144.885069 274.384827 
L 145.978182 268.471571 
L 147.071295 258.440478 
L 148.164408 250.188039 
L 149.257521 245.867099 
L 150.350634 239.522658 
L 151.443747 230.476729 
L 152.53686 226.44116 
L 153.629972 222.987899 
L 154.723085 215.898468 
L 155.816198 203.851744 
L 156.909311 196.620251 
L 158.002424 193.119872 
L 159.095537 191.67501 
L 160.18865 194.686249 
L 161.281763 188.99117 
L 162.374876 167.374356 
L 163.467989 134.824802 
L 164.561102 117.894117 
L 167.840441 84.916432 
L 168.933554 87.762753 
L 170.026667 97.773351 
L 171.11978 92.237043 
L 172.212893 89.814912 
L 173.306006 93.024815 
L 175.492231 121.039196 
L 176.585344 133.137429 
L 177.678457 155.010172 
L 178.77157 163.558155 
L 179.864683 174.13789 
L 180.957796 179.010088 
L 182.050909 179.406196 
L 183.144022 184.941694 
L 184.237135 192.93842 
L 186.423361 187.055698 
L 187.516474 189.436768 
L 188.609587 193.32542 
L 189.7027 194.945381 
L 190.795813 193.280065 
L 191.888926 201.751164 
L 192.982039 199.759771 
L 194.075152 201.143932 
L 195.168264 208.699763 
L 196.261377 206.555906 
L 197.35449 214.39473 
L 198.447603 221.101289 
L 199.540716 225.572941 
L 200.633829 225.652223 
L 201.726942 223.907535 
L 202.820055 231.635699 
L 203.913168 238.412431 
L 205.006281 243.920508 
L 206.099394 248.696935 
L 208.28562 261.475045 
L 209.378733 266.184765 
L 210.471846 266.907721 
L 211.564959 268.273576 
L 212.658072 272.57538 
L 214.844298 280.208383 
L 215.93741 283.041046 
L 217.030523 286.213153 
L 218.123636 288.378235 
L 219.216749 289.531843 
L 220.309862 289.975952 
L 221.402975 289.695651 
L 222.496088 289.62823 
L 224.682314 288.039951 
L 225.775427 286.189595 
L 226.86854 283.301795 
L 227.961653 278.571624 
L 229.054766 270.556523 
L 230.147879 261.629265 
L 232.334105 241.984954 
L 233.427218 234.019236 
L 235.613444 209.701539 
L 236.706556 200.294474 
L 238.892782 173.086113 
L 241.079008 150.365172 
L 242.172121 141.747704 
L 243.265234 141.609601 
L 244.358347 141.270826 
L 245.45146 141.858585 
L 246.544573 135.129236 
L 247.637686 137.846248 
L 248.730799 142.762108 
L 249.823912 142.788616 
L 250.917025 143.455771 
L 252.010138 146.322011 
L 253.103251 155.522676 
L 254.196364 161.663549 
L 255.289477 171.886818 
L 256.38259 174.190064 
L 257.475702 183.729412 
L 258.568815 191.37506 
L 259.661928 189.173552 
L 261.848154 198.41091 
L 262.941267 206.608513 
L 264.03438 203.317227 
L 265.127493 205.455279 
L 266.220606 218.921116 
L 267.313719 225.20435 
L 268.406832 226.206486 
L 269.499945 224.920332 
L 270.593058 226.137813 
L 271.686171 228.787356 
L 272.779284 224.214599 
L 273.872397 220.356299 
L 274.96551 219.347077 
L 276.058623 222.775459 
L 277.151736 227.503292 
L 278.244848 228.921588 
L 279.337961 236.869452 
L 280.431074 240.115048 
L 281.524187 246.917914 
L 282.6173 251.155594 
L 283.710413 253.552385 
L 284.803526 258.011805 
L 286.989752 268.534147 
L 288.082865 271.059757 
L 289.175978 275.510831 
L 290.269091 281.527032 
L 291.362204 284.608803 
L 292.455317 286.914773 
L 293.54843 287.994335 
L 294.641543 288.207782 
L 295.734656 286.104981 
L 296.827769 283.083102 
L 297.920882 277.21861 
L 299.013994 269.840336 
L 300.107107 260.723036 
L 303.386446 219.175962 
L 304.479559 210.716524 
L 305.572672 190.910277 
L 306.665785 179.402609 
L 307.758898 180.483208 
L 308.852011 172.095384 
L 309.945124 150.892403 
L 311.038237 120.28005 
L 312.13135 108.331379 
L 314.317576 79.341251 
L 315.410689 75.30072 
L 316.503802 75.597024 
L 317.596915 77.427208 
L 318.690028 84.051018 
L 319.78314 93.774514 
L 320.876253 107.113519 
L 321.969366 115.566944 
L 323.062479 122.540864 
L 324.155592 138.641704 
L 325.248705 135.935228 
L 326.341818 131.627626 
L 327.434931 128.572959 
L 328.528044 128.073203 
L 329.621157 129.415449 
L 330.71427 142.316983 
L 331.807383 160.522344 
L 332.900496 173.446263 
L 333.993609 191.089327 
L 335.086722 198.430761 
L 336.179835 210.686826 
L 337.272948 216.609326 
L 338.366061 214.428955 
L 339.459174 217.141614 
L 340.552287 222.422625 
L 341.645399 232.053871 
L 342.738512 240.106825 
L 343.831625 244.776375 
L 344.924738 253.309788 
L 346.017851 263.611287 
L 347.110964 269.061554 
L 348.204077 271.983837 
L 349.29719 273.439084 
L 350.390303 277.016885 
L 351.483416 279.697204 
L 352.576529 280.354794 
L 353.669642 280.502809 
L 354.762755 280.200753 
L 355.855868 281.582729 
L 358.042094 278.943087 
L 359.135207 278.410047 
L 360.22832 278.933966 
L 361.321433 280.606096 
L 362.414545 281.716038 
L 363.507658 284.34047 
L 364.600771 286.179828 
L 365.693884 287.706639 
L 366.786997 289.002804 
L 368.973223 290.5747 
L 371.159449 290.670257 
L 372.252562 290.013453 
L 373.345675 288.825279 
L 374.438788 286.988149 
L 375.531901 282.981377 
L 376.625014 278.551488 
L 377.718127 272.46898 
L 379.904353 250.833819 
L 380.997466 244.503358 
L 382.090579 237.401488 
L 383.183691 228.437651 
L 384.276804 218.220682 
L 385.369917 217.00156 
L 387.556143 206.23653 
L 388.649256 202.300832 
L 389.742369 192.38756 
L 390.835482 201.691673 
L 391.928595 205.163149 
L 393.021708 200.685358 
L 394.114821 198.242527 
L 395.207934 206.661221 
L 396.301047 212.742291 
L 397.39416 203.174164 
L 398.487273 201.110291 
L 398.487273 201.110291 
" style="fill:none;stroke:#2ca02c;stroke-linecap:square;stroke-width:1.5;"/>
   </g>
   <g id="line2d_16">
    <path clip-path="url(#p46468c2a3a)" d="M 73.832727 281.879569 
L 74.92584 282.398859 
L 77.112066 282.127306 
L 78.205179 280.3492 
L 79.298292 276.789293 
L 80.391405 274.220941 
L 82.577631 250.683235 
L 84.763857 202.543628 
L 85.85697 184.985418 
L 86.950083 161.260924 
L 89.136309 119.999067 
L 91.322534 108.115521 
L 92.415647 82.151411 
L 93.50876 70.473081 
L 94.601873 69.895649 
L 95.694986 65.59944 
L 96.788099 62.538787 
L 97.881212 63.528112 
L 98.974325 72.469297 
L 100.067438 84.453282 
L 101.160551 84.010335 
L 103.346777 107.700167 
L 104.43989 116.688688 
L 105.533003 129.886499 
L 106.626116 134.334401 
L 107.719229 157.278929 
L 108.812342 170.911169 
L 109.905455 147.901883 
L 110.998567 147.81475 
L 112.09168 157.366618 
L 113.184793 162.963442 
L 114.277906 158.981584 
L 115.371019 161.51815 
L 116.464132 183.485083 
L 117.557245 192.567304 
L 118.650358 198.740493 
L 119.743471 213.477276 
L 120.836584 216.655296 
L 121.929697 217.543491 
L 123.02281 225.274359 
L 124.115923 234.160044 
L 125.209036 236.749015 
L 126.302149 238.897376 
L 127.395262 245.063586 
L 128.488375 253.155295 
L 129.581488 257.955318 
L 130.674601 255.52041 
L 131.767713 258.705129 
L 133.953939 266.044376 
L 135.047052 268.260859 
L 136.140165 271.118189 
L 137.233278 276.126713 
L 138.326391 278.778508 
L 139.419504 278.257395 
L 140.512617 277.28576 
L 141.60573 277.405432 
L 142.698843 276.1254 
L 143.791956 274.469369 
L 144.885069 272.513779 
L 145.978182 265.781568 
L 147.071295 255.131626 
L 148.164408 247.68891 
L 149.257521 242.875976 
L 150.350634 235.864526 
L 151.443747 227.291435 
L 153.629972 220.95892 
L 154.723085 212.548583 
L 155.816198 196.517663 
L 156.909311 192.957494 
L 158.002424 190.571615 
L 159.095537 189.071703 
L 160.18865 192.012131 
L 161.281763 186.990059 
L 162.374876 161.445919 
L 163.467989 129.282953 
L 164.561102 114.24968 
L 165.654215 102.046831 
L 166.747328 92.003979 
L 167.840441 79.727606 
L 168.933554 82.506314 
L 170.026667 93.519832 
L 171.11978 87.860766 
L 172.212893 86.303045 
L 173.306006 89.828357 
L 175.492231 116.590394 
L 176.585344 128.36805 
L 177.678457 147.370889 
L 179.864683 169.976214 
L 180.957796 176.033092 
L 182.050909 176.09906 
L 183.144022 181.069946 
L 184.237135 188.37882 
L 185.330248 187.935569 
L 186.423361 184.302123 
L 187.516474 186.641906 
L 188.609587 190.563114 
L 189.7027 192.051994 
L 190.795813 191.085087 
L 191.888926 198.469866 
L 192.982039 197.967179 
L 194.075152 198.321692 
L 195.168264 205.264655 
L 196.261377 203.262363 
L 198.447603 219.085493 
L 199.540716 223.879721 
L 200.633829 223.481432 
L 201.726942 222.036056 
L 203.913168 235.777934 
L 205.006281 241.111652 
L 206.099394 245.69545 
L 207.192507 251.43181 
L 208.28562 258.311356 
L 209.378733 263.40431 
L 210.471846 264.57154 
L 211.564959 266.050671 
L 213.751185 273.826802 
L 214.844298 277.333666 
L 217.030523 282.849726 
L 218.123636 284.794957 
L 219.216749 285.828306 
L 220.309862 286.185843 
L 221.402975 285.87683 
L 222.496088 285.773314 
L 223.589201 285.155327 
L 224.682314 284.254235 
L 225.775427 282.801762 
L 226.86854 280.19832 
L 227.961653 275.79212 
L 229.054766 267.915605 
L 230.147879 259.056938 
L 231.240992 247.197681 
L 232.334105 239.3357 
L 233.427218 229.533252 
L 237.799669 183.370376 
L 238.892782 168.984658 
L 241.079008 147.606806 
L 242.172121 139.332598 
L 243.265234 137.314665 
L 244.358347 138.290743 
L 245.45146 138.83605 
L 246.544573 131.197525 
L 247.637686 133.333736 
L 248.730799 139.589831 
L 249.823912 138.212799 
L 250.917025 140.655982 
L 252.010138 140.91093 
L 253.103251 152.005721 
L 255.289477 166.842859 
L 256.38259 170.4199 
L 258.568815 185.995429 
L 259.661928 187.136467 
L 260.755041 191.046853 
L 261.848154 195.509669 
L 262.941267 203.74649 
L 264.03438 199.668808 
L 265.127493 202.425244 
L 266.220606 215.045163 
L 267.313719 223.113425 
L 268.406832 223.864476 
L 269.499945 222.531528 
L 270.593058 224.140098 
L 271.686171 226.562286 
L 272.779284 220.188521 
L 273.872397 218.382036 
L 274.96551 217.214654 
L 276.058623 220.254781 
L 277.151736 225.085554 
L 278.244848 226.947057 
L 279.337961 233.643562 
L 280.431074 237.575737 
L 281.524187 243.332567 
L 282.6173 248.124674 
L 283.710413 250.597143 
L 284.803526 254.932898 
L 286.989752 265.621366 
L 288.082865 268.656623 
L 289.175978 272.667187 
L 290.269091 278.342491 
L 291.362204 281.546262 
L 292.455317 283.385465 
L 293.54843 284.438757 
L 294.641543 284.545996 
L 295.734656 282.777132 
L 296.827769 280.004856 
L 297.920882 274.478825 
L 299.013994 267.278661 
L 300.107107 257.595299 
L 302.293333 226.787184 
L 304.479559 204.528365 
L 305.572672 187.121624 
L 306.665785 175.699374 
L 307.758898 177.494874 
L 308.852011 170.105024 
L 309.945124 143.877365 
L 311.038237 114.705267 
L 312.13135 105.135739 
L 314.317576 73.682615 
L 315.410689 68.494383 
L 316.503802 68.262287 
L 317.596915 70.100371 
L 318.690028 77.538789 
L 319.78314 89.315253 
L 320.876253 103.565955 
L 321.969366 111.441045 
L 323.062479 117.626264 
L 324.155592 134.657073 
L 325.248705 130.400021 
L 326.341818 128.685839 
L 327.434931 124.107742 
L 328.528044 124.671761 
L 329.621157 125.795683 
L 330.71427 135.594865 
L 331.807383 156.457822 
L 332.900496 168.937398 
L 333.993609 186.556592 
L 335.086722 194.34529 
L 336.179835 206.430709 
L 337.272948 212.739286 
L 338.366061 212.842197 
L 339.459174 214.929892 
L 340.552287 220.536111 
L 342.738512 237.682749 
L 343.831625 241.37469 
L 344.924738 249.210472 
L 346.017851 259.999369 
L 347.110964 266.110589 
L 348.204077 269.766915 
L 349.29719 271.442619 
L 351.483416 277.19001 
L 352.576529 277.880468 
L 354.762755 277.806338 
L 355.855868 278.507354 
L 356.948981 278.027596 
L 358.042094 276.335936 
L 359.135207 276.248693 
L 360.22832 276.528919 
L 361.321433 277.615481 
L 362.414545 279.049607 
L 364.600771 282.821861 
L 366.786997 285.324742 
L 368.973223 286.737117 
L 370.066336 286.896581 
L 371.159449 286.86405 
L 372.252562 286.193424 
L 373.345675 285.034733 
L 374.438788 283.424647 
L 375.531901 280.043982 
L 376.625014 276.03216 
L 377.718127 270.228069 
L 378.81124 257.263588 
L 379.904353 248.478729 
L 380.997466 241.647848 
L 383.183691 225.252828 
L 384.276804 212.691409 
L 385.369917 212.734132 
L 386.46303 207.278482 
L 387.556143 203.978456 
L 388.649256 199.698906 
L 389.742369 189.195416 
L 390.835482 196.701477 
L 391.928595 201.736866 
L 393.021708 197.713316 
L 394.114821 195.942412 
L 395.207934 202.740491 
L 396.301047 210.429557 
L 397.39416 197.384572 
L 398.487273 197.791832 
L 398.487273 197.791832 
" style="fill:none;stroke:#d62728;stroke-linecap:square;stroke-width:1.5;"/>
   </g>
   <g id="patch_3">
    <path d="M 57.6 307.584 
L 57.6 41.472 
" style="fill:none;stroke:#000000;stroke-linecap:square;stroke-linejoin:miter;stroke-width:0.8;"/>
   </g>
   <g id="patch_4">
    <path d="M 414.72 307.584 
L 414.72 41.472 
" style="fill:none;stroke:#000000;stroke-linecap:square;stroke-linejoin:miter;stroke-width:0.8;"/>
   </g>
   <g id="patch_5">
    <path d="M 57.6 307.584 
L 414.72 307.584 
" style="fill:none;stroke:#000000;stroke-linecap:square;stroke-linejoin:miter;stroke-width:0.8;"/>
   </g>
   <g id="patch_6">
    <path d="M 57.6 41.472 
L 414.72 41.472 
" style="fill:none;stroke:#000000;stroke-linecap:square;stroke-linejoin:miter;stroke-width:0.8;"/>
   </g>
   <g id="text_13">
    <!-- Plot of Train Data vs MCMC Uncertainty  -->
    <defs>
     <path d="M 19.671875 64.796875 
L 19.671875 37.40625 
L 32.078125 37.40625 
Q 38.96875 37.40625 42.71875 40.96875 
Q 46.484375 44.53125 46.484375 51.125 
Q 46.484375 57.671875 42.71875 61.234375 
Q 38.96875 64.796875 32.078125 64.796875 
z
M 9.8125 72.90625 
L 32.078125 72.90625 
Q 44.34375 72.90625 50.609375 67.359375 
Q 56.890625 61.8125 56.890625 51.125 
Q 56.890625 40.328125 50.609375 34.8125 
Q 44.34375 29.296875 32.078125 29.296875 
L 19.671875 29.296875 
L 19.671875 0 
L 9.8125 0 
z
" id="DejaVuSans-80"/>
     <path d="M 9.421875 75.984375 
L 18.40625 75.984375 
L 18.40625 0 
L 9.421875 0 
z
" id="DejaVuSans-108"/>
     <path d="M 30.609375 48.390625 
Q 23.390625 48.390625 19.1875 42.75 
Q 14.984375 37.109375 14.984375 27.296875 
Q 14.984375 17.484375 19.15625 11.84375 
Q 23.34375 6.203125 30.609375 6.203125 
Q 37.796875 6.203125 41.984375 11.859375 
Q 46.1875 17.53125 46.1875 27.296875 
Q 46.1875 37.015625 41.984375 42.703125 
Q 37.796875 48.390625 30.609375 48.390625 
z
M 30.609375 56 
Q 42.328125 56 49.015625 48.375 
Q 55.71875 40.765625 55.71875 27.296875 
Q 55.71875 13.875 49.015625 6.21875 
Q 42.328125 -1.421875 30.609375 -1.421875 
Q 18.84375 -1.421875 12.171875 6.21875 
Q 5.515625 13.875 5.515625 27.296875 
Q 5.515625 40.765625 12.171875 48.375 
Q 18.84375 56 30.609375 56 
z
" id="DejaVuSans-111"/>
     <path d="M 18.3125 70.21875 
L 18.3125 54.6875 
L 36.8125 54.6875 
L 36.8125 47.703125 
L 18.3125 47.703125 
L 18.3125 18.015625 
Q 18.3125 11.328125 20.140625 9.421875 
Q 21.96875 7.515625 27.59375 7.515625 
L 36.8125 7.515625 
L 36.8125 0 
L 27.59375 0 
Q 17.1875 0 13.234375 3.875 
Q 9.28125 7.765625 9.28125 18.015625 
L 9.28125 47.703125 
L 2.6875 47.703125 
L 2.6875 54.6875 
L 9.28125 54.6875 
L 9.28125 70.21875 
z
" id="DejaVuSans-116"/>
     <path id="DejaVuSans-32"/>
     <path d="M 37.109375 75.984375 
L 37.109375 68.5 
L 28.515625 68.5 
Q 23.6875 68.5 21.796875 66.546875 
Q 19.921875 64.59375 19.921875 59.515625 
L 19.921875 54.6875 
L 34.71875 54.6875 
L 34.71875 47.703125 
L 19.921875 47.703125 
L 19.921875 0 
L 10.890625 0 
L 10.890625 47.703125 
L 2.296875 47.703125 
L 2.296875 54.6875 
L 10.890625 54.6875 
L 10.890625 58.5 
Q 10.890625 67.625 15.140625 71.796875 
Q 19.390625 75.984375 28.609375 75.984375 
z
" id="DejaVuSans-102"/>
     <path d="M -0.296875 72.90625 
L 61.375 72.90625 
L 61.375 64.59375 
L 35.5 64.59375 
L 35.5 0 
L 25.59375 0 
L 25.59375 64.59375 
L -0.296875 64.59375 
z
" id="DejaVuSans-84"/>
     <path d="M 41.109375 46.296875 
Q 39.59375 47.171875 37.8125 47.578125 
Q 36.03125 48 33.890625 48 
Q 26.265625 48 22.1875 43.046875 
Q 18.109375 38.09375 18.109375 28.8125 
L 18.109375 0 
L 9.078125 0 
L 9.078125 54.6875 
L 18.109375 54.6875 
L 18.109375 46.1875 
Q 20.953125 51.171875 25.484375 53.578125 
Q 30.03125 56 36.53125 56 
Q 37.453125 56 38.578125 55.875 
Q 39.703125 55.765625 41.0625 55.515625 
z
" id="DejaVuSans-114"/>
     <path d="M 34.28125 27.484375 
Q 23.390625 27.484375 19.1875 25 
Q 14.984375 22.515625 14.984375 16.5 
Q 14.984375 11.71875 18.140625 8.90625 
Q 21.296875 6.109375 26.703125 6.109375 
Q 34.1875 6.109375 38.703125 11.40625 
Q 43.21875 16.703125 43.21875 25.484375 
L 43.21875 27.484375 
z
M 52.203125 31.203125 
L 52.203125 0 
L 43.21875 0 
L 43.21875 8.296875 
Q 40.140625 3.328125 35.546875 0.953125 
Q 30.953125 -1.421875 24.3125 -1.421875 
Q 15.921875 -1.421875 10.953125 3.296875 
Q 6 8.015625 6 15.921875 
Q 6 25.140625 12.171875 29.828125 
Q 18.359375 34.515625 30.609375 34.515625 
L 43.21875 34.515625 
L 43.21875 35.40625 
Q 43.21875 41.609375 39.140625 45 
Q 35.0625 48.390625 27.6875 48.390625 
Q 23 48.390625 18.546875 47.265625 
Q 14.109375 46.140625 10.015625 43.890625 
L 10.015625 52.203125 
Q 14.9375 54.109375 19.578125 55.046875 
Q 24.21875 56 28.609375 56 
Q 40.484375 56 46.34375 49.84375 
Q 52.203125 43.703125 52.203125 31.203125 
z
" id="DejaVuSans-97"/>
     <path d="M 9.421875 54.6875 
L 18.40625 54.6875 
L 18.40625 0 
L 9.421875 0 
z
M 9.421875 75.984375 
L 18.40625 75.984375 
L 18.40625 64.59375 
L 9.421875 64.59375 
z
" id="DejaVuSans-105"/>
     <path d="M 54.890625 33.015625 
L 54.890625 0 
L 45.90625 0 
L 45.90625 32.71875 
Q 45.90625 40.484375 42.875 44.328125 
Q 39.84375 48.1875 33.796875 48.1875 
Q 26.515625 48.1875 22.3125 43.546875 
Q 18.109375 38.921875 18.109375 30.90625 
L 18.109375 0 
L 9.078125 0 
L 9.078125 54.6875 
L 18.109375 54.6875 
L 18.109375 46.1875 
Q 21.34375 51.125 25.703125 53.5625 
Q 30.078125 56 35.796875 56 
Q 45.21875 56 50.046875 50.171875 
Q 54.890625 44.34375 54.890625 33.015625 
z
" id="DejaVuSans-110"/>
     <path d="M 19.671875 64.796875 
L 19.671875 8.109375 
L 31.59375 8.109375 
Q 46.6875 8.109375 53.6875 14.9375 
Q 60.6875 21.78125 60.6875 36.53125 
Q 60.6875 51.171875 53.6875 57.984375 
Q 46.6875 64.796875 31.59375 64.796875 
z
M 9.8125 72.90625 
L 30.078125 72.90625 
Q 51.265625 72.90625 61.171875 64.09375 
Q 71.09375 55.28125 71.09375 36.53125 
Q 71.09375 17.671875 61.125 8.828125 
Q 51.171875 0 30.078125 0 
L 9.8125 0 
z
" id="DejaVuSans-68"/>
     <path d="M 2.984375 54.6875 
L 12.5 54.6875 
L 29.59375 8.796875 
L 46.6875 54.6875 
L 56.203125 54.6875 
L 35.6875 0 
L 23.484375 0 
z
" id="DejaVuSans-118"/>
     <path d="M 44.28125 53.078125 
L 44.28125 44.578125 
Q 40.484375 46.53125 36.375 47.5 
Q 32.28125 48.484375 27.875 48.484375 
Q 21.1875 48.484375 17.84375 46.4375 
Q 14.5 44.390625 14.5 40.28125 
Q 14.5 37.15625 16.890625 35.375 
Q 19.28125 33.59375 26.515625 31.984375 
L 29.59375 31.296875 
Q 39.15625 29.25 43.1875 25.515625 
Q 47.21875 21.78125 47.21875 15.09375 
Q 47.21875 7.46875 41.1875 3.015625 
Q 35.15625 -1.421875 24.609375 -1.421875 
Q 20.21875 -1.421875 15.453125 -0.5625 
Q 10.6875 0.296875 5.421875 2 
L 5.421875 11.28125 
Q 10.40625 8.6875 15.234375 7.390625 
Q 20.0625 6.109375 24.8125 6.109375 
Q 31.15625 6.109375 34.5625 8.28125 
Q 37.984375 10.453125 37.984375 14.40625 
Q 37.984375 18.0625 35.515625 20.015625 
Q 33.0625 21.96875 24.703125 23.78125 
L 21.578125 24.515625 
Q 13.234375 26.265625 9.515625 29.90625 
Q 5.8125 33.546875 5.8125 39.890625 
Q 5.8125 47.609375 11.28125 51.796875 
Q 16.75 56 26.8125 56 
Q 31.78125 56 36.171875 55.265625 
Q 40.578125 54.546875 44.28125 53.078125 
z
" id="DejaVuSans-115"/>
     <path d="M 9.8125 72.90625 
L 24.515625 72.90625 
L 43.109375 23.296875 
L 61.8125 72.90625 
L 76.515625 72.90625 
L 76.515625 0 
L 66.890625 0 
L 66.890625 64.015625 
L 48.09375 14.015625 
L 38.1875 14.015625 
L 19.390625 64.015625 
L 19.390625 0 
L 9.8125 0 
z
" id="DejaVuSans-77"/>
     <path d="M 64.40625 67.28125 
L 64.40625 56.890625 
Q 59.421875 61.53125 53.78125 63.8125 
Q 48.140625 66.109375 41.796875 66.109375 
Q 29.296875 66.109375 22.65625 58.46875 
Q 16.015625 50.828125 16.015625 36.375 
Q 16.015625 21.96875 22.65625 14.328125 
Q 29.296875 6.6875 41.796875 6.6875 
Q 48.140625 6.6875 53.78125 8.984375 
Q 59.421875 11.28125 64.40625 15.921875 
L 64.40625 5.609375 
Q 59.234375 2.09375 53.4375 0.328125 
Q 47.65625 -1.421875 41.21875 -1.421875 
Q 24.65625 -1.421875 15.125 8.703125 
Q 5.609375 18.84375 5.609375 36.375 
Q 5.609375 53.953125 15.125 64.078125 
Q 24.65625 74.21875 41.21875 74.21875 
Q 47.75 74.21875 53.53125 72.484375 
Q 59.328125 70.75 64.40625 67.28125 
z
" id="DejaVuSans-67"/>
     <path d="M 8.6875 72.90625 
L 18.609375 72.90625 
L 18.609375 28.609375 
Q 18.609375 16.890625 22.84375 11.734375 
Q 27.09375 6.59375 36.625 6.59375 
Q 46.09375 6.59375 50.34375 11.734375 
Q 54.59375 16.890625 54.59375 28.609375 
L 54.59375 72.90625 
L 64.5 72.90625 
L 64.5 27.390625 
Q 64.5 13.140625 57.4375 5.859375 
Q 50.390625 -1.421875 36.625 -1.421875 
Q 22.796875 -1.421875 15.734375 5.859375 
Q 8.6875 13.140625 8.6875 27.390625 
z
" id="DejaVuSans-85"/>
     <path d="M 48.78125 52.59375 
L 48.78125 44.1875 
Q 44.96875 46.296875 41.140625 47.34375 
Q 37.3125 48.390625 33.40625 48.390625 
Q 24.65625 48.390625 19.8125 42.84375 
Q 14.984375 37.3125 14.984375 27.296875 
Q 14.984375 17.28125 19.8125 11.734375 
Q 24.65625 6.203125 33.40625 6.203125 
Q 37.3125 6.203125 41.140625 7.25 
Q 44.96875 8.296875 48.78125 10.40625 
L 48.78125 2.09375 
Q 45.015625 0.34375 40.984375 -0.53125 
Q 36.96875 -1.421875 32.421875 -1.421875 
Q 20.0625 -1.421875 12.78125 6.34375 
Q 5.515625 14.109375 5.515625 27.296875 
Q 5.515625 40.671875 12.859375 48.328125 
Q 20.21875 56 33.015625 56 
Q 37.15625 56 41.109375 55.140625 
Q 45.0625 54.296875 48.78125 52.59375 
z
" id="DejaVuSans-99"/>
     <path d="M 56.203125 29.59375 
L 56.203125 25.203125 
L 14.890625 25.203125 
Q 15.484375 15.921875 20.484375 11.0625 
Q 25.484375 6.203125 34.421875 6.203125 
Q 39.59375 6.203125 44.453125 7.46875 
Q 49.3125 8.734375 54.109375 11.28125 
L 54.109375 2.78125 
Q 49.265625 0.734375 44.1875 -0.34375 
Q 39.109375 -1.421875 33.890625 -1.421875 
Q 20.796875 -1.421875 13.15625 6.1875 
Q 5.515625 13.8125 5.515625 26.8125 
Q 5.515625 40.234375 12.765625 48.109375 
Q 20.015625 56 32.328125 56 
Q 43.359375 56 49.78125 48.890625 
Q 56.203125 41.796875 56.203125 29.59375 
z
M 47.21875 32.234375 
Q 47.125 39.59375 43.09375 43.984375 
Q 39.0625 48.390625 32.421875 48.390625 
Q 24.90625 48.390625 20.390625 44.140625 
Q 15.875 39.890625 15.1875 32.171875 
z
" id="DejaVuSans-101"/>
     <path d="M 32.171875 -5.078125 
Q 28.375 -14.84375 24.75 -17.8125 
Q 21.140625 -20.796875 15.09375 -20.796875 
L 7.90625 -20.796875 
L 7.90625 -13.28125 
L 13.1875 -13.28125 
Q 16.890625 -13.28125 18.9375 -11.515625 
Q 21 -9.765625 23.484375 -3.21875 
L 25.09375 0.875 
L 2.984375 54.6875 
L 12.5 54.6875 
L 29.59375 11.921875 
L 46.6875 54.6875 
L 56.203125 54.6875 
z
" id="DejaVuSans-121"/>
    </defs>
    <g transform="translate(115.666875 35.472)scale(0.12 -0.12)">
     <use xlink:href="#DejaVuSans-80"/>
     <use x="60.302734" xlink:href="#DejaVuSans-108"/>
     <use x="88.085938" xlink:href="#DejaVuSans-111"/>
     <use x="149.267578" xlink:href="#DejaVuSans-116"/>
     <use x="188.476562" xlink:href="#DejaVuSans-32"/>
     <use x="220.263672" xlink:href="#DejaVuSans-111"/>
     <use x="281.445312" xlink:href="#DejaVuSans-102"/>
     <use x="316.650391" xlink:href="#DejaVuSans-32"/>
     <use x="348.4375" xlink:href="#DejaVuSans-84"/>
     <use x="409.302734" xlink:href="#DejaVuSans-114"/>
     <use x="450.416016" xlink:href="#DejaVuSans-97"/>
     <use x="511.695312" xlink:href="#DejaVuSans-105"/>
     <use x="539.478516" xlink:href="#DejaVuSans-110"/>
     <use x="602.857422" xlink:href="#DejaVuSans-32"/>
     <use x="634.644531" xlink:href="#DejaVuSans-68"/>
     <use x="711.646484" xlink:href="#DejaVuSans-97"/>
     <use x="772.925781" xlink:href="#DejaVuSans-116"/>
     <use x="812.134766" xlink:href="#DejaVuSans-97"/>
     <use x="873.414062" xlink:href="#DejaVuSans-32"/>
     <use x="905.201172" xlink:href="#DejaVuSans-118"/>
     <use x="964.380859" xlink:href="#DejaVuSans-115"/>
     <use x="1016.480469" xlink:href="#DejaVuSans-32"/>
     <use x="1048.267578" xlink:href="#DejaVuSans-77"/>
     <use x="1134.546875" xlink:href="#DejaVuSans-67"/>
     <use x="1204.371094" xlink:href="#DejaVuSans-77"/>
     <use x="1290.650391" xlink:href="#DejaVuSans-67"/>
     <use x="1360.474609" xlink:href="#DejaVuSans-32"/>
     <use x="1392.261719" xlink:href="#DejaVuSans-85"/>
     <use x="1465.455078" xlink:href="#DejaVuSans-110"/>
     <use x="1528.833984" xlink:href="#DejaVuSans-99"/>
     <use x="1583.814453" xlink:href="#DejaVuSans-101"/>
     <use x="1645.337891" xlink:href="#DejaVuSans-114"/>
     <use x="1686.451172" xlink:href="#DejaVuSans-116"/>
     <use x="1725.660156" xlink:href="#DejaVuSans-97"/>
     <use x="1786.939453" xlink:href="#DejaVuSans-105"/>
     <use x="1814.722656" xlink:href="#DejaVuSans-110"/>
     <use x="1878.101562" xlink:href="#DejaVuSans-116"/>
     <use x="1917.310547" xlink:href="#DejaVuSans-121"/>
     <use x="1976.490234" xlink:href="#DejaVuSans-32"/>
    </g>
   </g>
   <g id="legend_1">
    <g id="patch_7">
     <path d="M 277.843437 108.1845 
L 407.72 108.1845 
Q 409.72 108.1845 409.72 106.1845 
L 409.72 48.472 
Q 409.72 46.472 407.72 46.472 
L 277.843437 46.472 
Q 275.843437 46.472 275.843437 48.472 
L 275.843437 106.1845 
Q 275.843437 108.1845 277.843437 108.1845 
z
" style="fill:#ffffff;opacity:0.8;stroke:#cccccc;stroke-linejoin:miter;"/>
    </g>
    <g id="line2d_17">
     <path d="M 279.843437 54.570438 
L 299.843437 54.570438 
" style="fill:none;stroke:#1f77b4;stroke-linecap:square;stroke-width:1.5;"/>
    </g>
    <g id="line2d_18"/>
    <g id="text_14">
     <!-- actual -->
     <defs>
      <path d="M 8.5 21.578125 
L 8.5 54.6875 
L 17.484375 54.6875 
L 17.484375 21.921875 
Q 17.484375 14.15625 20.5 10.265625 
Q 23.53125 6.390625 29.59375 6.390625 
Q 36.859375 6.390625 41.078125 11.03125 
Q 45.3125 15.671875 45.3125 23.6875 
L 45.3125 54.6875 
L 54.296875 54.6875 
L 54.296875 0 
L 45.3125 0 
L 45.3125 8.40625 
Q 42.046875 3.421875 37.71875 1 
Q 33.40625 -1.421875 27.6875 -1.421875 
Q 18.265625 -1.421875 13.375 4.4375 
Q 8.5 10.296875 8.5 21.578125 
z
M 31.109375 56 
z
" id="DejaVuSans-117"/>
     </defs>
     <g transform="translate(307.843437 58.070438)scale(0.1 -0.1)">
      <use xlink:href="#DejaVuSans-97"/>
      <use x="61.279297" xlink:href="#DejaVuSans-99"/>
      <use x="116.259766" xlink:href="#DejaVuSans-116"/>
      <use x="155.46875" xlink:href="#DejaVuSans-117"/>
      <use x="218.847656" xlink:href="#DejaVuSans-97"/>
      <use x="280.126953" xlink:href="#DejaVuSans-108"/>
     </g>
    </g>
    <g id="line2d_19">
     <path d="M 279.843437 69.248563 
L 299.843437 69.248563 
" style="fill:none;stroke:#ff7f0e;stroke-linecap:square;stroke-width:1.5;"/>
    </g>
    <g id="line2d_20"/>
    <g id="text_15">
     <!-- pred. (mean) -->
     <defs>
      <path d="M 18.109375 8.203125 
L 18.109375 -20.796875 
L 9.078125 -20.796875 
L 9.078125 54.6875 
L 18.109375 54.6875 
L 18.109375 46.390625 
Q 20.953125 51.265625 25.265625 53.625 
Q 29.59375 56 35.59375 56 
Q 45.5625 56 51.78125 48.09375 
Q 58.015625 40.1875 58.015625 27.296875 
Q 58.015625 14.40625 51.78125 6.484375 
Q 45.5625 -1.421875 35.59375 -1.421875 
Q 29.59375 -1.421875 25.265625 0.953125 
Q 20.953125 3.328125 18.109375 8.203125 
z
M 48.6875 27.296875 
Q 48.6875 37.203125 44.609375 42.84375 
Q 40.53125 48.484375 33.40625 48.484375 
Q 26.265625 48.484375 22.1875 42.84375 
Q 18.109375 37.203125 18.109375 27.296875 
Q 18.109375 17.390625 22.1875 11.75 
Q 26.265625 6.109375 33.40625 6.109375 
Q 40.53125 6.109375 44.609375 11.75 
Q 48.6875 17.390625 48.6875 27.296875 
z
" id="DejaVuSans-112"/>
      <path d="M 45.40625 46.390625 
L 45.40625 75.984375 
L 54.390625 75.984375 
L 54.390625 0 
L 45.40625 0 
L 45.40625 8.203125 
Q 42.578125 3.328125 38.25 0.953125 
Q 33.9375 -1.421875 27.875 -1.421875 
Q 17.96875 -1.421875 11.734375 6.484375 
Q 5.515625 14.40625 5.515625 27.296875 
Q 5.515625 40.1875 11.734375 48.09375 
Q 17.96875 56 27.875 56 
Q 33.9375 56 38.25 53.625 
Q 42.578125 51.265625 45.40625 46.390625 
z
M 14.796875 27.296875 
Q 14.796875 17.390625 18.875 11.75 
Q 22.953125 6.109375 30.078125 6.109375 
Q 37.203125 6.109375 41.296875 11.75 
Q 45.40625 17.390625 45.40625 27.296875 
Q 45.40625 37.203125 41.296875 42.84375 
Q 37.203125 48.484375 30.078125 48.484375 
Q 22.953125 48.484375 18.875 42.84375 
Q 14.796875 37.203125 14.796875 27.296875 
z
" id="DejaVuSans-100"/>
      <path d="M 31 75.875 
Q 24.46875 64.65625 21.28125 53.65625 
Q 18.109375 42.671875 18.109375 31.390625 
Q 18.109375 20.125 21.3125 9.0625 
Q 24.515625 -2 31 -13.1875 
L 23.1875 -13.1875 
Q 15.875 -1.703125 12.234375 9.375 
Q 8.59375 20.453125 8.59375 31.390625 
Q 8.59375 42.28125 12.203125 53.3125 
Q 15.828125 64.359375 23.1875 75.875 
z
" id="DejaVuSans-40"/>
      <path d="M 52 44.1875 
Q 55.375 50.25 60.0625 53.125 
Q 64.75 56 71.09375 56 
Q 79.640625 56 84.28125 50.015625 
Q 88.921875 44.046875 88.921875 33.015625 
L 88.921875 0 
L 79.890625 0 
L 79.890625 32.71875 
Q 79.890625 40.578125 77.09375 44.375 
Q 74.3125 48.1875 68.609375 48.1875 
Q 61.625 48.1875 57.5625 43.546875 
Q 53.515625 38.921875 53.515625 30.90625 
L 53.515625 0 
L 44.484375 0 
L 44.484375 32.71875 
Q 44.484375 40.625 41.703125 44.40625 
Q 38.921875 48.1875 33.109375 48.1875 
Q 26.21875 48.1875 22.15625 43.53125 
Q 18.109375 38.875 18.109375 30.90625 
L 18.109375 0 
L 9.078125 0 
L 9.078125 54.6875 
L 18.109375 54.6875 
L 18.109375 46.1875 
Q 21.1875 51.21875 25.484375 53.609375 
Q 29.78125 56 35.6875 56 
Q 41.65625 56 45.828125 52.96875 
Q 50 49.953125 52 44.1875 
z
" id="DejaVuSans-109"/>
      <path d="M 8.015625 75.875 
L 15.828125 75.875 
Q 23.140625 64.359375 26.78125 53.3125 
Q 30.421875 42.28125 30.421875 31.390625 
Q 30.421875 20.453125 26.78125 9.375 
Q 23.140625 -1.703125 15.828125 -13.1875 
L 8.015625 -13.1875 
Q 14.5 -2 17.703125 9.0625 
Q 20.90625 20.125 20.90625 31.390625 
Q 20.90625 42.671875 17.703125 53.65625 
Q 14.5 64.65625 8.015625 75.875 
z
" id="DejaVuSans-41"/>
     </defs>
     <g transform="translate(307.843437 72.748563)scale(0.1 -0.1)">
      <use xlink:href="#DejaVuSans-112"/>
      <use x="63.476562" xlink:href="#DejaVuSans-114"/>
      <use x="104.558594" xlink:href="#DejaVuSans-101"/>
      <use x="166.082031" xlink:href="#DejaVuSans-100"/>
      <use x="229.558594" xlink:href="#DejaVuSans-46"/>
      <use x="261.345703" xlink:href="#DejaVuSans-32"/>
      <use x="293.132812" xlink:href="#DejaVuSans-40"/>
      <use x="332.146484" xlink:href="#DejaVuSans-109"/>
      <use x="429.558594" xlink:href="#DejaVuSans-101"/>
      <use x="491.082031" xlink:href="#DejaVuSans-97"/>
      <use x="552.361328" xlink:href="#DejaVuSans-110"/>
      <use x="615.740234" xlink:href="#DejaVuSans-41"/>
     </g>
    </g>
    <g id="line2d_21">
     <path d="M 279.843437 83.926688 
L 299.843437 83.926688 
" style="fill:none;stroke:#2ca02c;stroke-linecap:square;stroke-width:1.5;"/>
    </g>
    <g id="line2d_22"/>
    <g id="text_16">
     <!-- pred.(5th percen.) -->
     <defs>
      <path d="M 10.796875 72.90625 
L 49.515625 72.90625 
L 49.515625 64.59375 
L 19.828125 64.59375 
L 19.828125 46.734375 
Q 21.96875 47.46875 24.109375 47.828125 
Q 26.265625 48.1875 28.421875 48.1875 
Q 40.625 48.1875 47.75 41.5 
Q 54.890625 34.8125 54.890625 23.390625 
Q 54.890625 11.625 47.5625 5.09375 
Q 40.234375 -1.421875 26.90625 -1.421875 
Q 22.3125 -1.421875 17.546875 -0.640625 
Q 12.796875 0.140625 7.71875 1.703125 
L 7.71875 11.625 
Q 12.109375 9.234375 16.796875 8.0625 
Q 21.484375 6.890625 26.703125 6.890625 
Q 35.15625 6.890625 40.078125 11.328125 
Q 45.015625 15.765625 45.015625 23.390625 
Q 45.015625 31 40.078125 35.4375 
Q 35.15625 39.890625 26.703125 39.890625 
Q 22.75 39.890625 18.8125 39.015625 
Q 14.890625 38.140625 10.796875 36.28125 
z
" id="DejaVuSans-53"/>
      <path d="M 54.890625 33.015625 
L 54.890625 0 
L 45.90625 0 
L 45.90625 32.71875 
Q 45.90625 40.484375 42.875 44.328125 
Q 39.84375 48.1875 33.796875 48.1875 
Q 26.515625 48.1875 22.3125 43.546875 
Q 18.109375 38.921875 18.109375 30.90625 
L 18.109375 0 
L 9.078125 0 
L 9.078125 75.984375 
L 18.109375 75.984375 
L 18.109375 46.1875 
Q 21.34375 51.125 25.703125 53.5625 
Q 30.078125 56 35.796875 56 
Q 45.21875 56 50.046875 50.171875 
Q 54.890625 44.34375 54.890625 33.015625 
z
" id="DejaVuSans-104"/>
     </defs>
     <g transform="translate(307.843437 87.426688)scale(0.1 -0.1)">
      <use xlink:href="#DejaVuSans-112"/>
      <use x="63.476562" xlink:href="#DejaVuSans-114"/>
      <use x="104.558594" xlink:href="#DejaVuSans-101"/>
      <use x="166.082031" xlink:href="#DejaVuSans-100"/>
      <use x="229.558594" xlink:href="#DejaVuSans-46"/>
      <use x="261.345703" xlink:href="#DejaVuSans-40"/>
      <use x="300.359375" xlink:href="#DejaVuSans-53"/>
      <use x="363.982422" xlink:href="#DejaVuSans-116"/>
      <use x="403.191406" xlink:href="#DejaVuSans-104"/>
      <use x="466.570312" xlink:href="#DejaVuSans-32"/>
      <use x="498.357422" xlink:href="#DejaVuSans-112"/>
      <use x="561.833984" xlink:href="#DejaVuSans-101"/>
      <use x="623.357422" xlink:href="#DejaVuSans-114"/>
      <use x="664.439453" xlink:href="#DejaVuSans-99"/>
      <use x="719.419922" xlink:href="#DejaVuSans-101"/>
      <use x="780.943359" xlink:href="#DejaVuSans-110"/>
      <use x="844.322266" xlink:href="#DejaVuSans-46"/>
      <use x="876.109375" xlink:href="#DejaVuSans-41"/>
     </g>
    </g>
    <g id="line2d_23">
     <path d="M 279.843437 98.604813 
L 299.843437 98.604813 
" style="fill:none;stroke:#d62728;stroke-linecap:square;stroke-width:1.5;"/>
    </g>
    <g id="line2d_24"/>
    <g id="text_17">
     <!-- pred.(95th percen.) -->
     <defs>
      <path d="M 10.984375 1.515625 
L 10.984375 10.5 
Q 14.703125 8.734375 18.5 7.8125 
Q 22.3125 6.890625 25.984375 6.890625 
Q 35.75 6.890625 40.890625 13.453125 
Q 46.046875 20.015625 46.78125 33.40625 
Q 43.953125 29.203125 39.59375 26.953125 
Q 35.25 24.703125 29.984375 24.703125 
Q 19.046875 24.703125 12.671875 31.3125 
Q 6.296875 37.9375 6.296875 49.421875 
Q 6.296875 60.640625 12.9375 67.421875 
Q 19.578125 74.21875 30.609375 74.21875 
Q 43.265625 74.21875 49.921875 64.515625 
Q 56.59375 54.828125 56.59375 36.375 
Q 56.59375 19.140625 48.40625 8.859375 
Q 40.234375 -1.421875 26.421875 -1.421875 
Q 22.703125 -1.421875 18.890625 -0.6875 
Q 15.09375 0.046875 10.984375 1.515625 
z
M 30.609375 32.421875 
Q 37.25 32.421875 41.125 36.953125 
Q 45.015625 41.5 45.015625 49.421875 
Q 45.015625 57.28125 41.125 61.84375 
Q 37.25 66.40625 30.609375 66.40625 
Q 23.96875 66.40625 20.09375 61.84375 
Q 16.21875 57.28125 16.21875 49.421875 
Q 16.21875 41.5 20.09375 36.953125 
Q 23.96875 32.421875 30.609375 32.421875 
z
" id="DejaVuSans-57"/>
     </defs>
     <g transform="translate(307.843437 102.104813)scale(0.1 -0.1)">
      <use xlink:href="#DejaVuSans-112"/>
      <use x="63.476562" xlink:href="#DejaVuSans-114"/>
      <use x="104.558594" xlink:href="#DejaVuSans-101"/>
      <use x="166.082031" xlink:href="#DejaVuSans-100"/>
      <use x="229.558594" xlink:href="#DejaVuSans-46"/>
      <use x="261.345703" xlink:href="#DejaVuSans-40"/>
      <use x="300.359375" xlink:href="#DejaVuSans-57"/>
      <use x="363.982422" xlink:href="#DejaVuSans-53"/>
      <use x="427.605469" xlink:href="#DejaVuSans-116"/>
      <use x="466.814453" xlink:href="#DejaVuSans-104"/>
      <use x="530.193359" xlink:href="#DejaVuSans-32"/>
      <use x="561.980469" xlink:href="#DejaVuSans-112"/>
      <use x="625.457031" xlink:href="#DejaVuSans-101"/>
      <use x="686.980469" xlink:href="#DejaVuSans-114"/>
      <use x="728.0625" xlink:href="#DejaVuSans-99"/>
      <use x="783.042969" xlink:href="#DejaVuSans-101"/>
      <use x="844.566406" xlink:href="#DejaVuSans-110"/>
      <use x="907.945312" xlink:href="#DejaVuSans-46"/>
      <use x="939.732422" xlink:href="#DejaVuSans-41"/>
     </g>
    </g>
   </g>
  </g>
 </g>
 <defs>
  <clipPath id="p46468c2a3a">
   <rect height="266.112" width="357.12" x="57.6" y="41.472"/>
  </clipPath>
 </defs>
</svg>
